<svg xmlns="http://www.w3.org/2000/svg" viewBox="0 0 800 440">
  <defs>
    <marker id="arrowhead" markerHeight="6" markerWidth="8" orient="auto" refX="8" refY="3">
      <path fill="#87867f" d="m0 0 8 3-8 3z"/>
    </marker>
    <marker id="darrowhead" markerHeight="6" markerWidth="8" orient="auto" refX="8" refY="3">
      <path fill="#d97757" d="m0 0 8 3-8 3z"/>
    </marker>
    <marker id="garrowhead" markerHeight="6" markerWidth="8" orient="auto" refX="8" refY="3">
      <path fill="#788c5d" d="m0 0 8 3-8 3z"/>
    </marker>
    <style>
      .slate-text{fill:#141413;font-family:monospace}.box{stroke:#141413;stroke-width:1.5}.arrow,.garrow{stroke:#87867f;stroke-width:2;fill:none;marker-end:url(#arrowhead)}.garrow{stroke:#788c5d;stroke-width:1.5;marker-end:url(#garrowhead)}
    </style>
  </defs>
  <path d="M0 0h800v440H0z" style="fill:#faf9f5"/>
  <text x="400" y="28" fill="#141413" class="slate-text" font-size="15" font-weight="bold" text-anchor="middle">对抗偏见的 RAG 防御架构</text>
  <text x="130" y="54" fill="#d97757" class="slate-text" font-size="12" font-weight="bold" text-anchor="middle">传统 RAG (偏见放大)</text>
  <rect width="200" height="30" x="30" y="64" fill="#faf9f5" class="box" rx="4"/>
  <text x="130" y="84" fill="#141413" class="slate-text" font-size="11" text-anchor="middle">用户: &quot;Python 最好的语言?&quot;</text>
  <path d="M130 94v18" class="arrow"/>
  <rect width="200" height="52" x="30" y="112" fill="#d97757" stroke="#d97757" class="box" opacity=".15" rx="4"/>
  <text x="130" y="130" fill="#d97757" class="slate-text" font-size="11" font-weight="bold" text-anchor="middle">检索 (有偏)</text>
  <text x="130" y="146" fill="#87867f" class="slate-text" font-size="10" text-anchor="middle">→ Python 优势文章 × 5</text>
  <text x="130" y="159" fill="#87867f" class="slate-text" font-size="10" text-anchor="middle">→ 反对观点: 0</text>
  <path d="M130 164v18" class="arrow"/>
  <rect width="200" height="38" x="30" y="182" fill="#d97757" stroke="#d97757" class="box" opacity=".15" rx="4"/>
  <text x="130" y="202" fill="#d97757" class="slate-text" font-size="11" font-weight="bold" text-anchor="middle">生成 (回音壁)</text>
  <text x="130" y="216" fill="#87867f" class="slate-text" font-size="10" text-anchor="middle">&quot;Python 确实最优...&quot;</text>
  <path d="M130 220v16" class="arrow"/>
  <rect width="200" height="28" x="30" y="236" fill="#d97757" class="box" rx="4"/>
  <text x="130" y="255" fill="#faf9f5" class="slate-text" font-size="11" text-anchor="middle">用户偏见被强化 ✅</text>
  <text x="670" y="54" fill="#788c5d" class="slate-text" font-size="12" font-weight="bold" text-anchor="middle">防御 RAG (偏见对抗)</text>
  <rect width="200" height="30" x="570" y="64" fill="#faf9f5" class="box" rx="4"/>
  <text x="670" y="84" fill="#141413" class="slate-text" font-size="11" text-anchor="middle">用户: &quot;Python 最好的语言?&quot;</text>
  <path d="M670 94v18" class="arrow"/>
  <rect width="360" height="60" x="490" y="112" fill="#788c5d" stroke="#788c5d" class="box" opacity=".1" rx="6"/>
  <text x="670" y="128" fill="#788c5d" class="slate-text" font-size="11" font-weight="bold" text-anchor="middle">双重检索 ( DiverseRetrieval )</text>
  <rect width="160" height="28" x="502" y="136" fill="#788c5d" opacity=".3" rx="3"/>
  <text x="582" y="154" fill="#141413" class="slate-text" font-size="10" text-anchor="middle">支持 Python × 3</text>
  <rect width="160" height="28" x="678" y="136" fill="#d97757" stroke="#d97757" opacity=".25" rx="3"/>
  <text x="758" y="154" fill="#d97757" class="slate-text" font-size="10" text-anchor="middle">反对观点 × 2</text>
  <path d="M670 172v18" class="garrow"/>
  <rect width="360" height="54" x="490" y="190" fill="#e3dacc" stroke="#d1cfc5" class="box" rx="6"/>
  <text x="670" y="208" fill="#141413" class="slate-text" font-size="11" font-weight="bold" text-anchor="middle">交叉验证 ( CrossValidation )</text>
  <text x="670" y="226" fill="#87867f" class="slate-text" font-size="10" text-anchor="middle">共识度: 60% | 争议标记: ⚠️ | 反对来源已记录</text>
  <text x="670" y="240" fill="#87867f" class="slate-text" font-size="10" text-anchor="middle">置信度: 中等 (存在争议，建议用户自行判断)</text>
  <path d="M670 244v18" class="garrow"/>
  <rect width="360" height="54" x="490" y="262" fill="#faf9f5" stroke="#788c5d" class="box" rx="6"/>
  <text x="670" y="280" fill="#788c5d" class="slate-text" font-size="11" font-weight="bold" text-anchor="middle">透明生成 ( UncertaintyExpression )</text>
  <text x="670" y="296" fill="#141413" class="slate-text" font-size="10" text-anchor="middle">&quot;Python 在数据科学领域有优势，但存在争议，</text>
  <text x="670" y="311" fill="#141413" class="slate-text" font-size="10" text-anchor="middle">反对观点认为... 请结合场景判断&quot;</text>
  <path d="M670 316v16" class="garrow"/>
  <rect width="360" height="80" x="490" y="332" fill="#faf9f5" stroke="#d1cfc5" class="box" rx="6"/>
  <text x="670" y="350" fill="#141413" class="slate-text" font-size="11" font-weight="bold" text-anchor="middle">📋 检索透明度报告</text>
  <rect width="336" height="16" x="502" y="358" fill="#788c5d" opacity=".2" rx="2"/>
  <text x="520" y="370" fill="#141413" class="slate-text" font-size="10">✅ 5 个来源 | ⚠️ 2 个有商业利益相关 | 观点分布: 支持 60% | 反对 40%</text>
  <rect width="336" height="16" x="502" y="380" fill="#d97757" opacity=".15" rx="2"/>
  <text x="520" y="392" fill="#87867f" class="slate-text" font-size="10">反对观点: &quot;Python 局限性&quot; &quot;Java 企业优势&quot; &quot;TIOBE vs GitHub 差异&quot;</text>
  <text x="400" y="76" fill="#d97757" class="slate-text" font-size="10" font-weight="bold" text-anchor="middle">❌</text>
  <path stroke="#d1cfc5" stroke-dasharray="6 4" d="M400 100v280"/>
  <rect width="48" height="24" x="376" y="230" fill="#141413" rx="12"/>
  <text x="400" y="246" fill="#faf9f5" class="slate-text" font-size="11" text-anchor="middle">VS</text>
  <text x="400" y="108" fill="#87867f" class="slate-text" font-size="10" text-anchor="middle">信息茧房</text>
  <text x="400" y="378" fill="#87867f" class="slate-text" font-size="10" text-anchor="middle">主动多样化</text>
  <rect width="360" height="16" x="490" y="420" fill="#e3dacc" rx="3"/>
  <text x="514" y="432" fill="#87867f" class="slate-text" font-size="9">对立查询生成: &quot;Python局限性&quot; &quot;Java优势&quot; &quot;编程语言选择不应只看popularity&quot;</text>
  <rect width="10" height="10" x="30" y="420" fill="#d97757" rx="2"/>
  <text x="44" y="429" fill="#87867f" class="slate-text" font-size="9">有偏检索</text>
  <rect width="10" height="10" x="108" y="420" fill="#788c5d" rx="2"/>
  <text x="122" y="429" fill="#87867f" class="slate-text" font-size="9">多样化检索</text>
  <rect width="10" height="10" x="200" y="420" fill="#e3dacc" rx="2"/>
  <text x="214" y="429" fill="#87867f" class="slate-text" font-size="9">交叉验证</text>
</svg>
