<svg xmlns="http://www.w3.org/2000/svg" font-family="ui-serif, Georgia, serif" viewBox="0 0 680 320">
  <title>AI导师核心能力图</title>
  <desc>
    展示AI如何通过代码审查历史分析生成个性化导师方案的流程图
  </desc>
  <path fill="#faf9f5" d="M0 0h680v320H0z"/>
  <text x="340" y="28" fill="#141413" font-size="14" font-weight="500" letter-spacing="-.02em" text-anchor="middle">AI导师：让每个开发者都有专属导师</text>
  <text x="340" y="44" fill="#87867f" font-family="ui-monospace, monospace" font-size="10" text-anchor="middle">AI-Native软件工程 · 2025/05/22</text>
  <rect width="130" height="200" x="30" y="68" fill="#fff" stroke="#d1cfc5" stroke-width="1.5" rx="8"/>
  <text x="95" y="88" fill="#141413" font-size="11" font-weight="600" text-anchor="middle">开发者</text>
  <circle cx="95" cy="118" r="18" fill="#d1cfc5"/>
  <rect width="36" height="50" x="77" y="138" fill="#d1cfc5" rx="8"/>
  <rect width="100" height="55" x="45" y="200" fill="#f0eee6" stroke="#d1cfc5" rx="4"/>
  <text x="95" y="218" fill="#87867f" font-family="ui-monospace, monospace" font-size="9" text-anchor="middle">代码审查历史</text>
  <path stroke="#d1cfc5" d="M55 226h80m-80 8h65m-65 8h73"/>
  <path stroke="#d97757" stroke-width="2" d="M160 170h50"/>
  <path fill="#d97757" d="m210 170-8-4v8z"/>
  <text x="185" y="162" fill="#87867f" font-family="ui-monospace, monospace" font-size="8" text-anchor="middle">输入</text>
  <rect width="160" height="160" x="220" y="90" fill="#fff" stroke="#d97757" stroke-width="2" rx="10"/>
  <rect width="160" height="28" x="220" y="90" fill="#d97757" rx="10"/>
  <path fill="#d97757" d="M220 110h160v8H220z"/>
  <text x="300" y="109" fill="#fff" font-size="12" font-weight="600" text-anchor="middle">AI导师核心</text>
  <text x="300" y="138" fill="#141413" font-size="11" text-anchor="middle">开发者画像</text>
  <text x="300" y="154" fill="#87867f" font-size="10" text-anchor="middle">能力评估 + 历史分析</text>
  <path fill="none" stroke="#d97757" stroke-width="1.5" d="m300 168 20 14-10 20h-30l-10-20z"/>
  <path fill="#d97757" fill-opacity=".15" d="m300 174 12 10-7 14h-20l-7-14z"/>
  <text x="300" y="220" fill="#87867f" font-family="ui-monospace, monospace" font-size="9" text-anchor="middle">技能雷达</text>
  <path stroke="#d1cfc5" stroke-width="1.5" d="m380 130 50-20"/>
  <path fill="#d1cfc5" d="m430 110-8 4v-8z"/>
  <path stroke="#d1cfc5" stroke-width="1.5" d="M380 150h50"/>
  <path fill="#d1cfc5" d="m430 150-8-4v8z"/>
  <path stroke="#d1cfc5" stroke-width="1.5" d="m380 170 50 20"/>
  <path fill="#d1cfc5" d="m430 190-8-4v8z"/>
  <path stroke="#d1cfc5" stroke-width="1.5" d="m380 190 50 40"/>
  <path fill="#d1cfc5" d="m430 230-8-6v12z"/>
  <rect width="210" height="44" x="440" y="76" fill="#fff" stroke="#d97757" stroke-width="1.5" rx="6"/>
  <text x="456" y="96" fill="#d97757" font-family="ui-monospace, monospace" font-size="10" font-weight="600">个性化推荐</text>
  <text x="456" y="110" fill="#87867f" font-size="9">技术文章·练习任务·学习伙伴</text>
  <rect width="210" height="44" x="440" y="128" fill="#fff" stroke="#d1cfc5" stroke-width="1.5" rx="6"/>
  <text x="456" y="148" fill="#141413" font-family="ui-monospace, monospace" font-size="10" font-weight="600">实时指导</text>
  <text x="456" y="162" fill="#87867f" font-size="9">IDE内实时反馈·边写边学</text>
  <rect width="210" height="44" x="440" y="180" fill="#fff" stroke="#d1cfc5" stroke-width="1.5" rx="6"/>
  <text x="456" y="200" fill="#141413" font-family="ui-monospace, monospace" font-size="10" font-weight="600">效果追踪</text>
  <text x="456" y="214" fill="#87867f" font-size="9">成长曲线·能力变化可视化</text>
  <rect width="210" height="44" x="440" y="232" fill="#fff" stroke="#d1cfc5" stroke-width="1.5" rx="6"/>
  <text x="456" y="252" fill="#141413" font-family="ui-monospace, monospace" font-size="10" font-weight="600">学习路径</text>
  <text x="456" y="266" fill="#87867f" font-size="9">AI生成·动态调整·分阶段目标</text>
  <text x="340" y="304" fill="#87867f" font-family="ui-monospace, monospace" font-size="9" text-anchor="middle">AI生成 · 2025-05-22</text>
</svg>
