<svg xmlns="http://www.w3.org/2000/svg" font-family="ui-serif, Georgia, 'Times New Roman', serif" viewBox="0 0 600 400"><path fill="#faf9f5" d="M0 0h600v400H0z"/><text x="300" y="28" fill="#141413" font-size="14" font-weight="500" letter-spacing="-.02em" text-anchor="middle">语义一致性三要素</text><text x="300" y="44" fill="#87867f" font-family="ui-monospace, monospace" font-size="10" text-anchor="middle">结构 · 行为 · 业务</text><path stroke="#d1cfc5" stroke-width="1.5" d="M300 145 165 295m135-150 135 150m-270 0h270"/><circle cx="300" cy="238" r="28" fill="#fff" stroke="#d97757" stroke-width="1.8"/><text x="300" y="233" fill="#d97757" font-family="ui-monospace, monospace" font-size="10" font-weight="600" text-anchor="middle">语义</text><text x="300" y="248" fill="#d97757" font-family="ui-monospace, monospace" font-size="10" font-weight="600" text-anchor="middle">一致性</text><rect width="220" height="54" x="190" y="88" fill="#fff" stroke="#d97757" stroke-width="2" rx="27"/><rect width="208" height="42" x="196" y="94" fill="#d97757" opacity=".08" rx="23"/><text x="300" y="115" fill="#d97757" font-size="13" font-weight="600" text-anchor="middle">结构一致性</text><text x="300" y="132" fill="#87867f" font-family="ui-monospace, monospace" font-size="9.5" text-anchor="middle">字段存在 · 类型匹配 · 格式正确</text><rect width="200" height="54" x="65" y="260" fill="#fff" stroke="#788c5d" stroke-width="2" rx="27"/><rect width="188" height="42" x="71" y="266" fill="#788c5d" opacity=".08" rx="23"/><text x="165" y="287" fill="#788c5d" font-size="13" font-weight="600" text-anchor="middle">行为一致性</text><text x="165" y="304" fill="#87867f" font-family="ui-monospace, monospace" font-size="9.5" text-anchor="middle">相同输入 · 预期输出</text><rect width="200" height="54" x="335" y="260" fill="#fff" stroke="#141413" stroke-width="1.8" rx="27"/><rect width="188" height="42" x="341" y="266" fill="#141413" opacity=".06" rx="23"/><text x="435" y="287" fill="#141413" font-size="13" font-weight="600" text-anchor="middle">业务一致性</text><text x="435" y="304" fill="#87867f" font-family="ui-monospace, monospace" font-size="9.5" text-anchor="middle">业务含义不变 · 规则不变</text><rect width="70" height="18" x="145" y="152" fill="#d97757" opacity=".1" rx="4"/><text x="180" y="164" fill="#d97757" font-family="ui-monospace, monospace" font-size="8.5" text-anchor="middle">user.phone</text><rect width="70" height="18" x="225" y="152" fill="#d97757" opacity=".1" rx="4"/><text x="260" y="164" fill="#d97757" font-family="ui-monospace, monospace" font-size="8.5" text-anchor="middle">quantity:int</text><rect width="70" height="18" x="305" y="152" fill="#d97757" opacity=".1" rx="4"/><text x="340" y="164" fill="#d97757" font-family="ui-monospace, monospace" font-size="8.5" text-anchor="middle">POST /orders</text><rect width="90" height="18" x="65" y="324" fill="#788c5d" opacity=".1" rx="4"/><text x="110" y="336" fill="#788c5d" font-family="ui-monospace, monospace" font-size="8.5" text-anchor="middle">GET /orders → [ ]</text><rect width="90" height="18" x="165" y="324" fill="#788c5d" opacity=".1" rx="4"/><text x="210" y="336" fill="#788c5d" font-family="ui-monospace, monospace" font-size="8.5" text-anchor="middle">POST → 201 Created</text><rect width="90" height="18" x="335" y="324" fill="#141413" opacity=".08" rx="4"/><text x="380" y="336" fill="#141413" font-family="ui-monospace, monospace" font-size="8.5" text-anchor="middle">status=pending</text><rect width="90" height="18" x="435" y="324" fill="#141413" opacity=".08" rx="4"/><text x="480" y="336" fill="#141413" font-family="ui-monospace, monospace" font-size="8.5" text-anchor="middle">含义=待付款</text><rect width="300" height="24" x="150" y="368" fill="#fff" stroke="#d1cfc5" stroke-width="1.2" rx="6"/><text x="300" y="384" fill="#141413" font-size="10" text-anchor="middle">三要素同时满足 = 语义一致</text></svg>