<svg xmlns="http://www.w3.org/2000/svg" font-family="system-ui,sans-serif" viewBox="0 0 820 520"><title>ServiceNow Autonomous Workforce AI控制塔三层架构</title><desc>ServiceNow Autonomous Workforce的三层架构图：顶部治理层（Governance治理、Authority权限、Auditability审计），中间协调层（工作流编排、上下文传递、异常处理），底部执行层（IT服务Agent、HR服务Agent、客户服务Agent、财务Agent等预构建专业Agent）。核心定位为&quot;可控的自主&quot;。</desc><defs><marker id="arr" markerHeight="7" markerWidth="7" orient="auto" refX="6" refY="3"><path fill="#d97757" d="m0 0 6 3-6 3Z"/></marker></defs><path fill="#faf9f5" d="M0 0h820v520H0z"/><text x="410" y="32" fill="#141413" font-size="17" font-weight="700" text-anchor="middle">ServiceNow Autonomous Workforce：AI控制塔三层架构</text><text x="410" y="52" fill="#87867f" font-size="12" text-anchor="middle">执行层 · 协调层 · 治理层 — Governance, Authority, Auditability</text><rect width="120" height="26" x="350" y="66" fill="#141413" rx="13"/><text x="410" y="84" fill="#faf9f5" font-size="11" font-weight="700" text-anchor="middle">AI 控制塔</text><rect width="780" height="4" x="20" y="100" fill="#d1cfc5" rx="2"/><rect width="780" height="130" x="20" y="110" fill="#e3dacc" stroke="#788c5d" stroke-width="2" rx="10"/><rect width="80" height="20" x="36" y="120" fill="#788c5d" rx="4"/><text x="76" y="134" fill="#faf9f5" font-size="10" font-weight="700" text-anchor="middle">治理层</text><rect width="230" height="76" x="36" y="150" fill="#faf9f5" stroke="#d1cfc5" rx="6"/><text x="151" y="170" fill="#141413" font-size="11" font-weight="700" text-anchor="middle">Governance 治理</text><path stroke="#d1cfc5" stroke-width=".8" d="M50 177h202"/><text x="46" y="192" fill="#141413" font-size="9">• 策略驱动的Agent行为边界</text><text x="46" y="205" fill="#141413" font-size="9">• 分层决策：战略（人类）vs战术（AI）</text><text x="46" y="218" fill="#141413" font-size="9">• 实时可见性 + 异常介入能力</text><rect width="230" height="76" x="280" y="150" fill="#faf9f5" stroke="#d1cfc5" rx="6"/><text x="395" y="170" fill="#141413" font-size="11" font-weight="700" text-anchor="middle">Authority 权限</text><path stroke="#d1cfc5" stroke-width=".8" d="M294 177h212"/><text x="290" y="192" fill="#141413" font-size="9">• 最小权限原则（零信任）</text><text x="290" y="205" fill="#141413" font-size="9">• 动态权限（按上下文调整）</text><text x="290" y="218" fill="#141413" font-size="9">• 多因素授权 + 定期权限审计</text><rect width="260" height="76" x="524" y="150" fill="#faf9f5" stroke="#d1cfc5" rx="6"/><text x="654" y="170" fill="#141413" font-size="11" font-weight="700" text-anchor="middle">Auditability 审计</text><path stroke="#d1cfc5" stroke-width=".8" d="M538 177h232"/><text x="534" y="192" fill="#141413" font-size="9">• 不可篡改的行为日志</text><text x="534" y="205" fill="#141413" font-size="9">• 可解释决策（Chain-of-Thought）</text><text x="534" y="218" fill="#141413" font-size="9">• 自动生成SOX/GDPR合规报告</text><rect width="780" height="120" x="20" y="250" fill="#e3dacc" stroke="#d97757" stroke-width="2" rx="10"/><rect width="80" height="20" x="36" y="260" fill="#d97757" rx="4"/><text x="76" y="274" fill="#faf9f5" font-size="10" font-weight="700" text-anchor="middle">协调层</text><rect width="230" height="64" x="36" y="290" fill="#faf9f5" stroke="#d1cfc5" rx="6"/><text x="151" y="308" fill="#141413" font-size="11" font-weight="700" text-anchor="middle">工作流编排</text><path stroke="#d1cfc5" stroke-width=".8" d="M50 315h202"/><text x="46" y="330" fill="#141413" font-size="9">• 可视化跨Agent流程设计</text><text x="46" y="343" fill="#141413" font-size="9">• 多Agent串联/并联编排</text><rect width="230" height="64" x="280" y="290" fill="#faf9f5" stroke="#d1cfc5" rx="6"/><text x="395" y="308" fill="#141413" font-size="11" font-weight="700" text-anchor="middle">上下文传递</text><path stroke="#d1cfc5" stroke-width=".8" d="M294 315h212"/><text x="290" y="330" fill="#141413" font-size="9">• 共享上下文存储</text><text x="290" y="343" fill="#141413" font-size="9">• 跨Agent信息无缝流转</text><rect width="260" height="64" x="524" y="290" fill="#faf9f5" stroke="#d1cfc5" rx="6"/><text x="654" y="308" fill="#141413" font-size="11" font-weight="700" text-anchor="middle">异常处理</text><path stroke="#d1cfc5" stroke-width=".8" d="M538 315h232"/><text x="534" y="330" fill="#141413" font-size="9">• 熔断 · 重试 · 升级机制</text><text x="534" y="343" fill="#141413" font-size="9">• 流程健壮性保障</text><path fill="none" stroke="#d97757" stroke-width="2" marker-end="url(#arr)" d="M410 378v14"/><rect width="780" height="100" x="20" y="400" fill="#e3dacc" stroke="#141413" stroke-width="2" rx="10"/><rect width="80" height="20" x="36" y="410" fill="#141413" rx="4"/><text x="76" y="424" fill="#faf9f5" font-size="10" font-weight="700" text-anchor="middle">执行层</text><rect width="130" height="50" x="36" y="438" fill="#faf9f5" stroke="#d1cfc5" rx="6"/><text x="101" y="457" fill="#141413" font-size="10" font-weight="700" text-anchor="middle">IT服务Agent</text><text x="101" y="472" fill="#87867f" font-size="9" text-anchor="middle">密码重置 · 权限申请</text><rect width="130" height="50" x="178" y="438" fill="#faf9f5" stroke="#d1cfc5" rx="6"/><text x="243" y="457" fill="#141413" font-size="10" font-weight="700" text-anchor="middle">HR服务Agent</text><text x="243" y="472" fill="#87867f" font-size="9" text-anchor="middle">入职 · 福利 · 报销</text><rect width="130" height="50" x="320" y="438" fill="#faf9f5" stroke="#d1cfc5" rx="6"/><text x="385" y="457" fill="#141413" font-size="10" font-weight="700" text-anchor="middle">客户服务Agent</text><text x="385" y="472" fill="#87867f" font-size="9" text-anchor="middle">咨询 · 投诉 · 查询</text><rect width="130" height="50" x="462" y="438" fill="#faf9f5" stroke="#d1cfc5" rx="6"/><text x="527" y="457" fill="#141413" font-size="10" font-weight="700" text-anchor="middle">财务Agent</text><text x="527" y="472" fill="#87867f" font-size="9" text-anchor="middle">发票 · 预算 · 合规审批</text><rect width="178" height="50" x="606" y="438" fill="#faf9f5" stroke="#d1cfc5" stroke-dasharray="4,2" rx="6"/><text x="695" y="457" fill="#87867f" font-size="10" font-weight="700" text-anchor="middle">+ 更多领域Agent</text><text x="695" y="472" fill="#d1cfc5" font-size="9" text-anchor="middle">深度集成ServiceNow平台</text><text x="410" y="512" fill="#87867f" font-size="10" text-anchor="middle">核心定位：可控的自主（Controlled Autonomy）— 不是黑箱完全自主，而是可治理可审计的控制塔</text></svg>