<svg xmlns="http://www.w3.org/2000/svg" aria-label="AI adoption S曲线" viewBox="0 0 800 400"><title>AI Adoption 三层S曲线模型</title><desc>企业AI adoption的三层嵌套S-curve：个人层、团队层、组织层，每层有自己的采用周期</desc><defs><linearGradient id="bg5" x1="0%" x2="100%" y1="0%" y2="100%"><stop offset="0%" stop-color="#faf9f5"/><stop offset="100%" stop-color="#e3dacc"/></linearGradient><marker id="arrowhead" markerHeight="8" markerWidth="8" orient="auto" refX="7" refY="4"><path fill="#87867f" d="m0 0 8 4-8 4z"/></marker></defs><path fill="url(#bg5)" d="M0 0h800v400H0z"/><text x="400" y="28" fill="#141413" font-family="Georgia, serif" font-size="17" letter-spacing="1" text-anchor="middle">AI Adoption 三层S-curve嵌套模型</text><path stroke="#d1cfc5" d="M150 40h500"/><path stroke="#87867f" stroke-width="1.5" marker-end="url(#arrowhead)" d="M100 55v300"/><text x="88" y="52" fill="#87867f" font-family="Georgia, serif" font-size="10" text-anchor="middle">普及率</text><path stroke="#87867f" stroke-width="1.5" marker-end="url(#arrowhead)" d="M100 355h650"/><text x="755" y="360" fill="#87867f" font-family="Georgia, serif" font-size="10" text-anchor="middle">时间</text><text x="200" y="372" fill="#87867f" font-family="Georgia, serif" font-size="9" text-anchor="middle">早期</text><text x="420" y="372" fill="#87867f" font-family="Georgia, serif" font-size="9" text-anchor="middle">加速期</text><text x="640" y="372" fill="#87867f" font-family="Georgia, serif" font-size="9" text-anchor="middle">成熟期</text><path stroke="#d1cfc5" stroke-dasharray="4,4" d="M310 355V60m220 295V60"/><path fill="none" stroke="#788c5d" stroke-linecap="round" stroke-width="4" d="M100 350q60-5 100-40 60-80 110-160 60-70 120-82 60-6 170-8l150-2"/><text x="115" y="330" fill="#788c5d" font-family="Georgia, serif" font-size="11" font-weight="bold">个人层</text><text x="115" y="343" fill="#788c5d" font-family="Georgia, serif" font-size="9">Individual (6月)</text><path fill="none" stroke="#d97757" stroke-linecap="round" stroke-width="4" d="M100 350q60-2 130-10 80-30 150-90 70-80 130-120 60-25 130-32 50-3 110-4"/><text x="130" y="330" fill="#d97757" font-family="Georgia, serif" font-size="11" font-weight="bold">团队层</text><text x="130" y="343" fill="#d97757" font-family="Georgia, serif" font-size="9">Team (12月)</text><path fill="none" stroke="#141413" stroke-linecap="round" stroke-width="4" d="M100 350q80-2 180-8 100-17 180-57 70-45 120-90 50-40 100-65 30-12 70-15"/><text x="145" y="330" fill="#141413" font-family="Georgia, serif" font-size="11" font-weight="bold">组织层</text><text x="145" y="343" fill="#141413" font-family="Georgia, serif" font-size="9">Organization (5年+)</text><rect width="180" height="55" x="560" y="58" fill="#faf9f5" stroke="#d97757" stroke-width="1.5" opacity=".9" rx="8"/><text x="650" y="76" fill="#d97757" font-family="Georgia, serif" font-size="10" font-weight="bold" text-anchor="middle">关键洞察</text><text x="650" y="91" fill="#141413" font-family="Georgia, serif" font-size="9" text-anchor="middle">上层依赖下层的成熟</text><text x="650" y="105" fill="#141413" font-family="Georgia, serif" font-size="9" text-anchor="middle">不能跳过任何一层</text><text x="200" y="295" fill="#788c5d" font-family="Georgia, serif" font-size="8" opacity=".8" text-anchor="middle">探索</text><text x="310" y="140" fill="#788c5d" font-family="Georgia, serif" font-size="8" opacity=".8" text-anchor="middle">熟练</text><text x="430" y="63" fill="#788c5d" font-family="Georgia, serif" font-size="8" opacity=".8" text-anchor="middle">创新</text><rect width="600" height="14" x="100" y="380" fill="#d1cfc5" opacity=".25" rx="7"/><rect width="18" height="10" x="120" y="382" fill="#788c5d" rx="2"/><text x="145" y="390" fill="#141413" font-family="Georgia, serif" font-size="9">个人层: 6月</text><rect width="18" height="10" x="240" y="382" fill="#d97757" rx="2"/><text x="265" y="390" fill="#141413" font-family="Georgia, serif" font-size="9">团队层: 12月</text><rect width="18" height="10" x="360" y="382" fill="#141413" rx="2"/><text x="385" y="390" fill="#141413" font-family="Georgia, serif" font-size="9">组织层: 5年+</text></svg>