<svg xmlns="http://www.w3.org/2000/svg" font-family="ui-serif, Georgia, 'Times New Roman', serif" viewBox="0 0 680 380">
  <title>C4 Model 四层模型</title>
  <desc>
    C4 Model 的四个层次：System Context、Container、Component、Code Structure
  </desc>
  <path fill="#faf9f5" d="M0 0h680v380H0z"/>
  <text x="340" y="26" fill="#141413" font-size="14" font-weight="500" letter-spacing="-.02em" text-anchor="middle">C4 Model 四层模型</text>
  <text x="340" y="42" fill="#87867f" font-family="ui-monospace, monospace" font-size="10" text-anchor="middle">Simon Brown · c4model.com</text>
  <rect width="600" height="100" x="40" y="60" fill="#fff" stroke="#d97757" stroke-width="2" rx="10"/>
  <rect width="600" height="28" x="40" y="60" fill="#d97757" rx="10"/>
  <path fill="#d97757" d="M40 75h600v13H40z"/>
  <text x="56" y="78" fill="#fff" font-family="ui-monospace, monospace" font-size="11" font-weight="600">Level 1</text>
  <text x="56" y="92" fill="#141413" font-size="13">System Context</text>
  <text x="56" y="108" fill="#87867f" font-size="10.5">人物图标 + 企业软件系统 · 最高层全局视图</text>
  <circle cx="580" cy="100" r="16" fill="#e8e4dc" stroke="#d1cfc5" stroke-width="1.5"/>
  <circle cx="580" cy="94" r="6" fill="#d1cfc5"/>
  <path fill="none" stroke="#d1cfc5" stroke-width="1.5" d="M565 118q15-10 30 0"/>
  <rect width="100" height="26" x="450" y="86" fill="#f0eee6" stroke="#d1cfc5" stroke-width="1.2" rx="6"/>
  <text x="500" y="103" fill="#141413" font-size="10" text-anchor="middle">企业软件系统</text>
  <rect width="540" height="100" x="70" y="170" fill="#fff" stroke="#d97757" stroke-width="1.8" rx="10"/>
  <rect width="540" height="28" x="70" y="170" fill="#d97757" opacity=".85" rx="10"/>
  <path fill="#d97757" d="M70 185h540v13H70z" opacity=".85"/>
  <text x="86" y="188" fill="#fff" font-family="ui-monospace, monospace" font-size="11" font-weight="600">Level 2</text>
  <text x="86" y="202" fill="#141413" font-size="13">Container</text>
  <text x="86" y="218" fill="#87867f" font-size="10.5">应用程序 + 数据库 · 进程 / 容器级别</text>
  <rect width="110" height="32" x="130" y="228" fill="#f0eee6" stroke="#d97757" stroke-width="1.2" rx="6"/>
  <text x="185" y="240" fill="#d97757" font-family="ui-monospace, monospace" font-size="10" text-anchor="middle">Web App</text>
  <text x="185" y="252" fill="#87867f" font-size="9" text-anchor="middle">React / Spring</text>
  <rect width="110" height="32" x="285" y="228" fill="#f0eee6" stroke="#d97757" stroke-width="1.2" rx="6"/>
  <text x="340" y="240" fill="#d97757" font-family="ui-monospace, monospace" font-size="10" text-anchor="middle">API Gateway</text>
  <text x="340" y="252" fill="#87867f" font-size="9" text-anchor="middle">Kong / Nginx</text>
  <rect width="110" height="32" x="440" y="228" fill="#f0eee6" stroke="#d97757" stroke-width="1.2" rx="6"/>
  <text x="495" y="240" fill="#d97757" font-family="ui-monospace, monospace" font-size="10" text-anchor="middle">Database</text>
  <text x="495" y="252" fill="#87867f" font-size="9" text-anchor="middle">PostgreSQL</text>
  <rect width="460" height="80" x="110" y="280" fill="#fff" stroke="#788c5d" stroke-width="1.8" rx="10"/>
  <rect width="460" height="26" x="110" y="280" fill="#788c5d" opacity=".85" rx="10"/>
  <path fill="#788c5d" d="M110 294h460v12H110z" opacity=".85"/>
  <text x="126" y="297" fill="#fff" font-family="ui-monospace, monospace" font-size="11" font-weight="600">Level 3</text>
  <text x="126" y="310" fill="#141413" font-size="13">Component</text>
  <text x="126" y="326" fill="#87867f" font-size="10.5">容器内的组件集合 · 类与模块级别</text>
  <rect width="90" height="20" x="160" y="336" fill="#e8edde" stroke="#788c5d" rx="5"/>
  <text x="205" y="349" fill="#788c5d" font-family="ui-monospace, monospace" font-size="10" text-anchor="middle">OrderService</text>
  <rect width="90" height="20" x="295" y="336" fill="#e8edde" stroke="#788c5d" rx="5"/>
  <text x="340" y="349" fill="#788c5d" font-family="ui-monospace, monospace" font-size="10" text-anchor="middle">PaymentSvc</text>
  <rect width="90" height="20" x="430" y="336" fill="#e8edde" stroke="#788c5d" rx="5"/>
  <text x="475" y="349" fill="#788c5d" font-family="ui-monospace, monospace" font-size="10" text-anchor="middle">InventoryMgr</text>
  <rect width="200" height="44" x="240" y="316" fill="#fff" stroke="#d1cfc5" stroke-dasharray="4,3" stroke-width="1.5" rx="8"/>
  <text x="256" y="334" fill="#d97757" font-family="ui-monospace, monospace" font-size="11" font-weight="600">Level 4</text>
  <text x="256" y="348" fill="#141413" font-size="11">Code Structure</text>
  <text x="256" y="358" fill="#87867f" font-size="9">类 / 方法 / 接口</text>
  <rect width="70" height="28" x="360" y="326" fill="#f5f4f0" stroke="#d1cfc5" rx="4"/>
  <text x="367" y="338" fill="#141413" font-family="ui-monospace, monospace" font-size="8">class Order</text>
  <text x="367" y="348" fill="#141413" font-family="ui-monospace, monospace" font-size="8">  create()</text>
  <path stroke="#d1cfc5" stroke-width="1.5" d="M56 160v8"/>
  <path fill="#d1cfc5" d="m56 172-4-8h8z"/>
  <path stroke="#d1cfc5" stroke-width="1.5" d="M56 270v8"/>
  <path fill="#d1cfc5" d="m56 282-4-8h8z"/>
  <path stroke="#d1cfc5" stroke-width="1.5" d="M56 360v8"/>
  <path fill="#d1cfc5" d="m56 372-4-8h8z"/>
  <text x="56" y="158" fill="#87867f" font-size="8" text-anchor="middle">细化</text>
  <text x="56" y="268" fill="#87867f" font-size="8" text-anchor="middle">细化</text>
  <text x="56" y="358" fill="#87867f" font-size="8" text-anchor="middle">展开</text>
  <rect width="100" height="36" x="540" y="336" fill="#fff" stroke="#d1cfc5" rx="8"/>
  <rect width="10" height="10" x="550" y="344" fill="#d97757" rx="2"/>
  <text x="565" y="352" fill="#141413" font-size="9">Level 1-3</text>
  <rect width="10" height="10" x="550" y="358" fill="#788c5d" rx="2"/>
  <text x="565" y="366" fill="#141413" font-size="9">Level 3</text>
</svg>
