<svg xmlns="http://www.w3.org/2000/svg" viewBox="0 0 900 560"><defs><marker id="arrowhead" markerHeight="7" markerWidth="10" orient="auto" refX="9" refY="3.5"><path fill="#87867f" d="m0 0 10 3.5L0 7z"/></marker><style>.text-accent,.text-main,.text-sub{font-family:system-ui,sans-serif}.text-main{fill:#141413}.text-sub{fill:#87867f}.text-accent{fill:#d97757;font-weight:600}.arrow{stroke-width:1.5}.step-box-danger{fill:#fef3f0;stroke:#d97757;stroke-width:1.5}.arrow{stroke:#87867f;fill:none;marker-end:url(#arrowhead)}</style></defs><path d="M0 0h900v560H0z" style="fill:#faf9f5"/><text x="450" y="38" class="text-main" font-size="17" font-weight="700" text-anchor="middle">Clinejection 攻击链：五步沦陷</text><text x="450" y="60" class="text-sub" font-size="12" text-anchor="middle">Attack Flow — from GitHub Issue to Production Compromise</text><g transform="translate(30 85)"><rect width="145" height="130" rx="8" style="fill:#faf9f5;stroke:#d1cfc5;stroke-width:1.5"/><rect width="145" height="28" fill="#d97757" rx="8"/><path fill="#d97757" d="M0 14h145v14H0z"/><text x="72" y="19" fill="#faf9f5" font-family="system-ui, sans-serif" font-size="12" font-weight="700" text-anchor="middle">STEP 1</text><text x="72" y="58" class="text-main" font-size="13" font-weight="600" text-anchor="middle">侦察与目标选择</text><text x="72" y="80" class="text-sub" font-size="11" text-anchor="middle">搜索配置了AI Issue</text><text x="72" y="95" class="text-sub" font-size="11" text-anchor="middle">Triage的公开仓库</text><text x="72" y="115" class="text-accent" font-size="10" text-anchor="middle">allowedTools: &quot;Bash,Read,Write&quot;</text></g><path d="M175 150h35" class="arrow"/><g transform="translate(220 85)"><rect width="145" height="130" class="step-box-danger" rx="8"/><rect width="145" height="28" fill="#d97757" rx="8"/><path fill="#d97757" d="M0 14h145v14H0z"/><text x="72" y="19" fill="#faf9f5" font-family="system-ui, sans-serif" font-size="12" font-weight="700" text-anchor="middle">STEP 2</text><text x="72" y="58" class="text-main" font-size="13" font-weight="600" text-anchor="middle">构造恶意Payload</text><text x="72" y="80" class="text-sub" font-size="11" text-anchor="middle">Disregard all previous</text><text x="72" y="95" class="text-sub" font-size="11" text-anchor="middle">instructions + bash cmd</text><text x="72" y="115" class="text-accent" font-size="10" text-anchor="middle">Prompt Injection</text></g><path d="M365 150h35" class="arrow"/><g transform="translate(410 85)"><rect width="145" height="130" class="step-box-danger" rx="8"/><rect width="145" height="28" fill="#d97757" rx="8"/><path fill="#d97757" d="M0 14h145v14H0z"/><text x="72" y="19" fill="#faf9f5" font-family="system-ui, sans-serif" font-size="12" font-weight="700" text-anchor="middle">STEP 3</text><text x="72" y="58" class="text-main" font-size="13" font-weight="600" text-anchor="middle">触发AI执行</text><text x="72" y="80" class="text-sub" font-size="11" text-anchor="middle">攻击者提交Issue</text><text x="72" y="95" class="text-sub" font-size="11" text-anchor="middle">→ GitHub Actions触发</text><text x="72" y="115" class="text-accent" font-size="10" text-anchor="middle">AI无法区分指令与数据</text></g><path d="M555 150h35" class="arrow"/><g transform="translate(600 85)"><rect width="145" height="130" class="step-box-danger" rx="8"/><rect width="145" height="28" fill="#d97757" rx="8"/><path fill="#d97757" d="M0 14h145v14H0z"/><text x="72" y="19" fill="#faf9f5" font-family="system-ui, sans-serif" font-size="12" font-weight="700" text-anchor="middle">STEP 4</text><text x="72" y="58" class="text-main" font-size="13" font-weight="600" text-anchor="middle">权限升级与持久化</text><text x="72" y="80" class="text-sub" font-size="11" text-anchor="middle">创建恶意workflow</text><text x="72" y="95" class="text-sub" font-size="11" text-anchor="middle">每次push自动触发</text><text x="72" y="115" class="text-accent" font-size="10" text-anchor="middle">数据外泄 + 后门植入</text></g><path d="M745 150h35" class="arrow"/><g transform="translate(790 85)"><rect width="90" height="130" class="step-box-danger" rx="8"/><rect width="90" height="28" fill="#141413" rx="8"/><path fill="#141413" d="M0 14h90v14H0z"/><text x="45" y="19" fill="#faf9f5" font-family="system-ui, sans-serif" font-size="12" font-weight="700" text-anchor="middle">STEP 5</text><text x="45" y="58" class="text-main" font-size="13" font-weight="600" text-anchor="middle">生产环境沦陷</text><text x="45" y="80" class="text-sub" font-size="11" text-anchor="middle">恶意release</text><text x="45" y="95" class="text-sub" font-size="11" text-anchor="middle">发布到下游</text><text x="45" y="115" class="text-accent" font-size="10" text-anchor="middle">供应链污染</text></g><g transform="translate(30 240)"><rect width="840" height="90" fill="#fef3f0" stroke="#d97757" stroke-width="1.5" rx="8"/><text x="20" y="26" class="text-accent" font-size="13" font-weight="700">⚠ 核心漏洞：最小权限原则严重违反</text><text x="20" y="48" class="text-sub" font-size="12">实际需求：阅读Issue → 分类标签</text><text x="20" y="66" class="text-sub" font-size="12">实际配置：Bash(任意命令) + Read(任意文件) + Write(任意修改)</text><text x="20" y="84" class="text-main" font-size="12">根本问题：LLM无法严格区分&quot;系统指令&quot;和&quot;用户输入&quot;——这是命令注入的AI时代版本</text></g><text x="30" y="358" class="text-main" font-size="14" font-weight="700">防御方案</text><path stroke="#d1cfc5" d="M30 365h840"/><g transform="translate(30 380)"><rect width="195" height="85" fill="#faf9f5" stroke="#788c5d" stroke-width="1.5" rx="6"/><rect width="195" height="22" fill="#788c5d" rx="6"/><path fill="#788c5d" d="M0 14h195v8H0z"/><text x="97" y="15" fill="#faf9f5" font-family="system-ui, sans-serif" font-size="11" font-weight="700" text-anchor="middle">① 输入验证与清理</text><text x="10" y="42" class="text-sub" font-size="10">• 禁止危险关键词</text><text x="10" y="56" class="text-sub" font-size="10">• 长度限制</text><text x="10" y="70" class="text-sub" font-size="10">• 格式验证</text></g><g transform="translate(240 380)"><rect width="195" height="85" fill="#faf9f5" stroke="#788c5d" stroke-width="1.5" rx="6"/><rect width="195" height="22" fill="#788c5d" rx="6"/><path fill="#788c5d" d="M0 14h195v8H0z"/><text x="97" y="15" fill="#faf9f5" font-family="system-ui, sans-serif" font-size="11" font-weight="700" text-anchor="middle">② 最小权限原则</text><text x="10" y="42" class="text-sub" font-size="10">• allowedTools: &quot;&quot;</text><text x="10" y="56" class="text-sub" font-size="10">• 仅允许Read，禁止Write</text><text x="10" y="70" class="text-sub" font-size="10">• 功能拆分隔离</text></g><g transform="translate(450 380)"><rect width="195" height="85" fill="#faf9f5" stroke="#788c5d" stroke-width="1.5" rx="6"/><rect width="195" height="22" fill="#788c5d" rx="6"/><path fill="#788c5d" d="M0 14h195v8H0z"/><text x="97" y="15" fill="#faf9f5" font-family="system-ui, sans-serif" font-size="11" font-weight="700" text-anchor="middle">③ 沙箱隔离</text><text x="10" y="42" class="text-sub" font-size="10">• 只读文件系统</text><text x="10" y="56" class="text-sub" font-size="10">• 禁止网络访问</text><text x="10" y="70" class="text-sub" font-size="10">• 无特权模式容器</text></g><g transform="translate(660 380)"><rect width="210" height="85" fill="#faf9f5" stroke="#788c5d" stroke-width="1.5" rx="6"/><rect width="210" height="22" fill="#788c5d" rx="6"/><path fill="#788c5d" d="M0 14h210v8H0z"/><text x="105" y="15" fill="#faf9f5" font-family="system-ui, sans-serif" font-size="11" font-weight="700" text-anchor="middle">④ 人机协作审核</text><text x="10" y="42" class="text-sub" font-size="10">• 写操作必须人工确认</text><text x="10" y="56" class="text-sub" font-size="10">• 异常行为触发告警</text><text x="10" y="70" class="text-sub" font-size="10">• 建立AI决策边界</text></g><text x="450" y="500" class="text-sub" font-size="11" text-anchor="middle">攻击成本 ≈ 零 | 自动化放大风险 | 权限模型致命缺陷 | Prompt Injection普遍威胁</text><text x="450" y="520" class="text-accent" font-size="11" font-weight="600" text-anchor="middle">安全范式转移：从&quot;代码安全&quot;到&quot;Prompt安全&quot;</text><path stroke="#d1cfc5" d="M30 535h840"/><text x="450" y="550" class="text-sub" font-size="10" text-anchor="middle">Clinejection Attack Analysis | @postcodeeng</text></svg>