<svg xmlns="http://www.w3.org/2000/svg" font-family="ui-serif, Georgia, 'Times New Roman', serif" viewBox="0 0 680 320"><path fill="#faf9f5" d="M0 0h680v320H0z"/><text x="340" y="26" fill="#141413" font-size="14" font-weight="500" letter-spacing="-.02em" text-anchor="middle">护城河五要素</text><text x="340" y="42" fill="#87867f" font-family="ui-monospace, monospace" font-size="10" text-anchor="middle">AI时代商业护城河模型</text><rect width="120" height="100" x="20" y="60" fill="#fff" stroke="#d97757" stroke-width="1.8" rx="8"/><rect width="120" height="22" x="20" y="60" fill="#d97757" rx="8"/><path fill="#d97757" d="M20 74h120v8H20z"/><text x="80" y="76" fill="#fff" font-family="ui-monospace, monospace" font-size="10" font-weight="600" text-anchor="middle">01</text><text x="80" y="98" fill="#141413" font-size="12" font-weight="600" text-anchor="middle">数据飞轮</text><text x="80" y="114" fill="#87867f" font-size="9.5" text-anchor="middle">Data Flywheel</text><text x="80" y="130" fill="#87867f" font-size="8.5" text-anchor="middle">越多使用 →</text><text x="80" y="144" fill="#87867f" font-size="8.5" text-anchor="middle">越多数据 →</text><text x="80" y="154" fill="#87867f" font-size="8.5" text-anchor="middle">产品越好</text><path stroke="#d97757" stroke-width="1.5" d="M140 110h18"/><path fill="#d97757" d="m158 106 8 4-8 4z"/><rect width="120" height="100" x="170" y="60" fill="#fff" stroke="#d97757" stroke-width="1.8" rx="8"/><rect width="120" height="22" x="170" y="60" fill="#d97757" rx="8"/><path fill="#d97757" d="M170 74h120v8H170z"/><text x="230" y="76" fill="#fff" font-family="ui-monospace, monospace" font-size="10" font-weight="600" text-anchor="middle">02</text><text x="230" y="98" fill="#141413" font-size="12" font-weight="600" text-anchor="middle">网络效应</text><text x="230" y="114" fill="#87867f" font-size="9.5" text-anchor="middle">Network Effects</text><text x="230" y="130" fill="#87867f" font-size="8.5" text-anchor="middle">用户越多 →</text><text x="230" y="144" fill="#87867f" font-size="8.5" text-anchor="middle">价值越高</text><path stroke="#d97757" stroke-width="1.5" d="M290 110h18"/><path fill="#d97757" d="m308 106 8 4-8 4z"/><rect width="120" height="100" x="320" y="60" fill="#fff" stroke="#d97757" stroke-width="1.8" rx="8"/><rect width="120" height="22" x="320" y="60" fill="#d97757" rx="8"/><path fill="#d97757" d="M320 74h120v8H320z"/><text x="380" y="76" fill="#fff" font-family="ui-monospace, monospace" font-size="10" font-weight="600" text-anchor="middle">03</text><text x="380" y="98" fill="#141413" font-size="12" font-weight="600" text-anchor="middle">工作流嵌入</text><text x="380" y="114" fill="#87867f" font-size="9.5" text-anchor="middle">Workflow Embedding</text><text x="380" y="130" fill="#87867f" font-size="8.5" text-anchor="middle">深度集成 →</text><text x="380" y="144" fill="#87867f" font-size="8.5" text-anchor="middle">替换成本高</text><path stroke="#d97757" stroke-width="1.5" d="M440 110h18"/><path fill="#d97757" d="m458 106 8 4-8 4z"/><rect width="120" height="100" x="170" y="180" fill="#fff" stroke="#788c5d" stroke-width="1.8" rx="8"/><rect width="120" height="22" x="170" y="180" fill="#788c5d" rx="8"/><path fill="#788c5d" d="M170 194h120v8H170z"/><text x="230" y="196" fill="#fff" font-family="ui-monospace, monospace" font-size="10" font-weight="600" text-anchor="middle">04</text><text x="230" y="218" fill="#141413" font-size="12" font-weight="600" text-anchor="middle">合规壁垒</text><text x="230" y="234" fill="#87867f" font-size="9.5" text-anchor="middle">Compliance Barriers</text><text x="230" y="250" fill="#87867f" font-size="8.5" text-anchor="middle">牌照/认证 →</text><text x="230" y="264" fill="#87867f" font-size="8.5" text-anchor="middle">准入门槛</text><path stroke="#788c5d" stroke-width="1.5" d="M290 230h18"/><path fill="#788c5d" d="m308 226 8 4-8 4z"/><rect width="120" height="100" x="320" y="180" fill="#fff" stroke="#788c5d" stroke-width="1.8" rx="8"/><rect width="120" height="22" x="320" y="180" fill="#788c5d" rx="8"/><path fill="#788c5d" d="M320 194h120v8H320z"/><text x="380" y="196" fill="#fff" font-family="ui-monospace, monospace" font-size="10" font-weight="600" text-anchor="middle">05</text><text x="380" y="218" fill="#141413" font-size="12" font-weight="600" text-anchor="middle">规模经济</text><text x="380" y="234" fill="#87867f" font-size="9.5" text-anchor="middle">Economies of Scale</text><text x="380" y="250" fill="#87867f" font-size="8.5" text-anchor="middle">规模越大 →</text><text x="380" y="264" fill="#87867f" font-size="8.5" text-anchor="middle">单位成本越低</text><path fill="none" stroke="#d1cfc5" stroke-width="1.5" d="M380 160v10H230v10"/><path fill="#d1cfc5" d="M226 170h8l-4 6z"/><path fill="none" stroke="#d1cfc5" stroke-width="1.5" d="M380 160v20"/><path fill="#d1cfc5" d="M376 170h8l-4 6z"/><text x="340" y="305" fill="#87867f" font-family="ui-monospace, monospace" font-size="9" text-anchor="middle">来源：产业深度洞察系列 #01 · 2025/03/16</text></svg>