<svg xmlns="http://www.w3.org/2000/svg" font-family="ui-serif, Georgia, 'Times New Roman', serif" viewBox="0 0 640 380">
  <path fill="#faf9f5" d="M0 0h640v380H0z"/>
  <text x="320" y="28" fill="#141413" font-size="14" font-weight="500" letter-spacing="-.02em" text-anchor="middle">认知债务累积路径</text>
  <text x="320" y="44" fill="#87867f" font-family="ui-monospace, monospace" font-size="10" text-anchor="middle">Simon Willison · simonwillison.net · 2026/02</text>
  <rect width="140" height="34" x="60" y="72" fill="#fff" stroke="#d1cfc5" stroke-width="1.5" rx="17"/>
  <text x="130" y="93" fill="#141413" font-family="ui-monospace, monospace" font-size="11" text-anchor="middle">强制文档生成</text>
  <rect width="140" height="34" x="250" y="72" fill="#fff" stroke="#d1cfc5" stroke-width="1.5" rx="17"/>
  <text x="320" y="93" fill="#141413" font-family="ui-monospace, monospace" font-size="11" text-anchor="middle">交互式可视化</text>
  <rect width="140" height="34" x="440" y="72" fill="#fff" stroke="#d1cfc5" stroke-width="1.5" rx="17"/>
  <text x="510" y="93" fill="#141413" font-family="ui-monospace, monospace" font-size="11" text-anchor="middle">定期代码回顾</text>
  <path stroke="#d1cfc5" stroke-width="1.5" d="M130 106v28"/>
  <path fill="#d1cfc5" d="m130 138-4-8h8z"/>
  <path stroke="#d1cfc5" stroke-width="1.5" d="M320 106v28"/>
  <path fill="#d1cfc5" d="m320 138-4-8h8z"/>
  <path stroke="#d1cfc5" stroke-width="1.5" d="M510 106v28"/>
  <path fill="#d1cfc5" d="m510 138-4-8h8z"/>
  <rect width="240" height="56" x="60" y="142" fill="#d97757" rx="8"/>
  <text x="180" y="166" fill="#fff" font-family="ui-monospace, monospace" font-size="12" font-weight="600" text-anchor="middle">AI 生成代码</text>
  <text x="180" y="182" fill="#e3dacc" font-family="ui-monospace, monospace" font-size="10" text-anchor="middle">成本趋近于零</text>
  <rect width="360" height="56" x="140" y="208" fill="#fff" stroke="#d97757" stroke-dasharray="6,3" stroke-width="2" rx="8"/>
  <text x="320" y="232" fill="#d97757" font-family="ui-monospace, monospace" font-size="12" font-weight="600" text-anchor="middle">认知债务累积</text>
  <text x="320" y="248" fill="#87867f" font-family="ui-monospace, monospace" font-size="10" text-anchor="middle">不理解 → 无力维护 → 迭代减速</text>
  <rect width="160" height="44" x="240" y="274" fill="#e3dacc" stroke="#d1cfc5" stroke-width="1.5" rx="8"/>
  <text x="320" y="297" fill="#87867f" font-family="ui-monospace, monospace" font-size="12" font-weight="600" text-anchor="middle">长期成本</text>
  <path stroke="#d1cfc5" stroke-width="1.5" d="M320 198v4"/>
  <path fill="#d1cfc5" d="m320 206-4-8h8z"/>
  <path stroke="#d1cfc5" stroke-width="1.5" d="M320 264v4"/>
  <path fill="#d1cfc5" d="m320 272-4-8h8z"/>
  <rect width="480" height="38" x="80" y="330" fill="#fff" stroke="#d1cfc5" stroke-width="1.5" rx="6"/>
  <text x="100" y="350" fill="#87867f" font-family="Georgia, serif" font-size="10.5" font-style="italic">Simon Willison: 认知债务 ≈ 技术债务 — 会拖慢未来的开发速度</text>
  <text x="320" y="374" fill="#87867f" font-family="ui-monospace, monospace" font-size="9" text-anchor="middle">来源：https://simonwillison.net/guides/agentic-engineering-patterns/</text>
</svg>
