<svg xmlns="http://www.w3.org/2000/svg" font-family="ui-serif, Georgia, serif" viewBox="0 0 560 220">
  <path fill="#faf9f5" d="M0 0h560v220H0z"/>
  <text x="280" y="20" fill="#141413" font-size="13" font-weight="500" letter-spacing="-.02em" text-anchor="middle">意图驱动开发：四层协作架构</text>
  <text x="280" y="36" fill="#87867f" font-family="ui-monospace, monospace" font-size="9.5" text-anchor="middle">postcodeengineering.com · 2025/05/18</text>
  <rect width="480" height="52" x="40" y="50" fill="#fff" stroke="#d97757" stroke-width="1.8" rx="6"/>
  <rect width="480" height="18" x="40" y="50" fill="#fef3c7" stroke="#d97757" rx="6"/>
  <text x="60" y="65" fill="#d97757" font-family="ui-monospace, monospace" font-size="10" font-weight="600">L4 · 意图定义层</text>
  <text x="60" y="82" fill="#141413" font-size="10.5">业务分析师 + 产品经理</text>
  <text x="60" y="96" fill="#87867f" font-size="10">提供业务规则、验收标准</text>
  <rect width="18" height="18" x="490" y="60" fill="#d97757" rx="9"/>
  <text x="499" y="73" fill="#fff" font-family="ui-monospace, monospace" font-size="9" text-anchor="middle">L4</text>
  <path stroke="#d1cfc5" stroke-width="1.5" d="M280 102v10"/>
  <path fill="#d1cfc5" d="m276 112 4 8 4-18z"/>
  <rect width="480" height="44" x="40" y="120" fill="#fff" stroke="#ea580c" stroke-width="1.5" rx="6"/>
  <rect width="480" height="18" x="40" y="120" fill="#fed7aa" stroke="#ea580c" rx="6"/>
  <text x="60" y="135" fill="#ea580c" font-family="ui-monospace, monospace" font-size="10" font-weight="600">L3 · 契约设计层</text>
  <text x="200" y="135" fill="#141413" font-size="12" font-weight="600">意图架构师</text>
  <text x="60" y="152" fill="#87867f" font-size="10">转化为可验证的意图表达</text>
  <rect width="18" height="18" x="490" y="130" fill="#ea580c" rx="9"/>
  <text x="499" y="143" fill="#fff" font-family="ui-monospace, monospace" font-size="9" text-anchor="middle">L3</text>
  <path stroke="#d1cfc5" stroke-width="1.5" d="M280 164v10"/>
  <path fill="#d1cfc5" d="m276 174 4 8 4-18z"/>
  <rect width="480" height="36" x="40" y="182" fill="#fff" stroke="#2563eb" stroke-width="1.5" rx="6"/>
  <rect width="480" height="16" x="40" y="182" fill="#dbeafe" stroke="#2563eb" rx="6"/>
  <text x="60" y="196" fill="#2563eb" font-family="ui-monospace, monospace" font-size="10" font-weight="600">L2 · AI执行层</text>
  <text x="180" y="196" fill="#141413" font-size="12" font-weight="600">AI 工具链</text>
  <text x="60" y="212" fill="#87867f" font-size="10">生成代码 + 测试 + 文档</text>
  <text x="280" y="220" fill="#87867f" font-size="9" font-style="italic" text-anchor="middle">L4 提供意图 → L3 转化契约 → L2 AI 执行 → L1 人机协作验收</text>
</svg>
