<svg xmlns="http://www.w3.org/2000/svg" font-family="'Courier New', Courier, monospace" font-size="12" viewBox="0 0 680 300"><path fill="#faf9f5" d="M0 0h680v300H0z"/><path fill="none" stroke="#141413" stroke-width="2" d="M10 10h660v280H10z"/><path fill="#d97757" d="M10 10h660v30H10z"/><text x="200" y="29" fill="#faf9f5" font-weight="bold" text-anchor="middle">Prompt层级</text><path stroke="#141413" d="M340 10v280"/><text x="460" y="29" fill="#faf9f5" font-weight="bold" text-anchor="middle">逆向难度</text><path stroke="#141413" d="M540 10v280"/><text x="610" y="29" fill="#faf9f5" font-weight="bold" text-anchor="middle">典型方法</text><path fill="#e3dacc" d="M10 40h330v46H10z"/><path fill="none" stroke="#d1cfc5" d="M10 40h330v46H10z"/><text x="25" y="58" fill="#141413">User Prompt（用户输入）</text><path fill="none" stroke="#d1cfc5" d="M340 40h200v46H340z"/><text x="440" y="67" font-size="16" text-anchor="middle">⭐</text><path fill="none" stroke="#d1cfc5" d="M540 40h130v46H540z"/><text x="550" y="67" fill="#141413">直接观察</text><path stroke="#141413" d="M10 86h660"/><path fill="#e3dacc" d="M10 86h330v46H10z"/><path fill="none" stroke="#d1cfc5" d="M10 86h330v46H10z"/><text x="25" y="104" fill="#141413">System Prompt（系统指令）</text><path fill="none" stroke="#d1cfc5" d="M340 86h200v46H340z"/><text x="440" y="113" font-size="16" text-anchor="middle">⭐⭐⭐</text><text x="440" y="128" fill="#141413" font-size="10" text-anchor="middle">中等</text><path fill="none" stroke="#d1cfc5" d="M540 86h130v46H540z"/><text x="550" y="122" fill="#141413">Layer 1-2</text><path stroke="#141413" d="M10 132h660"/><path fill="#e3dacc" d="M10 132h330v46H10z"/><path fill="none" stroke="#d1cfc5" d="M10 132h330v46H10z"/><text x="25" y="150" fill="#141413">Tool Definition（工具定义）</text><path fill="none" stroke="#d1cfc5" d="M340 132h200v46H340z"/><text x="440" y="159" font-size="16" text-anchor="middle">⭐⭐⭐⭐</text><text x="440" y="174" fill="#141413" font-size="10" text-anchor="middle">困难</text><path fill="none" stroke="#d1cfc5" d="M540 132h130v46H540z"/><text x="550" y="168" fill="#141413">Layer 3</text><path stroke="#141413" d="M10 178h660"/><path fill="#e3dacc" d="M10 178h330v46H10z"/><path fill="none" stroke="#d1cfc5" d="M10 178h330v46H10z"/><text x="25" y="196" fill="#141413">Agent Workflow（代理工作流）</text><path fill="none" stroke="#d1cfc5" d="M340 178h200v46H340z"/><text x="440" y="205" font-size="16" text-anchor="middle">⭐⭐⭐⭐⭐</text><text x="440" y="220" fill="#141413" font-size="10" text-anchor="middle">极难</text><path fill="none" stroke="#d1cfc5" d="M540 178h130v46H540z"/><text x="550" y="214" fill="#141413">Layer 4</text><path stroke="#141413" d="M10 224h660"/><path fill="#e3dacc" d="M10 224h330v46H10z"/><path fill="none" stroke="#d1cfc5" d="M10 224h330v46H10z"/><text x="25" y="242" fill="#141413">State &amp; Memory（状态与记忆）</text><path fill="none" stroke="#d1cfc5" d="M340 224h200v46H340z"/><text x="440" y="251" font-size="16" text-anchor="middle">⭐⭐⭐⭐⭐</text><text x="440" y="266" fill="#141413" font-size="10" text-anchor="middle">极难</text><path fill="none" stroke="#d1cfc5" d="M540 224h130v46H540z"/><text x="550" y="260" fill="#141413">需要长期观察</text><path stroke="#141413" d="M340 40v230M540 40v230"/></svg>