<svg xmlns="http://www.w3.org/2000/svg" viewBox="0 0 900 580">
  <defs>
    <style>
      .text-accent,.text-main,.text-sub{font-family:system-ui,sans-serif}.text-main,.text-sub{fill:#141413}.text-sub{fill:#87867f}.text-accent{fill:#d97757;font-weight:600}
    </style>
  </defs>
  <path d="M0 0h900v580H0z" style="fill:#faf9f5"/>
  <text x="450" y="36" class="text-main" font-size="17" font-weight="700" text-anchor="middle">代码水印的三重境界</text>
  <text x="450" y="56" class="text-sub" font-size="12" text-anchor="middle">Three Layers of Code Watermarking — From Visible to Invisible</text>
  <path stroke="#d1cfc5" stroke-dasharray="6,4" stroke-width="2" d="M450 100v440"/>
  <circle cx="450" cy="110" r="26" fill="#d97757"/>
  <text x="450" y="115" fill="#faf9f5" font-family="system-ui, sans-serif" font-size="14" font-weight="700" text-anchor="middle">1</text>
  <rect width="840" height="110" x="30" y="155" fill="#faf9f5" stroke="#d1cfc5" stroke-width="1.5" rx="10"/>
  <rect width="840" height="30" x="30" y="155" fill="#d97757" rx="10"/>
  <path fill="#d97757" d="M30 170h840v15H30z"/>
  <text x="50" y="175" fill="#faf9f5" font-family="system-ui, sans-serif" font-size="12" font-weight="700">第一层：文本水印 (Textual Watermark)</text>
  <text x="840" y="175" fill="#faf9f5" font-family="system-ui, sans-serif" font-size="11" text-anchor="end">⚠ 易删除</text>
  <rect width="370" height="58" x="50" y="198" fill="#141413" rx="4"/>
  <text x="65" y="216" fill="#d97757" font-family="monospace" font-size="10"># AI-GEN-COMPANY-X-2025Q1</text>
  <text x="65" y="230" fill="#e3dacc" font-family="monospace" font-size="10">def calculate_total(items):</text>
  <text x="65" y="244" fill="#d1cfc5" font-family="monospace" font-size="10">  total_sum = sum(...)</text>
  <text x="435" y="215" class="text-main" font-size="11" font-weight="600">原理：在注释、变量名中嵌入标识</text>
  <text x="435" y="233" class="text-sub" font-size="11">✓ 简单、可验证</text>
  <text x="435" y="250" class="text-accent" font-size="11">✗ 容易被删除或修改</text>
  <circle cx="450" cy="290" r="26" fill="#788c5d"/>
  <text x="450" y="295" fill="#faf9f5" font-family="system-ui, sans-serif" font-size="14" font-weight="700" text-anchor="middle">2</text>
  <rect width="840" height="110" x="30" y="335" fill="#faf9f5" stroke="#d1cfc5" stroke-width="1.5" rx="10"/>
  <rect width="840" height="30" x="30" y="335" fill="#788c5d" rx="10"/>
  <path fill="#788c5d" d="M30 350h840v15H30z"/>
  <text x="50" y="355" fill="#faf9f5" font-family="system-ui, sans-serif" font-size="12" font-weight="700">第二层：语法水印 (Syntactic Watermark)</text>
  <text x="840" y="355" fill="#faf9f5" font-family="system-ui, sans-serif" font-size="11" text-anchor="end">⚠ 格式敏感</text>
  <rect width="370" height="58" x="50" y="378" fill="#141413" rx="4"/>
  <text x="65" y="396" fill="#788c5d" font-family="monospace" font-size="10"># 无水印</text>
  <text x="65" y="410" fill="#d1cfc5" font-family="monospace" font-size="10">result = []</text>
  <text x="65" y="424" fill="#e3dacc" font-family="monospace" font-size="10"># 有水印: list() / == True / continue</text>
  <text x="435" y="395" class="text-main" font-size="11" font-weight="600">原理：特定代码风格偏好组合（AI模型有signature）</text>
  <text x="435" y="413" class="text-sub" font-size="11">✓ 需重写代码才能删除</text>
  <text x="435" y="430" class="text-accent" font-size="11">✗ 可能被代码格式化工具破坏</text>
  <circle cx="450" cy="470" r="26" fill="#141413"/>
  <text x="450" y="475" fill="#faf9f5" font-family="system-ui, sans-serif" font-size="14" font-weight="700" text-anchor="middle">3</text>
  <rect width="840" height="110" x="30" y="515" fill="#faf9f5" stroke="#141413" stroke-width="1.5" rx="10"/>
  <rect width="840" height="30" x="30" y="515" fill="#141413" rx="10"/>
  <path fill="#141413" d="M30 530h840v15H30z"/>
  <text x="50" y="535" fill="#faf9f5" font-family="system-ui, sans-serif" font-size="12" font-weight="700">第三层：语义水印 (Semantic Watermark)</text>
  <text x="840" y="535" fill="#faf9f5" font-family="system-ui, sans-serif" font-size="11" text-anchor="end">✓ 极难发现和删除</text>
  <rect width="370" height="58" x="50" y="558" fill="#141413" rx="4"/>
  <text x="65" y="576" fill="#d97757" font-family="monospace" font-size="10"># 特定算法组合 + 微小数学偏差</text>
  <text x="65" y="590" fill="#e3dacc" font-family="monospace" font-size="10">items = quicksort(..) + mergesort(..)</text>
  <text x="65" y="604" fill="#d1cfc5" font-family="monospace" font-size="10">key=lambda x: x.priority * 1.000001</text>
  <text x="435" y="575" class="text-main" font-size="11" font-weight="600">原理：算法选择 + 数学运算微小偏差 + 控制流模式</text>
  <text x="435" y="593" font-size="11" style="fill:#788c5d;font-family:system-ui,sans-serif;font-weight:600">✓ 极其难以发现和删除</text>
  <text x="435" y="610" class="text-sub" font-size="11">✗ 可能影响性能，需精心设计</text>
  <text x="450" y="22" class="text-sub" font-size="10" text-anchor="middle">隐蔽性递增 →</text>
</svg>
