<svg xmlns="http://www.w3.org/2000/svg" font-family="ui-serif, Georgia, serif" viewBox="0 0 600 340">
  <title>记忆 Schema 迁移</title>
  <desc>
    Layered stack diagram showing memory schema v1, migration script, and schema v2
  </desc>
  <path fill="#faf9f5" d="M0 0h600v340H0z"/>
  <text x="300" y="26" fill="#141413" font-size="14" font-weight="500" letter-spacing="-.02em" text-anchor="middle">记忆 Schema 迁移</text>
  <text x="300" y="42" fill="#87867f" font-family="ui-monospace, monospace" font-size="10" text-anchor="middle">数据库迁移模式 · 2025/01/18</text>
  <rect width="340" height="72" x="40" y="60" fill="#fff" stroke="#d1cfc5" stroke-width="1.5" rx="8"/>
  <text x="60" y="84" fill="#87867f" font-family="ui-monospace, monospace" font-size="11" font-weight="600">记忆 Schema v1</text>
  <text x="60" y="102" fill="#141413" font-size="10.5">id: string</text>
  <text x="160" y="102" fill="#141413" font-size="10.5">version: &quot;1.0.0&quot;</text>
  <text x="60" y="118" fill="#141413" font-size="10.5">content: string</text>
  <text x="200" y="118" fill="#141413" font-size="10.5">last_updated: datetime</text>
  <path stroke="#d1cfc5" stroke-width="1.5" d="M210 132v16"/>
  <path fill="#d1cfc5" d="m210 152-4-8h8z"/>
  <rect width="340" height="88" x="40" y="160" fill="#fff" stroke="#d97757" stroke-width="2" rx="8"/>
  <rect width="120" height="20" x="56" y="174" fill="#d97757" rx="10"/>
  <text x="116" y="188" fill="#fff" font-family="ui-monospace, monospace" font-size="9.5" text-anchor="middle">Migration Script</text>
  <text x="60" y="210" fill="#141413" font-family="ui-monospace, monospace" font-size="10.5">source_version: &quot;1.0.0&quot;</text>
  <text x="60" y="226" fill="#141413" font-family="ui-monospace, monospace" font-size="10.5">target_version: &quot;2.0.0&quot;</text>
  <text x="60" y="242" fill="#141413" font-family="ui-monospace, monospace" font-size="10.5">transform: add_confidence_field()</text>
  <path fill="none" stroke="#d97757" stroke-dasharray="4,3" stroke-width="1.5" d="M380 204c25 0 25 36 0 36"/>
  <text x="393" y="226" fill="#d97757" font-family="ui-monospace, monospace" font-size="9">回滚</text>
  <path fill="#d97757" d="m380 240-6-6h12z"/>
  <path stroke="#d1cfc5" stroke-width="1.5" d="M210 248v16"/>
  <path fill="#d1cfc5" d="m210 268-4-8h8z"/>
  <rect width="340" height="52" x="40" y="276" fill="#fff" stroke="#d1cfc5" stroke-width="1.5" rx="8"/>
  <text x="60" y="300" fill="#141413" font-family="ui-monospace, monospace" font-size="11" font-weight="600">记忆 Schema v2</text>
  <text x="60" y="316" fill="#141413" font-size="10.5">id · version · schema_version · content · confidence · last_updated · source_url</text>
  <text x="430" y="88" fill="#87867f" font-family="ui-monospace, monospace" font-size="10.5">v1.0.0</text>
  <rect width="48" height="18" x="424" y="94" fill="#e3dacc" rx="9"/>
  <text x="448" y="107" fill="#141413" font-family="ui-monospace, monospace" font-size="9" text-anchor="middle">1.0.0</text>
  <text x="430" y="200" fill="#d97757" font-family="ui-monospace, monospace" font-size="10.5">v1→v2</text>
  <rect width="50" height="18" x="424" y="206" fill="#d97757" rx="9"/>
  <text x="449" y="219" fill="#fff" font-family="ui-monospace, monospace" font-size="9" text-anchor="middle">迁移</text>
  <text x="430" y="296" fill="#788c5d" font-family="ui-monospace, monospace" font-size="10.5">v2.0.0</text>
  <rect width="48" height="18" x="424" y="302" fill="#788c5d" rx="9"/>
  <text x="448" y="315" fill="#fff" font-family="ui-monospace, monospace" font-size="9" text-anchor="middle">2.0.0</text>
</svg>
