<svg xmlns="http://www.w3.org/2000/svg" font-family="ui-serif, Georgia, serif" viewBox="0 0 560 240">
  <path fill="#faf9f5" d="M0 0h560v240H0z"/>
  <text x="280" y="20" fill="#141413" font-size="13" font-weight="500" letter-spacing="-.02em" text-anchor="middle">可追溯性自动追踪四层架构</text>
  <text x="280" y="36" fill="#87867f" font-family="ui-monospace, monospace" font-size="9.5" text-anchor="middle">postcodeengineering.com · 2025/04/27</text>
  <rect width="480" height="46" x="40" y="50" fill="#fff" stroke="#d97757" stroke-width="1.8" rx="6"/>
  <rect width="480" height="18" x="40" y="50" fill="#fef3c7" stroke="#d97757" rx="6"/>
  <text x="60" y="65" fill="#d97757" font-family="ui-monospace, monospace" font-size="10" font-weight="600">L4 · Traceability Analytics</text>
  <text x="260" y="65" fill="#141413" font-size="12" font-weight="600">追溯分析层</text>
  <text x="60" y="84" fill="#87867f" font-size="10">影响分析 · 覆盖率分析 · 合规报告</text>
  <rect width="18" height="18" x="490" y="60" fill="#d97757" rx="9"/>
  <text x="499" y="73" fill="#fff" font-family="ui-monospace, monospace" font-size="9" text-anchor="middle">L4</text>
  <path stroke="#d1cfc5" stroke-width="1.5" d="M280 96v10"/>
  <path fill="#d1cfc5" d="m276 106 4 8 4-18z"/>
  <rect width="480" height="44" x="40" y="114" fill="#fff" stroke="#ea580c" stroke-width="1.5" rx="6"/>
  <rect width="480" height="18" x="40" y="114" fill="#fed7aa" stroke="#ea580c" rx="6"/>
  <text x="60" y="129" fill="#ea580c" font-family="ui-monospace, monospace" font-size="10" font-weight="600">L3 · AI Association Engine</text>
  <text x="260" y="129" fill="#141413" font-size="12" font-weight="600">AI 关联引擎层</text>
  <text x="60" y="148" fill="#87867f" font-size="10">语义匹配 · 模式识别 · 自动关联</text>
  <rect width="18" height="18" x="490" y="124" fill="#ea580c" rx="9"/>
  <text x="499" y="137" fill="#fff" font-family="ui-monospace, monospace" font-size="9" text-anchor="middle">L3</text>
  <path stroke="#d1cfc5" stroke-width="1.5" d="M280 158v10"/>
  <path fill="#d1cfc5" d="m276 168 4 8 4-18z"/>
  <rect width="480" height="36" x="40" y="176" fill="#fff" stroke="#2563eb" stroke-width="1.5" rx="6"/>
  <rect width="480" height="16" x="40" y="176" fill="#dbeafe" stroke="#2563eb" rx="6"/>
  <text x="60" y="190" fill="#2563eb" font-family="ui-monospace, monospace" font-size="10" font-weight="600">L2 · Unified Model</text>
  <text x="200" y="190" fill="#141413" font-size="12" font-weight="600">统一模型层</text>
  <text x="60" y="206" fill="#87867f" font-size="10">需求模型 · 代码模型 · 测试模型的统一表示</text>
  <path stroke="#d1cfc5" stroke-width="1.5" d="M280 212v8"/>
  <path fill="#d1cfc5" d="m276 220 4 8 4-8z"/>
  <rect width="480" height="14" x="40" y="228" fill="#d1fae5" stroke="#059669" rx="4"/>
  <text x="60" y="239" fill="#059669" font-family="ui-monospace, monospace" font-size="9" font-weight="600">L1 · Data Integration</text>
  <text x="200" y="239" fill="#141413" font-size="9" font-weight="600">数据整合层</text>
  <text x="320" y="239" fill="#87867f" font-size="9">Jira · GitHub · TestRail</text>
  <text x="280" y="248" fill="#87867f" font-size="9" font-style="italic" text-anchor="middle">L4 → L3 → L2 → L1：上层分析依赖下层数据，四层协同实现全自动可追溯性追踪</text>
</svg>
