<svg xmlns="http://www.w3.org/2000/svg" font-family="ui-serif, Georgia, serif" viewBox="0 0 560 140">
  <path fill="#faf9f5" d="M0 0h560v140H0z"/>
  <text x="280" y="18" fill="#141413" font-size="12" font-weight="500" letter-spacing="-.02em" text-anchor="middle">AI 工程治理三大支柱</text>
  <text x="280" y="32" fill="#87867f" font-family="ui-monospace, monospace" font-size="9" text-anchor="middle">postcodeengineering.com · 2025/04/18</text>
  <rect width="160" height="70" x="30" y="50" fill="#fff" stroke="#d97757" stroke-width="1.8" rx="6"/>
  <rect width="160" height="20" x="30" y="50" fill="#fef3c7" stroke="#d97757" rx="6"/>
  <text x="110" y="64" fill="#d97757" font-family="ui-monospace, monospace" font-size="10" font-weight="600" text-anchor="middle">S1 · 标准化</text>
  <text x="110" y="82" fill="#141413" font-size="9" font-weight="600" text-anchor="middle">Standardization</text>
  <text x="110" y="100" fill="#87867f" font-size="8.5" text-anchor="middle">工具标准</text>
  <text x="110" y="112" fill="#87867f" font-size="8.5" text-anchor="middle">Prompt 标准</text>
  <rect width="160" height="70" x="200" y="50" fill="#fff" stroke="#2563eb" stroke-width="1.5" rx="6"/>
  <rect width="160" height="20" x="200" y="50" fill="#dbeafe" stroke="#2563eb" rx="6"/>
  <text x="280" y="64" fill="#2563eb" font-family="ui-monospace, monospace" font-size="10" font-weight="600" text-anchor="middle">S2 · 可追溯</text>
  <text x="280" y="82" fill="#141413" font-size="9" font-weight="600" text-anchor="middle">Traceability</text>
  <text x="280" y="100" fill="#87867f" font-size="8.5" text-anchor="middle">代码溯源 · 决策记录</text>
  <text x="280" y="112" fill="#87867f" font-size="8.5" text-anchor="middle">变更追踪</text>
  <rect width="160" height="70" x="370" y="50" fill="#fff" stroke="#059669" stroke-width="1.5" rx="6"/>
  <rect width="160" height="20" x="370" y="50" fill="#d1fae5" stroke="#059669" rx="6"/>
  <text x="450" y="64" fill="#059669" font-family="ui-monospace, monospace" font-size="10" font-weight="600" text-anchor="middle">S3 · 自动化</text>
  <text x="450" y="82" fill="#141413" font-size="9" font-weight="600" text-anchor="middle">Automation</text>
  <text x="450" y="100" fill="#87867f" font-size="8.5" text-anchor="middle">自动审查</text>
  <text x="450" y="112" fill="#87867f" font-size="8.5" text-anchor="middle">自动验证 · 自动文档</text>
  <path stroke="#d1cfc5" d="M30 126h500"/>
  <text x="280" y="136" fill="#87867f" font-size="9" font-style="italic" text-anchor="middle">标准化是基础，可追溯是保障，自动化是目标</text>
</svg>
