<svg xmlns="http://www.w3.org/2000/svg" font-family="ui-serif, Georgia, serif" viewBox="0 0 620 260"><path fill="#faf9f5" d="M0 0h620v260H0z"/><text x="310" y="22" fill="#141413" font-size="14" font-weight="500" letter-spacing="-.02em" text-anchor="middle">AI 工程治理框架</text><text x="310" y="38" fill="#87867f" font-family="ui-monospace, monospace" font-size="10" text-anchor="middle">postcodeengineering.com · 2025/04/18</text><rect width="160" height="130" x="30" y="60" fill="#fff" stroke="#d1cfc5" stroke-width="1.5" rx="8"/><rect width="160" height="22" x="30" y="60" fill="#fef3c7" stroke="#d97757" rx="8"/><text x="110" y="76" fill="#d97757" font-family="ui-monospace, monospace" font-size="10.5" font-weight="600" text-anchor="middle">工具标准化</text><text x="110" y="95" fill="#141413" font-size="9.5" font-weight="600" text-anchor="middle">Standardization</text><path stroke="#d1cfc5" d="M50 104h120"/><text x="110" y="120" fill="#87867f" font-size="9" text-anchor="middle">统一采购 Cursor 企业版</text><text x="110" y="135" fill="#87867f" font-size="9" text-anchor="middle">禁止未审核工具</text><text x="110" y="150" fill="#87867f" font-size="9" text-anchor="middle">工具减少：50 → 3 种</text><rect width="80" height="20" x="70" y="160" fill="#788c5d" opacity=".15" rx="10"/><text x="110" y="174" fill="#788c5d" font-family="ui-monospace, monospace" font-size="9" text-anchor="middle">CI/CD 自动化检查</text><rect width="200" height="150" x="210" y="50" fill="#fff" stroke="#d97757" stroke-width="1.8" rx="8"/><rect width="200" height="24" x="210" y="50" fill="#d97757" stroke="#d97757" rx="8"/><text x="310" y="68" fill="#fff" font-family="ui-monospace, monospace" font-size="11" font-weight="600" text-anchor="middle">Prompt 规范化</text><text x="310" y="88" fill="#141413" font-size="10" font-weight="600" text-anchor="middle">Prompt Standardization</text><path stroke="#d1cfc5" d="M230 98h160"/><text x="310" y="116" fill="#141413" font-size="9.5" text-anchor="middle">建立 10 个核心 Prompt 模板</text><text x="310" y="132" fill="#141413" font-size="9.5" text-anchor="middle">强制使用标准模板</text><text x="310" y="148" fill="#141413" font-size="9.5" text-anchor="middle">可微调，需团队审核</text><text x="310" y="164" fill="#87867f" font-size="9" text-anchor="middle">新模板需 AI CoE 审核</text><rect width="120" height="20" x="250" y="172" fill="#d97757" opacity=".12" rx="10"/><text x="310" y="186" fill="#d97757" font-family="ui-monospace, monospace" font-size="9" text-anchor="middle">代码风格一致性 60%→90%</text><rect width="160" height="130" x="430" y="60" fill="#fff" stroke="#d1cfc5" stroke-width="1.5" rx="8"/><rect width="160" height="22" x="430" y="60" fill="#e8f0e8" stroke="#788c5d" rx="8"/><text x="510" y="76" fill="#788c5d" font-family="ui-monospace, monospace" font-size="10.5" font-weight="600" text-anchor="middle">代码溯源</text><text x="510" y="95" fill="#141413" font-size="9.5" font-weight="600" text-anchor="middle">Traceability</text><path stroke="#d1cfc5" d="M450 104h120"/><text x="510" y="120" fill="#87867f" font-size="9" text-anchor="middle">AI-GENERATED 标记</text><text x="510" y="135" fill="#87867f" font-size="9" text-anchor="middle">决策记录制度</text><text x="510" y="150" fill="#87867f" font-size="9" text-anchor="middle">变更追踪系统</text><rect width="80" height="20" x="470" y="160" fill="#788c5d" opacity=".15" rx="10"/><text x="510" y="174" fill="#788c5d" font-family="ui-monospace, monospace" font-size="9" text-anchor="middle">100% 可溯源</text><path stroke="#d97757" stroke-width="1.5" d="M310 200v15"/><path fill="#d97757" d="m310 220-5-8h10z"/><text x="310" y="210" fill="#87867f" font-family="ui-monospace, monospace" font-size="8" text-anchor="middle">治理框架</text><rect width="300" height="28" x="160" y="225" fill="#d97757" stroke="#d97757" stroke-width="1.5" opacity=".1" rx="14"/><text x="310" y="243" fill="#d97757" font-family="ui-monospace, monospace" font-size="10" font-weight="600" text-anchor="middle">效率提升 50%  ·  质量稳定  ·  创新加速</text></svg>