<svg xmlns="http://www.w3.org/2000/svg" font-family="ui-serif, Georgia, 'Times New Roman', serif" viewBox="0 0 700 280"><path fill="#faf9f5" d="M0 0h700v280H0z"/><text x="350" y="26" fill="#141413" font-size="14" font-weight="500" letter-spacing="-.02em" text-anchor="middle">Codebase Intelligence 五大核心能力</text><text x="350" y="42" fill="#87867f" font-family="ui-monospace, monospace" font-size="10" text-anchor="middle">能力总览 · 2025/04/08</text><rect width="200" height="90" x="30" y="58" fill="#fff" stroke="#d97757" stroke-width="1.8" rx="8"/><rect width="200" height="26" x="30" y="58" fill="#d97757" rx="8" ry="8"/><path fill="#d97757" d="M30 74h200v10H30z"/><text x="40" y="76" fill="#fff" font-family="ui-monospace, monospace" font-size="11" font-weight="600">能力 1</text><text x="40" y="100" fill="#141413" font-size="13">Semantic Code Search</text><text x="40" y="117" fill="#141413" font-size="11">语义代码搜索</text><text x="40" y="135" fill="#87867f" font-size="10">基于意图的语义理解</text><rect width="200" height="90" x="250" y="58" fill="#fff" stroke="#d97757" stroke-width="1.8" rx="8"/><rect width="200" height="26" x="250" y="58" fill="#d97757" rx="8" ry="8"/><path fill="#d97757" d="M250 74h200v10H250z"/><text x="260" y="76" fill="#fff" font-family="ui-monospace, monospace" font-size="11" font-weight="600">能力 2</text><text x="260" y="100" fill="#141413" font-size="13">Architecture Mapping</text><text x="260" y="117" fill="#141413" font-size="11">架构映射</text><text x="260" y="135" fill="#87867f" font-size="10">自动生成服务依赖图</text><rect width="150" height="90" x="100" y="160" fill="#fff" stroke="#d1cfc5" stroke-width="1.5" rx="8"/><rect width="150" height="26" x="100" y="160" fill="#788c5d" rx="8" ry="8"/><path fill="#788c5d" d="M100 176h150v10H100z"/><text x="110" y="178" fill="#fff" font-family="ui-monospace, monospace" font-size="11" font-weight="600">能力 3</text><text x="110" y="202" fill="#141413" font-size="12">Business Logic</text><text x="110" y="216" fill="#141413" font-size="12">业务逻辑发现</text><text x="110" y="236" fill="#87867f" font-size="10">AI自动识别业务规则</text><rect width="150" height="90" x="275" y="160" fill="#fff" stroke="#d1cfc5" stroke-width="1.5" rx="8"/><rect width="150" height="26" x="275" y="160" fill="#788c5d" rx="8" ry="8"/><path fill="#788c5d" d="M275 176h150v10H275z"/><text x="285" y="178" fill="#fff" font-family="ui-monospace, monospace" font-size="11" font-weight="600">能力 4</text><text x="285" y="202" fill="#141413" font-size="12">Impact Analysis</text><text x="285" y="216" fill="#141413" font-size="12">影响分析</text><text x="285" y="236" fill="#87867f" font-size="10">修改代码前的风险评估</text><rect width="150" height="90" x="450" y="160" fill="#fff" stroke="#d1cfc5" stroke-width="1.5" rx="8"/><rect width="150" height="26" x="450" y="160" fill="#788c5d" rx="8" ry="8"/><path fill="#788c5d" d="M450 176h150v10H450z"/><text x="460" y="178" fill="#fff" font-family="ui-monospace, monospace" font-size="11" font-weight="600">能力 5</text><text x="460" y="202" fill="#141413" font-size="12">System Reasoning</text><text x="460" y="216" fill="#141413" font-size="12">系统推理</text><text x="460" y="236" fill="#87867f" font-size="10">复杂问题的因果推理</text><text x="350" y="268" fill="#87867f" font-family="ui-monospace, monospace" font-size="9.5" text-anchor="middle">基于五层架构模型 · Codebase Intelligence System</text><title>Codebase Intelligence 五大核心能力总览图</title><desc>展示五大核心能力的卡片布局：语义代码搜索、架构映射、业务逻辑发现、影响分析、系统推理</desc></svg>