<svg xmlns="http://www.w3.org/2000/svg" viewBox="0 0 900 540"><defs><filter id="shadow" width="110%" height="115%" x="-5%" y="-5%"><feDropShadow dx="0" dy="3" flood-color="#141413" flood-opacity=".08" stdDeviation="5"/></filter><style>.lvl-title{font-family:&quot;Helvetica Neue&quot;,Arial,sans-serif;font-size:15px;font-weight:700}.lvl-period{font-weight:600}.lvl-desc,.lvl-period,.tag{font-family:&quot;Helvetica Neue&quot;,Arial,sans-serif;font-size:11px}</style></defs><path d="M0 0h900v540H0z" style="fill:#faf9f5"/><text x="30" y="34" style="font-family:&quot;Helvetica Neue&quot;,Arial,sans-serif;font-size:22px;font-weight:800;fill:#141413">AI Adoption 三层嵌套 S-curve：不能跳过的演化路径</text><text x="30" y="54" style="font-family:&quot;Helvetica Neue&quot;,Arial,sans-serif;font-size:13px;fill:#87867f">Individual → Team → Organization，每层都有自己的 S-curve，上层依赖下层的成熟</text><path d="M30 64h840" style="stroke:#d1cfc5;stroke-width:1"/><g transform="translate(30 80)"><rect width="820" height="128" fill="#141413" filter="url(#shadow)" rx="14"/><rect width="820" height="6" fill="#d97757" rx="3"/><rect width="60" height="60" x="16" y="18" fill="#d97757" opacity=".3" rx="12"/><text x="46" y="55" fill="#d97757" font-family="Helvetica Neue" font-size="32" font-weight="800" text-anchor="middle">3</text><text x="92" y="32" fill="#faf9f5" class="lvl-title" font-size="17">组织层 Organizational Adoption</text><text x="92" y="50" fill="#87867f" class="lvl-desc">战略规划 · 规模推广 · 文化转型</text><rect width="90" height="20" x="92" y="58" fill="#d97757" opacity=".25" rx="10"/><text x="137" y="73" fill="#d97757" class="lvl-period" text-anchor="middle">预计 5年+</text><path fill="none" stroke="#d97757" stroke-width="2.5" d="M460 90q60-2 100-10 40-15 80-40 20-12 60-20" opacity=".7"/><text y="85" fill="#87867f" font-family="Helvetica Neue" font-size="10" transform="translate(460 20)">早期</text><text x="110" y="85" fill="#87867f" font-family="Helvetica Neue" font-size="10" transform="translate(460 20)">加速期</text><text x="210" y="85" fill="#87867f" font-family="Helvetica Neue" font-size="10" transform="translate(460 20)">成熟期</text><text x="120" y="14" fill="#d97757" font-family="Helvetica Neue" font-size="10" text-anchor="middle" transform="translate(460 20)">AI成熟度</text><g transform="translate(92 90)"><circle cx="5" cy="5" r="4" fill="#d97757"/><text x="14" y="9" fill="#faf9f5" class="tag">AI战略 &amp; 治理体系</text></g><g transform="translate(252 90)"><circle cx="5" cy="5" r="4" fill="#d97757"/><text x="14" y="9" fill="#faf9f5" class="tag">AI平台 &amp; 标准化工具</text></g><g transform="translate(412 90)"><circle cx="5" cy="5" r="4" fill="#d97757"/><text x="14" y="9" fill="#faf9f5" class="tag">内部培训 &amp; 认证体系</text></g><g transform="translate(572 90)"><circle cx="5" cy="5" r="4" fill="#d97757"/><text x="14" y="9" fill="#faf9f5" class="tag">AI-Native 文化转型</text></g></g><path stroke="#d1cfc5" stroke-width="2.5" d="M438 210v18"/><path fill="#d1cfc5" d="M432 228h12l-6 8z"/><text x="18" y="14" fill="#87867f" font-family="Helvetica Neue" font-size="10" transform="translate(438 210)">依赖</text><g transform="translate(30 238)"><rect width="820" height="128" fill="#fff" stroke="#d1cfc5" stroke-width="1.5" filter="url(#shadow)" rx="14"/><rect width="820" height="6" fill="#87867f" rx="3"/><rect width="60" height="60" x="16" y="18" fill="#87867f" opacity=".15" rx="12"/><text x="46" y="55" fill="#87867f" font-family="Helvetica Neue" font-size="32" font-weight="800" text-anchor="middle">2</text><text x="92" y="32" fill="#141413" class="lvl-title" font-size="17">团队层 Team Adoption</text><text x="92" y="50" fill="#87867f" class="lvl-desc">标准化 · 流程整合 · 协作优化</text><rect width="90" height="20" x="92" y="58" fill="#87867f" opacity=".2" rx="10"/><text x="137" y="73" fill="#87867f" class="lvl-period" text-anchor="middle">预计 12月</text><path fill="none" stroke="#87867f" stroke-width="2.5" d="M460 90q60-5 100-20 40-22 80-42 20-6 60-8" opacity=".7"/><text y="85" fill="#87867f" font-family="Helvetica Neue" font-size="10" transform="translate(460 20)">早期</text><text x="110" y="85" fill="#87867f" font-family="Helvetica Neue" font-size="10" transform="translate(460 20)">加速期</text><text x="210" y="85" fill="#87867f" font-family="Helvetica Neue" font-size="10" transform="translate(460 20)">成熟期</text><text x="120" y="14" fill="#87867f" font-family="Helvetica Neue" font-size="10" text-anchor="middle" transform="translate(460 20)">团队AI效能</text><g transform="translate(92 90)"><circle cx="5" cy="5" r="4" fill="#87867f"/><text x="14" y="9" fill="#141413" class="tag">AI使用规范建立</text></g><g transform="translate(252 90)"><circle cx="5" cy="5" r="4" fill="#87867f"/><text x="14" y="9" fill="#141413" class="tag">开发流程集成AI</text></g><g transform="translate(412 90)"><circle cx="5" cy="5" r="4" fill="#87867f"/><text x="14" y="9" fill="#141413" class="tag">CI/CD 集成AI检查</text></g><g transform="translate(572 90)"><circle cx="5" cy="5" r="4" fill="#87867f"/><text x="14" y="9" fill="#141413" class="tag">团队知识库沉淀</text></g></g><path stroke="#d1cfc5" stroke-width="2.5" d="M438 368v18"/><path fill="#d1cfc5" d="M432 386h12l-6 8z"/><text x="18" y="14" fill="#87867f" font-family="Helvetica Neue" font-size="10" transform="translate(438 368)">依赖</text><g transform="translate(30 396)"><rect width="820" height="110" fill="#fff" stroke="#d1cfc5" stroke-width="1.5" filter="url(#shadow)" rx="14"/><rect width="820" height="6" fill="#788c5d" rx="3"/><rect width="60" height="60" x="16" y="18" fill="#788c5d" opacity=".15" rx="12"/><text x="46" y="55" fill="#788c5d" font-family="Helvetica Neue" font-size="32" font-weight="800" text-anchor="middle">1</text><text x="92" y="32" fill="#141413" class="lvl-title" font-size="17">个人层 Individual Adoption</text><text x="92" y="50" fill="#87867f" class="lvl-desc">探索期 · 熟练期 · 创新期</text><rect width="90" height="20" x="92" y="58" fill="#788c5d" opacity=".2" rx="10"/><text x="137" y="73" fill="#788c5d" class="lvl-period" text-anchor="middle">预计 6月</text><g transform="translate(92 80)"><circle cx="5" cy="5" r="4" fill="#788c5d"/><text x="14" y="9" fill="#141413" class="tag">AI工具选型 &amp; 培训</text></g><g transform="translate(272 80)"><circle cx="5" cy="5" r="4" fill="#788c5d"/><text x="14" y="9" fill="#141413" class="tag">个人 Prompt 库建设</text></g><g transform="translate(452 80)"><circle cx="5" cy="5" r="4" fill="#788c5d"/><text x="14" y="9" fill="#141413" class="tag">编码效率提升 30%+</text></g><g transform="translate(622 80)"><circle cx="5" cy="5" r="4" fill="#788c5d"/><text x="14" y="9" fill="#141413" class="tag">AI Champion 涌现</text></g></g><rect width="820" height="32" x="30" y="520" fill="#e3dacc" opacity=".5" rx="8"/><text x="50" y="540" fill="#141413" font-family="Helvetica Neue" font-size="12" font-weight="700">💡 关键洞察</text><text x="160" y="540" fill="#87867f" font-family="Helvetica Neue" font-size="12">三层 S-curve 不能跳过：个人层是基础，团队层是放大器，组织层是终态</text></svg>