<svg xmlns="http://www.w3.org/2000/svg" font-family="ui-serif, Georgia, 'Times New Roman', serif" viewBox="0 0 600 400">
  <path fill="#faf9f5" d="M0 0h600v400H0z"/>
  <text x="300" y="28" fill="#141413" font-size="14" font-weight="500" letter-spacing="-.02em" text-anchor="middle">知识冰山：显性与隐性知识分布</text>
  <text x="300" y="44" fill="#87867f" font-family="ui-monospace, monospace" font-size="10" text-anchor="middle">野中郁次郎 · 知识创造理论 · 1995</text>
  <path stroke="#d97757" stroke-dasharray="6,4" stroke-width="2.5" d="M40 168h400"/>
  <text x="440" y="164" fill="#d97757" font-family="ui-monospace, monospace" font-size="10" font-weight="600">水位线</text>
  <path fill="#fff" stroke="#d1cfc5" stroke-width="1.5" d="m300 68 62 95H238Z"/>
  <text x="300" y="118" fill="#d97757" font-size="11" font-weight="600" text-anchor="middle">显性知识 10%</text>
  <text x="300" y="134" fill="#87867f" font-family="ui-monospace, monospace" font-size="9" text-anchor="middle">API 文档 · 架构图 · 代码注释 · 手册</text>
  <circle cx="238" cy="168" r="5" fill="#d97757"/>
  <circle cx="362" cy="168" r="5" fill="#d97757"/>
  <path fill="#fff" stroke="#d1cfc5" stroke-width="1.5" d="m238 168-42 107 34 15 45-8 25 13 25-13 45 8 34-15-42-107Z"/>
  <text x="300" y="240" fill="#788c5d" font-size="11" font-weight="600" text-anchor="middle">隐性知识 90%</text>
  <text x="300" y="258" fill="#87867f" font-family="ui-monospace, monospace" font-size="9" text-anchor="middle">直觉判断 · 情境决策 · 部落知识</text>
  <path stroke="#d1cfc5" stroke-dasharray="3,3" stroke-width="1.5" d="M300 100v50"/>
  <path fill="#d1cfc5" d="m300 154-4-8h8z"/>
  <text x="318" y="118" fill="#87867f" font-family="ui-monospace, monospace" font-size="9">文档</text>
  <text x="318" y="130" fill="#87867f" font-family="ui-monospace, monospace" font-size="9">只能捕获</text>
  <text x="318" y="142" fill="#87867f" font-family="ui-monospace, monospace" font-size="9">可见部分</text>
  <text x="468" y="118" fill="#141413" font-size="10" font-weight="600">显性知识</text>
  <text x="468" y="132" fill="#87867f" font-size="9">可文档化</text>
  <text x="468" y="145" fill="#87867f" font-size="9">可编码</text>
  <text x="468" y="158" fill="#87867f" font-size="9">可传递</text>
  <text x="468" y="215" fill="#141413" font-size="10" font-weight="600">隐性知识</text>
  <text x="468" y="229" fill="#87867f" font-size="9">经验内化</text>
  <text x="468" y="242" fill="#87867f" font-size="9">情境依赖</text>
  <text x="468" y="255" fill="#87867f" font-size="9">难以言传</text>
  <text x="540" y="118" fill="#d97757" font-family="ui-monospace, monospace" font-size="22" font-weight="700">10%</text>
  <text x="540" y="230" fill="#788c5d" font-family="ui-monospace, monospace" font-size="22" font-weight="700">90%</text>
  <rect width="360" height="60" x="120" y="318" fill="#e3dacc" stroke="#d1cfc5" stroke-width="1.5" rx="8"/>
  <text x="300" y="340" fill="#141413" font-size="10" font-weight="600" text-anchor="middle">💡 关键洞察</text>
  <text x="300" y="356" fill="#141413" font-size="9.5" text-anchor="middle">显性知识告诉你&quot;怎么做&quot;，</text>
  <text x="300" y="370" fill="#141413" font-size="9.5" text-anchor="middle">隐性知识告诉你&quot;什么时候做、为什么做、什么时候不该做&quot;。</text>
</svg>
