<svg xmlns="http://www.w3.org/2000/svg" viewBox="0 0 680 500">
  <style>
    .border{stroke:#d1cfc5;stroke-width:1.5;fill:none}.text-dark-small,.text-label,.text-white{font-family:&quot;SF Mono&quot;,&quot;Cascadia Code&quot;,&quot;Fira Code&quot;,monospace}.text-white{fill:#faf9f5;font-size:13px;font-weight:600}.text-label{fill:#87867f;font-size:11px}.text-dark-small{fill:#141413;font-size:13px;font-weight:600}.arrow{stroke:#d1cfc5;stroke-width:1.5;fill:none;marker-end:url(#arrowhead)}
  </style>
  <defs>
    <marker id="arrowhead" markerHeight="6" markerWidth="8" orient="auto" refX="8" refY="3">
      <path fill="#d1cfc5" d="m0 0 8 3-8 3z"/>
    </marker>
    <marker id="arrowhead-dark" markerHeight="6" markerWidth="8" orient="auto" refX="8" refY="3">
      <path fill="#87867f" d="m0 0 8 3-8 3z"/>
    </marker>
  </defs>
  <rect width="680" height="500" rx="8" style="fill:#faf9f5"/>
  <text x="340" y="32" fill="#141413" font-family="'SF Mono', monospace" font-size="12" font-weight="700" text-anchor="middle">Prompt Graph：多层防御架构</text>
  <rect width="240" height="60" x="220" y="50" class="border" rx="4"/>
  <rect width="236" height="56" x="222" y="52" fill="#d97757" rx="3"/>
  <text x="340" y="77" class="text-white" text-anchor="middle">Planner</text>
  <text x="340" y="95" class="text-white" text-anchor="middle">Prompt</text>
  <path d="M340 110v35" class="arrow"/>
  <circle cx="340" cy="155" r="5" fill="#d1cfc5"/>
  <path d="M340 155H200v30" class="arrow"/>
  <path d="M340 155v30" class="arrow"/>
  <path d="M340 155h140v30" class="arrow"/>
  <rect width="190" height="75" x="105" y="185" class="border" rx="4"/>
  <rect width="186" height="71" x="107" y="187" fill="#e3dacc" rx="3"/>
  <text x="200" y="215" class="text-dark-small" text-anchor="middle">Executor</text>
  <text x="200" y="233" class="text-label" text-anchor="middle">Prompt</text>
  <rect width="190" height="75" x="245" y="185" class="border" rx="4"/>
  <rect width="186" height="71" x="247" y="187" fill="#e3dacc" rx="3"/>
  <text x="340" y="215" class="text-dark-small" text-anchor="middle">Critic</text>
  <text x="340" y="233" class="text-label" text-anchor="middle">Prompt</text>
  <rect width="190" height="75" x="385" y="185" class="border" rx="4"/>
  <rect width="186" height="71" x="387" y="187" fill="#e3dacc" rx="3"/>
  <text x="480" y="215" class="text-dark-small" text-anchor="middle">Memory</text>
  <text x="480" y="233" class="text-label" text-anchor="middle">Prompt</text>
  <circle cx="200" cy="260" r="4" fill="#d1cfc5"/>
  <path d="M200 260v20" class="arrow"/>
  <circle cx="340" cy="260" r="4" fill="#d1cfc5"/>
  <path d="M340 260v20" class="arrow"/>
  <circle cx="480" cy="260" r="4" fill="#d1cfc5"/>
  <path d="M480 260v20" class="arrow"/>
  <path d="M200 280v25h140" class="arrow"/>
  <path d="M480 280v25H340" class="arrow"/>
  <path d="M340 260v45" class="arrow"/>
  <circle cx="340" cy="315" r="5" fill="#d1cfc5"/>
  <path d="M340 320v40" class="arrow"/>
  <rect width="280" height="70" x="200" y="360" class="border" rx="4"/>
  <rect width="276" height="66" x="202" y="362" fill="#788c5d" rx="3"/>
  <text x="340" y="390" class="text-white" text-anchor="middle">Tool Use</text>
  <text x="340" y="408" class="text-white" text-anchor="middle">Logic</text>
  <text x="50" y="80" fill="#87867f" font-family="'SF Mono', monospace" font-size="11">User Input</text>
  <path stroke="#87867f" stroke-dasharray="3,2" d="M50 85h50"/>
  <text x="520" y="445" fill="#87867f" font-family="'SF Mono', monospace" font-size="11">→ Output</text>
  <rect width="12" height="12" x="40" y="430" fill="#d97757" rx="2"/>
  <text x="58" y="441" fill="#87867f" font-family="'SF Mono', monospace" font-size="10">Core Prompt</text>
  <rect width="12" height="12" x="130" y="430" fill="#e3dacc" stroke="#d1cfc5" rx="2"/>
  <text x="148" y="441" fill="#87867f" font-family="'SF Mono', monospace" font-size="10">Sub-Prompt</text>
  <rect width="12" height="12" x="210" y="430" fill="#788c5d" rx="2"/>
  <text x="228" y="441" fill="#87867f" font-family="'SF Mono', monospace" font-size="10">Logic Layer</text>
</svg>
