<svg xmlns="http://www.w3.org/2000/svg" font-family="ui-serif, Georgia, serif" viewBox="0 0 680 360"><path fill="#faf9f5" d="M0 0h680v360H0z"/><text x="340" y="26" fill="#141413" font-size="14" font-weight="500" letter-spacing="-.02em" text-anchor="middle">三层嵌套 S-curve Adoption 模型</text><text x="340" y="44" fill="#87867f" font-family="ui-monospace, monospace" font-size="10" text-anchor="middle">postcodeeng · 2025/03/28</text><rect width="196" height="240" x="24" y="60" fill="#fff" stroke="#d97757" stroke-width="1.8" rx="8"/><rect width="4" height="224" x="24" y="68" fill="#d97757" rx="2"/><text x="40" y="84" fill="#d97757" font-family="ui-monospace, monospace" font-size="11" font-weight="700">Individual Adoption</text><text x="40" y="100" fill="#87867f" font-family="ui-monospace, monospace" font-size="10">Month 1–6</text><path fill="none" stroke="#d97757" stroke-linecap="round" stroke-width="2.5" d="M40 240q40 0 60-40t60-70q30-22 50-30"/><path stroke="#d1cfc5" stroke-width="1.2" d="M40 250h180"/><text x="130" y="264" fill="#87867f" font-family="ui-monospace, monospace" font-size="9" text-anchor="middle">时间 →</text><text x="60" y="234" fill="#87867f" font-family="ui-monospace, monospace" font-size="8.5">Early</text><text x="115" y="174" fill="#87867f" font-family="ui-monospace, monospace" font-size="8.5">Growth</text><text x="170" y="108" fill="#87867f" font-family="ui-monospace, monospace" font-size="8.5">Maturity</text><circle cx="50" cy="238" r="3" fill="#d97757"/><circle cx="100" cy="200" r="3" fill="#d97757"/><circle cx="140" cy="155" r="3" fill="#d97757"/><circle cx="175" cy="118" r="3" fill="#d97757"/><circle cx="205" cy="102" r="3" fill="#d97757"/><text x="40" y="288" fill="#141413" font-size="9.5">个人层</text><text x="40" y="302" fill="#87867f" font-size="9">每层有自己的采用节奏</text><path fill="none" stroke="#d1cfc5" stroke-dasharray="4,3" stroke-width="1.5" d="M222 180c20 0 20 0 36-8"/><path fill="#d1cfc5" d="m258 172-8-3 1 8z"/><text x="240" y="170" fill="#87867f" font-family="ui-monospace, monospace" font-size="8">feeds into</text><rect width="196" height="240" x="258" y="60" fill="#fff" stroke="#d1cfc5" stroke-width="1.8" rx="8"/><rect width="4" height="224" x="258" y="68" fill="#788c5d" rx="2"/><text x="274" y="84" fill="#788c5d" font-family="ui-monospace, monospace" font-size="11" font-weight="700">Team Adoption</text><text x="274" y="100" fill="#87867f" font-family="ui-monospace, monospace" font-size="10">Month 7–18</text><path fill="none" stroke="#788c5d" stroke-linecap="round" stroke-width="2.5" d="M274 238q40 0 56-36 18-37 48-64 30-23 52-31"/><path stroke="#d1cfc5" stroke-width="1.2" d="M274 248h174"/><text x="362" y="262" fill="#87867f" font-family="ui-monospace, monospace" font-size="9" text-anchor="middle">时间 →</text><text x="294" y="232" fill="#87867f" font-family="ui-monospace, monospace" font-size="8.5">Early</text><text x="346" y="170" fill="#87867f" font-family="ui-monospace, monospace" font-size="8.5">Growth</text><text x="400" y="115" fill="#87867f" font-family="ui-monospace, monospace" font-size="8.5">Maturity</text><circle cx="284" cy="236" r="3" fill="#788c5d"/><circle cx="330" cy="202" r="3" fill="#788c5d"/><circle cx="368" cy="155" r="3" fill="#788c5d"/><circle cx="400" cy="126" r="3" fill="#788c5d"/><circle cx="428" cy="109" r="3" fill="#788c5d"/><text x="274" y="288" fill="#141413" font-size="9.5">团队层</text><text x="274" y="302" fill="#87867f" font-size="9">依赖个人层成熟度</text><path fill="none" stroke="#d1cfc5" stroke-dasharray="4,3" stroke-width="1.5" d="M456 180c20 0 20 0 36-8"/><path fill="#d1cfc5" d="m492 172-8-3 1 8z"/><text x="474" y="170" fill="#87867f" font-family="ui-monospace, monospace" font-size="8">feeds into</text><rect width="164" height="240" x="492" y="60" fill="#fff" stroke="#d1cfc5" stroke-width="1.8" rx="8"/><rect width="4" height="224" x="492" y="68" fill="#141413" rx="2"/><text x="508" y="84" fill="#141413" font-family="ui-monospace, monospace" font-size="11" font-weight="700">Organizational Adoption</text><text x="508" y="100" fill="#87867f" font-family="ui-monospace, monospace" font-size="10">Year 2–5+</text><path fill="none" stroke="#141413" stroke-linecap="round" stroke-width="2.5" d="M508 236q38 0 50-31 14-33 40-57 24-20 44-28"/><path stroke="#d1cfc5" stroke-width="1.2" d="M508 246h148"/><text x="584" y="260" fill="#87867f" font-family="ui-monospace, monospace" font-size="9" text-anchor="middle">时间 →</text><text x="528" y="230" fill="#87867f" font-family="ui-monospace, monospace" font-size="8.5">Early</text><text x="572" y="178" fill="#87867f" font-family="ui-monospace, monospace" font-size="8.5">Growth</text><text x="618" y="130" fill="#87867f" font-family="ui-monospace, monospace" font-size="8.5">Maturity</text><circle cx="518" cy="234" r="3" fill="#141413"/><circle cx="558" cy="205" r="3" fill="#141413"/><circle cx="592" cy="162" r="3" fill="#141413"/><circle cx="622" cy="136" r="3" fill="#141413"/><circle cx="640" cy="122" r="3" fill="#141413"/><text x="508" y="288" fill="#141413" font-size="9.5">组织层</text><text x="508" y="302" fill="#87867f" font-size="9">依赖团队层成熟度</text><text x="340" y="348" fill="#87867f" font-family="ui-monospace, monospace" font-size="9" text-anchor="middle">三层嵌套的S-curve：个人层、团队层、组织层，每层有各自的采用节奏</text><title>三层嵌套 S-curve Adoption 模型</title><desc>Horizontal three-panel diagram showing Individual Adoption (Month 1-6), Team Adoption (Month 7-18), and Organizational Adoption (Year 2-5+) as nested S-curves. Each panel is a white card with a colored left border accent. Dashed arrows indicate feed-into dependency between layers.</desc></svg>