<svg xmlns="http://www.w3.org/2000/svg" font-family="Georgia, serif" viewBox="0 0 960 540">
  <defs>
    <linearGradient id="ivory-bg4" x1="0%" x2="0%" y1="0%" y2="100%">
      <stop offset="0%" stop-color="#faf9f5"/>
      <stop offset="100%" stop-color="#f0ede4"/>
    </linearGradient>
    <filter id="shadow4" width="110%" height="110%" x="-5%" y="-5%">
      <feDropShadow dx="0" dy="2" flood-color="#141413" flood-opacity=".12" stdDeviation="4"/>
    </filter>
  </defs>
  <path fill="url(#ivory-bg4)" d="M0 0h960v540H0z"/>
  <text x="480" y="38" fill="#141413" font-size="20" font-weight="bold" text-anchor="middle">分层验证防御 / Layered Validation Defense</text>
  <path stroke="#d1cfc5" d="M200 50h560"/>
  <g transform="translate(60 70)">
    <rect width="560" height="52" fill="#141413" filter="url(#shadow4)" rx="8"/>
    <rect width="80" height="52" fill="#141413" rx="8"/>
    <path fill="#141413" d="M60 0h20v52H60z"/>
    <text x="40" y="30" fill="#faf9f5" font-size="11" font-weight="bold" text-anchor="middle">Layer 6</text>
    <text x="40" y="44" fill="#d1cfc5" font-size="9" text-anchor="middle">Pre-deploy</text>
    <text x="100" y="22" fill="#fff" font-size="12" font-weight="bold">部署风险评估</text>
    <text x="100" y="38" fill="#d1cfc5" font-size="10">综合风险评分 / 影响分析 / 预测模型</text>
    <text x="510" y="30" fill="#87867f" font-size="10" text-anchor="middle">反馈: 2-10min</text>
  </g>
  <g transform="translate(60 130)">
    <rect width="560" height="52" fill="#fff" stroke="#d97757" stroke-width="2" filter="url(#shadow4)" rx="8"/>
    <rect width="80" height="52" fill="#d97757" rx="8"/>
    <path fill="#d97757" d="M60 0h20v52H60z"/>
    <text x="40" y="30" fill="#fff" font-size="11" font-weight="bold" text-anchor="middle">Layer 5</text>
    <text x="40" y="44" fill="#faf9f5" font-size="9" text-anchor="middle">Pre-review</text>
    <text x="100" y="22" fill="#141413" font-size="12" font-weight="bold">PR摘要生成 + 审查优先级</text>
    <text x="100" y="38" fill="#87867f" font-size="10">文本摘要 / 风险评分 / 影响分析</text>
    <text x="510" y="30" fill="#87867f" font-size="10" text-anchor="middle">反馈: 即时</text>
  </g>
  <g transform="translate(60 190)">
    <rect width="560" height="52" fill="#fff" stroke="#e3dacc" stroke-width="1.5" filter="url(#shadow4)" rx="8"/>
    <rect width="80" height="52" fill="#e3dacc" rx="8"/>
    <path fill="#e3dacc" d="M60 0h20v52H60z"/>
    <text x="40" y="30" fill="#141413" font-size="11" font-weight="bold" text-anchor="middle">Layer 4</text>
    <text x="40" y="44" fill="#141413" font-size="9" text-anchor="middle">Post-build</text>
    <text x="100" y="22" fill="#141413" font-size="12" font-weight="bold">依赖评估 + 配置检查 + 测试质量</text>
    <text x="100" y="38" fill="#87867f" font-size="10">依赖风险 / 配置合理性 / 测试有效性</text>
    <text x="510" y="30" fill="#87867f" font-size="10" text-anchor="middle">反馈: 1-5min</text>
  </g>
  <g transform="translate(60 250)">
    <rect width="560" height="52" fill="#fff" stroke="#e3dacc" stroke-width="1.5" filter="url(#shadow4)" rx="8"/>
    <rect width="80" height="52" fill="#d1cfc5" rx="8"/>
    <path fill="#d1cfc5" d="M60 0h20v52H60z"/>
    <text x="40" y="30" fill="#141413" font-size="11" font-weight="bold" text-anchor="middle">Layer 3</text>
    <text x="40" y="44" fill="#141413" font-size="9" text-anchor="middle">Pre-build</text>
    <text x="100" y="22" fill="#141413" font-size="12" font-weight="bold">语义审查 + 安全扫描 + 复杂度预警</text>
    <text x="100" y="38" fill="#87867f" font-size="10">业务逻辑漏洞 / 设计模式误用 / 异常复杂度</text>
    <text x="510" y="30" fill="#87867f" font-size="10" text-anchor="middle">反馈: 10-30s</text>
  </g>
  <g transform="translate(60 310)">
    <rect width="560" height="52" fill="#fff" stroke="#e3dacc" stroke-width="1.5" filter="url(#shadow4)" rx="8"/>
    <rect width="80" height="52" fill="#e3dacc" rx="8"/>
    <path fill="#e3dacc" d="M60 0h20v52H60z"/>
    <text x="40" y="30" fill="#141413" font-size="11" font-weight="bold" text-anchor="middle">Layer 2</text>
    <text x="40" y="44" fill="#141413" font-size="9" text-anchor="middle">On-commit</text>
    <text x="100" y="22" fill="#141413" font-size="12" font-weight="bold">提交信息验证 + 意图匹配</text>
    <text x="100" y="38" fill="#87867f" font-size="10">类型标签与变更匹配 / PR描述与代码意图一致</text>
    <text x="510" y="30" fill="#87867f" font-size="10" text-anchor="middle">反馈: &lt;5s</text>
  </g>
  <g transform="translate(60 370)">
    <rect width="560" height="52" fill="#fff" stroke="#e3dacc" stroke-width="1.5" filter="url(#shadow4)" rx="8"/>
    <rect width="80" height="52" fill="#faf9f5" stroke="#d1cfc5" rx="8"/>
    <path fill="#faf9f5" stroke="#d1cfc5" d="M60 0h20v52H60z"/>
    <text x="40" y="30" fill="#141413" font-size="11" font-weight="bold" text-anchor="middle">Layer 1</text>
    <text x="40" y="44" fill="#87867f" font-size="9" text-anchor="middle">Pre-commit</text>
    <text x="100" y="22" fill="#141413" font-size="12" font-weight="bold">本地AI插件实时检查</text>
    <text x="100" y="38" fill="#87867f" font-size="10">语法错误 / 明显语义问题 / 提交规范</text>
    <text x="510" y="30" fill="#87867f" font-size="10" text-anchor="middle">反馈: &lt;1s</text>
  </g>
  <rect width="280" height="360" x="650" y="70" fill="#fff" filter="url(#shadow4)" rx="12"/>
  <rect width="280" height="36" x="650" y="70" fill="#788c5d" rx="12"/>
  <path fill="#788c5d" d="M650 94h280v12H650z"/>
  <text x="790" y="92" fill="#fff" font-size="13" font-weight="bold" text-anchor="middle">💡 分层防御核心洞察</text>
  <text x="668" y="130" fill="#141413" font-size="12" font-weight="bold">越早发现，修复成本越低</text>
  <path stroke="#e3dacc" d="M668 140h242"/>
  <text x="668" y="162" fill="#141413" font-size="11">Layer 1 发现错误：</text>
  <text x="668" y="178" fill="#141413" font-size="11">  修复成本 ≈ 1x</text>
  <text x="668" y="196" fill="#141413" font-size="11">Layer 3 发现错误：</text>
  <text x="668" y="212" fill="#141413" font-size="11">  修复成本 ≈ 10x</text>
  <text x="668" y="230" fill="#d97757" font-size="11" font-weight="bold">Layer 6 发现错误：</text>
  <text x="668" y="246" fill="#d97757" font-size="11" font-weight="bold">  修复成本 ≈ 100x</text>
  <path stroke="#e3dacc" d="M668 260h242"/>
  <text x="668" y="282" fill="#141413" font-size="12" font-weight="bold">AI验证不是取代现有测试</text>
  <text x="668" y="300" fill="#87867f" font-size="11">而是填补测试覆盖</text>
  <text x="668" y="316" fill="#87867f" font-size="11">不了的维度</text>
  <path stroke="#e3dacc" d="M668 330h242"/>
  <text x="668" y="352" fill="#141413" font-size="11" font-weight="bold">人机协作模式：</text>
  <text x="668" y="370" fill="#141413" font-size="10">AI 负责：初筛 + 模式识别</text>
  <text x="668" y="386" fill="#141413" font-size="10">人类负责：最终决策</text>
  <text x="668" y="402" fill="#141413" font-size="10">→ 效率 + 质量兼得</text>
  <text x="480" y="500" fill="#87867f" font-size="10" text-anchor="middle">错误修复成本随 Pipeline 阶段指数增长：Layer 1 = 1x → Layer 6 = 100x</text>
</svg>
