<svg xmlns="http://www.w3.org/2000/svg" font-family="ui-serif, Georgia, 'Times New Roman', serif" viewBox="0 0 680 400">
  <path fill="#faf9f5" d="M0 0h680v400H0z"/>
  <text x="340" y="26" fill="#141413" font-size="14" font-weight="500" letter-spacing="-.02em" text-anchor="middle">AI 成本冰山模型</text>
  <text x="340" y="42" fill="#87867f" font-family="ui-monospace, monospace" font-size="10" text-anchor="middle">四层成本结构 · 核心框架</text>
  <rect width="600" height="66" x="40" y="60" fill="#fff" stroke="#d97757" stroke-width="2" rx="8"/>
  <rect width="8" height="66" x="40" y="60" fill="#d97757" rx="4"/>
  <text x="64" y="81" fill="#d97757" font-family="ui-monospace, monospace" font-size="11" font-weight="600">L1</text>
  <text x="64" y="99" fill="#141413" font-size="13">Token 成本</text>
  <text x="148" y="81" fill="#87867f" font-family="ui-monospace, monospace" font-size="10">可见性 高</text>
  <text x="148" y="99" fill="#87867f" font-family="ui-monospace, monospace" font-size="10">增长 线性</text>
  <text x="240" y="81" fill="#d97757" font-family="ui-monospace, monospace" font-size="10">占比 ~30%</text>
  <text x="240" y="99" fill="#141413" font-size="10">按 Token 计费，最容易预测和控制</text>
  <text x="580" y="90" fill="#87867f" font-family="ui-monospace, monospace" font-size="9" text-anchor="middle">↑ 显性</text>
  <path stroke="#d1cfc5" stroke-width="1.5" d="M340 126v12"/>
  <path fill="#d1cfc5" d="m340 142-4-8h8z"/>
  <rect width="600" height="66" x="40" y="146" fill="#fff" stroke="#d1cfc5" stroke-width="1.5" rx="8"/>
  <rect width="8" height="66" x="40" y="146" fill="#d1cfc5" rx="4"/>
  <text x="64" y="167" fill="#87867f" font-family="ui-monospace, monospace" font-size="11" font-weight="600">L2</text>
  <text x="64" y="185" fill="#141413" font-size="13">延迟成本</text>
  <text x="148" y="167" fill="#87867f" font-family="ui-monospace, monospace" font-size="10">可见性 中</text>
  <text x="148" y="185" fill="#87867f" font-family="ui-monospace, monospace" font-size="10">增长 超线性</text>
  <text x="240" y="167" fill="#87867f" font-family="ui-monospace, monospace" font-size="10">占比 ~25%</text>
  <text x="240" y="185" fill="#141413" font-size="10">用户体验下降 + 基础设施扩容需求</text>
  <text x="580" y="176" fill="#87867f" font-family="ui-monospace, monospace" font-size="9" text-anchor="middle">↑↓</text>
  <path stroke="#d1cfc5" stroke-width="1.5" d="M340 212v12"/>
  <path fill="#d1cfc5" d="m340 228-4-8h8z"/>
  <rect width="600" height="66" x="40" y="232" fill="#fff" stroke="#d97757" stroke-width="2" rx="8"/>
  <rect width="8" height="66" x="40" y="232" fill="#d97757" rx="4"/>
  <text x="64" y="253" fill="#d97757" font-family="ui-monospace, monospace" font-size="11" font-weight="600">L3</text>
  <text x="64" y="271" fill="#141413" font-size="13">错误成本</text>
  <text x="148" y="253" fill="#87867f" font-family="ui-monospace, monospace" font-size="10">可见性 低</text>
  <text x="148" y="271" fill="#87867f" font-family="ui-monospace, monospace" font-size="10">增长 指数级</text>
  <text x="240" y="253" fill="#d97757" font-family="ui-monospace, monospace" font-size="10">占比 ~30%</text>
  <text x="240" y="271" fill="#141413" font-size="10">一次严重错误的成本可超过一年 API 费用</text>
  <text x="580" y="262" fill="#d97757" font-family="ui-monospace, monospace" font-size="9" text-anchor="middle">↓ 隐性</text>
  <path stroke="#d1cfc5" stroke-width="1.5" d="M340 298v12"/>
  <path fill="#d1cfc5" d="m340 314-4-8h8z"/>
  <rect width="600" height="66" x="40" y="318" fill="#fff" stroke="#d1cfc5" stroke-width="1.5" rx="8"/>
  <rect width="8" height="66" x="40" y="318" fill="#d1cfc5" rx="4"/>
  <text x="64" y="339" fill="#87867f" font-family="ui-monospace, monospace" font-size="11" font-weight="600">L4</text>
  <text x="64" y="357" fill="#141413" font-size="13">维护成本</text>
  <text x="148" y="339" fill="#87867f" font-family="ui-monospace, monospace" font-size="10">可见性 极低</text>
  <text x="148" y="357" fill="#87867f" font-family="ui-monospace, monospace" font-size="10">增长 隐性累积</text>
  <text x="240" y="339" fill="#87867f" font-family="ui-monospace, monospace" font-size="10">占比 ~15%</text>
  <text x="240" y="357" fill="#141413" font-size="10">Prompt 调整、反馈循环、行为监控</text>
  <text x="580" y="343" fill="#87867f" font-family="ui-monospace, monospace" font-size="9" text-anchor="middle">↓↓ 冰山下</text>
  <text x="654" y="90" fill="#d97757" font-family="ui-monospace, monospace" font-size="8" transform="rotate(-90 654 90)">TOKEN</text>
  <text x="654" y="176" fill="#87867f" font-family="ui-monospace, monospace" font-size="8" transform="rotate(-90 654 176)">LATENCY</text>
  <text x="654" y="262" fill="#d97757" font-family="ui-monospace, monospace" font-size="8" transform="rotate(-90 654 262)">ERRORS</text>
  <text x="654" y="343" fill="#87867f" font-family="ui-monospace, monospace" font-size="8" transform="rotate(-90 654 343)">MAINTENANCE</text>
</svg>
