<svg xmlns="http://www.w3.org/2000/svg" font-family="ui-serif, Georgia, serif" viewBox="0 0 620 300"><path fill="#faf9f5" d="M0 0h620v300H0z"/><text x="310" y="26" fill="#141413" font-size="14" font-weight="500" letter-spacing="-.02em" text-anchor="middle">TDD 到 AI-DD：范式转移</text><text x="310" y="42" fill="#87867f" font-family="ui-monospace, monospace" font-size="10" text-anchor="middle">Kent Beck 1999 · 2026</text><rect width="210" height="170" x="40" y="62" fill="#fff" stroke="#d1cfc5" stroke-width="1.5" rx="10"/><text x="145" y="86" fill="#87867f" font-family="ui-monospace, monospace" font-size="11" font-weight="600" text-anchor="middle">传统 TDD</text><circle cx="145" cy="145" r="38" fill="none" stroke="#d1cfc5" stroke-width="1.5"/><path stroke="#87867f" stroke-width="1.5" d="M145 110v10"/><path fill="#87867f" d="m145 124-4-8h8z"/><text x="145" y="104" fill="#87867f" font-family="ui-monospace, monospace" font-size="9" text-anchor="middle">测试</text><path stroke="#87867f" stroke-width="1.5" d="m178 142-10 6"/><path fill="#87867f" d="m162 151 8-7 3 9z"/><text x="185" y="160" fill="#87867f" font-family="ui-monospace, monospace" font-size="9" text-anchor="middle">代码</text><path stroke="#87867f" stroke-width="1.5" d="m112 148 10-6"/><path fill="#87867f" d="m128 151-8-7-3 9z"/><text x="105" y="160" fill="#87867f" font-family="ui-monospace, monospace" font-size="9" text-anchor="middle">重构</text><text x="145" y="202" fill="#87867f" font-family="ui-monospace, monospace" font-size="10" text-anchor="middle">红 · 绿 · 重构</text><text x="145" y="218" fill="#87867f" font-size="9.5" text-anchor="middle">验证正确性</text><path stroke="#d97757" stroke-dasharray="5,4" stroke-width="1.8" d="M260 148h85"/><path fill="#d97757" d="m355 148-10-5v10z"/><text x="310" y="136" fill="#d97757" font-family="ui-monospace, monospace" font-size="9.5" text-anchor="middle">范式转移</text><rect width="210" height="170" x="370" y="62" fill="#fff" stroke="#d97757" stroke-width="1.8" rx="10"/><text x="475" y="86" fill="#d97757" font-family="ui-monospace, monospace" font-size="11" font-weight="600" text-anchor="middle">AI-DD 新范式</text><circle cx="475" cy="145" r="44" fill="none" stroke="#d97757" stroke-width="1.5"/><path stroke="#d97757" stroke-width="1.8" d="m475 104 23 29"/><path fill="#d97757" d="m505 138-9-8 6-4z"/><text x="500" y="96" fill="#d97757" font-family="ui-monospace, monospace" font-size="9" text-anchor="middle">意图</text><path stroke="#788c5d" stroke-width="1.8" d="m498 159-46 22"/><path fill="#788c5d" d="m444 183 10-6 1 10z"/><text x="516" y="175" fill="#788c5d" font-family="ui-monospace, monospace" font-size="9" text-anchor="middle">AI生成</text><path stroke="#141413" stroke-width="1.5" d="m436 138 24-23"/><path fill="#141413" d="m460 109-5 10 11-1z"/><text x="430" y="188" fill="#141413" font-family="ui-monospace, monospace" font-size="9" text-anchor="middle">契约验证</text><text x="475" y="202" fill="#d97757" font-family="ui-monospace, monospace" font-size="10" text-anchor="middle">意图 · AI · 契约</text><text x="475" y="218" fill="#141413" font-size="9.5" text-anchor="middle">约束意图表达</text><rect width="160" height="38" x="40" y="250" fill="#fff" stroke="#d1cfc5" stroke-width="1.2" rx="6"/><text x="120" y="267" fill="#87867f" font-size="9.5" text-anchor="middle">测试 = 稀缺资源</text><text x="120" y="281" fill="#87867f" font-family="ui-monospace, monospace" font-size="9" text-anchor="middle">Kent Beck, 1999</text><rect width="160" height="38" x="230" y="250" fill="#fff" stroke="#d1cfc5" stroke-width="1.2" rx="6"/><text x="310" y="267" fill="#87867f" font-size="9.5" text-anchor="middle">人类写 → 人+AI协作</text><text x="310" y="281" fill="#87867f" font-family="ui-monospace, monospace" font-size="9" text-anchor="middle">过渡期 2022-2025</text><rect width="160" height="38" x="420" y="250" fill="#fff" stroke="#d97757" stroke-width="1.5" rx="6"/><text x="500" y="267" fill="#d97757" font-size="9.5" text-anchor="middle">契约语言 = 测试</text><text x="500" y="281" fill="#d97757" font-family="ui-monospace, monospace" font-size="9" text-anchor="middle">AI-DD 2026+</text><title>TDD 到 AI-DD：范式转移</title><desc>左列展示Kent Beck 1999年提出的传统TDD循环：测试→代码→重构。右列展示2026年AI-DD新范式：意图→AI生成→契约验证，标注范式转移过程。</desc></svg>