<svg xmlns="http://www.w3.org/2000/svg" font-family="ui-serif, Georgia, serif" viewBox="0 0 560 240">
  <path fill="#faf9f5" d="M0 0h560v240H0z"/>
  <text x="280" y="18" fill="#141413" font-size="13" font-weight="500" letter-spacing="-.02em" text-anchor="middle">架构师能力模型重构：从 T 型到 π 型</text>
  <text x="280" y="34" fill="#87867f" font-family="ui-monospace, monospace" font-size="9.5" text-anchor="middle">postcodeengineering.com · 2025/02/14</text>
  <text x="140" y="54" fill="#87867f" font-size="10" font-weight="600" text-anchor="middle">T 型（传统）</text>
  <rect width="44" height="110" x="118" y="62" fill="#d1cfc5" stroke="#87867f" stroke-width="1.5" rx="4"/>
  <text x="140" y="84" fill="#141413" font-size="8" font-weight="600" text-anchor="middle">技术深度</text>
  <text x="140" y="97" fill="#141413" font-size="7.5" text-anchor="middle">某一领域</text>
  <text x="140" y="109" fill="#87867f" font-size="7.5" text-anchor="middle">分布式系统</text>
  <text x="140" y="121" fill="#87867f" font-size="7.5" text-anchor="middle">ML/AI 等</text>
  <rect width="172" height="24" x="54" y="176" fill="#f0eee6" stroke="#d1cfc5" stroke-width="1.5" rx="4"/>
  <text x="140" y="192" fill="#87867f" font-size="8" text-anchor="middle">跨领域广度：前端 · 后端 · 运维 · 产品</text>
  <text x="140" y="215" fill="#87867f" font-size="8" text-anchor="middle">重心：执行</text>
  <text x="400" y="54" fill="#d97757" font-size="10" font-weight="600" text-anchor="middle">π 型（AI 时代）</text>
  <rect width="54" height="110" x="318" y="62" fill="#fff" stroke="#d97757" stroke-width="1.8" rx="4"/>
  <rect width="54" height="20" x="318" y="62" fill="#fef3c7" stroke="#d97757" rx="4"/>
  <text x="345" y="74" fill="#d97757" font-family="ui-monospace, monospace" font-size="8.5" font-weight="600" text-anchor="middle">左竖</text>
  <text x="345" y="92" fill="#141413" font-size="8" font-weight="600" text-anchor="middle">技术评估</text>
  <text x="345" y="106" fill="#141413" font-size="7.5" text-anchor="middle">评估而非执行</text>
  <text x="345" y="120" fill="#87867f" font-size="7" text-anchor="middle">判断什么对</text>
  <text x="345" y="132" fill="#87867f" font-size="7" text-anchor="middle">而非亲手做</text>
  <rect width="14" height="14" x="364" y="66" fill="#d97757" rx="7"/>
  <text x="371" y="76" fill="#fff" font-family="ui-monospace, monospace" font-size="7" text-anchor="middle">L</text>
  <rect width="54" height="110" x="448" y="62" fill="#fff" stroke="#2563eb" stroke-width="1.8" rx="4"/>
  <rect width="54" height="20" x="448" y="62" fill="#dbeafe" stroke="#2563eb" rx="4"/>
  <text x="475" y="74" fill="#2563eb" font-family="ui-monospace, monospace" font-size="8.5" font-weight="600" text-anchor="middle">右竖</text>
  <text x="475" y="92" fill="#141413" font-size="8" font-weight="600" text-anchor="middle">Context 设计</text>
  <text x="475" y="106" fill="#141413" font-size="7.5" text-anchor="middle">AI 时代新核心</text>
  <text x="475" y="120" fill="#141413" font-size="7" text-anchor="middle">五维度能力</text>
  <text x="475" y="132" fill="#87867f" font-size="7" text-anchor="middle">差异化竞争力</text>
  <rect width="14" height="14" x="494" y="66" fill="#2563eb" rx="7"/>
  <text x="501" y="76" fill="#fff" font-family="ui-monospace, monospace" font-size="7" text-anchor="middle">R</text>
  <rect width="340" height="24" x="238" y="176" fill="#f0eee6" stroke="#d1cfc5" stroke-width="1.5" rx="4"/>
  <text x="408" y="192" fill="#87867f" font-size="8" text-anchor="middle">横杠：跨领域整合（比 T 型更宽）技术 · 业务 · 组织</text>
  <text x="408" y="215" fill="#d97757" font-size="8" font-weight="600" text-anchor="middle">重心转移：执行 → 评估 + Context 设计</text>
  <path stroke="#d1cfc5" stroke-width="2" d="M230 120h80"/>
  <path fill="#d1cfc5" d="m310 116 8 4-8 4z"/>
  <text x="270" y="116" fill="#87867f" font-family="ui-monospace, monospace" font-size="8" text-anchor="middle">演进</text>
  <rect width="28" height="12" x="502" y="50" fill="#dc2626" rx="3"/>
  <text x="516" y="59" fill="#fff" font-size="7" font-weight="600" text-anchor="middle">NEW</text>
</svg>
