<svg xmlns="http://www.w3.org/2000/svg" font-family="ui-serif, Georgia, serif" viewBox="0 0 560 180">
  <path fill="#faf9f5" d="M0 0h560v180H0z"/>
  <text x="280" y="18" fill="#141413" font-size="13" font-weight="500" letter-spacing="-.02em" text-anchor="middle">CI/CD 流程中的 AI 注入点</text>
  <text x="280" y="34" fill="#87867f" font-family="ui-monospace, monospace" font-size="9.5" text-anchor="middle">postcodeengineering.com · 2025/06/09</text>
  <rect width="72" height="60" x="30" y="70" fill="#f0eee6" stroke="#87867f" stroke-width="1.5" rx="6"/>
  <text x="66" y="92" fill="#141413" font-size="9" font-weight="600" text-anchor="middle">A · 开发者</text>
  <text x="66" y="106" fill="#141413" font-size="9" text-anchor="middle">提交代码</text>
  <text x="66" y="120" fill="#87867f" font-size="8.5" text-anchor="middle">git push</text>
  <rect width="12" height="12" x="94" y="90" fill="#87867f" rx="6"/>
  <text x="100" y="99" fill="#fff" font-family="ui-monospace, monospace" font-size="7" text-anchor="middle">A</text>
  <path stroke="#d1cfc5" stroke-width="1.5" d="M102 100h16"/>
  <path fill="#d1cfc5" d="m118 96 8 4-8 4z"/>
  <rect width="80" height="76" x="126" y="62" fill="#fff" stroke="#059669" stroke-width="1.5" rx="6"/>
  <rect width="80" height="16" x="126" y="62" fill="#d1fae5" stroke="#059669" rx="6"/>
  <text x="166" y="75" fill="#059669" font-family="ui-monospace, monospace" font-size="9" font-weight="600" text-anchor="middle">B · 静态分析</text>
  <text x="166" y="93" fill="#141413" font-size="9" text-anchor="middle">Lint / SAST</text>
  <text x="166" y="106" fill="#141413" font-size="8.5" text-anchor="middle">✓ 语法检查</text>
  <text x="166" y="118" fill="#141413" font-size="8.5" text-anchor="middle">✓ 代码规范</text>
  <text x="166" y="130" fill="#059669" font-size="8" text-anchor="middle">AI 可增强</text>
  <rect width="12" height="12" x="198" y="84" fill="#059669" rx="6"/>
  <text x="204" y="93" fill="#fff" font-family="ui-monospace, monospace" font-size="7" text-anchor="middle">B</text>
  <path stroke="#d1cfc5" stroke-width="1.5" d="M206 100h16"/>
  <path fill="#d1cfc5" d="m222 96 8 4-8 4z"/>
  <rect width="72" height="60" x="230" y="70" fill="#fff" stroke="#059669" stroke-width="1.5" rx="6"/>
  <rect width="72" height="16" x="230" y="70" fill="#d1fae5" stroke="#059669" rx="6"/>
  <text x="266" y="83" fill="#059669" font-family="ui-monospace, monospace" font-size="9" font-weight="600" text-anchor="middle">C · 单元测试</text>
  <text x="266" y="100" fill="#141413" font-size="9" text-anchor="middle">Unit Tests</text>
  <text x="266" y="114" fill="#141413" font-size="8.5" text-anchor="middle">✓ 函数正确性</text>
  <rect width="12" height="12" x="294" y="90" fill="#059669" rx="6"/>
  <text x="300" y="99" fill="#fff" font-family="ui-monospace, monospace" font-size="7" text-anchor="middle">C</text>
  <path stroke="#d1cfc5" stroke-width="1.5" d="M302 100h16"/>
  <path fill="#d1cfc5" d="m318 96 8 4-8 4z"/>
  <rect width="72" height="60" x="326" y="70" fill="#fff" stroke="#059669" stroke-width="1.5" rx="6"/>
  <rect width="72" height="16" x="326" y="70" fill="#d1fae5" stroke="#059669" rx="6"/>
  <text x="362" y="83" fill="#059669" font-family="ui-monospace, monospace" font-size="9" font-weight="600" text-anchor="middle">D · 集成测试</text>
  <text x="362" y="100" fill="#141413" font-size="9" text-anchor="middle">Integration</text>
  <text x="362" y="114" fill="#141413" font-size="8.5" text-anchor="middle">✓ 模块协作</text>
  <rect width="12" height="12" x="390" y="90" fill="#059669" rx="6"/>
  <text x="396" y="99" fill="#fff" font-family="ui-monospace, monospace" font-size="7" text-anchor="middle">D</text>
  <path stroke="#d1cfc5" stroke-width="1.5" d="M398 100h16"/>
  <path fill="#d1cfc5" d="m414 96 8 4-8 4z"/>
  <rect width="108" height="76" x="422" y="62" fill="#fff" stroke="#d97757" stroke-width="2" rx="6"/>
  <rect width="108" height="16" x="422" y="62" fill="#fef3c7" stroke="#d97757" rx="6"/>
  <text x="476" y="75" fill="#d97757" font-family="ui-monospace, monospace" font-size="9" font-weight="600" text-anchor="middle">⚠ E · Code Review</text>
  <text x="476" y="93" fill="#141413" font-size="9" text-anchor="middle">人工审查</text>
  <text x="476" y="106" fill="#dc2626" font-size="8.5" text-anchor="middle">耗时、主观、不一致</text>
  <text x="476" y="118" fill="#dc2626" font-size="8.5" text-anchor="middle">意图偏离无法发现</text>
  <text x="476" y="130" fill="#d97757" font-size="8" text-anchor="middle">AI 替代目标</text>
  <rect width="12" height="12" x="522" y="84" fill="#d97757" rx="6"/>
  <text x="528" y="93" fill="#fff" font-family="ui-monospace, monospace" font-size="7" text-anchor="middle">E</text>
  <path stroke="#d1cfc5" stroke-width="1.5" d="M478 138v22"/>
  <path fill="#d1cfc5" d="m474 160 4 8 4-8z"/>
  <rect width="76" height="20" x="440" y="160" fill="#fff" stroke="#2563eb" stroke-width="1.2" rx="5"/>
  <text x="478" y="174" fill="#2563eb" font-family="ui-monospace, monospace" font-size="9" font-weight="600" text-anchor="middle">F · 部署上线</text>
</svg>
