<svg xmlns="http://www.w3.org/2000/svg" font-family="ui-serif, Georgia, 'Times New Roman', serif" viewBox="0 0 680 360">
  <path fill="#faf9f5" d="M0 0h680v360H0z"/>
  <text x="340" y="26" fill="#141413" font-size="14" font-weight="500" letter-spacing="-.02em" text-anchor="middle">CI/CD AI 注入点全景图：12个卡点的全流程分布</text>
  <text x="340" y="42" fill="#87867f" font-family="ui-monospace, monospace" font-size="10" text-anchor="middle">从提交到部署 · AI-Native 软件工程系列 #7</text>
  <rect width="90" height="44" x="30" y="295" fill="#fff" stroke="#d97757" stroke-width="1.8" rx="6"/>
  <text x="75" y="314" fill="#d97757" font-family="ui-monospace, monospace" font-size="11" font-weight="600" text-anchor="middle">01</text>
  <text x="75" y="330" fill="#141413" font-size="10" text-anchor="middle">Commit</text>
  <text x="75" y="342" fill="#87867f" font-size="9" text-anchor="middle">提交</text>
  <path stroke="#d1cfc5" stroke-width="1.5" d="M122 317h14"/>
  <path fill="#d1cfc5" d="m138 317-6-4v8z"/>
  <rect width="90" height="44" x="140" y="295" fill="#fff" stroke="#d1cfc5" stroke-width="1.5" rx="6"/>
  <text x="185" y="314" fill="#d97757" font-family="ui-monospace, monospace" font-size="11" font-weight="600" text-anchor="middle">02</text>
  <text x="185" y="330" fill="#141413" font-size="10" text-anchor="middle">Build</text>
  <text x="185" y="342" fill="#87867f" font-size="9" text-anchor="middle">构建</text>
  <path stroke="#d1cfc5" stroke-width="1.5" d="M232 317h14"/>
  <path fill="#d1cfc5" d="m248 317-6-4v8z"/>
  <rect width="90" height="44" x="250" y="295" fill="#fff" stroke="#d1cfc5" stroke-width="1.5" rx="6"/>
  <text x="295" y="314" fill="#d97757" font-family="ui-monospace, monospace" font-size="11" font-weight="600" text-anchor="middle">03</text>
  <text x="295" y="330" fill="#141413" font-size="10" text-anchor="middle">Test</text>
  <text x="295" y="342" fill="#87867f" font-size="9" text-anchor="middle">测试</text>
  <path stroke="#d1cfc5" stroke-width="1.5" d="M342 317h14"/>
  <path fill="#d1cfc5" d="m358 317-6-4v8z"/>
  <rect width="90" height="44" x="360" y="295" fill="#fff" stroke="#d1cfc5" stroke-width="1.5" rx="6"/>
  <text x="405" y="314" fill="#d97757" font-family="ui-monospace, monospace" font-size="11" font-weight="600" text-anchor="middle">04</text>
  <text x="405" y="330" fill="#141413" font-size="10" text-anchor="middle">Integration</text>
  <text x="405" y="342" fill="#87867f" font-size="9" text-anchor="middle">集成</text>
  <path stroke="#d1cfc5" stroke-width="1.5" d="M452 317h14"/>
  <path fill="#d1cfc5" d="m468 317-6-4v8z"/>
  <rect width="90" height="44" x="470" y="295" fill="#fff" stroke="#d1cfc5" stroke-width="1.5" rx="6"/>
  <text x="515" y="314" fill="#d97757" font-family="ui-monospace, monospace" font-size="11" font-weight="600" text-anchor="middle">05</text>
  <text x="515" y="330" fill="#141413" font-size="10" text-anchor="middle">Review</text>
  <text x="515" y="342" fill="#87867f" font-size="9" text-anchor="middle">审查</text>
  <path stroke="#d1cfc5" stroke-width="1.5" d="M562 317h14"/>
  <path fill="#d1cfc5" d="m578 317-6-4v8z"/>
  <rect width="90" height="44" x="560" y="295" fill="#fff" stroke="#788c5d" stroke-width="1.8" rx="6"/>
  <text x="605" y="314" fill="#788c5d" font-family="ui-monospace, monospace" font-size="11" font-weight="600" text-anchor="middle">06</text>
  <text x="605" y="330" fill="#141413" font-size="10" text-anchor="middle">Deploy</text>
  <text x="605" y="342" fill="#87867f" font-size="9" text-anchor="middle">部署</text>
  <path stroke="#d97757" stroke-dasharray="3,2" d="M75 195v98" opacity=".5"/>
  <rect width="90" height="35" x="30" y="158" fill="#d97757" rx="5"/>
  <text x="75" y="175" fill="#fff" font-family="ui-monospace, monospace" font-size="10" font-weight="600" text-anchor="middle">01 提交信息验证</text>
  <path stroke="#d97757" stroke-dasharray="3,2" d="M185 195v98" opacity=".5"/>
  <rect width="90" height="35" x="140" y="158" fill="#d97757" rx="5"/>
  <text x="185" y="175" fill="#fff" font-family="ui-monospace, monospace" font-size="10" font-weight="600" text-anchor="middle">02 意图匹配</text>
  <path stroke="#d97757" stroke-dasharray="3,2" d="M295 195v98" opacity=".5"/>
  <rect width="90" height="35" x="250" y="158" fill="#d97757" rx="5"/>
  <text x="295" y="175" fill="#fff" font-family="ui-monospace, monospace" font-size="10" font-weight="600" text-anchor="middle">03 代码语义审查</text>
  <path stroke="#d97757" stroke-dasharray="3,2" d="M405 195v98" opacity=".5"/>
  <rect width="90" height="35" x="360" y="158" fill="#d97757" rx="5"/>
  <text x="405" y="175" fill="#fff" font-family="ui-monospace, monospace" font-size="10" font-weight="600" text-anchor="middle">04 安全扫描</text>
  <path stroke="#d97757" stroke-dasharray="3,2" d="M515 195v98" opacity=".5"/>
  <rect width="90" height="35" x="470" y="158" fill="#d97757" rx="5"/>
  <text x="515" y="175" fill="#fff" font-family="ui-monospace, monospace" font-size="10" font-weight="600" text-anchor="middle">05 复杂度预警</text>
  <path stroke="#d97757" stroke-dasharray="3,2" d="M605 195v98" opacity=".5"/>
  <rect width="90" height="35" x="560" y="158" fill="#d97757" rx="5"/>
  <text x="605" y="175" fill="#fff" font-family="ui-monospace, monospace" font-size="10" font-weight="600" text-anchor="middle">06 依赖风险</text>
  <path stroke="#788c5d" stroke-dasharray="3,2" d="m75 118 110 40" opacity=".5"/>
  <rect width="90" height="35" x="30" y="85" fill="#788c5d" rx="5"/>
  <text x="75" y="102" fill="#fff" font-family="ui-monospace, monospace" font-size="10" font-weight="600" text-anchor="middle">07 配置合理性</text>
  <path stroke="#788c5d" stroke-dasharray="3,2" d="m185 118 110 40" opacity=".5"/>
  <rect width="90" height="35" x="140" y="85" fill="#788c5d" rx="5"/>
  <text x="185" y="102" fill="#fff" font-family="ui-monospace, monospace" font-size="10" font-weight="600" text-anchor="middle">08 测试质量</text>
  <path stroke="#788c5d" stroke-dasharray="3,2" d="m295 118 110 40" opacity=".5"/>
  <rect width="90" height="35" x="250" y="85" fill="#788c5d" rx="5"/>
  <text x="295" y="102" fill="#fff" font-family="ui-monospace, monospace" font-size="10" font-weight="600" text-anchor="middle">09 覆盖率盲区</text>
  <path stroke="#788c5d" stroke-dasharray="3,2" d="m405 118 110 40" opacity=".5"/>
  <rect width="90" height="35" x="360" y="85" fill="#788c5d" rx="5"/>
  <text x="405" y="102" fill="#fff" font-family="ui-monospace, monospace" font-size="10" font-weight="600" text-anchor="middle">10 PR摘要</text>
  <path stroke="#788c5d" stroke-dasharray="3,2" d="m515 118 90 40" opacity=".5"/>
  <rect width="90" height="35" x="470" y="85" fill="#788c5d" rx="5"/>
  <text x="515" y="102" fill="#fff" font-family="ui-monospace, monospace" font-size="10" font-weight="600" text-anchor="middle">11 审查优先级</text>
  <path stroke="#788c5d" stroke-dasharray="3,2" d="M605 118v40" opacity=".5"/>
  <rect width="90" height="35" x="560" y="85" fill="#788c5d" rx="5"/>
  <text x="605" y="102" fill="#fff" font-family="ui-monospace, monospace" font-size="10" font-weight="600" text-anchor="middle">12 部署风险</text>
  <text x="12" y="174" fill="#87867f" font-family="ui-monospace, monospace" font-size="9" writing-mode="tb">Pre-commit</text>
  <text x="12" y="174" fill="#87867f" font-family="ui-monospace, monospace" font-size="9" transform="translate(0 42)" writing-mode="tb">On-commit</text>
  <text x="12" y="174" fill="#87867f" font-family="ui-monospace, monospace" font-size="9" transform="translate(0 84)" writing-mode="tb">Pre-build</text>
  <text x="12" y="174" fill="#87867f" font-family="ui-monospace, monospace" font-size="9" transform="translate(0 126)" writing-mode="tb">Post-build</text>
  <text x="12" y="174" fill="#87867f" font-family="ui-monospace, monospace" font-size="9" transform="translate(0 168)" writing-mode="tb">Pre-review</text>
  <text x="12" y="174" fill="#87867f" font-family="ui-monospace, monospace" font-size="9" transform="translate(0 210)" writing-mode="tb">Pre-deploy</text>
  <rect width="12" height="12" x="30" y="56" fill="#d97757" rx="2"/>
  <text x="46" y="66" fill="#141413" font-family="ui-monospace, monospace" font-size="9">分层防御卡点</text>
  <rect width="12" height="12" x="160" y="56" fill="#788c5d" rx="2"/>
  <text x="176" y="66" fill="#141413" font-family="ui-monospace, monospace" font-size="9">质量/审查卡点</text>
  <text x="664" y="174" fill="#87867f" font-family="ui-monospace, monospace" font-size="9" text-anchor="end">修复成本</text>
  <text x="664" y="188" fill="#d97757" font-family="ui-monospace, monospace" font-size="9" text-anchor="end">1x → 10x → 100x</text>
  <title>CI/CD AI 注入点全景图</title>
  <desc>
    12个AI验证卡点从代码提交到部署上线的全流程分布图，展示6个阶段与12个卡点的映射关系及防御层次
  </desc>
</svg>
