<svg xmlns="http://www.w3.org/2000/svg" aria-label="AI-Native SDLC 交付件生态系统" viewBox="0 0 900 480"><title>AI-Native SDLC 交付件模板生态</title><desc>展示8种交付件模板之间的关系、依赖与整体架构，以及与CI/CD和追溯矩阵的集成</desc><defs><marker id="biArr" markerHeight="6" markerWidth="6" orient="auto" refX="6" refY="3"><path fill="#d1cfc5" d="m0 0 6 3-6 3z"/></marker><filter id="sf3" width="120%" height="120%" x="-10%" y="-10%"><feDropShadow dx="0" dy="2" flood-color="#141413" flood-opacity=".1" stdDeviation="3"/></filter></defs><path fill="#faf9f5" d="M0 0h900v480H0z"/><text x="30" y="32" fill="#141413" font-family="system-ui,sans-serif" font-size="15" font-weight="700">AI-Native SDLC 交付件模板生态</text><text x="30" y="50" fill="#87867f" font-family="system-ui,sans-serif" font-size="10">从产品意图到运维手册的完整交付链路 · 模板间存在依赖关系</text><g filter="url(#sf3)"><ellipse cx="450" cy="240" fill="none" stroke="#e3dacc" stroke-dasharray="6,3" stroke-width="2" rx="200" ry="150"/><text x="450" y="230" fill="#141413" font-family="system-ui,sans-serif" font-size="12" font-weight="700" text-anchor="middle">追溯矩阵</text><text x="450" y="248" fill="#87867f" font-family="system-ui,sans-serif" font-size="10" text-anchor="middle">Traceability Matrix</text><text x="450" y="265" fill="#87867f" font-family="system-ui,sans-serif" font-size="9" text-anchor="middle">需求 ↔ 代码 ↔ 测试 ↔ 部署</text></g><g filter="url(#sf3)"><rect width="160" height="72" x="50" y="60" fill="#788c5d" rx="8"/><text x="130" y="85" fill="#faf9f5" font-family="system-ui,sans-serif" font-size="11" font-weight="700" text-anchor="middle">Product Intent</text><text x="130" y="102" fill="#faf9f5" font-family="system-ui,sans-serif" font-size="9" opacity=".85" text-anchor="middle">产品意图定义</text><text x="130" y="118" fill="#faf9f5" font-family="system-ui,sans-serif" font-size="8" opacity=".7" text-anchor="middle">PI-{id}</text></g><g filter="url(#sf3)"><rect width="160" height="72" x="370" y="50" fill="#d97757" rx="8"/><text x="450" y="75" fill="#faf9f5" font-family="system-ui,sans-serif" font-size="11" font-weight="700" text-anchor="middle">User Story Pack</text><text x="450" y="92" fill="#faf9f5" font-family="system-ui,sans-serif" font-size="9" opacity=".85" text-anchor="middle">用户故事包</text><text x="450" y="108" fill="#faf9f5" font-family="system-ui,sans-serif" font-size="8" opacity=".7" text-anchor="middle">USP-{id}</text></g><g filter="url(#sf3)"><rect width="160" height="72" x="690" y="60" fill="#141413" rx="8"/><text x="770" y="85" fill="#faf9f5" font-family="system-ui,sans-serif" font-size="11" font-weight="700" text-anchor="middle">Architecture Spec</text><text x="770" y="102" fill="#faf9f5" font-family="system-ui,sans-serif" font-size="9" opacity=".85" text-anchor="middle">架构规范</text><text x="770" y="118" fill="#faf9f5" font-family="system-ui,sans-serif" font-size="8" opacity=".7" text-anchor="middle">ARCH-{id}</text></g><g filter="url(#sf3)"><rect width="160" height="72" x="50" y="220" fill="#87867f" rx="8"/><text x="130" y="245" fill="#faf9f5" font-family="system-ui,sans-serif" font-size="11" font-weight="700" text-anchor="middle">Execution Plan</text><text x="130" y="262" fill="#faf9f5" font-family="system-ui,sans-serif" font-size="9" opacity=".85" text-anchor="middle">执行计划</text><text x="130" y="278" fill="#faf9f5" font-family="system-ui,sans-serif" font-size="8" opacity=".7" text-anchor="middle">EP-{id}</text></g><g filter="url(#sf3)"><rect width="160" height="72" x="690" y="220" fill="#d1cfc5" rx="8"/><text x="770" y="245" fill="#141413" font-family="system-ui,sans-serif" font-size="11" font-weight="700" text-anchor="middle">Quality Contract</text><text x="770" y="262" fill="#141413" font-family="system-ui,sans-serif" font-size="9" opacity=".85" text-anchor="middle">质量契约</text><text x="770" y="278" fill="#141413" font-family="system-ui,sans-serif" font-size="8" opacity=".7" text-anchor="middle">QC-{id}</text></g><g filter="url(#sf3)"><rect width="160" height="72" x="370" y="340" fill="#e3dacc" rx="8"/><text x="450" y="365" fill="#141413" font-family="system-ui,sans-serif" font-size="11" font-weight="700" text-anchor="middle">Operations Runbook</text><text x="450" y="382" fill="#141413" font-family="system-ui,sans-serif" font-size="9" opacity=".85" text-anchor="middle">运维手册</text><text x="450" y="398" fill="#141413" font-family="system-ui,sans-serif" font-size="8" opacity=".7" text-anchor="middle">ORB-{id}</text></g><path fill="none" stroke="#d1cfc5" stroke-width="1.5" marker-end="url(#biArr)" d="m210 96 90 64"/><path stroke="#d1cfc5" stroke-width="1.5" marker-end="url(#biArr)" d="M450 122v58"/><path fill="none" stroke="#d1cfc5" stroke-width="1.5" marker-end="url(#biArr)" d="m690 96-90 64"/><path stroke="#d1cfc5" stroke-width="1.5" marker-end="url(#biArr)" d="M210 256h110"/><path stroke="#d1cfc5" stroke-width="1.5" marker-end="url(#biArr)" d="M690 256H580"/><path stroke="#d1cfc5" stroke-width="1.5" marker-end="url(#biArr)" d="M450 340v-40"/><text x="250" y="125" fill="#87867f" font-family="system-ui,sans-serif" font-size="7">定义目标</text><text x="470" y="150" fill="#87867f" font-family="system-ui,sans-serif" font-size="7">细化需求</text><text x="630" y="125" fill="#87867f" font-family="system-ui,sans-serif" font-size="7">技术约束</text><text x="265" y="248" fill="#87867f" font-family="system-ui,sans-serif" font-size="7">执行计划</text><text x="605" y="248" fill="#87867f" font-family="system-ui,sans-serif" font-size="7">验证质量</text><text x="470" y="320" fill="#87867f" font-family="system-ui,sans-serif" font-size="7">运维保障</text><g filter="url(#sf3)"><rect width="200" height="45" x="30" y="420" fill="#faf9f5" stroke="#788c5d" stroke-width="1.5" rx="6"/><text x="45" y="440" fill="#788c5d" font-family="system-ui,sans-serif" font-size="10" font-weight="600">CI/CD 集成</text><text x="45" y="456" fill="#87867f" font-family="system-ui,sans-serif" font-size="9">自动验证 · Schema 检查 · 覆盖率报告</text></g><g filter="url(#sf3)"><rect width="200" height="45" x="670" y="420" fill="#faf9f5" stroke="#d97757" stroke-width="1.5" rx="6"/><text x="685" y="440" fill="#d97757" font-family="system-ui,sans-serif" font-size="10" font-weight="600">AI 辅助编写</text><text x="685" y="456" fill="#87867f" font-family="system-ui,sans-serif" font-size="9">Cursor Rules · 自动补全 · 验证检查</text></g><g transform="translate(260 420)"><rect width="10" height="10" fill="#788c5d" rx="2"/><text x="16" y="10" fill="#87867f" font-family="system-ui,sans-serif" font-size="8">业务层</text><rect width="10" height="10" x="70" fill="#d97757" rx="2"/><text x="86" y="10" fill="#87867f" font-family="system-ui,sans-serif" font-size="8">需求层</text><rect width="10" height="10" x="135" fill="#141413" rx="2"/><text x="151" y="10" fill="#87867f" font-family="system-ui,sans-serif" font-size="8">架构层</text><rect width="10" height="10" x="205" fill="#87867f" rx="2"/><text x="221" y="10" fill="#87867f" font-family="system-ui,sans-serif" font-size="8">执行层</text><rect width="10" height="10" x="275" fill="#d1cfc5" rx="2"/><text x="291" y="10" fill="#87867f" font-family="system-ui,sans-serif" font-size="8">质量层</text><rect width="10" height="10" x="345" fill="#e3dacc" rx="2"/><text x="361" y="10" fill="#87867f" font-family="system-ui,sans-serif" font-size="8">运维层</text></g></svg>