<svg xmlns="http://www.w3.org/2000/svg" font-family="system-ui,-apple-system,sans-serif" viewBox="0 0 860 480"><rect width="860" height="480" fill="#faf9f5" rx="12"/><text x="30" y="38" fill="#141413" font-size="15" font-weight="700">混合架构：长上下文 + RAG 分页 = 性能最优解</text><text x="30" y="56" fill="#87867f" font-size="11">纯长上下文（贵+慢）vs 纯RAG（丢连贯性）vs 分页RAG（快+准+省）</text><rect width="230" height="36" x="30" y="72" fill="#d1cfc5" stroke="#d1cfc5" stroke-width="1.5" opacity=".5" rx="8"/><text x="145" y="88" fill="#141413" font-size="11" font-weight="700" text-anchor="middle">❌ 纯长上下文</text><text x="145" y="102" fill="#87867f" font-size="10" text-anchor="middle">128K · 5s · $$$</text><rect width="230" height="36" x="280" y="72" fill="#d1cfc5" stroke="#d1cfc5" stroke-width="1.5" opacity=".5" rx="8"/><text x="395" y="88" fill="#141413" font-size="11" font-weight="700" text-anchor="middle">❌ 纯 RAG</text><text x="395" y="102" fill="#87867f" font-size="10" text-anchor="middle">top-10 · 2s · $</text><rect width="300" height="36" x="530" y="72" fill="#788c5d" stroke="#5a7347" stroke-width="1.5" rx="8"/><text x="680" y="88" fill="#faf9f5" font-size="11" font-weight="700" text-anchor="middle">✅ 分页 RAG（混合）</text><text x="680" y="102" fill="#faf9f5" font-size="10" text-anchor="middle">1.5s · $$ · 85%</text><rect width="140" height="40" x="30" y="136" fill="#141413" rx="8"/><text x="100" y="155" fill="#faf9f5" font-size="12" font-weight="700" text-anchor="middle">用户输入</text><text x="100" y="169" fill="#d1cfc5" font-size="10" text-anchor="middle">Query</text><path stroke="#87867f" stroke-width="2" marker-end="url(#arr2)" d="M170 156h40"/><defs><marker id="arr2" markerHeight="6" markerWidth="8" orient="auto" refX="7" refY="3"><path fill="#87867f" d="m0 0 8 3-8 3z"/></marker></defs><rect width="160" height="40" x="216" y="136" fill="#d97757" rx="8"/><text x="296" y="155" fill="#faf9f5" font-size="12" font-weight="700" text-anchor="middle">意图识别</text><text x="296" y="169" fill="#faf9f5" font-size="10" text-anchor="middle">需要哪些信息？</text><path stroke="#87867f" stroke-width="2" marker-end="url(#arr2)" d="M376 156h40"/><rect width="150" height="40" x="422" y="136" fill="#e3dacc" stroke="#d1cfc5" stroke-width="1.5" rx="8"/><text x="497" y="155" fill="#141413" font-size="12" font-weight="700" text-anchor="middle">工作集检查</text><text x="497" y="169" fill="#87867f" font-size="10" text-anchor="middle">已在上下文中？</text><path stroke="#788c5d" stroke-width="2" d="M497 176v24"/><path stroke="#788c5d" stroke-width="2" marker-end="url(#arr2)" d="M497 200h153"/><rect width="90" height="30" x="655" y="184" fill="#788c5d" rx="6"/><text x="700" y="203" fill="#faf9f5" font-size="11" font-weight="700" text-anchor="middle">✅ 直接使用</text><text x="700" y="216" fill="#788c5d" font-size="10" text-anchor="middle">零延迟</text><path stroke="#d97757" stroke-width="2" marker-end="url(#arr2)" d="M572 156h68"/><rect width="120" height="40" x="646" y="136" fill="#d97757" stroke="#d97757" stroke-width="1.5" opacity=".2" rx="8"/><text x="706" y="155" fill="#d97757" font-size="11" font-weight="700" text-anchor="middle">❌ 页错误</text><text x="706" y="169" fill="#87867f" font-size="10" text-anchor="middle">触发检索</text><path stroke="#d97757" stroke-dasharray="4,3" stroke-width="2" d="M706 176v76"/><rect width="140" height="40" x="636" y="260" fill="#d97757" rx="8"/><text x="706" y="279" fill="#faf9f5" font-size="12" font-weight="700" text-anchor="middle">向量检索</text><text x="706" y="293" fill="#faf9f5" font-size="10" text-anchor="middle">找到相关页</text><path stroke="#d97757" stroke-width="2" marker-end="url(#arr2)" d="M706 300v32"/><rect width="140" height="40" x="636" y="340" fill="#e3dacc" stroke="#d1cfc5" stroke-width="1.5" rx="8"/><text x="706" y="359" fill="#141413" font-size="11" font-weight="600" text-anchor="middle">加载到上下文</text><text x="706" y="373" fill="#87867f" font-size="10" text-anchor="middle">LRU 置换</text><path stroke="#87867f" stroke-width="2" d="M706 380v20m0 0H100"/><path stroke="#87867f" stroke-width="2" marker-end="url(#arr2)" d="M100 400v-14"/><rect width="140" height="40" x="30" y="360" fill="#788c5d" rx="8"/><text x="100" y="379" fill="#faf9f5" font-size="12" font-weight="700" text-anchor="middle">生成回答</text><text x="100" y="393" fill="#faf9f5" font-size="10" text-anchor="middle">上下文完整</text><path stroke="#788c5d" stroke-dasharray="4,3" stroke-width="1.5" d="M100 400v30"/><rect width="140" height="30" x="30" y="422" fill="#e3dacc" stroke="#d1cfc5" rx="6"/><text x="100" y="441" fill="#141413" font-size="10" text-anchor="middle">更新访问记录</text><path stroke="#788c5d" stroke-dasharray="4,3" stroke-width="1.5" d="M100 430h536m0 0v-60"/><path stroke="#788c5d" stroke-width="1.5" d="M636 370h10"/><text x="640" y="398" fill="#788c5d" font-size="9" text-anchor="middle" transform="rotate(-90 640 398)">预取信号</text><rect width="80" height="40" x="750" y="340" fill="#d1cfc5" rx="6"/><text x="790" y="356" fill="#141413" font-size="10" font-weight="600" text-anchor="middle">LRU</text><text x="790" y="370" fill="#141413" font-size="10" font-weight="600" text-anchor="middle">置换</text><path stroke="#87867f" stroke-dasharray="3,3" d="M776 360H636"/><rect width="80" height="280" x="750" y="136" fill="#e3dacc" stroke="#d1cfc5" stroke-width="1.5" rx="8"/><text x="790" y="155" fill="#141413" font-size="10" font-weight="700" text-anchor="middle">上下文</text><text x="790" y="168" fill="#141413" font-size="10" font-weight="700" text-anchor="middle">窗口</text><rect width="70" height="30" x="755" y="178" fill="#788c5d" rx="4"/><text x="790" y="197" fill="#faf9f5" font-size="9" font-weight="600" text-anchor="middle">常驻页</text><text x="790" y="208" fill="#faf9f5" font-size="8" text-anchor="middle">（工作集）</text><rect width="70" height="30" x="755" y="212" fill="#faf9f5" stroke="#d1cfc5" rx="4"/><text x="790" y="231" fill="#141413" font-size="9" font-weight="600" text-anchor="middle">当前页</text><rect width="70" height="30" x="755" y="246" fill="#faf9f5" stroke="#d1cfc5" rx="4"/><text x="790" y="265" fill="#87867f" font-size="9" font-weight="600" text-anchor="middle">可换出</text><rect width="70" height="30" x="755" y="280" fill="#faf9f5" stroke="#d1cfc5" rx="4"/><text x="790" y="299" fill="#87867f" font-size="9" font-weight="600" text-anchor="middle">LRU 候选</text><path stroke="#d97757" stroke-dasharray="3,3" stroke-width="1.5" d="M790 310v28"/><rect width="70" height="26" x="755" y="340" fill="#d97757" stroke="#d97757" opacity=".3" rx="4"/><text x="790" y="357" fill="#d97757" font-size="9" font-weight="600" text-anchor="middle">已换出</text><rect width="800" height="20" x="30" y="462" fill="#141413" rx="6"/><text x="430" y="476" fill="#faf9f5" font-size="10" text-anchor="middle">常用信息常驻（快）| 非常用信息按需加载（省）| 工作集跟踪保持连贯性（准）</text></svg>