<svg xmlns="http://www.w3.org/2000/svg" viewBox="0 0 900 540"><path fill="#faf9f5" d="M0 0h900v540H0z"/><defs><filter id="shadow" width="120%" height="120%" x="-10%" y="-10%"><feDropShadow dx="0" dy="2" flood-color="#141413" flood-opacity=".1" stdDeviation="4"/></filter></defs><text x="450" y="38" fill="#141413" font-family="system-ui, sans-serif" font-size="18" font-weight="700" text-anchor="middle">AISE 成熟度演进模型</text><text x="450" y="60" fill="#87867f" font-family="system-ui, sans-serif" font-size="12" text-anchor="middle">AISE Maturity Model — Five Levels of Organizational Evolution</text><g transform="translate(30 85)"><rect width="158" height="390" fill="#fff" stroke="#e3dacc" stroke-width="1.5" rx="10"/><rect width="158" height="50" fill="#d1cfc5" rx="10"/><path fill="#d1cfc5" d="M0 40h158v20H0z"/><text x="79" y="30" fill="#141413" font-family="system-ui, sans-serif" font-size="13" font-weight="700" text-anchor="middle">Level 1</text><text x="79" y="68" fill="#141413" font-family="system-ui, sans-serif" font-size="15" font-weight="700" text-anchor="middle">辅助</text><text x="79" y="86" fill="#87867f" font-family="system-ui, sans-serif" font-size="11" text-anchor="middle">Assisted</text><text x="12" y="116" fill="#87867f" font-family="system-ui, sans-serif" font-size="10">AI代码采纳率</text><text x="12" y="134" fill="#d97757" font-family="monospace" font-size="14" font-weight="700">10-30%</text><text x="12" y="162" fill="#87867f" font-family="system-ui, sans-serif" font-size="10">节省时间</text><text x="12" y="180" fill="#788c5d" font-family="monospace" font-size="14" font-weight="700">10-20%</text><path stroke="#e3dacc" d="M12 196h134"/><text x="12" y="216" fill="#141413" font-family="system-ui, sans-serif" font-size="10" font-weight="600">关键实践</text><text x="12" y="234" fill="#87867f" font-family="system-ui, sans-serif" font-size="9">• AI 智能代码补全</text><text x="12" y="250" fill="#87867f" font-family="system-ui, sans-serif" font-size="9">• 人工审查所有输出</text><text x="12" y="266" fill="#87867f" font-family="system-ui, sans-serif" font-size="9">• 偶尔 AI 生成文档</text><text x="12" y="282" fill="#87867f" font-family="system-ui, sans-serif" font-size="9">• 传统流程基本不变</text><path stroke="#e3dacc" d="M12 300h134"/><text x="12" y="320" fill="#141413" font-family="system-ui, sans-serif" font-size="10" font-weight="600">典型场景</text><text x="12" y="338" fill="#87867f" font-family="system-ui, sans-serif" font-size="9">IDE 插件辅助编码</text><text x="12" y="354" fill="#87867f" font-family="system-ui, sans-serif" font-size="9">文档自动生成</text><path stroke="#e3dacc" d="M12 372h134"/><text x="79" y="388" fill="#d1cfc5" font-family="system-ui, sans-serif" font-size="9" text-anchor="middle">★★★★★</text></g><path fill="none" stroke="#d1cfc5" stroke-width="2" d="M188 280h22"/><path fill="#d1cfc5" d="m210 280-6-4v8z"/><g transform="translate(220 85)"><rect width="158" height="390" fill="#fff" stroke="#e3dacc" stroke-width="1.5" rx="10"/><rect width="158" height="50" fill="#e3dacc" rx="10"/><path fill="#e3dacc" d="M0 40h158v20H0z"/><text x="79" y="30" fill="#141413" font-family="system-ui, sans-serif" font-size="13" font-weight="700" text-anchor="middle">Level 2</text><text x="79" y="68" fill="#141413" font-family="system-ui, sans-serif" font-size="15" font-weight="700" text-anchor="middle">增强</text><text x="79" y="86" fill="#87867f" font-family="system-ui, sans-serif" font-size="11" text-anchor="middle">Augmented</text><text x="12" y="116" fill="#87867f" font-family="system-ui, sans-serif" font-size="10">AI代码采纳率</text><text x="12" y="134" fill="#d97757" font-family="monospace" font-size="14" font-weight="700">30-50%</text><text x="12" y="162" fill="#87867f" font-family="system-ui, sans-serif" font-size="10">节省时间</text><text x="12" y="180" fill="#788c5d" font-family="monospace" font-size="14" font-weight="700">20-40%</text><path stroke="#e3dacc" d="M12 196h134"/><text x="12" y="216" fill="#141413" font-family="system-ui, sans-serif" font-size="10" font-weight="600">关键实践</text><text x="12" y="234" fill="#87867f" font-family="system-ui, sans-serif" font-size="9">• 结构化 Prompt 设计</text><text x="12" y="250" fill="#87867f" font-family="system-ui, sans-serif" font-size="9">• AI 参与代码审查</text><text x="12" y="266" fill="#87867f" font-family="system-ui, sans-serif" font-size="9">• 初步 Prompt 库积累</text><text x="12" y="282" fill="#87867f" font-family="system-ui, sans-serif" font-size="9">• 实验 AI 生成测试</text><path stroke="#e3dacc" d="M12 300h134"/><text x="12" y="320" fill="#141413" font-family="system-ui, sans-serif" font-size="10" font-weight="600">典型场景</text><text x="12" y="338" fill="#87867f" font-family="system-ui, sans-serif" font-size="9">Intent 表达初探</text><text x="12" y="354" fill="#87867f" font-family="system-ui, sans-serif" font-size="9">知识资产化启动</text><path stroke="#e3dacc" d="M12 372h134"/><text x="79" y="388" fill="#d1cfc5" font-family="system-ui, sans-serif" font-size="9" text-anchor="middle">★★★★</text></g><path fill="none" stroke="#d1cfc5" stroke-width="2" d="M378 280h22"/><path fill="#d1cfc5" d="m400 280-6-4v8z"/><g transform="translate(410 85)"><rect width="158" height="390" fill="#fff" stroke="#d97757" stroke-width="2.5" filter="url(#shadow)" rx="10"/><rect width="158" height="50" fill="#d97757" rx="10"/><path fill="#d97757" d="M0 40h158v20H0z"/><text x="79" y="30" fill="#fff" font-family="system-ui, sans-serif" font-size="13" font-weight="700" text-anchor="middle">Level 3 ★</text><text x="79" y="68" fill="#141413" font-family="system-ui, sans-serif" font-size="15" font-weight="700" text-anchor="middle">协作</text><text x="79" y="86" fill="#87867f" font-family="system-ui, sans-serif" font-size="11" text-anchor="middle">Collaborative</text><text x="79" y="102" fill="#d97757" font-family="system-ui, sans-serif" font-size="9" font-weight="600" text-anchor="middle">目标成熟度</text><text x="12" y="122" fill="#87867f" font-family="system-ui, sans-serif" font-size="10">AI代码采纳率</text><text x="12" y="140" fill="#d97757" font-family="monospace" font-size="14" font-weight="700">50-70%</text><text x="12" y="168" fill="#87867f" font-family="system-ui, sans-serif" font-size="10">节省时间</text><text x="12" y="186" fill="#788c5d" font-family="monospace" font-size="14" font-weight="700">40-60%</text><text x="12" y="212" fill="#87867f" font-family="system-ui, sans-serif" font-size="10">Prompt 库规模</text><text x="12" y="230" fill="#141413" font-family="monospace" font-size="14" font-weight="700">100-500</text><path stroke="#e3dacc" d="M12 246h134"/><text x="12" y="266" fill="#141413" font-family="system-ui, sans-serif" font-size="10" font-weight="600">关键实践</text><text x="12" y="284" fill="#87867f" font-family="system-ui, sans-serif" font-size="9">• Intent-Driven Dev</text><text x="12" y="300" fill="#87867f" font-family="system-ui, sans-serif" font-size="9">• 可执行 PRD</text><text x="12" y="316" fill="#87867f" font-family="system-ui, sans-serif" font-size="9">• 系统化 Context 管理</text><text x="12" y="332" fill="#87867f" font-family="system-ui, sans-serif" font-size="9">• 人机 SLA 定义</text><path stroke="#e3dacc" d="M12 350h134"/><text x="12" y="370" fill="#141413" font-family="system-ui, sans-serif" font-size="10" font-weight="600">典型场景</text><text x="12" y="386" fill="#87867f" font-family="system-ui, sans-serif" font-size="9">人机协作标准化</text></g><path fill="none" stroke="#d1cfc5" stroke-width="2" d="M568 280h22"/><path fill="#d1cfc5" d="m590 280-6-4v8z"/><g transform="translate(600 85)"><rect width="158" height="390" fill="#fff" stroke="#e3dacc" stroke-width="1.5" rx="10"/><rect width="158" height="50" fill="#788c5d" rx="10"/><path fill="#788c5d" d="M0 40h158v20H0z"/><text x="79" y="30" fill="#fff" font-family="system-ui, sans-serif" font-size="13" font-weight="700" text-anchor="middle">Level 4</text><text x="79" y="68" fill="#141413" font-family="system-ui, sans-serif" font-size="15" font-weight="700" text-anchor="middle">优化</text><text x="79" y="86" fill="#87867f" font-family="system-ui, sans-serif" font-size="11" text-anchor="middle">Optimized</text><text x="12" y="116" fill="#87867f" font-family="system-ui, sans-serif" font-size="10">AI代码采纳率</text><text x="12" y="134" fill="#d97757" font-family="monospace" font-size="14" font-weight="700">70-85%</text><text x="12" y="162" fill="#87867f" font-family="system-ui, sans-serif" font-size="10">自动化验证</text><text x="12" y="180" fill="#788c5d" font-family="monospace" font-size="14" font-weight="700">&gt;80%</text><text x="12" y="206" fill="#87867f" font-family="system-ui, sans-serif" font-size="10">交付效率提升</text><text x="12" y="224" fill="#141413" font-family="monospace" font-size="14" font-weight="700">3-5x</text><path stroke="#e3dacc" d="M12 240h134"/><text x="12" y="260" fill="#141413" font-family="system-ui, sans-serif" font-size="10" font-weight="600">关键实践</text><text x="12" y="278" fill="#87867f" font-family="system-ui, sans-serif" font-size="9">• Multi-Agent 协作</text><text x="12" y="294" fill="#87867f" font-family="system-ui, sans-serif" font-size="9">• 自动化意图验证</text><text x="12" y="310" fill="#87867f" font-family="system-ui, sans-serif" font-size="9">• 全面度量体系</text><text x="12" y="326" fill="#87867f" font-family="system-ui, sans-serif" font-size="9">• 预测性质量控制</text><path stroke="#e3dacc" d="M12 344h134"/><text x="12" y="364" fill="#141413" font-family="system-ui, sans-serif" font-size="10" font-weight="600">典型场景</text><text x="12" y="380" fill="#87867f" font-family="system-ui, sans-serif" font-size="9">Agent 自主子任务</text></g><path fill="none" stroke="#d1cfc5" stroke-width="2" d="M758 280h22"/><path fill="#d1cfc5" d="m780 280-6-4v8z"/><g transform="translate(790 85)"><rect width="100" height="390" fill="#fff" stroke="#e3dacc" stroke-width="1.5" rx="10"/><rect width="100" height="50" fill="#141413" rx="10"/><path fill="#141413" d="M0 40h100v20H0z"/><text x="50" y="30" fill="#fff" font-family="system-ui, sans-serif" font-size="12" font-weight="700" text-anchor="middle">Level 5</text><text x="50" y="68" fill="#141413" font-family="system-ui, sans-serif" font-size="14" font-weight="700" text-anchor="middle">自主</text><text x="50" y="84" fill="#87867f" font-family="system-ui, sans-serif" font-size="10" text-anchor="middle">Autonomous</text><text x="50" y="100" fill="#87867f" font-family="system-ui, sans-serif" font-size="9" text-anchor="middle">愿景</text><text x="10" y="124" fill="#87867f" font-family="system-ui, sans-serif" font-size="9">AI自主率</text><text x="10" y="142" fill="#d97757" font-family="monospace" font-size="12" font-weight="700">&gt;50%</text><text x="10" y="168" fill="#87867f" font-family="system-ui, sans-serif" font-size="9">人类聚焦</text><text x="10" y="186" fill="#788c5d" font-family="monospace" font-size="12" font-weight="700">&gt;80%</text><text x="10" y="212" fill="#87867f" font-family="system-ui, sans-serif" font-size="9">效能提升</text><text x="10" y="230" fill="#141413" font-family="monospace" font-size="12" font-weight="700">5-10x</text><path stroke="#e3dacc" d="M10 244h80"/><text x="10" y="264" fill="#141413" font-family="system-ui, sans-serif" font-size="9" font-weight="600">关键实践</text><text x="10" y="280" fill="#87867f" font-family="system-ui, sans-serif" font-size="8">• AI 主导架构设计</text><text x="10" y="294" fill="#87867f" font-family="system-ui, sans-serif" font-size="8">• 自动化需求分析</text><text x="10" y="308" fill="#87867f" font-family="system-ui, sans-serif" font-size="8">• 自进化系统</text><text x="10" y="322" fill="#87867f" font-family="system-ui, sans-serif" font-size="8">• 战略级人机协作</text><path stroke="#e3dacc" d="M10 338h80"/><text x="10" y="358" fill="#141413" font-family="system-ui, sans-serif" font-size="9" font-weight="600">典型场景</text><text x="10" y="374" fill="#87867f" font-family="system-ui, sans-serif" font-size="8">AI 主导开发</text><text x="10" y="388" fill="#87867f" font-family="system-ui, sans-serif" font-size="8">人类专注治理</text></g><path stroke="#e3dacc" d="M40 492h820"/><text x="450" y="512" fill="#87867f" font-family="system-ui, sans-serif" font-size="10" text-anchor="middle">Level 3 是大多数组织的现实目标 · Level 4 是先进组织的目标 · Level 5 是长期愿景</text><text x="450" y="530" fill="#d97757" font-family="system-ui, sans-serif" font-size="10" text-anchor="middle">★ 当前技术和组织准备度下，建议大多数组织瞄准 Level 3-4</text></svg>