<svg xmlns="http://www.w3.org/2000/svg" font-family="ui-serif, Georgia, serif" viewBox="0 0 600 420">
  <path fill="#faf9f5" d="M0 0h600v420H0z"/>
  <text x="300" y="26" fill="#141413" font-size="14" font-weight="500" letter-spacing="-.02em" text-anchor="middle">会话摘要金字塔 — 分层存储与检索</text>
  <text x="300" y="42" fill="#87867f" font-family="ui-monospace, monospace" font-size="10" text-anchor="middle">AI-Native Engineering · 2025/01/12</text>
  <path fill="#fff" stroke="#d97757" stroke-width="1.8" d="m300 62-80 58h160z"/>
  <text x="300" y="97" fill="#d97757" font-family="ui-monospace, monospace" font-size="12" font-weight="600" text-anchor="middle">顶层 · 历史总摘要</text>
  <text x="300" y="112" fill="#87867f" font-size="9.5" text-anchor="middle">总览 · 低频更新</text>
  <path fill="#fff" stroke="#d1cfc5" stroke-width="1.8" d="m220 124-60 62h280l-60-62z"/>
  <text x="300" y="160" fill="#788c5d" font-family="ui-monospace, monospace" font-size="12" font-weight="600" text-anchor="middle">中层 · 过去20个会话合并摘要</text>
  <text x="300" y="175" fill="#87867f" font-size="9.5" text-anchor="middle">合并 · 中频更新</text>
  <path fill="#fff" stroke="#d1cfc5" stroke-width="1.8" d="m160 190-80 72h440l-80-72z"/>
  <text x="300" y="224" fill="#141413" font-family="ui-monospace, monospace" font-size="12" font-weight="600" text-anchor="middle">底层 · 最近5个会话详细摘要</text>
  <text x="300" y="240" fill="#87867f" font-size="9.5" text-anchor="middle">详细 · 高频更新</text>
  <rect width="130" height="160" x="450" y="90" fill="#fff" stroke="#d1cfc5" stroke-width="1.5" rx="8"/>
  <text x="515" y="110" fill="#141413" font-family="ui-monospace, monospace" font-size="10" font-weight="600" text-anchor="middle">检索顺序</text>
  <rect width="106" height="28" x="462" y="120" fill="#faf9f5" stroke="#d97757" stroke-width="1.5" rx="6"/>
  <text x="515" y="138" fill="#d97757" font-family="ui-monospace, monospace" font-size="10" text-anchor="middle">1. 底层 → 细节准确</text>
  <path stroke="#d1cfc5" stroke-width="1.5" d="M515 148v9"/>
  <path fill="#d1cfc5" d="m515 161-4-8h8z"/>
  <rect width="106" height="28" x="462" y="165" fill="#faf9f5" stroke="#788c5d" stroke-width="1.5" rx="6"/>
  <text x="515" y="183" fill="#788c5d" font-family="ui-monospace, monospace" font-size="10" text-anchor="middle">2. 中层 → 近期上下文</text>
  <path stroke="#d1cfc5" stroke-width="1.5" d="M515 193v9"/>
  <path fill="#d1cfc5" d="m515 206-4-8h8z"/>
  <rect width="106" height="28" x="462" y="210" fill="#faf9f5" stroke="#87867f" stroke-width="1.5" rx="6"/>
  <text x="515" y="228" fill="#87867f" font-family="ui-monospace, monospace" font-size="10" text-anchor="middle">3. 顶层 → 背景知识</text>
  <text x="60" y="130" fill="#87867f" font-family="ui-monospace, monospace" font-size="9">长期</text>
  <text x="60" y="205" fill="#87867f" font-family="ui-monospace, monospace" font-size="9">中期</text>
  <text x="60" y="270" fill="#87867f" font-family="ui-monospace, monospace" font-size="9">短期</text>
  <text x="170" y="290" fill="#d97757" font-family="ui-monospace, monospace" font-size="9" text-anchor="middle">总览</text>
  <text x="300" y="290" fill="#788c5d" font-family="ui-monospace, monospace" font-size="9" text-anchor="middle">合并</text>
  <text x="430" y="290" fill="#141413" font-family="ui-monospace, monospace" font-size="9" text-anchor="middle">详细</text>
  <text x="300" y="390" fill="#87867f" font-family="ui-monospace, monospace" font-size="9" text-anchor="middle">不存储完整对话，存储分层摘要</text>
</svg>
