<svg xmlns="http://www.w3.org/2000/svg" font-family="system-ui, -apple-system, sans-serif" viewBox="0 0 900 520">
  <defs>
    <linearGradient id="bg" x1="0%" x2="100%" y1="0%" y2="100%">
      <stop offset="0%" style="stop-color:#faf9f5"/>
      <stop offset="100%" style="stop-color:#e3dacc"/>
    </linearGradient>
    <filter id="shadow" width="140%" height="140%" x="-20%" y="-20%">
      <feDropShadow dx="2" dy="3" flood-color="#141413" flood-opacity=".15" stdDeviation="4"/>
    </filter>
  </defs>
  <rect width="900" height="520" fill="url(#bg)" rx="12"/>
  <text x="450" y="42" fill="#141413" font-size="20" font-weight="700" text-anchor="middle">Clinejection 攻击链：五步沦陷</text>
  <text x="450" y="64" fill="#87867f" font-size="12" text-anchor="middle">从提交 Issue 到生产环境沦陷的全过程</text>
  <g filter="url(#shadow)" transform="translate(50 100)">
    <rect width="140" height="160" fill="#faf9f5" stroke="#d1cfc5" stroke-width="1.5" rx="8"/>
    <rect width="140" height="32" fill="#d97757" rx="8" ry="0"/>
    <path fill="#d97757" d="M0 24h140v8H0z"/>
    <text x="70" y="21" fill="#faf9f5" font-size="13" font-weight="600" text-anchor="middle">Step 1</text>
    <text x="70" y="60" fill="#141413" font-size="13" font-weight="700" text-anchor="middle">侦察与目标选择</text>
    <text x="70" y="82" fill="#87867f" font-size="10" text-anchor="middle">分析 CI/CD 配置</text>
    <text x="70" y="98" fill="#87867f" font-size="10" text-anchor="middle">识别权限漏洞</text>
    <text x="70" y="114" fill="#87867f" font-size="10" text-anchor="middle">寻找攻击入口</text>
    <text x="70" y="140" fill="#d97757" font-size="10" font-weight="600" text-anchor="middle">allowedTools: Bash,Read,Write</text>
  </g>
  <path fill="none" stroke="#d97757" stroke-width="2" marker-end="url(#arrow)" d="M195 180h40"/>
  <defs>
    <marker id="arrow" markerHeight="10" markerWidth="10" orient="auto" refX="9" refY="3">
      <path fill="#d97757" d="M0 0v6l9-3z"/>
    </marker>
  </defs>
  <g filter="url(#shadow)" transform="translate(245 100)">
    <rect width="140" height="160" fill="#faf9f5" stroke="#d1cfc5" stroke-width="1.5" rx="8"/>
    <rect width="140" height="32" fill="#d97757" rx="8" ry="0"/>
    <path fill="#d97757" d="M0 24h140v8H0z"/>
    <text x="70" y="21" fill="#faf9f5" font-size="13" font-weight="600" text-anchor="middle">Step 2</text>
    <text x="70" y="60" fill="#141413" font-size="13" font-weight="700" text-anchor="middle">构造恶意 Payload</text>
    <text x="70" y="82" fill="#87867f" font-size="10" text-anchor="middle">Prompt Injection</text>
    <text x="70" y="98" fill="#87867f" font-size="10" text-anchor="middle">越狱指令注入</text>
    <text x="70" y="114" fill="#87867f" font-size="10" text-anchor="middle">恶意 workflow 创建</text>
    <text x="70" y="140" fill="#d97757" font-size="10" font-weight="600" text-anchor="middle">Disregard all instructions</text>
  </g>
  <path fill="none" stroke="#d97757" stroke-width="2" d="M390 180h40"/>
  <g filter="url(#shadow)" transform="translate(440 100)">
    <rect width="140" height="160" fill="#faf9f5" stroke="#d1cfc5" stroke-width="1.5" rx="8"/>
    <rect width="140" height="32" fill="#d97757" rx="8" ry="0"/>
    <path fill="#d97757" d="M0 24h140v8H0z"/>
    <text x="70" y="21" fill="#faf9f5" font-size="13" font-weight="600" text-anchor="middle">Step 3</text>
    <text x="70" y="60" fill="#141413" font-size="13" font-weight="700" text-anchor="middle">触发 AI 执行</text>
    <text x="70" y="82" fill="#87867f" font-size="10" text-anchor="middle">提交恶意 Issue</text>
    <text x="70" y="98" fill="#87867f" font-size="10" text-anchor="middle">AI 接收并执行</text>
    <text x="70" y="114" fill="#87867f" font-size="10" text-anchor="middle">无边界区分能力</text>
    <text x="70" y="140" fill="#d97757" font-size="10" font-weight="600" text-anchor="middle">AI 误判为合法指令</text>
  </g>
  <path fill="none" stroke="#d97757" stroke-width="2" d="M585 180h40"/>
  <g filter="url(#shadow)" transform="translate(635 100)">
    <rect width="140" height="160" fill="#faf9f5" stroke="#d1cfc5" stroke-width="1.5" rx="8"/>
    <rect width="140" height="32" fill="#d97757" rx="8" ry="0"/>
    <path fill="#d97757" d="M0 24h140v8H0z"/>
    <text x="70" y="21" fill="#faf9f5" font-size="13" font-weight="600" text-anchor="middle">Step 4</text>
    <text x="70" y="60" fill="#141413" font-size="13" font-weight="700" text-anchor="middle">权限升级与持久化</text>
    <text x="70" y="82" fill="#87867f" font-size="10" text-anchor="middle">创建恶意 workflow</text>
    <text x="70" y="98" fill="#87867f" font-size="10" text-anchor="middle">git push 推送代码</text>
    <text x="70" y="114" fill="#87867f" font-size="10" text-anchor="middle">建立持久化通道</text>
    <text x="70" y="140" fill="#d97757" font-size="10" font-weight="600" text-anchor="middle">每次 push 都触发</text>
  </g>
  <path fill="none" stroke="#d97757" stroke-width="2" d="M780 180h30v120"/>
  <g filter="url(#shadow)" transform="translate(635 310)">
    <rect width="140" height="160" fill="#faf9f5" stroke="#d97757" stroke-width="2" rx="8"/>
    <rect width="140" height="32" fill="#788c5d" rx="8" ry="0"/>
    <path fill="#788c5d" d="M0 24h140v8H0z"/>
    <text x="70" y="21" fill="#faf9f5" font-size="13" font-weight="600" text-anchor="middle">Step 5</text>
    <text x="70" y="60" fill="#141413" font-size="13" font-weight="700" text-anchor="middle">生产环境沦陷</text>
    <text x="70" y="82" fill="#87867f" font-size="10" text-anchor="middle">植入后门代码</text>
    <text x="70" y="98" fill="#87867f" font-size="10" text-anchor="middle">窃取敏感数据</text>
    <text x="70" y="114" fill="#87867f" font-size="10" text-anchor="middle">恶意 release 发布</text>
    <text x="70" y="140" fill="#788c5d" font-size="10" font-weight="600" text-anchor="middle">供应链完全沦陷</text>
  </g>
  <g transform="translate(50 310)">
    <rect width="565" height="160" fill="#faf9f5" stroke="#d1cfc5" stroke-width="1.5" rx="8"/>
    <text x="20" y="30" fill="#141413" font-size="14" font-weight="700">攻击成本分析</text>
    <text x="20" y="55" fill="#87867f" font-size="11">传统供应链攻击：</text>
    <text x="30" y="75" fill="#87867f" font-size="11">• 长期积累信任成为维护者</text>
    <text x="30" y="92" fill="#87867f" font-size="11">• 发现复杂代码漏洞</text>
    <text x="30" y="109" fill="#87867f" font-size="11">• 社会工程维护者</text>
    <text x="20" y="135" fill="#d97757" font-size="11" font-weight="600">Clinejection 攻击：只需一个 GitHub 账号</text>
    <text x="30" y="153" fill="#87867f" font-size="11">提交一个 Issue，等待 AI 自动执行 → 攻击成本接近零</text>
  </g>
  <text x="450" y="500" fill="#87867f" font-size="10" text-anchor="middle">攻击复杂度：极低 | 影响范围：所有使用 AI Issue Triager 的公开仓库</text>
</svg>
