<svg xmlns="http://www.w3.org/2000/svg" font-family="system-ui, -apple-system, sans-serif" viewBox="0 0 800 440">
  <defs>
    <style>
      .label-sm{fill:#141413;font-size:11px;font-weight:500}.desc{fill:#87867f;font-size:11px}.desc-white{fill:rgba(255,255,255,.85);font-size:11px}.white{fill:#fff}.accent-clay{fill:#d97757}
    </style>
  </defs>
  <path d="M0 0h800v440H0z" style="fill:#faf9f5"/>
  <text x="40" y="38" style="fill:#141413;font-size:20px;font-weight:700">GDPR / 个保法 Checklist 自动化流程</text>
  <text x="40" y="58" style="fill:#87867f;font-size:12px">AI 分析需求文档，自动匹配适用法规条款，生成合规检查清单</text>
  <rect width="160" height="120" x="40" y="90" fill="#e3dacc" rx="10"/>
  <rect width="160" height="120" x="40" y="90" fill="none" stroke="#d1cfc5" stroke-width="1.5" rx="10"/>
  <circle cx="62" cy="116" r="14" fill="#141413"/>
  <text x="62" y="121" class="label-sm white" text-anchor="middle">1</text>
  <text x="76" y="120" class="label-sm">PRD 输入</text>
  <text x="52" y="138" class="desc">产品需求文档</text>
  <text x="52" y="154" class="desc">包含：</text>
  <text x="52" y="170" class="desc">• 用户注册功能</text>
  <text x="52" y="186" class="desc">• 收集身份证、手机号</text>
  <text x="52" y="202" class="desc">• 存储于 AWS 美国区</text>
  <path stroke="#d97757" stroke-width="2" marker-end="url(#arrowRed)" d="M200 150h25"/>
  <rect width="160" height="120" x="235" y="90" fill="#d97757" rx="10"/>
  <circle cx="257" cy="116" r="14" fill="#faf9f5"/>
  <text x="257" y="121" class="label-sm accent-clay" text-anchor="middle">2</text>
  <text x="271" y="120" class="label-sm white">AI 分析</text>
  <text x="247" y="138" class="desc-white">数据收集点提取</text>
  <text x="247" y="154" class="desc-white">数据处理活动分析</text>
  <text x="247" y="170" class="desc-white">数据分享场景识别</text>
  <text x="247" y="186" class="desc-white">适用法规匹配</text>
  <text x="247" y="202" class="desc-white">GDPR · 个保法 · CCPA</text>
  <path stroke="#d97757" stroke-width="2" d="M395 150h25"/>
  <rect width="160" height="120" x="430" y="90" fill="#faf9f5" stroke="#d1cfc5" stroke-width="1.5" rx="10"/>
  <circle cx="452" cy="116" r="14" fill="#788c5d"/>
  <text x="452" y="121" class="label-sm white" text-anchor="middle">3</text>
  <text x="466" y="120" class="label-sm">自动化 Checklist</text>
  <text x="442" y="138" class="desc">☑ GDPR-001 明确同意</text>
  <text x="442" y="154" class="desc">☑ PIPL-001 单独同意</text>
  <text x="442" y="170" class="desc">☑ PIPL-003 数据境内存储</text>
  <text x="442" y="186" class="desc accent-clay">☐ PIPL-002 影响评估</text>
  <text x="442" y="202" class="desc">待处理项：1</text>
  <path stroke="#d97757" stroke-width="2" d="M590 150h25"/>
  <rect width="140" height="120" x="625" y="90" fill="#141413" rx="10"/>
  <circle cx="647" cy="116" r="14" fill="#d97757"/>
  <text x="647" y="121" class="label-sm white" text-anchor="middle">4</text>
  <text x="661" y="120" class="label-sm white">合规报告</text>
  <text x="637" y="138" class="desc-white">风险：HIGH × 1</text>
  <text x="637" y="154" class="desc-white">风险：CRITICAL × 1</text>
  <text x="637" y="170" class="desc-white">风险：MEDIUM × 1</text>
  <text x="637" y="186" class="desc-white">合规建议：已生成</text>
  <text x="637" y="202" class="desc-white">→ PbD 方案</text>
  <text x="40" y="244" style="fill:#141413;font-size:13px;font-weight:600">GDPR 与个保法关键条款对照</text>
  <rect width="720" height="28" x="40" y="258" fill="#141413" rx="6"/>
  <text x="56" y="276" class="label-sm white">维度</text>
  <text x="170" y="276" class="label-sm white">GDPR（欧盟）</text>
  <text x="420" y="276" class="label-sm white">个保法（中国）</text>
  <text x="630" y="276" class="label-sm white">差异</text>
  <rect width="720" height="42" x="40" y="290" fill="#e3dacc" rx="0"/>
  <rect width="720" height="42" x="40" y="290" fill="#e3dacc" rx="6"/>
  <path fill="none" stroke="#d1cfc5" d="M40 290h720v42H40z"/>
  <text x="56" y="314" class="label-sm">同意机制</text>
  <text x="170" y="310" class="desc">明确同意（Opt-in）</text>
  <text x="170" y="326" class="desc">单独同意（敏感信息）</text>
  <text x="420" y="310" class="desc">告知-同意原则</text>
  <text x="420" y="326" class="desc">敏感信息需单独同意</text>
  <rect width="120" height="30" x="630" y="296" fill="#788c5d" rx="4"/>
  <text x="690" y="314" class="label-sm white" text-anchor="middle">相似 ✓</text>
  <rect width="720" height="42" x="40" y="334" fill="#faf9f5" stroke="#d1cfc5" rx="6"/>
  <text x="56" y="358" class="label-sm">跨境传输</text>
  <text x="170" y="354" class="desc">充分性认定 / SCC</text>
  <text x="170" y="370" class="desc">Chapter V 完整规范</text>
  <text x="420" y="354" class="desc">安全评估 / 标准合同</text>
  <text x="420" y="370" class="desc">个保法第 38 条</text>
  <rect width="120" height="30" x="630" y="340" fill="#d97757" rx="4"/>
  <text x="690" y="358" class="label-sm white" text-anchor="middle">需衔接</text>
  <rect width="720" height="42" x="40" y="378" fill="#e3dacc" rx="6"/>
  <rect width="720" height="42" x="40" y="378" fill="#e3dacc" stroke="#d1cfc5" rx="6"/>
  <text x="56" y="402" class="label-sm">特殊类型数据</text>
  <text x="170" y="398" class="desc">特殊类别数据</text>
  <text x="170" y="414" class="desc">Art. 9 明示禁止</text>
  <text x="420" y="398" class="desc">敏感个人信息</text>
  <text x="420" y="414" class="desc">第 28 条高标准保护</text>
  <rect width="120" height="30" x="630" y="384" fill="#e3dacc" stroke="#d1cfc5" rx="4"/>
  <text x="690" y="402" class="label-sm" text-anchor="middle">范围略有不同</text>
  <text x="40" y="432" class="desc">AI 自动识别需求中涉及的法规条款，生成检查清单并标记需人工审批的项目</text>
  <text x="700" y="432" class="desc">AI-Native 软件工程系列 #47</text>
  <defs>
    <marker id="arrowRed" markerHeight="8" markerWidth="8" orient="auto" refX="6" refY="3">
      <path fill="#d97757" d="M0 0v6l8-3z"/>
    </marker>
  </defs>
</svg>
