<svg xmlns="http://www.w3.org/2000/svg" font-family="ui-serif, Georgia, 'Times New Roman', serif" viewBox="0 0 560 480"><path fill="#faf9f5" d="M0 0h560v480H0z"/><text x="280" y="26" fill="#141413" font-size="14" font-weight="500" letter-spacing="-.02em" text-anchor="middle">代码敏感度分级金字塔</text><text x="280" y="42" fill="#87867f" font-family="ui-monospace, monospace" font-size="10" text-anchor="middle">混合云 AI 编程架构 · 2025/05/16</text><path fill="#d97757" stroke="#141413" stroke-width="1.5" d="m280 64-90 70h180z"/><text x="280" y="90" fill="#fff" font-family="ui-monospace, monospace" font-size="12" font-weight="600" text-anchor="middle">L4 核心代码</text><text x="280" y="106" fill="#fff" font-size="10" text-anchor="middle">Critical</text><text x="280" y="122" fill="#f5e6e0" font-size="9" text-anchor="middle">加密算法 · 交易引擎 · 密钥管理</text><text x="210" y="100" fill="#f5e6e0" font-family="ui-monospace, monospace" font-size="10">&lt;/&gt;</text><rect width="54" height="18" x="375" y="88" fill="#f5e6e0" rx="9"/><text x="402" y="101" fill="#d97757" font-family="ui-monospace, monospace" font-size="9" text-anchor="middle">纯本地</text><path fill="#788c5d" stroke="#141413" stroke-width="1.5" d="m190 140-70 80h320l-70-80z"/><text x="280" y="168" fill="#fff" font-family="ui-monospace, monospace" font-size="12" font-weight="600" text-anchor="middle">L3 敏感代码</text><text x="280" y="184" fill="#fff" font-size="10" text-anchor="middle">Sensitive</text><text x="280" y="200" fill="#e8ede3" font-size="9" text-anchor="middle">业务逻辑 · 用户权限 · 订单流程</text><text x="140" y="178" fill="#e8ede3" font-family="ui-monospace, monospace" font-size="10">&lt;/&gt;</text><rect width="54" height="18" x="446" y="168" fill="#e8ede3" rx="9"/><text x="473" y="181" fill="#788c5d" font-family="ui-monospace, monospace" font-size="9" text-anchor="middle">本地+云端</text><path fill="#fff" stroke="#d1cfc5" stroke-width="1.5" d="m120 226-60 90h440l-60-90z"/><text x="280" y="258" fill="#141413" font-family="ui-monospace, monospace" font-size="12" font-weight="600" text-anchor="middle">L2 内部代码</text><text x="280" y="274" fill="#87867f" font-size="10" text-anchor="middle">Internal</text><text x="280" y="290" fill="#87867f" font-size="9" text-anchor="middle">脚手架 · 日志 · 配置解析</text><text x="82" y="268" fill="#87867f" font-family="ui-monospace, monospace" font-size="10">&lt;/&gt;</text><rect width="46" height="18" x="502" y="258" fill="#f0eee6" stroke="#d1cfc5" rx="9"/><text x="525" y="271" fill="#87867f" font-family="ui-monospace, monospace" font-size="9" text-anchor="middle">云端</text><path fill="#fff" stroke="#d1cfc5" stroke-width="1.5" d="M60 322 0 420h560l-60-98z"/><text x="280" y="358" fill="#141413" font-family="ui-monospace, monospace" font-size="12" font-weight="600" text-anchor="middle">L1 公开代码</text><text x="280" y="374" fill="#87867f" font-size="10" text-anchor="middle">Public</text><text x="280" y="390" fill="#87867f" font-size="9" text-anchor="middle">开源工具 · 标准库 · 通用算法</text><text x="22" y="368" fill="#87867f" font-family="ui-monospace, monospace" font-size="10">&lt;/&gt;</text><rect width="46" height="18" x="502" y="358" fill="#f0eee6" stroke="#d1cfc5" rx="9"/><text x="525" y="371" fill="#87867f" font-family="ui-monospace, monospace" font-size="9" text-anchor="middle">云端</text><path stroke="#d1cfc5" stroke-dasharray="4,4" d="M480 68v344" opacity=".5"/><text x="280" y="470" fill="#87867f" font-family="ui-monospace, monospace" font-size="9" text-anchor="middle">混合云 AI 编程架构 · 2025/05/16</text></svg>