<svg xmlns="http://www.w3.org/2000/svg" font-family="ui-serif, Georgia, serif" viewBox="0 0 560 300"><path fill="#faf9f5" d="M0 0h560v300H0z"/><text x="280" y="20" fill="#141413" font-size="13" font-weight="500" letter-spacing="-.02em" text-anchor="middle">Quality Contract · 四层契约体系</text><text x="280" y="36" fill="#87867f" font-family="ui-monospace, monospace" font-size="9.5" text-anchor="middle">postcodeengineering.com · 2025/04/23</text><rect width="480" height="52" x="40" y="50" fill="#f0eee6" stroke="#d97757" stroke-width="1.8" rx="6"/><text x="60" y="72" fill="#d97757" font-family="ui-monospace, monospace" font-size="10" font-weight="600">Layer 4</text><text x="110" y="72" fill="#141413" font-size="13" font-weight="600">Compliance Contract · 合规契约</text><text x="60" y="90" fill="#87867f" font-size="10">GDPR · SOC2 · 行业监管 · 法律合规</text><rect width="18" height="18" x="490" y="64" fill="#d97757" rx="9"/><text x="499" y="77" fill="#fff" font-family="ui-monospace, monospace" font-size="9" text-anchor="middle">L4</text><path stroke="#d1cfc5" stroke-width="1.5" d="M280 102v12"/><path fill="#d1cfc5" d="m276 114 4 8 4-8z"/><rect width="480" height="52" x="40" y="122" fill="#fff" stroke="#ea580c" stroke-width="1.5" rx="6"/><text x="60" y="144" fill="#ea580c" font-family="ui-monospace, monospace" font-size="10" font-weight="600">Layer 3</text><text x="110" y="144" fill="#141413" font-size="13" font-weight="600">Security Contract · 安全契约</text><text x="60" y="162" fill="#87867f" font-size="10">OWASP Top 10 · 渗透测试 · 漏洞扫描 · 权限验证</text><rect width="18" height="18" x="490" y="136" fill="#ea580c" rx="9"/><text x="499" y="149" fill="#fff" font-family="ui-monospace, monospace" font-size="9" text-anchor="middle">L3</text><path stroke="#d1cfc5" stroke-width="1.5" d="M280 174v12"/><path fill="#d1cfc5" d="m276 186 4 8 4-8z"/><rect width="480" height="52" x="40" y="194" fill="#fff" stroke="#2563eb" stroke-width="1.5" rx="6"/><text x="60" y="216" fill="#2563eb" font-family="ui-monospace, monospace" font-size="10" font-weight="600">Layer 2</text><text x="110" y="216" fill="#141413" font-size="13" font-weight="600">Performance Contract · 性能契约</text><text x="60" y="234" fill="#87867f" font-size="10">响应时间 · 吞吐量 · 资源占用 · 扩展性基准</text><rect width="18" height="18" x="490" y="208" fill="#2563eb" rx="9"/><text x="499" y="221" fill="#fff" font-family="ui-monospace, monospace" font-size="9" text-anchor="middle">L2</text><path stroke="#d1cfc5" stroke-width="1.5" d="M280 246v12"/><path fill="#d1cfc5" d="m276 258 4 8 4-8z"/><rect width="480" height="28" x="40" y="266" fill="#fff" stroke="#059669" stroke-width="1.5" rx="6"/><text x="60" y="283" fill="#059669" font-family="ui-monospace, monospace" font-size="10" font-weight="600">Layer 1</text><text x="110" y="283" fill="#141413" font-size="11" font-weight="600">Functional Contract · 功能契约</text><text x="340" y="283" fill="#87867f" font-size="10">输入输出正确性 · 业务规则 · API 契约</text><rect width="18" height="18" x="490" y="272" fill="#059669" rx="9"/><text x="499" y="285" fill="#fff" font-family="ui-monospace, monospace" font-size="9" text-anchor="middle">L1</text><text x="280" y="296" fill="#87867f" font-size="9" font-style="italic" text-anchor="middle">每层契约独立验证，失败则阻止进入上层——契约即测试</text></svg>