<svg xmlns="http://www.w3.org/2000/svg" font-family="ui-serif, Georgia, serif" viewBox="0 0 560 240">
  <path fill="#faf9f5" d="M0 0h560v240H0z"/>
  <text x="280" y="20" fill="#141413" font-size="13" font-weight="500" letter-spacing="-.02em" text-anchor="middle">语义 Diff 三层能力</text>
  <text x="280" y="36" fill="#87867f" font-family="ui-monospace, monospace" font-size="9.5" text-anchor="middle">postcodeengineering.com · 2025/04/24</text>
  <rect width="150" height="162" x="20" y="54" fill="#fff" stroke="#d1cfc5" stroke-width="1.5" rx="8"/>
  <rect width="150" height="28" x="20" y="54" fill="#f0eee6" stroke="#d1cfc5" stroke-width="1.5" rx="8"/>
  <text x="95" y="73" fill="#87867f" font-size="10" font-weight="600" text-anchor="middle">传统 Text Diff</text>
  <text x="95" y="96" fill="#87867f" font-size="10" text-anchor="middle">- 语义变更</text>
  <text x="95" y="110" fill="#87867f" font-size="10" text-anchor="middle">- 重构 = 全删重写</text>
  <text x="95" y="124" fill="#87867f" font-size="10" text-anchor="middle">- 变量名改 = 全变</text>
  <text x="95" y="138" fill="#87867f" font-size="10" text-anchor="middle">- 注释改 = 变更</text>
  <text x="95" y="160" fill="#d97757" font-size="9" font-weight="600" text-anchor="middle">只看到字，不懂意</text>
  <path stroke="#d97757" stroke-width="2" d="M175 135h30"/>
  <path fill="#d97757" d="m205 131-6 4 6 4z"/>
  <text x="190" y="128" fill="#d97757" font-family="ui-monospace, monospace" font-size="8.5" text-anchor="middle">演进</text>
  <rect width="330" height="162" x="210" y="54" fill="#fff" stroke="#d97757" stroke-width="1.8" rx="8"/>
  <text x="375" y="74" fill="#d97757" font-size="11" font-weight="600" text-anchor="middle">语义 Diff 三层能力</text>
  <rect width="298" height="40" x="226" y="88" fill="#fef3c7" stroke="#d97757" rx="6"/>
  <text x="242" y="106" fill="#d97757" font-family="ui-monospace, monospace" font-size="10" font-weight="600">L1</text>
  <text x="262" y="106" fill="#141413" font-size="11" font-weight="600">AST-level Diff</text>
  <text x="242" y="120" fill="#87867f" font-size="9.5">语法树级别对比：变量重命名=无变更，重构=语义等价</text>
  <rect width="298" height="40" x="226" y="134" fill="#dbeafe" stroke="#2563eb" rx="6"/>
  <text x="242" y="152" fill="#2563eb" font-family="ui-monospace, monospace" font-size="10" font-weight="600">L2</text>
  <text x="262" y="152" fill="#141413" font-size="11" font-weight="600">Intent Delta Analysis</text>
  <text x="242" y="166" fill="#87867f" font-size="9.5">意图差异分析：变更是否改变了业务规则的语义</text>
  <rect width="298" height="30" x="226" y="180" fill="#d1fae5" stroke="#059669" rx="6"/>
  <text x="242" y="196" fill="#059669" font-family="ui-monospace, monospace" font-size="10" font-weight="600">L3</text>
  <text x="262" y="196" fill="#141413" font-size="11" font-weight="600">Impact Graph Analysis</text>
  <text x="400" y="196" fill="#87867f" font-size="9.5">影响图分析</text>
  <text x="95" y="196" fill="#87867f" font-size="8.5" text-anchor="middle">字面层</text>
  <text x="375" y="196" fill="#d97757" font-family="ui-monospace, monospace" font-size="8.5" text-anchor="middle">语义层</text>
  <path stroke="#d1cfc5" d="M95 198v6m280-6v6"/>
  <path stroke="#d1cfc5" stroke-dasharray="3,2" d="M95 201h280"/>
</svg>
