<svg xmlns="http://www.w3.org/2000/svg" aria-label="AI产品护城河构建五步法" viewBox="0 0 800 400"><title>AI产品护城河构建五步法</title><desc>从垂直场景选择到品牌信任建立的五步护城河构建框架</desc><defs><marker id="arrowR" markerHeight="8" markerWidth="8" orient="auto" refX="6" refY="3"><path fill="#d97757" d="M0 0v6l8-3z"/></marker><filter id="shadow2" width="110%" height="110%" x="-5%" y="-5%"><feDropShadow dx="2" dy="2" flood-color="#141413" flood-opacity=".08" stdDeviation="3"/></filter></defs><path fill="#faf9f5" d="M0 0h800v400H0z"/><path fill="#141413" d="M0 0h800v50H0z"/><text x="400" y="32" fill="#faf9f5" font-family="system-ui, sans-serif" font-size="15" font-weight="700" letter-spacing="1" text-anchor="middle">AI 产品护城河构建五步法</text><g transform="translate(20 70)"><rect width="144" height="280" fill="#e3dacc" filter="url(#shadow2)" rx="10"/><rect width="144" height="44" fill="#d97757" rx="10"/><path fill="#d97757" d="M0 22h144v22H0z"/><text x="72" y="28" fill="#faf9f5" font-family="system-ui, sans-serif" font-size="13" font-weight="700" text-anchor="middle">第一步</text><text x="72" y="88" fill="#d97757" font-family="system-ui, sans-serif" font-size="28" font-weight="800" text-anchor="middle">01</text><text x="72" y="112" fill="#141413" font-family="system-ui, sans-serif" font-size="12" font-weight="600" text-anchor="middle">选择垂直</text><path stroke="#d1cfc5" d="M24 124h96"/><text x="72" y="142" fill="#87867f" font-family="system-ui, sans-serif" font-size="10" text-anchor="middle">放弃通用</text><text x="72" y="158" fill="#87867f" font-family="system-ui, sans-serif" font-size="10" text-anchor="middle">深耕垂直场景</text><text x="72" y="180" fill="#141413" font-family="system-ui, sans-serif" font-size="10" text-anchor="middle">→ 市场越小</text><text x="72" y="196" fill="#141413" font-family="system-ui, sans-serif" font-size="10" text-anchor="middle">→ 壁垒越深</text><rect width="104" height="50" x="20" y="210" fill="#faf9f5" stroke="#d1cfc5" rx="6"/><text x="72" y="226" fill="#87867f" font-family="system-ui, sans-serif" font-size="9" text-anchor="middle">错误</text><text x="72" y="238" fill="#87867f" font-family="system-ui, sans-serif" font-size="9" text-anchor="middle">AI写作工具</text><text x="72" y="252" fill="#d97757" font-family="system-ui, sans-serif" font-size="9" text-anchor="middle">✓ 房产律师助手</text></g><path fill="none" stroke="#d97757" stroke-width="2" marker-end="url(#arrowR)" d="M174 210h20"/><g transform="translate(196 70)"><rect width="144" height="280" fill="#e3dacc" filter="url(#shadow2)" rx="10"/><rect width="144" height="44" fill="#d97757" rx="10"/><path fill="#d97757" d="M0 22h144v22H0z"/><text x="72" y="28" fill="#faf9f5" font-family="system-ui, sans-serif" font-size="13" font-weight="700" text-anchor="middle">第二步</text><text x="72" y="88" fill="#d97757" font-family="system-ui, sans-serif" font-size="28" font-weight="800" text-anchor="middle">02</text><text x="72" y="112" fill="#141413" font-family="system-ui, sans-serif" font-size="12" font-weight="600" text-anchor="middle">积累数据</text><path stroke="#d1cfc5" d="M24 124h96"/><text x="72" y="142" fill="#87867f" font-family="system-ui, sans-serif" font-size="10" text-anchor="middle">API 提供能力</text><text x="72" y="158" fill="#87867f" font-family="system-ui, sans-serif" font-size="10" text-anchor="middle">数据构建壁垒</text><rect width="96" height="60" x="24" y="172" fill="#faf9f5" stroke="#d1cfc5" rx="4"/><path fill="none" stroke="#788c5d" stroke-width="2" d="m30 220 16-5 16-10 16-17 16-23"/><path fill="none" stroke="#d97757" stroke-dasharray="3,2" stroke-width="1.5" d="m30 220 16-2 16-6 16-12 16-15"/><text x="72" y="244" fill="#87867f" font-family="system-ui, sans-serif" font-size="9" text-anchor="middle">专有数据 → 指数壁垒</text></g><path fill="none" stroke="#d97757" stroke-width="2" marker-end="url(#arrowR)" d="M350 210h20"/><g transform="translate(372 70)"><rect width="144" height="280" fill="#e3dacc" filter="url(#shadow2)" rx="10"/><rect width="144" height="44" fill="#d97757" rx="10"/><path fill="#d97757" d="M0 22h144v22H0z"/><text x="72" y="28" fill="#faf9f5" font-family="system-ui, sans-serif" font-size="13" font-weight="700" text-anchor="middle">第三步</text><text x="72" y="88" fill="#d97757" font-family="system-ui, sans-serif" font-size="28" font-weight="800" text-anchor="middle">03</text><text x="72" y="112" fill="#141413" font-family="system-ui, sans-serif" font-size="12" font-weight="600" text-anchor="middle">深度嵌入</text><path stroke="#d1cfc5" d="M24 124h96"/><text x="72" y="142" fill="#87867f" font-family="system-ui, sans-serif" font-size="10" text-anchor="middle">嵌入工作流</text><text x="72" y="158" fill="#87867f" font-family="system-ui, sans-serif" font-size="10" text-anchor="middle">难以被替换</text><rect width="88" height="60" x="28" y="172" fill="#faf9f5" stroke="#d1cfc5" rx="4"/><circle cx="48" cy="196" r="8" fill="#d97757" opacity=".8"/><circle cx="72" cy="184" r="8" fill="#788c5d" opacity=".8"/><circle cx="96" cy="200" r="8" fill="#87867f" opacity=".6"/><path stroke="#d1cfc5" d="m56 196 8-8m16 0 8 8m-34 6h36"/><text x="72" y="244" fill="#87867f" font-family="system-ui, sans-serif" font-size="9" text-anchor="middle">CRM + ERP + IDE 集成</text></g><path fill="none" stroke="#d97757" stroke-width="2" marker-end="url(#arrowR)" d="M526 210h20"/><g transform="translate(548 70)"><rect width="144" height="280" fill="#e3dacc" filter="url(#shadow2)" rx="10"/><rect width="144" height="44" fill="#d97757" rx="10"/><path fill="#d97757" d="M0 22h144v22H0z"/><text x="72" y="28" fill="#faf9f5" font-family="system-ui, sans-serif" font-size="13" font-weight="700" text-anchor="middle">第四步</text><text x="72" y="88" fill="#d97757" font-family="system-ui, sans-serif" font-size="28" font-weight="800" text-anchor="middle">04</text><text x="72" y="112" fill="#141413" font-family="system-ui, sans-serif" font-size="12" font-weight="600" text-anchor="middle">构建社区</text><path stroke="#d1cfc5" d="M24 124h96"/><text x="72" y="142" fill="#87867f" font-family="system-ui, sans-serif" font-size="10" text-anchor="middle">产品可被复制</text><text x="72" y="158" fill="#87867f" font-family="system-ui, sans-serif" font-size="10" text-anchor="middle">社区难以复制</text><rect width="96" height="60" x="24" y="172" fill="#faf9f5" stroke="#d1cfc5" rx="4"/><circle cx="48" cy="196" r="7" fill="#d97757"/><circle cx="72" cy="182" r="7" fill="#d97757"/><circle cx="96" cy="196" r="7" fill="#d97757"/><circle cx="60" cy="210" r="7" fill="#788c5d"/><circle cx="84" cy="210" r="7" fill="#788c5d"/><path stroke="#d1cfc5" d="m55 195 10-10m14 0 10 10m-35 7h24m-16 6h16"/><text x="72" y="244" fill="#87867f" font-family="system-ui, sans-serif" font-size="9" text-anchor="middle">网络效应闭环</text></g><path fill="none" stroke="#d97757" stroke-width="2" marker-end="url(#arrowR)" d="M702 210h20"/><g transform="translate(724 70)"><rect width="56" height="280" fill="#e3dacc" filter="url(#shadow2)" rx="10"/><rect width="56" height="44" fill="#788c5d" rx="10"/><path fill="#788c5d" d="M0 22h56v22H0z"/><text x="28" y="28" fill="#faf9f5" font-family="system-ui, sans-serif" font-size="11" font-weight="700" text-anchor="middle">第五步</text><text x="28" y="88" fill="#788c5d" font-family="system-ui, sans-serif" font-size="28" font-weight="800" text-anchor="middle">05</text><text x="28" y="112" fill="#141413" font-family="system-ui, sans-serif" font-size="11" font-weight="600" text-anchor="middle">品牌</text><text x="28" y="124" fill="#141413" font-family="system-ui, sans-serif" font-size="11" font-weight="600" text-anchor="middle">信任</text><path stroke="#d1cfc5" d="M10 132h36"/><text x="28" y="150" fill="#87867f" font-family="system-ui, sans-serif" font-size="9" text-anchor="middle">关键场景</text><text x="28" y="162" fill="#87867f" font-family="system-ui, sans-serif" font-size="9" text-anchor="middle">信任是</text><text x="28" y="174" fill="#87867f" font-family="system-ui, sans-serif" font-size="9" text-anchor="middle">终极护城河</text></g><rect width="760" height="30" x="20" y="360" fill="#e3dacc" rx="6"/><text x="40" y="379" fill="#141413" font-family="system-ui, sans-serif" font-size="11">
    <tspan fill="#d97757" font-weight="600">核心逻辑：</tspan>
    <tspan>垂直场景 → 专有数据 → 工作流嵌入 → 社区网络 → 品牌信任</tspan>
  </text></svg>