<svg xmlns="http://www.w3.org/2000/svg" font-family="ui-serif, Georgia, 'Times New Roman', serif" viewBox="0 0 680 420"><title>会话摘要金字塔结构</title><desc>分层摘要的金字塔结构：底层最近会话、中层合并摘要、顶层历史总摘要，检索优先级从下而上</desc><path fill="#faf9f5" d="M0 0h680v420H0z"/><text x="340" y="28" fill="#141413" font-size="14" font-weight="500" letter-spacing="-.02em" text-anchor="middle">会话摘要金字塔：分层压缩的历史</text><text x="340" y="44" fill="#87867f" font-family="ui-monospace, monospace" font-size="10" text-anchor="middle">检索优先级：底层优先 · 时间由近及远</text><text x="80" y="90" fill="#87867f" font-family="ui-monospace, monospace" font-size="10.5">顶层</text><text x="80" y="185" fill="#87867f" font-family="ui-monospace, monospace" font-size="10.5">中层</text><text x="80" y="305" fill="#87867f" font-family="ui-monospace, monospace" font-size="10.5">底层</text><rect width="380" height="52" x="110" y="62" fill="#fff" stroke="#d1cfc5" stroke-width="1.5" rx="6"/><rect width="6" height="52" x="110" y="62" fill="#d1cfc5" rx="3"/><text x="130" y="84" fill="#141413" font-size="12" font-weight="500">历史总摘要</text><text x="130" y="100" fill="#87867f" font-family="ui-monospace, monospace" font-size="10.5">跨会话的长期背景 · 最高抽象层次</text><text x="400" y="84" fill="#87867f" font-family="ui-monospace, monospace" font-size="10">retrieval</text><text x="400" y="98" fill="#87867f" font-family="ui-monospace, monospace" font-size="10">priority: low</text><rect width="380" height="70" x="110" y="152" fill="#fff" stroke="#d1cfc5" stroke-width="1.5" rx="6"/><rect width="6" height="70" x="110" y="152" fill="#d97757" rx="3"/><text x="130" y="174" fill="#141413" font-size="12" font-weight="500">过去 20 个会话的合并摘要</text><text x="130" y="192" fill="#87867f" font-family="ui-monospace, monospace" font-size="10.5">近期上下文 · 中等抽象层次</text><text x="400" y="174" fill="#87867f" font-family="ui-monospace, monospace" font-size="10">retrieval</text><text x="400" y="188" fill="#87867f" font-family="ui-monospace, monospace" font-size="10">priority: mid</text><rect width="380" height="90" x="110" y="260" fill="#fff" stroke="#788c5d" stroke-width="1.8" rx="6"/><rect width="8" height="90" x="110" y="260" fill="#788c5d" rx="4"/><text x="134" y="286" fill="#788c5d" font-size="12" font-weight="600">最近 5 个会话的详细摘要</text><text x="134" y="304" fill="#87867f" font-family="ui-monospace, monospace" font-size="10.5">细节准确 · 最高检索优先级</text><text x="134" y="322" fill="#141413" font-size="10.5">任务进度 · 决策理由 · 待办事项</text><text x="134" y="338" fill="#141413" font-size="10.5">用户偏好快照 · 未兑现的承诺</text><rect width="76" height="20" x="400" y="274" fill="#788c5d" rx="10"/><text x="438" y="288" fill="#fff" font-family="ui-monospace, monospace" font-size="9" text-anchor="middle">优先加载</text><path fill="#d1cfc5" d="m560 72 60 80h-60zm0 90 60 90h-60z" opacity=".4"/><path fill="#788c5d" d="m560 270 60 100h-60z" opacity=".3"/><text x="630" y="115" fill="#87867f" font-family="ui-monospace, monospace" font-size="9">宽</text><text x="630" y="210" fill="#87867f" font-family="ui-monospace, monospace" font-size="9">度</text><text x="630" y="320" fill="#788c5d" font-family="ui-monospace, monospace" font-size="9">↑</text><text x="630" y="338" fill="#788c5d" font-family="ui-monospace, monospace" font-size="9">细节</text><path stroke="#d97757" stroke-dasharray="4,3" stroke-width="1.5" d="M500 380V60"/><path fill="#d97757" d="m500 56-4 10h8z"/><text x="510" y="220" fill="#d97757" font-family="ui-monospace, monospace" font-size="10" transform="rotate(90 510 220)">检索顺序：底部优先</text></svg>