<svg xmlns="http://www.w3.org/2000/svg" font-family="ui-serif, Georgia, 'Times New Roman', serif" viewBox="0 0 600 300">
  <path fill="#faf9f5" d="M0 0h600v300H0z"/>
  <text x="300" y="28" fill="#141413" font-size="14" font-weight="500" letter-spacing="-.02em" text-anchor="middle">软件工程的三次革命</text>
  <text x="300" y="46" fill="#87867f" font-family="ui-monospace, monospace" font-size="10" text-anchor="middle">AI-Native软件工程宣言 · 2025/04/04</text>
  <rect width="160" height="150" x="40" y="66" fill="#fff" stroke="#d97757" stroke-width="1.8" rx="8"/>
  <rect width="160" height="26" x="40" y="66" fill="#d97757" rx="8"/>
  <path fill="#d97757" d="M40 84h160v8H40z"/>
  <text x="120" y="84" fill="#fff" font-family="ui-monospace, monospace" font-size="11" font-weight="600" text-anchor="middle">1960s</text>
  <text x="120" y="114" fill="#d97757" font-size="12" font-weight="600" text-anchor="middle">高级语言革命</text>
  <text x="120" y="136" fill="#141413" font-size="10" text-anchor="middle">汇编 → Fortran / C</text>
  <text x="120" y="156" fill="#87867f" font-size="10" text-anchor="middle">程序员不再需要</text>
  <text x="120" y="170" fill="#87867f" font-size="10" text-anchor="middle">直接操作硬件</text>
  <path stroke="#d1cfc5" stroke-width="1.5" d="M220 141h30"/>
  <path fill="#d1cfc5" d="m250 141-8-4v8z"/>
  <text x="235" y="130" fill="#788c5d" font-family="ui-monospace, monospace" font-size="8.5" text-anchor="middle">从机器思维</text>
  <text x="235" y="158" fill="#788c5d" font-family="ui-monospace, monospace" font-size="8.5" text-anchor="middle">到人类思维</text>
  <rect width="160" height="150" x="260" y="66" fill="#fff" stroke="#d1cfc5" stroke-width="1.8" rx="8"/>
  <rect width="160" height="26" x="260" y="66" fill="#d97757" rx="8"/>
  <path fill="#d97757" d="M260 84h160v8H260z"/>
  <text x="340" y="84" fill="#fff" font-family="ui-monospace, monospace" font-size="11" font-weight="600" text-anchor="middle">1990s</text>
  <text x="340" y="114" fill="#d97757" font-size="12" font-weight="600" text-anchor="middle">开源运动</text>
  <text x="340" y="136" fill="#141413" font-size="10" text-anchor="middle">封闭软件 → 开源协作</text>
  <text x="340" y="156" fill="#87867f" font-size="10" text-anchor="middle">软件不再是</text>
  <text x="340" y="170" fill="#87867f" font-size="10" text-anchor="middle">个人作品</text>
  <path stroke="#d1cfc5" stroke-width="1.5" d="M440 141h30"/>
  <path fill="#d1cfc5" d="m470 141-8-4v8z"/>
  <text x="455" y="130" fill="#788c5d" font-family="ui-monospace, monospace" font-size="8.5" text-anchor="middle">从个人创造</text>
  <text x="455" y="158" fill="#788c5d" font-family="ui-monospace, monospace" font-size="8.5" text-anchor="middle">到协作网络</text>
  <rect width="80" height="150" x="480" y="66" fill="#fff" stroke="#d97757" stroke-width="2.2" rx="8"/>
  <rect width="80" height="26" x="480" y="66" fill="#d97757" rx="8"/>
  <path fill="#d97757" d="M480 84h80v8h-80z"/>
  <text x="520" y="84" fill="#fff" font-family="ui-monospace, monospace" font-size="11" font-weight="600" text-anchor="middle">2020s</text>
  <text x="520" y="114" fill="#d97757" font-size="12" font-weight="600" text-anchor="middle">AI-Native</text>
  <text x="520" y="136" fill="#141413" font-size="10" text-anchor="middle">人工编码</text>
  <text x="520" y="150" fill="#141413" font-size="10" text-anchor="middle">→ AI生成</text>
  <text x="520" y="170" fill="#87867f" font-size="10" text-anchor="middle">意图架构师</text>
  <text x="300" y="280" fill="#87867f" font-family="ui-monospace, monospace" font-size="9" text-anchor="middle">AI-Native软件工程宣言 · 2025/04/04</text>
  <title>软件工程的三次革命</title>
  <desc>
    时间线图：1960s高级语言革命（汇编到Fortran/C）、1990s开源运动（封闭软件到开源协作）、2020s AI-Native（人工编码到AI生成）
  </desc>
</svg>
