<svg xmlns="http://www.w3.org/2000/svg" font-family="ui-serif, Georgia, serif" viewBox="0 0 560 240">
  <path fill="#faf9f5" d="M0 0h560v240H0z"/>
  <text x="280" y="20" fill="#141413" font-size="13" font-weight="500" letter-spacing="-.02em" text-anchor="middle">AI 契约管理系统架构</text>
  <text x="280" y="36" fill="#87867f" font-family="ui-monospace, monospace" font-size="9.5" text-anchor="middle">postcodeengineering.com · 2025/06/03</text>
  <rect width="160" height="46" x="200" y="52" fill="#fff" stroke="#d97757" stroke-width="1.8" rx="6"/>
  <rect width="160" height="18" x="200" y="52" fill="#fef3c7" stroke="#d97757" rx="6"/>
  <text x="280" y="67" fill="#d97757" font-family="ui-monospace, monospace" font-size="10" font-weight="600" text-anchor="middle">RC · 契约注册中心</text>
  <text x="280" y="82" fill="#141413" font-size="9" text-anchor="middle">服务契约存储 · 版本管理 · 元数据</text>
  <rect width="14" height="14" x="352" y="62" fill="#d97757" rx="7"/>
  <text x="359" y="73" fill="#fff" font-family="ui-monospace, monospace" font-size="7" text-anchor="middle">RC</text>
  <rect width="140" height="46" x="40" y="52" fill="#fff" stroke="#ea580c" stroke-width="1.5" rx="6"/>
  <rect width="140" height="18" x="40" y="52" fill="#fed7aa" stroke="#ea580c" rx="6"/>
  <text x="110" y="67" fill="#ea580c" font-family="ui-monospace, monospace" font-size="10" font-weight="600" text-anchor="middle">IA · 影响分析引擎</text>
  <text x="110" y="82" fill="#141413" font-size="9" text-anchor="middle">依赖图谱 · 影响预测 · 风险评估</text>
  <rect width="14" height="14" x="172" y="62" fill="#ea580c" rx="7"/>
  <text x="179" y="73" fill="#fff" font-family="ui-monospace, monospace" font-size="7" text-anchor="middle">IA</text>
  <path stroke="#d1cfc5" stroke-width="1.5" d="m340 75 20 55M180 75l20 55"/>
  <rect width="160" height="56" x="200" y="118" fill="#fff" stroke="#2563eb" stroke-width="1.8" rx="6"/>
  <rect width="160" height="20" x="200" y="118" fill="#dbeafe" stroke="#2563eb" rx="6"/>
  <text x="280" y="133" fill="#2563eb" font-family="ui-monospace, monospace" font-size="10" font-weight="600" text-anchor="middle">DD · 漂移检测引擎</text>
  <text x="280" y="150" fill="#141413" font-size="9" text-anchor="middle">语法检测 · 语义分析 · 兼容性评估</text>
  <text x="280" y="164" fill="#141413" font-size="9" text-anchor="middle">（核心枢纽）</text>
  <rect width="14" height="14" x="352" y="130" fill="#2563eb" rx="7"/>
  <text x="359" y="141" fill="#fff" font-family="ui-monospace, monospace" font-size="7" text-anchor="middle">DD</text>
  <path stroke="#d1cfc5" stroke-width="1.5" d="m280 174-120 22m120-22 120 22"/>
  <rect width="140" height="40" x="60" y="196" fill="#fff" stroke="#7c3aed" stroke-width="1.5" rx="6"/>
  <rect width="140" height="16" x="60" y="196" fill="#ede9fe" stroke="#7c3aed" rx="6"/>
  <text x="130" y="210" fill="#7c3aed" font-family="ui-monospace, monospace" font-size="10" font-weight="600" text-anchor="middle">AN · 告警通知</text>
  <text x="130" y="226" fill="#141413" font-size="9" text-anchor="middle">团队通知 · 阻断发布 · 升级指南</text>
  <rect width="14" height="14" x="192" y="208" fill="#7c3aed" rx="7"/>
  <text x="199" y="219" fill="#fff" font-family="ui-monospace, monospace" font-size="7" text-anchor="middle">AN</text>
  <rect width="160" height="40" x="360" y="196" fill="#fff" stroke="#059669" stroke-width="1.5" rx="6"/>
  <rect width="160" height="16" x="360" y="196" fill="#d1fae5" stroke="#059669" rx="6"/>
  <text x="440" y="210" fill="#059669" font-family="ui-monospace, monospace" font-size="10" font-weight="600" text-anchor="middle">AF · 自动修复引擎</text>
  <text x="440" y="226" fill="#141413" font-size="9" text-anchor="middle">代码更新 · 测试生成 · 文档更新</text>
  <rect width="14" height="14" x="512" y="208" fill="#059669" rx="7"/>
  <text x="519" y="219" fill="#fff" font-family="ui-monospace, monospace" font-size="7" text-anchor="middle">AF</text>
</svg>
