<svg xmlns="http://www.w3.org/2000/svg" font-family="'Helvetica Neue', Arial, sans-serif" viewBox="0 0 800 540">
  <path d="M0 0h800v540H0z" style="fill:#faf9f5"/>
  <text x="40" y="36" style="fill:#141413;font-size:13px;font-weight:600">数据-模型-应用飞轮效应</text>
  <text x="40" y="52" style="fill:#87867f;font-size:11px">Data-Model-Application Flywheel: The Self-Reinforcing Loop</text>
  <path fill="none" stroke="#d97757" stroke-width="2.5" d="M400 100q100 0 160 108"/>
  <path fill="#d97757" d="m560 208-8-8 12 6z"/>
  <path fill="none" stroke="#d97757" stroke-width="2.5" d="M560 332q0 88-120 118"/>
  <path fill="#d97757" d="m440 450 2-10 8 12z"/>
  <path fill="none" stroke="#d97757" stroke-width="2.5" d="M240 450q-80-30-80-118"/>
  <path fill="#d97757" d="m160 332 8 6-6 12z"/>
  <path fill="none" stroke="#d97757" stroke-width="2.5" d="M160 208q0-88 120-108"/>
  <path fill="#d97757" d="m280 100-8 8 6 8z"/>
  <path fill="none" stroke="#d97757" stroke-dasharray="4,3" stroke-width="2" d="M360 105q20-15 40-5"/>
  <path fill="#d97757" d="m400 100-5 8h9z"/>
  <rect width="160" height="60" x="320" y="68" fill="#d97757" rx="10"/>
  <text x="400" y="93" fill="#faf9f5" font-size="13" font-weight="700" text-anchor="middle">高质量数据</text>
  <text x="400" y="110" fill="#faf9f5" font-size="11" text-anchor="middle">High Quality Data</text>
  <text x="400" y="126" fill="#faf9f5" font-size="10" text-anchor="middle">数据质量决定模型上限</text>
  <rect width="160" height="60" x="530" y="200" fill="#141413" stroke="#d1cfc5" rx="10"/>
  <text x="610" y="225" fill="#faf9f5" font-size="13" font-weight="700" text-anchor="middle">更好的模型</text>
  <text x="610" y="242" fill="#87867f" font-size="11" text-anchor="middle">Better Model</text>
  <text x="610" y="258" fill="#87867f" font-size="10" text-anchor="middle">模型表现决定用户体验</text>
  <rect width="160" height="60" x="530" y="340" fill="#141413" stroke="#d1cfc5" rx="10"/>
  <text x="610" y="365" fill="#faf9f5" font-size="13" font-weight="700" text-anchor="middle">更好的体验</text>
  <text x="610" y="382" fill="#87867f" font-size="11" text-anchor="middle">Better UX</text>
  <text x="610" y="398" fill="#87867f" font-size="10" text-anchor="middle">好体验带来高频使用</text>
  <rect width="160" height="60" x="110" y="340" fill="#141413" stroke="#d1cfc5" rx="10"/>
  <text x="190" y="365" fill="#faf9f5" font-size="13" font-weight="700" text-anchor="middle">更多行为数据</text>
  <text x="190" y="382" fill="#87867f" font-size="11" text-anchor="middle">More User Data</text>
  <text x="190" y="398" fill="#87867f" font-size="10" text-anchor="middle">使用越多，数据越多</text>
  <rect width="160" height="60" x="110" y="200" fill="#141413" stroke="#d1cfc5" rx="10"/>
  <text x="190" y="225" fill="#faf9f5" font-size="13" font-weight="700" text-anchor="middle">更多用户参与</text>
  <text x="190" y="242" fill="#87867f" font-size="11" text-anchor="middle">More Engagement</text>
  <text x="190" y="258" fill="#87867f" font-size="10" text-anchor="middle">用户参与产生数据</text>
  <circle cx="400" cy="270" r="55" fill="#788c5d"/>
  <text x="400" y="260" fill="#faf9f5" font-size="13" font-weight="700" text-anchor="middle">数据</text>
  <text x="400" y="278" fill="#faf9f5" font-size="13" font-weight="700" text-anchor="middle">即意图</text>
  <text x="400" y="295" fill="#e3dacc" font-size="10" text-anchor="middle">Data as Intent</text>
  <rect width="140" height="280" x="640" y="130" fill="#141413" rx="12"/>
  <text x="660" y="160" fill="#d97757" font-size="12" font-weight="700">负反馈陷阱</text>
  <text x="660" y="160" fill="#d97757" font-size="12" font-weight="700">负反馈陷阱</text>
  <path stroke="#d97757" stroke-width="1.5" d="M660 172h100"/>
  <text x="660" y="192" fill="#87867f" font-size="10">数据质量差</text>
  <text x="660" y="208" fill="#87867f" font-size="10">↓</text>
  <text x="660" y="226" fill="#87867f" font-size="10">模型表现差</text>
  <text x="660" y="242" fill="#87867f" font-size="10">↓</text>
  <text x="660" y="260" fill="#87867f" font-size="10">用户体验差</text>
  <text x="660" y="276" fill="#87867f" font-size="10">↓</text>
  <text x="660" y="294" fill="#87867f" font-size="10">用户流失</text>
  <text x="660" y="310" fill="#87867f" font-size="10">↓</text>
  <text x="660" y="328" fill="#87867f" font-size="10">数据减少</text>
  <text x="660" y="344" fill="#87867f" font-size="10">↓</text>
  <text x="660" y="362" fill="#d97757" font-size="10" font-weight="600">模型更差</text>
  <text x="660" y="382" fill="#e3dacc" font-size="10">飞轮反向运转</text>
  <text x="660" y="396" fill="#e3dacc" font-size="10">恶性循环</text>
  <rect width="720" height="70" x="40" y="440" fill="#e3dacc" rx="10"/>
  <text x="60" y="464" fill="#141413" font-size="12" font-weight="700">数据科学家的真实工作分配</text>
  <text x="60" y="484" fill="#141413" font-size="12">80% 数据准备</text>
  <text x="60" y="500" fill="#87867f" font-size="11">数据清洗、转换、标注、验证</text>
  <text x="300" y="484" fill="#d97757" font-size="20" font-weight="700">vs</text>
  <text x="340" y="464" fill="#141413" font-size="12" font-weight="700">20% 模型开发</text>
  <text x="340" y="484" fill="#141413" font-size="12">仅20%用于模型训练</text>
  <text x="340" y="500" fill="#87867f" font-size="11">架构设计、调参</text>
  <text x="560" y="464" fill="#d97757" font-size="12" font-weight="700">优化数据</text>
  <text x="560" y="484" fill="#d97757" font-size="18" font-weight="700">+15%</text>
  <text x="560" y="500" fill="#87867f" font-size="11">优化模型仅+3%</text>
  <text x="680" y="464" fill="#141413" font-size="12" font-weight="700">2周数据清理</text>
  <text x="680" y="484" fill="#141413" font-size="12">vs</text>
  <text x="680" y="500" fill="#87867f" font-size="11">6个月模型优化</text>
</svg>
