<svg xmlns="http://www.w3.org/2000/svg" aria-label="Codebase Intelligence五层架构" viewBox="0 0 640 380"><title>Codebase Intelligence 五层架构</title><desc>Codebase Intelligence系统的五层架构模型：从代码采集到推理</desc><defs><filter id="shadow" width="110%" height="115%" x="-5%" y="-5%"><feDropShadow dx="0" dy="2" flood-color="#141413" flood-opacity=".08" stdDeviation="3"/></filter></defs><path fill="#faf9f5" d="M0 0h640v380H0z"/><rect width="610" height="356" x="15" y="12" fill="none" stroke="#d1cfc5" stroke-width="1.5" rx="10"/><text x="30" y="32" fill="#141413" font-family="system-ui,-apple-system,sans-serif" font-size="14" font-weight="700">Codebase Intelligence 五层架构</text><rect width="580" height="60" x="30" y="48" fill="#fef3c7" stroke="#d97706" stroke-width="2.5" filter="url(#shadow)" rx="10"/><rect width="50" height="40" x="40" y="58" fill="#b45309" rx="8"/><text x="65" y="82" fill="#fff" font-family="system-ui,-apple-system,sans-serif" font-size="14" font-weight="700" text-anchor="middle">L5</text><text x="105" y="72" fill="#92400e" font-family="system-ui,-apple-system,sans-serif" font-size="13" font-weight="700">推理层 Reasoning Layer</text><path stroke="#fcd34d" d="M105 80h415"/><text x="105" y="95" fill="#b45309" font-family="system-ui,-apple-system,sans-serif" font-size="11">能力：问答、推理、建议、生成</text><path fill="none" stroke="#d1cfc5" stroke-width="2" marker-end="url(#a1)" d="M320 108v20"/><defs><marker id="a1" markerHeight="8" markerWidth="8" orient="auto" refX="4" refY="6"><path fill="#d1cfc5" d="m0 0 8 4-8 4Z"/></marker></defs><rect width="580" height="60" x="30" y="133" fill="#fed7aa" stroke="#ea580c" stroke-width="2" filter="url(#shadow)" rx="10"/><rect width="50" height="40" x="40" y="143" fill="#c2410c" rx="8"/><text x="65" y="167" fill="#fff" font-family="system-ui,-apple-system,sans-serif" font-size="14" font-weight="700" text-anchor="middle">L4</text><text x="105" y="157" fill="#c2410c" font-family="system-ui,-apple-system,sans-serif" font-size="13" font-weight="700">知识图谱层 Knowledge Graph</text><path stroke="#fdba74" d="M105 165h415"/><text x="105" y="180" fill="#9a3412" font-family="system-ui,-apple-system,sans-serif" font-size="11">能力：实体关系、业务规则、架构映射</text><path fill="none" stroke="#d1cfc5" stroke-width="2" marker-end="url(#a2)" d="M320 193v20"/><defs><marker id="a2" markerHeight="8" markerWidth="8" orient="auto" refX="4" refY="6"><path fill="#d1cfc5" d="m0 0 8 4-8 4Z"/></marker></defs><rect width="580" height="60" x="30" y="218" fill="#dbeafe" stroke="#2563eb" stroke-width="2" filter="url(#shadow)" rx="10"/><rect width="50" height="40" x="40" y="228" fill="#1e40af" rx="8"/><text x="65" y="252" fill="#fff" font-family="system-ui,-apple-system,sans-serif" font-size="14" font-weight="700" text-anchor="middle">L3</text><text x="105" y="242" fill="#1e40af" font-family="system-ui,-apple-system,sans-serif" font-size="13" font-weight="700">语义索引层 Semantic Index</text><path stroke="#93c5fd" d="M105 250h415"/><text x="105" y="265" fill="#1e3a8a" font-family="system-ui,-apple-system,sans-serif" font-size="11">能力：语义搜索、向量检索、相似度匹配</text><path fill="none" stroke="#d1cfc5" stroke-width="2" marker-end="url(#a3)" d="M320 278v20"/><defs><marker id="a3" markerHeight="8" markerWidth="8" orient="auto" refX="4" refY="6"><path fill="#d1cfc5" d="m0 0 8 4-8 4Z"/></marker></defs><rect width="580" height="60" x="30" y="303" fill="#bfdbfe" stroke="#3b82f6" stroke-width="2" filter="url(#shadow)" rx="10"/><rect width="50" height="40" x="40" y="313" fill="#1d4ed8" rx="8"/><text x="65" y="337" fill="#fff" font-family="system-ui,-apple-system,sans-serif" font-size="14" font-weight="700" text-anchor="middle">L2</text><text x="105" y="327" fill="#1e40af" font-family="system-ui,-apple-system,sans-serif" font-size="13" font-weight="700">代码解析层 Code Parsing</text><path stroke="#60a5fa" d="M105 335h415"/><text x="105" y="350" fill="#1e3a8a" font-family="system-ui,-apple-system,sans-serif" font-size="11">能力：AST、符号表、依赖图、调用图</text><text x="600" y="210" fill="#87867f" font-family="system-ui,-apple-system,sans-serif" font-size="10" text-anchor="middle" transform="rotate(-90 600 210)">数据流向</text><path fill="none" stroke="#d1cfc5" stroke-dasharray="4,4" d="M600 115v215"/><rect width="200" height="18" x="30" y="270" fill="#faf9f5" stroke="#d1cfc5" rx="4"/><text x="130" y="282" fill="#87867f" font-family="system-ui,-apple-system,sans-serif" font-size="9" text-anchor="middle">↓</text></svg>