<svg xmlns="http://www.w3.org/2000/svg" font-family="ui-serif, Georgia, 'Times New Roman', serif" viewBox="0 0 680 420">
  <title>RPE 四层方法论</title>
  <desc>
    Prompt 逆向工程（Reverse Prompt Engineering）的四层技术框架：行为分析层、系统 Prompt 提取层、工具模式推断层、工作流重建层，展示各层难度与迭代反馈关系。
  </desc>
  <path fill="#faf9f5" d="M0 0h680v420H0z"/>
  <text x="340" y="28" fill="#141413" font-size="14" font-weight="500" letter-spacing="-.02em" text-anchor="middle">RPE 四层方法论</text>
  <text x="340" y="44" fill="#87867f" font-family="ui-monospace, monospace" font-size="10" text-anchor="middle">Prompt 逆向工程技术框架 · postcodeeng · 2025/03/22</text>
  <rect width="640" height="348" x="20" y="56" fill="none" stroke="#d1cfc5" stroke-dasharray="6,4" stroke-width="1.5" rx="10"/>
  <rect width="560" height="68" x="40" y="68" fill="#fff" stroke="#d97757" stroke-width="1.8" rx="6"/>
  <text x="58" y="90" fill="#d97757" font-family="ui-monospace, monospace" font-size="11" font-weight="700">Layer 4</text>
  <text x="58" y="108" fill="#141413" font-size="13">Workflow Reconstruction</text>
  <text x="58" y="124" fill="#87867f" font-size="10.5">工作流重建层 · 多轮对话分析、状态机模型、Agent 交互模式</text>
  <text x="570" y="100" fill="#d97757" font-family="ui-monospace, monospace" font-size="11">★★★★</text>
  <text x="558" y="115" fill="#d97757" font-family="ui-monospace, monospace" font-size="9">Very Hard</text>
  <rect width="20" height="18" x="568" y="72" fill="#d97757" rx="9"/>
  <text x="578" y="84" fill="#fff" font-family="ui-monospace, monospace" font-size="9" text-anchor="middle">4</text>
  <path stroke="#d1cfc5" stroke-width="1.5" d="M320 136v14"/>
  <path fill="#d1cfc5" d="m320 154-4-8h8z"/>
  <rect width="560" height="68" x="40" y="158" fill="#fff" stroke="#c9652a" stroke-width="1.5" rx="6"/>
  <text x="58" y="180" fill="#c9652a" font-family="ui-monospace, monospace" font-size="11" font-weight="700">Layer 3</text>
  <text x="58" y="198" fill="#141413" font-size="13">Tool Schema Inference</text>
  <text x="58" y="214" fill="#87867f" font-size="10.5">工具模式推断层 · 工具触发探测、Tool Schema 重建、调用逻辑推断</text>
  <text x="570" y="190" fill="#c9652a" font-family="ui-monospace, monospace" font-size="11">★★★</text>
  <text x="558" y="205" fill="#c9652a" font-family="ui-monospace, monospace" font-size="9">Hard</text>
  <rect width="20" height="18" x="568" y="162" fill="#c9652a" rx="9"/>
  <text x="578" y="174" fill="#fff" font-family="ui-monospace, monospace" font-size="9" text-anchor="middle">3</text>
  <path stroke="#d1cfc5" stroke-width="1.5" d="M320 226v14"/>
  <path fill="#d1cfc5" d="m320 244-4-8h8z"/>
  <rect width="560" height="68" x="40" y="248" fill="#fff" stroke="#5b7fa6" stroke-width="1.5" rx="6"/>
  <text x="58" y="270" fill="#5b7fa6" font-family="ui-monospace, monospace" font-size="11" font-weight="700">Layer 2</text>
  <text x="58" y="288" fill="#141413" font-size="13">System Prompt Extraction</text>
  <text x="58" y="304" fill="#87867f" font-size="10.5">系统 Prompt 提取层 · 角色推断、任务模板重建、约束条件提取</text>
  <text x="570" y="280" fill="#5b7fa6" font-family="ui-monospace, monospace" font-size="11">★★</text>
  <text x="558" y="295" fill="#5b7fa6" font-family="ui-monospace, monospace" font-size="9">Medium</text>
  <rect width="20" height="18" x="568" y="252" fill="#5b7fa6" rx="9"/>
  <text x="578" y="264" fill="#fff" font-family="ui-monospace, monospace" font-size="9" text-anchor="middle">2</text>
  <path stroke="#d1cfc5" stroke-width="1.5" d="M320 316v14"/>
  <path fill="#d1cfc5" d="m320 334-4-8h8z"/>
  <rect width="560" height="68" x="40" y="338" fill="#fff" stroke="#788c5d" stroke-width="1.5" rx="6"/>
  <text x="58" y="360" fill="#788c5d" font-family="ui-monospace, monospace" font-size="11" font-weight="700">Layer 1</text>
  <text x="58" y="378" fill="#141413" font-size="13">Behavior Analysis</text>
  <text x="58" y="394" fill="#87867f" font-size="10.5">行为分析层 · 采样分析、约束探测、Fuzzing 测试、约束空间映射</text>
  <text x="570" y="370" fill="#788c5d" font-family="ui-monospace, monospace" font-size="11">★</text>
  <text x="558" y="385" fill="#788c5d" font-family="ui-monospace, monospace" font-size="9">Easy</text>
  <rect width="20" height="18" x="568" y="342" fill="#788c5d" rx="9"/>
  <text x="578" y="354" fill="#fff" font-family="ui-monospace, monospace" font-size="9" text-anchor="middle">1</text>
  <path fill="none" stroke="#d97757" stroke-dasharray="5,3" stroke-width="2" d="M600 102c30 0 30 278 0 270" opacity=".65"/>
  <path fill="#d97757" d="m600 372-8-10h16z" opacity=".65"/>
  <text x="616" y="240" fill="#d97757" font-family="ui-monospace, monospace" font-size="9">迭代</text>
  <text x="616" y="253" fill="#d97757" font-family="ui-monospace, monospace" font-size="9">改进</text>
</svg>
