<svg xmlns="http://www.w3.org/2000/svg" font-family="ui-serif, Georgia, serif" viewBox="0 0 680 360">
  <title>AI架构评审流程</title>
  <desc>
    AI辅助架构评审的完整流程：AI方案生成 → 自动检查 → 人工审查 → 架构决策
  </desc>
  <path fill="#faf9f5" d="M0 0h680v360H0z"/>
  <text x="340" y="28" fill="#141413" font-size="14" font-weight="500" letter-spacing="-.02em" text-anchor="middle">AI辅助架构评审流程</text>
  <text x="340" y="44" fill="#87867f" font-family="ui-monospace, monospace" font-size="10" text-anchor="middle">人机协作 · 双层审查</text>
  <rect width="130" height="90" x="30" y="76" fill="#fff" stroke="#d1cfc5" stroke-width="1.5" rx="8"/>
  <rect width="130" height="26" x="30" y="76" fill="#e3dacc" rx="8"/>
  <path fill="#e3dacc" d="M30 94h130v8H30z"/>
  <text x="95" y="93" fill="#141413" font-family="ui-monospace, monospace" font-size="10.5" font-weight="600" text-anchor="middle">AI方案生成</text>
  <text x="95" y="118" fill="#87867f" font-size="10" text-anchor="middle">需求分析</text>
  <text x="95" y="133" fill="#87867f" font-size="10" text-anchor="middle">多方案对比</text>
  <text x="95" y="148" fill="#87867f" font-size="10" text-anchor="middle">Trade-off 分析</text>
  <path stroke="#d97757" stroke-width="1.8" d="M160 121h25"/>
  <path fill="#d97757" d="m185 117-8 4v4z"/>
  <rect width="180" height="122" x="190" y="60" fill="#fff" stroke="#d1cfc5" stroke-width="1.5" rx="8"/>
  <rect width="180" height="26" x="190" y="60" fill="#d97757" rx="8"/>
  <path fill="#d97757" d="M190 78h180v8H190z"/>
  <text x="280" y="77" fill="#fff" font-family="ui-monospace, monospace" font-size="10.5" font-weight="600" text-anchor="middle">自动检查（AI预审）</text>
  <text x="208" y="102" fill="#141413" font-size="10">· 合规性检查</text>
  <text x="208" y="117" fill="#141413" font-size="10">· 安全扫描</text>
  <text x="208" y="132" fill="#141413" font-size="10">· 性能预测</text>
  <text x="208" y="147" fill="#141413" font-size="10">· 成本估算</text>
  <text x="208" y="162" fill="#141413" font-size="10">· AI特性评估</text>
  <path stroke="#d97757" stroke-width="1.8" d="M370 121h25"/>
  <path fill="#d97757" d="m395 117-8 4v4z"/>
  <rect width="130" height="90" x="400" y="76" fill="#fff" stroke="#d1cfc5" stroke-width="1.5" rx="8"/>
  <rect width="130" height="26" x="400" y="76" fill="#e3dacc" rx="8"/>
  <path fill="#e3dacc" d="M400 94h130v8H400z"/>
  <text x="465" y="93" fill="#141413" font-family="ui-monospace, monospace" font-size="10.5" font-weight="600" text-anchor="middle">人工审查</text>
  <text x="465" y="118" fill="#87867f" font-size="10" text-anchor="middle">战略对齐</text>
  <text x="465" y="133" fill="#87867f" font-size="10" text-anchor="middle">组织适应性</text>
  <text x="465" y="148" fill="#87867f" font-size="10" text-anchor="middle">创新判断</text>
  <path stroke="#d97757" stroke-width="1.8" d="M530 121h25"/>
  <path fill="#d97757" d="m555 117-8 4v4z"/>
  <rect width="110" height="90" x="560" y="76" fill="#fff" stroke="#d97757" stroke-width="2" rx="8"/>
  <rect width="110" height="26" x="560" y="76" fill="#d97757" rx="8"/>
  <path fill="#d97757" d="M560 94h110v8H560z"/>
  <text x="615" y="93" fill="#fff" font-family="ui-monospace, monospace" font-size="10.5" font-weight="600" text-anchor="middle">架构决策</text>
  <text x="615" y="118" fill="#141413" font-size="10" text-anchor="middle">最终方案</text>
  <text x="615" y="133" fill="#141413" font-size="10" text-anchor="middle">决策记录</text>
  <text x="615" y="148" fill="#87867f" font-size="10" text-anchor="middle">责任确认</text>
  <rect width="620" height="36" x="30" y="200" fill="#f0eee6" stroke="#d1cfc5" stroke-width="1.2" rx="6"/>
  <text x="340" y="222" fill="#87867f" font-family="ui-monospace, monospace" font-size="10.5" text-anchor="middle">人机协作：AI处理可量化检查 · 人类专注判断力与创造力</text>
  <rect width="14" height="14" x="30" y="250" fill="#e3dacc" stroke="#d1cfc5" rx="3"/>
  <text x="50" y="262" fill="#87867f" font-size="10">人工主导</text>
  <rect width="14" height="14" x="130" y="250" fill="#d97757" rx="3"/>
  <text x="150" y="262" fill="#87867f" font-size="10">AI自动处理</text>
  <rect width="14" height="14" x="230" y="250" fill="#fff" stroke="#d97757" stroke-width="1.5" rx="3"/>
  <text x="250" y="262" fill="#87867f" font-size="10">关键决策节点</text>
  <circle cx="95" cy="175" r="10" fill="#d97757"/>
  <text x="95" y="179" fill="#fff" font-family="ui-monospace, monospace" font-size="9" text-anchor="middle">1</text>
  <circle cx="280" cy="175" r="10" fill="#d97757"/>
  <text x="280" y="179" fill="#fff" font-family="ui-monospace, monospace" font-size="9" text-anchor="middle">2</text>
  <circle cx="465" cy="175" r="10" fill="#d97757"/>
  <text x="465" y="179" fill="#fff" font-family="ui-monospace, monospace" font-size="9" text-anchor="middle">3</text>
  <circle cx="615" cy="175" r="10" fill="#d97757"/>
  <text x="615" y="179" fill="#fff" font-family="ui-monospace, monospace" font-size="9" text-anchor="middle">4</text>
</svg>
