<svg xmlns="http://www.w3.org/2000/svg" font-family="ui-serif, Georgia, 'Times New Roman', serif" viewBox="0 0 680 320"><path fill="#faf9f5" d="M0 0h680v320H0z"/><text x="340" y="26" fill="#141413" font-size="14" font-weight="500" letter-spacing="-.02em" text-anchor="middle">RAG-DD 核心工作流</text><text x="340" y="42" fill="#87867f" font-family="ui-monospace, monospace" font-size="10" text-anchor="middle">RAG-DD · 检索增强生成驱动开发</text><rect width="90" height="56" x="30" y="80" fill="#fff" stroke="#d97757" stroke-width="1.8" rx="8"/><text x="75" y="102" fill="#d97757" font-family="ui-monospace, monospace" font-size="10" font-weight="600" text-anchor="middle">用户</text><text x="75" y="117" fill="#141413" font-size="11" text-anchor="middle">自然语言</text><text x="75" y="130" fill="#141413" font-size="11" text-anchor="middle">查询</text><path stroke="#d1cfc5" stroke-width="1.5" d="M120 108h20"/><path fill="#d1cfc5" d="m140 104-6 4 6 4z"/><rect width="90" height="56" x="150" y="80" fill="#fff" stroke="#d97757" stroke-width="1.8" rx="8"/><text x="195" y="102" fill="#d97757" font-family="ui-monospace, monospace" font-size="10" font-weight="600" text-anchor="middle">意图解析器</text><text x="195" y="117" fill="#141413" font-size="11" text-anchor="middle">Intent</text><text x="195" y="130" fill="#141413" font-size="11" text-anchor="middle">Parser</text><path stroke="#d1cfc5" stroke-width="1.5" d="M240 108h20"/><path fill="#d1cfc5" d="m260 104-6 4 6 4z"/><rect width="90" height="56" x="270" y="80" fill="#fff" stroke="#788c5d" stroke-width="1.8" rx="8"/><text x="315" y="102" fill="#788c5d" font-family="ui-monospace, monospace" font-size="10" font-weight="600" text-anchor="middle">知识检索</text><text x="315" y="117" fill="#141413" font-size="11" text-anchor="middle">Retrieval</text><text x="315" y="130" fill="#141413" font-size="11" text-anchor="middle">Engine</text><path stroke="#d1cfc5" stroke-width="1.5" d="M360 108h20"/><path fill="#d1cfc5" d="m380 104-6 4 6 4z"/><rect width="90" height="56" x="390" y="80" fill="#fff" stroke="#d97757" stroke-width="1.8" rx="8"/><text x="435" y="102" fill="#d97757" font-family="ui-monospace, monospace" font-size="10" font-weight="600" text-anchor="middle">上下文融合</text><text x="435" y="117" fill="#141413" font-size="11" text-anchor="middle">Fusion</text><text x="435" y="130" fill="#141413" font-size="11" text-anchor="middle">Engine</text><path stroke="#d1cfc5" stroke-width="1.5" d="M480 108h20"/><path fill="#d1cfc5" d="m500 104-6 4 6 4z"/><rect width="90" height="56" x="510" y="80" fill="#fff" stroke="#d97757" stroke-width="1.8" rx="8"/><text x="555" y="102" fill="#d97757" font-family="ui-monospace, monospace" font-size="10" font-weight="600" text-anchor="middle">生成代码</text><text x="555" y="117" fill="#141413" font-size="11" text-anchor="middle">Generated</text><text x="555" y="130" fill="#141413" font-size="11" text-anchor="middle">Code</text><path fill="none" stroke="#d97757" stroke-dasharray="4,3" stroke-width="1.5" d="M555 140v15H315v-15" opacity=".7"/><path fill="#d97757" d="m315 140-6 6h12z" opacity=".7"/><text x="435" y="164" fill="#d97757" font-family="ui-monospace, monospace" font-size="9" text-anchor="middle">反馈迭代</text><rect width="150" height="100" x="510" y="200" fill="#fff" stroke="#788c5d" stroke-width="1.5" rx="8"/><text x="585" y="218" fill="#788c5d" font-family="ui-monospace, monospace" font-size="10" font-weight="600" text-anchor="middle">企业知识库</text><rect width="130" height="18" x="520" y="226" fill="#f0eee6" stroke="#d1cfc5" rx="4"/><text x="585" y="239" fill="#141413" font-size="9" text-anchor="middle">编码规范</text><rect width="130" height="18" x="520" y="248" fill="#f0eee6" stroke="#d1cfc5" rx="4"/><text x="585" y="261" fill="#141413" font-size="9" text-anchor="middle">架构模式</text><rect width="130" height="18" x="520" y="270" fill="#f0eee6" stroke="#d1cfc5" rx="4"/><text x="585" y="283" fill="#141413" font-size="9" text-anchor="middle">业务规则</text><path stroke="#788c5d" stroke-dasharray="3,2" stroke-width="1.5" d="M585 200v-60" opacity=".6"/><path fill="#788c5d" d="m585 140-4 8h8z" opacity=".6"/><text x="605" y="172" fill="#788c5d" font-family="ui-monospace, monospace" font-size="8">检索</text><text x="340" y="310" fill="#87867f" font-family="ui-monospace, monospace" font-size="9" text-anchor="middle">RAG-DD 核心工作流 · 向量检索 + 上下文融合</text></svg>