<svg xmlns="http://www.w3.org/2000/svg" font-family="ui-serif, Georgia, serif" viewBox="0 0 600 300">
  <path fill="#faf9f5" d="M0 0h600v300H0z"/>
  <text x="300" y="26" fill="#141413" font-size="14" font-weight="500" letter-spacing="-.02em" text-anchor="middle">Prompt as a Service 架构</text>
  <text x="300" y="42" fill="#87867f" font-family="ui-monospace, monospace" font-size="10" text-anchor="middle">后端封装 · API 解耦 · 攻击面收缩</text>
  <rect width="140" height="120" x="40" y="64" fill="#fff" stroke="#d1cfc5" stroke-width="1.5" rx="8"/>
  <text x="110" y="88" fill="#141413" font-size="11" font-weight="700" text-anchor="middle">用户 / 攻击者</text>
  <rect width="48" height="36" x="86" y="100" fill="#faf9f5" stroke="#d1cfc5" stroke-width="1.5" rx="4"/>
  <rect width="32" height="20" x="94" y="108" fill="#e3dacc" rx="2"/>
  <text x="110" y="122" fill="#87867f" font-size="8" text-anchor="middle">LLM API</text>
  <text x="110" y="174" fill="#d97757" font-family="ui-monospace, monospace" font-size="10" text-anchor="middle">无法接触后端</text>
  <path stroke="#d97757" stroke-dasharray="4,3" stroke-width="2" d="M180 124h40"/>
  <path fill="#d97757" d="m224 124-8-4v8z"/>
  <text x="200" y="116" fill="#d97757" font-family="ui-monospace, monospace" font-size="9" text-anchor="middle">LLM API 调用</text>
  <text x="200" y="130" fill="#87867f" font-size="8" text-anchor="middle">（Prompt 不可见）</text>
  <rect width="152" height="120" x="224" y="64" fill="#fff" stroke="#d97757" stroke-width="1.8" rx="8"/>
  <text x="300" y="88" fill="#d97757" font-size="11" font-weight="700" text-anchor="middle">API Gateway</text>
  <rect width="56" height="40" x="272" y="100" fill="#e3dacc" stroke="#d97757" stroke-width="1.5" rx="4"/>
  <path stroke="#d97757" d="M272 110h56m-56 8h56m-56 8h56"/>
  <text x="300" y="156" fill="#141413" font-family="ui-monospace, monospace" font-size="9" text-anchor="middle">/v1/assistant</text>
  <text x="300" y="174" fill="#d97757" font-family="ui-monospace, monospace" font-size="10" text-anchor="middle">动态组装 Prompt</text>
  <path stroke="#788c5d" stroke-width="2" d="M376 124h40"/>
  <path fill="#788c5d" d="m420 124-8-4v8z"/>
  <text x="398" y="116" fill="#788c5d" font-family="ui-monospace, monospace" font-size="9" text-anchor="middle">组装 + 调用</text>
  <rect width="140" height="120" x="420" y="64" fill="#fff" stroke="#788c5d" stroke-width="1.8" rx="8"/>
  <text x="490" y="88" fill="#788c5d" font-size="11" font-weight="700" text-anchor="middle">Prompt Service</text>
  <rect width="56" height="40" x="452" y="100" fill="#e3dacc" stroke="#788c5d" stroke-width="1.5" rx="4"/>
  <path stroke="#788c5d" d="M452 110h56m-56 8h56m-56 8h56"/>
  <rect width="12" height="10" x="474" y="134" fill="#788c5d" rx="2"/>
  <path fill="none" stroke="#788c5d" stroke-width="1.5" d="M477 134v-3c0-3 6-3 6 0v3"/>
  <text x="490" y="174" fill="#788c5d" font-family="ui-monospace, monospace" font-size="10" text-anchor="middle">后端 · 加密存储</text>
  <path fill="none" stroke="#d1cfc5" stroke-width="1.5" d="M490 184H300v16"/>
  <path fill="#d1cfc5" d="m300 204-4-8h8z"/>
  <text x="395" y="196" fill="#87867f" font-family="ui-monospace, monospace" font-size="9" text-anchor="middle">加密 / 代理响应</text>
  <rect width="140" height="52" x="420" y="218" fill="#e3dacc" rx="6"/>
  <text x="430" y="236" fill="#141413" font-size="9" font-weight="600">攻击者只能套取 API 响应</text>
  <text x="430" y="252" fill="#87867f" font-size="9">无法接触后端 Prompt 存储</text>
  <text x="430" y="264" fill="#87867f" font-size="9">Prompt 逻辑完全不暴露</text>
</svg>
