<svg xmlns="http://www.w3.org/2000/svg" font-family="ui-serif, Georgia, serif" viewBox="0 0 560 280"><path fill="#faf9f5" d="M0 0h560v280H0z"/><text x="280" y="20" fill="#141413" font-size="13" font-weight="500" letter-spacing="-.02em" text-anchor="middle">AI-Native 效能度量金字塔</text><text x="280" y="36" fill="#87867f" font-family="ui-monospace, monospace" font-size="9.5" text-anchor="middle">postcodeengineering.com · 2025/05/04</text><path fill="#fef3c7" stroke="#d97757" stroke-width="2" d="m280 50-50 40h100z"/><text x="280" y="72" fill="#d97757" font-size="10" font-weight="600" text-anchor="middle">M1 · 业务价值</text><text x="280" y="83" fill="#87867f" font-size="9" text-anchor="middle">收入 · 用户满意度</text><path fill="#fed7aa" stroke="#ea580c" stroke-width="1.5" d="m230 94-20 36h140l-20-36z"/><text x="280" y="114" fill="#ea580c" font-size="10" font-weight="600" text-anchor="middle">M2 · 意图达成</text><text x="280" y="126" fill="#87867f" font-size="9" text-anchor="middle">需求完成度 · 意图保真度</text><path fill="#dbeafe" stroke="#2563eb" stroke-width="1.5" d="m210 134-20 36h180l-20-36z"/><text x="280" y="154" fill="#2563eb" font-size="10" font-weight="600" text-anchor="middle">M3 · 修改能力</text><text x="280" y="166" fill="#87867f" font-size="9" text-anchor="middle">意图修改率 · 重构成本</text><path fill="#bfdbfe" stroke="#3b82f6" stroke-width="1.5" d="m190 174-20 36h220l-20-36z"/><text x="280" y="194" fill="#3b82f6" font-size="10" font-weight="600" text-anchor="middle">M4 · 交付效率</text><text x="280" y="206" fill="#87867f" font-size="9" text-anchor="middle">部署频率 · 前置时间</text><path fill="#d1fae5" stroke="#059669" stroke-width="2" d="m170 214-20 40h260l-20-40z"/><text x="280" y="230" fill="#059669" font-size="10" font-weight="600" text-anchor="middle">M5 · 意图复杂度</text><text x="280" y="244" fill="#141413" font-size="9" text-anchor="middle">ICQ 四维度</text><text x="280" y="255" fill="#87867f" font-size="8.5" text-anchor="middle">最底层基础指标</text><text x="60" y="100" fill="#87867f" font-family="ui-monospace, monospace" font-size="9">传统指标</text><text x="60" y="114" fill="#87867f" font-size="9">→ LOC</text><text x="60" y="128" fill="#87867f" font-size="9">→velocity</text><text x="60" y="142" fill="#87867f" font-size="9">→代码行数</text><text x="60" y="156" fill="#87867f" font-size="9">→Bug数</text><text x="500" y="100" fill="#059669" font-family="ui-monospace, monospace" font-size="9">AI-Native</text><text x="500" y="114" fill="#059669" font-size="9">→业务价值</text><text x="500" y="128" fill="#059669" font-size="9">→意图达成</text><text x="500" y="142" fill="#059669" font-size="9">→修改能力</text><text x="500" y="156" fill="#059669" font-size="9">→交付效率</text><text x="500" y="170" fill="#059669" font-size="9">→意图复杂度</text><path stroke="#d1cfc5" stroke-dasharray="4,3" d="M100 136h340"/><path fill="#d1cfc5" d="m440 132-6 4 6 4z"/><text x="270" y="130" fill="#87867f" font-family="ui-monospace, monospace" font-size="8" text-anchor="middle">演进方向</text></svg>