<svg xmlns="http://www.w3.org/2000/svg" font-family="ui-serif, Georgia, serif" viewBox="0 0 560 220"><path fill="#faf9f5" d="M0 0h560v220H0z"/><text x="280" y="18" fill="#141413" font-size="13" font-weight="500" letter-spacing="-.02em" text-anchor="middle">Intent Complexity 评估维度</text><text x="280" y="34" fill="#87867f" font-family="ui-monospace, monospace" font-size="9.5" text-anchor="middle">postcodeengineering.com · 2025/04/16</text><circle cx="280" cy="122" r="28" fill="#f0eee6" stroke="#d97757" stroke-width="1.5"/><text x="280" y="118" fill="#d97757" font-family="ui-monospace, monospace" font-size="10" font-weight="600" text-anchor="middle">Intent</text><text x="280" y="130" fill="#d97757" font-family="ui-monospace, monospace" font-size="9" text-anchor="middle">Complexity</text><rect width="220" height="44" x="170" y="30" fill="#fef3c7" stroke="#d97757" stroke-width="1.5" rx="8"/><text x="190" y="50" fill="#d97757" font-family="ui-monospace, monospace" font-size="10" font-weight="600">D1</text><text x="210" y="50" fill="#141413" font-size="11" font-weight="600">业务规则复杂度</text><text x="190" y="65" fill="#87867f" font-size="9.5">规则数量、依赖、冲突检测</text><path stroke="#d97757" stroke-width="1.5" d="M280 74v14"/><path fill="#d97757" d="m276 74 4-6 4 6z"/><rect width="200" height="44" x="320" y="80" fill="#fed7aa" stroke="#ea580c" stroke-width="1.5" rx="8"/><text x="340" y="100" fill="#ea580c" font-family="ui-monospace, monospace" font-size="10" font-weight="600">D2</text><text x="360" y="100" fill="#141413" font-size="11" font-weight="600">场景覆盖度</text><text x="340" y="115" fill="#87867f" font-size="9.5">正常·边界·异常场景</text><path stroke="#ea580c" stroke-width="1.5" d="M320 106h-12"/><path fill="#ea580c" d="m308 102-6 4 6 4z"/><rect width="200" height="44" x="320" y="150" fill="#dbeafe" stroke="#2563eb" stroke-width="1.5" rx="8"/><text x="340" y="170" fill="#2563eb" font-family="ui-monospace, monospace" font-size="10" font-weight="600">D3</text><text x="360" y="170" fill="#141413" font-size="11" font-weight="600">约束条件</text><text x="340" y="185" fill="#87867f" font-size="9.5">性能·安全·合规约束</text><path stroke="#2563eb" stroke-width="1.5" d="m320 160-12-22"/><path fill="#2563eb" d="m308 138-6 2 4 6z"/><rect width="200" height="44" x="40" y="150" fill="#bfdbfe" stroke="#3b82f6" stroke-width="1.5" rx="8"/><text x="60" y="170" fill="#3b82f6" font-family="ui-monospace, monospace" font-size="10" font-weight="600">D4</text><text x="80" y="170" fill="#141413" font-size="11" font-weight="600">跨系统集成</text><text x="60" y="185" fill="#87867f" font-size="9.5">外部依赖、数据流、接口契约</text><path stroke="#3b82f6" stroke-width="1.5" d="m240 160 12-22"/><path fill="#3b82f6" d="m252 138 6 2-4 6z"/><rect width="200" height="44" x="40" y="80" fill="#d1fae5" stroke="#059669" stroke-width="1.5" rx="8"/><text x="60" y="100" fill="#059669" font-family="ui-monospace, monospace" font-size="10" font-weight="600">D5</text><text x="80" y="100" fill="#141413" font-size="11" font-weight="600">演化适应性</text><text x="60" y="115" fill="#87867f" font-size="9.5">扩展性、可修改性、技术债务</text><path stroke="#059669" stroke-width="1.5" d="M240 106h12"/><path fill="#059669" d="m252 102 6 4-6 4z"/></svg>