<svg xmlns="http://www.w3.org/2000/svg" font-family="ui-serif, Georgia, 'Times New Roman', serif" viewBox="0 0 680 320"><title>Architecture Spec 工作流</title><desc>传统架构文档工作流与 Architecture Spec 工作流的对比流程图</desc><path fill="#faf9f5" d="M0 0h680v320H0z"/><text x="340" y="26" fill="#141413" font-size="14" font-weight="500" letter-spacing="-.02em" text-anchor="middle">Architecture Spec 工作流</text><text x="340" y="42" fill="#87867f" font-family="ui-monospace, monospace" font-size="10" text-anchor="middle">架构即代码</text><path stroke="#d1cfc5" stroke-dasharray="4,4" d="M340 60v235"/><text x="170" y="68" fill="#87867f" font-family="ui-monospace, monospace" font-size="11" font-weight="600" text-anchor="middle">传统路径</text><rect width="160" height="44" x="60" y="82" fill="#fff" stroke="#d1cfc5" stroke-width="1.5" rx="8"/><text x="140" y="100" fill="#141413" font-size="11" text-anchor="middle">架构师画图</text><text x="140" y="116" fill="#87867f" font-size="10" text-anchor="middle">PPT / Visio / draw.io</text><path stroke="#d1cfc5" stroke-width="1.5" d="M140 126v14"/><path fill="#d1cfc5" d="m140 144-4-8h8z"/><rect width="160" height="44" x="60" y="150" fill="#fff" stroke="#d1cfc5" stroke-width="1.5" rx="8"/><text x="140" y="168" fill="#141413" font-size="11" text-anchor="middle">工程师看图</text><text x="140" y="184" fill="#87867f" font-size="10" text-anchor="middle">理解意图</text><path stroke="#d1cfc5" stroke-width="1.5" d="M140 194v14"/><path fill="#d1cfc5" d="m140 212-4-8h8z"/><rect width="160" height="44" x="60" y="218" fill="#fff" stroke="#d1cfc5" stroke-width="1.5" rx="8"/><text x="140" y="236" fill="#141413" font-size="11" text-anchor="middle">各自理解</text><text x="140" y="252" fill="#87867f" font-size="10" text-anchor="middle">上下文丢失</text><path stroke="#d1cfc5" stroke-width="1.5" d="M140 262v14"/><path fill="#d1cfc5" d="m140 280-4-8h8z"/><rect width="160" height="24" x="60" y="286" fill="#e8e4dc" stroke="#d1cfc5" rx="6"/><text x="140" y="302" fill="#87867f" font-size="10" text-anchor="middle">实现偏差 · static · 滞后</text><text x="510" y="68" fill="#d97757" font-family="ui-monospace, monospace" font-size="11" font-weight="600" text-anchor="middle">Architecture Spec 路径</text><rect width="220" height="44" x="400" y="82" fill="#fff" stroke="#d97757" stroke-width="1.8" rx="8"/><text x="510" y="100" fill="#141413" font-size="11" text-anchor="middle">架构师编写 Architecture Spec</text><text x="510" y="116" fill="#d97757" font-family="ui-monospace, monospace" font-size="10" text-anchor="middle">YAML / JSON / DSL</text><path stroke="#d97757" stroke-width="1.5" d="M510 126v14"/><path fill="#d97757" d="m510 144-4-8h8z"/><rect width="220" height="44" x="400" y="150" fill="#fff" stroke="#d97757" stroke-width="1.8" rx="8"/><text x="510" y="168" fill="#141413" font-size="11" text-anchor="middle">AI 生成代码 / 验证</text><text x="510" y="184" fill="#87867f" font-size="10" text-anchor="middle">结构化解析 · 无二义性</text><path fill="none" stroke="#788c5d" stroke-width="1.5" d="M490 194v12m-4-4 4 4 4-4m36 4v-12m-4 6 4-6 4 6"/><text x="510" y="204" fill="#788c5d" font-family="ui-monospace, monospace" font-size="9" text-anchor="middle">双向对齐</text><rect width="220" height="44" x="400" y="218" fill="#fff" stroke="#788c5d" stroke-width="1.8" rx="8"/><text x="510" y="236" fill="#141413" font-size="11" text-anchor="middle">自动对齐</text><text x="510" y="252" fill="#788c5d" font-family="ui-monospace, monospace" font-size="10" text-anchor="middle">machine-readable · verifiable</text><path stroke="#788c5d" stroke-width="1.5" d="M510 262v14"/><path fill="#788c5d" d="m510 280-4-8h8z"/><rect width="220" height="24" x="400" y="286" fill="#e8edde" stroke="#788c5d" rx="6"/><text x="510" y="302" fill="#788c5d" font-size="10" text-anchor="middle">代码 + 文档 + 部署配置</text><rect width="140" height="18" x="270" y="295" fill="#fff" stroke="#d1cfc5" rx="9"/><circle cx="282" cy="304" r="5" fill="#d1cfc5"/><text x="292" y="308" fill="#87867f" font-size="9">传统</text><circle cx="332" cy="304" r="5" fill="#d97757"/><text x="342" y="308" fill="#d97757" font-size="9">Arch Spec</text></svg>