<svg xmlns="http://www.w3.org/2000/svg" viewBox="0 0 680 420"><style>.text-dark-small{fill:#141413;font-family:&quot;SF Mono&quot;,&quot;Cascadia Code&quot;,&quot;Fira Code&quot;,monospace;font-size:12px;font-weight:500}.divider{stroke:#d1cfc5;stroke-width:1}.cell-value-clay{fill:#d97757;font-family:&quot;SF Mono&quot;,&quot;Cascadia Code&quot;,&quot;Fira Code&quot;,monospace;font-size:12px;font-weight:600}</style><defs><marker id="arrowhead" markerHeight="6" markerWidth="8" orient="auto" refX="8" refY="3"><path fill="#d1cfc5" d="m0 0 8 3-8 3z"/></marker><marker id="arrowhead-dark" markerHeight="6" markerWidth="8" orient="auto" refX="8" refY="3"><path fill="#87867f" d="m0 0 8 3-8 3z"/></marker><marker id="arrowhead-clay" markerHeight="6" markerWidth="8" orient="auto" refX="8" refY="3"><path fill="#d97757" d="m0 0 8 3-8 3z"/></marker></defs><rect width="680" height="420" rx="8" style="fill:#faf9f5"/><text x="340" y="35" style="fill:#141413;font-family:&quot;SF Mono&quot;,&quot;Cascadia Code&quot;,&quot;Fira Code&quot;,monospace;font-size:12px;font-weight:700" text-anchor="middle">Prompt层级逆向难度矩阵</text><rect width="200" height="35" x="50" y="55" fill="#d1cfc5" rx="0"/><text x="150" y="77" class="text-dark-small" style="font-weight:700" text-anchor="middle">Prompt层级</text><rect width="100" height="35" x="250" y="55" fill="#d1cfc5" rx="0"/><text x="300" y="77" class="text-dark-small" style="font-weight:700" text-anchor="middle">逆向难度</text><rect width="160" height="35" x="350" y="55" fill="#d1cfc5" rx="0"/><text x="430" y="77" class="text-dark-small" style="font-weight:700" text-anchor="middle">典型方法</text><path d="M50 90h460" class="divider"/><path fill="#faf9f5" stroke="#d1cfc5" stroke-width=".5" d="M50 90h460v52H50z"/><text x="62" y="118" class="text-dark-small">User Prompt（用户输入）</text><text x="330" y="118" class="cell-value-clay" text-anchor="middle">⭐ 极易</text><text x="362" y="118" class="text-dark-small">直接观察</text><path d="M50 142h460" class="divider"/><path fill="#f5f4f0" stroke="#d1cfc5" stroke-width=".5" d="M50 142h460v52H50z"/><text x="62" y="170" class="text-dark-small">System Prompt（系统指令）</text><text x="330" y="170" class="cell-value-clay" text-anchor="middle">⭐⭐⭐ 中等</text><text x="362" y="170" class="text-dark-small">Layer 1-2</text><path d="M50 194h460" class="divider"/><path fill="#faf9f5" stroke="#d1cfc5" stroke-width=".5" d="M50 194h460v52H50z"/><text x="62" y="222" class="text-dark-small">Tool Definition（工具定义）</text><text x="330" y="222" class="cell-value-clay" text-anchor="middle">⭐⭐⭐⭐ 困难</text><text x="362" y="222" class="text-dark-small">Layer 3</text><path d="M50 246h460" class="divider"/><path fill="#f5f4f0" stroke="#d1cfc5" stroke-width=".5" d="M50 246h460v52H50z"/><text x="62" y="274" class="text-dark-small">Agent Workflow（代理工作流）</text><text x="330" y="274" class="cell-value-clay" text-anchor="middle">⭐⭐⭐⭐⭐ 极难</text><text x="362" y="274" class="text-dark-small">Layer 4</text><path d="M50 298h460" class="divider"/><path fill="#faf9f5" stroke="#d1cfc5" stroke-width=".5" d="M50 298h460v52H50z"/><text x="62" y="326" class="text-dark-small">State &amp; Memory（状态与记忆）</text><text x="330" y="326" class="cell-value-clay" text-anchor="middle">⭐⭐⭐⭐⭐ 极难</text><text x="362" y="326" class="text-dark-small">需要长期观察</text><path d="M50 350h460M250 55v295M350 55v295" class="divider"/><rect width="460" height="295" x="50" y="55" rx="0" style="stroke:#d1cfc5;stroke-width:1.5;fill:none"/></svg>