<svg xmlns="http://www.w3.org/2000/svg" font-family="ui-serif, Georgia, 'Times New Roman', serif" viewBox="0 0 640 400">
  <path fill="#faf9f5" d="M0 0h640v400H0z"/>
  <text x="320" y="28" fill="#141413" font-size="14" font-weight="500" letter-spacing="-.02em" text-anchor="middle">Knuth 与 Claude Opus 4.6：人机协作战</text>
  <text x="320" y="44" fill="#87867f" font-family="ui-monospace, monospace" font-size="10" text-anchor="middle">Donald Knuth · Stanford · 2026/02</text>
  <rect width="160" height="50" x="50" y="80" fill="#d97757" rx="25"/>
  <text x="130" y="107" fill="#fff" font-family="ui-monospace, monospace" font-size="13" font-weight="600" text-anchor="middle">Claude Opus 4.6</text>
  <rect width="160" height="50" x="430" y="80" fill="#d97757" rx="25"/>
  <text x="510" y="107" fill="#fff" font-family="ui-monospace, monospace" font-size="13" font-weight="600" text-anchor="middle">Donald Knuth</text>
  <path stroke="#d1cfc5" stroke-width="1.5" d="M210 105h130"/>
  <path fill="#d1cfc5" d="m210 101 8 4-8 4zm130 0-8 4 8 4z"/>
  <text x="320" y="100" fill="#87867f" font-family="ui-monospace, monospace" font-size="9" text-anchor="middle">双向协作</text>
  <rect width="160" height="36" x="130" y="158" fill="#fff" stroke="#d1cfc5" stroke-width="1.5" rx="6"/>
  <text x="160" y="180" fill="#141413" font-family="ui-monospace, monospace" font-size="11">1. Human 提出问题</text>
  <path stroke="#d1cfc5" stroke-width="1.5" d="M210 194v20"/>
  <path fill="#d1cfc5" d="m210 218-4-8h8z"/>
  <rect width="160" height="36" x="130" y="222" fill="#fff" stroke="#d97757" stroke-width="1.8" rx="6"/>
  <text x="160" y="244" fill="#141413" font-family="ui-monospace, monospace" font-size="11">2. AI 探索（30+ 次尝试）</text>
  <path stroke="#d1cfc5" stroke-width="1.5" d="M210 258v20"/>
  <path fill="#d1cfc5" d="m210 282-4-8h8z"/>
  <rect width="160" height="36" x="130" y="286" fill="#fff" stroke="#d1cfc5" stroke-width="1.5" rx="6"/>
  <text x="160" y="308" fill="#141413" font-family="ui-monospace, monospace" font-size="11">3. Human 验证/形式化</text>
  <path stroke="#d1cfc5" stroke-width="1.5" d="M210 322v20"/>
  <path fill="#d1cfc5" d="m210 346-4-8h8z"/>
  <rect width="160" height="36" x="130" y="350" fill="#fff" stroke="#788c5d" stroke-width="1.5" rx="6"/>
  <text x="160" y="372" fill="#141413" font-family="ui-monospace, monospace" font-size="11">4. Proof 完成</text>
  <rect width="230" height="44" x="350" y="158" fill="#788c5d" rx="8"/>
  <text x="465" y="180" fill="#fff" font-family="ui-monospace, monospace" font-size="11" font-weight="600" text-anchor="middle">2Z+1 情况已解决</text>
  <text x="465" y="195" fill="#e3dacc" font-family="ui-monospace, monospace" font-size="10" text-anchor="middle">所有奇数情况</text>
  <rect width="230" height="44" x="350" y="214" fill="#fff" stroke="#d1cfc5" stroke-width="1.5" rx="8"/>
  <text x="465" y="236" fill="#87867f" font-family="ui-monospace, monospace" font-size="11" font-weight="600" text-anchor="middle">偶数情况仍是开放问题</text>
  <text x="465" y="251" fill="#87867f" font-family="ui-monospace, monospace" font-size="10" text-anchor="middle">待后续探索</text>
  <text x="320" y="165" fill="#87867f" font-family="ui-monospace, monospace" font-size="9" text-anchor="middle">↓ 探索者 ↓</text>
  <text x="320" y="296" fill="#87867f" font-family="ui-monospace, monospace" font-size="9" text-anchor="middle">↓ 验证者 ↓</text>
  <text x="320" y="394" fill="#87867f" font-family="ui-monospace, monospace" font-size="9" text-anchor="middle">来源：https://www-cs-faculty.stanford.edu/~knuth/papers/claude-cycles.pdf</text>
</svg>
