<svg xmlns="http://www.w3.org/2000/svg" viewBox="0 0 680 700"><defs><style>.border,.sep{stroke:#d1cfc5}.border{stroke-width:1.5;fill:none}.sep{stroke-width:1}.row-text,.section-title{font-family:&quot;Courier New&quot;,Courier,monospace;fill:#141413}.section-title{font-size:14px;font-weight:700}.row-text{font-size:13.5px}.accent{fill:#d97757}</style></defs><path d="M0 0h680v700H0z" style="fill:#faf9f5"/><rect width="656" height="676" x="12" y="12" class="border" rx="4"/><rect width="656" height="44" x="12" y="12" rx="4" style="fill:#e3dacc"/><path fill="#d97757" d="M12 52h656v4H12z"/><text x="340" y="40" style="font-family:&quot;Courier New&quot;,Courier,monospace;font-size:15px;font-weight:700;fill:#141413" text-anchor="middle">AI效能度量仪表盘</text><path d="M12 100h656" class="sep"/><text x="32" y="132" class="section-title">团队效能指标</text><text x="48" y="168" class="row-text">├── 意图修改率：18%（目标：&lt;15%）</text><text x="568" y="168" class="accent" text-anchor="middle">⚠️</text><text x="48" y="208" class="row-text">├── 知识半衰期：45天（良好）</text><text x="48" y="248" class="row-text">├── 平均重构成本：2.5小时（下降20%）</text><text x="568" y="248" style="fill:#788c5d" text-anchor="middle">✅</text><text x="48" y="288" class="row-text">└── 可维护性指数：68（目标：&gt;70）</text><text x="568" y="288" class="accent" text-anchor="middle">⚠️</text><path d="M12 320h656" class="sep"/><text x="32" y="352" class="section-title">代码库健康度</text><text x="48" y="388" class="row-text">├── 高可维护性模块：65%</text><text x="48" y="428" class="row-text">├── 需要关注模块：25%</text><text x="48" y="468" class="row-text">└── 优先重构模块：10%</text><path d="M12 500h656" class="sep"/><text x="32" y="532" class="section-title">改进建议（AI生成）</text><text x="48" y="568" class="row-text">1. order_service.py 耦合度过高，建议拆分</text><text x="48" y="608" class="row-text">2. payment模块缺少测试，建议增加覆盖率到80%</text><text x="48" y="648" class="row-text">3. user模块知识半衰期短，建议改进命名和注释</text><path d="M12 676h656" class="sep"/><path d="M12 12v664M668 12v664M12 688h656" class="border"/></svg>