<svg xmlns="http://www.w3.org/2000/svg" font-family="ui-serif, Georgia, serif" viewBox="0 0 680 360"><path fill="#faf9f5" d="M0 0h680v360H0z"/><text x="340" y="26" fill="#141413" font-size="14" font-weight="500" text-anchor="middle">向量检索：标准 vs 可解释</text><text x="340" y="42" fill="#87867f" font-family="ui-monospace, monospace" font-size="10" text-anchor="middle">检索即解释</text><path stroke="#d1cfc5" stroke-dasharray="4,4" d="M340 60v250"/><rect width="300" height="252" x="24" y="60" fill="#fff" stroke="#d1cfc5" stroke-width="1.5" rx="8"/><text x="174" y="82" fill="#87867f" font-family="ui-monospace, monospace" font-size="12" text-anchor="middle">标准向量检索</text><rect width="120" height="32" x="54" y="96" fill="#f0eee6" stroke="#d1cfc5" stroke-width="1.2" rx="6"/><text x="114" y="117" fill="#141413" font-family="ui-monospace, monospace" font-size="11" text-anchor="middle">Query</text><path stroke="#d1cfc5" stroke-width="2" d="M114 128v20"/><path fill="#d1cfc5" d="m114 154-4-8h8z"/><ellipse cx="114" cy="172" fill="#d1cfc5" stroke="#87867f" stroke-width="1.2" rx="48" ry="20"/><text x="114" y="177" fill="#141413" font-family="ui-monospace, monospace" font-size="10" text-anchor="middle">Vector DB</text><path stroke="#d1cfc5" stroke-width="2" d="M114 192v20"/><path fill="#d1cfc5" d="m114 218-4-8h8z"/><rect width="140" height="70" x="44" y="226" fill="#f0eee6" stroke="#d1cfc5" stroke-width="1.2" rx="6"/><text x="114" y="244" fill="#87867f" font-family="ui-monospace, monospace" font-size="10" text-anchor="middle">Top-k Results</text><text x="58" y="260" fill="#141413" font-size="9">Result 1  (0.93)</text><text x="58" y="274" fill="#141413" font-size="9">Result 2  (0.87)</text><text x="58" y="288" fill="#141413" font-size="9">Result 3  (0.81)</text><text x="240" y="260" fill="#87867f" font-size="11" text-anchor="middle">?</text><text x="240" y="276" fill="#87867f" font-family="ui-monospace, monospace" font-size="9" text-anchor="middle">无归因</text><rect width="300" height="252" x="356" y="60" fill="#fff" stroke="#d97757" stroke-width="1.5" rx="8"/><text x="506" y="82" fill="#d97757" font-family="ui-monospace, monospace" font-size="12" text-anchor="middle">可解释检索</text><rect width="120" height="32" x="386" y="96" fill="#f0eee6" stroke="#d97757" stroke-width="1.2" rx="6"/><text x="446" y="117" fill="#141413" font-family="ui-monospace, monospace" font-size="11" text-anchor="middle">Query</text><path stroke="#d97757" stroke-width="2" d="M446 128v20"/><path fill="#d97757" d="m446 154-4-8h8z"/><ellipse cx="446" cy="172" fill="#d97757" stroke="#d97757" stroke-width="1.2" rx="48" ry="20"/><text x="446" y="177" fill="#fff" font-family="ui-monospace, monospace" font-size="10" text-anchor="middle">Vector DB</text><path stroke="#d97757" stroke-width="2" d="M446 192v20"/><path fill="#d97757" d="m446 218-4-8h8z"/><rect width="280" height="70" x="366" y="226" fill="#f0eee6" stroke="#d97757" stroke-width="1.2" rx="6"/><text x="386" y="244" fill="#141413" font-size="10">Result 1 (0.93)</text><rect width="60" height="16" x="486" y="232" fill="#788c5d" rx="8"/><text x="516" y="243" fill="#fff" font-family="ui-monospace, monospace" font-size="8" text-anchor="middle">来源</text><rect width="60" height="16" x="552" y="232" fill="#d97757" rx="8"/><text x="582" y="243" fill="#fff" font-family="ui-monospace, monospace" font-size="8" text-anchor="middle">时间</text><text x="386" y="262" fill="#141413" font-size="10">Result 2 (0.87)</text><rect width="60" height="16" x="486" y="250" fill="#788c5d" rx="8"/><text x="516" y="261" fill="#fff" font-family="ui-monospace, monospace" font-size="8" text-anchor="middle">来源</text><rect width="60" height="16" x="552" y="250" fill="#d97757" rx="8"/><text x="582" y="261" fill="#fff" font-family="ui-monospace, monospace" font-size="8" text-anchor="middle">时间</text><rect width="130" height="68" x="510" y="100" fill="#fff" stroke="#d97757" stroke-width="1.8" rx="6"/><text x="520" y="118" fill="#d97757" font-family="ui-monospace, monospace" font-size="9" font-weight="600">归因卡片</text><path stroke="#d97757" d="M510 124h130"/><text x="520" y="140" fill="#141413" font-size="9">来源: 对话#47</text><text x="520" y="154" fill="#141413" font-size="9">时间: 2024-10-15</text><text x="520" y="168" fill="#141413" font-size="9">置信度: 0.82</text><path stroke="#d97757" stroke-dasharray="3,2" stroke-width="1.5" d="M492 130h18"/><text x="340" y="338" fill="#87867f" font-family="ui-monospace, monospace" font-size="10" text-anchor="middle">← 无归因，难以验证  |  带归因，每段记忆都有身份证 →</text><title>向量检索：标准 vs 可解释</title><desc>对比标准向量检索（无归因信息）与可解释检索（每条结果附带来源、时间、置信度归因卡片）</desc></svg>