<svg xmlns="http://www.w3.org/2000/svg" font-family="ui-serif, Georgia, serif" viewBox="0 0 560 240"><path fill="#faf9f5" d="M0 0h560v240H0z"/><text x="280" y="18" fill="#141413" font-size="13" font-weight="500" letter-spacing="-.02em" text-anchor="middle">知识图谱 + 向量检索融合架构</text><text x="280" y="34" fill="#87867f" font-family="ui-monospace, monospace" font-size="9.5" text-anchor="middle">postcodeengineering.com · 2025/01/15</text><rect width="80" height="36" x="30" y="58" fill="#fff" stroke="#d97757" stroke-width="1.5" rx="5"/><rect width="80" height="14" x="30" y="58" fill="#fef3c7" stroke="#d97757" rx="5"/><text x="70" y="70" fill="#d97757" font-family="ui-monospace, monospace" font-size="9" font-weight="600" text-anchor="middle">Step 1</text><text x="70" y="86" fill="#141413" font-size="9" text-anchor="middle">用户查询</text><rect width="12" height="12" x="102" y="70" fill="#d97757" rx="6"/><text x="108" y="79" fill="#fff" font-family="ui-monospace, monospace" font-size="7" text-anchor="middle">1</text><path stroke="#d1cfc5" stroke-width="1.5" d="M110 76h16"/><path fill="#d1cfc5" d="m126 72 8 4-8 4z"/><rect width="80" height="36" x="134" y="58" fill="#fff" stroke="#ea580c" stroke-width="1.5" rx="5"/><rect width="80" height="14" x="134" y="58" fill="#fed7aa" stroke="#ea580c" rx="5"/><text x="174" y="70" fill="#ea580c" font-family="ui-monospace, monospace" font-size="9" font-weight="600" text-anchor="middle">Step 2</text><text x="174" y="86" fill="#141413" font-size="8.5" text-anchor="middle">查询理解</text><rect width="12" height="12" x="206" y="70" fill="#ea580c" rx="6"/><text x="212" y="79" fill="#fff" font-family="ui-monospace, monospace" font-size="7" text-anchor="middle">2</text><path stroke="#d1cfc5" stroke-width="1.5" d="M214 76h16"/><path fill="#d1cfc5" d="m230 72 8 4-8 4z"/><rect width="80" height="44" x="238" y="46" fill="#fff" stroke="#2563eb" stroke-width="1.5" rx="5"/><rect width="80" height="14" x="238" y="46" fill="#dbeafe" stroke="#2563eb" rx="5"/><text x="278" y="58" fill="#2563eb" font-family="ui-monospace, monospace" font-size="9" font-weight="600" text-anchor="middle">Step 3A</text><text x="278" y="72" fill="#141413" font-size="8.5" text-anchor="middle">向量检索</text><text x="278" y="84" fill="#87867f" font-size="8" text-anchor="middle">Top-K 文本块</text><rect width="12" height="12" x="310" y="58" fill="#2563eb" rx="6"/><text x="316" y="67" fill="#fff" font-family="ui-monospace, monospace" font-size="7" text-anchor="middle">3A</text><rect width="80" height="44" x="238" y="104" fill="#fff" stroke="#059669" stroke-width="1.5" rx="5"/><rect width="80" height="14" x="238" y="104" fill="#d1fae5" stroke="#059669" rx="5"/><text x="278" y="116" fill="#059669" font-family="ui-monospace, monospace" font-size="9" font-weight="600" text-anchor="middle">Step 3B</text><text x="278" y="130" fill="#141413" font-size="8.5" text-anchor="middle">图谱查询</text><text x="278" y="142" fill="#87867f" font-size="8" text-anchor="middle">关系遍历</text><rect width="12" height="12" x="310" y="116" fill="#059669" rx="6"/><text x="316" y="125" fill="#fff" font-family="ui-monospace, monospace" font-size="7" text-anchor="middle">3B</text><path stroke="#d1cfc5" d="m214 70 24-10m-24 22 24 56m80-70 18 22m-18 36 18-18"/><rect width="80" height="40" x="336" y="82" fill="#fff" stroke="#7c3aed" stroke-width="1.5" rx="5"/><rect width="80" height="14" x="336" y="82" fill="#ede9fe" stroke="#7c3aed" rx="5"/><text x="376" y="94" fill="#7c3aed" font-family="ui-monospace, monospace" font-size="9" font-weight="600" text-anchor="middle">Step 4</text><text x="376" y="108" fill="#141413" font-size="8.5" text-anchor="middle">实体链接</text><text x="376" y="120" fill="#87867f" font-size="8" text-anchor="middle">桥梁建设</text><rect width="12" height="12" x="408" y="94" fill="#7c3aed" rx="6"/><text x="414" y="103" fill="#fff" font-family="ui-monospace, monospace" font-size="7" text-anchor="middle">4</text><path stroke="#d1cfc5" stroke-width="1.5" d="M420 102h16"/><path fill="#d1cfc5" d="m436 98 8 4-8 4z"/><rect width="80" height="40" x="444" y="82" fill="#fff" stroke="#f97316" stroke-width="1.5" rx="5"/><rect width="80" height="14" x="444" y="82" fill="#fdba74" stroke="#f97316" rx="5"/><text x="484" y="94" fill="#f97316" font-family="ui-monospace, monospace" font-size="9" font-weight="600" text-anchor="middle">Step 5</text><text x="484" y="108" fill="#141413" font-size="8.5" text-anchor="middle">知识融合</text><text x="484" y="120" fill="#87867f" font-size="8" text-anchor="middle">合并结果</text><rect width="12" height="12" x="516" y="94" fill="#f97316" rx="6"/><text x="522" y="103" fill="#fff" font-family="ui-monospace, monospace" font-size="7" text-anchor="middle">5</text><path stroke="#d1cfc5" stroke-width="1.5" d="M484 122v16"/><path fill="#d1cfc5" d="m480 138 4 8 4-8z"/><rect width="80" height="32" x="444" y="146" fill="#fff" stroke="#dc2626" stroke-width="1.5" rx="5"/><rect width="80" height="14" x="444" y="146" fill="#fee2e2" stroke="#dc2626" rx="5"/><text x="484" y="158" fill="#dc2626" font-family="ui-monospace, monospace" font-size="9" font-weight="600" text-anchor="middle">Step 6</text><text x="484" y="172" fill="#141413" font-size="8.5" text-anchor="middle">推理生成</text><text x="280" y="210" fill="#87867f" font-size="9" font-style="italic" text-anchor="middle">向量检索感性联想 · 知识图谱理性逻辑 · 融合后既准确又完整</text><text x="278" y="42" fill="#2563eb" font-family="ui-monospace, monospace" font-size="7.5" text-anchor="middle">感性</text><text x="278" y="152" fill="#059669" font-family="ui-monospace, monospace" font-size="7.5" text-anchor="middle">理性</text></svg>