<svg xmlns="http://www.w3.org/2000/svg" viewBox="0 0 554 346" width="554" height="346">
  <defs>
    <style>
      text { font-family: 'SF Mono', 'Menlo', 'Monaco', 'Courier New', monospace; }
    </style>
  </defs>
  <rect width="554" height="346" fill="#FAF9F5"/>
  <rect x="4" y="4" width="546" height="338" fill="none" stroke="#D1CFC5" stroke-width="1" rx="4"/>
<text x="21.0" y="33.5" fill="#141413" font-size="12" font-family="monospace">p</text>
<text x="31.5" y="33.5" fill="#141413" font-size="12" font-family="monospace">r</text>
<text x="42.0" y="33.5" fill="#141413" font-size="12" font-family="monospace">o</text>
<text x="52.5" y="33.5" fill="#141413" font-size="12" font-family="monospace">m</text>
<text x="63.0" y="33.5" fill="#141413" font-size="12" font-family="monospace">p</text>
<text x="73.5" y="33.5" fill="#141413" font-size="12" font-family="monospace">t</text>
<text x="84.0" y="33.5" fill="#141413" font-size="12" font-family="monospace">s</text>
<text x="94.5" y="33.5" fill="#141413" font-size="12" font-family="monospace">/</text>
<polyline points="30.5,38.5 20.0,38.5 20.0,57.0" fill="none" stroke="#141413" stroke-width="1.5"/>
<line x1="30.5" y1="47.8" x2="20.0" y2="47.8" stroke="#141413" stroke-width="1.5"/>
<line x1="30.5" y1="47.8" x2="41.0" y2="47.8" stroke="#141413" stroke-width="1.5"/>
<line x1="41.0" y1="47.8" x2="51.5" y2="47.8" stroke="#141413" stroke-width="1.5"/>
<text x="63.0" y="52.0" fill="#141413" font-size="12" font-family="monospace">R</text>
<text x="73.5" y="52.0" fill="#141413" font-size="12" font-family="monospace">E</text>
<text x="84.0" y="52.0" fill="#141413" font-size="12" font-family="monospace">A</text>
<text x="94.5" y="52.0" fill="#141413" font-size="12" font-family="monospace">D</text>
<text x="105.0" y="52.0" fill="#141413" font-size="12" font-family="monospace">M</text>
<text x="115.5" y="52.0" fill="#141413" font-size="12" font-family="monospace">E</text>
<text x="126.0" y="52.0" fill="#141413" font-size="12" font-family="monospace">.</text>
<text x="136.5" y="52.0" fill="#141413" font-size="12" font-family="monospace">m</text>
<text x="147.0" y="52.0" fill="#141413" font-size="12" font-family="monospace">d</text>
<text x="336.0" y="52.0" fill="#141413" font-size="12" font-family="monospace">#</text>
<text x="357.0" y="52.0" fill="#141413" font-size="12" font-family="monospace">P</text>
<text x="367.5" y="52.0" fill="#141413" font-size="12" font-family="monospace">r</text>
<text x="378.0" y="52.0" fill="#141413" font-size="12" font-family="monospace">o</text>
<text x="388.5" y="52.0" fill="#141413" font-size="12" font-family="monospace">m</text>
<text x="399.0" y="52.0" fill="#141413" font-size="12" font-family="monospace">p</text>
<text x="409.5" y="52.0" fill="#141413" font-size="12" font-family="monospace">t</text>
<text x="420.0" y="52.0" fill="#141413" font-size="12" font-family="monospace">库</text>
<text x="430.5" y="52.0" fill="#141413" font-size="12" font-family="monospace">说</text>
<text x="441.0" y="52.0" fill="#141413" font-size="12" font-family="monospace">明</text>
<polyline points="30.5,57.0 20.0,57.0 20.0,75.5" fill="none" stroke="#141413" stroke-width="1.5"/>
<line x1="30.5" y1="66.2" x2="20.0" y2="66.2" stroke="#141413" stroke-width="1.5"/>
<line x1="30.5" y1="66.2" x2="41.0" y2="66.2" stroke="#141413" stroke-width="1.5"/>
<line x1="41.0" y1="66.2" x2="51.5" y2="66.2" stroke="#141413" stroke-width="1.5"/>
<text x="63.0" y="70.5" fill="#141413" font-size="12" font-family="monospace">C</text>
<text x="73.5" y="70.5" fill="#141413" font-size="12" font-family="monospace">O</text>
<text x="84.0" y="70.5" fill="#141413" font-size="12" font-family="monospace">N</text>
<text x="94.5" y="70.5" fill="#141413" font-size="12" font-family="monospace">T</text>
<text x="105.0" y="70.5" fill="#141413" font-size="12" font-family="monospace">R</text>
<text x="115.5" y="70.5" fill="#141413" font-size="12" font-family="monospace">I</text>
<text x="126.0" y="70.5" fill="#141413" font-size="12" font-family="monospace">B</text>
<text x="136.5" y="70.5" fill="#141413" font-size="12" font-family="monospace">U</text>
<text x="147.0" y="70.5" fill="#141413" font-size="12" font-family="monospace">T</text>
<text x="157.5" y="70.5" fill="#141413" font-size="12" font-family="monospace">I</text>
<text x="168.0" y="70.5" fill="#141413" font-size="12" font-family="monospace">N</text>
<text x="178.5" y="70.5" fill="#141413" font-size="12" font-family="monospace">G</text>
<text x="189.0" y="70.5" fill="#141413" font-size="12" font-family="monospace">.</text>
<text x="199.5" y="70.5" fill="#141413" font-size="12" font-family="monospace">m</text>
<text x="210.0" y="70.5" fill="#141413" font-size="12" font-family="monospace">d</text>
<text x="336.0" y="70.5" fill="#141413" font-size="12" font-family="monospace">#</text>
<text x="357.0" y="70.5" fill="#141413" font-size="12" font-family="monospace">贡</text>
<text x="367.5" y="70.5" fill="#141413" font-size="12" font-family="monospace">献</text>
<text x="378.0" y="70.5" fill="#141413" font-size="12" font-family="monospace">指</text>
<text x="388.5" y="70.5" fill="#141413" font-size="12" font-family="monospace">南</text>
<polyline points="30.5,75.5 20.0,75.5 20.0,94.0" fill="none" stroke="#141413" stroke-width="1.5"/>
<line x1="30.5" y1="84.8" x2="20.0" y2="84.8" stroke="#141413" stroke-width="1.5"/>
<line x1="30.5" y1="84.8" x2="41.0" y2="84.8" stroke="#141413" stroke-width="1.5"/>
<line x1="41.0" y1="84.8" x2="51.5" y2="84.8" stroke="#141413" stroke-width="1.5"/>
<text x="63.0" y="89.0" fill="#141413" font-size="12" font-family="monospace">.</text>
<text x="73.5" y="89.0" fill="#141413" font-size="12" font-family="monospace">p</text>
<text x="84.0" y="89.0" fill="#141413" font-size="12" font-family="monospace">r</text>
<text x="94.5" y="89.0" fill="#141413" font-size="12" font-family="monospace">o</text>
<text x="105.0" y="89.0" fill="#141413" font-size="12" font-family="monospace">m</text>
<text x="115.5" y="89.0" fill="#141413" font-size="12" font-family="monospace">p</text>
<text x="126.0" y="89.0" fill="#141413" font-size="12" font-family="monospace">t</text>
<text x="136.5" y="89.0" fill="#141413" font-size="12" font-family="monospace">-</text>
<text x="147.0" y="89.0" fill="#141413" font-size="12" font-family="monospace">l</text>
<text x="157.5" y="89.0" fill="#141413" font-size="12" font-family="monospace">i</text>
<text x="168.0" y="89.0" fill="#141413" font-size="12" font-family="monospace">n</text>
<text x="178.5" y="89.0" fill="#141413" font-size="12" font-family="monospace">t</text>
<text x="189.0" y="89.0" fill="#141413" font-size="12" font-family="monospace">.</text>
<text x="199.5" y="89.0" fill="#141413" font-size="12" font-family="monospace">y</text>
<text x="210.0" y="89.0" fill="#141413" font-size="12" font-family="monospace">m</text>
<text x="220.5" y="89.0" fill="#141413" font-size="12" font-family="monospace">l</text>
<text x="325.5" y="89.0" fill="#141413" font-size="12" font-family="monospace">#</text>
<text x="346.5" y="89.0" fill="#141413" font-size="12" font-family="monospace">P</text>
<text x="357.0" y="89.0" fill="#141413" font-size="12" font-family="monospace">r</text>
<text x="367.5" y="89.0" fill="#141413" font-size="12" font-family="monospace">o</text>
<text x="378.0" y="89.0" fill="#141413" font-size="12" font-family="monospace">m</text>
<text x="388.5" y="89.0" fill="#141413" font-size="12" font-family="monospace">p</text>
<text x="399.0" y="89.0" fill="#141413" font-size="12" font-family="monospace">t</text>
<text x="409.5" y="89.0" fill="#141413" font-size="12" font-family="monospace">质</text>
<text x="420.0" y="89.0" fill="#141413" font-size="12" font-family="monospace">量</text>
<text x="430.5" y="89.0" fill="#141413" font-size="12" font-family="monospace">规</text>
<text x="441.0" y="89.0" fill="#141413" font-size="12" font-family="monospace">则</text>
<polyline points="30.5,94.0 20.0,94.0 20.0,112.5" fill="none" stroke="#141413" stroke-width="1.5"/>
<line x1="30.5" y1="103.2" x2="20.0" y2="103.2" stroke="#141413" stroke-width="1.5"/>
<line x1="30.5" y1="103.2" x2="41.0" y2="103.2" stroke="#141413" stroke-width="1.5"/>
<line x1="41.0" y1="103.2" x2="51.5" y2="103.2" stroke="#141413" stroke-width="1.5"/>
<text x="63.0" y="107.5" fill="#141413" font-size="12" font-family="monospace">c</text>
<text x="73.5" y="107.5" fill="#141413" font-size="12" font-family="monospace">o</text>
<text x="84.0" y="107.5" fill="#141413" font-size="12" font-family="monospace">m</text>
<text x="94.5" y="107.5" fill="#141413" font-size="12" font-family="monospace">m</text>
<text x="105.0" y="107.5" fill="#141413" font-size="12" font-family="monospace">o</text>
<text x="115.5" y="107.5" fill="#141413" font-size="12" font-family="monospace">n</text>
<text x="126.0" y="107.5" fill="#141413" font-size="12" font-family="monospace">/</text>
<text x="336.0" y="107.5" fill="#141413" font-size="12" font-family="monospace">#</text>
<text x="357.0" y="107.5" fill="#141413" font-size="12" font-family="monospace">通</text>
<text x="367.5" y="107.5" fill="#141413" font-size="12" font-family="monospace">用</text>
<text x="378.0" y="107.5" fill="#141413" font-size="12" font-family="monospace">P</text>
<text x="388.5" y="107.5" fill="#141413" font-size="12" font-family="monospace">r</text>
<text x="399.0" y="107.5" fill="#141413" font-size="12" font-family="monospace">o</text>
<text x="409.5" y="107.5" fill="#141413" font-size="12" font-family="monospace">m</text>
<text x="420.0" y="107.5" fill="#141413" font-size="12" font-family="monospace">p</text>
<text x="430.5" y="107.5" fill="#141413" font-size="12" font-family="monospace">t</text>
<line x1="24.8" y1="112.5" x2="24.8" y2="131.0" stroke="#141413" stroke-width="1.5"/>
<polyline points="72.5,112.5 62.0,112.5 62.0,131.0" fill="none" stroke="#141413" stroke-width="1.5"/>
<line x1="72.5" y1="121.8" x2="62.0" y2="121.8" stroke="#141413" stroke-width="1.5"/>
<line x1="72.5" y1="121.8" x2="83.0" y2="121.8" stroke="#141413" stroke-width="1.5"/>
<line x1="83.0" y1="121.8" x2="93.5" y2="121.8" stroke="#141413" stroke-width="1.5"/>
<text x="105.0" y="126.0" fill="#141413" font-size="12" font-family="monospace">c</text>
<text x="115.5" y="126.0" fill="#141413" font-size="12" font-family="monospace">o</text>
<text x="126.0" y="126.0" fill="#141413" font-size="12" font-family="monospace">d</text>
<text x="136.5" y="126.0" fill="#141413" font-size="12" font-family="monospace">e</text>
<text x="147.0" y="126.0" fill="#141413" font-size="12" font-family="monospace">-</text>
<text x="157.5" y="126.0" fill="#141413" font-size="12" font-family="monospace">r</text>
<text x="168.0" y="126.0" fill="#141413" font-size="12" font-family="monospace">e</text>
<text x="178.5" y="126.0" fill="#141413" font-size="12" font-family="monospace">v</text>
<text x="189.0" y="126.0" fill="#141413" font-size="12" font-family="monospace">i</text>
<text x="199.5" y="126.0" fill="#141413" font-size="12" font-family="monospace">e</text>
<text x="210.0" y="126.0" fill="#141413" font-size="12" font-family="monospace">w</text>
<text x="220.5" y="126.0" fill="#141413" font-size="12" font-family="monospace">/</text>
<line x1="24.8" y1="131.0" x2="24.8" y2="149.5" stroke="#141413" stroke-width="1.5"/>
<line x1="66.8" y1="131.0" x2="66.8" y2="149.5" stroke="#141413" stroke-width="1.5"/>
<polyline points="114.5,131.0 104.0,131.0 104.0,149.5" fill="none" stroke="#141413" stroke-width="1.5"/>
<line x1="114.5" y1="140.2" x2="104.0" y2="140.2" stroke="#141413" stroke-width="1.5"/>
<line x1="114.5" y1="140.2" x2="125.0" y2="140.2" stroke="#141413" stroke-width="1.5"/>
<line x1="125.0" y1="140.2" x2="135.5" y2="140.2" stroke="#141413" stroke-width="1.5"/>
<text x="147.0" y="144.5" fill="#141413" font-size="12" font-family="monospace">v</text>
<text x="157.5" y="144.5" fill="#141413" font-size="12" font-family="monospace">1</text>
<text x="168.0" y="144.5" fill="#141413" font-size="12" font-family="monospace">.</text>
<text x="178.5" y="144.5" fill="#141413" font-size="12" font-family="monospace">0</text>
<text x="189.0" y="144.5" fill="#141413" font-size="12" font-family="monospace">.</text>
<text x="199.5" y="144.5" fill="#141413" font-size="12" font-family="monospace">0</text>
<text x="210.0" y="144.5" fill="#141413" font-size="12" font-family="monospace">.</text>
<text x="220.5" y="144.5" fill="#141413" font-size="12" font-family="monospace">p</text>
<text x="231.0" y="144.5" fill="#141413" font-size="12" font-family="monospace">r</text>
<text x="241.5" y="144.5" fill="#141413" font-size="12" font-family="monospace">o</text>
<text x="252.0" y="144.5" fill="#141413" font-size="12" font-family="monospace">m</text>
<text x="262.5" y="144.5" fill="#141413" font-size="12" font-family="monospace">p</text>
<text x="273.0" y="144.5" fill="#141413" font-size="12" font-family="monospace">t</text>
<text x="325.5" y="144.5" fill="#141413" font-size="12" font-family="monospace">#</text>
<text x="346.5" y="144.5" fill="#141413" font-size="12" font-family="monospace">版</text>
<text x="357.0" y="144.5" fill="#141413" font-size="12" font-family="monospace">本</text>
<text x="367.5" y="144.5" fill="#141413" font-size="12" font-family="monospace">化</text>
<text x="378.0" y="144.5" fill="#141413" font-size="12" font-family="monospace">存</text>
<text x="388.5" y="144.5" fill="#141413" font-size="12" font-family="monospace">储</text>
<line x1="24.8" y1="149.5" x2="24.8" y2="168.0" stroke="#141413" stroke-width="1.5"/>
<line x1="66.8" y1="149.5" x2="66.8" y2="168.0" stroke="#141413" stroke-width="1.5"/>
<polyline points="114.5,149.5 104.0,149.5 104.0,168.0" fill="none" stroke="#141413" stroke-width="1.5"/>
<line x1="114.5" y1="158.8" x2="104.0" y2="158.8" stroke="#141413" stroke-width="1.5"/>
<line x1="114.5" y1="158.8" x2="125.0" y2="158.8" stroke="#141413" stroke-width="1.5"/>
<line x1="125.0" y1="158.8" x2="135.5" y2="158.8" stroke="#141413" stroke-width="1.5"/>
<text x="147.0" y="163.0" fill="#141413" font-size="12" font-family="monospace">v</text>
<text x="157.5" y="163.0" fill="#141413" font-size="12" font-family="monospace">1</text>
<text x="168.0" y="163.0" fill="#141413" font-size="12" font-family="monospace">.</text>
<text x="178.5" y="163.0" fill="#141413" font-size="12" font-family="monospace">1</text>
<text x="189.0" y="163.0" fill="#141413" font-size="12" font-family="monospace">.</text>
<text x="199.5" y="163.0" fill="#141413" font-size="12" font-family="monospace">0</text>
<text x="210.0" y="163.0" fill="#141413" font-size="12" font-family="monospace">.</text>
<text x="220.5" y="163.0" fill="#141413" font-size="12" font-family="monospace">p</text>
<text x="231.0" y="163.0" fill="#141413" font-size="12" font-family="monospace">r</text>
<text x="241.5" y="163.0" fill="#141413" font-size="12" font-family="monospace">o</text>
<text x="252.0" y="163.0" fill="#141413" font-size="12" font-family="monospace">m</text>
<text x="262.5" y="163.0" fill="#141413" font-size="12" font-family="monospace">p</text>
<text x="273.0" y="163.0" fill="#141413" font-size="12" font-family="monospace">t</text>
<line x1="24.8" y1="168.0" x2="24.8" y2="186.5" stroke="#141413" stroke-width="1.5"/>
<line x1="66.8" y1="168.0" x2="66.8" y2="186.5" stroke="#141413" stroke-width="1.5"/>
<polyline points="114.5,168.0 104.0,168.0 104.0,177.2" fill="none" stroke="#141413" stroke-width="1.5"/>
<line x1="114.5" y1="177.2" x2="125.0" y2="177.2" stroke="#141413" stroke-width="1.5"/>
<line x1="125.0" y1="177.2" x2="135.5" y2="177.2" stroke="#141413" stroke-width="1.5"/>
<text x="147.0" y="181.5" fill="#141413" font-size="12" font-family="monospace">l</text>
<text x="157.5" y="181.5" fill="#141413" font-size="12" font-family="monospace">a</text>
<text x="168.0" y="181.5" fill="#141413" font-size="12" font-family="monospace">t</text>
<text x="178.5" y="181.5" fill="#141413" font-size="12" font-family="monospace">e</text>
<text x="189.0" y="181.5" fill="#141413" font-size="12" font-family="monospace">s</text>
<text x="199.5" y="181.5" fill="#141413" font-size="12" font-family="monospace">t</text>
<text x="210.0" y="181.5" fill="#141413" font-size="12" font-family="monospace">.</text>
<text x="220.5" y="181.5" fill="#141413" font-size="12" font-family="monospace">p</text>
<text x="231.0" y="181.5" fill="#141413" font-size="12" font-family="monospace">r</text>
<text x="241.5" y="181.5" fill="#141413" font-size="12" font-family="monospace">o</text>
<text x="252.0" y="181.5" fill="#141413" font-size="12" font-family="monospace">m</text>
<text x="262.5" y="181.5" fill="#141413" font-size="12" font-family="monospace">p</text>
<text x="273.0" y="181.5" fill="#141413" font-size="12" font-family="monospace">t</text>
<text x="294.0" y="181.5" fill="#141413" font-size="12" font-family="monospace">→</text>
<text x="315.0" y="181.5" fill="#141413" font-size="12" font-family="monospace">v</text>
<text x="325.5" y="181.5" fill="#141413" font-size="12" font-family="monospace">1</text>
<text x="336.0" y="181.5" fill="#141413" font-size="12" font-family="monospace">.</text>
<text x="346.5" y="181.5" fill="#141413" font-size="12" font-family="monospace">1</text>
<text x="357.0" y="181.5" fill="#141413" font-size="12" font-family="monospace">.</text>
<text x="367.5" y="181.5" fill="#141413" font-size="12" font-family="monospace">0</text>
<text x="378.0" y="181.5" fill="#141413" font-size="12" font-family="monospace">.</text>
<text x="388.5" y="181.5" fill="#141413" font-size="12" font-family="monospace">p</text>
<text x="399.0" y="181.5" fill="#141413" font-size="12" font-family="monospace">r</text>
<text x="409.5" y="181.5" fill="#141413" font-size="12" font-family="monospace">o</text>
<text x="420.0" y="181.5" fill="#141413" font-size="12" font-family="monospace">m</text>
<text x="430.5" y="181.5" fill="#141413" font-size="12" font-family="monospace">p</text>
<text x="441.0" y="181.5" fill="#141413" font-size="12" font-family="monospace">t</text>
<text x="472.5" y="181.5" fill="#141413" font-size="12" font-family="monospace">#</text>
<text x="493.5" y="181.5" fill="#141413" font-size="12" font-family="monospace">软</text>
<text x="504.0" y="181.5" fill="#141413" font-size="12" font-family="monospace">链</text>
<text x="514.5" y="181.5" fill="#141413" font-size="12" font-family="monospace">接</text>
<line x1="24.8" y1="186.5" x2="24.8" y2="205.0" stroke="#141413" stroke-width="1.5"/>
<polyline points="72.5,186.5 62.0,186.5 62.0,195.8" fill="none" stroke="#141413" stroke-width="1.5"/>
<line x1="72.5" y1="195.8" x2="83.0" y2="195.8" stroke="#141413" stroke-width="1.5"/>
<line x1="83.0" y1="195.8" x2="93.5" y2="195.8" stroke="#141413" stroke-width="1.5"/>
<text x="105.0" y="200.0" fill="#141413" font-size="12" font-family="monospace">u</text>
<text x="115.5" y="200.0" fill="#141413" font-size="12" font-family="monospace">n</text>
<text x="126.0" y="200.0" fill="#141413" font-size="12" font-family="monospace">i</text>
<text x="136.5" y="200.0" fill="#141413" font-size="12" font-family="monospace">t</text>
<text x="147.0" y="200.0" fill="#141413" font-size="12" font-family="monospace">-</text>
<text x="157.5" y="200.0" fill="#141413" font-size="12" font-family="monospace">t</text>
<text x="168.0" y="200.0" fill="#141413" font-size="12" font-family="monospace">e</text>
<text x="178.5" y="200.0" fill="#141413" font-size="12" font-family="monospace">s</text>
<text x="189.0" y="200.0" fill="#141413" font-size="12" font-family="monospace">t</text>
<text x="199.5" y="200.0" fill="#141413" font-size="12" font-family="monospace">/</text>
<polyline points="30.5,205.0 20.0,205.0 20.0,223.5" fill="none" stroke="#141413" stroke-width="1.5"/>
<line x1="30.5" y1="214.2" x2="20.0" y2="214.2" stroke="#141413" stroke-width="1.5"/>
<line x1="30.5" y1="214.2" x2="41.0" y2="214.2" stroke="#141413" stroke-width="1.5"/>
<line x1="41.0" y1="214.2" x2="51.5" y2="214.2" stroke="#141413" stroke-width="1.5"/>
<text x="63.0" y="218.5" fill="#141413" font-size="12" font-family="monospace">b</text>
<text x="73.5" y="218.5" fill="#141413" font-size="12" font-family="monospace">a</text>
<text x="84.0" y="218.5" fill="#141413" font-size="12" font-family="monospace">c</text>
<text x="94.5" y="218.5" fill="#141413" font-size="12" font-family="monospace">k</text>
<text x="105.0" y="218.5" fill="#141413" font-size="12" font-family="monospace">e</text>
<text x="115.5" y="218.5" fill="#141413" font-size="12" font-family="monospace">n</text>
<text x="126.0" y="218.5" fill="#141413" font-size="12" font-family="monospace">d</text>
<text x="136.5" y="218.5" fill="#141413" font-size="12" font-family="monospace">/</text>
<text x="336.0" y="218.5" fill="#141413" font-size="12" font-family="monospace">#</text>
<text x="357.0" y="218.5" fill="#141413" font-size="12" font-family="monospace">后</text>
<text x="367.5" y="218.5" fill="#141413" font-size="12" font-family="monospace">端</text>
<text x="378.0" y="218.5" fill="#141413" font-size="12" font-family="monospace">团</text>
<text x="388.5" y="218.5" fill="#141413" font-size="12" font-family="monospace">队</text>
<text x="399.0" y="218.5" fill="#141413" font-size="12" font-family="monospace">P</text>
<text x="409.5" y="218.5" fill="#141413" font-size="12" font-family="monospace">r</text>
<text x="420.0" y="218.5" fill="#141413" font-size="12" font-family="monospace">o</text>
<text x="430.5" y="218.5" fill="#141413" font-size="12" font-family="monospace">m</text>
<text x="441.0" y="218.5" fill="#141413" font-size="12" font-family="monospace">p</text>
<text x="451.5" y="218.5" fill="#141413" font-size="12" font-family="monospace">t</text>
<line x1="24.8" y1="223.5" x2="24.8" y2="242.0" stroke="#141413" stroke-width="1.5"/>
<polyline points="72.5,223.5 62.0,223.5 62.0,232.8" fill="none" stroke="#141413" stroke-width="1.5"/>
<line x1="72.5" y1="232.8" x2="83.0" y2="232.8" stroke="#141413" stroke-width="1.5"/>
<line x1="83.0" y1="232.8" x2="93.5" y2="232.8" stroke="#141413" stroke-width="1.5"/>
<text x="105.0" y="237.0" fill="#141413" font-size="12" font-family="monospace">a</text>
<text x="115.5" y="237.0" fill="#141413" font-size="12" font-family="monospace">p</text>
<text x="126.0" y="237.0" fill="#141413" font-size="12" font-family="monospace">i</text>
<text x="136.5" y="237.0" fill="#141413" font-size="12" font-family="monospace">-</text>
<text x="147.0" y="237.0" fill="#141413" font-size="12" font-family="monospace">d</text>
<text x="157.5" y="237.0" fill="#141413" font-size="12" font-family="monospace">e</text>
<text x="168.0" y="237.0" fill="#141413" font-size="12" font-family="monospace">s</text>
<text x="178.5" y="237.0" fill="#141413" font-size="12" font-family="monospace">i</text>
<text x="189.0" y="237.0" fill="#141413" font-size="12" font-family="monospace">g</text>
<text x="199.5" y="237.0" fill="#141413" font-size="12" font-family="monospace">n</text>
<text x="210.0" y="237.0" fill="#141413" font-size="12" font-family="monospace">/</text>
<polyline points="30.5,242.0 20.0,242.0 20.0,260.5" fill="none" stroke="#141413" stroke-width="1.5"/>
<line x1="30.5" y1="251.2" x2="20.0" y2="251.2" stroke="#141413" stroke-width="1.5"/>
<line x1="30.5" y1="251.2" x2="41.0" y2="251.2" stroke="#141413" stroke-width="1.5"/>
<line x1="41.0" y1="251.2" x2="51.5" y2="251.2" stroke="#141413" stroke-width="1.5"/>
<text x="63.0" y="255.5" fill="#141413" font-size="12" font-family="monospace">f</text>
<text x="73.5" y="255.5" fill="#141413" font-size="12" font-family="monospace">r</text>
<text x="84.0" y="255.5" fill="#141413" font-size="12" font-family="monospace">o</text>
<text x="94.5" y="255.5" fill="#141413" font-size="12" font-family="monospace">n</text>
<text x="105.0" y="255.5" fill="#141413" font-size="12" font-family="monospace">t</text>
<text x="115.5" y="255.5" fill="#141413" font-size="12" font-family="monospace">e</text>
<text x="126.0" y="255.5" fill="#141413" font-size="12" font-family="monospace">n</text>
<text x="136.5" y="255.5" fill="#141413" font-size="12" font-family="monospace">d</text>
<text x="147.0" y="255.5" fill="#141413" font-size="12" font-family="monospace">/</text>
<text x="336.0" y="255.5" fill="#141413" font-size="12" font-family="monospace">#</text>
<text x="357.0" y="255.5" fill="#141413" font-size="12" font-family="monospace">前</text>
<text x="367.5" y="255.5" fill="#141413" font-size="12" font-family="monospace">端</text>
<text x="378.0" y="255.5" fill="#141413" font-size="12" font-family="monospace">团</text>
<text x="388.5" y="255.5" fill="#141413" font-size="12" font-family="monospace">队</text>
<text x="399.0" y="255.5" fill="#141413" font-size="12" font-family="monospace">P</text>
<text x="409.5" y="255.5" fill="#141413" font-size="12" font-family="monospace">r</text>
<text x="420.0" y="255.5" fill="#141413" font-size="12" font-family="monospace">o</text>
<text x="430.5" y="255.5" fill="#141413" font-size="12" font-family="monospace">m</text>
<text x="441.0" y="255.5" fill="#141413" font-size="12" font-family="monospace">p</text>
<text x="451.5" y="255.5" fill="#141413" font-size="12" font-family="monospace">t</text>
<line x1="24.8" y1="260.5" x2="24.8" y2="279.0" stroke="#141413" stroke-width="1.5"/>
<polyline points="72.5,260.5 62.0,260.5 62.0,269.8" fill="none" stroke="#141413" stroke-width="1.5"/>
<line x1="72.5" y1="269.8" x2="83.0" y2="269.8" stroke="#141413" stroke-width="1.5"/>
<line x1="83.0" y1="269.8" x2="93.5" y2="269.8" stroke="#141413" stroke-width="1.5"/>
<text x="105.0" y="274.0" fill="#141413" font-size="12" font-family="monospace">c</text>
<text x="115.5" y="274.0" fill="#141413" font-size="12" font-family="monospace">o</text>
<text x="126.0" y="274.0" fill="#141413" font-size="12" font-family="monospace">m</text>
<text x="136.5" y="274.0" fill="#141413" font-size="12" font-family="monospace">p</text>
<text x="147.0" y="274.0" fill="#141413" font-size="12" font-family="monospace">o</text>
<text x="157.5" y="274.0" fill="#141413" font-size="12" font-family="monospace">n</text>
<text x="168.0" y="274.0" fill="#141413" font-size="12" font-family="monospace">e</text>
<text x="178.5" y="274.0" fill="#141413" font-size="12" font-family="monospace">n</text>
<text x="189.0" y="274.0" fill="#141413" font-size="12" font-family="monospace">t</text>
<text x="199.5" y="274.0" fill="#141413" font-size="12" font-family="monospace">-</text>
<text x="210.0" y="274.0" fill="#141413" font-size="12" font-family="monospace">g</text>
<text x="220.5" y="274.0" fill="#141413" font-size="12" font-family="monospace">e</text>
<text x="231.0" y="274.0" fill="#141413" font-size="12" font-family="monospace">n</text>
<text x="241.5" y="274.0" fill="#141413" font-size="12" font-family="monospace">/</text>
<polyline points="30.5,279.0 20.0,279.0 20.0,288.2" fill="none" stroke="#141413" stroke-width="1.5"/>
<line x1="30.5" y1="288.2" x2="41.0" y2="288.2" stroke="#141413" stroke-width="1.5"/>
<line x1="41.0" y1="288.2" x2="51.5" y2="288.2" stroke="#141413" stroke-width="1.5"/>
<text x="63.0" y="292.5" fill="#141413" font-size="12" font-family="monospace">d</text>
<text x="73.5" y="292.5" fill="#141413" font-size="12" font-family="monospace">e</text>
<text x="84.0" y="292.5" fill="#141413" font-size="12" font-family="monospace">p</text>
<text x="94.5" y="292.5" fill="#141413" font-size="12" font-family="monospace">r</text>
<text x="105.0" y="292.5" fill="#141413" font-size="12" font-family="monospace">e</text>
<text x="115.5" y="292.5" fill="#141413" font-size="12" font-family="monospace">c</text>
<text x="126.0" y="292.5" fill="#141413" font-size="12" font-family="monospace">a</text>
<text x="136.5" y="292.5" fill="#141413" font-size="12" font-family="monospace">t</text>
<text x="147.0" y="292.5" fill="#141413" font-size="12" font-family="monospace">e</text>
<text x="157.5" y="292.5" fill="#141413" font-size="12" font-family="monospace">d</text>
<text x="168.0" y="292.5" fill="#141413" font-size="12" font-family="monospace">/</text>
<text x="336.0" y="292.5" fill="#141413" font-size="12" font-family="monospace">#</text>
<text x="357.0" y="292.5" fill="#141413" font-size="12" font-family="monospace">废</text>
<text x="367.5" y="292.5" fill="#141413" font-size="12" font-family="monospace">弃</text>
<text x="378.0" y="292.5" fill="#141413" font-size="12" font-family="monospace">P</text>
<text x="388.5" y="292.5" fill="#141413" font-size="12" font-family="monospace">r</text>
<text x="399.0" y="292.5" fill="#141413" font-size="12" font-family="monospace">o</text>
<text x="409.5" y="292.5" fill="#141413" font-size="12" font-family="monospace">m</text>
<text x="420.0" y="292.5" fill="#141413" font-size="12" font-family="monospace">p</text>
<text x="430.5" y="292.5" fill="#141413" font-size="12" font-family="monospace">t</text>
<polyline points="72.5,297.5 62.0,297.5 62.0,306.8" fill="none" stroke="#141413" stroke-width="1.5"/>
<line x1="72.5" y1="306.8" x2="83.0" y2="306.8" stroke="#141413" stroke-width="1.5"/>
<line x1="83.0" y1="306.8" x2="93.5" y2="306.8" stroke="#141413" stroke-width="1.5"/>
<text x="105.0" y="311.0" fill="#141413" font-size="12" font-family="monospace">R</text>
<text x="115.5" y="311.0" fill="#141413" font-size="12" font-family="monospace">E</text>
<text x="126.0" y="311.0" fill="#141413" font-size="12" font-family="monospace">A</text>
<text x="136.5" y="311.0" fill="#141413" font-size="12" font-family="monospace">D</text>
<text x="147.0" y="311.0" fill="#141413" font-size="12" font-family="monospace">M</text>
<text x="157.5" y="311.0" fill="#141413" font-size="12" font-family="monospace">E</text>
<text x="168.0" y="311.0" fill="#141413" font-size="12" font-family="monospace">.</text>
<text x="178.5" y="311.0" fill="#141413" font-size="12" font-family="monospace">m</text>
<text x="189.0" y="311.0" fill="#141413" font-size="12" font-family="monospace">d</text>
<text x="336.0" y="311.0" fill="#141413" font-size="12" font-family="monospace">#</text>
<text x="357.0" y="311.0" fill="#141413" font-size="12" font-family="monospace">废</text>
<text x="367.5" y="311.0" fill="#141413" font-size="12" font-family="monospace">弃</text>
<text x="378.0" y="311.0" fill="#141413" font-size="12" font-family="monospace">原</text>
<text x="388.5" y="311.0" fill="#141413" font-size="12" font-family="monospace">因</text>
<text x="399.0" y="311.0" fill="#141413" font-size="12" font-family="monospace">说</text>
<text x="409.5" y="311.0" fill="#141413" font-size="12" font-family="monospace">明</text>

</svg>