<svg xmlns="http://www.w3.org/2000/svg" font-family="ui-serif, Georgia, serif" viewBox="0 0 680 360">
  <path fill="#faf9f5" d="M0 0h680v360H0z"/>
  <text x="340" y="26" fill="#141413" font-size="14" font-weight="500" letter-spacing="-.02em" text-anchor="middle">Schema 版本的演进</text>
  <text x="340" y="42" fill="#87867f" font-family="ui-monospace, monospace" font-size="10" text-anchor="middle">字段结构随时间扩展与迁移</text>
  <rect width="180" height="120" x="40" y="65" fill="#fff" stroke="#d1cfc5" stroke-width="1.5" rx="8"/>
  <text x="130" y="87" fill="#d97757" font-family="ui-monospace, monospace" font-size="11" font-weight="600" text-anchor="middle">Schema v1.0</text>
  <text x="130" y="103" fill="#87867f" font-family="ui-monospace, monospace" font-size="9" text-anchor="middle">初始版本 · 2020</text>
  <rect width="148" height="20" x="56" y="113" fill="#f0eee6" stroke="#d1cfc5" rx="4"/>
  <text x="64" y="126" fill="#141413" font-family="ui-monospace, monospace" font-size="9">content</text>
  <rect width="148" height="20" x="56" y="137" fill="#f0eee6" stroke="#d1cfc5" rx="4"/>
  <text x="64" y="150" fill="#141413" font-family="ui-monospace, monospace" font-size="9">source</text>
  <rect width="148" height="20" x="56" y="161" fill="#f0eee6" stroke="#d1cfc5" rx="4"/>
  <text x="64" y="174" fill="#141413" font-family="ui-monospace, monospace" font-size="9">version</text>
  <path stroke="#d1cfc5" stroke-width="1.8" d="M220 125h30"/>
  <path fill="#d1cfc5" d="m250 121-7 4 7 4z"/>
  <text x="235" y="117" fill="#87867f" font-family="ui-monospace, monospace" font-size="8" text-anchor="middle">Migration</text>
  <text x="235" y="144" fill="#87867f" font-family="ui-monospace, monospace" font-size="8" text-anchor="middle">Script v1→v2</text>
  <rect width="180" height="120" x="260" y="65" fill="#fff" stroke="#d97757" stroke-width="1.8" rx="8"/>
  <text x="350" y="87" fill="#d97757" font-family="ui-monospace, monospace" font-size="11" font-weight="600" text-anchor="middle">Schema v2.0</text>
  <text x="350" y="103" fill="#87867f" font-family="ui-monospace, monospace" font-size="9" text-anchor="middle">+valid_until · 2023.10</text>
  <rect width="148" height="20" x="276" y="113" fill="#f0eee6" stroke="#d1cfc5" rx="4"/>
  <text x="284" y="126" fill="#141413" font-family="ui-monospace, monospace" font-size="9">content</text>
  <rect width="148" height="20" x="276" y="137" fill="#f0eee6" stroke="#d1cfc5" rx="4"/>
  <text x="284" y="150" fill="#141413" font-family="ui-monospace, monospace" font-size="9">source</text>
  <rect width="148" height="20" x="276" y="161" fill="#f0eee6" stroke="#d1cfc5" rx="4"/>
  <text x="284" y="174" fill="#141413" font-family="ui-monospace, monospace" font-size="9">version</text>
  <rect width="148" height="20" x="276" y="185" fill="#d97757" fill-opacity=".12" stroke="#d97757" stroke-width="1.5" rx="4"/>
  <text x="284" y="198" fill="#d97757" font-family="ui-monospace, monospace" font-size="9" font-weight="600">valid_until ← NEW</text>
  <path stroke="#d1cfc5" stroke-width="1.8" d="M440 125h30"/>
  <path fill="#d1cfc5" d="m470 121-7 4 7 4z"/>
  <text x="455" y="117" fill="#87867f" font-family="ui-monospace, monospace" font-size="8" text-anchor="middle">Migration</text>
  <text x="455" y="144" fill="#87867f" font-family="ui-monospace, monospace" font-size="8" text-anchor="middle">Script v2→v3</text>
  <rect width="180" height="140" x="480" y="65" fill="#fff" stroke="#788c5d" stroke-width="1.8" rx="8"/>
  <text x="570" y="87" fill="#788c5d" font-family="ui-monospace, monospace" font-size="11" font-weight="600" text-anchor="middle">Schema v3.0</text>
  <text x="570" y="103" fill="#87867f" font-family="ui-monospace, monospace" font-size="9" text-anchor="middle">+source_url, context_tags · 2024</text>
  <rect width="148" height="18" x="496" y="113" fill="#f0eee6" stroke="#d1cfc5" rx="4"/>
  <text x="504" y="125" fill="#141413" font-family="ui-monospace, monospace" font-size="9">content</text>
  <rect width="148" height="18" x="496" y="133" fill="#f0eee6" stroke="#d1cfc5" rx="4"/>
  <text x="504" y="145" fill="#141413" font-family="ui-monospace, monospace" font-size="9">source</text>
  <rect width="148" height="18" x="496" y="153" fill="#f0eee6" stroke="#d1cfc5" rx="4"/>
  <text x="504" y="165" fill="#141413" font-family="ui-monospace, monospace" font-size="9">version</text>
  <rect width="148" height="18" x="496" y="173" fill="#f0eee6" stroke="#d1cfc5" rx="4"/>
  <text x="504" y="185" fill="#141413" font-family="ui-monospace, monospace" font-size="9">valid_until</text>
  <rect width="148" height="18" x="496" y="193" fill="#788c5d" fill-opacity=".12" stroke="#788c5d" stroke-width="1.5" rx="4"/>
  <text x="504" y="205" fill="#788c5d" font-family="ui-monospace, monospace" font-size="9" font-weight="600">source_url ← NEW</text>
  <rect width="148" height="18" x="496" y="213" fill="#788c5d" fill-opacity=".12" stroke="#788c5d" stroke-width="1.5" rx="4"/>
  <text x="504" y="225" fill="#788c5d" font-family="ui-monospace, monospace" font-size="9" font-weight="600">context_tags ← NEW</text>
  <rect width="620" height="80" x="40" y="265" fill="#f0eee6" stroke="#d1cfc5" stroke-width="1.5" rx="8"/>
  <text x="350" y="283" fill="#141413" font-family="ui-monospace, monospace" font-size="11" font-weight="600" text-anchor="middle">Migration Script 示例（Flyway 风格命名）</text>
  <text x="60" y="302" fill="#141413" font-family="ui-monospace, monospace" font-size="9">V1__init_schema.sql</text>
  <text x="60" y="316" fill="#87867f" font-size="8.5">CREATE TABLE memory (content, source, version);</text>
  <text x="270" y="302" fill="#d97757" font-family="ui-monospace, monospace" font-size="9">V2__add_valid_until.sql</text>
  <text x="270" y="316" fill="#87867f" font-size="8.5">ALTER TABLE memory ADD COLUMN valid_until TIMESTAMP;</text>
  <text x="490" y="302" fill="#788c5d" font-family="ui-monospace, monospace" font-size="9">V3__add_context.sql</text>
  <text x="490" y="316" fill="#87867f" font-size="8.5">ALTER TABLE memory ADD COLUMN source_url, context_tags;</text>
</svg>
