<svg xmlns="http://www.w3.org/2000/svg" aria-label="交付件模板关系图" viewBox="0 0 800 440">
  <title>AI-Native SDLC 交付件关系图</title>
  <desc>
    展示 8 种交付件模板之间的关系和层次
  </desc>
  <defs>
    <linearGradient id="bgGrad7" x1="0%" x2="0%" y1="0%" y2="100%">
      <stop offset="0%" stop-color="#faf9f5"/>
      <stop offset="100%" stop-color="#e3dacc"/>
    </linearGradient>
  </defs>
  <path fill="url(#bgGrad7)" d="M0 0h800v440H0z"/>
  <text x="400" y="30" fill="#141413" font-family="system-ui, sans-serif" font-size="17" font-weight="700" text-anchor="middle">AI-Native SDLC 交付件关系图</text>
  <text x="400" y="48" fill="#87867f" font-family="system-ui, sans-serif" font-size="11" text-anchor="middle">8 大模板，从战略到运营的完整闭环</text>
  <rect width="280" height="52" x="260" y="65" fill="#d97757" rx="8"/>
  <text x="400" y="88" fill="#faf9f5" font-family="system-ui, sans-serif" font-size="13" font-weight="700" text-anchor="middle">Product Intent</text>
  <text x="400" y="105" fill="#faf9f5" font-family="system-ui, sans-serif" font-size="10" text-anchor="middle">产品意图 · 业务目标</text>
  <path stroke="#d97757" stroke-width="2" d="M310 117v18"/>
  <path fill="#d97757" d="m310 142-5-8h10z"/>
  <path stroke="#d97757" stroke-width="2" d="M400 117v18"/>
  <path fill="#d97757" d="m400 142-5-8h10z"/>
  <path stroke="#d97757" stroke-width="2" d="M490 117v18"/>
  <path fill="#d97757" d="m490 142-5-8h10z"/>
  <rect width="260" height="52" x="60" y="145" fill="#faf9f5" stroke="#788c5d" stroke-width="2" rx="8"/>
  <rect width="260" height="24" x="60" y="145" fill="#788c5d" rx="8"/>
  <path fill="#788c5d" d="M60 161h260v8H60z"/>
  <text x="190" y="160" fill="#faf9f5" font-family="system-ui, sans-serif" font-size="11" font-weight="700" text-anchor="middle">User Story Pack</text>
  <text x="190" y="183" fill="#141413" font-family="system-ui, sans-serif" font-size="9" text-anchor="middle">用户故事包 · 验收即测试</text>
  <rect width="260" height="52" x="480" y="145" fill="#faf9f5" stroke="#5b8bd4" stroke-width="2" rx="8"/>
  <rect width="260" height="24" x="480" y="145" fill="#5b8bd4" rx="8"/>
  <path fill="#5b8bd4" d="M480 161h260v8H480z"/>
  <text x="610" y="160" fill="#faf9f5" font-family="system-ui, sans-serif" font-size="11" font-weight="700" text-anchor="middle">Architecture Spec</text>
  <text x="610" y="183" fill="#141413" font-family="system-ui, sans-serif" font-size="9" text-anchor="middle">架构规范 · 技术决策</text>
  <path stroke="#788c5d" stroke-width="1.5" d="m190 197 190 23"/>
  <path fill="#788c5d" d="m378 223-6-8 14 3z"/>
  <path stroke="#5b8bd4" stroke-width="1.5" d="m610 197-190 23"/>
  <path fill="#5b8bd4" d="m422 223 6-8-14 3z"/>
  <rect width="200" height="52" x="300" y="220" fill="#faf9f5" stroke="#141413" stroke-width="2.5" rx="8"/>
  <rect width="200" height="24" x="300" y="220" fill="#141413" rx="8"/>
  <path fill="#141413" d="M300 236h200v8H300z"/>
  <text x="400" y="235" fill="#faf9f5" font-family="system-ui, sans-serif" font-size="11" font-weight="700" text-anchor="middle">Execution Plan</text>
  <text x="400" y="258" fill="#141413" font-family="system-ui, sans-serif" font-size="9" text-anchor="middle">执行计划 · 任务拆解</text>
  <path stroke="#141413" stroke-width="1.5" d="m350 272-100 23"/>
  <path fill="#141413" d="m248 298 6-8-12 3z"/>
  <path stroke="#141413" stroke-width="1.5" d="M400 272v23"/>
  <path fill="#141413" d="m400 302-6-8h12z"/>
  <path stroke="#141413" stroke-width="1.5" d="m450 272 100 23"/>
  <path fill="#141413" d="m552 298-6-8 12 3z"/>
  <rect width="230" height="52" x="120" y="300" fill="#faf9f5" stroke="#d97757" stroke-width="2" rx="8"/>
  <rect width="230" height="24" x="120" y="300" fill="#d97757" rx="8"/>
  <path fill="#d97757" d="M120 316h230v8H120z"/>
  <text x="235" y="315" fill="#faf9f5" font-family="system-ui, sans-serif" font-size="11" font-weight="700" text-anchor="middle">Quality Contract</text>
  <text x="235" y="338" fill="#141413" font-family="system-ui, sans-serif" font-size="9" text-anchor="middle">质量契约 · 验收标准</text>
  <rect width="230" height="52" x="450" y="300" fill="#faf9f5" stroke="#d97757" stroke-width="2" rx="8"/>
  <rect width="230" height="24" x="450" y="300" fill="#d97757" rx="8"/>
  <path fill="#d97757" d="M450 316h230v8H450z"/>
  <text x="565" y="315" fill="#faf9f5" font-family="system-ui, sans-serif" font-size="11" font-weight="700" text-anchor="middle">Operations Runbook</text>
  <text x="565" y="338" fill="#141413" font-family="system-ui, sans-serif" font-size="9" text-anchor="middle">运维手册 · 故障剧本</text>
  <path stroke="#87867f" stroke-width="1.5" d="M320 352v18"/>
  <path fill="#87867f" d="m320 377-5-8h10z"/>
  <path stroke="#87867f" stroke-width="1.5" d="M480 352v18"/>
  <path fill="#87867f" d="m480 377-5-8h10z"/>
  <path stroke="#87867f" stroke-width="1.5" d="M320 374h160m0 0"/>
  <rect width="240" height="48" x="280" y="377" fill="#faf9f5" stroke="#87867f" stroke-width="2" rx="8"/>
  <rect width="240" height="22" x="280" y="377" fill="#87867f" rx="8"/>
  <path fill="#87867f" d="M280 391h240v8H280z"/>
  <text x="400" y="390" fill="#faf9f5" font-family="system-ui, sans-serif" font-size="11" font-weight="700" text-anchor="middle">Traceability Matrix</text>
  <text x="400" y="413" fill="#141413" font-family="system-ui, sans-serif" font-size="9" text-anchor="middle">追溯矩阵 · 需求到代码的全链路追踪</text>
  <text x="40" y="420" fill="#87867f" font-family="system-ui, sans-serif" font-size="9">虚线框：辅助交付件 | 实线框：核心交付件 | 箭头：依赖关系</text>
</svg>
