<svg xmlns="http://www.w3.org/2000/svg" font-family="ui-serif, Georgia, serif" viewBox="0 0 680 360">
  <title>AI架构评审的范式演进</title>
  <desc>
    从传统人工评审到AI-First范式的四个发展阶段
  </desc>
  <path fill="#faf9f5" d="M0 0h680v360H0z"/>
  <text x="340" y="28" fill="#141413" font-size="14" font-weight="500" letter-spacing="-.02em" text-anchor="middle">AI架构评审的范式演进</text>
  <text x="340" y="44" fill="#87867f" font-family="ui-monospace, monospace" font-size="10" text-anchor="middle">基于 Addy Osmani 框架改编</text>
  <rect width="145" height="200" x="30" y="70" fill="#fff" stroke="#d1cfc5" stroke-width="1.5" rx="8"/>
  <rect width="145" height="32" x="30" y="70" fill="#e3dacc" rx="8"/>
  <path fill="#e3dacc" d="M30 94h145v8H30z"/>
  <text x="102" y="90" fill="#141413" font-family="ui-monospace, monospace" font-size="11" font-weight="600" text-anchor="middle">传统人工评审</text>
  <text x="102" y="122" fill="#87867f" font-size="10" text-anchor="middle">评审方式</text>
  <text x="102" y="138" fill="#141413" font-size="9.5" text-anchor="middle">人查人</text>
  <text x="102" y="156" fill="#87867f" font-size="10" text-anchor="middle">决策依据</text>
  <text x="102" y="172" fill="#141413" font-size="9.5" text-anchor="middle">经验与直觉</text>
  <text x="102" y="190" fill="#87867f" font-size="10" text-anchor="middle">量化程度</text>
  <text x="102" y="206" fill="#141413" font-size="9.5" text-anchor="middle">定性为主</text>
  <text x="102" y="224" fill="#87867f" font-size="10" text-anchor="middle">AI角色</text>
  <text x="102" y="240" fill="#141413" font-size="9.5" text-anchor="middle">无</text>
  <rect width="65" height="14" x="70" y="248" fill="#f0eee6" stroke="#d1cfc5" rx="7"/>
  <text x="102" y="258" fill="#87867f" font-family="ui-monospace, monospace" font-size="8" text-anchor="middle">历史阶段</text>
  <path stroke="#d97757" stroke-width="2" d="M175 170h25"/>
  <path fill="#d97757" d="m200 166-8 4v4z"/>
  <text x="187" y="160" fill="#d97757" font-family="ui-monospace, monospace" font-size="8" text-anchor="middle">过渡</text>
  <rect width="145" height="200" x="205" y="70" fill="#fff" stroke="#d1cfc5" stroke-width="1.5" rx="8"/>
  <rect width="145" height="32" x="205" y="70" fill="#e3dacc" rx="8"/>
  <path fill="#e3dacc" d="M205 94h145v8H205z"/>
  <text x="277" y="90" fill="#141413" font-family="ui-monospace, monospace" font-size="11" font-weight="600" text-anchor="middle">AI辅助评审</text>
  <text x="277" y="122" fill="#87867f" font-size="10" text-anchor="middle">评审方式</text>
  <text x="277" y="138" fill="#141413" font-size="9.5" text-anchor="middle">机查 + 人查</text>
  <text x="277" y="156" fill="#87867f" font-size="10" text-anchor="middle">决策依据</text>
  <text x="277" y="172" fill="#141413" font-size="9.5" text-anchor="middle">数据 + 经验</text>
  <text x="277" y="190" fill="#87867f" font-size="10" text-anchor="middle">量化程度</text>
  <text x="277" y="206" fill="#141413" font-size="9.5" text-anchor="middle">半定量</text>
  <text x="277" y="224" fill="#87867f" font-size="10" text-anchor="middle">AI角色</text>
  <text x="277" y="240" fill="#141413" font-size="9.5" text-anchor="middle">预审 + 建议</text>
  <rect width="65" height="14" x="245" y="248" fill="#788c5d" rx="7"/>
  <text x="277" y="258" fill="#fff" font-family="ui-monospace, monospace" font-size="8" text-anchor="middle">当前主流</text>
  <path stroke="#d97757" stroke-width="2" d="M350 170h25"/>
  <path fill="#d97757" d="m375 166-8 4v4z"/>
  <text x="362" y="160" fill="#d97757" font-family="ui-monospace, monospace" font-size="8" text-anchor="middle">演进</text>
  <rect width="145" height="200" x="380" y="70" fill="#fff" stroke="#d97757" stroke-width="1.8" rx="8"/>
  <rect width="145" height="32" x="380" y="70" fill="#d97757" rx="8"/>
  <path fill="#d97757" d="M380 94h145v8H380z"/>
  <text x="452" y="90" fill="#fff" font-family="ui-monospace, monospace" font-size="11" font-weight="600" text-anchor="middle">AI-First 范式</text>
  <text x="452" y="122" fill="#87867f" font-size="10" text-anchor="middle">评审方式</text>
  <text x="452" y="138" fill="#141413" font-size="9.5" text-anchor="middle">AI全流程主导</text>
  <text x="452" y="156" fill="#87867f" font-size="10" text-anchor="middle">决策依据</text>
  <text x="452" y="172" fill="#141413" font-size="9.5" text-anchor="middle">量化模型驱动</text>
  <text x="452" y="190" fill="#87867f" font-size="10" text-anchor="middle">量化程度</text>
  <text x="452" y="206" fill="#141413" font-size="9.5" text-anchor="middle">全定量</text>
  <text x="452" y="224" fill="#87867f" font-size="10" text-anchor="middle">AI角色</text>
  <text x="452" y="240" fill="#141413" font-size="9.5" text-anchor="middle">主导 + 人类监督</text>
  <rect width="65" height="14" x="420" y="248" fill="#d97757" rx="7"/>
  <text x="452" y="258" fill="#fff" font-family="ui-monospace, monospace" font-size="8" text-anchor="middle">近期趋势</text>
  <path stroke="#d1cfc5" stroke-dasharray="4,3" stroke-width="1.5" d="M525 170h25"/>
  <path fill="#d1cfc5" d="m550 166-8 4v4z"/>
  <text x="537" y="160" fill="#87867f" font-family="ui-monospace, monospace" font-size="8" text-anchor="middle">未来</text>
  <rect width="110" height="200" x="555" y="70" fill="#fff" stroke="#d1cfc5" stroke-dasharray="6,3" stroke-width="1.2" rx="8"/>
  <rect width="110" height="32" x="555" y="70" fill="#f0eee6" rx="8"/>
  <path fill="#f0eee6" d="M555 94h110v8H555z"/>
  <text x="610" y="90" fill="#87867f" font-family="ui-monospace, monospace" font-size="10" font-weight="600" text-anchor="middle">自主架构</text>
  <text x="610" y="122" fill="#87867f" font-size="10" text-anchor="middle">评审方式</text>
  <text x="610" y="138" fill="#87867f" font-size="9" text-anchor="middle">自演进系统</text>
  <text x="610" y="156" fill="#87867f" font-size="10" text-anchor="middle">决策依据</text>
  <text x="610" y="172" fill="#87867f" font-size="9" text-anchor="middle">实时反馈</text>
  <text x="610" y="190" fill="#87867f" font-size="10" text-anchor="middle">量化程度</text>
  <text x="610" y="206" fill="#87867f" font-size="9" text-anchor="middle">动态量化</text>
  <text x="610" y="224" fill="#87867f" font-size="10" text-anchor="middle">AI角色</text>
  <text x="610" y="240" fill="#87867f" font-size="9" text-anchor="middle">完全自主</text>
  <rect width="46" height="14" x="587" y="248" fill="#f0eee6" stroke="#d1cfc5" rx="7"/>
  <text x="610" y="258" fill="#87867f" font-family="ui-monospace, monospace" font-size="8" text-anchor="middle">远景</text>
  <text x="340" y="315" fill="#87867f" font-family="ui-monospace, monospace" font-size="10" text-anchor="middle">特征1：数据驱动的评审 —— 从&quot;我觉得&quot;到&quot;数据显示&quot;</text>
  <path stroke="#d1cfc5" stroke-width="1.2" d="M30 300h620"/>
  <path fill="#d1cfc5" d="m650 296-8 4v4z"/>
  <text x="340" y="292" fill="#87867f" font-family="ui-monospace, monospace" font-size="9" text-anchor="middle">范式演进时间线 →</text>
</svg>
