<svg xmlns="http://www.w3.org/2000/svg" style="font-family:&quot;Courier New&quot;,Courier,monospace;background:#faf9f5" viewBox="0 0 462 818"><path fill="#faf9f5" d="M0 0h462v818H0z"/><text x="231" y="18" fill="#141413" font-size="12" font-weight="bold" text-anchor="middle">Gherkin 转换 Pipeline</text><path stroke="#d1cfc5" stroke-linecap="round" stroke-width="1.5" d="M24.8 58.5h14.4m-14.4 0V84m0-17v34m0-17v34m0-17v34m0-17v34m0-17v34m0-8.5h14.4m-14.4 0V135m0 59.5h14.4m-14.4 0V220m0-17v34m0-17v34m0-17v34m0-17v34m0-17v34m0-8.5h14.4m-14.4 0V271m0 59.5h14.4m-14.4 0V356m0-17v34m0-17v34m0-17v34m0-17v34m0-17v34m0-17v34m0-17v34m0-17v34m0-8.5h14.4m-14.4 0V458m0 59.5h14.4m-14.4 0V543m0-17v34m0-17v34m0-17v34m0-17v34m0-17v34m0-8.5h14.4m-14.4 0V594m0 59.5h14.4m-14.4 0V679m0-17v34m0-17v34m0-17v34m0-17v34m0-17v34m0-17v34m0-8.5h14.4m-14.4 0V747m4.8-683.7h19.2m-19.2 102h19.2m-19.2 34h19.2m-19.2 102h19.2m-19.2 34h19.2m-19.2 153h19.2m-19.2 34h19.2m-19.2 102h19.2m-19.2 34h19.2m-19.2 119h19.2m-9.6-714h19.2m-19.2 102h19.2m-19.2 34h19.2m-19.2 102h19.2m-19.2 34h19.2m-19.2 153h19.2m-19.2 34h19.2m-19.2 102h19.2m-19.2 34h19.2m-19.2 119h19.2m-9.6-714H68m-19.2 102H68m-19.2 34H68m-19.2 102H68m-19.2 34H68m-19.2 153H68m-19.2 34H68m-19.2 102H68m-19.2 34H68m-19.2 119H68m-9.6-714h19.2m-19.2 102h19.2m-19.2 34h19.2m-19.2 102h19.2m-19.2 34h19.2m-19.2 153h19.2m-19.2 34h19.2m-19.2 102h19.2m-19.2 34h19.2m-19.2 119h19.2M68 63.3h19.2M68 165.3h19.2m-19.2 34h19.2M68 301.3h19.2m-19.2 34h19.2M68 488.3h19.2m-19.2 34h19.2M68 624.3h19.2m-19.2 34h19.2M68 777.3h19.2m-9.6-714h19.2m-19.2 102h19.2m-19.2 34h19.2m-19.2 102h19.2m-19.2 34h19.2m-19.2 153h19.2m-19.2 34h19.2m-19.2 102h19.2m-19.2 34h19.2m-19.2 119h19.2m-9.6-714h19.2m-19.2 102h19.2m-19.2 34h19.2m-19.2 102h19.2m-19.2 34h19.2m-19.2 153h19.2m-19.2 34h19.2m-19.2 102h19.2m-19.2 34h19.2m-19.2 119h19.2m-9.6-714H116m-19.2 102H116m-19.2 34H116m-19.2 102H116m-19.2 34H116m-19.2 153H116m-19.2 34H116m-19.2 102H116m-19.2 34H116m-19.2 119H116m-9.6-714h19.2m-19.2 102h19.2m-19.2 34h19.2m-19.2 102h19.2m-19.2 34h19.2m-19.2 153h19.2m-19.2 34h19.2m-19.2 102h19.2m-19.2 34h19.2m-19.2 119h19.2m-9.6-714h19.2m-19.2 102h19.2m-19.2 34h19.2m-19.2 102h19.2m-19.2 34h19.2m-19.2 153h19.2m-19.2 34h19.2m-19.2 102h19.2m-19.2 34h19.2m-19.2 119h19.2m-9.6-714h19.2m-19.2 102h19.2m-19.2 34h19.2m-19.2 102h19.2m-19.2 34h19.2m-19.2 153h19.2m-19.2 34h19.2m-19.2 102h19.2m-19.2 34h19.2m-19.2 119h19.2m-9.6-714h19.2m-19.2 102h19.2m-19.2 34h19.2m-19.2 102h19.2m-19.2 34h19.2m-19.2 153h19.2m-19.2 34h19.2m-19.2 102h19.2m-19.2 34h19.2m-19.2 119h19.2m-9.6-714H164m-19.2 102H164m-19.2 34H164m-19.2 102H164m-19.2 34H164m-19.2 153H164m-19.2 34H164m-19.2 102H164m-19.2 34H164m-19.2 119H164m-9.6-714h19.2m-19.2 102h19.2m-19.2 34h19.2m-19.2 102h19.2m-19.2 34h19.2m-19.2 153h19.2m-19.2 34h19.2m-19.2 102h19.2m-19.2 34h19.2m-19.2 119h19.2m-9.6-714h19.2m-19.2 102h19.2m-19.2 34h19.2m-19.2 102h19.2m-19.2 34h19.2m-19.2 153h19.2m-19.2 34h19.2m-19.2 102h19.2m-19.2 34h19.2m-19.2 119h19.2m-9.6-714h19.2m-19.2 102h19.2m-19.2 34h19.2m-19.2 102h19.2m-19.2 34h19.2m-19.2 153h19.2m-19.2 34h19.2m-19.2 102h19.2m-19.2 34h19.2m-19.2 119h19.2m-9.6-714h19.2m-19.2 102h19.2m-19.2 34h19.2m-19.2 102h19.2m-19.2 34h19.2m-19.2 153h19.2m-19.2 34h19.2m-19.2 102h19.2m-19.2 34h19.2m-19.2 119h19.2m-9.6-714H212m-19.2 102H212m-19.2 34H212m-19.2 102H212m-19.2 34H212m-19.2 153H212m-19.2 34H212m-19.2 102H212m-19.2 34H212m-19.2 119H212m-9.6-714h19.2m-19.2 102h19.2m-19.2 34h19.2m-19.2 102h19.2m-19.2 34h19.2m-19.2 153h19.2m-19.2 34h19.2m-19.2 102h19.2m-19.2 34h19.2m-19.2 119h19.2m-9.6-714h19.2m-19.2 102h19.2m-19.2 34h19.2m-19.2 102h19.2m-19.2 34h19.2m-19.2 153h19.2m-19.2 34h19.2m-19.2 102h19.2m-19.2 34h19.2m-19.2 119h19.2m-9.6-714h19.2m-19.2 102h19.2m-19.2 34h19.2m-19.2 102h19.2m-19.2 34h19.2m-19.2 153h19.2m-19.2 34h19.2m-19.2 102h19.2m-19.2 34h19.2m-19.2 119h19.2m-9.6-714h19.2m-19.2 102h19.2m-19.2 34h19.2m-19.2 102h19.2m-19.2 34h19.2m-19.2 153h19.2m-19.2 34h19.2m-19.2 102h19.2m-19.2 34h19.2m-19.2 119h19.2m-9.6-714H260m-19.2 102H260m-19.2 34H260m-19.2 102H260m-19.2 34H260m-19.2 153H260m-19.2 34H260m-19.2 102H260m-19.2 34H260m-19.2 119H260m-9.6-714h19.2m-19.2 102h19.2m-19.2 34h19.2m-19.2 102h19.2m-19.2 34h19.2m-19.2 153h19.2m-19.2 34h19.2m-19.2 102h19.2m-19.2 34h19.2m-19.2 119h19.2m-9.6-714h19.2m-19.2 102h19.2m-19.2 34h19.2m-19.2 102h19.2m-19.2 34h19.2m-19.2 153h19.2m-19.2 34h19.2m-19.2 102h19.2m-19.2 34h19.2m-19.2 119h19.2m-9.6-714h19.2m-19.2 102h19.2m-19.2 34h19.2m-19.2 102h19.2m-19.2 34h19.2m-19.2 153h19.2m-19.2 34h19.2m-19.2 102h19.2m-19.2 34h19.2m-19.2 119h19.2m-9.6-714h19.2m-19.2 102h19.2m-19.2 34h19.2m-19.2 102h19.2m-19.2 34h19.2m-19.2 153h19.2m-19.2 34h19.2m-19.2 102h19.2m-19.2 34h19.2m-19.2 119h19.2m-9.6-714H308m-19.2 102H308m-19.2 34H308m-19.2 102H308m-19.2 34H308m-19.2 153H308m-19.2 34H308m-19.2 102H308m-19.2 34H308m-19.2 119H308m-9.6-714h19.2m-19.2 102h19.2m-19.2 34h19.2m-19.2 102h19.2m-19.2 34h19.2m-19.2 153h19.2m-19.2 34h19.2m-19.2 102h19.2m-19.2 34h19.2m-19.2 119h19.2m-9.6-714h19.2m-19.2 102h19.2m-19.2 34h19.2m-19.2 102h19.2m-19.2 34h19.2m-19.2 153h19.2m-19.2 34h19.2m-19.2 102h19.2m-19.2 34h19.2m-19.2 119h19.2m-9.6-714h19.2m-19.2 102h19.2m-19.2 34h19.2m-19.2 102h19.2m-19.2 34h19.2m-19.2 153h19.2m-19.2 34h19.2m-19.2 102h19.2m-19.2 34h19.2m-19.2 119h19.2m-9.6-714h19.2m-19.2 102h19.2m-19.2 34h19.2m-19.2 102h19.2m-19.2 34h19.2m-19.2 153h19.2m-19.2 34h19.2m-19.2 102h19.2m-19.2 34h19.2m-19.2 119h19.2m-9.6-714H356m-19.2 102H356m-19.2 34H356m-19.2 102H356m-19.2 34H356m-19.2 153H356m-19.2 34H356m-19.2 102H356m-19.2 34H356m-19.2 119H356m-9.6-714h19.2m-19.2 102h19.2m-19.2 34h19.2m-19.2 102h19.2m-19.2 34h19.2m-19.2 153h19.2m-19.2 34h19.2m-19.2 102h19.2m-19.2 34h19.2m-19.2 119h19.2m-9.6-714h19.2m-19.2 102h19.2m-19.2 34h19.2m-19.2 102h19.2m-19.2 34h19.2m-19.2 153h19.2m-19.2 34h19.2m-19.2 102h19.2m-19.2 34h19.2m-19.2 119h19.2m-9.6-714h19.2m-19.2 102h19.2m-19.2 34h19.2m-19.2 102h19.2m-19.2 34h19.2m-19.2 153h19.2m-19.2 34h19.2m-19.2 102h19.2m-19.2 34h19.2m-19.2 119h19.2m-9.6-714h19.2m-19.2 102h19.2m-19.2 34h19.2m-19.2 102h19.2m-19.2 34h19.2m-19.2 153h19.2m-19.2 34h19.2m-19.2 102h19.2m-19.2 34h19.2m-19.2 119h19.2m-9.6-714H404m-19.2 102H404m-19.2 34H404m-19.2 102H404m-19.2 34H404m-19.2 153H404m-19.2 34H404m-19.2 102H404m-19.2 34H404m-19.2 119H404m-9.6-714h19.2m-19.2 102h19.2m-19.2 34h19.2m-19.2 102h19.2m-19.2 34h19.2m-19.2 153h19.2m-19.2 34h19.2m-19.2 102h19.2m-19.2 34h19.2m-19.2 119h19.2m-9.6-714h19.2m-19.2 102h19.2m-19.2 34h19.2m-19.2 102h19.2m-19.2 34h19.2m-19.2 153h19.2m-19.2 34h19.2m-19.2 102h19.2m-19.2 34h19.2m-19.2 119h19.2m-9.6-714h19.2m-19.2 102h19.2m-19.2 34h19.2m-19.2 102h19.2m-19.2 34h19.2m-19.2 153h19.2m-19.2 34h19.2m-19.2 102h19.2m-19.2 34h19.2m-19.2 119h19.2M428 58.5h-14.4m14.4 102h-14.4m14.4 34h-14.4m14.4 102h-14.4m14.4 34h-14.4M428 356v34m0-17v34m0 76.5h-14.4m14.4 34h-14.4M428 543v34m0-17v34m0 25.5h-14.4m14.4 34h-14.4M428 679v34m0-17v34m0 42.5h-14.4m24-365.5v34m0 289v34"/><text x="72.8" y="607.3" fill="#d97757" font-size="14" font-weight="bold" text-anchor="middle">→</text><text x="216.8" y="182.3" fill="#d97757" font-size="14" font-weight="bold" text-anchor="middle">↓</text><text x="216.8" y="318.3" fill="#d97757" font-size="14" font-weight="bold" text-anchor="middle">↓</text><text x="216.8" y="505.3" fill="#d97757" font-size="14" font-weight="bold" text-anchor="middle">↓</text><text x="216.8" y="641.3" fill="#d97757" font-size="14" font-weight="bold" text-anchor="middle">↓</text><text x="24.8" y="794.3" fill="#141413" font-size="13">`</text><text x="34.4" y="794.3" fill="#141413" font-size="13">`</text><text x="44" y="794.3" fill="#141413" font-size="13">`</text><text x="53.6" y="80.3" fill="#141413" font-size="13">输</text><text x="53.6" y="114.3" fill="#141413" font-size="13">G</text><text x="53.6" y="131.3" fill="#141413" font-size="13">W</text><text x="53.6" y="148.3" fill="#141413" font-size="13">T</text><text x="53.6" y="216.3" fill="#141413" font-size="13">步</text><text x="53.6" y="250.3" fill="#141413" font-size="13">A</text><text x="53.6" y="267.3" fill="#141413" font-size="13">询</text><text x="53.6" y="284.3" fill="#141413" font-size="13">回</text><text x="53.6" y="352.3" fill="#141413" font-size="13">步</text><text x="53.6" y="386.3" fill="#141413" font-size="13">p</text><text x="53.6" y="454.3" fill="#141413" font-size="13">p</text><text x="53.6" y="539.3" fill="#141413" font-size="13">步</text><text x="53.6" y="573.3" fill="#141413" font-size="13">∀</text><text x="53.6" y="675.3" fill="#141413" font-size="13">步</text><text x="53.6" y="709.3" fill="#141413" font-size="13">d</text><text x="63.2" y="80.3" fill="#141413" font-size="13">入</text><text x="63.2" y="114.3" fill="#141413" font-size="13">i</text><text x="63.2" y="131.3" fill="#141413" font-size="13">h</text><text x="63.2" y="148.3" fill="#141413" font-size="13">h</text><text x="63.2" y="216.3" fill="#141413" font-size="13">骤</text><text x="63.2" y="250.3" fill="#141413" font-size="13">I</text><text x="63.2" y="267.3" fill="#141413" font-size="13">问</text><text x="63.2" y="284.3" fill="#141413" font-size="13">答</text><text x="63.2" y="352.3" fill="#141413" font-size="13">骤</text><text x="63.2" y="386.3" fill="#141413" font-size="13">r</text><text x="63.2" y="454.3" fill="#141413" font-size="13">o</text><text x="63.2" y="539.3" fill="#141413" font-size="13">骤</text><text x="63.2" y="675.3" fill="#141413" font-size="13">骤</text><text x="63.2" y="709.3" fill="#141413" font-size="13">e</text><text x="72.8" y="80.3" fill="#141413" font-size="13">:</text><text x="72.8" y="114.3" fill="#141413" font-size="13">v</text><text x="72.8" y="131.3" fill="#141413" font-size="13">e</text><text x="72.8" y="148.3" fill="#141413" font-size="13">e</text><text x="72.8" y="216.3" fill="#141413" font-size="13">1</text><text x="72.8" y="250.3" fill="#141413" font-size="13">检</text><text x="72.8" y="267.3" fill="#141413" font-size="13">:</text><text x="72.8" y="284.3" fill="#141413" font-size="13">:</text><text x="72.8" y="352.3" fill="#141413" font-size="13">2</text><text x="72.8" y="386.3" fill="#141413" font-size="13">e</text><text x="72.8" y="403.3" fill="#141413" font-size="13">-</text><text x="72.8" y="420.3" fill="#141413" font-size="13">-</text><text x="72.8" y="437.3" fill="#141413" font-size="13">-</text><text x="72.8" y="454.3" fill="#141413" font-size="13">s</text><text x="72.8" y="471.3" fill="#141413" font-size="13">-</text><text x="72.8" y="539.3" fill="#141413" font-size="13">3</text><text x="72.8" y="573.3" fill="#141413" font-size="13">c</text><text x="72.8" y="590.3" fill="#141413" font-size="13">c</text><text x="72.8" y="675.3" fill="#141413" font-size="13">4</text><text x="72.8" y="709.3" fill="#141413" font-size="13">f</text><text x="82.4" y="114.3" fill="#141413" font-size="13">e</text><text x="82.4" y="131.3" fill="#141413" font-size="13">n</text><text x="82.4" y="148.3" fill="#141413" font-size="13">n</text><text x="82.4" y="216.3" fill="#141413" font-size="13">:</text><text x="82.4" y="250.3" fill="#141413" font-size="13">测</text><text x="82.4" y="352.3" fill="#141413" font-size="13">:</text><text x="82.4" y="386.3" fill="#141413" font-size="13">c</text><text x="82.4" y="454.3" fill="#141413" font-size="13">t</text><text x="82.4" y="539.3" fill="#141413" font-size="13">:</text><text x="82.4" y="590.3" fill="#141413" font-size="13">.</text><text x="82.4" y="675.3" fill="#141413" font-size="13">:</text><text x="92" y="80.3" fill="#141413" font-size="13">G</text><text x="92" y="114.3" fill="#141413" font-size="13">n</text><text x="92" y="250.3" fill="#141413" font-size="13">:</text><text x="92" y="267.3" fill="#141413" font-size="13">V</text><text x="92" y="284.3" fill="#141413" font-size="13">积</text><text x="92" y="386.3" fill="#141413" font-size="13">o</text><text x="92" y="403.3" fill="#141413" font-size="13">c</text><text x="92" y="420.3" fill="#141413" font-size="13">o</text><text x="92" y="437.3" fill="#141413" font-size="13">d</text><text x="92" y="454.3" fill="#141413" font-size="13">c</text><text x="92" y="471.3" fill="#141413" font-size="13">o</text><text x="92" y="573.3" fill="#141413" font-size="13">∈</text><text x="92" y="590.3" fill="#141413" font-size="13">p</text><text x="92" y="607.3" fill="#141413" font-size="13">o</text><text x="92" y="709.3" fill="#141413" font-size="13">c</text><text x="92" y="726.3" fill="#141413" font-size="13">i</text><text x="92" y="760.3" fill="#141413" font-size="13">r</text><text x="101.6" y="80.3" fill="#141413" font-size="13">h</text><text x="101.6" y="131.3" fill="#141413" font-size="13">他</text><text x="101.6" y="148.3" fill="#141413" font-size="13">他</text><text x="101.6" y="216.3" fill="#141413" font-size="13">歧</text><text x="101.6" y="267.3" fill="#141413" font-size="13">I</text><text x="101.6" y="284.3" fill="#141413" font-size="13">分</text><text x="101.6" y="352.3" fill="#141413" font-size="13">转</text><text x="101.6" y="386.3" fill="#141413" font-size="13">n</text><text x="101.6" y="403.3" fill="#141413" font-size="13">u</text><text x="101.6" y="420.3" fill="#141413" font-size="13">r</text><text x="101.6" y="437.3" fill="#141413" font-size="13">i</text><text x="101.6" y="454.3" fill="#141413" font-size="13">o</text><text x="101.6" y="471.3" fill="#141413" font-size="13">r</text><text x="101.6" y="539.3" fill="#141413" font-size="13">生</text><text x="101.6" y="590.3" fill="#141413" font-size="13">o</text><text x="101.6" y="607.3" fill="#141413" font-size="13">.</text><text x="101.6" y="675.3" fill="#141413" font-size="13">生</text><text x="101.6" y="709.3" fill="#141413" font-size="13">a</text><text x="101.6" y="726.3" fill="#141413" font-size="13">f</text><text x="101.6" y="760.3" fill="#141413" font-size="13">e</text><text x="111.2" y="80.3" fill="#141413" font-size="13">e</text><text x="111.2" y="114.3" fill="#141413" font-size="13">一</text><text x="111.2" y="131.3" fill="#141413" font-size="13">下</text><text x="111.2" y="148.3" fill="#141413" font-size="13">应</text><text x="111.2" y="216.3" fill="#141413" font-size="13">义</text><text x="111.2" y="250.3" fill="#141413" font-size="13">&quot;</text><text x="111.2" y="267.3" fill="#141413" font-size="13">P</text><text x="111.2" y="284.3" fill="#141413" font-size="13">≥</text><text x="111.2" y="352.3" fill="#141413" font-size="13">换</text><text x="111.2" y="386.3" fill="#141413" font-size="13">d</text><text x="111.2" y="403.3" fill="#141413" font-size="13">s</text><text x="111.2" y="420.3" fill="#141413" font-size="13">d</text><text x="111.2" y="437.3" fill="#141413" font-size="13">s</text><text x="111.2" y="454.3" fill="#141413" font-size="13">n</text><text x="111.2" y="471.3" fill="#141413" font-size="13">d</text><text x="111.2" y="539.3" fill="#141413" font-size="13">成</text><text x="111.2" y="573.3" fill="#141413" font-size="13">C</text><text x="111.2" y="590.3" fill="#141413" font-size="13">i</text><text x="111.2" y="607.3" fill="#141413" font-size="13">f</text><text x="111.2" y="675.3" fill="#141413" font-size="13">成</text><text x="111.2" y="709.3" fill="#141413" font-size="13">l</text><text x="111.2" y="760.3" fill="#141413" font-size="13">t</text><text x="120.8" y="80.3" fill="#141413" font-size="13">r</text><text x="120.8" y="114.3" fill="#141413" font-size="13">个</text><text x="120.8" y="131.3" fill="#141413" font-size="13">单</text><text x="120.8" y="148.3" fill="#141413" font-size="13">该</text><text x="120.8" y="216.3" fill="#141413" font-size="13">识</text><text x="120.8" y="250.3" fill="#141413" font-size="13">V</text><text x="120.8" y="267.3" fill="#141413" font-size="13">的</text><text x="120.8" y="284.3" fill="#141413" font-size="13">1</text><text x="120.8" y="352.3" fill="#141413" font-size="13">为</text><text x="120.8" y="386.3" fill="#141413" font-size="13">i</text><text x="120.8" y="403.3" fill="#141413" font-size="13">t</text><text x="120.8" y="420.3" fill="#141413" font-size="13">e</text><text x="120.8" y="437.3" fill="#141413" font-size="13">c</text><text x="120.8" y="454.3" fill="#141413" font-size="13">d</text><text x="120.8" y="471.3" fill="#141413" font-size="13">e</text><text x="120.8" y="539.3" fill="#141413" font-size="13">形</text><text x="120.8" y="573.3" fill="#141413" font-size="13">u</text><text x="120.8" y="590.3" fill="#141413" font-size="13">n</text><text x="120.8" y="607.3" fill="#141413" font-size="13">i</text><text x="120.8" y="675.3" fill="#141413" font-size="13">可</text><text x="120.8" y="709.3" fill="#141413" font-size="13">c</text><text x="120.8" y="726.3" fill="#141413" font-size="13">c</text><text x="120.8" y="760.3" fill="#141413" font-size="13">u</text><text x="130.4" y="80.3" fill="#141413" font-size="13">k</text><text x="130.4" y="114.3" fill="#141413" font-size="13">V</text><text x="130.4" y="131.3" fill="#141413" font-size="13">购</text><text x="130.4" y="148.3" fill="#141413" font-size="13">支</text><text x="130.4" y="216.3" fill="#141413" font-size="13">别</text><text x="130.4" y="250.3" fill="#141413" font-size="13">I</text><text x="130.4" y="267.3" fill="#141413" font-size="13">判</text><text x="130.4" y="284.3" fill="#141413" font-size="13">0</text><text x="130.4" y="352.3" fill="#141413" font-size="13">结</text><text x="130.4" y="386.3" fill="#141413" font-size="13">t</text><text x="130.4" y="403.3" fill="#141413" font-size="13">o</text><text x="130.4" y="420.3" fill="#141413" font-size="13">r</text><text x="130.4" y="437.3" fill="#141413" font-size="13">o</text><text x="130.4" y="454.3" fill="#141413" font-size="13">i</text><text x="130.4" y="471.3" fill="#141413" font-size="13">r</text><text x="130.4" y="539.3" fill="#141413" font-size="13">式</text><text x="130.4" y="573.3" fill="#141413" font-size="13">s</text><text x="130.4" y="590.3" fill="#141413" font-size="13">t</text><text x="130.4" y="607.3" fill="#141413" font-size="13">n</text><text x="130.4" y="675.3" fill="#141413" font-size="13">执</text><text x="130.4" y="709.3" fill="#141413" font-size="13">u</text><text x="130.4" y="726.3" fill="#141413" font-size="13">u</text><text x="130.4" y="743.3" fill="#141413" font-size="13">r</text><text x="130.4" y="760.3" fill="#141413" font-size="13">r</text><text x="140" y="80.3" fill="#141413" font-size="13">i</text><text x="140" y="114.3" fill="#141413" font-size="13">I</text><text x="140" y="131.3" fill="#141413" font-size="13">买</text><text x="140" y="148.3" fill="#141413" font-size="13">付</text><text x="140" y="216.3" fill="#141413" font-size="13">与</text><text x="140" y="250.3" fill="#141413" font-size="13">P</text><text x="140" y="267.3" fill="#141413" font-size="13">断</text><text x="140" y="284.3" fill="#141413" font-size="13">0</text><text x="140" y="352.3" fill="#141413" font-size="13">构</text><text x="140" y="386.3" fill="#141413" font-size="13">i</text><text x="140" y="403.3" fill="#141413" font-size="13">m</text><text x="140" y="420.3" fill="#141413" font-size="13">.</text><text x="140" y="437.3" fill="#141413" font-size="13">u</text><text x="140" y="454.3" fill="#141413" font-size="13">t</text><text x="140" y="471.3" fill="#141413" font-size="13">.</text><text x="140" y="539.3" fill="#141413" font-size="13">化</text><text x="140" y="573.3" fill="#141413" font-size="13">t</text><text x="140" y="590.3" fill="#141413" font-size="13">s</text><text x="140" y="607.3" fill="#141413" font-size="13">a</text><text x="140" y="675.3" fill="#141413" font-size="13">行</text><text x="140" y="709.3" fill="#141413" font-size="13">l</text><text x="140" y="726.3" fill="#141413" font-size="13">s</text><text x="140" y="743.3" fill="#141413" font-size="13">e</text><text x="140" y="760.3" fill="#141413" font-size="13">n</text><text x="149.6" y="80.3" fill="#141413" font-size="13">n</text><text x="149.6" y="114.3" fill="#141413" font-size="13">P</text><text x="149.6" y="131.3" fill="#141413" font-size="13">$</text><text x="149.6" y="148.3" fill="#141413" font-size="13">$</text><text x="149.6" y="216.3" fill="#141413" font-size="13">澄</text><text x="149.6" y="250.3" fill="#141413" font-size="13">客</text><text x="149.6" y="267.3" fill="#141413" font-size="13">标</text><text x="149.6" y="284.3" fill="#141413" font-size="13">0</text><text x="149.6" y="352.3" fill="#141413" font-size="13">化</text><text x="149.6" y="386.3" fill="#141413" font-size="13">o</text><text x="149.6" y="403.3" fill="#141413" font-size="13">e</text><text x="149.6" y="420.3" fill="#141413" font-size="13">o</text><text x="149.6" y="437.3" fill="#141413" font-size="13">n</text><text x="149.6" y="454.3" fill="#141413" font-size="13">i</text><text x="149.6" y="471.3" fill="#141413" font-size="13">f</text><text x="149.6" y="539.3" fill="#141413" font-size="13">表</text><text x="149.6" y="573.3" fill="#141413" font-size="13">o</text><text x="149.6" y="607.3" fill="#141413" font-size="13">l</text><text x="149.6" y="675.3" fill="#141413" font-size="13">代</text><text x="149.6" y="709.3" fill="#141413" font-size="13">a</text><text x="149.6" y="726.3" fill="#141413" font-size="13">t</text><text x="149.6" y="743.3" fill="#141413" font-size="13">t</text><text x="159.2" y="80.3" fill="#141413" font-size="13">自</text><text x="159.2" y="114.3" fill="#141413" font-size="13">客</text><text x="159.2" y="131.3" fill="#141413" font-size="13">1</text><text x="159.2" y="148.3" fill="#141413" font-size="13">9</text><text x="159.2" y="216.3" fill="#141413" font-size="13">清</text><text x="159.2" y="250.3" fill="#141413" font-size="13">户</text><text x="159.2" y="267.3" fill="#141413" font-size="13">准</text><text x="159.2" y="352.3" fill="#141413" font-size="13">规</text><text x="159.2" y="386.3" fill="#141413" font-size="13">n</text><text x="159.2" y="403.3" fill="#141413" font-size="13">r</text><text x="159.2" y="420.3" fill="#141413" font-size="13">r</text><text x="159.2" y="437.3" fill="#141413" font-size="13">t</text><text x="159.2" y="454.3" fill="#141413" font-size="13">o</text><text x="159.2" y="471.3" fill="#141413" font-size="13">i</text><text x="159.2" y="539.3" fill="#141413" font-size="13">达</text><text x="159.2" y="573.3" fill="#141413" font-size="13">m</text><text x="159.2" y="590.3" fill="#141413" font-size="13">≥</text><text x="159.2" y="675.3" fill="#141413" font-size="13">码</text><text x="159.2" y="709.3" fill="#141413" font-size="13">t</text><text x="159.2" y="726.3" fill="#141413" font-size="13">o</text><text x="159.2" y="743.3" fill="#141413" font-size="13">u</text><text x="159.2" y="760.3" fill="#141413" font-size="13">o</text><text x="168.8" y="80.3" fill="#141413" font-size="13">然</text><text x="168.8" y="114.3" fill="#141413" font-size="13">户</text><text x="168.8" y="131.3" fill="#141413" font-size="13">0</text><text x="168.8" y="148.3" fill="#141413" font-size="13">0</text><text x="168.8" y="250.3" fill="#141413" font-size="13">&quot;</text><text x="168.8" y="267.3" fill="#141413" font-size="13">是</text><text x="168.8" y="352.3" fill="#141413" font-size="13">格</text><text x="168.8" y="386.3" fill="#141413" font-size="13">s</text><text x="168.8" y="403.3" fill="#141413" font-size="13">.</text><text x="168.8" y="420.3" fill="#141413" font-size="13">i</text><text x="168.8" y="437.3" fill="#141413" font-size="13">_</text><text x="168.8" y="454.3" fill="#141413" font-size="13">n</text><text x="168.8" y="471.3" fill="#141413" font-size="13">n</text><text x="168.8" y="539.3" fill="#141413" font-size="13">式</text><text x="168.8" y="573.3" fill="#141413" font-size="13">e</text><text x="168.8" y="607.3" fill="#141413" font-size="13">=</text><text x="168.8" y="675.3" fill="#141413" font-size="13">+</text><text x="168.8" y="709.3" fill="#141413" font-size="13">e</text><text x="168.8" y="726.3" fill="#141413" font-size="13">m</text><text x="168.8" y="743.3" fill="#141413" font-size="13">r</text><text x="168.8" y="760.3" fill="#141413" font-size="13">r</text><text x="178.4" y="80.3" fill="#141413" font-size="13">语</text><text x="178.4" y="131.3" fill="#141413" font-size="13">0</text><text x="178.4" y="250.3" fill="#141413" font-size="13">定</text><text x="178.4" y="267.3" fill="#141413" font-size="13">什</text><text x="178.4" y="386.3" fill="#141413" font-size="13">:</text><text x="178.4" y="403.3" fill="#141413" font-size="13">p</text><text x="178.4" y="420.3" fill="#141413" font-size="13">g</text><text x="178.4" y="437.3" fill="#141413" font-size="13">r</text><text x="178.4" y="454.3" fill="#141413" font-size="13">s</text><text x="178.4" y="471.3" fill="#141413" font-size="13">a</text><text x="178.4" y="573.3" fill="#141413" font-size="13">r</text><text x="178.4" y="590.3" fill="#141413" font-size="13">1</text><text x="178.4" y="675.3" fill="#141413" font-size="13">测</text><text x="178.4" y="709.3" fill="#141413" font-size="13">_</text><text x="178.4" y="726.3" fill="#141413" font-size="13">e</text><text x="178.4" y="743.3" fill="#141413" font-size="13">n</text><text x="178.4" y="760.3" fill="#141413" font-size="13">d</text><text x="188" y="80.3" fill="#141413" font-size="13">言</text><text x="188" y="131.3" fill="#141413" font-size="13">的</text><text x="188" y="250.3" fill="#141413" font-size="13">义</text><text x="188" y="267.3" fill="#141413" font-size="13">么</text><text x="188" y="403.3" fill="#141413" font-size="13">o</text><text x="188" y="420.3" fill="#141413" font-size="13">i</text><text x="188" y="437.3" fill="#141413" font-size="13">a</text><text x="188" y="454.3" fill="#141413" font-size="13">:</text><text x="188" y="471.3" fill="#141413" font-size="13">l</text><text x="188" y="573.3" fill="#141413" font-size="13">,</text><text x="188" y="590.3" fill="#141413" font-size="13">0</text><text x="188" y="607.3" fill="#141413" font-size="13">9</text><text x="188" y="675.3" fill="#141413" font-size="13">试</text><text x="188" y="709.3" fill="#141413" font-size="13">t</text><text x="188" y="726.3" fill="#141413" font-size="13">r</text><text x="188" y="760.3" fill="#141413" font-size="13">e</text><text x="197.6" y="80.3" fill="#141413" font-size="13">描</text><text x="197.6" y="131.3" fill="#141413" font-size="13">商</text><text x="197.6" y="250.3" fill="#141413" font-size="13">不</text><text x="197.6" y="267.3" fill="#141413" font-size="13">？</text><text x="197.6" y="403.3" fill="#141413" font-size="13">i</text><text x="197.6" y="420.3" fill="#141413" font-size="13">n</text><text x="197.6" y="437.3" fill="#141413" font-size="13">t</text><text x="197.6" y="471.3" fill="#141413" font-size="13">_</text><text x="197.6" y="590.3" fill="#141413" font-size="13">0</text><text x="197.6" y="607.3" fill="#141413" font-size="13">0</text><text x="197.6" y="709.3" fill="#141413" font-size="13">o</text><text x="197.6" y="726.3" fill="#141413" font-size="13">.</text><text x="197.6" y="743.3" fill="#141413" font-size="13">o</text><text x="197.6" y="760.3" fill="#141413" font-size="13">r</text><text x="207.2" y="80.3" fill="#141413" font-size="13">述</text><text x="207.2" y="131.3" fill="#141413" font-size="13">品</text><text x="207.2" y="250.3" fill="#141413" font-size="13">明</text><text x="207.2" y="403.3" fill="#141413" font-size="13">n</text><text x="207.2" y="420.3" fill="#141413" font-size="13">a</text><text x="207.2" y="437.3" fill="#141413" font-size="13">e</text><text x="207.2" y="471.3" fill="#141413" font-size="13">a</text><text x="207.2" y="573.3" fill="#141413" font-size="13">o</text><text x="207.2" y="590.3" fill="#141413" font-size="13">0</text><text x="207.2" y="709.3" fill="#141413" font-size="13">t</text><text x="207.2" y="726.3" fill="#141413" font-size="13">p</text><text x="207.2" y="743.3" fill="#141413" font-size="13">r</text><text x="207.2" y="760.3" fill="#141413" font-size="13">.</text><text x="216.8" y="250.3" fill="#141413" font-size="13">确</text><text x="216.8" y="403.3" fill="#141413" font-size="13">t</text><text x="216.8" y="420.3" fill="#141413" font-size="13">l</text><text x="216.8" y="471.3" fill="#141413" font-size="13">m</text><text x="216.8" y="709.3" fill="#141413" font-size="13">a</text><text x="216.8" y="726.3" fill="#141413" font-size="13">o</text><text x="216.8" y="743.3" fill="#141413" font-size="13">d</text><text x="216.8" y="760.3" fill="#141413" font-size="13">a</text><text x="226.4" y="403.3" fill="#141413" font-size="13">s</text><text x="226.4" y="420.3" fill="#141413" font-size="13">_</text><text x="226.4" y="437.3" fill="#141413" font-size="13">=</text><text x="226.4" y="471.3" fill="#141413" font-size="13">o</text><text x="226.4" y="573.3" fill="#141413" font-size="13">∈</text><text x="226.4" y="590.3" fill="#141413" font-size="13">∧</text><text x="226.4" y="709.3" fill="#141413" font-size="13">l</text><text x="226.4" y="726.3" fill="#141413" font-size="13">i</text><text x="226.4" y="743.3" fill="#141413" font-size="13">e</text><text x="226.4" y="760.3" fill="#141413" font-size="13">m</text><text x="236" y="420.3" fill="#141413" font-size="13">a</text><text x="236" y="471.3" fill="#141413" font-size="13">u</text><text x="236" y="709.3" fill="#141413" font-size="13">(</text><text x="236" y="726.3" fill="#141413" font-size="13">n</text><text x="236" y="743.3" fill="#141413" font-size="13">r</text><text x="236" y="760.3" fill="#141413" font-size="13">o</text><text x="245.6" y="403.3" fill="#141413" font-size="13">&gt;</text><text x="245.6" y="420.3" fill="#141413" font-size="13">m</text><text x="245.6" y="437.3" fill="#141413" font-size="13">0</text><text x="245.6" y="471.3" fill="#141413" font-size="13">n</text><text x="245.6" y="573.3" fill="#141413" font-size="13">O</text><text x="245.6" y="590.3" fill="#141413" font-size="13">o</text><text x="245.6" y="709.3" fill="#141413" font-size="13">c</text><text x="245.6" y="726.3" fill="#141413" font-size="13">t</text><text x="245.6" y="743.3" fill="#141413" font-size="13">.</text><text x="245.6" y="760.3" fill="#141413" font-size="13">u</text><text x="255.2" y="403.3" fill="#141413" font-size="13">=</text><text x="255.2" y="420.3" fill="#141413" font-size="13">o</text><text x="255.2" y="437.3" fill="#141413" font-size="13">.</text><text x="255.2" y="471.3" fill="#141413" font-size="13">t</text><text x="255.2" y="573.3" fill="#141413" font-size="13">r</text><text x="255.2" y="590.3" fill="#141413" font-size="13">.</text><text x="255.2" y="709.3" fill="#141413" font-size="13">u</text><text x="255.2" y="726.3" fill="#141413" font-size="13">s</text><text x="255.2" y="743.3" fill="#141413" font-size="13">a</text><text x="255.2" y="760.3" fill="#141413" font-size="13">n</text><text x="264.8" y="420.3" fill="#141413" font-size="13">u</text><text x="264.8" y="437.3" fill="#141413" font-size="13">1</text><text x="264.8" y="573.3" fill="#141413" font-size="13">d</text><text x="264.8" y="590.3" fill="#141413" font-size="13">a</text><text x="264.8" y="709.3" fill="#141413" font-size="13">s</text><text x="264.8" y="743.3" fill="#141413" font-size="13">m</text><text x="264.8" y="760.3" fill="#141413" font-size="13">t</text><text x="274.4" y="403.3" fill="#141413" font-size="13">1</text><text x="274.4" y="420.3" fill="#141413" font-size="13">n</text><text x="274.4" y="471.3" fill="#141413" font-size="13">=</text><text x="274.4" y="573.3" fill="#141413" font-size="13">e</text><text x="274.4" y="590.3" fill="#141413" font-size="13">m</text><text x="274.4" y="709.3" fill="#141413" font-size="13">t</text><text x="274.4" y="726.3" fill="#141413" font-size="13">&gt;</text><text x="274.4" y="743.3" fill="#141413" font-size="13">o</text><text x="284" y="403.3" fill="#141413" font-size="13">0</text><text x="284" y="420.3" fill="#141413" font-size="13">t</text><text x="284" y="471.3" fill="#141413" font-size="13">=</text><text x="284" y="573.3" fill="#141413" font-size="13">r</text><text x="284" y="590.3" fill="#141413" font-size="13">o</text><text x="284" y="709.3" fill="#141413" font-size="13">o</text><text x="284" y="726.3" fill="#141413" font-size="13">=</text><text x="284" y="743.3" fill="#141413" font-size="13">u</text><text x="293.6" y="403.3" fill="#141413" font-size="13">0</text><text x="293.6" y="573.3" fill="#141413" font-size="13">:</text><text x="293.6" y="590.3" fill="#141413" font-size="13">u</text><text x="293.6" y="709.3" fill="#141413" font-size="13">m</text><text x="293.6" y="743.3" fill="#141413" font-size="13">n</text><text x="303.2" y="403.3" fill="#141413" font-size="13">0</text><text x="303.2" y="420.3" fill="#141413" font-size="13">=</text><text x="303.2" y="471.3" fill="#141413" font-size="13">9</text><text x="303.2" y="590.3" fill="#141413" font-size="13">n</text><text x="303.2" y="709.3" fill="#141413" font-size="13">e</text><text x="303.2" y="726.3" fill="#141413" font-size="13">1</text><text x="303.2" y="743.3" fill="#141413" font-size="13">t</text><text x="312.8" y="420.3" fill="#141413" font-size="13">=</text><text x="312.8" y="471.3" fill="#141413" font-size="13">0</text><text x="312.8" y="590.3" fill="#141413" font-size="13">t</text><text x="312.8" y="709.3" fill="#141413" font-size="13">r</text><text x="312.8" y="726.3" fill="#141413" font-size="13">0</text><text x="322.4" y="709.3" fill="#141413" font-size="13">,</text><text x="322.4" y="726.3" fill="#141413" font-size="13">0</text><text x="322.4" y="743.3" fill="#141413" font-size="13">*</text><text x="332" y="267.3" fill="#141413" font-size="13">│</text><text x="332" y="420.3" fill="#141413" font-size="13">1</text><text x="332" y="590.3" fill="#141413" font-size="13">=</text><text x="332" y="675.3" fill="#141413" font-size="13">│</text><text x="332" y="726.3" fill="#141413" font-size="13">0</text><text x="341.6" y="352.3" fill="#141413" font-size="13">│</text><text x="341.6" y="420.3" fill="#141413" font-size="13">0</text><text x="341.6" y="539.3" fill="#141413" font-size="13">│</text><text x="341.6" y="709.3" fill="#141413" font-size="13">o</text><text x="341.6" y="726.3" fill="#141413" font-size="13">:</text><text x="341.6" y="743.3" fill="#141413" font-size="13">0</text><text x="351.2" y="131.3" fill="#141413" font-size="13">│</text><text x="351.2" y="216.3" fill="#141413" font-size="13">│</text><text x="351.2" y="250.3" fill="#141413" font-size="13">│</text><text x="351.2" y="420.3" fill="#141413" font-size="13">0</text><text x="351.2" y="590.3" fill="#141413" font-size="13">1</text><text x="351.2" y="709.3" fill="#141413" font-size="13">r</text><text x="351.2" y="743.3" fill="#141413" font-size="13">.</text><text x="360.8" y="80.3" fill="#141413" font-size="13">│</text><text x="360.8" y="590.3" fill="#141413" font-size="13">0</text><text x="360.8" y="709.3" fill="#141413" font-size="13">d</text><text x="360.8" y="743.3" fill="#141413" font-size="13">9</text><text x="370.4" y="590.3" fill="#141413" font-size="13">0</text><text x="370.4" y="709.3" fill="#141413" font-size="13">e</text><text x="380" y="148.3" fill="#141413" font-size="13">│</text><text x="380" y="709.3" fill="#141413" font-size="13">r</text><text x="389.6" y="114.3" fill="#141413" font-size="13">│</text><text x="389.6" y="284.3" fill="#141413" font-size="13">│</text><text x="389.6" y="709.3" fill="#141413" font-size="13">)</text><text x="399.2" y="709.3" fill="#141413" font-size="13">:</text><text x="428" y="97.3" fill="#141413" font-size="13">│</text><text x="428" y="233.3" fill="#141413" font-size="13">│</text><text x="428" y="403.3" fill="#141413" font-size="13">│</text><text x="428" y="454.3" fill="#141413" font-size="13">│</text><text x="428" y="590.3" fill="#141413" font-size="13">│</text><text x="428" y="726.3" fill="#141413" font-size="13">│</text><text x="437.6" y="437.3" fill="#141413" font-size="13">│</text><text x="437.6" y="471.3" fill="#141413" font-size="13">│</text><text x="437.6" y="607.3" fill="#141413" font-size="13">│</text><text x="437.6" y="760.3" fill="#141413" font-size="13">│</text></svg>