<svg xmlns="http://www.w3.org/2000/svg" font-family="ui-serif, Georgia, serif" viewBox="0 0 680 320">
  <path fill="#faf9f5" d="M0 0h680v320H0z"/>
  <text x="340" y="26" fill="#141413" font-size="14" font-weight="500" letter-spacing="-.02em" text-anchor="middle">Gherkin → 形式化规格 → 可验证代码</text>
  <text x="340" y="42" fill="#87867f" font-family="ui-monospace, monospace" font-size="10" text-anchor="middle">BDD 语义化升级流程</text>
  <rect width="120" height="160" x="20" y="70" fill="#fff" stroke="#d1cfc5" stroke-width="1.5" rx="8"/>
  <text x="80" y="90" fill="#141413" font-size="11" font-weight="600" text-anchor="middle">Gherkin Scenario</text>
  <rect width="96" height="22" x="32" y="100" fill="#788c5d" fill-opacity=".15" stroke="#788c5d" rx="4"/>
  <text x="80" y="115" fill="#141413" font-family="ui-monospace, monospace" font-size="9" text-anchor="middle">Given / When / Then</text>
  <rect width="96" height="22" x="32" y="128" fill="#d97757" fill-opacity=".12" stroke="#d97757" rx="4"/>
  <text x="80" y="143" fill="#141413" font-family="ui-monospace, monospace" font-size="9" text-anchor="middle">自然语言歧义</text>
  <rect width="96" height="22" x="32" y="156" fill="#141413" fill-opacity=".06" stroke="#d1cfc5" rx="4"/>
  <text x="80" y="171" fill="#141413" font-family="ui-monospace, monospace" font-size="9" text-anchor="middle">不可自动验证</text>
  <text x="80" y="218" fill="#87867f" font-family="ui-monospace, monospace" font-size="8" text-anchor="middle">Step 1</text>
  <path stroke="#d1cfc5" stroke-width="1.5" d="M140 150h48"/>
  <path fill="#d97757" d="M188 146h-8l8 8z"/>
  <text x="164" y="142" fill="#d97757" font-family="ui-monospace, monospace" font-size="8" text-anchor="middle">AI 转换</text>
  <rect width="100" height="100" x="200" y="100" fill="#d97757" rx="50"/>
  <text x="250" y="142" fill="#fff" font-family="ui-monospace, monospace" font-size="11" font-weight="600" text-anchor="middle">AI</text>
  <text x="250" y="158" fill="#fff" font-family="ui-monospace, monospace" font-size="9" text-anchor="middle">LLM 翻译</text>
  <text x="250" y="218" fill="#87867f" font-family="ui-monospace, monospace" font-size="8" text-anchor="middle">Step 2</text>
  <path stroke="#d1cfc5" stroke-width="1.5" d="M300 150h48"/>
  <path fill="#d97757" d="M348 146h-8l8 8z"/>
  <text x="324" y="142" fill="#d97757" font-family="ui-monospace, monospace" font-size="8" text-anchor="middle">形式化</text>
  <rect width="130" height="160" x="360" y="70" fill="#fff" stroke="#d97757" stroke-width="1.5" rx="8"/>
  <text x="425" y="90" fill="#141413" font-size="11" font-weight="600" text-anchor="middle">形式化规格</text>
  <text x="425" y="112" fill="#788c5d" font-family="ui-monospace, monospace" font-size="9" text-anchor="middle">∀x (P(x) → Q(x))</text>
  <text x="425" y="130" fill="#788c5d" font-family="ui-monospace, monospace" font-size="9" text-anchor="middle">◇(A ∧ ○B)</text>
  <text x="425" y="148" fill="#788c5d" font-family="ui-monospace, monospace" font-size="9" text-anchor="middle">State × Event → State</text>
  <rect width="100" height="22" x="375" y="162" fill="#788c5d" fill-opacity=".15" stroke="#788c5d" rx="4"/>
  <text x="425" y="177" fill="#141413" font-family="ui-monospace, monospace" font-size="9" text-anchor="middle">数学精确描述</text>
  <text x="425" y="218" fill="#87867f" font-family="ui-monospace, monospace" font-size="8" text-anchor="middle">Step 3</text>
  <path stroke="#d1cfc5" stroke-width="1.5" d="M425 230v25"/>
  <path fill="#d97757" d="m425 260-4-8h8z"/>
  <text x="440" y="248" fill="#d97757" font-family="ui-monospace, monospace" font-size="8">代码</text>
  <rect width="130" height="40" x="360" y="265" fill="#fff" stroke="#788c5d" stroke-width="1.5" rx="6"/>
  <text x="425" y="281" fill="#141413" font-size="10" text-anchor="middle">可执行代码</text>
  <text x="425" y="295" fill="#87867f" font-family="ui-monospace, monospace" font-size="8" text-anchor="middle">Step 4a</text>
  <path stroke="#d1cfc5" stroke-width="1.5" d="m425 230 115-50"/>
  <path fill="#d97757" d="m540 180-7-2 4 8z"/>
  <text x="498" y="198" fill="#d97757" font-family="ui-monospace, monospace" font-size="8">验证</text>
  <rect width="130" height="70" x="530" y="100" fill="#fff" stroke="#788c5d" stroke-width="1.5" rx="6"/>
  <text x="595" y="120" fill="#141413" font-size="10" text-anchor="middle">TLC 模型检查</text>
  <text x="595" y="136" fill="#788c5d" font-family="ui-monospace, monospace" font-size="9" text-anchor="middle">死锁 / 不变式</text>
  <text x="595" y="152" fill="#87867f" font-family="ui-monospace, monospace" font-size="8" text-anchor="middle">Step 4b</text>
  <path fill="none" stroke="#d97757" stroke-dasharray="4,3" stroke-width="1.5" d="M660 135c0-85-580-85-580-65" opacity=".6"/>
  <path fill="#d97757" d="m80 70-6-6h12z" opacity=".6"/>
  <text x="370" y="56" fill="#d97757" font-family="ui-monospace, monospace" font-size="8" text-anchor="middle">偏差报告 → 反馈给规格</text>
  <text x="340" y="312" fill="#87867f" font-family="ui-monospace, monospace" font-size="9" text-anchor="middle">AI-Native Engineering · BDD Formal Specification · 2025/06</text>
</svg>
