<svg xmlns="http://www.w3.org/2000/svg" font-family="system-ui,sans-serif" viewBox="0 0 800 450"><path fill="#faf9f5" d="M0 0h800v450H0z"/><text x="400" y="30" fill="#141413" font-size="16" font-weight="700" letter-spacing="1" text-anchor="middle">全链路可追溯性网络</text><text x="400" y="48" fill="#87867f" font-size="11" text-anchor="middle">需求 → 代码 → 测试，语义关联自动建立</text><g transform="translate(120 220)"><rect width="120" height="80" x="-60" y="-40" fill="#d97757" rx="12"/><text y="-18" fill="#faf9f5" font-size="13" font-weight="700" text-anchor="middle">REQ-001</text><text fill="#e3dacc" font-size="10" text-anchor="middle">用户下单功能</text><text y="18" fill="#e3dacc" font-size="9" text-anchor="middle">选择商品·支付</text><text y="32" fill="#faf9f5" font-size="9" text-anchor="middle">confidence: 0.85</text></g><g transform="translate(400 220)"><rect width="160" height="90" x="-80" y="-45" fill="#141413" rx="12"/><text y="-22" fill="#faf9f5" font-size="13" font-weight="700" text-anchor="middle">Commit abc123</text><text y="-2" fill="#d1cfc5" font-size="10" text-anchor="middle">order_service.py</text><text y="14" fill="#d1cfc5" font-size="10" text-anchor="middle">inventory_service.py</text><text y="34" fill="#788c5d" font-size="9" text-anchor="middle">implemented_by</text></g><g transform="translate(640 160)"><rect width="116" height="72" x="-58" y="-36" fill="#788c5d" rx="10"/><text y="-14" fill="#faf9f5" font-size="13" font-weight="700" text-anchor="middle">TEST-001</text><text y="4" fill="#e3dacc" font-size="9" text-anchor="middle">验证订单创建</text><text y="20" fill="#faf9f5" font-size="9" text-anchor="middle">tested_by: 0.82</text></g><g transform="translate(640 280)"><rect width="116" height="72" x="-58" y="-36" fill="#788c5d" rx="10"/><text y="-14" fill="#faf9f5" font-size="13" font-weight="700" text-anchor="middle">TEST-002</text><text y="4" fill="#e3dacc" font-size="9" text-anchor="middle">验证库存扣减</text><text y="20" fill="#faf9f5" font-size="9" text-anchor="middle">tested_by: 0.75</text></g><path stroke="#d97757" stroke-dasharray="8 3" stroke-width="3" d="M182 220h136"/><text x="250" y="210" fill="#d97757" font-size="10" font-weight="600" text-anchor="middle">0.85</text><text x="250" y="240" fill="#87867f" font-size="9" text-anchor="middle">语义相似度</text><path fill="none" stroke="#788c5d" stroke-dasharray="6 3" stroke-width="2.5" d="M482 205q78-25 100-77"/><text x="530" y="155" fill="#788c5d" font-size="9" font-weight="600" text-anchor="middle">0.82</text><path fill="none" stroke="#788c5d" stroke-dasharray="6 3" stroke-width="2.5" d="M482 235q78 25 100 41"/><text x="530" y="270" fill="#788c5d" font-size="9" font-weight="600" text-anchor="middle">0.75</text><rect width="740" height="70" x="30" y="365" fill="#e3dacc" opacity=".5" rx="10"/><rect width="140" height="44" x="50" y="378" fill="#d97757" opacity=".85" rx="8"/><text x="120" y="395" fill="#faf9f5" font-size="10" font-weight="600" text-anchor="middle">Step 1: 语义编码</text><text x="120" y="410" fill="#e3dacc" font-size="9" text-anchor="middle">AI 理解需求语义</text><path stroke="#87867f" stroke-width="1.5" marker-end="url(#arrow)" d="M195 400h55"/><text x="222" y="390" fill="#87867f" font-size="9" text-anchor="middle">编码</text><rect width="140" height="44" x="255" y="378" fill="#141413" opacity=".85" rx="8"/><text x="325" y="395" fill="#faf9f5" font-size="10" font-weight="600" text-anchor="middle">Step 2: 相似度计算</text><text x="325" y="410" fill="#d1cfc5" font-size="9" text-anchor="middle">余弦相似度匹配</text><path stroke="#87867f" stroke-width="1.5" marker-end="url(#arrow)" d="M400 400h55"/><text x="427" y="390" fill="#87867f" font-size="9" text-anchor="middle">匹配</text><rect width="140" height="44" x="460" y="378" fill="#788c5d" opacity=".85" rx="8"/><text x="530" y="395" fill="#faf9f5" font-size="10" font-weight="600" text-anchor="middle">Step 3: 建立关联</text><text x="530" y="410" fill="#e3dacc" font-size="9" text-anchor="middle">confidence &gt; 阈值</text><path stroke="#87867f" stroke-width="1.5" marker-end="url(#arrow)" d="M605 400h50"/><text x="630" y="390" fill="#87867f" font-size="9" text-anchor="middle">关联</text><rect width="100" height="44" x="660" y="378" fill="#d1cfc5" opacity=".85" rx="8"/><text x="710" y="395" fill="#141413" font-size="10" font-weight="600" text-anchor="middle">Step 4: 可视化</text><text x="710" y="410" fill="#87867f" font-size="9" text-anchor="middle">追溯图</text></svg>