<svg xmlns="http://www.w3.org/2000/svg" font-family="ui-serif, Georgia, serif" viewBox="0 0 560 220"><path fill="#faf9f5" d="M0 0h560v220H0z"/><text x="280" y="20" fill="#141413" font-size="13" font-weight="500" letter-spacing="-.02em" text-anchor="middle">Prompt Library 治理五维度</text><text x="280" y="36" fill="#87867f" font-family="ui-monospace, monospace" font-size="9.5" text-anchor="middle">postcodeengineering.com · 2025/04/22</text><rect width="96" height="80" x="40" y="54" fill="#fff" stroke="#d97757" stroke-width="1.8" rx="6"/><rect width="96" height="18" x="40" y="54" fill="#fef3c7" stroke="#d97757" rx="6"/><text x="88" y="67" fill="#d97757" font-family="ui-monospace, monospace" font-size="9" font-weight="600" text-anchor="middle">D1 · 组织架构</text><text x="88" y="86" fill="#141413" font-size="9" text-anchor="middle">Organization</text><text x="88" y="100" fill="#87867f" font-size="8.5" text-anchor="middle">谁负责管理</text><text x="88" y="112" fill="#87867f" font-size="8.5" text-anchor="middle">谁负责维护</text><rect width="14" height="14" x="128" y="88" fill="#d97757" rx="7"/><text x="135" y="98" fill="#fff" font-family="ui-monospace, monospace" font-size="7" text-anchor="middle">D1</text><rect width="96" height="80" x="152" y="54" fill="#fff" stroke="#ea580c" stroke-width="1.5" rx="6"/><rect width="96" height="18" x="152" y="54" fill="#fed7aa" stroke="#ea580c" rx="6"/><text x="200" y="67" fill="#ea580c" font-family="ui-monospace, monospace" font-size="9" font-weight="600" text-anchor="middle">D2 · 分类体系</text><text x="200" y="86" fill="#141413" font-size="9" text-anchor="middle">Taxonomy</text><text x="200" y="100" fill="#87867f" font-size="8.5" text-anchor="middle">如何分类</text><text x="200" y="112" fill="#87867f" font-size="8.5" text-anchor="middle">如何命名</text><rect width="14" height="14" x="240" y="88" fill="#ea580c" rx="7"/><text x="247" y="98" fill="#fff" font-family="ui-monospace, monospace" font-size="7" text-anchor="middle">D2</text><rect width="96" height="80" x="264" y="54" fill="#fff" stroke="#2563eb" stroke-width="1.5" rx="6"/><rect width="96" height="18" x="264" y="54" fill="#dbeafe" stroke="#2563eb" rx="6"/><text x="312" y="67" fill="#2563eb" font-family="ui-monospace, monospace" font-size="9" font-weight="600" text-anchor="middle">D3 · 生命周期</text><text x="312" y="86" fill="#141413" font-size="9" text-anchor="middle">Lifecycle</text><text x="312" y="100" fill="#87867f" font-size="8.5" text-anchor="middle">创建→评审→发布</text><text x="312" y="112" fill="#87867f" font-size="8.5" text-anchor="middle">更新→废弃</text><rect width="14" height="14" x="352" y="88" fill="#2563eb" rx="7"/><text x="359" y="98" fill="#fff" font-family="ui-monospace, monospace" font-size="7" text-anchor="middle">D3</text><rect width="96" height="80" x="376" y="54" fill="#fff" stroke="#059669" stroke-width="1.5" rx="6"/><rect width="96" height="18" x="376" y="54" fill="#d1fae5" stroke="#059669" rx="6"/><text x="424" y="67" fill="#059669" font-family="ui-monospace, monospace" font-size="9" font-weight="600" text-anchor="middle">D4 · 质量管理</text><text x="424" y="86" fill="#141413" font-size="9" text-anchor="middle">Quality</text><text x="424" y="100" fill="#87867f" font-size="8.5" text-anchor="middle">质量标准·评审流程</text><text x="424" y="112" fill="#87867f" font-size="8.5" text-anchor="middle">效果评估</text><rect width="14" height="14" x="464" y="88" fill="#059669" rx="7"/><text x="471" y="98" fill="#fff" font-family="ui-monospace, monospace" font-size="7" text-anchor="middle">D4</text><rect width="176" height="60" x="192" y="150" fill="#fff" stroke="#7c3aed" stroke-width="1.5" rx="6"/><rect width="176" height="18" x="192" y="150" fill="#ede9fe" stroke="#7c3aed" rx="6"/><text x="280" y="164" fill="#7c3aed" font-family="ui-monospace, monospace" font-size="9" font-weight="600" text-anchor="middle">D5 · 平台工具 Platform</text><text x="280" y="182" fill="#141413" font-size="9" text-anchor="middle">存储 · 检索 · 版本 · 权限</text><text x="280" y="196" fill="#87867f" font-size="8.5" text-anchor="middle">Prompt 版本管理与权限控制</text><path stroke="#d1cfc5" d="M136 94h16m96 0h16m96 0h16m-64 40v16"/><path stroke="#d1cfc5" stroke-dasharray="3,2" d="m280 150 32-40"/></svg>