<svg xmlns="http://www.w3.org/2000/svg" font-family="'Helvetica Neue', Arial, sans-serif" viewBox="0 0 800 480">
  <path d="M0 0h800v480H0z" style="fill:#faf9f5"/>
  <text x="40" y="36" style="fill:#141413;font-size:13px;font-weight:600">开发者工具演化史</text>
  <text x="40" y="52" style="fill:#87867f;font-size:11px">Evolution of Developer Tools: 1970s → AI-Native Era</text>
  <path stroke="#d1cfc5" stroke-width="2" d="M60 240h700"/>
  <path fill="#d1cfc5" d="m760 240-12-6v12z"/>
  <circle cx="100" cy="240" r="10" fill="#d97757" stroke="#141413" stroke-width="2"/>
  <rect width="100" height="150" x="50" y="270" fill="#141413" rx="10"/>
  <text x="100" y="295" fill="#faf9f5" font-size="12" font-weight="700" text-anchor="middle">1970s</text>
  <text x="100" y="312" fill="#d97757" font-size="11" font-weight="600" text-anchor="middle">命令行时代</text>
  <text x="100" y="330" fill="#e3dacc" font-size="10" text-anchor="middle">Command Line</text>
  <path stroke="#87867f" stroke-width=".8" d="M100 345v10"/>
  <text x="100" y="368" fill="#87867f" font-size="10" text-anchor="middle">文本命令交互</text>
  <text x="100" y="382" fill="#87867f" font-size="10" text-anchor="middle">学习曲线陡峭</text>
  <text x="100" y="396" fill="#87867f" font-size="10" text-anchor="middle">记忆负担重</text>
  <text x="100" y="412" fill="#e3dacc" font-size="10" font-weight="600" text-anchor="middle">核心：精确控制</text>
  <circle cx="250" cy="240" r="10" fill="#d97757" stroke="#141413" stroke-width="2"/>
  <rect width="100" height="150" x="200" y="270" fill="#141413" rx="10"/>
  <text x="250" y="295" fill="#faf9f5" font-size="12" font-weight="700" text-anchor="middle">1980s</text>
  <text x="250" y="312" fill="#d97757" font-size="11" font-weight="600" text-anchor="middle">GUI时代</text>
  <text x="250" y="330" fill="#e3dacc" font-size="10" text-anchor="middle">Graphical UI</text>
  <path stroke="#87867f" stroke-width=".8" d="M250 345v10"/>
  <text x="250" y="368" fill="#87867f" font-size="10" text-anchor="middle">图形界面</text>
  <text x="250" y="382" fill="#87867f" font-size="10" text-anchor="middle">可视化操作</text>
  <text x="250" y="396" fill="#87867f" font-size="10" text-anchor="middle">大量点击导航</text>
  <text x="250" y="412" fill="#e3dacc" font-size="10" font-weight="600" text-anchor="middle">核心：直观操作</text>
  <circle cx="400" cy="240" r="10" fill="#d97757" stroke="#141413" stroke-width="2"/>
  <rect width="100" height="150" x="350" y="270" fill="#141413" rx="10"/>
  <text x="400" y="295" fill="#faf9f5" font-size="12" font-weight="700" text-anchor="middle">1990s</text>
  <text x="400" y="312" fill="#d97757" font-size="11" font-weight="600" text-anchor="middle">IDE时代</text>
  <text x="400" y="330" fill="#e3dacc" font-size="10" text-anchor="middle">Integrated Dev Env</text>
  <path stroke="#87867f" stroke-width=".8" d="M400 345v10"/>
  <text x="400" y="368" fill="#87867f" font-size="10" text-anchor="middle">编辑+编译+调试</text>
  <text x="400" y="382" fill="#87867f" font-size="10" text-anchor="middle">上下文保持</text>
  <text x="400" y="396" fill="#87867f" font-size="10" text-anchor="middle">复杂性增加</text>
  <text x="400" y="412" fill="#e3dacc" font-size="10" font-weight="600" text-anchor="middle">核心：集成环境</text>
  <circle cx="550" cy="240" r="10" fill="#d97757" stroke="#141413" stroke-width="2"/>
  <rect width="100" height="150" x="500" y="270" fill="#141413" rx="10"/>
  <text x="550" y="295" fill="#faf9f5" font-size="12" font-weight="700" text-anchor="middle">2000s</text>
  <text x="550" y="312" fill="#d97757" font-size="11" font-weight="600" text-anchor="middle">云工具时代</text>
  <text x="550" y="330" fill="#e3dacc" font-size="10" text-anchor="middle">Cloud Tools</text>
  <path stroke="#87867f" stroke-width=".8" d="M550 345v10"/>
  <text x="550" y="368" fill="#87867f" font-size="10" text-anchor="middle">浏览器开发</text>
  <text x="550" y="382" fill="#87867f" font-size="10" text-anchor="middle">协作便利</text>
  <text x="550" y="396" fill="#87867f" font-size="10" text-anchor="middle">延迟+依赖</text>
  <text x="550" y="412" fill="#e3dacc" font-size="10" font-weight="600" text-anchor="middle">核心：协作便利</text>
  <circle cx="700" cy="240" r="14" fill="#d97757" stroke="#141413" stroke-width="2"/>
  <rect width="100" height="150" x="650" y="80" fill="#d97757" rx="10"/>
  <text x="700" y="105" fill="#faf9f5" font-size="12" font-weight="700" text-anchor="middle">2024+</text>
  <text x="700" y="122" fill="#faf9f5" font-size="11" font-weight="600" text-anchor="middle">AI-Native时代</text>
  <text x="700" y="140" fill="#faf9f5" font-size="10" text-anchor="middle">Natural Language + Code</text>
  <path stroke="#faf9f5" stroke-width=".8" d="M700 155v15" opacity=".5"/>
  <text x="700" y="183" fill="#141413" font-size="10" text-anchor="middle">自然语言协作</text>
  <text x="700" y="197" fill="#141413" font-size="10" text-anchor="middle">AI处理实现细节</text>
  <text x="700" y="211" fill="#141413" font-size="10" font-weight="600" text-anchor="middle">核心：意图表达</text>
  <path stroke="#d97757" stroke-width="1.5" d="M700 230v-4"/>
  <rect width="720" height="30" x="40" y="440" fill="#e3dacc" rx="6"/>
  <text x="60" y="460" fill="#141413" font-size="11">历史在押韵：每一次工具革命都在降低&quot;操作&quot;的难度，但提升了&quot;思考&quot;的重要性。</text>
  <text x="520" y="460" fill="#d97757" font-size="11" font-weight="600">AI-Native让写代码变简单，但让&quot;想清楚要什么&quot;变得更重要。</text>
</svg>
