<svg xmlns="http://www.w3.org/2000/svg" font-family="ui-serif, Georgia, serif" viewBox="0 0 680 320">
  <title>软件架构范式演化史</title>
  <desc>
    1990年代单体架构、2010年代微服务架构、2020年代AI-Native架构的对比时间线
  </desc>
  <path fill="#faf9f5" d="M0 0h680v320H0z"/>
  <text x="340" y="26" fill="#141413" font-size="14" font-weight="500" letter-spacing="-.02em" text-anchor="middle">软件架构范式演化史</text>
  <text x="340" y="42" fill="#87867f" font-family="ui-monospace, monospace" font-size="10" text-anchor="middle">AI-Native Engineering · 2025/04/01</text>
  <path stroke="#d1cfc5" stroke-dasharray="6,4" stroke-width="2" d="M120 175h440"/>
  <path fill="#d1cfc5" d="m560 175-10-6v12z"/>
  <rect width="160" height="190" x="40" y="80" fill="#fff" stroke="#d1cfc5" stroke-width="1.5" rx="8"/>
  <rect width="160" height="36" x="40" y="80" fill="#d1cfc5" rx="8"/>
  <path fill="#d1cfc5" d="M40 104h160v12H40z"/>
  <text x="120" y="103" fill="#141413" font-size="13" font-weight="600" text-anchor="middle">1990s</text>
  <text x="120" y="136" fill="#141413" font-size="14" text-anchor="middle">单体架构</text>
  <text x="120" y="154" fill="#87867f" font-family="ui-monospace, monospace" font-size="11" text-anchor="middle">Monolith</text>
  <rect width="128" height="84" x="56" y="170" fill="#faf9f5" stroke="#d1cfc5" rx="6"/>
  <text x="120" y="190" fill="#141413" font-size="10.5" text-anchor="middle">大教堂模式</text>
  <text x="120" y="208" fill="#87867f" font-size="10" text-anchor="middle">精心设计</text>
  <text x="120" y="222" fill="#87867f" font-size="10" text-anchor="middle">长期规划</text>
  <text x="120" y="236" fill="#87867f" font-size="10" text-anchor="middle">代码组织</text>
  <rect width="160" height="190" x="260" y="80" fill="#fff" stroke="#d1cfc5" stroke-width="1.5" rx="8"/>
  <rect width="160" height="36" x="260" y="80" fill="#d1cfc5" rx="8"/>
  <path fill="#d1cfc5" d="M260 104h160v12H260z"/>
  <text x="340" y="103" fill="#141413" font-size="13" font-weight="600" text-anchor="middle">2010s</text>
  <text x="340" y="136" fill="#141413" font-size="14" text-anchor="middle">微服务架构</text>
  <text x="340" y="154" fill="#87867f" font-family="ui-monospace, monospace" font-size="11" text-anchor="middle">Microservices</text>
  <rect width="128" height="84" x="276" y="170" fill="#faf9f5" stroke="#d1cfc5" rx="6"/>
  <text x="340" y="190" fill="#141413" font-size="10.5" text-anchor="middle">集市模式</text>
  <text x="340" y="208" fill="#87867f" font-size="10" text-anchor="middle">小团队</text>
  <text x="340" y="222" fill="#87867f" font-size="10" text-anchor="middle">独立部署</text>
  <text x="340" y="236" fill="#87867f" font-size="10" text-anchor="middle">服务拆分</text>
  <rect width="160" height="190" x="480" y="80" fill="#fff" stroke="#d97757" stroke-width="2" rx="8"/>
  <rect width="160" height="36" x="480" y="80" fill="#d97757" rx="8"/>
  <path fill="#d97757" d="M480 104h160v12H480z"/>
  <text x="560" y="103" fill="#fff" font-size="13" font-weight="600" text-anchor="middle">2020s</text>
  <text x="560" y="136" fill="#141413" font-size="14" text-anchor="middle">AI-Native</text>
  <text x="560" y="154" fill="#87867f" font-family="ui-monospace, monospace" font-size="11" text-anchor="middle">？</text>
  <rect width="128" height="84" x="496" y="170" fill="#faf9f5" stroke="#d97757" rx="6"/>
  <text x="560" y="190" fill="#d97757" font-size="10.5" text-anchor="middle">新范式</text>
  <text x="560" y="208" fill="#87867f" font-size="10" text-anchor="middle">Context边界</text>
  <text x="560" y="222" fill="#87867f" font-size="10" text-anchor="middle">Intent对齐</text>
  <text x="560" y="236" fill="#87867f" font-size="10" text-anchor="middle">Context组织</text>
  <text x="120" y="288" fill="#87867f" font-family="ui-monospace, monospace" font-size="9" text-anchor="middle">复杂性：代码内部</text>
  <text x="340" y="288" fill="#87867f" font-family="ui-monospace, monospace" font-size="9" text-anchor="middle">复杂性：服务交互</text>
  <text x="560" y="288" fill="#d97757" font-family="ui-monospace, monospace" font-size="9" text-anchor="middle">复杂性：Context管理</text>
</svg>
