<svg xmlns="http://www.w3.org/2000/svg" font-family="ui-serif, Georgia, serif" viewBox="0 0 600 400">
  <path fill="#faf9f5" d="M0 0h600v400H0z"/>
  <text x="300" y="28" fill="#141413" font-size="14" font-weight="500" letter-spacing="-.02em" text-anchor="middle">跨会话一致性的三个层面</text>
  <text x="300" y="44" fill="#87867f" font-family="ui-monospace, monospace" font-size="10" text-anchor="middle">AI-Native Engineering · 2025/01/12</text>
  <rect width="480" height="86" x="60" y="62" fill="#fff" stroke="#d97757" stroke-width="1.8" rx="8"/>
  <rect width="480" height="30" x="60" y="62" fill="#d97757" rx="8"/>
  <path fill="#d97757" d="M60 80h480v12H60z"/>
  <text x="78" y="82" fill="#fff" font-family="ui-monospace, monospace" font-size="13" font-weight="600">身份一致性</text>
  <text x="78" y="110" fill="#141413" font-size="12.5">用户是谁 — 偏好、历史、关系</text>
  <text x="78" y="128" fill="#87867f" font-size="11">Agent 知道「我是年费会员，经常遇到登录问题」</text>
  <rect width="480" height="86" x="60" y="160" fill="#fff" stroke="#d1cfc5" stroke-width="1.8" rx="8"/>
  <rect width="480" height="30" x="60" y="160" fill="#788c5d" rx="8"/>
  <path fill="#788c5d" d="M60 178h480v12H60z"/>
  <text x="78" y="182" fill="#fff" font-family="ui-monospace, monospace" font-size="13" font-weight="600">知识一致性</text>
  <text x="78" y="210" fill="#141413" font-size="12.5">已经告诉 Agent 的事实与双方达成的共识</text>
  <text x="78" y="228" fill="#87867f" font-size="11">Agent 知道「用户曾提到把配色从蓝色改为绿色」</text>
  <rect width="480" height="86" x="60" y="258" fill="#fff" stroke="#d1cfc5" stroke-width="1.8" rx="8"/>
  <rect width="480" height="30" x="60" y="258" fill="#87867f" rx="8"/>
  <path fill="#87867f" d="M60 276h480v12H60z"/>
  <text x="78" y="280" fill="#fff" font-family="ui-monospace, monospace" font-size="13" font-weight="600">上下文一致性</text>
  <text x="78" y="308" fill="#141413" font-size="12.5">当前任务进度、之前决策的理由、待办事项</text>
  <text x="78" y="326" fill="#87867f" font-size="11">Agent 知道「上次讨论了方案修改，上周说想改蓝色配色」</text>
  <path fill="none" stroke="#d97757" stroke-dasharray="4,3" stroke-width="1.5" d="M552 90c14 0 14 30 0 30" opacity=".7"/>
  <path fill="none" stroke="#788c5d" stroke-dasharray="4,3" stroke-width="1.5" d="M552 188c14 0 14 30 0 30" opacity=".7"/>
  <path fill="#d97757" d="m552 120-6-8h12z" opacity=".7"/>
  <path fill="#788c5d" d="m552 218-6-8h12z" opacity=".7"/>
  <text x="300" y="376" fill="#87867f" font-family="ui-monospace, monospace" font-size="9" text-anchor="middle">来源：AI-Native Engineering 系列</text>
</svg>
