<svg xmlns="http://www.w3.org/2000/svg" font-family="ui-serif, Georgia, serif" viewBox="0 0 560 280">
  <path fill="#faf9f5" d="M0 0h560v280H0z"/>
  <text x="280" y="20" fill="#141413" font-size="13" font-weight="500" letter-spacing="-.02em" text-anchor="middle">AISE 五层架构</text>
  <text x="280" y="36" fill="#87867f" font-family="ui-monospace, monospace" font-size="9.5" text-anchor="middle">postcodeengineering.com · 2025/05/12</text>
  <rect width="480" height="38" x="40" y="50" fill="#fff" stroke="#d97757" stroke-width="1.8" rx="6"/>
  <rect width="480" height="20" x="40" y="50" fill="#fef3c7" stroke="#d97757" rx="6"/>
  <text x="60" y="65" fill="#d97757" font-family="ui-monospace, monospace" font-size="10" font-weight="600">L5 · 度量层</text>
  <text x="160" y="65" fill="#141413" font-size="11" font-weight="600">Metrics · 指标监控 · 反馈闭环</text>
  <rect width="18" height="18" x="490" y="57" fill="#d97757" rx="9"/>
  <text x="499" y="70" fill="#fff" font-family="ui-monospace, monospace" font-size="9" text-anchor="middle">L5</text>
  <path stroke="#d1cfc5" stroke-width="1.5" d="M280 88v10"/>
  <path fill="#d1cfc5" d="m276 98 4 8 4-8z"/>
  <rect width="480" height="38" x="40" y="106" fill="#fff" stroke="#ea580c" stroke-width="1.5" rx="6"/>
  <rect width="480" height="20" x="40" y="106" fill="#fed7aa" stroke="#ea580c" rx="6"/>
  <text x="60" y="121" fill="#ea580c" font-family="ui-monospace, monospace" font-size="10" font-weight="600">L4 · 治理层</text>
  <text x="160" y="121" fill="#141413" font-size="11" font-weight="600">Governance · 合规 · 安全 · 审计</text>
  <rect width="18" height="18" x="490" y="113" fill="#ea580c" rx="9"/>
  <text x="499" y="126" fill="#fff" font-family="ui-monospace, monospace" font-size="9" text-anchor="middle">L4</text>
  <path stroke="#d1cfc5" stroke-width="1.5" d="M280 144v10"/>
  <path fill="#d1cfc5" d="m276 154 4 8 4-8z"/>
  <rect width="480" height="38" x="40" y="162" fill="#fff" stroke="#2563eb" stroke-width="1.5" rx="6"/>
  <rect width="480" height="20" x="40" y="162" fill="#dbeafe" stroke="#2563eb" rx="6"/>
  <text x="60" y="177" fill="#2563eb" font-family="ui-monospace, monospace" font-size="10" font-weight="600">L3 · 开发层</text>
  <text x="160" y="177" fill="#141413" font-size="11" font-weight="600">Development · 编码 · 测试 · 部署</text>
  <rect width="18" height="18" x="490" y="169" fill="#2563eb" rx="9"/>
  <text x="499" y="182" fill="#fff" font-family="ui-monospace, monospace" font-size="9" text-anchor="middle">L3</text>
  <path stroke="#d1cfc5" stroke-width="1.5" d="M280 200v10"/>
  <path fill="#d1cfc5" d="m276 210 4 8 4-8z"/>
  <rect width="480" height="28" x="40" y="218" fill="#fff" stroke="#059669" stroke-width="1.5" rx="6"/>
  <rect width="480" height="18" x="40" y="218" fill="#d1fae5" stroke="#059669" rx="6"/>
  <text x="60" y="232" fill="#059669" font-family="ui-monospace, monospace" font-size="10" font-weight="600">L2 · 需求层</text>
  <text x="160" y="232" fill="#141413" font-size="11" font-weight="600">Requirements · 意图表达 · 验收标准</text>
  <rect width="18" height="18" x="490" y="225" fill="#059669" rx="9"/>
  <text x="499" y="238" fill="#fff" font-family="ui-monospace, monospace" font-size="9" text-anchor="middle">L2</text>
  <path stroke="#d1cfc5" stroke-width="1.5" d="M280 246v10"/>
  <path fill="#d1cfc5" d="m276 256 4 8 4-8z"/>
  <rect width="480" height="12" x="40" y="264" fill="#f0eee6" stroke="#d97757" rx="4"/>
  <text x="60" y="273" fill="#d97757" font-family="ui-monospace, monospace" font-size="9" font-weight="600">L1 · 理论层 Theory</text>
  <text x="200" y="273" fill="#87867f" font-size="9">哲学基础 · 元假设</text>
  <rect width="18" height="12" x="490" y="268" fill="#d97757" rx="6"/>
  <text x="499" y="277" fill="#fff" font-family="ui-monospace, monospace" font-size="8" text-anchor="middle">L1</text>
</svg>
