<svg xmlns="http://www.w3.org/2000/svg" font-family="ui-serif, Georgia, serif" viewBox="0 0 680 360">
  <path fill="#faf9f5" d="M0 0h680v360H0z"/>
  <text x="340" y="26" fill="#141413" font-size="14" font-weight="500" letter-spacing="-.02em" text-anchor="middle">价值链重构：从线性成本到知识复杂度成本</text>
  <text x="340" y="42" fill="#87867f" font-family="ui-monospace, monospace" font-size="10" text-anchor="middle">传统工程 vs AI-Native 工程</text>
  <path stroke="#d1cfc5" stroke-dasharray="4,4" d="M340 58v282" opacity=".6"/>
  <rect width="300" height="44" x="20" y="58" fill="#fff" stroke="#d97757" stroke-width="1.5" rx="6"/>
  <text x="36" y="79" fill="#d97757" font-family="ui-monospace, monospace" font-size="12" font-weight="600">传统工程</text>
  <text x="120" y="79" fill="#141413" font-size="11">需求 → 代码 → 价值</text>
  <rect width="72" height="28" x="36" y="116" fill="#fff" stroke="#d1cfc5" stroke-width="1.5" rx="5"/>
  <text x="72" y="134" fill="#141413" font-size="11" text-anchor="middle">需求</text>
  <path stroke="#d1cfc5" stroke-width="1.5" d="M108 130h20"/>
  <path fill="#d1cfc5" d="m128 126 8 4-8 4z"/>
  <rect width="72" height="28" x="140" y="116" fill="#fff" stroke="#d1cfc5" stroke-width="1.5" rx="5"/>
  <text x="176" y="134" fill="#141413" font-size="11" text-anchor="middle">代码</text>
  <path stroke="#d1cfc5" stroke-width="1.5" d="M212 130h20"/>
  <path fill="#d1cfc5" d="m232 126 8 4-8 4z"/>
  <rect width="72" height="28" x="244" y="116" fill="#fff" stroke="#d1cfc5" stroke-width="1.5" rx="5"/>
  <text x="280" y="134" fill="#141413" font-size="11" text-anchor="middle">价值</text>
  <rect width="120" height="22" x="36" y="158" fill="#e3dacc" rx="11"/>
  <text x="96" y="173" fill="#d97757" font-family="ui-monospace, monospace" font-size="10" text-anchor="middle">线性维护成本 ↑</text>
  <path fill="none" stroke="#d97757" stroke-width="2" d="M36 290q64-10 124-50t140-40"/>
  <circle cx="36" cy="290" r="4" fill="#d97757"/>
  <circle cx="300" cy="200" r="4" fill="#d97757"/>
  <text x="36" y="310" fill="#87867f" font-family="ui-monospace, monospace" font-size="9">代码量 →</text>
  <text x="36" y="290" fill="#87867f" font-family="ui-monospace, monospace" font-size="9">成本</text>
  <rect width="300" height="44" x="360" y="58" fill="#fff" stroke="#788c5d" stroke-width="1.5" rx="6"/>
  <text x="376" y="79" fill="#788c5d" font-family="ui-monospace, monospace" font-size="12" font-weight="600">AI-Native 工程</text>
  <text x="496" y="79" fill="#141413" font-size="11">需求 → Intent → AI代码 → 价值</text>
  <rect width="60" height="28" x="376" y="116" fill="#fff" stroke="#d1cfc5" stroke-width="1.5" rx="5"/>
  <text x="406" y="134" fill="#141413" font-size="11" text-anchor="middle">需求</text>
  <path stroke="#d1cfc5" stroke-width="1.5" d="M436 130h16"/>
  <path fill="#d1cfc5" d="m452 126 8 4-8 4z"/>
  <rect width="60" height="28" x="464" y="116" fill="#fff" stroke="#788c5d" stroke-width="1.5" rx="5"/>
  <text x="494" y="134" fill="#141413" font-size="11" text-anchor="middle">Intent</text>
  <path stroke="#788c5d" stroke-width="1.5" d="M524 130h16"/>
  <path fill="#788c5d" d="m540 126 8 4-8 4z"/>
  <rect width="64" height="28" x="552" y="116" fill="#fff" stroke="#d1cfc5" stroke-width="1.5" rx="5"/>
  <text x="584" y="134" fill="#141413" font-size="11" text-anchor="middle">AI代码</text>
  <rect width="132" height="22" x="530" y="158" fill="#dde5d4" rx="11"/>
  <text x="596" y="173" fill="#788c5d" font-family="ui-monospace, monospace" font-size="10" text-anchor="middle">知识复杂度成本 ↓</text>
  <path fill="none" stroke="#788c5d" stroke-width="2" d="M376 290q44-5 64-12t80-58 120-25"/>
  <circle cx="376" cy="290" r="4" fill="#788c5d"/>
  <circle cx="640" cy="195" r="4" fill="#788c5d"/>
  <text x="376" y="310" fill="#87867f" font-family="ui-monospace, monospace" font-size="9">知识复杂度 →</text>
  <text x="376" y="290" fill="#87867f" font-family="ui-monospace, monospace" font-size="9">成本</text>
  <path stroke="#d97757" stroke-dasharray="3,2" stroke-width="1.5" d="M340 265v17"/>
  <circle cx="340" cy="265" r="5" fill="none" stroke="#d97757" stroke-width="1.5"/>
  <text x="340" y="256" fill="#d97757" font-family="ui-monospace, monospace" font-size="9" text-anchor="middle">交叉点</text>
  <text x="340" y="335" fill="#87867f" font-family="ui-monospace, monospace" font-size="9" text-anchor="middle">当知识复杂度 &gt; 临界值，AI-Native 成本优势显现</text>
  <rect width="640" height="18" x="20" y="340" fill="none" rx="4"/>
  <text x="340" y="352" fill="#87867f" font-family="ui-monospace, monospace" font-size="9" text-anchor="middle">传统成本与代码量线性相关；AI-Native 成本与知识抽象度相关 — 复杂度可控</text>
</svg>
