<svg xmlns="http://www.w3.org/2000/svg" font-family="ui-serif, Georgia, serif" viewBox="0 0 560 240"><path fill="#faf9f5" d="M0 0h560v240H0z"/><text x="280" y="20" fill="#141413" font-size="13" font-weight="500" letter-spacing="-.02em" text-anchor="middle">Context Rot 的三层危害</text><text x="280" y="36" fill="#87867f" font-family="ui-monospace, monospace" font-size="9.5" text-anchor="middle">postcodeengineering.com · 2025/04/10</text><rect width="520" height="58" x="20" y="54" fill="#fff" stroke="#d97757" stroke-width="1.8" rx="8"/><rect width="520" height="58" x="20" y="54" fill="#fef3c7" fill-opacity=".3" rx="8"/><text x="44" y="76" fill="#d97757" font-family="ui-monospace, monospace" font-size="10" font-weight="600">第一层 · 显性危害</text><text x="44" y="92" fill="#141413" font-size="12" font-weight="600">错误建议</text><text x="140" y="92" fill="#87867f" font-size="10.5">AI 给出与当前代码库状态不符的建议，开发者直接看到错误</text><rect width="34" height="18" x="490" y="72" fill="#fef3c7" stroke="#d97757" rx="9"/><text x="507" y="85" fill="#d97757" font-family="ui-monospace, monospace" font-size="9" text-anchor="middle">表面</text><rect width="480" height="58" x="40" y="122" fill="#fff" stroke="#ea580c" stroke-width="1.5" rx="8"/><rect width="480" height="58" x="40" y="122" fill="#fed7aa" fill-opacity=".2" rx="8"/><text x="64" y="144" fill="#ea580c" font-family="ui-monospace, monospace" font-size="10" font-weight="600">第二层 · 隐性危害</text><text x="64" y="160" fill="#141413" font-size="12" font-weight="600">认知偏差</text><text x="170" y="160" fill="#87867f" font-size="10.5">AI 的偏差渗入开发者的思考框架，形成隐性错误前提</text><rect width="18" height="18" x="490" y="140" fill="#fed7aa" stroke="#ea580c" rx="9"/><text x="499" y="153" fill="#ea580c" font-family="ui-monospace, monospace" font-size="9" text-anchor="middle">隐蔽</text><rect width="440" height="42" x="60" y="190" fill="#fff" stroke="#2563eb" stroke-width="1.5" rx="8"/><rect width="440" height="42" x="60" y="190" fill="#dbeafe" fill-opacity=".2" rx="8"/><text x="84" y="210" fill="#2563eb" font-family="ui-monospace, monospace" font-size="10" font-weight="600">第三层 · 最隐蔽</text><text x="84" y="224" fill="#141413" font-size="11" font-weight="600">决策路径污染</text><text x="230" y="224" fill="#87867f" font-size="10">历史决策被固化，未来的决策建立在错误前提上</text><rect width="18" height="14" x="470" y="204" fill="#dbeafe" stroke="#2563eb" rx="7"/><text x="479" y="215" fill="#2563eb" font-family="ui-monospace, monospace" font-size="8" text-anchor="middle">极隐蔽</text><text x="540" y="90" fill="#d97757" font-family="ui-monospace, monospace" font-size="8" transform="rotate(-90 540 90)">严重程度</text><path stroke="#d1cfc5" stroke-dasharray="2,2" d="M536 68v152"/><path fill="#d1cfc5" d="m536 68-4 6h8zm0 152-4-6h8z"/><text x="280" y="234" fill="#87867f" font-size="9" font-style="italic" text-anchor="middle">第三层最难察觉：开发者甚至不知道自己基于错误前提在决策</text></svg>