<svg xmlns="http://www.w3.org/2000/svg" font-family="ui-serif, Georgia, serif" viewBox="0 0 680 360">
  <path fill="#faf9f5" d="M0 0h680v360H0z"/>
  <text x="340" y="26" fill="#141413" font-size="14" font-weight="500" letter-spacing="-.02em" text-anchor="middle">记忆版本控制流程</text>
  <text x="340" y="42" fill="#87867f" font-family="ui-monospace, monospace" font-size="10" text-anchor="middle">知识输入 → 版本化存储 → 验证 → 输出</text>
  <rect width="130" height="80" x="30" y="65" fill="#fff" stroke="#d97757" stroke-width="1.8" rx="8"/>
  <text x="95" y="89" fill="#d97757" font-family="ui-monospace, monospace" font-size="11" font-weight="600" text-anchor="middle">Knowledge Input</text>
  <text x="95" y="107" fill="#141413" font-size="10" text-anchor="middle">带时间戳的知识</text>
  <text x="95" y="122" fill="#87867f" font-family="ui-monospace, monospace" font-size="9" text-anchor="middle">t₀, t₁, t₂ ...</text>
  <path stroke="#d1cfc5" stroke-width="1.8" d="M160 105h30"/>
  <path fill="#d1cfc5" d="m190 101-7 4 7 4z"/>
  <text x="175" y="97" fill="#87867f" font-family="ui-monospace, monospace" font-size="8" text-anchor="middle">写入</text>
  <rect width="180" height="240" x="200" y="58" fill="#fff" stroke="#d1cfc5" stroke-width="1.5" rx="8"/>
  <text x="290" y="78" fill="#141413" font-family="ui-monospace, monospace" font-size="11" font-weight="600" text-anchor="middle">Versioned Memory Store</text>
  <rect width="156" height="52" x="212" y="88" fill="#fff" stroke="#d97757" stroke-width="1.5" rx="6"/>
  <text x="222" y="106" fill="#d97757" font-family="ui-monospace, monospace" font-size="9" font-weight="600">v1.0.0</text>
  <text x="222" y="120" fill="#141413" font-size="9.5">Python 有 GIL</text>
  <text x="222" y="133" fill="#87867f" font-family="ui-monospace, monospace" font-size="8">valid_from: 2020</text>
  <rect width="156" height="52" x="212" y="148" fill="#fff" stroke="#d97757" stroke-width="1.5" rx="6"/>
  <text x="222" y="166" fill="#d97757" font-family="ui-monospace, monospace" font-size="9" font-weight="600">v2.0.0</text>
  <text x="222" y="180" fill="#141413" font-size="9.5">Python 3.12+ 可禁用 GIL</text>
  <text x="222" y="193" fill="#87867f" font-family="ui-monospace, monospace" font-size="8">valid_from: 2023.10</text>
  <rect width="156" height="52" x="212" y="208" fill="#fff" stroke="#788c5d" stroke-width="1.5" rx="6"/>
  <text x="222" y="226" fill="#788c5d" font-family="ui-monospace, monospace" font-size="9" font-weight="600">v3.0.0</text>
  <text x="222" y="240" fill="#141413" font-size="9.5">PEP 703 正式支持</text>
  <text x="222" y="253" fill="#87867f" font-family="ui-monospace, monospace" font-size="8">valid_from: 2024.03</text>
  <path stroke="#d1cfc5" stroke-width="1.8" d="M380 105h30"/>
  <path fill="#d1cfc5" d="m410 101-7 4 7 4z"/>
  <text x="395" y="97" fill="#87867f" font-family="ui-monospace, monospace" font-size="8" text-anchor="middle">查询</text>
  <rect width="120" height="74" x="420" y="68" fill="#fff" stroke="#788c5d" stroke-width="1.8" rx="8"/>
  <text x="480" y="91" fill="#788c5d" font-family="ui-monospace, monospace" font-size="10" font-weight="600" text-anchor="middle">Validation Check</text>
  <text x="480" y="109" fill="#141413" font-size="9" text-anchor="middle">与真值比对</text>
  <text x="480" y="124" fill="#141413" font-size="9" text-anchor="middle">选择正确版本</text>
  <path stroke="#788c5d" stroke-width="2" d="M540 105h30"/>
  <path fill="#788c5d" d="m570 101-7 4 7 4z"/>
  <text x="555" y="97" fill="#788c5d" font-family="ui-monospace, monospace" font-size="8" text-anchor="middle">最新</text>
  <rect width="80" height="74" x="580" y="68" fill="#fff" stroke="#788c5d" stroke-width="1.8" rx="8"/>
  <text x="620" y="91" fill="#788c5d" font-family="ui-monospace, monospace" font-size="10" font-weight="600" text-anchor="middle">Output</text>
  <text x="620" y="109" fill="#141413" font-size="9" text-anchor="middle">环境适配</text>
  <text x="620" y="124" fill="#141413" font-size="9" text-anchor="middle">答案</text>
  <path fill="none" stroke="#87867f" stroke-dasharray="5,4" stroke-width="1.8" d="M600 142c0 68-220 98-370 98" opacity=".7"/>
  <path fill="#87867f" d="m230 240 8-6-2 9z" opacity=".7"/>
  <text x="420" y="238" fill="#87867f" font-family="ui-monospace, monospace" font-size="8.5" text-anchor="middle">Outdated · 版本漂移</text>
  <rect width="12" height="12" x="30" y="310" fill="#d97757" rx="2"/>
  <text x="48" y="320" fill="#141413" font-family="ui-monospace, monospace" font-size="9">版本卡片</text>
  <rect width="12" height="12" x="130" y="310" fill="#788c5d" rx="2"/>
  <text x="148" y="320" fill="#141413" font-family="ui-monospace, monospace" font-size="9">当前有效</text>
  <path stroke="#87867f" stroke-dasharray="4,3" stroke-width="1.5" d="M230 316h30"/>
  <text x="268" y="320" fill="#87867f" font-family="ui-monospace, monospace" font-size="9">过期路径</text>
  <rect width="120" height="36" x="420" y="160" fill="#f0eee6" stroke="#d1cfc5" stroke-width="1.2" rx="6"/>
  <text x="480" y="177" fill="#141413" font-family="ui-monospace, monospace" font-size="9" font-weight="600" text-anchor="middle">Source of Truth</text>
  <text x="480" y="190" fill="#87867f" font-size="8.5" text-anchor="middle">官方文档 / 用户反馈</text>
</svg>
