<svg xmlns="http://www.w3.org/2000/svg" font-family="'Helvetica Neue', Arial, sans-serif" viewBox="0 0 800 460"><path d="M0 0h800v460H0z" style="fill:#faf9f5"/><text x="40" y="36" style="fill:#141413;font-size:13px;font-weight:600">AI系统演化史：从特征工程到数据工程</text><text x="40" y="52" style="fill:#87867f;font-size:11px">Evolution of AI Systems: From Feature Engineering to Data Engineering</text><rect width="170" height="320" x="40" y="80" fill="#141413" rx="12"/><rect width="170" height="36" x="40" y="80" fill="#d97757" rx="12"/><path fill="#d97757" d="M40 100h170v16H40z"/><text x="125" y="104" fill="#faf9f5" font-size="14" font-weight="700" text-anchor="middle">2010s</text><text x="125" y="140" fill="#faf9f5" font-size="13" font-weight="700" text-anchor="middle">特征工程时代</text><text x="125" y="156" fill="#87867f" font-size="10" text-anchor="middle">Feature Engineering</text><path stroke="#2a2a2a" d="M60 172h130"/><text x="60" y="194" fill="#87867f" font-size="10">核心工作</text><text x="60" y="210" fill="#e3dacc" font-size="11" font-weight="600">特征设计</text><text x="60" y="236" fill="#87867f" font-size="10">关键技能</text><text x="60" y="252" fill="#e3dacc" font-size="11" font-weight="600">领域知识</text><text x="60" y="278" fill="#87867f" font-size="10">产出物</text><text x="60" y="294" fill="#e3dacc" font-size="11" font-weight="600">特征集</text><text x="60" y="330" fill="#87867f" font-size="10">特点</text><text x="60" y="348" fill="#87867f" font-size="10">手工设计特征</text><text x="60" y="362" fill="#87867f" font-size="10">简单模型（LR/DT）</text><text x="60" y="376" fill="#87867f" font-size="10">可解释性强</text><text x="215" y="240" fill="#d97757" font-size="18" font-weight="bold">→</text><rect width="170" height="320" x="225" y="80" fill="#141413" rx="12"/><rect width="170" height="36" x="225" y="80" fill="#788c5d" rx="12"/><path fill="#788c5d" d="M225 100h170v16H225z"/><text x="310" y="104" fill="#faf9f5" font-size="14" font-weight="700" text-anchor="middle">2015s</text><text x="310" y="140" fill="#faf9f5" font-size="13" font-weight="700" text-anchor="middle">模型工程时代</text><text x="310" y="156" fill="#87867f" font-size="10" text-anchor="middle">Model Engineering</text><path stroke="#2a2a2a" d="M245 172h130"/><text x="245" y="194" fill="#87867f" font-size="10">核心工作</text><text x="245" y="210" fill="#e3dacc" font-size="11" font-weight="600">架构设计</text><text x="245" y="236" fill="#87867f" font-size="10">关键技能</text><text x="245" y="252" fill="#e3dacc" font-size="11" font-weight="600">ML/DL</text><text x="245" y="278" fill="#87867f" font-size="10">产出物</text><text x="245" y="294" fill="#e3dacc" font-size="11" font-weight="600">模型</text><text x="245" y="330" fill="#87867f" font-size="10">特点</text><text x="245" y="348" fill="#87867f" font-size="10">深度学习兴起</text><text x="245" y="362" fill="#87867f" font-size="10">特征自动学习</text><text x="245" y="376" fill="#87867f" font-size="10">工程师设计架构</text><text x="400" y="240" fill="#d97757" font-size="18" font-weight="bold">→</text><rect width="170" height="320" x="410" y="80" fill="#141413" rx="12"/><rect width="170" height="36" x="410" y="80" fill="#87867f" rx="12"/><path fill="#87867f" d="M410 100h170v16H410z"/><text x="495" y="104" fill="#faf9f5" font-size="14" font-weight="700" text-anchor="middle">2020s</text><text x="495" y="140" fill="#faf9f5" font-size="13" font-weight="700" text-anchor="middle">大模型时代</text><text x="495" y="156" fill="#87867f" font-size="10" text-anchor="middle">LLM Era</text><path stroke="#2a2a2a" d="M430 172h130"/><text x="430" y="194" fill="#87867f" font-size="10">核心工作</text><text x="430" y="210" fill="#e3dacc" font-size="11" font-weight="600">Prompt工程</text><text x="430" y="236" fill="#87867f" font-size="10">关键技能</text><text x="430" y="252" fill="#e3dacc" font-size="11" font-weight="600">语言理解</text><text x="430" y="278" fill="#87867f" font-size="10">产出物</text><text x="430" y="294" fill="#e3dacc" font-size="11" font-weight="600">Prompt</text><text x="430" y="330" fill="#87867f" font-size="10">特点</text><text x="430" y="348" fill="#87867f" font-size="10">预训练+微调</text><text x="430" y="362" fill="#87867f" font-size="10">RAG设计</text><text x="430" y="376" fill="#87867f" font-size="10">不再从头训练</text><text x="585" y="240" fill="#d97757" font-size="18" font-weight="bold">→</text><rect width="170" height="320" x="595" y="80" fill="#d97757" stroke="#141413" stroke-width="2" rx="12"/><rect width="170" height="36" x="595" y="80" fill="#141413" rx="12"/><path fill="#141413" d="M595 100h170v16H595z"/><text x="680" y="104" fill="#d97757" font-size="14" font-weight="700" text-anchor="middle">2024+</text><text x="680" y="140" fill="#faf9f5" font-size="13" font-weight="700" text-anchor="middle">数据工程时代</text><text x="680" y="156" fill="#e3dacc" font-size="10" text-anchor="middle">Data Engineering</text><path stroke="#faf9f5" stroke-opacity=".3" d="M615 172h130"/><text x="615" y="194" fill="#faf9f5" fill-opacity=".7" font-size="10">核心工作</text><text x="615" y="210" fill="#faf9f5" font-size="11" font-weight="700">数据准备</text><text x="615" y="236" fill="#faf9f5" fill-opacity=".7" font-size="10">关键技能</text><text x="615" y="252" fill="#faf9f5" font-size="11" font-weight="700">数据质量</text><text x="615" y="278" fill="#faf9f5" fill-opacity=".7" font-size="10">产出物</text><text x="615" y="294" fill="#faf9f5" font-size="11" font-weight="700">数据集</text><text x="615" y="330" fill="#faf9f5" fill-opacity=".7" font-size="10">特点</text><text x="615" y="348" fill="#faf9f5" font-size="10">大模型能力已很强</text><text x="615" y="362" fill="#faf9f5" font-size="10">瓶颈在于数据质量</text><text x="615" y="376" fill="#e3dacc" font-size="10" font-weight="600">数据即Intent</text><rect width="720" height="30" x="40" y="420" fill="#e3dacc" rx="6"/><text x="60" y="440" fill="#141413" font-size="11">每一次AI技术跃迁，都重新定义了&quot;什么是核心竞争力&quot;</text><text x="430" y="440" fill="#d97757" font-size="11" font-weight="600">AI-Native时代：核心竞争力 = 准备高质量数据的能力</text></svg>