<svg xmlns="http://www.w3.org/2000/svg" font-family="ui-serif, Georgia, 'Times New Roman', serif" viewBox="0 0 640 360"><path fill="#faf9f5" d="M0 0h640v360H0z"/><text x="320" y="26" fill="#141413" font-size="14" font-weight="500" letter-spacing="-.02em" text-anchor="middle">Context设计的五个维度</text><text x="320" y="42" fill="#87867f" font-family="ui-monospace, monospace" font-size="10" text-anchor="middle">Context设计师的核心能力框架</text><circle cx="320" cy="185" r="50" fill="#fff" stroke="#d97757" stroke-width="2"/><circle cx="320" cy="185" r="40" fill="#d97757" opacity=".12"/><text x="320" y="180" fill="#d97757" font-family="ui-monospace, monospace" font-size="11" font-weight="600" text-anchor="middle">Context</text><text x="320" y="195" fill="#d97757" font-family="ui-monospace, monospace" font-size="11" font-weight="600" text-anchor="middle">设计师</text><rect width="220" height="68" x="210" y="36" fill="#fff" stroke="#d97757" stroke-width="1.8" rx="8"/><rect width="68" height="20" x="226" y="50" fill="#d97757" rx="10"/><text x="260" y="65" fill="#fff" font-family="ui-monospace, monospace" font-size="9" text-anchor="middle">问题定义</text><text x="226" y="84" fill="#141413" font-family="ui-monospace, monospace" font-size="10" font-weight="600">Problem Framing</text><text x="226" y="97" fill="#87867f" font-size="9">我们要解决什么？什么不在范围内？</text><path stroke="#d97757" stroke-width="1.5" d="M320 104v26"/><path fill="#d97757" d="m320 134-4-10h8z"/><rect width="200" height="68" x="36" y="100" fill="#fff" stroke="#d1cfc5" stroke-width="1.5" rx="8"/><rect width="68" height="20" x="52" y="114" fill="#d97757" rx="10"/><text x="86" y="129" fill="#fff" font-family="ui-monospace, monospace" font-size="9" text-anchor="middle">约束空间</text><text x="52" y="148" fill="#141413" font-family="ui-monospace, monospace" font-size="10" font-weight="600">Constraint Space</text><text x="52" y="161" fill="#87867f" font-size="9">成本上限、时间窗口、合规要求</text><path stroke="#d1cfc5" stroke-width="1.5" d="m236 134 42 26"/><path fill="#d1cfc5" d="m278 160-7-5 4 8z"/><rect width="200" height="68" x="404" y="100" fill="#fff" stroke="#d1cfc5" stroke-width="1.5" rx="8"/><rect width="68" height="20" x="420" y="114" fill="#d97757" rx="10"/><text x="454" y="129" fill="#fff" font-family="ui-monospace, monospace" font-size="9" text-anchor="middle">协作协议</text><text x="420" y="148" fill="#141413" font-family="ui-monospace, monospace" font-size="10" font-weight="600">Collaboration Protocol</text><text x="420" y="161" fill="#87867f" font-size="9">AI和人类如何分工？谁对什么负责？</text><path stroke="#d1cfc5" stroke-width="1.5" d="m404 134-42 26"/><path fill="#d1cfc5" d="m362 160 7-5-4 8z"/><rect width="200" height="68" x="36" y="206" fill="#fff" stroke="#d1cfc5" stroke-width="1.5" rx="8"/><rect width="68" height="20" x="52" y="220" fill="#788c5d" rx="10"/><text x="86" y="235" fill="#fff" font-family="ui-monospace, monospace" font-size="9" text-anchor="middle">质量标准</text><text x="52" y="254" fill="#141413" font-family="ui-monospace, monospace" font-size="10" font-weight="600">Quality Standards</text><text x="52" y="267" fill="#87867f" font-size="9">什么算&quot;好&quot;？什么算&quot;完成&quot;？</text><path stroke="#d1cfc5" stroke-width="1.5" d="m236 240 42-30"/><path fill="#d1cfc5" d="m278 210-7 5 4-8z"/><rect width="200" height="68" x="404" y="206" fill="#fff" stroke="#d1cfc5" stroke-width="1.5" rx="8"/><rect width="68" height="20" x="420" y="220" fill="#788c5d" rx="10"/><text x="454" y="235" fill="#fff" font-family="ui-monospace, monospace" font-size="9" text-anchor="middle">演化路径</text><text x="420" y="254" fill="#141413" font-family="ui-monospace, monospace" font-size="10" font-weight="600">Evolution Path</text><text x="420" y="267" fill="#87867f" font-size="9">架构如何随业务演化？技术债务如何管理？</text><path stroke="#d1cfc5" stroke-width="1.5" d="m404 240-42-30"/><path fill="#d1cfc5" d="m362 210 7 5-4-8z"/><rect width="220" height="56" x="210" y="280" fill="#fff" stroke="#788c5d" stroke-width="1.8" rx="8"/><rect width="68" height="20" x="226" y="294" fill="#788c5d" rx="10"/><text x="260" y="309" fill="#fff" font-family="ui-monospace, monospace" font-size="9" text-anchor="middle">跨域整合</text><text x="226" y="326" fill="#141413" font-family="ui-monospace, monospace" font-size="10" font-weight="600">Cross-domain Integration</text><path stroke="#788c5d" stroke-width="1.5" d="M320 235v40"/><path fill="#788c5d" d="m320 279-4-10h8z"/><text x="320" y="350" fill="#87867f" font-family="ui-monospace, monospace" font-size="9" text-anchor="middle">AI时代架构师的新能力模型 · 2025/02/14</text></svg>