<svg xmlns="http://www.w3.org/2000/svg" viewBox="0 0 900 520"><defs><filter id="shadow" width="110%" height="110%" x="-5%" y="-5%"><feDropShadow dx="0" dy="4" flood-color="#141413" flood-opacity=".08" stdDeviation="6"/></filter><style>.lvl-title{font-family:&quot;Helvetica Neue&quot;,Arial,sans-serif;font-size:18px;font-weight:700;fill:#faf9f5}.lvl-sub{font-size:12px;fill:rgba(250,249,245,.75)}.item-desc,.item-label,.lvl-sub{font-family:&quot;Helvetica Neue&quot;,Arial,sans-serif}.item-label{font-size:13px;fill:#141413;font-weight:600}.item-desc{font-size:11px;fill:#87867f}.period{font-size:12px;fill:#faf9f5;font-weight:600}.lvl-num,.period,.tag{font-family:&quot;Helvetica Neue&quot;,Arial,sans-serif}.tag{font-size:11px;fill:#87867f}.lvl-num{font-size:48px;font-weight:800;fill:rgba(250,249,245,.12)}</style></defs><path d="M0 0h900v520H0z" style="fill:#faf9f5"/><text x="30" y="34" style="font-family:&quot;Helvetica Neue&quot;,Arial,sans-serif;font-size:22px;font-weight:800;fill:#141413">Prompt 工程梯队：三级开发者能力模型</text><text x="30" y="54" style="font-family:&quot;Helvetica Neue&quot;,Arial,sans-serif;font-size:13px;fill:#87867f">从模板使用者到架构师，每一级都有清晰的能力边界和培养路径</text><path d="M30 64h840" style="stroke:#d1cfc5;stroke-width:1"/><g transform="translate(30 80)"><rect width="260" height="290" fill="#141413" filter="url(#shadow)" rx="14"/><rect width="260" height="6" fill="#d97757" rx="3"/><text x="228" y="72" class="lvl-num" text-anchor="end">03</text><text x="20" y="32" class="lvl-title">高级开发者</text><text x="20" y="50" class="lvl-sub">Prompt Architect · Prompt 架构师</text><rect width="110" height="20" x="20" y="60" fill="#d97757" rx="10"/><text x="75" y="74" class="period" text-anchor="middle">培养周期 2-3年</text><path stroke="#87867f" stroke-width=".5" d="M20 92h220" opacity=".4"/><g transform="translate(20 106)"><rect width="6" height="6" y="3" fill="#d97757" rx="2"/><text x="14" y="10" fill="#faf9f5" class="item-label">架构设计</text><text x="14" y="24" fill="#87867f" class="item-desc">设计企业级 Prompt 系统架构</text></g><g transform="translate(20 142)"><rect width="6" height="6" y="3" fill="#d97757" rx="2"/><text x="14" y="10" fill="#faf9f5" class="item-label">规范制定</text><text x="14" y="24" fill="#87867f" class="item-desc">制定团队/企业级 Prompt 标准</text></g><g transform="translate(20 178)"><rect width="6" height="6" y="3" fill="#d97757" rx="2"/><text x="14" y="10" fill="#faf9f5" class="item-label">战略规划</text><text x="14" y="24" fill="#87867f" class="item-desc">规划 Prompt 能力发展路线</text></g><g transform="translate(20 214)"><rect width="6" height="6" y="3" fill="#d97757" rx="2"/><text x="14" y="10" fill="#faf9f5" class="item-label">组织建设</text><text x="14" y="24" fill="#87867f" class="item-desc">建设 Prompt 工程师团队</text></g><rect width="220" height="16" x="20" y="268" fill="#d97757" opacity=".2" rx="8"/><text x="30" y="280" fill="#d97757" class="tag">核心产出：Prompt 系统 &amp; 团队规范</text></g><path stroke="#d1cfc5" stroke-width="2" d="M298 218h16"/><path fill="#d1cfc5" d="m314 213 8 5-8 5z"/><g transform="translate(322 150)"><rect width="260" height="290" fill="#fff" stroke="#d1cfc5" stroke-width="1.5" filter="url(#shadow)" rx="14"/><rect width="260" height="6" fill="#788c5d" rx="3"/><text x="228" y="72" fill="#e3dacc" class="lvl-num" text-anchor="end">02</text><text x="20" y="32" fill="#141413" class="lvl-title">中级开发者</text><text x="20" y="50" fill="#87867f" class="lvl-sub">Prompt Designer · Prompt 设计者</text><rect width="110" height="20" x="20" y="60" fill="#788c5d" rx="10"/><text x="75" y="74" class="period" text-anchor="middle">培养周期 6-12月</text><path stroke="#d1cfc5" stroke-width=".5" d="M20 92h220"/><g transform="translate(20 106)"><rect width="6" height="6" y="3" fill="#788c5d" rx="2"/><text x="14" y="10" class="item-label">Prompt 设计</text><text x="14" y="24" class="item-desc">从零设计复杂 Prompt</text></g><g transform="translate(20 142)"><rect width="6" height="6" y="3" fill="#788c5d" rx="2"/><text x="14" y="10" class="item-label">优化调试</text><text x="14" y="24" class="item-desc">诊断和优化 Prompt 效果</text></g><g transform="translate(20 178)"><rect width="6" height="6" y="3" fill="#788c5d" rx="2"/><text x="14" y="10" class="item-label">Context 管理</text><text x="14" y="24" class="item-desc">有效管理 Prompt 上下文</text></g><g transform="translate(20 214)"><rect width="6" height="6" y="3" fill="#788c5d" rx="2"/><text x="14" y="10" class="item-label">质量评估</text><text x="14" y="24" class="item-desc">建立 Prompt 质量评估标准</text></g><rect width="220" height="16" x="20" y="268" fill="#788c5d" opacity=".12" rx="8"/><text x="30" y="280" fill="#788c5d" class="tag">核心产出：50+ 高质量 Prompt</text></g><path stroke="#d1cfc5" stroke-width="2" d="M590 308h16"/><path fill="#d1cfc5" d="m606 303 8 5-8 5z"/><g transform="translate(614 220)"><rect width="260" height="290" fill="#fff" stroke="#d1cfc5" stroke-width="1.5" filter="url(#shadow)" rx="14"/><rect width="260" height="6" fill="#87867f" rx="3"/><text x="228" y="72" fill="#e3dacc" class="lvl-num" text-anchor="end">01</text><text x="20" y="32" fill="#141413" class="lvl-title">初级开发者</text><text x="20" y="50" fill="#87867f" class="lvl-sub">Prompt User · Prompt 使用者</text><rect width="110" height="20" x="20" y="60" fill="#87867f" rx="10"/><text x="75" y="74" fill="#faf9f5" class="period" text-anchor="middle">培养周期 2-3月</text><path stroke="#d1cfc5" stroke-width=".5" d="M20 92h220"/><g transform="translate(20 106)"><rect width="6" height="6" y="3" fill="#87867f" rx="2"/><text x="14" y="10" class="item-label">基础使用</text><text x="14" y="24" class="item-desc">熟练使用现有 Prompt 模板</text></g><g transform="translate(20 142)"><rect width="6" height="6" y="3" fill="#87867f" rx="2"/><text x="14" y="10" class="item-label">简单修改</text><text x="14" y="24" class="item-desc">根据需求修改变量占位符</text></g><g transform="translate(20 178)"><rect width="6" height="6" y="3" fill="#87867f" rx="2"/><text x="14" y="10" class="item-label">结果评估</text><text x="14" y="24" class="item-desc">判断 AI 输出是否符合预期</text></g><g transform="translate(20 214)"><rect width="6" height="6" y="3" fill="#87867f" rx="2"/><text x="14" y="10" class="item-label">反馈记录</text><text x="14" y="24" class="item-desc">记录 Prompt 使用效果</text></g><rect width="220" height="16" x="20" y="268" fill="#87867f" opacity=".12" rx="8"/><text x="30" y="280" class="tag">核心产出：熟练使用 20+ 模板</text></g><text fill="#87867f" class="tag" transform="translate(30 526)">核心洞察：Prompt 能力不是天生的，而是可以通过系统化训练培养和评估的技能</text></svg>