<svg xmlns="http://www.w3.org/2000/svg" font-family="ui-serif, Georgia, serif" viewBox="0 0 560 220"><path fill="#faf9f5" d="M0 0h560v220H0z"/><text x="280" y="20" fill="#141413" font-size="13" font-weight="500" letter-spacing="-.02em" text-anchor="middle">CDD 五阶段上下文循环</text><text x="280" y="36" fill="#87867f" font-family="ui-monospace, monospace" font-size="9.5" text-anchor="middle">postcodeengineering.com · 2025/06/08</text><rect width="90" height="70" x="40" y="60" fill="#fff" stroke="#d97757" stroke-width="1.8" rx="6"/><rect width="90" height="16" x="40" y="60" fill="#fef3c7" stroke="#d97757" rx="6"/><text x="85" y="73" fill="#d97757" font-family="ui-monospace, monospace" font-size="9" font-weight="600" text-anchor="middle">S1 · Harvest</text><text x="85" y="92" fill="#141413" font-size="8.5" text-anchor="middle">采集</text><text x="85" y="105" fill="#87867f" font-size="8" text-anchor="middle">代码·文档·数据库</text><text x="85" y="117" fill="#87867f" font-size="8" text-anchor="middle">人工录入业务知识</text><rect width="12" height="12" x="122" y="80" fill="#d97757" rx="6"/><text x="128" y="89" fill="#fff" font-family="ui-monospace, monospace" font-size="7" text-anchor="middle">1</text><path stroke="#d1cfc5" stroke-width="1.5" d="M130 95h18"/><path fill="#d1cfc5" d="m148 91 8 4-8 4z"/><rect width="90" height="70" x="156" y="60" fill="#fff" stroke="#ea580c" stroke-width="1.5" rx="6"/><rect width="90" height="16" x="156" y="60" fill="#fed7aa" stroke="#ea580c" rx="6"/><text x="201" y="73" fill="#ea580c" font-family="ui-monospace, monospace" font-size="9" font-weight="600" text-anchor="middle">S2 · Process</text><text x="201" y="92" fill="#141413" font-size="8.5" text-anchor="middle">加工</text><text x="201" y="105" fill="#87867f" font-size="8" text-anchor="middle">清洗·去重·冲突解决</text><text x="201" y="117" fill="#87867f" font-size="8" text-anchor="middle">摘要·索引</text><rect width="12" height="12" x="238" y="80" fill="#ea580c" rx="6"/><text x="244" y="89" fill="#fff" font-family="ui-monospace, monospace" font-size="7" text-anchor="middle">2</text><path stroke="#d1cfc5" stroke-width="1.5" d="M246 95h18"/><path fill="#d1cfc5" d="m264 91 8 4-8 4z"/><rect width="90" height="70" x="272" y="60" fill="#fff" stroke="#f97316" stroke-width="1.5" rx="6"/><rect width="90" height="16" x="272" y="60" fill="#fdba74" stroke="#f97316" rx="6"/><text x="317" y="73" fill="#f97316" font-family="ui-monospace, monospace" font-size="9" font-weight="600" text-anchor="middle">S3 · Store</text><text x="317" y="92" fill="#141413" font-size="8.5" text-anchor="middle">存储</text><text x="317" y="105" fill="#87867f" font-size="8" text-anchor="middle">版本控制</text><text x="317" y="117" fill="#87867f" font-size="8" text-anchor="middle">分层组织·权限管理</text><rect width="12" height="12" x="354" y="80" fill="#f97316" rx="6"/><text x="360" y="89" fill="#fff" font-family="ui-monospace, monospace" font-size="7" text-anchor="middle">3</text><path stroke="#d1cfc5" stroke-width="1.5" d="M362 95h18"/><path fill="#d1cfc5" d="m380 91 8 4-8 4z"/><rect width="90" height="70" x="388" y="60" fill="#fff" stroke="#2563eb" stroke-width="1.5" rx="6"/><rect width="90" height="16" x="388" y="60" fill="#dbeafe" stroke="#2563eb" rx="6"/><text x="433" y="73" fill="#2563eb" font-family="ui-monospace, monospace" font-size="9" font-weight="600" text-anchor="middle">S4 · Deliver</text><text x="433" y="92" fill="#141413" font-size="8.5" text-anchor="middle">配送</text><text x="433" y="105" fill="#87867f" font-size="8" text-anchor="middle">动态组装上下文</text><text x="433" y="117" fill="#87867f" font-size="8" text-anchor="middle">注入AI会话·监控token</text><rect width="12" height="12" x="470" y="80" fill="#2563eb" rx="6"/><text x="476" y="89" fill="#fff" font-family="ui-monospace, monospace" font-size="7" text-anchor="middle">4</text><path stroke="#d1cfc5" stroke-width="1.5" d="M433 130v20"/><path fill="#d1cfc5" d="m429 150 4 8 4-8z"/><rect width="90" height="52" x="388" y="158" fill="#fff" stroke="#059669" stroke-width="1.5" rx="6"/><rect width="90" height="16" x="388" y="158" fill="#d1fae5" stroke="#059669" rx="6"/><text x="433" y="171" fill="#059669" font-family="ui-monospace, monospace" font-size="9" font-weight="600" text-anchor="middle">S5 · Feedback</text><text x="433" y="186" fill="#141413" font-size="8.5" text-anchor="middle">反馈</text><text x="433" y="199" fill="#87867f" font-size="8" text-anchor="middle">收集AI输出质量</text><rect width="12" height="12" x="470" y="168" fill="#059669" rx="6"/><text x="476" y="177" fill="#fff" font-family="ui-monospace, monospace" font-size="7" text-anchor="middle">5</text><path fill="none" stroke="#d1cfc5" stroke-dasharray="4,3" stroke-width="1.5" d="M388 184q-368 0-303-54"/><path fill="#d1cfc5" d="m85 130-5 7h10z"/><text x="200" y="200" fill="#87867f" font-family="ui-monospace, monospace" font-size="8.5">持续优化循环</text></svg>