<svg xmlns="http://www.w3.org/2000/svg" font-family="ui-serif, Georgia, serif" viewBox="0 0 560 280">
  <path fill="#faf9f5" d="M0 0h560v280H0z"/>
  <text x="280" y="20" fill="#141413" font-size="13" font-weight="500" letter-spacing="-.02em" text-anchor="middle">AI-Native 架构六大战术模式</text>
  <text x="280" y="36" fill="#87867f" font-family="ui-monospace, monospace" font-size="9.5" text-anchor="middle">postcodeengineering.com · 2025/04/01</text>
  <circle cx="280" cy="160" r="40" fill="#fef3c7" stroke="#d97757" stroke-width="2"/>
  <text x="280" y="156" fill="#d97757" font-family="ui-monospace, monospace" font-size="10" font-weight="600" text-anchor="middle">AI-Native</text>
  <text x="280" y="170" fill="#87867f" font-size="9" text-anchor="middle">Architecture</text>
  <rect width="140" height="44" x="210" y="26" fill="#fff" stroke="#d97757" stroke-width="1.5" rx="8"/>
  <text x="280" y="44" fill="#d97757" font-family="ui-monospace, monospace" font-size="10" font-weight="600" text-anchor="middle">模式一</text>
  <text x="280" y="58" fill="#141413" font-size="11" font-weight="600" text-anchor="middle">Intent Router</text>
  <text x="280" y="66" fill="#87867f" font-size="8.5" text-anchor="middle">意图路由</text>
  <path stroke="#d97757" stroke-dasharray="3,2" d="M280 70v46"/>
  <path fill="#d97757" d="m276 116 4 8 4-8z"/>
  <rect width="140" height="44" x="370" y="72" fill="#fff" stroke="#2563eb" stroke-width="1.5" rx="8"/>
  <text x="440" y="90" fill="#2563eb" font-family="ui-monospace, monospace" font-size="10" font-weight="600" text-anchor="middle">模式二</text>
  <text x="440" y="104" fill="#141413" font-size="11" font-weight="600" text-anchor="middle">Context Cache</text>
  <text x="440" y="112" fill="#87867f" font-size="8.5" text-anchor="middle">上下文缓存</text>
  <path stroke="#2563eb" stroke-dasharray="3,2" d="m370 94-48 34"/>
  <path fill="#2563eb" d="m322 128-4-8 8 4z"/>
  <rect width="140" height="44" x="370" y="176" fill="#fff" stroke="#ea580c" stroke-width="1.5" rx="8"/>
  <text x="440" y="194" fill="#ea580c" font-family="ui-monospace, monospace" font-size="10" font-weight="600" text-anchor="middle">模式三</text>
  <text x="440" y="208" fill="#141413" font-size="11" font-weight="600" text-anchor="middle">Model Gateway</text>
  <text x="440" y="216" fill="#87867f" font-size="8.5" text-anchor="middle">模型网关</text>
  <path stroke="#ea580c" stroke-dasharray="3,2" d="m370 198-48-10"/>
  <path fill="#ea580c" d="m322 188-4 8 8-4z"/>
  <rect width="140" height="44" x="210" y="212" fill="#fff" stroke="#059669" stroke-width="1.5" rx="8"/>
  <text x="280" y="230" fill="#059669" font-family="ui-monospace, monospace" font-size="10" font-weight="600" text-anchor="middle">模式四</text>
  <text x="280" y="244" fill="#141413" font-size="11" font-weight="600" text-anchor="middle">Feedback Loop</text>
  <text x="280" y="252" fill="#87867f" font-size="8.5" text-anchor="middle">反馈循环</text>
  <path stroke="#059669" stroke-dasharray="3,2" d="M280 212v-12"/>
  <path fill="#059669" d="m276 200 4-8 4 8z"/>
  <rect width="140" height="44" x="50" y="176" fill="#fff" stroke="#3b82f6" stroke-width="1.5" rx="8"/>
  <text x="120" y="194" fill="#3b82f6" font-family="ui-monospace, monospace" font-size="10" font-weight="600" text-anchor="middle">模式五</text>
  <text x="120" y="208" fill="#141413" font-size="11" font-weight="600" text-anchor="middle">A/B Agent</text>
  <text x="120" y="216" fill="#87867f" font-size="8.5" text-anchor="middle">A/B 智能体</text>
  <path stroke="#3b82f6" stroke-dasharray="3,2" d="m190 198 48-10"/>
  <path fill="#3b82f6" d="m238 188 4 8-8-4z"/>
  <rect width="140" height="44" x="50" y="72" fill="#fff" stroke="#7c3aed" stroke-width="1.5" rx="8"/>
  <text x="120" y="90" fill="#7c3aed" font-family="ui-monospace, monospace" font-size="10" font-weight="600" text-anchor="middle">模式六</text>
  <text x="120" y="104" fill="#141413" font-size="11" font-weight="600" text-anchor="middle">Human-in-the-Loop</text>
  <text x="120" y="112" fill="#87867f" font-size="8.5" text-anchor="middle">人在回路</text>
  <path stroke="#7c3aed" stroke-dasharray="3,2" d="m190 94 48 34"/>
  <path fill="#7c3aed" d="m238 128-4-8 8 4z"/>
  <text x="280" y="272" fill="#87867f" font-size="9" font-style="italic" text-anchor="middle">六种模式可独立使用，也可组合部署，核心围绕 AI-Native 架构展开</text>
</svg>
