<svg xmlns="http://www.w3.org/2000/svg" aria-label="AI导师系统实施架构图" viewBox="0 0 680 420"><title>AI导师系统实施架构</title><desc>AI导师系统的三层架构：数据层、分析层、应用层</desc><defs><style>.item-text,.layer-label{font-family:monospace}.layer-label{fill:#87867f;font-size:11px}.item-text{fill:#141413;font-size:12px}.divider{stroke:#d1cfc5;stroke-width:1;fill:none}.box-bg{fill:#faf9f5}</style></defs><path d="M0 0h680v420H0z" style="fill:#faf9f5"/><rect width="640" height="380" x="20" y="20" rx="4" style="stroke:#d1cfc5;stroke-width:1.5;fill:none"/><rect width="640" height="36" x="20" y="20" rx="4" style="fill:#d97757"/><path fill="#d97757" d="M20 50h640v8H20z"/><text x="340" y="43" style="fill:#faf9f5;font-family:monospace;font-size:14px;font-weight:700" text-anchor="middle">AI导师系统</text><path d="M20 58h640" class="divider"/><text x="36" y="78" class="layer-label">数据层</text><rect width="608" height="58" x="36" y="84" stroke="#d1cfc5" class="box-bg" rx="3"/><rect width="4" height="42" x="48" y="92" fill="#d97757" rx="2"/><text x="60" y="107" class="item-text">代码仓库（Git）</text><rect width="4" height="42" x="168" y="92" fill="#788c5d" rx="2"/><text x="180" y="107" class="item-text">代码审查记录（PR数据）</text><rect width="4" height="42" x="350" y="92" fill="#d97757" rx="2"/><text x="362" y="107" class="item-text">学习记录（学习平台）</text><rect width="4" height="42" x="524" y="92" fill="#788c5d" rx="2"/><text x="536" y="107" class="item-text">开发者画像</text><text x="536" y="122" style="fill:#87867f;font-family:monospace;font-size:11px">（匿名化存储）</text><path d="M20 152h640" class="divider"/><text x="36" y="172" class="layer-label">分析层</text><rect width="608" height="58" x="36" y="178" stroke="#d1cfc5" class="box-bg" rx="3"/><rect width="4" height="42" x="48" y="186" fill="#d97757" rx="2"/><text x="60" y="201" class="item-text">代码质量分析引擎</text><rect width="4" height="42" x="228" y="186" fill="#788c5d" rx="2"/><text x="240" y="201" class="item-text">行为模式识别</text><rect width="4" height="42" x="400" y="186" fill="#d97757" rx="2"/><text x="412" y="201" class="item-text">能力评估模型</text><rect width="4" height="42" x="572" y="186" fill="#788c5d" rx="2"/><text x="584" y="201" class="item-text">个性化推荐引擎</text><path d="M20 246h640" class="divider"/><text x="36" y="266" class="layer-label">应用层</text><rect width="608" height="58" x="36" y="272" stroke="#d1cfc5" class="box-bg" rx="3"/><rect width="4" height="42" x="48" y="280" fill="#d97757" rx="2"/><text x="60" y="295" class="item-text">IDE插件（实时指导）</text><rect width="4" height="42" x="228" y="280" fill="#788c5d" rx="2"/><text x="240" y="295" class="item-text">Web平台（学习路径）</text><rect width="4" height="42" x="408" y="280" fill="#d97757" rx="2"/><text x="420" y="295" class="item-text">代码审查集成</text><rect width="4" height="42" x="580" y="280" fill="#788c5d" rx="2"/><text x="592" y="295" class="item-text">导师匹配系统</text><path d="M20 340h640" class="divider"/></svg>