<svg xmlns="http://www.w3.org/2000/svg" font-family="ui-serif, Georgia, serif" viewBox="0 0 760 340">
  <path fill="#faf9f5" d="M0 0h760v340H0z"/>
  <text x="380" y="26" fill="#141413" font-size="14" font-weight="500" text-anchor="middle">安全范式的三次演进</text>
  <text x="380" y="42" fill="#87867f" font-family="ui-monospace, monospace" font-size="10" text-anchor="middle">威胁进化 → 范式崩溃 → 重构突破</text>
  <g transform="translate(80 72)">
    <rect width="190" height="130" fill="#fff" stroke="#d1cfc5" stroke-width="1.5" rx="10"/>
    <rect width="60" height="20" x="12" y="12" fill="#d1cfc5" rx="10"/>
    <text x="42" y="26" fill="#141413" font-family="ui-monospace, monospace" font-size="9" text-anchor="middle">1980s-2000s</text>
    <text x="95" y="56" fill="#141413" font-size="13" font-weight="600" text-anchor="middle">城堡模型</text>
    <text x="12" y="78" fill="#87867f" font-size="10">核心假设</text>
    <text x="12" y="92" fill="#141413" font-size="10">边界防御有效</text>
    <text x="12" y="106" fill="#141413" font-size="10">内部 = 可信</text>
    <text x="12" y="122" fill="#d97757" font-size="10">失效触发</text>
    <text x="75" y="122" fill="#d97757" font-size="10">蠕虫病毒</text>
  </g>
  <path stroke="#d97757" stroke-width="2" d="M270 137h50"/>
  <path fill="#d97757" d="m320 132 10 5-10 5z"/>
  <text x="30" y="-8" fill="#d97757" font-family="ui-monospace, monospace" font-size="8" text-anchor="middle" transform="translate(270 137)">蠕虫</text>
  <g transform="translate(355 72)">
    <rect width="190" height="130" fill="#fff" stroke="#d97757" stroke-width="2" rx="10"/>
    <rect width="60" height="20" x="12" y="12" fill="#d97757" rx="10"/>
    <text x="42" y="26" fill="#fff" font-family="ui-monospace, monospace" font-size="9" text-anchor="middle">2010s-2020s</text>
    <text x="95" y="56" fill="#141413" font-size="13" font-weight="600" text-anchor="middle">零信任模型</text>
    <text x="12" y="78" fill="#87867f" font-size="10">核心假设</text>
    <text x="12" y="92" fill="#141413" font-size="10">永不信任</text>
    <text x="12" y="106" fill="#141413" font-size="10">始终验证</text>
    <text x="12" y="122" fill="#d97757" font-size="10">失效触发</text>
    <text x="75" y="122" fill="#d97757" font-size="10">移动/云</text>
  </g>
  <path stroke="#d97757" stroke-width="2" d="M545 137h50"/>
  <path fill="#d97757" d="m595 132 10 5-10 5z"/>
  <text x="30" y="-8" fill="#d97757" font-family="ui-monospace, monospace" font-size="8" text-anchor="middle" transform="translate(545 137)">Clinejection</text>
  <g transform="translate(630 72)">
    <rect width="190" height="130" fill="#fff" stroke="#788c5d" stroke-width="2" rx="10"/>
    <rect width="50" height="20" x="12" y="12" fill="#788c5d" rx="10"/>
    <text x="37" y="26" fill="#fff" font-family="ui-monospace, monospace" font-size="9" text-anchor="middle">Now</text>
    <text x="95" y="56" fill="#141413" font-size="13" font-weight="600" text-anchor="middle">AI-Native安全</text>
    <text x="12" y="78" fill="#87867f" font-size="10">核心假设</text>
    <text x="12" y="92" fill="#141413" font-size="10">意图验证</text>
    <text x="12" y="106" fill="#141413" font-size="10">持续动态</text>
    <text x="12" y="122" fill="#788c5d" font-size="10">防御核心</text>
    <text x="75" y="122" fill="#788c5d" font-size="10">认知机制</text>
  </g>
  <g transform="translate(0 230)">
    <text x="175" fill="#87867f" font-family="ui-monospace, monospace" font-size="10" text-anchor="middle">边界防御</text>
    <rect width="150" height="24" x="100" y="8" fill="#d1cfc5" rx="12"/>
    <text x="450" fill="#87867f" font-family="ui-monospace, monospace" font-size="10" text-anchor="middle">身份验证</text>
    <rect width="150" height="24" x="375" y="8" fill="#e3dacc" rx="12"/>
    <text x="725" fill="#87867f" font-family="ui-monospace, monospace" font-size="10" text-anchor="middle">意图验证</text>
    <rect width="150" height="24" x="650" y="8" fill="#e8ede3" stroke="#788c5d" rx="12"/>
  </g>
  <path stroke="#d97757" stroke-width="1.5" d="M265 244h95"/>
  <path fill="#d97757" d="m360 240 10 4-10 4z"/>
  <path stroke="#d97757" stroke-width="1.5" d="M540 244h95"/>
  <path fill="#d97757" d="m635 240 10 4-10 4z"/>
  <g transform="translate(40 285)">
    <rect width="680" height="44" fill="#fff" stroke="#d97757" stroke-width="1.5" rx="8"/>
    <text x="20" y="18" fill="#d97757" font-family="ui-monospace, monospace" font-size="10" font-weight="600">范式转移规律</text>
    <text x="20" y="34" fill="#141413" font-size="10">威胁进化 → 旧范式崩溃 → 新范式崛起。每一次转移都因为旧假设在新技术环境下失效。</text>
  </g>
</svg>
