<svg xmlns="http://www.w3.org/2000/svg" font-family="ui-serif, Georgia, serif" viewBox="0 0 680 360">
  <path fill="#faf9f5" d="M0 0h680v360H0z"/>
  <text x="340" y="28" fill="#141413" font-size="14" font-weight="500" letter-spacing="-.02em" text-anchor="middle">记忆归因四维度</text>
  <text x="340" y="44" fill="#87867f" font-family="ui-monospace, monospace" font-size="10" text-anchor="middle">每段记忆都有身份证</text>
  <rect width="142" height="200" x="32" y="62" fill="#fff" stroke="#d97757" stroke-width="1.8" rx="8"/>
  <rect width="142" height="28" x="32" y="62" fill="#d97757" rx="8"/>
  <path fill="#d97757" d="M32 76h142v14H32z"/>
  <text x="103" y="81" fill="#fff" font-family="ui-monospace, monospace" font-size="11" font-weight="600" text-anchor="middle">来源归因</text>
  <rect width="54" height="64" x="76" y="108" fill="#f0eee6" stroke="#d1cfc5" stroke-width="1.5" rx="4"/>
  <path stroke="#d97757" stroke-linecap="round" stroke-width="1.5" d="M86 124h34m-34 12h34m-34 12h24"/>
  <text x="103" y="196" fill="#141413" font-size="10" text-anchor="middle">来源段落</text>
  <text x="103" y="212" fill="#141413" font-size="10" text-anchor="middle">时间戳</text>
  <text x="103" y="228" fill="#141413" font-size="10" text-anchor="middle">对话记录</text>
  <text x="103" y="250" fill="#87867f" font-family="ui-monospace, monospace" font-size="9" text-anchor="middle">Provenance</text>
  <rect width="142" height="200" x="190" y="62" fill="#fff" stroke="#d1cfc5" stroke-width="1.8" rx="8"/>
  <rect width="142" height="28" x="190" y="62" fill="#d97757" rx="8"/>
  <path fill="#d97757" d="M190 76h142v14H190z"/>
  <text x="261" y="81" fill="#fff" font-family="ui-monospace, monospace" font-size="11" font-weight="600" text-anchor="middle">时间归因</text>
  <circle cx="261" cy="140" r="28" fill="#f0eee6" stroke="#d1cfc5" stroke-width="1.5"/>
  <path stroke="#d97757" stroke-linecap="round" stroke-width="2" d="M261 122v18m0 0 12 8"/>
  <circle cx="261" cy="140" r="2" fill="#d97757"/>
  <path fill="none" stroke="#788c5d" stroke-linecap="round" stroke-width="2" d="m220 210 30-12 30 7 30 17"/>
  <circle cx="220" cy="210" r="3" fill="#788c5d"/>
  <circle cx="310" cy="222" r="3" fill="#788c5d"/>
  <text x="261" y="244" fill="#141413" font-size="10" text-anchor="middle">时间衰减</text>
  <text x="261" y="260" fill="#87867f" font-family="ui-monospace, monospace" font-size="9" text-anchor="middle">Temporal</text>
  <rect width="142" height="200" x="348" y="62" fill="#fff" stroke="#d1cfc5" stroke-width="1.8" rx="8"/>
  <rect width="142" height="28" x="348" y="62" fill="#d97757" rx="8"/>
  <path fill="#d97757" d="M348 76h142v14H348z"/>
  <text x="419" y="81" fill="#fff" font-family="ui-monospace, monospace" font-size="11" font-weight="600" text-anchor="middle">推理归因</text>
  <rect width="102" height="28" x="368" y="108" fill="#f0eee6" stroke="#d1cfc5" stroke-width="1.2" rx="4"/>
  <text x="419" y="126" fill="#141413" font-family="ui-monospace, monospace" font-size="9" text-anchor="middle">前提</text>
  <path stroke="#d97757" stroke-dasharray="3,2" stroke-width="2" d="M419 136v14"/>
  <path fill="#d97757" d="m419 154-4-8h8z"/>
  <rect width="102" height="28" x="368" y="158" fill="#f0eee6" stroke="#d1cfc5" stroke-width="1.2" rx="4"/>
  <text x="419" y="176" fill="#141413" font-family="ui-monospace, monospace" font-size="9" text-anchor="middle">推断</text>
  <path stroke="#d97757" stroke-dasharray="3,2" stroke-width="2" d="M419 186v14"/>
  <path fill="#d97757" d="m419 204-4-8h8z"/>
  <rect width="102" height="28" x="368" y="208" fill="#f0eee6" stroke="#d97757" stroke-width="1.2" rx="4"/>
  <text x="419" y="226" fill="#fff" font-family="ui-monospace, monospace" font-size="9" text-anchor="middle">结论</text>
  <text x="419" y="244" fill="#141413" font-size="10" text-anchor="middle">推理链显式化</text>
  <text x="419" y="260" fill="#87867f" font-family="ui-monospace, monospace" font-size="9" text-anchor="middle">Reasoning</text>
  <rect width="142" height="200" x="506" y="62" fill="#fff" stroke="#d1cfc5" stroke-width="1.8" rx="8"/>
  <rect width="142" height="28" x="506" y="62" fill="#d97757" rx="8"/>
  <path fill="#d97757" d="M506 76h142v14H506z"/>
  <text x="577" y="81" fill="#fff" font-family="ui-monospace, monospace" font-size="11" font-weight="600" text-anchor="middle">影响归因</text>
  <rect width="18" height="50" x="530" y="210" fill="#d97757" rx="2"/>
  <rect width="18" height="68" x="554" y="192" fill="#788c5d" rx="2"/>
  <rect width="18" height="56" x="578" y="204" fill="#d1cfc5" rx="2"/>
  <path stroke="#141413" stroke-opacity=".3" d="M524 210h78"/>
  <text x="539" y="270" fill="#141413" font-size="9" text-anchor="middle">低</text>
  <text x="563" y="270" fill="#141413" font-size="9" text-anchor="middle">高</text>
  <text x="587" y="270" fill="#141413" font-size="9" text-anchor="middle">中</text>
  <text x="577" y="244" fill="#141413" font-size="10" text-anchor="middle">使用频率</text>
  <text x="577" y="260" fill="#87867f" font-family="ui-monospace, monospace" font-size="9" text-anchor="middle">Impact</text>
  <text x="340" y="334" fill="#87867f" font-family="ui-monospace, monospace" font-size="11" text-anchor="middle">每段记忆都有身份证</text>
  <title>记忆归因四维度</title>
  <desc>
    记忆归因的四个维度：来源归因（Provenance）、时间归因（Temporal）、推理归因（Reasoning）、影响归因（Impact）
  </desc>
</svg>
