<svg xmlns="http://www.w3.org/2000/svg" font-family="ui-serif, Georgia, serif" viewBox="0 0 560 200"><path fill="#faf9f5" d="M0 0h560v200H0z"/><text x="280" y="18" fill="#141413" font-size="13" font-weight="500" letter-spacing="-.02em" text-anchor="middle">语义缓存工作流程</text><text x="280" y="34" fill="#87867f" font-family="ui-monospace, monospace" font-size="9.5" text-anchor="middle">postcodeengineering.com · 2025/01/25</text><rect width="80" height="36" x="30" y="62" fill="#fff" stroke="#d97757" stroke-width="1.5" rx="5"/><rect width="80" height="14" x="30" y="62" fill="#fef3c7" stroke="#d97757" rx="5"/><text x="70" y="74" fill="#d97757" font-family="ui-monospace, monospace" font-size="9" font-weight="600" text-anchor="middle">Step 1</text><text x="70" y="90" fill="#141413" font-size="9" text-anchor="middle">用户查询</text><rect width="12" height="12" x="102" y="74" fill="#d97757" rx="6"/><text x="108" y="83" fill="#fff" font-family="ui-monospace, monospace" font-size="7" text-anchor="middle">1</text><path stroke="#d1cfc5" stroke-width="1.5" d="M110 80h16"/><path fill="#d1cfc5" d="m126 76 8 4-8 4z"/><rect width="80" height="36" x="134" y="62" fill="#fff" stroke="#ea580c" stroke-width="1.5" rx="5"/><rect width="80" height="14" x="134" y="62" fill="#fed7aa" stroke="#ea580c" rx="5"/><text x="174" y="74" fill="#ea580c" font-family="ui-monospace, monospace" font-size="9" font-weight="600" text-anchor="middle">Step 2</text><text x="174" y="90" fill="#141413" font-size="9" text-anchor="middle">嵌入模型</text><rect width="12" height="12" x="206" y="74" fill="#ea580c" rx="6"/><text x="212" y="83" fill="#fff" font-family="ui-monospace, monospace" font-size="7" text-anchor="middle">2</text><path stroke="#d1cfc5" stroke-width="1.5" d="M214 80h16"/><path fill="#d1cfc5" d="m230 76 8 4-8 4z"/><rect width="80" height="36" x="238" y="62" fill="#fff" stroke="#2563eb" stroke-width="1.5" rx="5"/><rect width="80" height="14" x="238" y="62" fill="#dbeafe" stroke="#2563eb" rx="5"/><text x="278" y="74" fill="#2563eb" font-family="ui-monospace, monospace" font-size="9" font-weight="600" text-anchor="middle">Step 3</text><text x="278" y="90" fill="#141413" font-size="9" text-anchor="middle">向量检索</text><rect width="12" height="12" x="310" y="74" fill="#2563eb" rx="6"/><text x="316" y="83" fill="#fff" font-family="ui-monospace, monospace" font-size="7" text-anchor="middle">3</text><path stroke="#d1cfc5" stroke-width="1.5" d="M318 80h16"/><path fill="#d1cfc5" d="m334 76 8 4-8 4z"/><rect width="90" height="56" x="342" y="52" fill="#fff" stroke="#7c3aed" stroke-width="2" rx="6"/><rect width="90" height="16" x="342" y="52" fill="#ede9fe" stroke="#7c3aed" rx="6"/><text x="387" y="65" fill="#7c3aed" font-family="ui-monospace, monospace" font-size="9" font-weight="600" text-anchor="middle">Decision</text><text x="387" y="81" fill="#141413" font-size="9" text-anchor="middle">相似度</text><text x="387" y="94" fill="#141413" font-size="8.5" text-anchor="middle">&gt; threshold?</text><rect width="12" height="12" x="424" y="66" fill="#7c3aed" rx="6"/><text x="430" y="75" fill="#fff" font-family="ui-monospace, monospace" font-size="7" text-anchor="middle">?</text><path stroke="#059669" stroke-width="1.5" d="m342 80-32 50"/><text x="320" y="112" fill="#059669" font-family="ui-monospace, monospace" font-size="8">是</text><rect width="100" height="40" x="240" y="130" fill="#fff" stroke="#059669" stroke-width="1.5" rx="5"/><rect width="100" height="14" x="240" y="130" fill="#d1fae5" stroke="#059669" rx="5"/><text x="290" y="142" fill="#059669" font-family="ui-monospace, monospace" font-size="9" font-weight="600" text-anchor="middle">Cache Hit ✓</text><text x="290" y="158" fill="#141413" font-size="9" text-anchor="middle">返回缓存答案</text><text x="290" y="170" fill="#059669" font-size="8" text-anchor="middle">节省 API 调用</text><path stroke="#dc2626" stroke-width="1.5" d="M432 80h32"/><text x="450" y="76" fill="#dc2626" font-family="ui-monospace, monospace" font-size="8">否</text><rect width="80" height="36" x="464" y="62" fill="#fff" stroke="#dc2626" stroke-width="1.5" rx="5"/><rect width="80" height="14" x="464" y="62" fill="#fee2e2" stroke="#dc2626" rx="5"/><text x="504" y="74" fill="#dc2626" font-family="ui-monospace, monospace" font-size="9" font-weight="600" text-anchor="middle">Step 5</text><text x="504" y="90" fill="#141413" font-size="9" text-anchor="middle">调用 LLM</text><path stroke="#d1cfc5" stroke-width="1.5" d="M504 98v32"/><path fill="#d1cfc5" d="m500 130 4 8 4-8z"/><rect width="80" height="32" x="464" y="138" fill="#fff" stroke="#f97316" stroke-width="1.5" rx="5"/><rect width="80" height="14" x="464" y="138" fill="#fdba74" stroke="#f97316" rx="5"/><text x="504" y="150" fill="#f97316" font-family="ui-monospace, monospace" font-size="9" font-weight="600" text-anchor="middle">存入缓存</text><text x="504" y="164" fill="#141413" font-size="8.5" text-anchor="middle">返回答案</text><text x="280" y="192" fill="#87867f" font-size="9" font-style="italic" text-anchor="middle">语义缓存键 = 查询的向量表示，而非字符串本身</text></svg>