<svg xmlns="http://www.w3.org/2000/svg" font-family="ui-serif, Georgia, serif" viewBox="0 0 680 200"><title>生物学启示：三大韧性机制</title><desc>森林功能冗余、珊瑚自适应边界、免疫系统默认安全三个生物学类比</desc><path fill="#faf9f5" d="M0 0h680v200H0z"/><text x="340" y="24" fill="#141413" font-size="14" font-weight="500" letter-spacing="-.02em" text-anchor="middle">生物学启示：系统的三大韧性机制</text><text x="340" y="40" fill="#87867f" font-family="ui-monospace, monospace" font-size="10" text-anchor="middle">分布式系统设计的自然原型</text><rect width="190" height="108" x="40" y="56" fill="#fff" stroke="#788c5d" stroke-width="1.5" rx="8"/><rect width="50" height="22" x="52" y="68" fill="#788c5d" rx="11"/><text x="77" y="84" fill="#fff" font-family="ui-monospace, monospace" font-size="10" text-anchor="middle">🌲</text><text x="118" y="84" fill="#788c5d" font-size="12" font-weight="600">功能冗余</text><text x="52" y="106" fill="#141413" font-size="10.5">多种授粉者</text><text x="52" y="120" fill="#141413" font-size="10.5">不依赖单一物种</text><text x="52" y="140" fill="#87867f" font-size="9.5">干旱时优先保障根系</text><text x="52" y="154" fill="#87867f" font-size="9.5">舍弃枝叶保核心</text><rect width="190" height="108" x="245" y="56" fill="#fff" stroke="#d97757" stroke-width="1.5" rx="8"/><rect width="50" height="22" x="257" y="68" fill="#d97757" rx="11"/><text x="282" y="84" fill="#fff" font-family="ui-monospace, monospace" font-size="10" text-anchor="middle">🪸</text><text x="323" y="84" fill="#d97757" font-size="12" font-weight="600">自适应边界</text><text x="257" y="106" fill="#141413" font-size="10.5">珊瑚白化</text><text x="257" y="120" fill="#141413" font-size="10.5">是过渡，不是死亡</text><text x="257" y="140" fill="#87867f" font-size="9.5">环境恢复后</text><text x="257" y="154" fill="#87867f" font-size="9.5">可重新招募藻类</text><rect width="190" height="108" x="450" y="56" fill="#fff" stroke="#141413" stroke-width="1.5" rx="8"/><rect width="50" height="22" x="462" y="68" fill="#141413" rx="11"/><text x="487" y="84" fill="#fff" font-family="ui-monospace, monospace" font-size="10" text-anchor="middle">🛡️</text><text x="528" y="84" fill="#141413" font-size="12" font-weight="600">默认安全</text><text x="462" y="106" fill="#141413" font-size="10.5">免疫系统</text><text x="462" y="120" fill="#141413" font-size="10.5">默认&quot;攻击&quot;模式</text><text x="462" y="140" fill="#87867f" font-size="9.5">直到被调节信号抑制</text><text x="462" y="154" fill="#87867f" font-size="9.5">新功能默认关闭</text><text x="340" y="182" fill="#87867f" font-family="ui-monospace, monospace" font-size="9.5" text-anchor="middle">这些机制在分布式系统中同样适用 → 功能冗余 · 自适应边界 · 默认安全</text></svg>