<svg xmlns="http://www.w3.org/2000/svg" font-family="ui-serif, Georgia, serif" viewBox="0 0 560 200"><path fill="#faf9f5" d="M0 0h560v200H0z"/><text x="280" y="18" fill="#141413" font-size="12" font-weight="500" letter-spacing="-.02em" text-anchor="middle">Context Engineering 上下文交付五层 Pipeline</text><text x="280" y="32" fill="#87867f" font-family="ui-monospace, monospace" font-size="9" text-anchor="middle">postcodeengineering.com · 2025/04/09</text><rect width="480" height="34" x="40" y="50" fill="#fff" stroke="#2563eb" stroke-width="1.5" rx="6"/><rect width="480" height="16" x="40" y="50" fill="#dbeafe" stroke="#2563eb" rx="6"/><text x="60" y="64" fill="#2563eb" font-family="ui-monospace, monospace" font-size="10" font-weight="600">L1 · Context Sources 上下文源层</text><text x="300" y="64" fill="#141413" font-size="9.5">连接企业数据源（DB · 文档 · 知识库）</text><rect width="18" height="18" x="490" y="60" fill="#2563eb" rx="9"/><text x="499" y="73" fill="#fff" font-family="ui-monospace, monospace" font-size="9" text-anchor="middle">L1</text><path stroke="#d1cfc5" stroke-width="1.5" d="M280 84v8"/><path fill="#d1cfc5" d="m276 92 4 8 4-16z"/><rect width="480" height="28" x="40" y="92" fill="#fff" stroke="#3b82f6" stroke-width="1.5" rx="6"/><rect width="480" height="14" x="40" y="92" fill="#bfdbfe" stroke="#3b82f6" rx="6"/><text x="60" y="106" fill="#3b82f6" font-family="ui-monospace, monospace" font-size="9" font-weight="600">L2 · Context Integration 整合层</text><text x="300" y="106" fill="#141413" font-size="9">从多源系统整合上下文数据</text><path stroke="#d1cfc5" stroke-width="1.5" d="M280 120v8"/><path fill="#d1cfc5" d="m276 128 4 8 4-16z"/><rect width="480" height="24" x="40" y="128" fill="#fff" stroke="#60a5fa" stroke-width="1.5" rx="6"/><rect width="480" height="12" x="40" y="128" fill="#93c5fd" stroke="#60a5fa" rx="6"/><text x="60" y="140" fill="#60a5fa" font-family="ui-monospace, monospace" font-size="9" font-weight="600">L3 · Context Indexing 索引层</text><text x="280" y="140" fill="#141413" font-size="9">构建可检索的上下文索引</text><path stroke="#d1cfc5" stroke-width="1.5" d="M280 152v8"/><path fill="#d1cfc5" d="m276 160 4 8 4-16z"/><rect width="480" height="24" x="40" y="160" fill="#fff" stroke="#3b82f6" stroke-width="1.5" rx="6"/><rect width="480" height="12" x="40" y="160" fill="#dbeafe" stroke="#3b82f6" rx="6"/><text x="60" y="172" fill="#3b82f6" font-family="ui-monospace, monospace" font-size="9" font-weight="600">L4 · Context Retrieval 检索层</text><text x="280" y="172" fill="#141413" font-size="9">基于语义和规则检索相关上下文</text><path stroke="#d1cfc5" stroke-width="1.5" d="M280 184v8"/><path fill="#d1cfc5" d="m276 192 4 8 4-16z"/><text x="280" y="204" fill="#87867f" font-size="9" font-style="italic" text-anchor="middle">L5 Delivery 将筛选后的上下文注入 Prompt，完成上下文工程闭环</text></svg>