<svg xmlns="http://www.w3.org/2000/svg" font-family="'JetBrains Mono', 'Fira Code', 'SF Mono', monospace" viewBox="0 0 900 580">
  <defs>
    <style>
      .text-sm,.text-xs{fill:#87867f;font-size:11px}.text-xs{font-size:10px}.text-label{fill:#141413;font-size:12px;font-weight:600}.border{stroke:#d1cfc5;stroke-width:1.5}.fill-white{fill:#fff}
    </style>
  </defs>
  <path d="M0 0h900v580H0z" style="fill:#faf9f5"/>
  <text x="450" y="28" font-weight="700" style="fill:#141413;font-size:13px" text-anchor="middle">Prompt 逆向工程四层架构（RPE）</text>
  <rect width="780" height="115" x="60" y="55" rx="10" style="fill:#fef3c7;stroke:#d97757;stroke-width:2"/>
  <text x="90" y="78" fill="#d97757" class="text-label" font-size="16">Layer 4</text>
  <rect width="4" height="115" x="60" y="55" fill="#d97757" rx="2"/>
  <text x="450" y="76" class="text-label" font-size="14" text-anchor="middle">Workflow Reconstruction</text>
  <text x="450" y="96" class="text-sm" text-anchor="middle">工作流重建层 — 目标：理解 Agent 系统的完整架构</text>
  <rect width="155" height="46" x="140" y="112" class="fill-white border" rx="6"/>
  <text x="217" y="130" class="text-xs" text-anchor="middle">多轮对话分析</text>
  <text x="217" y="146" class="text-xs" text-anchor="middle">analyze_conversation_flow</text>
  <rect width="155" height="46" x="310" y="112" class="fill-white border" rx="6"/>
  <text x="387" y="130" class="text-xs" text-anchor="middle">Workflow 图重建</text>
  <text x="387" y="146" class="text-xs" text-anchor="middle">reconstruct_workflow_graph</text>
  <rect width="155" height="46" x="480" y="112" class="fill-white border" rx="6"/>
  <text x="557" y="130" class="text-xs" text-anchor="middle">状态机模型推断</text>
  <text x="557" y="146" class="text-xs" text-anchor="middle">infer_state_machine</text>
  <rect width="155" height="46" x="650" y="112" class="fill-white border" rx="6"/>
  <text x="727" y="130" class="text-xs" text-anchor="middle">Agent 交互模式</text>
  <text x="727" y="146" class="text-xs" text-anchor="middle">extract_agent_patterns</text>
  <path stroke-width="2" d="M450 170v22" class="border"/>
  <path fill="#141413" d="m450 192-5-8h10z"/>
  <rect width="780" height="100" x="60" y="192" rx="10" style="fill:#fed7aa;stroke:#ea580c;stroke-width:2"/>
  <text x="90" y="215" fill="#ea580c" class="text-label" font-size="16">Layer 3</text>
  <rect width="4" height="100" x="60" y="192" fill="#ea580c" rx="2"/>
  <text x="450" y="213" class="text-label" font-size="14" text-anchor="middle">Tool Schema Inference</text>
  <text x="450" y="233" class="text-sm" text-anchor="middle">工具模式推断层 — 目标：重建 Tool Definition 和调用逻辑</text>
  <rect width="155" height="36" x="140" y="248" class="fill-white border" rx="6"/>
  <text x="217" y="271" class="text-xs" text-anchor="middle">工具触发探测 detect_tool_usage</text>
  <rect width="155" height="36" x="310" y="248" class="fill-white border" rx="6"/>
  <text x="387" y="271" class="text-xs" text-anchor="middle">Tool Schema 重建 reconstruct_tool_schema</text>
  <rect width="155" height="36" x="480" y="248" class="fill-white border" rx="6"/>
  <text x="557" y="271" class="text-xs" text-anchor="middle">参数类型推断 infer_param_types</text>
  <rect width="155" height="36" x="650" y="248" class="fill-white border" rx="6"/>
  <text x="727" y="271" class="text-xs" text-anchor="middle">调用逻辑推断 infer_call_logic</text>
  <path stroke-width="2" d="M450 292v22" class="border"/>
  <path fill="#141413" d="m450 314-5-8h10z"/>
  <rect width="780" height="100" x="60" y="314" rx="10" style="fill:#dbeafe;stroke:#2563eb;stroke-width:2"/>
  <text x="90" y="337" fill="#2563eb" class="text-label" font-size="16">Layer 2</text>
  <rect width="4" height="100" x="60" y="314" fill="#2563eb" rx="2"/>
  <text x="450" y="335" class="text-label" font-size="14" text-anchor="middle">System Prompt Extraction</text>
  <text x="450" y="355" class="text-sm" text-anchor="middle">系统 Prompt 提取层 — 目标：提取核心 System Prompt</text>
  <rect width="155" height="36" x="140" y="370" class="fill-white border" rx="6"/>
  <text x="217" y="393" class="text-xs" text-anchor="middle">角色推断 infer_role</text>
  <rect width="155" height="36" x="310" y="370" class="fill-white border" rx="6"/>
  <text x="387" y="393" class="text-xs" text-anchor="middle">任务模板重建 reconstruct_task_template</text>
  <rect width="155" height="36" x="480" y="370" class="fill-white border" rx="6"/>
  <text x="557" y="393" class="text-xs" text-anchor="middle">约束条件提取 extract_constraints</text>
  <rect width="155" height="36" x="650" y="370" class="fill-white border" rx="6"/>
  <text x="727" y="393" class="text-xs" text-anchor="middle">Prompt 片段还原 reconstruct_prompt</text>
  <path stroke-width="2" d="M450 414v22" class="border"/>
  <path fill="#141413" d="m450 436-5-8h10z"/>
  <rect width="780" height="120" x="60" y="436" rx="10" style="fill:#d1fae5;stroke:#059669;stroke-width:2"/>
  <text x="90" y="459" fill="#059669" class="text-label" font-size="16">Layer 1</text>
  <rect width="4" height="120" x="60" y="436" fill="#059669" rx="2"/>
  <text x="450" y="457" class="text-label" font-size="14" text-anchor="middle">Behavior Analysis</text>
  <text x="450" y="477" class="text-sm" text-anchor="middle">行为分析层 — 目标：从输入输出映射推断约束和模式</text>
  <rect width="155" height="56" x="100" y="490" class="fill-white border" rx="6"/>
  <text x="177" y="510" class="text-xs" text-anchor="middle">采样分析</text>
  <text x="177" y="524" class="text-xs" text-anchor="middle">sampling_analysis</text>
  <text x="177" y="538" class="text-xs" text-anchor="middle">多次采样 → 模式提取</text>
  <rect width="155" height="56" x="270" y="490" class="fill-white border" rx="6"/>
  <text x="347" y="510" class="text-xs" text-anchor="middle">约束探测</text>
  <text x="347" y="524" class="text-xs" text-anchor="middle">constraint_probing</text>
  <text x="347" y="538" class="text-xs" text-anchor="middle">边界测试 → 约束推断</text>
  <rect width="155" height="56" x="440" y="490" class="fill-white border" rx="6"/>
  <text x="517" y="510" class="text-xs" text-anchor="middle">Fuzzing 测试</text>
  <text x="517" y="524" class="text-xs" text-anchor="middle">prompt_fuzzing</text>
  <text x="517" y="538" class="text-xs" text-anchor="middle">渐进变异 → 敏感度映射</text>
  <rect width="155" height="56" x="610" y="490" class="fill-white border" rx="6"/>
  <text x="687" y="510" class="text-xs" text-anchor="middle">I/O 映射表构建</text>
  <text x="687" y="524" class="text-xs" text-anchor="middle">build_io_mapping</text>
  <text x="687" y="538" class="text-xs" text-anchor="middle">输入 → 输出 关系建模</text>
  <rect width="780" height="26" x="60" y="55" fill="none" stroke="#d97757" stroke-dasharray="4 3" rx="4"/>
  <rect width="780" height="26" x="60" y="192" fill="none" stroke="#ea580c" stroke-dasharray="4 3" rx="4"/>
  <rect width="780" height="26" x="60" y="314" fill="none" stroke="#2563eb" stroke-dasharray="4 3" rx="4"/>
  <rect width="780" height="26" x="60" y="436" fill="none" stroke="#059669" stroke-dasharray="4 3" rx="4"/>
  <text x="850" y="75" fill="#d97757" class="text-xs" text-anchor="end">极难 ⭐⭐⭐⭐⭐</text>
  <text x="850" y="212" fill="#ea580c" class="text-xs" text-anchor="end">困难 ⭐⭐⭐⭐</text>
  <text x="850" y="334" fill="#2563eb" class="text-xs" text-anchor="end">中等 ⭐⭐⭐</text>
  <text x="850" y="456" fill="#059669" class="text-xs" text-anchor="end">容易 ⭐⭐</text>
</svg>
