<svg xmlns="http://www.w3.org/2000/svg" font-family="ui-serif, Georgia, serif" viewBox="0 0 560 220"><path fill="#faf9f5" d="M0 0h560v220H0z"/><text x="280" y="18" fill="#141413" font-size="13" font-weight="500" letter-spacing="-.02em" text-anchor="middle">AI 架构评审四阶段流程</text><text x="280" y="34" fill="#87867f" font-family="ui-monospace, monospace" font-size="9.5" text-anchor="middle">postcodeengineering.com · 2025/05/11</text><rect width="110" height="90" x="40" y="50" fill="#fff" stroke="#2563eb" stroke-width="1.8" rx="6"/><rect width="110" height="18" x="40" y="50" fill="#dbeafe" stroke="#2563eb" rx="6"/><text x="95" y="64" fill="#2563eb" font-family="ui-monospace, monospace" font-size="10" font-weight="600" text-anchor="middle">S1 · AI生成方案</text><text x="95" y="84" fill="#141413" font-size="9" text-anchor="middle">输入：需求 + 约束</text><text x="95" y="97" fill="#141413" font-size="9" text-anchor="middle">输出：多个候选</text><text x="95" y="110" fill="#141413" font-size="9" text-anchor="middle">架构方案</text><text x="95" y="130" fill="#87867f" font-size="8.5" text-anchor="middle">AI 生成</text><rect width="14" height="14" x="142" y="88" fill="#2563eb" rx="7"/><text x="149" y="99" fill="#fff" font-family="ui-monospace, monospace" font-size="7" text-anchor="middle">S1</text><path stroke="#d1cfc5" stroke-width="1.5" d="M150 95h22"/><path fill="#d1cfc5" d="m172 91 8 4-8 4z"/><rect width="140" height="90" x="180" y="50" fill="#fff" stroke="#3b82f6" stroke-width="1.5" rx="6"/><rect width="140" height="18" x="180" y="50" fill="#bfdbfe" stroke="#3b82f6" rx="6"/><text x="250" y="64" fill="#3b82f6" font-family="ui-monospace, monospace" font-size="10" font-weight="600" text-anchor="middle">S2 · 自动化预评审</text><text x="250" y="84" fill="#141413" font-size="9" text-anchor="middle">合规性检查 · 安全扫描</text><text x="250" y="97" fill="#141413" font-size="9" text-anchor="middle">性能预测 · 成本估算</text><text x="250" y="110" fill="#141413" font-size="9" text-anchor="middle">AI特性评估</text><text x="250" y="130" fill="#87867f" font-size="8.5" text-anchor="middle">自动化检查</text><rect width="14" height="14" x="312" y="88" fill="#3b82f6" rx="7"/><text x="319" y="99" fill="#fff" font-family="ui-monospace, monospace" font-size="7" text-anchor="middle">S2</text><path stroke="#d1cfc5" stroke-width="1.5" d="M320 95h22"/><path fill="#d1cfc5" d="m342 91 8 4-8 4z"/><rect width="110" height="90" x="350" y="50" fill="#fff" stroke="#d97757" stroke-width="1.5" rx="6"/><rect width="110" height="18" x="350" y="50" fill="#fef3c7" stroke="#d97757" rx="6"/><text x="405" y="64" fill="#d97757" font-family="ui-monospace, monospace" font-size="10" font-weight="600" text-anchor="middle">S3 · 人工审查</text><text x="405" y="84" fill="#141413" font-size="9" text-anchor="middle">评审AI评估报告</text><text x="405" y="97" fill="#141413" font-size="9" text-anchor="middle">关注AI标记风险点</text><text x="405" y="110" fill="#141413" font-size="9" text-anchor="middle">评估长期影响</text><text x="405" y="130" fill="#87867f" font-size="8.5" text-anchor="middle">人工判断</text><rect width="14" height="14" x="452" y="88" fill="#d97757" rx="7"/><text x="459" y="99" fill="#fff" font-family="ui-monospace, monospace" font-size="7" text-anchor="middle">S3</text><path stroke="#d1cfc5" stroke-width="1.5" d="M460 95h22"/><path fill="#d1cfc5" d="m482 91 8 4-8 4z"/><rect width="110" height="60" x="410" y="150" fill="#fff" stroke="#059669" stroke-width="1.8" rx="6"/><rect width="110" height="18" x="410" y="150" fill="#d1fae5" stroke="#059669" rx="6"/><text x="465" y="164" fill="#059669" font-family="ui-monospace, monospace" font-size="10" font-weight="600" text-anchor="middle">S4 · 决策与反馈</text><text x="465" y="182" fill="#141413" font-size="9" text-anchor="middle">批准/拒绝/要求修改</text><text x="465" y="196" fill="#141413" font-size="9" text-anchor="middle">反馈给AI系统</text><rect width="14" height="14" x="512" y="174" fill="#059669" rx="7"/><text x="519" y="185" fill="#fff" font-family="ui-monospace, monospace" font-size="7" text-anchor="middle">S4</text><path stroke="#d1cfc5" stroke-width="1.5" d="M430 140v10"/><path fill="#d1cfc5" d="m426 150 4 8 4-8z"/><path fill="none" stroke="#d1cfc5" stroke-dasharray="4,3" d="M410 180q-390 0-315-40"/><path fill="#d1cfc5" d="m95 140-5 6h10z"/><text x="60" y="196" fill="#87867f" font-family="ui-monospace, monospace" font-size="8">反馈给AI</text><text x="60" y="206" fill="#87867f" font-family="ui-monospace, monospace" font-size="8">持续学习</text></svg>