<svg xmlns="http://www.w3.org/2000/svg" font-family="'Helvetica Neue', Arial, sans-serif" viewBox="0 0 800 480">
  <path d="M0 0h800v480H0z" style="fill:#faf9f5"/>
  <text x="40" y="36" style="fill:#141413;font-size:13px;font-weight:600">AI 应用风险评估矩阵</text>
  <text x="40" y="52" style="fill:#87867f;font-size:11px">Risk Assessment Matrix for AI Applications</text>
  <text x="310" y="90" fill="#141413" font-size="12" font-weight="700" text-anchor="middle">错误后果 →</text>
  <text x="90" y="250" fill="#141413" font-size="12" font-weight="700" text-anchor="middle" transform="rotate(-90 90 250)">错误可发现性 →</text>
  <text x="160" y="420" fill="#87867f" font-size="11" text-anchor="middle">低</text>
  <text x="260" y="420" fill="#87867f" font-size="11" text-anchor="middle">中</text>
  <text x="360" y="420" fill="#87867f" font-size="11" text-anchor="middle">高</text>
  <text x="120" y="110" fill="#87867f" font-size="11" text-anchor="middle">易</text>
  <text x="120" y="210" fill="#87867f" font-size="11" text-anchor="middle">中</text>
  <text x="120" y="310" fill="#87867f" font-size="11" text-anchor="middle">难</text>
  <path stroke="#d1cfc5" d="M160 100v300m100-300v300"/>
  <path stroke="#d1cfc5" stroke-width="1.5" d="M360 100v300"/>
  <path stroke="#d1cfc5" d="M160 100h200M160 200h200"/>
  <path stroke="#d1cfc5" stroke-width="1.5" d="M160 300h200"/>
  <path stroke="#d1cfc5" d="M160 400h200"/>
  <path fill="#e3dacc" d="M161 101h99v99h-99z"/>
  <text x="210" y="155" fill="#87867f" font-size="28" font-weight="700" text-anchor="middle">低</text>
  <text x="210" y="175" fill="#87867f" font-size="11" text-anchor="middle">用户体验差</text>
  <path fill="#e3dacc" d="M261 101h99v99h-99z"/>
  <text x="310" y="155" fill="#87867f" font-size="28" font-weight="700" text-anchor="middle">低</text>
  <text x="310" y="175" fill="#87867f" font-size="11" text-anchor="middle">用户体验差</text>
  <path fill="#d97757" fill-opacity=".25" d="M361 101h99v99h-99z"/>
  <text x="410" y="155" fill="#d97757" font-size="28" font-weight="700" text-anchor="middle">中</text>
  <text x="410" y="175" fill="#d97757" font-size="11" text-anchor="middle">经济损失</text>
  <path fill="#e3dacc" d="M161 201h99v99h-99z"/>
  <text x="210" y="255" fill="#87867f" font-size="28" font-weight="700" text-anchor="middle">低</text>
  <text x="210" y="275" fill="#87867f" font-size="11" text-anchor="middle">用户体验差</text>
  <path fill="#d97757" fill-opacity=".25" d="M261 201h99v99h-99z"/>
  <text x="310" y="255" fill="#d97757" font-size="28" font-weight="700" text-anchor="middle">中</text>
  <text x="310" y="275" fill="#d97757" font-size="11" text-anchor="middle">经济损失</text>
  <path fill="#d97757" fill-opacity=".75" d="M361 201h99v99h-99z"/>
  <text x="410" y="255" fill="#faf9f5" font-size="28" font-weight="700" text-anchor="middle">高</text>
  <text x="410" y="275" fill="#faf9f5" font-size="11" text-anchor="middle">人身安全</text>
  <path fill="#e3dacc" d="M161 301h99v99h-99z"/>
  <text x="210" y="355" fill="#87867f" font-size="28" font-weight="700" text-anchor="middle">低</text>
  <text x="210" y="375" fill="#87867f" font-size="11" text-anchor="middle">用户体验差</text>
  <path fill="#d97757" fill-opacity=".75" d="M261 301h99v99h-99z"/>
  <text x="310" y="355" fill="#faf9f5" font-size="28" font-weight="700" text-anchor="middle">高</text>
  <text x="310" y="375" fill="#faf9f5" font-size="11" text-anchor="middle">人身安全</text>
  <path fill="#141413" d="M361 301h99v99h-99z"/>
  <text x="410" y="355" fill="#d97757" font-size="22" font-weight="700" text-anchor="middle">极高</text>
  <text x="410" y="375" fill="#87867f" font-size="11" text-anchor="middle">灾难性</text>
  <rect width="260" height="340" x="500" y="90" fill="#141413" rx="12"/>
  <text x="520" y="122" fill="#faf9f5" font-size="14" font-weight="700">应用分级 &amp; 防御策略</text>
  <path stroke="#d97757" stroke-width="2" d="M520 134h220"/>
  <rect width="220" height="70" x="520" y="148" fill="#d97757" rx="8"/>
  <text x="540" y="172" fill="#faf9f5" font-size="13" font-weight="700">高风险 · 医疗/法律/金融</text>
  <text x="540" y="192" fill="#faf9f5" font-size="11">三层防御全部启用</text>
  <text x="540" y="208" fill="#faf9f5" font-size="11">人在回路强制</text>
  <rect width="220" height="70" x="520" y="228" fill="#d1cfc5" rx="8"/>
  <text x="540" y="252" fill="#141413" font-size="13" font-weight="700">中风险 · 客服/内容推荐</text>
  <text x="540" y="272" fill="#141413" font-size="11">重点在检测层</text>
  <text x="540" y="288" fill="#141413" font-size="11">抽样人工审核</text>
  <rect width="220" height="70" x="520" y="308" fill="#788c5d" fill-opacity=".4" rx="8"/>
  <text x="540" y="332" fill="#e3dacc" font-size="13" font-weight="700">低风险 · 创意/娱乐</text>
  <text x="540" y="352" fill="#e3dacc" font-size="11">预防层为主</text>
  <text x="540" y="368" fill="#e3dacc" font-size="11">允许一定幻觉率</text>
  <text x="500" y="446" fill="#87867f" font-size="10">监控指标：幻觉率 &lt;1%(高)/&lt;5%(中) | 检测率 &gt;90% | 误报率 &lt;10%</text>
  <path fill="#e3dacc" d="M40 446h16v16H40z"/>
  <text x="62" y="458" fill="#87867f" font-size="11">低风险</text>
  <path fill="#d97757" fill-opacity=".3" d="M110 446h16v16h-16z"/>
  <text x="132" y="458" fill="#87867f" font-size="11">中风险</text>
  <path fill="#d97757" fill-opacity=".75" d="M190 446h16v16h-16z"/>
  <text x="212" y="458" fill="#87867f" font-size="11">高风险</text>
  <path fill="#141413" d="M270 446h16v16h-16z"/>
  <text x="292" y="458" fill="#87867f" font-size="11">极高风险</text>
</svg>
