<svg xmlns="http://www.w3.org/2000/svg" font-family="ui-serif, Georgia, 'Times New Roman', serif" viewBox="0 0 680 380">
  <path fill="#faf9f5" d="M0 0h680v380H0z"/>
  <text x="340" y="28" fill="#141413" font-size="14" font-weight="500" letter-spacing="-.02em" text-anchor="middle">多Agent协作的工作流</text>
  <text x="340" y="44" fill="#87867f" font-family="ui-monospace, monospace" font-size="10" text-anchor="middle">角色 → 知识库 → 交付物</text>
  <rect width="130" height="88" x="30" y="68" fill="#e3dacc" stroke="#d97757" stroke-width="1.8" rx="8"/>
  <text x="95" y="92" fill="#d97757" font-family="ui-monospace, monospace" font-size="12" font-weight="600" text-anchor="middle">前端专家</text>
  <text x="95" y="110" fill="#141413" font-size="10" text-anchor="middle">UI/UX 实现</text>
  <text x="95" y="126" fill="#87867f" font-size="10" text-anchor="middle">设计系统 · React/Vue</text>
  <text x="95" y="142" fill="#87867f" font-size="10" text-anchor="middle">视觉优先认知风格</text>
  <rect width="130" height="88" x="185" y="68" fill="#e3dacc" stroke="#d97757" stroke-width="1.8" rx="8"/>
  <text x="250" y="92" fill="#d97757" font-family="ui-monospace, monospace" font-size="12" font-weight="600" text-anchor="middle">后端架构师</text>
  <text x="250" y="110" fill="#141413" font-size="10" text-anchor="middle">系统设计</text>
  <text x="250" y="126" fill="#87867f" font-size="10" text-anchor="middle">数据库 · API</text>
  <text x="250" y="142" fill="#87867f" font-size="10" text-anchor="middle">系统优先认知风格</text>
  <rect width="130" height="88" x="340" y="68" fill="#e3dacc" stroke="#d97757" stroke-width="1.8" rx="8"/>
  <text x="405" y="92" fill="#d97757" font-family="ui-monospace, monospace" font-size="12" font-weight="600" text-anchor="middle">产品经理</text>
  <text x="405" y="110" fill="#141413" font-size="10" text-anchor="middle">需求分析</text>
  <text x="405" y="126" fill="#87867f" font-size="10" text-anchor="middle">优先级 · 跨团队协调</text>
  <text x="405" y="142" fill="#87867f" font-size="10" text-anchor="middle">业务语言↔技术语言</text>
  <rect width="130" height="88" x="495" y="68" fill="#e3dacc" stroke="#d97757" stroke-width="1.8" rx="8"/>
  <text x="560" y="92" fill="#d97757" font-family="ui-monospace, monospace" font-size="12" font-weight="600" text-anchor="middle">社区运营</text>
  <text x="560" y="110" fill="#141413" font-size="10" text-anchor="middle">用户关系</text>
  <text x="560" y="126" fill="#87867f" font-size="10" text-anchor="middle">内容策划 · 数据分析</text>
  <text x="560" y="142" fill="#87867f" font-size="10" text-anchor="middle">技术→用户友好表达</text>
  <path stroke="#d97757" stroke-width="1.5" d="M95 156v39"/>
  <path fill="#d97757" d="m95 200-4-8h8z"/>
  <path stroke="#d97757" stroke-width="1.5" d="M250 156v39"/>
  <path fill="#d97757" d="m250 200-4-8h8z"/>
  <path stroke="#d97757" stroke-width="1.5" d="M405 156v39"/>
  <path fill="#d97757" d="m405 200-4-8h8z"/>
  <path stroke="#d97757" stroke-width="1.5" d="M560 156v39"/>
  <path fill="#d97757" d="m560 200-4-8h8z"/>
  <rect width="280" height="80" x="200" y="208" fill="#faf9f5" stroke="#788c5d" stroke-width="2" rx="10"/>
  <text x="340" y="234" fill="#788c5d" font-family="ui-monospace, monospace" font-size="13" font-weight="600" text-anchor="middle">共享知识库</text>
  <path stroke="#d1cfc5" d="M220 246h240"/>
  <text x="340" y="263" fill="#141413" font-size="10" text-anchor="middle">代码规范 · 设计系统 · 架构原则</text>
  <text x="340" y="280" fill="#87867f" font-size="10" text-anchor="middle">角色边界 · 接口契约 · 验证规则</text>
  <path stroke="#d97757" stroke-width="1.8" d="M340 288v22"/>
  <path fill="#d97757" d="m340 316-4-8h8z"/>
  <rect width="240" height="44" x="220" y="322" fill="#fff" stroke="#d97757" stroke-width="1.8" rx="8"/>
  <text x="340" y="343" fill="#d97757" font-family="ui-monospace, monospace" font-size="12" font-weight="600" text-anchor="middle">结构化交付物</text>
  <text x="340" y="358" fill="#87867f" font-size="10" text-anchor="middle">代码 · 文档 · 设计稿 · 数据</text>
  <title>多Agent协作的工作流</title>
  <desc>
    Horizontal flowchart showing 4 role boxes (前端专家, 后端架构师, 产品经理, 社区运营) connected via a central 共享知识库 to a structured 交付物 output node.
  </desc>
</svg>
