<svg xmlns="http://www.w3.org/2000/svg" font-family="ui-serif, Georgia, serif" viewBox="0 0 560 200">
  <path fill="#faf9f5" d="M0 0h560v200H0z"/>
  <text x="280" y="20" fill="#141413" font-size="13" font-weight="500" letter-spacing="-.02em" text-anchor="middle">AI-Native 安全三环防护模型</text>
  <text x="280" y="36" fill="#87867f" font-family="ui-monospace, monospace" font-size="9.5" text-anchor="middle">postcodeengineering.com · 2025/05/02</text>
  <rect width="480" height="38" x="40" y="158" fill="#fff" stroke="#059669" stroke-width="1.8" rx="6"/>
  <rect width="480" height="18" x="40" y="158" fill="#d1fae5" stroke="#059669" rx="6"/>
  <text x="60" y="173" fill="#059669" font-family="ui-monospace, monospace" font-size="10" font-weight="600">🟢 L1 · 第一环：感知监测层</text>
  <text x="280" y="173" fill="#141413" font-size="12" font-weight="600" text-anchor="middle">Perception Monitoring</text>
  <text x="60" y="188" fill="#87867f" font-size="10">输入分析 · 上下文评估（最先触发的防线）</text>
  <path stroke="#d1cfc5" stroke-width="1.5" d="M280 154v-8"/>
  <path fill="#d1cfc5" d="m276 146 4-8 4 8z"/>
  <rect width="480" height="46" x="40" y="98" fill="#fff" stroke="#d97757" stroke-width="1.5" rx="6"/>
  <rect width="480" height="18" x="40" y="98" fill="#fef3c7" stroke="#d97757" rx="6"/>
  <text x="60" y="113" fill="#d97757" font-family="ui-monospace, monospace" font-size="10" font-weight="600">🟡 L2 · 第二环：决策控制层</text>
  <text x="280" y="113" fill="#141413" font-size="12" font-weight="600" text-anchor="middle">Decision Control</text>
  <text x="60" y="130" fill="#87867f" font-size="10">意图理解 · 风险评估</text>
  <rect width="18" height="18" x="490" y="108" fill="#d97757" rx="9"/>
  <text x="499" y="121" fill="#fff" font-family="ui-monospace, monospace" font-size="9" text-anchor="middle">L2</text>
  <path stroke="#d1cfc5" stroke-width="1.5" d="M280 94v-8"/>
  <path fill="#d1cfc5" d="m276 86 4-8 4 8z"/>
  <rect width="480" height="38" x="40" y="46" fill="#fff" stroke="#dc2626" stroke-width="1.8" rx="6"/>
  <rect width="480" height="18" x="40" y="46" fill="#fee2e2" stroke="#dc2626" rx="6"/>
  <text x="60" y="61" fill="#dc2626" font-family="ui-monospace, monospace" font-size="10" font-weight="600">🔴 L3 · 第三环：执行验证层</text>
  <text x="280" y="61" fill="#141413" font-size="12" font-weight="600" text-anchor="middle">Execution Verification</text>
  <text x="60" y="76" fill="#87867f" font-size="10">最后防线，行为审计</text>
  <rect width="18" height="18" x="490" y="56" fill="#dc2626" rx="9"/>
  <text x="499" y="69" fill="#fff" font-family="ui-monospace, monospace" font-size="9" text-anchor="middle">L3</text>
  <text x="320" y="120" fill="#87867f" font-family="ui-monospace, monospace" font-size="9">层层递进 ↑</text>
</svg>
