<svg xmlns="http://www.w3.org/2000/svg" font-family="ui-serif, Georgia, serif" viewBox="0 0 680 360">
  <title>个性化学习路径生成图</title>
  <desc>
    展示AI为初级开发者小王生成的个性化学习路径，从诊断到认证的完整流程
  </desc>
  <path fill="#faf9f5" d="M0 0h680v360H0z"/>
  <text x="340" y="26" fill="#141413" font-size="14" font-weight="500" letter-spacing="-.02em" text-anchor="middle">个性化学习路径生成</text>
  <text x="340" y="42" fill="#87867f" font-family="ui-monospace, monospace" font-size="10" text-anchor="middle">案例：初级开发者小王 · AI-Native · 2025/05/22</text>
  <rect width="240" height="80" x="40" y="58" fill="#fff" stroke="#d97757" stroke-width="1.8" rx="8"/>
  <text x="56" y="78" fill="#d97757" font-family="ui-monospace, monospace" font-size="11" font-weight="600">输入：开发者画像</text>
  <text x="56" y="96" fill="#141413" font-size="10">Python基础扎实 / 设计模式薄弱</text>
  <text x="56" y="110" fill="#141413" font-size="10">测试意识不足 / 学习速度快</text>
  <text x="56" y="124" fill="#87867f" font-size="9">职业目标：中级后端工程师</text>
  <path stroke="#d97757" stroke-width="2" d="M280 98h40"/>
  <path fill="#d97757" d="m320 98-8-4v8z"/>
  <text x="300" y="90" fill="#87867f" font-family="ui-monospace, monospace" font-size="8" text-anchor="middle">分析</text>
  <rect width="160" height="80" x="330" y="58" fill="#fff" stroke="#d1cfc5" stroke-width="1.5" rx="8"/>
  <text x="346" y="78" fill="#141413" font-family="ui-monospace, monospace" font-size="11" font-weight="600">Gap Analysis</text>
  <text x="346" y="96" fill="#87867f" font-size="9.5">识别能力缺口</text>
  <text x="346" y="110" fill="#87867f" font-size="9.5">匹配学习资源</text>
  <text x="346" y="124" fill="#87867f" font-size="9.5">排序列为里程碑</text>
  <path stroke="#d97757" stroke-width="2" d="M490 98h40"/>
  <path fill="#d97757" d="m530 98-8-4v8z"/>
  <text x="510" y="90" fill="#87867f" font-family="ui-monospace, monospace" font-size="8" text-anchor="middle">生成</text>
  <rect width="120" height="80" x="540" y="58" fill="#d97757" fill-opacity=".1" stroke="#d97757" stroke-width="1.8" rx="8"/>
  <text x="556" y="78" fill="#d97757" font-family="ui-monospace, monospace" font-size="11" font-weight="600">学习路径</text>
  <text x="556" y="96" fill="#141413" font-size="9.5">4阶段里程碑</text>
  <text x="556" y="110" fill="#141413" font-size="9.5">配套资源</text>
  <text x="556" y="124" fill="#141413" font-size="9.5">时间线</text>
  <path stroke="#d1cfc5" stroke-width="1.5" d="M340 138v22"/>
  <path fill="#d1cfc5" d="m340 160-4-8h8z"/>
  <rect width="130" height="70" x="60" y="170" fill="#fff" stroke="#d97757" stroke-width="1.8" rx="8"/>
  <rect width="130" height="22" x="60" y="170" fill="#d97757" rx="8"/>
  <path fill="#d97757" d="M60 184h130v8H60z"/>
  <text x="125" y="186" fill="#fff" font-size="9" font-weight="600" text-anchor="middle">M1 设计模式专项</text>
  <text x="76" y="202" fill="#141413" font-size="9">《设计模式》精读</text>
  <text x="76" y="216" fill="#141413" font-size="9">模式练习题 ×20</text>
  <text x="76" y="230" fill="#87867f" font-family="ui-monospace, monospace" font-size="8.5">2周</text>
  <path stroke="#d1cfc5" stroke-width="1.5" d="M190 205h30"/>
  <path fill="#d1cfc5" d="m220 205-8-4v8z"/>
  <rect width="130" height="70" x="230" y="170" fill="#fff" stroke="#d1cfc5" stroke-width="1.5" rx="8"/>
  <rect width="130" height="22" x="230" y="170" fill="#788c5d" rx="8"/>
  <path fill="#788c5d" d="M230 184h130v8H230z"/>
  <text x="295" y="186" fill="#fff" font-size="9" font-weight="600" text-anchor="middle">M2 测试驱动开发</text>
  <text x="246" y="202" fill="#141413" font-size="9">unittest / pytest</text>
  <text x="246" y="216" fill="#141413" font-size="9">TDD 实战项目</text>
  <text x="246" y="230" fill="#87867f" font-family="ui-monospace, monospace" font-size="8.5">3周</text>
  <path stroke="#d1cfc5" stroke-width="1.5" d="M360 205h30"/>
  <path fill="#d1cfc5" d="m390 205-8-4v8z"/>
  <rect width="130" height="70" x="400" y="170" fill="#fff" stroke="#d1cfc5" stroke-width="1.5" rx="8"/>
  <rect width="130" height="22" x="400" y="170" fill="#141413" rx="8"/>
  <path fill="#141413" d="M400 184h130v8H400z"/>
  <text x="465" y="186" fill="#fff" font-size="9" font-weight="600" text-anchor="middle">M3 开源贡献实践</text>
  <text x="416" y="202" fill="#141413" font-size="9">真实开源项目 PR</text>
  <text x="416" y="216" fill="#141413" font-size="9">代码审查参与</text>
  <text x="416" y="230" fill="#87867f" font-family="ui-monospace, monospace" font-size="8.5">4周</text>
  <path stroke="#d1cfc5" stroke-width="1.5" d="M530 205h30"/>
  <path fill="#d1cfc5" d="m560 205-8-4v8z"/>
  <rect width="90" height="70" x="570" y="170" fill="#fff" stroke="#d97757" stroke-width="1.8" rx="8"/>
  <rect width="90" height="22" x="570" y="170" fill="#d97757" rx="8"/>
  <path fill="#d97757" d="M570 184h90v8h-90z"/>
  <text x="615" y="186" fill="#fff" font-size="9" font-weight="600" text-anchor="middle">认证</text>
  <text x="586" y="202" fill="#141413" font-size="9">中级工程师</text>
  <text x="586" y="216" fill="#141413" font-size="9">能力评估</text>
  <text x="586" y="230" fill="#87867f" font-family="ui-monospace, monospace" font-size="8.5">×</text>
  <path stroke="#d1cfc5" stroke-width="1.5" d="M340 248v22"/>
  <rect width="260" height="60" x="60" y="278" fill="#fff" stroke="#d1cfc5" stroke-width="1.5" rx="6"/>
  <text x="76" y="296" fill="#141413" font-family="ui-monospace, monospace" font-size="10" font-weight="600">学习前</text>
  <text x="76" y="312" fill="#87867f" font-size="9">设计模式: ★☆☆</text>
  <text x="76" y="326" fill="#87867f" font-size="9">测试意识: ★☆☆</text>
  <text x="190" y="312" fill="#87867f" font-size="9">代码审查: 通过率 45%</text>
  <text x="190" y="326" fill="#87867f" font-size="9">平均周期: —</text>
  <rect width="260" height="60" x="360" y="278" fill="#fff" stroke="#788c5d" stroke-width="1.5" rx="6"/>
  <text x="376" y="296" fill="#788c5d" font-family="ui-monospace, monospace" font-size="10" font-weight="600">学习后</text>
  <text x="376" y="312" fill="#141413" font-size="9">设计模式: ★★★</text>
  <text x="376" y="326" fill="#141413" font-size="9">测试意识: ★★★</text>
  <text x="490" y="312" fill="#141413" font-size="9">代码审查: 通过率 89%</text>
  <text x="490" y="326" fill="#141413" font-size="9">平均周期: 9周</text>
  <text x="340" y="348" fill="#87867f" font-family="ui-monospace, monospace" font-size="9" text-anchor="middle">AI生成 · 2025-05-22</text>
</svg>
