<svg xmlns="http://www.w3.org/2000/svg" font-family="'Helvetica Neue', Arial, sans-serif" viewBox="0 0 800 520"><path d="M0 0h800v520H0z" style="fill:#faf9f5"/><text x="40" y="36" style="fill:#141413;font-size:13px;font-weight:600">AI-Native 开发者体验五维模型</text><text x="40" y="52" style="fill:#87867f;font-size:11px">Five-Dimensional Developer Experience Model for AI-Native Era</text><circle cx="280" cy="280" r="40" fill="none" stroke="#d1cfc5" stroke-width=".8"/><circle cx="280" cy="280" r="80" fill="none" stroke="#d1cfc5" stroke-width=".8"/><circle cx="280" cy="280" r="120" fill="none" stroke="#d1cfc5" stroke-width=".8"/><circle cx="280" cy="280" r="160" fill="none" stroke="#d1cfc5"/><path stroke="#d1cfc5" d="M280 280V120"/><text x="280" y="108" fill="#141413" font-size="13" font-weight="700" text-anchor="middle">认知流</text><text x="280" y="122" fill="#87867f" font-size="10" text-anchor="middle">Cognitive Flow</text><path stroke="#d1cfc5" d="m280 280 150-49"/><text x="448" y="226" fill="#141413" font-size="13" font-weight="700">反馈环</text><text x="448" y="240" fill="#87867f" font-size="10">Feedback Loop</text><path stroke="#d1cfc5" d="m280 280 94 129"/><text x="392" y="420" fill="#141413" font-size="13" font-weight="700">信任度</text><text x="392" y="434" fill="#87867f" font-size="10">Trust</text><path stroke="#d1cfc5" d="m280 280-94 129"/><text x="156" y="420" fill="#141413" font-size="13" font-weight="700" text-anchor="end">控制感</text><text x="156" y="434" fill="#87867f" font-size="10" text-anchor="end">Agency</text><path stroke="#d1cfc5" d="m280 280-152-49"/><text x="110" y="226" fill="#141413" font-size="13" font-weight="700" text-anchor="end">成长路径</text><text x="110" y="240" fill="#87867f" font-size="10" text-anchor="end">Growth Path</text><path fill="#d97757" fill-opacity=".15" stroke="#d97757" stroke-width="2" d="m280 160 122 80-56 131-146 19-57-154z"/><circle cx="280" cy="160" r="5" fill="#d97757"/><circle cx="402" cy="240" r="5" fill="#d97757"/><circle cx="346" cy="371" r="5" fill="#d97757"/><circle cx="200" cy="390" r="5" fill="#d97757"/><circle cx="143" cy="236" r="5" fill="#d97757"/><rect width="280" height="390" x="480" y="80" fill="#141413" rx="12"/><text x="500" y="114" fill="#faf9f5" font-size="14" font-weight="700">五维详解</text><path stroke="#d97757" stroke-width="2" d="M500 128h240"/><rect width="240" height="56" x="500" y="140" fill="#d97757" rx="8"/><text x="516" y="160" fill="#faf9f5" font-size="12" font-weight="700">① 认知流</text><text x="516" y="176" fill="#faf9f5" font-size="10">流式响应减少等待 | 上下文保持 | 渐进式披露</text><rect width="240" height="56" x="500" y="204" fill="#2a2a2a" stroke="#d1cfc5" stroke-width=".8" rx="8"/><text x="516" y="224" fill="#e3dacc" font-size="12" font-weight="700">② 反馈环</text><text x="516" y="240" fill="#87867f" font-size="10">意图→代码时间 | 多模态反馈 | 快速撤销</text><rect width="240" height="56" x="500" y="268" fill="#2a2a2a" stroke="#d1cfc5" stroke-width=".8" rx="8"/><text x="516" y="288" fill="#e3dacc" font-size="12" font-weight="700">③ 信任度</text><text x="516" y="304" fill="#87867f" font-size="10">置信度可视化 | 不确定性提示 | AI思考过程展示</text><rect width="240" height="56" x="500" y="332" fill="#2a2a2a" stroke="#d1cfc5" stroke-width=".8" rx="8"/><text x="516" y="352" fill="#e3dacc" font-size="12" font-weight="700">④ 控制感</text><text x="516" y="368" fill="#87867f" font-size="10">关键决策人工确认 | 细粒度控制 | 可干预性</text><rect width="240" height="56" x="500" y="396" fill="#2a2a2a" stroke="#d1cfc5" stroke-width=".8" rx="8"/><text x="516" y="416" fill="#e3dacc" font-size="12" font-weight="700">⑤ 成长路径</text><text x="516" y="432" fill="#87867f" font-size="10">渐进功能暴露 | 学习嵌入工作流 | 专家/新手模式</text><text x="40" y="500" fill="#87867f" font-size="10">AI将开发者从&quot;实现者&quot;转变为&quot;指导者&quot; — 新的DX设计关注如何让开发者流畅表达意图、建立对AI的信任</text></svg>