<svg xmlns="http://www.w3.org/2000/svg" font-family="ui-serif, Georgia, serif" viewBox="0 0 640 200"><path fill="#faf9f5" d="M0 0h640v200H0z"/><text x="320" y="22" fill="#141413" font-size="14" font-weight="500" letter-spacing="-.02em" text-anchor="middle">200人团队的AI混乱时间线</text><text x="320" y="38" fill="#87867f" font-family="ui-monospace, monospace" font-size="10" text-anchor="middle">postcodeengineering.com · 2025/04/18</text><path stroke="#d1cfc5" stroke-width="1.5" d="M60 130h520"/><circle cx="120" cy="130" r="12" fill="#788c5d" stroke="#faf9f5" stroke-width="2"/><text x="120" y="134" fill="#fff" font-family="ui-monospace, monospace" font-size="9" font-weight="600" text-anchor="middle">1</text><rect width="100" height="44" x="70" y="80" fill="#fff" stroke="#788c5d" stroke-width="1.5" rx="8"/><text x="120" y="97" fill="#788c5d" font-family="ui-monospace, monospace" font-size="11" font-weight="600" text-anchor="middle">Month 1</text><text x="120" y="112" fill="#141413" font-size="10" text-anchor="middle">自由探索期</text><text x="120" y="148" fill="#87867f" font-size="9" text-anchor="middle">工具爆发</text><path stroke="#d1cfc5" stroke-dasharray="4,3" stroke-width="1.5" d="M132 130h56"/><path fill="#d1cfc5" d="m192 130-8-4v8z"/><circle cx="230" cy="130" r="12" fill="#d97757" stroke="#faf9f5" stroke-width="2"/><text x="230" y="134" fill="#fff" font-family="ui-monospace, monospace" font-size="9" font-weight="600" text-anchor="middle">2</text><rect width="100" height="44" x="180" y="80" fill="#fff" stroke="#d97757" stroke-width="1.5" rx="8"/><text x="230" y="97" fill="#d97757" font-family="ui-monospace, monospace" font-size="11" font-weight="600" text-anchor="middle">Month 2</text><text x="230" y="112" fill="#141413" font-size="10" text-anchor="middle">代码风格爆炸</text><text x="230" y="148" fill="#87867f" font-size="9" text-anchor="middle">30种编码风格</text><path stroke="#d1cfc5" stroke-dasharray="4,3" stroke-width="1.5" d="M242 130h56"/><path fill="#d1cfc5" d="m302 130-8-4v8z"/><circle cx="350" cy="130" r="12" fill="#d97757" stroke="#faf9f5" stroke-width="2"/><text x="350" y="134" fill="#fff" font-family="ui-monospace, monospace" font-size="9" font-weight="600" text-anchor="middle">3</text><rect width="100" height="44" x="300" y="80" fill="#fff" stroke="#d97757" stroke-width="1.5" rx="8"/><text x="350" y="97" fill="#d97757" font-family="ui-monospace, monospace" font-size="11" font-weight="600" text-anchor="middle">Month 3</text><text x="350" y="112" fill="#141413" font-size="10" text-anchor="middle">溯源困难</text><text x="350" y="148" fill="#87867f" font-size="9" text-anchor="middle">代码来源不明</text><path stroke="#d1cfc5" stroke-dasharray="4,3" stroke-width="1.5" d="M362 130h56"/><path fill="#d1cfc5" d="m422 130-8-4v8z"/><circle cx="470" cy="130" r="12" fill="#9b2c2c" stroke="#faf9f5" stroke-width="2"/><text x="470" y="134" fill="#fff" font-family="ui-monospace, monospace" font-size="9" font-weight="600" text-anchor="middle">4</text><rect width="100" height="44" x="420" y="80" fill="#fff" stroke="#9b2c2c" stroke-width="1.5" rx="8"/><text x="470" y="97" fill="#9b2c2c" font-family="ui-monospace, monospace" font-size="11" font-weight="600" text-anchor="middle">Month 4</text><text x="470" y="112" fill="#141413" font-size="10" text-anchor="middle">技术债务爆炸</text><text x="470" y="148" fill="#87867f" font-size="9" text-anchor="middle">系统稳定性下降</text><path fill="none" stroke="#d97757" stroke-dasharray="5,3" stroke-width="1.5" d="M60 170q260-15 520 0" opacity=".5"/><text x="320" y="165" fill="#d97757" font-family="ui-monospace, monospace" font-size="9" opacity=".7" text-anchor="middle">混乱升级</text><text x="320" y="188" fill="#87867f" font-size="9" font-style="italic" text-anchor="middle">场景：200人微服务团队 · 2025 Q2</text></svg>