<svg xmlns="http://www.w3.org/2000/svg" viewBox="0 0 900 540">
  <defs>
    <filter id="shadow" width="110%" height="115%" x="-5%" y="-5%">
      <feDropShadow dx="0" dy="2" flood-color="#141413" flood-opacity=".07" stdDeviation="3"/>
    </filter>
    <style>
      .cell-sub,.cell-val{font-family:&quot;Helvetica Neue&quot;,Arial,sans-serif}.cell-val{font-size:14px;fill:#141413;font-weight:700}.cell-sub{font-size:10px;fill:#87867f}
    </style>
  </defs>
  <path d="M0 0h900v540H0z" style="fill:#faf9f5"/>
  <text x="30" y="34" style="font-family:&quot;Helvetica Neue&quot;,Arial,sans-serif;font-size:22px;font-weight:800;fill:#141413">AI时代 DORA 四项新指标与基准线</text>
  <text x="30" y="54" style="font-family:&quot;Helvetica Neue&quot;,Arial,sans-serif;font-size:13px;fill:#87867f">意图交付频率 · 意图交付周期 · 意图恢复时间 · 意图偏离率</text>
  <path d="M30 64h840" style="stroke:#d1cfc5;stroke-width:1"/>
  <path fill="#141413" d="M30 78h220v40H30z"/>
  <text x="110" y="26" fill="#faf9f5" font-family="Helvetica Neue" font-size="11" font-weight="700" text-anchor="middle" transform="translate(30 78)">指标</text>
  <path fill="#788c5d" d="M250 78h162v40H250z"/>
  <text x="301" y="16" fill="#faf9f5" font-family="Helvetica Neue" font-size="11" font-weight="700" text-anchor="middle" transform="translate(30 78)">精英 Elite</text>
  <text x="301" y="30" fill="rgba(250,249,245,0.7)" font-family="Helvetica Neue" font-size="10" text-anchor="middle" transform="translate(30 78)">高绩效</text>
  <path fill="#d1cfc5" d="M412 78h162v40H412z"/>
  <text x="463" y="16" fill="#141413" font-family="Helvetica Neue" font-size="11" font-weight="700" text-anchor="middle" transform="translate(30 78)">高绩效 High</text>
  <text x="463" y="30" fill="#87867f" font-family="Helvetica Neue" font-size="10" text-anchor="middle" transform="translate(30 78)">良好</text>
  <path fill="#e3dacc" d="M574 78h162v40H574z"/>
  <text x="625" y="16" fill="#141413" font-family="Helvetica Neue" font-size="11" font-weight="700" text-anchor="middle" transform="translate(30 78)">中等 Medium</text>
  <text x="625" y="30" fill="#87867f" font-family="Helvetica Neue" font-size="10" text-anchor="middle" transform="translate(30 78)">需改进</text>
  <path fill="#d97757" d="M736 78h162v40H736z"/>
  <text x="787" y="16" fill="#faf9f5" font-family="Helvetica Neue" font-size="11" font-weight="700" text-anchor="middle" transform="translate(30 78)">低绩效 Low</text>
  <text x="787" y="30" fill="rgba(250,249,245,0.7)" font-family="Helvetica Neue" font-size="10" text-anchor="middle" transform="translate(30 78)">风险</text>
  <path fill="#fff" stroke="#d1cfc5" stroke-width=".5" d="M30 118h838v88H30z"/>
  <path fill="#141413" d="M30 118h220v88H30z" opacity=".04"/>
  <text x="14" y="24" fill="#141413" font-family="Helvetica Neue" font-size="12" font-weight="700" transform="translate(30 118)">意图交付频率</text>
  <text x="14" y="38" fill="#87867f" font-family="Helvetica Neue" font-size="10" transform="translate(30 118)">Intent Delivery Frequency</text>
  <text x="14" y="56" fill="#87867f" font-family="Helvetica Neue" font-size="9" transform="translate(30 118)">单位时间成功交付的</text>
  <text x="14" y="68" fill="#87867f" font-family="Helvetica Neue" font-size="9" transform="translate(30 118)">意图变更数量</text>
  <text x="14" y="82" fill="#87867f" font-family="Helvetica Neue" font-size="9" transform="translate(30 118)">传统: 部署频率</text>
  <path fill="#788c5d" d="M250 118h162v88H250z" opacity=".1"/>
  <text x="81" y="28" fill="#788c5d" class="cell-val" text-anchor="middle" transform="translate(250 118)">按需</text>
  <text x="81" y="44" class="cell-sub" text-anchor="middle" transform="translate(250 118)">每天多次</text>
  <text x="81" y="64" fill="#788c5d" font-family="Courier New" font-size="11" font-weight="700" text-anchor="middle" transform="translate(250 118)">≥1次/天</text>
  <path fill="#e3dacc" d="M412 118h162v88H412z" opacity=".5"/>
  <text x="81" y="28" class="cell-val" text-anchor="middle" transform="translate(412 118)">每天~每周</text>
  <text x="81" y="44" class="cell-sub" text-anchor="middle" transform="translate(412 118)">每日1次</text>
  <text x="81" y="64" fill="#141413" font-family="Courier New" font-size="11" font-weight="700" text-anchor="middle" transform="translate(412 118)">1-7次/周</text>
  <path fill="#e3dacc" d="M574 118h162v88H574z" opacity=".3"/>
  <text x="81" y="28" class="cell-val" text-anchor="middle" transform="translate(574 118)">每周~每月</text>
  <text x="81" y="44" class="cell-sub" text-anchor="middle" transform="translate(574 118)">周级迭代</text>
  <text x="81" y="64" fill="#141413" font-family="Courier New" font-size="11" font-weight="700" text-anchor="middle" transform="translate(574 118)">0.2-1次/周</text>
  <path fill="#d97757" d="M736 118h162v88H736z" opacity=".1"/>
  <text x="81" y="28" fill="#d97757" class="cell-val" text-anchor="middle" transform="translate(736 118)">&lt;每月1次</text>
  <text x="81" y="44" class="cell-sub" text-anchor="middle" transform="translate(736 118)">月级部署</text>
  <text x="81" y="64" fill="#d97757" font-family="Courier New" font-size="11" font-weight="700" text-anchor="middle" transform="translate(736 118)">&lt;0.2次/周</text>
  <path fill="#fff" stroke="#d1cfc5" stroke-width=".5" d="M30 206h838v88H30z"/>
  <path fill="#141413" d="M30 206h220v88H30z" opacity=".04"/>
  <text x="14" y="24" fill="#141413" font-family="Helvetica Neue" font-size="12" font-weight="700" transform="translate(30 206)">意图交付周期</text>
  <text x="14" y="38" fill="#87867f" font-family="Helvetica Neue" font-size="10" transform="translate(30 206)">Intent Lead Time</text>
  <text x="14" y="56" fill="#87867f" font-family="Helvetica Neue" font-size="9" transform="translate(30 206)">意图定义 → 交付</text>
  <text x="14" y="68" fill="#87867f" font-family="Helvetica Neue" font-size="9" transform="translate(30 206)">的时间</text>
  <text x="14" y="82" fill="#87867f" font-family="Helvetica Neue" font-size="9" transform="translate(30 206)">传统: 代码前置时间</text>
  <path fill="#788c5d" d="M250 206h162v88H250z" opacity=".1"/>
  <text x="81" y="28" fill="#788c5d" class="cell-val" text-anchor="middle" transform="translate(250 206)">&lt;1天</text>
  <text x="81" y="44" class="cell-sub" text-anchor="middle" transform="translate(250 206)">当天完成</text>
  <text x="81" y="64" fill="#788c5d" font-family="Courier New" font-size="11" font-weight="700" text-anchor="middle" transform="translate(250 206)">&lt;24h</text>
  <path fill="#e3dacc" d="M412 206h162v88H412z" opacity=".5"/>
  <text x="81" y="28" class="cell-val" text-anchor="middle" transform="translate(412 206)">1天~1周</text>
  <text x="81" y="44" class="cell-sub" text-anchor="middle" transform="translate(412 206)">周内交付</text>
  <text x="81" y="64" fill="#141413" font-family="Courier New" font-size="11" font-weight="700" text-anchor="middle" transform="translate(412 206)">1-7天</text>
  <path fill="#e3dacc" d="M574 206h162v88H574z" opacity=".3"/>
  <text x="81" y="28" class="cell-val" text-anchor="middle" transform="translate(574 206)">1周~1月</text>
  <text x="81" y="44" class="cell-sub" text-anchor="middle" transform="translate(574 206)">月级迭代</text>
  <text x="81" y="64" fill="#141413" font-family="Courier New" font-size="11" font-weight="700" text-anchor="middle" transform="translate(574 206)">7-30天</text>
  <path fill="#d97757" d="M736 206h162v88H736z" opacity=".1"/>
  <text x="81" y="28" fill="#d97757" class="cell-val" text-anchor="middle" transform="translate(736 206)">&gt;1月</text>
  <text x="81" y="44" class="cell-sub" text-anchor="middle" transform="translate(736 206)">超长周期</text>
  <text x="81" y="64" fill="#d97757" font-family="Courier New" font-size="11" font-weight="700" text-anchor="middle" transform="translate(736 206)">&gt;30天</text>
  <path fill="#fff" stroke="#d1cfc5" stroke-width=".5" d="M30 294h838v88H30z"/>
  <path fill="#141413" d="M30 294h220v88H30z" opacity=".04"/>
  <text x="14" y="24" fill="#141413" font-family="Helvetica Neue" font-size="12" font-weight="700" transform="translate(30 294)">意图恢复时间</text>
  <text x="14" y="38" fill="#87867f" font-family="Helvetica Neue" font-size="10" transform="translate(30 294)">Intent Recovery Time</text>
  <text x="14" y="56" fill="#87867f" font-family="Helvetica Neue" font-size="9" transform="translate(30 294)">意图偏离被发现</text>
  <text x="14" y="68" fill="#87867f" font-family="Helvetica Neue" font-size="9" transform="translate(30 294)">到恢复正常的时间</text>
  <text x="14" y="82" fill="#87867f" font-family="Helvetica Neue" font-size="9" transform="translate(30 294)">传统: 恢复服务时间</text>
  <path fill="#788c5d" d="M250 294h162v88H250z" opacity=".1"/>
  <text x="81" y="28" fill="#788c5d" class="cell-val" text-anchor="middle" transform="translate(250 294)">&lt;1小时</text>
  <text x="81" y="44" class="cell-sub" text-anchor="middle" transform="translate(250 294)">快速纠错</text>
  <text x="81" y="64" fill="#788c5d" font-family="Courier New" font-size="11" font-weight="700" text-anchor="middle" transform="translate(250 294)">&lt;60min</text>
  <path fill="#e3dacc" d="M412 294h162v88H412z" opacity=".5"/>
  <text x="81" y="28" class="cell-val" text-anchor="middle" transform="translate(412 294)">1小时~1天</text>
  <text x="81" y="44" class="cell-sub" text-anchor="middle" transform="translate(412 294)">日内恢复</text>
  <text x="81" y="64" fill="#141413" font-family="Courier New" font-size="11" font-weight="700" text-anchor="middle" transform="translate(412 294)">1h-24h</text>
  <path fill="#e3dacc" d="M574 294h162v88H574z" opacity=".3"/>
  <text x="81" y="28" class="cell-val" text-anchor="middle" transform="translate(574 294)">1天~1周</text>
  <text x="81" y="44" class="cell-sub" text-anchor="middle" transform="translate(574 294)">周内修复</text>
  <text x="81" y="64" fill="#141413" font-family="Courier New" font-size="11" font-weight="700" text-anchor="middle" transform="translate(574 294)">1-7天</text>
  <path fill="#d97757" d="M736 294h162v88H736z" opacity=".1"/>
  <text x="81" y="28" fill="#d97757" class="cell-val" text-anchor="middle" transform="translate(736 294)">&gt;1周</text>
  <text x="81" y="44" class="cell-sub" text-anchor="middle" transform="translate(736 294)">长期故障</text>
  <text x="81" y="64" fill="#d97757" font-family="Courier New" font-size="11" font-weight="700" text-anchor="middle" transform="translate(736 294)">&gt;7天</text>
  <path fill="#fff" stroke="#d1cfc5" stroke-width=".5" d="M30 382h838v88H30z"/>
  <path fill="#141413" d="M30 382h220v88H30z" opacity=".04"/>
  <text x="14" y="24" fill="#141413" font-family="Helvetica Neue" font-size="12" font-weight="700" transform="translate(30 382)">意图偏离率</text>
  <text x="14" y="38" fill="#87867f" font-family="Helvetica Neue" font-size="10" transform="translate(30 382)">Intent Deviation Rate</text>
  <text x="14" y="56" fill="#87867f" font-family="Helvetica Neue" font-size="9" transform="translate(30 382)">导致返工或修正的</text>
  <text x="14" y="68" fill="#87867f" font-family="Helvetica Neue" font-size="9" transform="translate(30 382)">意图变更占比</text>
  <text x="14" y="82" fill="#87867f" font-family="Helvetica Neue" font-size="9" transform="translate(30 382)">传统: 变更失败率</text>
  <path fill="#788c5d" d="M250 382h162v88H250z" opacity=".1"/>
  <text x="81" y="28" fill="#788c5d" class="cell-val" text-anchor="middle" transform="translate(250 382)">0-10%</text>
  <text x="81" y="44" class="cell-sub" text-anchor="middle" transform="translate(250 382)">几乎无偏离</text>
  <text x="81" y="64" fill="#788c5d" font-family="Courier New" font-size="11" font-weight="700" text-anchor="middle" transform="translate(250 382)">高质量</text>
  <path fill="#e3dacc" d="M412 382h162v88H412z" opacity=".5"/>
  <text x="81" y="28" class="cell-val" text-anchor="middle" transform="translate(412 382)">10-20%</text>
  <text x="81" y="44" class="cell-sub" text-anchor="middle" transform="translate(412 382)">低偏离</text>
  <text x="81" y="64" fill="#141413" font-family="Courier New" font-size="11" font-weight="700" text-anchor="middle" transform="translate(412 382)">需监控</text>
  <path fill="#e3dacc" d="M574 382h162v88H574z" opacity=".3"/>
  <text x="81" y="28" class="cell-val" text-anchor="middle" transform="translate(574 382)">20-30%</text>
  <text x="81" y="44" class="cell-sub" text-anchor="middle" transform="translate(574 382)">中等偏离</text>
  <text x="81" y="64" fill="#141413" font-family="Courier New" font-size="11" font-weight="700" text-anchor="middle" transform="translate(574 382)">需改进</text>
  <path fill="#d97757" d="M736 382h162v88H736z" opacity=".1"/>
  <text x="81" y="28" fill="#d97757" class="cell-val" text-anchor="middle" transform="translate(736 382)">&gt;30%</text>
  <text x="81" y="44" class="cell-sub" text-anchor="middle" transform="translate(736 382)">高偏离</text>
  <text x="81" y="64" fill="#d97757" font-family="Courier New" font-size="11" font-weight="700" text-anchor="middle" transform="translate(736 382)">风险</text>
  <rect width="838" height="40" x="30" y="488" fill="#e3dacc" opacity=".5" rx="10"/>
  <text x="50" y="512" fill="#141413" font-family="Helvetica Neue" font-size="13" font-weight="700">💡 关键洞察</text>
  <text x="180" y="512" fill="#87867f" font-family="Helvetica Neue" font-size="12">AI时代，度量的是&quot;意图流动&quot;的效率，而非&quot;代码流动&quot;。质量的新定义是&quot;意图保真度&quot;</text>
</svg>
