<svg xmlns="http://www.w3.org/2000/svg" font-family="ui-serif, Georgia, 'Times New Roman', serif" viewBox="0 0 700 260">
  <path fill="#faf9f5" d="M0 0h700v260H0z"/>
  <text x="350" y="24" fill="#141413" font-size="14" font-weight="500" letter-spacing="-.02em" text-anchor="middle">Codebase Intelligence 数据流管道</text>
  <text x="350" y="40" fill="#87867f" font-family="ui-monospace, monospace" font-size="10" text-anchor="middle">代码库 → 知识系统 · 2025/04/08</text>
  <rect width="100" height="80" x="20" y="60" fill="#fff" stroke="#d1cfc5" stroke-width="1.5" rx="6"/>
  <text x="70" y="80" fill="#141413" font-family="ui-monospace, monospace" font-size="11" font-weight="600" text-anchor="middle">Raw Code</text>
  <text x="70" y="95" fill="#87867f" font-size="9" text-anchor="middle">Git repos</text>
  <text x="70" y="107" fill="#87867f" font-size="9" text-anchor="middle">Issues</text>
  <text x="70" y="119" fill="#87867f" font-size="9" text-anchor="middle">Docs</text>
  <text x="70" y="131" fill="#87867f" font-size="9" text-anchor="middle">Runtime logs</text>
  <path stroke="#d97757" stroke-width="2" d="M120 100h18"/>
  <path fill="#d97757" d="m138 96 6 4-6 4z"/>
  <rect width="80" height="60" x="144" y="70" fill="#fff" stroke="#d97757" stroke-width="1.8" rx="6"/>
  <text x="184" y="90" fill="#d97757" font-family="ui-monospace, monospace" font-size="10" font-weight="600" text-anchor="middle">Code</text>
  <text x="184" y="104" fill="#d97757" font-family="ui-monospace, monospace" font-size="10" font-weight="600" text-anchor="middle">Ingestion</text>
  <text x="184" y="120" fill="#87867f" font-size="8.5" text-anchor="middle">采集层</text>
  <path stroke="#d1cfc5" stroke-width="2" d="M224 100h18"/>
  <path fill="#d1cfc5" d="m242 96 6 4-6 4z"/>
  <rect width="80" height="60" x="248" y="70" fill="#fff" stroke="#d1cfc5" stroke-width="1.5" rx="6"/>
  <text x="288" y="90" fill="#141413" font-family="ui-monospace, monospace" font-size="10" font-weight="600" text-anchor="middle">AST /</text>
  <text x="288" y="104" fill="#141413" font-family="ui-monospace, monospace" font-size="10" font-weight="600" text-anchor="middle">Parsing</text>
  <text x="288" y="120" fill="#87867f" font-size="8.5" text-anchor="middle">解析层</text>
  <path stroke="#d1cfc5" stroke-width="2" d="M328 100h18"/>
  <path fill="#d1cfc5" d="m346 96 6 4-6 4z"/>
  <rect width="90" height="60" x="352" y="70" fill="#fff" stroke="#d1cfc5" stroke-width="1.5" rx="6"/>
  <text x="397" y="90" fill="#141413" font-family="ui-monospace, monospace" font-size="10" font-weight="600" text-anchor="middle">Semantic</text>
  <text x="397" y="104" fill="#141413" font-family="ui-monospace, monospace" font-size="10" font-weight="600" text-anchor="middle">Embedding</text>
  <text x="397" y="120" fill="#87867f" font-size="8.5" text-anchor="middle">语义层</text>
  <path stroke="#d1cfc5" stroke-width="2" d="M442 100h18"/>
  <path fill="#d1cfc5" d="m460 96 6 4-6 4z"/>
  <rect width="90" height="60" x="466" y="70" fill="#fff" stroke="#788c5d" stroke-width="1.8" rx="6"/>
  <text x="511" y="90" fill="#788c5d" font-family="ui-monospace, monospace" font-size="10" font-weight="600" text-anchor="middle">Knowledge</text>
  <text x="511" y="104" fill="#788c5d" font-family="ui-monospace, monospace" font-size="10" font-weight="600" text-anchor="middle">Graph</text>
  <text x="511" y="120" fill="#87867f" font-size="8.5" text-anchor="middle">知识图谱层</text>
  <path fill="none" stroke="#d97757" stroke-dasharray="4,3" stroke-width="2" d="M556 100q10 0 10-40 0-8 14-8"/>
  <path fill="#d97757" d="m580 52-6-6h12z"/>
  <text x="568" y="76" fill="#d97757" font-family="ui-monospace, monospace" font-size="8.5" text-anchor="middle">推理</text>
  <rect width="100" height="50" x="580" y="60" fill="#d97757" stroke="#d97757" stroke-width="1.8" rx="6"/>
  <text x="630" y="82" fill="#fff" font-family="ui-monospace, monospace" font-size="10" font-weight="600" text-anchor="middle">Reasoning</text>
  <text x="630" y="97" fill="#fff" font-family="ui-monospace, monospace" font-size="10" font-weight="600" text-anchor="middle">Engine</text>
  <path stroke="#d97757" stroke-width="2" d="M630 110v30"/>
  <path fill="#d97757" d="m626 140 4 6 4-6z"/>
  <rect width="140" height="50" x="560" y="148" fill="#fff" stroke="#d97757" stroke-width="1.8" rx="6"/>
  <text x="630" y="168" fill="#d97757" font-family="ui-monospace, monospace" font-size="10" font-weight="600" text-anchor="middle">Developer Q&amp;A</text>
  <text x="630" y="184" fill="#87867f" font-size="9" text-anchor="middle">智能问答系统</text>
  <path stroke="#d1cfc5" stroke-width="1.5" d="M511 130v18m0 0h49"/>
  <path fill="#d1cfc5" d="m556 144 4 4-4 4z"/>
  <text x="397" y="145" fill="#87867f" font-family="ui-monospace, monospace" font-size="8.5" text-anchor="middle">Vector Index</text>
  <rect width="130" height="36" x="20" y="205" fill="#f0eee6" stroke="#d1cfc5" rx="4"/>
  <text x="85" y="222" fill="#141413" font-size="9.5" text-anchor="middle">Layer 1</text>
  <text x="85" y="234" fill="#87867f" font-size="9" text-anchor="middle">Code Ingestion</text>
  <rect width="130" height="36" x="164" y="205" fill="#f0eee6" stroke="#d1cfc5" rx="4"/>
  <text x="229" y="222" fill="#141413" font-size="9.5" text-anchor="middle">Layer 2</text>
  <text x="229" y="234" fill="#87867f" font-size="9" text-anchor="middle">Code Parsing</text>
  <rect width="130" height="36" x="308" y="205" fill="#f0eee6" stroke="#d1cfc5" rx="4"/>
  <text x="373" y="222" fill="#141413" font-size="9.5" text-anchor="middle">Layer 3</text>
  <text x="373" y="234" fill="#87867f" font-size="9" text-anchor="middle">Semantic Index</text>
  <rect width="130" height="36" x="452" y="205" fill="#f0eee6" stroke="#788c5d" rx="4"/>
  <text x="517" y="222" fill="#788c5d" font-size="9.5" text-anchor="middle">Layer 4</text>
  <text x="517" y="234" fill="#87867f" font-size="9" text-anchor="middle">Knowledge Graph</text>
  <rect width="84" height="36" x="596" y="205" fill="#d97757" stroke="#d97757" rx="4"/>
  <text x="638" y="222" fill="#fff" font-size="9.5" text-anchor="middle">Layer 5</text>
  <text x="638" y="234" fill="#f0eee6" font-size="9" text-anchor="middle">Reasoning</text>
  <title>Codebase Intelligence 数据流管道</title>
  <desc>
    从原始代码到知识图谱的五层数据流：Raw Code → Code Ingestion → AST/Parsing → Semantic Embedding → Knowledge Graph → Reasoning Engine → Developer Q&amp;A
  </desc>
</svg>
