<svg xmlns="http://www.w3.org/2000/svg" font-family="ui-serif, Georgia, serif" viewBox="0 0 680 300">
  <title>混合RAG融合策略流程</title>
  <desc>
    三种融合策略：向量为主图谱验证、动态权重策略、图谱为主向量补充
  </desc>
  <path fill="#faf9f5" d="M0 0h680v300H0z"/>
  <text x="340" y="26" fill="#141413" font-size="14" font-weight="500" letter-spacing="-.02em" text-anchor="middle">融合策略的三条路径</text>
  <text x="340" y="42" fill="#87867f" font-family="ui-monospace, monospace" font-size="10" text-anchor="middle">融合策略 · postcodeengineering.com · 2025/01/15</text>
  <text x="48" y="68" fill="#141413" font-size="11" font-weight="600">路径一：向量为主，图谱验证</text>
  <rect width="140" height="44" x="48" y="80" fill="#2563eb" rx="6"/>
  <text x="118" y="98" fill="#fff" font-family="ui-monospace, monospace" font-size="11" font-weight="500" text-anchor="middle">向量召回 Top-5</text>
  <text x="118" y="113" fill="#bfdbfe" font-family="ui-monospace, monospace" font-size="9" text-anchor="middle">Chroma / FAISS</text>
  <path stroke="#d97757" stroke-width="2" d="M188 102h26"/>
  <path fill="#d97757" d="m214 98-6 8h12z"/>
  <rect width="120" height="44" x="218" y="80" fill="#d97757" rx="6"/>
  <text x="278" y="98" fill="#fff" font-family="ui-monospace, monospace" font-size="11" font-weight="500" text-anchor="middle">图谱验证</text>
  <text x="278" y="113" fill="#fecaca" font-family="ui-monospace, monospace" font-size="9" text-anchor="middle">三元组校验</text>
  <path stroke="#d97757" stroke-width="2" d="M338 102h26"/>
  <path fill="#d97757" d="m364 98-6 8h12z"/>
  <rect width="140" height="44" x="368" y="80" fill="#dc2626" rx="6"/>
  <text x="438" y="98" fill="#fff" font-family="ui-monospace, monospace" font-size="11" font-weight="500" text-anchor="middle">过滤矛盾候选</text>
  <text x="438" y="113" fill="#fee2e2" font-family="ui-monospace, monospace" font-size="9" text-anchor="middle">Entity Link</text>
  <rect width="584" height="60" x="48" y="142" fill="#fff" stroke="#d1cfc5" stroke-width="1.5" rx="6"/>
  <text x="64" y="162" fill="#141413" font-size="11" font-weight="600">动态权重策略</text>
  <rect width="160" height="22" x="64" y="172" fill="#f0eee6" stroke="#d1cfc5" rx="4"/>
  <text x="80" y="187" fill="#141413" font-family="ui-monospace, monospace" font-size="9">&quot;What is X?&quot;</text>
  <rect width="72" height="22" x="234" y="172" fill="#2563eb" rx="4"/>
  <text x="270" y="187" fill="#fff" font-family="ui-monospace, monospace" font-size="9" text-anchor="middle">向量 70%</text>
  <rect width="72" height="22" x="314" y="172" fill="#059669" rx="4"/>
  <text x="350" y="187" fill="#fff" font-family="ui-monospace, monospace" font-size="9" text-anchor="middle">图谱 30%</text>
  <rect width="160" height="22" x="64" y="200" fill="#f0eee6" stroke="#d1cfc5" rx="4"/>
  <text x="80" y="215" fill="#141413" font-family="ui-monospace, monospace" font-size="9">&quot;X→Y relation?&quot;</text>
  <rect width="72" height="22" x="234" y="200" fill="#2563eb" rx="4"/>
  <text x="270" y="215" fill="#fff" font-family="ui-monospace, monospace" font-size="9" text-anchor="middle">向量 30%</text>
  <rect width="72" height="22" x="314" y="200" fill="#059669" rx="4"/>
  <text x="350" y="215" fill="#fff" font-family="ui-monospace, monospace" font-size="9" text-anchor="middle">图谱 70%</text>
  <rect width="160" height="22" x="420" y="172" fill="#f0eee6" stroke="#d1cfc5" rx="4"/>
  <text x="436" y="187" fill="#141413" font-family="ui-monospace, monospace" font-size="9">&quot;Latest X?&quot;</text>
  <rect width="36" height="22" x="590" y="172" fill="#2563eb" rx="4"/>
  <text x="608" y="187" fill="#fff" font-family="ui-monospace, monospace" font-size="9" text-anchor="middle">90%</text>
  <rect width="36" height="22" x="590" y="200" fill="#059669" rx="4"/>
  <text x="608" y="215" fill="#fff" font-family="ui-monospace, monospace" font-size="9" text-anchor="middle">10%</text>
  <text x="48" y="246" fill="#141413" font-size="11" font-weight="600">路径二：图谱为主，向量补充</text>
  <rect width="140" height="36" x="48" y="258" fill="#059669" rx="6"/>
  <text x="118" y="280" fill="#fff" font-family="ui-monospace, monospace" font-size="11" font-weight="500" text-anchor="middle">图谱精确查询</text>
  <path stroke="#d97757" stroke-width="2" d="M188 276h26"/>
  <path fill="#d97757" d="m214 272-6 8h12z"/>
  <rect width="140" height="36" x="218" y="258" fill="#2563eb" rx="6"/>
  <text x="288" y="280" fill="#fff" font-family="ui-monospace, monospace" font-size="11" font-weight="500" text-anchor="middle">向量补充上下文</text>
  <text x="340" y="296" fill="#87867f" font-family="ui-monospace, monospace" font-size="9" text-anchor="middle">融合策略 · postcodeengineering.com · 2025/01/15</text>
</svg>
