<svg xmlns="http://www.w3.org/2000/svg" font-family="system-ui,sans-serif" viewBox="0 0 720 380">
  <path fill="#faf9f5" d="M0 0h720v380H0z"/>
  <text x="360" y="34" fill="#141413" font-size="17" font-weight="700" text-anchor="middle">CCC模型：PRD结构化的三支柱</text>
  <text x="360" y="54" fill="#87867f" font-size="12" text-anchor="middle">Context · Constraints · Criteria — 从叙述需求到定义规格</text>
  <circle cx="360" cy="200" r="50" fill="#141413"/>
  <text x="360" y="193" fill="#faf9f5" font-size="11" font-weight="700" text-anchor="middle">结构化</text>
  <text x="360" y="207" fill="#faf9f5" font-size="11" font-weight="700" text-anchor="middle">PRD</text>
  <text x="360" y="220" fill="#d1cfc5" font-size="9" text-anchor="middle">可执行语义规格</text>
  <rect width="190" height="180" x="30" y="100" fill="#e3dacc" stroke="#d97757" stroke-width="2.5" rx="10"/>
  <rect width="190" height="34" x="30" y="100" fill="#d97757" rx="10"/>
  <path fill="#d97757" d="M30 120h190v14H30z"/>
  <text x="125" y="122" fill="#faf9f5" font-size="13" font-weight="700" text-anchor="middle">Context</text>
  <text x="125" y="122" fill="#faf9f5" font-size="13" font-weight="700" text-anchor="middle">上下文</text>
  <text x="42" y="155" fill="#141413" font-size="10" font-weight="600">回答：</text>
  <text x="42" y="168" fill="#87867f" font-size="10">我们在什么环境下</text>
  <text x="42" y="181" fill="#87867f" font-size="10">解决这个问题？</text>
  <path stroke="#d1cfc5" d="M42 193h166"/>
  <text x="42" y="208" fill="#141413" font-size="9">• 用户角色与权限</text>
  <text x="42" y="222" fill="#141413" font-size="9">• 业务领域与约束</text>
  <text x="42" y="236" fill="#141413" font-size="9">• 依赖服务版本</text>
  <text x="42" y="250" fill="#141413" font-size="9">• 峰值流量假设</text>
  <text x="42" y="264" fill="#141413" font-size="9">• 法规合规要求</text>
  <rect width="190" height="180" x="265" y="100" fill="#e3dacc" stroke="#788c5d" stroke-width="2.5" rx="10"/>
  <rect width="190" height="34" x="265" y="100" fill="#788c5d" rx="10"/>
  <path fill="#788c5d" d="M265 120h190v14H265z"/>
  <text x="360" y="122" fill="#faf9f5" font-size="13" font-weight="700" text-anchor="middle">Constraints</text>
  <text x="360" y="122" fill="#faf9f5" font-size="13" font-weight="700" text-anchor="middle">约束条件</text>
  <text x="277" y="155" fill="#141413" font-size="10" font-weight="600">回答：</text>
  <text x="277" y="168" fill="#87867f" font-size="10">什么能做，什么不能做？</text>
  <path stroke="#d1cfc5" d="M277 181h166"/>
  <text x="277" y="196" fill="#141413" font-size="9">• 性能约束（延迟、QPS）</text>
  <text x="277" y="210" fill="#141413" font-size="9">• 安全约束（加密、审计）</text>
  <text x="277" y="224" fill="#141413" font-size="9">• 兼容性约束</text>
  <text x="277" y="238" fill="#141413" font-size="9">• 数据隔离要求</text>
  <text x="277" y="252" fill="#141413" font-size="9">• 合规性要求</text>
  <text x="277" y="266" fill="#141413" font-size="9">• 成本限制</text>
  <rect width="190" height="180" x="500" y="100" fill="#e3dacc" stroke="#d97757" stroke-width="2.5" rx="10"/>
  <rect width="190" height="34" x="500" y="100" fill="#d97757" rx="10"/>
  <path fill="#d97757" d="M500 120h190v14H500z"/>
  <text x="595" y="122" fill="#faf9f5" font-size="13" font-weight="700" text-anchor="middle">Criteria</text>
  <text x="595" y="122" fill="#faf9f5" font-size="13" font-weight="700" text-anchor="middle">验收标准</text>
  <text x="512" y="155" fill="#141413" font-size="10" font-weight="600">回答：</text>
  <text x="512" y="168" fill="#87867f" font-size="10">如何判断&quot;完成了&quot;？</text>
  <path stroke="#d1cfc5" d="M512 181h166"/>
  <text x="512" y="196" fill="#141413" font-size="9">• Given-When-Then 场景</text>
  <text x="512" y="210" fill="#141413" font-size="9">• 可自动化测试的断言</text>
  <text x="512" y="224" fill="#141413" font-size="9">• 性能基准测试</text>
  <text x="512" y="238" fill="#141413" font-size="9">• 异常场景覆盖</text>
  <text x="512" y="252" fill="#141413" font-size="9">• 可验证的度量指标</text>
  <path fill="none" stroke="#d97757" stroke-width="2" marker-end="url(#arr)" d="M220 190h88"/>
  <path fill="none" stroke="#788c5d" stroke-width="2" marker-end="url(#arr)" d="m412 190 68 10"/>
  <path fill="none" stroke="#d97757" stroke-width="2" marker-end="url(#arr)" marker-start="url(#arr2)" d="m690 190-278 10"/>
  <path fill="none" stroke="#141413" stroke-width="2.5" marker-end="url(#arr)" d="M360 254v36"/>
  <rect width="220" height="60" x="250" y="300" fill="#141413" rx="8"/>
  <text x="360" y="324" fill="#faf9f5" font-size="12" font-weight="700" text-anchor="middle">可执行的语义规格说明</text>
  <text x="360" y="342" fill="#d1cfc5" font-size="10" text-anchor="middle">机器可读 · 语义明确 · 可验证 · 可追踪</text>
  <text x="125" y="300" fill="#d97757" font-size="10" font-weight="600" text-anchor="middle">环境定义</text>
  <text x="360" y="300" fill="#141413" font-size="10" font-weight="600" text-anchor="middle">核心转换</text>
  <text x="595" y="300" fill="#d97757" font-size="10" font-weight="600" text-anchor="middle">完成定义</text>
</svg>
