<svg xmlns="http://www.w3.org/2000/svg" font-family="'Helvetica Neue', Arial, sans-serif" viewBox="0 0 800 540"><path d="M0 0h800v540H0z" style="fill:#faf9f5"/><text x="40" y="36" style="fill:#141413;font-size:13px;font-weight:600">自解释系统四层架构</text><text x="40" y="52" style="fill:#87867f;font-size:11px">Four-Layer Self-Explanatory System Architecture for API-First Era</text><rect width="380" height="100" x="40" y="80" fill="#d97757" rx="12"/><text x="60" y="108" fill="#faf9f5" font-size="14" font-weight="700">第一层 · 契约优先 Contract-First</text><text x="60" y="126" fill="#faf9f5" font-size="11" opacity=".8">API行为由契约定义，契约即代码</text><rect width="100" height="26" x="60" y="138" fill="#faf9f5" fill-opacity=".2" rx="5"/><text x="110" y="156" fill="#faf9f5" font-size="11" font-weight="600" text-anchor="middle">OpenAPI/Swagger</text><rect width="80" height="26" x="170" y="138" fill="#faf9f5" fill-opacity=".2" rx="5"/><text x="210" y="156" fill="#faf9f5" font-size="11" font-weight="600" text-anchor="middle">GraphQL</text><rect width="70" height="26" x="260" y="138" fill="#faf9f5" fill-opacity=".2" rx="5"/><text x="295" y="156" fill="#faf9f5" font-size="11" font-weight="600" text-anchor="middle">gRPC</text><rect width="60" height="26" x="340" y="138" fill="#faf9f5" fill-opacity=".2" rx="5"/><text x="370" y="156" fill="#faf9f5" font-size="11" font-weight="600" text-anchor="middle">Smithy</text><path stroke="#d97757" stroke-dasharray="5,3" stroke-width="2" d="M230 180v20"/><path fill="#d97757" d="m230 200-4-10h8z"/><rect width="380" height="90" x="40" y="200" fill="#141413" stroke="#d1cfc5" rx="12"/><text x="60" y="228" fill="#faf9f5" font-size="14" font-weight="700">第二层 · 语义化 API Semantic API</text><text x="60" y="246" fill="#87867f" font-size="11">API不仅是端点，而是有语义的、可推理的</text><rect width="340" height="24" x="60" y="256" fill="#2a2a2a" rx="5"/><text x="230" y="272" fill="#e3dacc" font-size="11" text-anchor="middle">JSON-LD + Schema.org → AI理解数据结构语义</text><path stroke="#87867f" stroke-dasharray="5,3" stroke-width="2" d="M230 290v20"/><path fill="#87867f" d="m230 310-4-10h8z"/><rect width="380" height="90" x="40" y="310" fill="#141413" stroke="#d1cfc5" rx="12"/><text x="60" y="338" fill="#faf9f5" font-size="14" font-weight="700">第三层 · 意图发现 Intent Discovery</text><text x="60" y="356" fill="#87867f" font-size="11">系统理解开发者意图，主动提供所需信息</text><rect width="340" height="24" x="60" y="366" fill="#2a2a2a" rx="5"/><text x="230" y="382" fill="#e3dacc" font-size="11" text-anchor="middle">自然语言需求 → AI发现API → 生成代码示例</text><path stroke="#87867f" stroke-dasharray="5,3" stroke-width="2" d="M230 400v20"/><path fill="#87867f" d="m230 420-4-10h8z"/><rect width="380" height="90" x="40" y="420" fill="#788c5d" rx="12"/><text x="60" y="448" fill="#faf9f5" font-size="14" font-weight="700">第四层 · 自动集成 Auto-Integration</text><text x="60" y="466" fill="#faf9f5" font-size="11" opacity=".8">AI读取契约 → 理解需求 → 自动生成集成代码</text><rect width="340" height="24" x="60" y="476" fill="#faf9f5" fill-opacity=".2" rx="5"/><text x="230" y="492" fill="#faf9f5" font-size="11" text-anchor="middle">处理错误和边界条件 | GitHub Copilot 已实现</text><rect width="300" height="200" x="460" y="80" fill="#141413" rx="12"/><text x="480" y="110" fill="#d97757" font-size="13" font-weight="700">传统文档的问题</text><path stroke="#d97757" stroke-width="1.5" d="M480 122h260"/><text x="480" y="146" fill="#87867f" font-size="11">73% 开发者认为文档经常过时</text><text x="480" y="166" fill="#87867f" font-size="11">文档滞后代码 2-6 个月</text><text x="480" y="186" fill="#87867f" font-size="11">开发者首选 AI助手 而非文档</text><text x="480" y="206" fill="#87867f" font-size="11">Stripe API 文档错误存在 3 年</text><path stroke="#2a2a2a" d="M480 222h260"/><text x="480" y="244" fill="#e3dacc" font-size="11" font-weight="600">文档团队很努力</text><text x="480" y="262" fill="#e3dacc" font-size="11" font-weight="600">但&quot;文档&quot;这个形式本身</text><text x="480" y="280" fill="#d97757" font-size="11" font-weight="600">已不适合AI时代</text><rect width="300" height="200" x="460" y="300" fill="#141413" rx="12"/><text x="480" y="330" fill="#faf9f5" font-size="13" font-weight="700">信息载体演化</text><path stroke="#d97757" stroke-width="1.5" d="M480 342h260"/><path stroke="#d1cfc5" stroke-width="1.5" d="M490 390h250"/><circle cx="510" cy="390" r="6" fill="#d97757"/><text x="510" y="378" fill="#87867f" font-size="10" text-anchor="middle">泥板</text><text x="510" y="406" fill="#87867f" font-size="10" text-anchor="middle">公元前</text><circle cx="580" cy="390" r="6" fill="#87867f"/><text x="580" y="378" fill="#87867f" font-size="10" text-anchor="middle">手抄本</text><text x="580" y="406" fill="#87867f" font-size="10" text-anchor="middle">中世纪</text><circle cx="640" cy="390" r="6" fill="#87867f"/><text x="640" y="378" fill="#87867f" font-size="10" text-anchor="middle">书籍</text><text x="640" y="406" fill="#87867f" font-size="10" text-anchor="middle">印刷时代</text><circle cx="700" cy="390" r="6" fill="#788c5d"/><text x="700" y="378" fill="#788c5d" font-size="10" text-anchor="middle">电子文档</text><text x="700" y="406" fill="#788c5d" font-size="10" text-anchor="middle">互联网</text><circle cx="740" cy="390" r="6" fill="#d97757" stroke="#faf9f5" stroke-width="2"/><text x="740" y="430" fill="#d97757" font-size="10" text-anchor="middle">自解释代码</text><text x="740" y="446" fill="#87867f" font-size="10" text-anchor="middle">AI时代</text><text x="480" y="470" fill="#87867f" font-size="10">代码本身成为最好的知识载体</text></svg>