<svg xmlns="http://www.w3.org/2000/svg" font-family="ui-serif, Georgia, serif" viewBox="0 0 560 260">
  <path fill="#faf9f5" d="M0 0h560v260H0z"/>
  <text x="280" y="20" fill="#141413" font-size="13" font-weight="500" letter-spacing="-.02em" text-anchor="middle">人类记忆三层架构与 AI 对应物</text>
  <text x="280" y="36" fill="#87867f" font-family="ui-monospace, monospace" font-size="9.5" text-anchor="middle">postcodeengineering.com · 2025/01/17</text>
  <rect width="240" height="72" x="40" y="50" fill="#fff" stroke="#d97757" stroke-width="1.8" rx="6"/>
  <rect width="240" height="20" x="40" y="50" fill="#fef3c7" stroke="#d97757" rx="6"/>
  <text x="160" y="64" fill="#d97757" font-family="ui-monospace, monospace" font-size="11" font-weight="600" text-anchor="middle">L1 · 工作记忆 Working Memory</text>
  <text x="60" y="84" fill="#141413" font-size="9.5">容量：7±2 信息块 · 持续：20-30秒</text>
  <text x="60" y="98" fill="#141413" font-size="9.5">速度：毫秒级 · 即时可用</text>
  <text x="60" y="112" fill="#87867f" font-size="9">你现在脑子里想的 → 拨完电话就消失</text>
  <rect width="18" height="18" x="272" y="72" fill="#d97757" rx="9"/>
  <text x="281" y="85" fill="#fff" font-family="ui-monospace, monospace" font-size="9" text-anchor="middle">L1</text>
  <text x="380" y="60" fill="#87867f" font-family="ui-monospace, monospace" font-size="9">AI 对应物</text>
  <path stroke="#d1cfc5" stroke-dasharray="3,2" d="M280 86h60"/>
  <rect width="180" height="72" x="340" y="50" fill="#fff" stroke="#d97757" stroke-dasharray="4,3" stroke-width="1.5" rx="6"/>
  <rect width="180" height="20" x="340" y="50" fill="#fef3c7" stroke="#d97757" rx="6"/>
  <text x="430" y="64" fill="#d97757" font-family="ui-monospace, monospace" font-size="10" font-weight="600" text-anchor="middle">上下文窗口 Context Window</text>
  <text x="360" y="84" fill="#141413" font-size="9.5">GPT-4: 128K tokens</text>
  <text x="360" y="98" fill="#141413" font-size="9.5">Claude: 200K tokens</text>
  <text x="360" y="112" fill="#dc2626" font-size="9">每次调用都在付费</text>
  <path stroke="#d1cfc5" stroke-width="1.5" d="M300 86h40"/>
  <path fill="#d1cfc5" d="m336 82 4 4-4 4z"/>
  <path stroke="#d1cfc5" stroke-width="1.5" d="M160 122v10"/>
  <path fill="#d1cfc5" d="m156 132 4 8 4-8z"/>
  <rect width="240" height="56" x="40" y="140" fill="#fff" stroke="#2563eb" stroke-width="1.5" rx="6"/>
  <rect width="240" height="18" x="40" y="140" fill="#dbeafe" stroke="#2563eb" rx="6"/>
  <text x="160" y="154" fill="#2563eb" font-family="ui-monospace, monospace" font-size="11" font-weight="600" text-anchor="middle">L2 · 情节记忆 Episodic Memory</text>
  <text x="60" y="172" fill="#141413" font-size="9.5">带时间戳、情境、情感色彩的分布式存储</text>
  <text x="60" y="186" fill="#87867f" font-size="9">「上周三晚上我在干嘛？」→ 个人时光机</text>
  <rect width="18" height="14" x="272" y="156" fill="#2563eb" rx="9"/>
  <text x="281" y="167" fill="#fff" font-family="ui-monospace, monospace" font-size="8" text-anchor="middle">L2</text>
  <rect width="180" height="56" x="340" y="140" fill="#fff" stroke="#2563eb" stroke-dasharray="4,3" stroke-width="1.5" rx="6"/>
  <rect width="180" height="18" x="340" y="140" fill="#dbeafe" stroke="#2563eb" rx="6"/>
  <text x="430" y="154" fill="#2563eb" font-family="ui-monospace, monospace" font-size="10" font-weight="600" text-anchor="middle">向量数据库 Vector DB</text>
  <text x="360" y="172" fill="#141413" font-size="9.5">语义相似度检索</text>
  <text x="360" y="186" fill="#dc2626" font-size="9">致命问题：不知道「上周三」与「上周四」的区别</text>
  <path stroke="#d1cfc5" stroke-width="1.5" d="M300 168h40"/>
  <path fill="#d1cfc5" d="m336 164 4 4-4 4z"/>
  <path stroke="#d1cfc5" stroke-width="1.5" d="M160 196v10"/>
  <path fill="#d1cfc5" d="m156 206 4 8 4-8z"/>
  <rect width="240" height="40" x="40" y="214" fill="#fff" stroke="#059669" stroke-width="1.8" rx="6"/>
  <rect width="240" height="18" x="40" y="214" fill="#d1fae5" stroke="#059669" rx="6"/>
  <text x="160" y="228" fill="#059669" font-family="ui-monospace, monospace" font-size="11" font-weight="600" text-anchor="middle">L3 · 语义记忆 Semantic Memory</text>
  <text x="60" y="244" fill="#141413" font-size="9.5">去情境化 · 结构化 · 概念网络</text>
  <text x="200" y="244" fill="#87867f" font-size="9">「知道」而非「记得」</text>
  <rect width="18" height="12" x="272" y="222" fill="#059669" rx="9"/>
  <text x="281" y="231" fill="#fff" font-family="ui-monospace, monospace" font-size="8" text-anchor="middle">L3</text>
  <rect width="180" height="40" x="340" y="214" fill="#fff" stroke="#059669" stroke-dasharray="4,3" stroke-width="1.5" rx="6"/>
  <rect width="180" height="18" x="340" y="214" fill="#d1fae5" stroke="#059669" rx="6"/>
  <text x="430" y="228" fill="#059669" font-family="ui-monospace, monospace" font-size="10" font-weight="600" text-anchor="middle">知识图谱 Knowledge Graph</text>
  <text x="360" y="244" fill="#141413" font-size="9.5">火锅 → 川菜 → 中国菜 → 烹饪 → 食物</text>
  <path stroke="#d1cfc5" stroke-width="1.5" d="M300 234h40"/>
  <path fill="#d1cfc5" d="m336 230 4 4-4 4z"/>
  <text x="280" y="258" fill="#87867f" font-size="9" font-style="italic" text-anchor="middle">容量↑ 速度↓ 成本↑ ←→ 三层各司其职，构成完整记忆系统</text>
</svg>
