<svg xmlns="http://www.w3.org/2000/svg" font-family="system-ui,sans-serif" viewBox="0 0 800 450">
  <defs>
    <marker id="arrow" markerHeight="7" markerWidth="10" orient="auto" refX="9" refY="3.5">
      <path fill="#141413" d="m0 0 10 3.5L0 7z"/>
    </marker>
    <marker id="arrowClay" markerHeight="7" markerWidth="10" orient="auto" refX="9" refY="3.5">
      <path fill="#d97757" d="m0 0 10 3.5L0 7z"/>
    </marker>
  </defs>
  <path fill="#faf9f5" d="M0 0h800v450H0z"/>
  <text x="400" y="32" fill="#141413" font-size="16" font-weight="700" letter-spacing="1" text-anchor="middle">闭环验证系统</text>
  <text x="400" y="50" fill="#87867f" font-size="11" text-anchor="middle">双向约束：规格生成代码，代码反验证规格</text>
  <g transform="translate(400 230)">
    <circle r="130" fill="none" stroke="#d1cfc5" stroke-dasharray="6 4" stroke-width="2"/>
    <circle r="90" fill="none" stroke="#d1cfc5"/>
    <path fill="none" stroke="#d97757" stroke-width="2.5" marker-end="url(#arrowClay)" d="M-128 20a130 130 0 0 1 78-140"/>
    <path fill="none" stroke="#141413" stroke-width="2.5" marker-end="url(#arrow)" d="M128-20a130 130 0 0 1-78 140"/>
    <rect width="140" height="38" x="-70" y="-155" fill="#d97757" rx="8"/>
    <text y="-132" fill="#faf9f5" font-size="13" font-weight="600" text-anchor="middle">自然语言需求</text>
    <rect width="160" height="44" x="-80" y="-52" fill="#141413" rx="10"/>
    <text y="-36" fill="#faf9f5" font-size="13" font-weight="700" text-anchor="middle">SpecAI</text>
    <text y="-20" fill="#d1cfc5" font-size="11" text-anchor="middle">LLM 转换引擎</text>
    <rect width="88" height="50" x="-180" y="-25" fill="#e3dacc" rx="8"/>
    <text x="-136" y="-4" fill="#141413" font-size="12" font-weight="600" text-anchor="middle">形式化规格</text>
    <text x="-136" y="13" fill="#87867f" font-size="10" text-anchor="middle">TLA+/Alloy</text>
    <rect width="88" height="50" x="92" y="-25" fill="#788c5d" rx="8"/>
    <text x="136" y="-4" fill="#faf9f5" font-size="12" font-weight="600" text-anchor="middle">可执行代码</text>
    <text x="136" y="13" fill="#e3dacc" font-size="10" text-anchor="middle">Python/Go</text>
    <rect width="76" height="36" x="-170" y="95" fill="#d1cfc5" rx="6"/>
    <text x="-132" y="117" fill="#141413" font-size="11" font-weight="600" text-anchor="middle">代码生成器</text>
    <rect width="76" height="36" x="94" y="95" fill="#d1cfc5" rx="6"/>
    <text x="132" y="117" fill="#141413" font-size="11" font-weight="600" text-anchor="middle">模型检查器</text>
    <rect width="120" height="36" x="-60" y="158" fill="#d97757" rx="8"/>
    <text y="180" fill="#faf9f5" font-size="12" font-weight="600" text-anchor="middle">运行时监控</text>
    <path stroke="#87867f" stroke-width="1.5" marker-end="url(#arrow)" d="M-40-8h-42"/>
    <path stroke="#87867f" stroke-width="1.5" marker-end="url(#arrow)" d="M40-8h42"/>
    <path stroke="#87867f" stroke-width="1.5" marker-end="url(#arrow)" d="M-132 25v66"/>
    <path stroke="#87867f" stroke-width="1.5" marker-end="url(#arrow)" d="M132 25v66"/>
    <path stroke="#87867f" stroke-width="1.5" marker-end="url(#arrow)" d="m-88 131 58 27"/>
    <path stroke="#87867f" stroke-width="1.5" marker-end="url(#arrow)" d="m88 131-58 27"/>
    <path stroke="#d97757" stroke-width="1.5" marker-end="url(#arrowClay)" d="M0 131v24"/>
    <text y="208" fill="#d97757" font-size="10" font-weight="600" text-anchor="middle">偏差报告 → 反馈规格</text>
  </g>
  <rect width="760" height="40" x="20" y="395" fill="#e3dacc" opacity=".6" rx="6"/>
  <circle cx="50" cy="415" r="6" fill="#d97757"/>
  <text x="64" y="419" fill="#141413" font-size="11">规格 → 代码</text>
  <circle cx="180" cy="415" r="6" fill="#141413"/>
  <text x="194" y="419" fill="#141413" font-size="11">代码验证规格</text>
  <circle cx="330" cy="415" r="6" fill="#788c5d"/>
  <text x="344" y="419" fill="#141413" font-size="11">运行时检测</text>
  <circle cx="490" cy="415" r="6" fill="#d1cfc5"/>
  <text x="504" y="419" fill="#141413" font-size="11">双向约束闭环</text>
</svg>
