<svg xmlns="http://www.w3.org/2000/svg" font-family="ui-serif, Georgia, serif" viewBox="0 0 680 360"><path fill="#faf9f5" d="M0 0h680v360H0z"/><text x="340" y="26" fill="#141413" font-size="14" font-weight="500" text-anchor="middle">用户置信度指示器</text><text x="340" y="42" fill="#87867f" font-family="ui-monospace, monospace" font-size="10" text-anchor="middle">归因可视化 · 分层展示</text><rect width="420" height="240" x="48" y="60" fill="#fff" stroke="#d1cfc5" stroke-width="1.8" rx="10"/><rect width="420" height="36" x="48" y="60" fill="#f0eee6" rx="10"/><path fill="#f0eee6" d="M48 82h420v14H48z"/><text x="68" y="84" fill="#141413" font-family="ui-monospace, monospace" font-size="12" font-weight="600">记忆条目</text><text x="68" y="118" fill="#141413" font-size="12">&quot;用户喜欢 Rails 的约定优于配置，推荐 FastAPI&quot;</text><rect width="76" height="22" x="68" y="134" fill="#788c5d" rx="11"/><text x="106" y="149" fill="#fff" font-family="ui-monospace, monospace" font-size="9" text-anchor="middle">来源 0.82</text><rect width="76" height="22" x="152" y="134" fill="#d97757" rx="11"/><text x="190" y="149" fill="#fff" font-family="ui-monospace, monospace" font-size="9" text-anchor="middle">时间 0.71</text><rect width="76" height="22" x="236" y="134" fill="#5b8db8" rx="11"/><text x="274" y="149" fill="#fff" font-family="ui-monospace, monospace" font-size="9" text-anchor="middle">推理 0.64</text><rect width="76" height="22" x="320" y="134" fill="#87867f" rx="11"/><text x="358" y="149" fill="#fff" font-family="ui-monospace, monospace" font-size="9" text-anchor="middle">影响 0.55</text><text x="68" y="182" fill="#141413" font-family="ui-monospace, monospace" font-size="10">综合置信度</text><rect width="380" height="18" x="68" y="188" fill="#f0eee6" stroke="#d1cfc5" rx="9"/><rect width="266" height="18" x="68" y="188" fill="#d97757" rx="9"/><text x="430" y="201" fill="#141413" font-family="ui-monospace, monospace" font-size="10">0.70</text><rect width="180" height="32" x="68" y="218" fill="#fff" stroke="#d97757" stroke-width="1.8" rx="16"/><text x="158" y="239" fill="#d97757" font-family="ui-monospace, monospace" font-size="11" text-anchor="middle">为什么推荐这个？</text><rect width="380" height="30" x="68" y="258" fill="#f0eee6" stroke="#d1cfc5" rx="6"/><text x="82" y="277" fill="#141413" font-size="9">来源: 对话记录 2024-10-15，片段 #47</text><text x="82" y="290" fill="#141413" font-size="9">推理: &quot;用户提到 Rails&quot; → &quot;用户对 Rails 有好感&quot; → &quot;推荐 FastAPI&quot;</text><rect width="164" height="240" x="488" y="60" fill="#fff" stroke="#d1cfc5" stroke-width="1.8" rx="10"/><text x="570" y="84" fill="#141413" font-family="ui-monospace, monospace" font-size="11" font-weight="600" text-anchor="middle">维度说明</text><rect width="12" height="12" x="506" y="100" fill="#788c5d" rx="2"/><text x="524" y="110" fill="#141413" font-size="10">来源 (Provenance)</text><text x="524" y="124" fill="#87867f" font-size="9">记忆的出处</text><rect width="12" height="12" x="506" y="142" fill="#d97757" rx="2"/><text x="524" y="152" fill="#141413" font-size="10">时间 (Temporal)</text><text x="524" y="166" fill="#87867f" font-size="9">记忆的新鲜度</text><rect width="12" height="12" x="506" y="184" fill="#5b8db8" rx="2"/><text x="524" y="194" fill="#141413" font-size="10">推理 (Reasoning)</text><text x="524" y="208" fill="#87867f" font-size="9">推断链可信度</text><rect width="12" height="12" x="506" y="226" fill="#87867f" rx="2"/><text x="524" y="236" fill="#141413" font-size="10">影响 (Impact)</text><text x="524" y="250" fill="#87867f" font-size="9">使用频率与准确性</text><rect width="128" height="22" x="506" y="264" fill="#f0eee6" stroke="#d1cfc5" rx="11"/><text x="570" y="279" fill="#141413" font-family="ui-monospace, monospace" font-size="9" text-anchor="middle">查看 · 纠正 · 删除</text><title>用户置信度指示器</title><desc>用户界面的置信度指示器：记忆条目附带四个维度置信度 badge、综合置信度进度条、以及可展开的归因详情</desc></svg>