<svg xmlns="http://www.w3.org/2000/svg" font-family="ui-serif, Georgia, serif" viewBox="0 0 640 320"><title>向量记忆 vs 知识图谱对比</title><desc>两种记忆系统的对比：向量记忆擅长语义联想，知识图谱擅长精确推理</desc><path fill="#faf9f5" d="M0 0h640v320H0z"/><text x="320" y="26" fill="#141413" font-size="14" font-weight="500" letter-spacing="-.02em" text-anchor="middle">两种记忆的本质差异</text><text x="320" y="42" fill="#87867f" font-family="ui-monospace, monospace" font-size="10" text-anchor="middle">融合策略 · postcodeengineering.com · 2025/01/15</text><rect width="248" height="210" x="32" y="60" fill="#fff" stroke="#2563eb" stroke-width="1.5" rx="8"/><rect width="248" height="36" x="32" y="60" fill="#2563eb" rx="8"/><path fill="#2563eb" d="M32 84h248v12H32z"/><text x="156" y="83" fill="#fff" font-family="ui-monospace, monospace" font-size="13" font-weight="600" text-anchor="middle">向量记忆</text><text x="48" y="116" fill="#141413" font-size="11" font-weight="600">擅长</text><text x="48" y="132" fill="#141413" font-size="10">语义相似匹配</text><text x="48" y="146" fill="#141413" font-size="10">模糊查询 / 同义词召回</text><text x="48" y="160" fill="#141413" font-size="10">大规模非结构化检索</text><text x="48" y="174" fill="#141413" font-size="10">上下文联想</text><text x="48" y="198" fill="#141413" font-size="11" font-weight="600">弱点</text><text x="48" y="214" fill="#87867f" font-size="10">不知道时间 / 版本 / 时效性</text><text x="48" y="228" fill="#87867f" font-size="10">无法精确逻辑推理</text><text x="48" y="242" fill="#87867f" font-size="10">&quot;A是B的父亲&quot;类推失败</text><rect width="36" height="18" x="48" y="254" fill="#2563eb" rx="9"/><text x="66" y="267" fill="#fff" font-family="ui-monospace, monospace" font-size="9" text-anchor="middle">感</text><path stroke="#d97757" stroke-dasharray="4,3" stroke-width="2" d="M295 160h50"/><text x="320" y="150" fill="#d97757" font-family="ui-monospace, monospace" font-size="10" text-anchor="middle">互补</text><path fill="#d97757" d="m345 156-5 8h10z"/><path fill="none" stroke="#d97757" stroke-width="1.5" d="M320 175c-20 20 20 20 0 0m0 0c20-20-20-20 0 0"/><text x="320" y="185" fill="#d97757" font-family="ui-monospace, monospace" font-size="8" text-anchor="middle">循环</text><rect width="248" height="210" x="360" y="60" fill="#fff" stroke="#059669" stroke-width="1.5" rx="8"/><rect width="248" height="36" x="360" y="60" fill="#059669" rx="8"/><path fill="#059669" d="M360 84h248v12H360z"/><text x="484" y="83" fill="#fff" font-family="ui-monospace, monospace" font-size="13" font-weight="600" text-anchor="middle">知识图谱</text><text x="376" y="116" fill="#141413" font-size="11" font-weight="600">擅长</text><text x="376" y="132" fill="#141413" font-size="10">精确关系推理</text><text x="376" y="146" fill="#141413" font-size="10">实体 / 关系精确查询</text><text x="376" y="160" fill="#141413" font-size="10">多跳遍历 (A→B→C)</text><text x="376" y="174" fill="#141413" font-size="10">事实校验与版本追踪</text><text x="376" y="198" fill="#141413" font-size="11" font-weight="600">弱点</text><text x="376" y="214" fill="#87867f" font-size="10">非结构化文本处理成本高</text><text x="376" y="228" fill="#87867f" font-size="10">模糊查询能力弱</text><text x="376" y="242" fill="#87867f" font-size="10">构建与维护成本高</text><rect width="36" height="18" x="376" y="254" fill="#059669" rx="9"/><text x="394" y="267" fill="#fff" font-family="ui-monospace, monospace" font-size="9" text-anchor="middle">理</text></svg>