<svg xmlns="http://www.w3.org/2000/svg" font-family="ui-serif, Georgia, 'Times New Roman', serif" viewBox="0 0 600 360"><path fill="#faf9f5" d="M0 0h600v360H0z"/><text x="300" y="26" fill="#141413" font-size="14" font-weight="500" letter-spacing="-.02em" text-anchor="middle">AI 驱动的知识捕获流水线</text><text x="300" y="42" fill="#87867f" font-family="ui-monospace, monospace" font-size="10" text-anchor="middle">从专家工作到活的知识网络</text><rect width="130" height="80" x="40" y="90" fill="#fff" stroke="#d1cfc5" stroke-width="1.5" rx="8"/><text x="105" y="114" fill="#141413" font-size="11" font-weight="600" text-anchor="middle">专家工作</text><text x="105" y="132" fill="#87867f" font-size="9.5" text-anchor="middle">故障排查</text><text x="105" y="146" fill="#87867f" font-size="9.5" text-anchor="middle">架构决策</text><text x="105" y="160" fill="#87867f" font-size="9.5" text-anchor="middle">代码审查</text><path stroke="#d97757" stroke-width="2" d="M170 130h30"/><path fill="#d97757" d="m200 130-8-6v12z"/><rect width="160" height="100" x="200" y="80" fill="#fff" stroke="#d97757" stroke-width="2" rx="8"/><rect width="160" height="6" x="200" y="80" fill="#d97757" rx="3"/><text x="280" y="104" fill="#d97757" font-size="11" font-weight="600" text-anchor="middle">AI 捕获层</text><text x="280" y="124" fill="#87867f" font-size="9.5" text-anchor="middle">自动转录</text><text x="280" y="138" fill="#87867f" font-size="9.5" text-anchor="middle">情境标注</text><text x="280" y="152" fill="#87867f" font-size="9.5" text-anchor="middle">模式识别</text><text x="280" y="166" fill="#d97757" font-family="ui-monospace, monospace" font-size="8.5" text-anchor="middle">捕获成本 ≈ 0</text><path fill="none" stroke="#d97757" stroke-dasharray="4,3" stroke-width="1.5" d="M200 90c-20-30-40-30-95-30-25 0-35 30-35 30"/><path fill="#d97757" d="m70 90-6-8h12z"/><text x="115" y="58" fill="#d97757" font-family="ui-monospace, monospace" font-size="8.5" text-anchor="middle">反馈 / 校正</text><path stroke="#788c5d" stroke-width="2" d="M360 130h30"/><path fill="#788c5d" d="m390 130-8-6v12z"/><rect width="130" height="80" x="390" y="90" fill="#fff" stroke="#788c5d" stroke-width="2" rx="8"/><rect width="130" height="6" x="390" y="90" fill="#788c5d" rx="3"/><text x="455" y="114" fill="#788c5d" font-size="11" font-weight="600" text-anchor="middle">知识图谱</text><text x="455" y="132" fill="#87867f" font-size="9.5" text-anchor="middle">结构化知识</text><text x="455" y="146" fill="#87867f" font-size="9.5" text-anchor="middle">关联网络</text><text x="455" y="160" fill="#87867f" font-size="9.5" text-anchor="middle">情境索引</text><path stroke="#141413" stroke-width="2" d="M520 130h30"/><path fill="#141413" d="m550 130-8-6v12z"/><rect width="160" height="70" x="400" y="220" fill="#fff" stroke="#d1cfc5" stroke-width="1.5" rx="8"/><text x="480" y="244" fill="#141413" font-size="11" font-weight="600" text-anchor="middle">查询与检索</text><text x="480" y="262" fill="#87867f" font-size="9.5" text-anchor="middle">语义理解</text><text x="480" y="276" fill="#87867f" font-size="9.5" text-anchor="middle">主动推送</text><path fill="none" stroke="#d1cfc5" stroke-width="1.5" d="M455 170v20h25v30"/><path fill="#d1cfc5" d="m480 220-4-8h8z"/><text x="280" y="220" fill="#141413" font-size="10" text-anchor="middle">从&quot;写下来&quot;</text><text x="280" y="234" fill="#141413" font-size="10" text-anchor="middle">到&quot;捕获出来&quot;</text><path stroke="#d97757" stroke-dasharray="3,3" stroke-width="1.5" d="M280 180v25"/><path fill="#d97757" d="m280 205-4-8h8z"/><rect width="200" height="36" x="180" y="310" fill="#d97757" stroke="#d97757" stroke-width="1.5" opacity=".1" rx="6"/><text x="280" y="330" fill="#d97757" font-family="ui-monospace, monospace" font-size="10" font-weight="600" text-anchor="middle">捕获成本必须趋近于零</text><text x="280" y="342" fill="#d97757" font-family="ui-monospace, monospace" font-size="9" text-anchor="middle">否则专家不会配合</text><text x="105" y="185" fill="#87867f" font-family="ui-monospace, monospace" font-size="8.5" text-anchor="middle">输入</text><text x="280" y="185" fill="#d97757" font-family="ui-monospace, monospace" font-size="8.5" text-anchor="middle">处理</text><text x="455" y="185" fill="#788c5d" font-family="ui-monospace, monospace" font-size="8.5" text-anchor="middle">存储</text><text x="480" y="300" fill="#87867f" font-family="ui-monospace, monospace" font-size="8.5" text-anchor="middle">输出</text></svg>