<svg xmlns="http://www.w3.org/2000/svg" font-family="ui-serif, Georgia, serif" viewBox="0 0 600 400"><path fill="#faf9f5" d="M0 0h600v400H0z"/><text x="300" y="28" fill="#141413" font-size="14" font-weight="500" letter-spacing="-.02em" text-anchor="middle">时间旅行问题 — 从海量记忆中定位历史上下文</text><text x="300" y="44" fill="#87867f" font-family="ui-monospace, monospace" font-size="10" text-anchor="middle">跨会话记忆索引 · 2025/01/12</text><path stroke="#d1cfc5" stroke-width="2" d="M60 200h480"/><circle cx="120" cy="200" r="24" fill="#fff" stroke="#d97757" stroke-width="2"/><text x="120" y="206" fill="#d97757" font-family="ui-monospace, monospace" font-size="13" font-weight="600" text-anchor="middle">上周</text><rect width="120" height="52" x="60" y="236" fill="#fff" stroke="#d1cfc5" stroke-width="1.5" rx="8"/><text x="120" y="256" fill="#141413" font-size="10" text-anchor="middle">「蓝色方案」</text><text x="120" y="272" fill="#87867f" font-size="9.5" text-anchor="middle">配色讨论 · 周二</text><circle cx="300" cy="200" r="24" fill="#fff" stroke="#788c5d" stroke-width="2"/><text x="300" y="206" fill="#788c5d" font-family="ui-monospace, monospace" font-size="13" font-weight="600" text-anchor="middle">昨天</text><rect width="120" height="52" x="240" y="236" fill="#fff" stroke="#d1cfc5" stroke-width="1.5" rx="8"/><text x="300" y="256" fill="#141413" font-size="10" text-anchor="middle">「绿色偏好」</text><text x="300" y="272" fill="#87867f" font-size="9.5" text-anchor="middle">偏好更新 · 周四</text><circle cx="480" cy="200" r="24" fill="#fff" stroke="#141413" stroke-width="2"/><text x="480" y="206" fill="#141413" font-family="ui-monospace, monospace" font-size="13" font-weight="600" text-anchor="middle">今天</text><rect width="120" height="52" x="420" y="236" fill="#fff" stroke="#d1cfc5" stroke-width="1.5" rx="8"/><text x="480" y="256" fill="#141413" font-size="10" text-anchor="middle">当前会话</text><text x="480" y="272" fill="#87867f" font-size="9.5" text-anchor="middle">正在输入…</text><circle cx="300" cy="140" r="22" fill="#fff" stroke="#d97757" stroke-width="2"/><path stroke="#d97757" stroke-linecap="round" stroke-width="3" d="m316 156 16 16"/><text x="300" y="145" fill="#d97757" font-size="16" text-anchor="middle">?</text><path stroke="#d97757" stroke-width="1.5" d="M300 162v10"/><path fill="#d97757" d="m300 176-4-8h8z"/><rect width="380" height="50" x="180" y="300" fill="#fff" stroke="#d97757" stroke-width="1.5" rx="10"/><text x="200" y="320" fill="#141413" font-size="11">&quot;我上周说的那个方案，现在想改一下&quot;</text><text x="200" y="338" fill="#87867f" font-family="ui-monospace, monospace" font-size="10">— 用户原话</text><text x="300" y="376" fill="#87867f" font-family="ui-monospace, monospace" font-size="9" text-anchor="middle">挑战：如何在海量记忆中准确定位历史上下文？</text></svg>