<svg xmlns="http://www.w3.org/2000/svg" font-family="ui-serif, Georgia, serif" viewBox="0 0 560 140">
  <path fill="#faf9f5" d="M0 0h560v140H0z"/>
  <text x="280" y="18" fill="#141413" font-size="12" font-weight="500" letter-spacing="-.02em" text-anchor="middle">Agent Swarm：P2P 网络架构</text>
  <text x="280" y="32" fill="#87867f" font-family="ui-monospace, monospace" font-size="9" text-anchor="middle">postcodeengineering.com · 2025/02/25</text>
  <rect width="100" height="50" x="80" y="54" fill="#fff" stroke="#2563eb" stroke-width="1.5" rx="6"/>
  <rect width="100" height="14" x="80" y="54" fill="#dbeafe" stroke="#2563eb" rx="6"/>
  <text x="130" y="67" fill="#2563eb" font-family="ui-monospace, monospace" font-size="10" font-weight="600" text-anchor="middle">Agent A</text>
  <text x="130" y="86" fill="#141413" font-size="9" text-anchor="middle">自主通信</text>
  <rect width="100" height="50" x="380" y="54" fill="#fff" stroke="#2563eb" stroke-width="1.5" rx="6"/>
  <rect width="100" height="14" x="380" y="54" fill="#dbeafe" stroke="#2563eb" rx="6"/>
  <text x="430" y="67" fill="#2563eb" font-family="ui-monospace, monospace" font-size="10" font-weight="600" text-anchor="middle">Agent B</text>
  <text x="430" y="86" fill="#141413" font-size="9" text-anchor="middle">直接协商</text>
  <rect width="100" height="22" x="80" y="114" fill="#fff" stroke="#d97757" stroke-width="1.5" rx="5"/>
  <rect width="100" height="14" x="80" y="114" fill="#fef3c7" stroke="#d97757" rx="5"/>
  <text x="130" y="126" fill="#d97757" font-family="ui-monospace, monospace" font-size="10" font-weight="600" text-anchor="middle">Agent C</text>
  <text x="130" y="138" fill="#141413" font-size="9" text-anchor="middle">协商任务</text>
  <rect width="100" height="22" x="380" y="114" fill="#fff" stroke="#059669" stroke-width="1.5" rx="5"/>
  <rect width="100" height="14" x="380" y="114" fill="#d1fae5" stroke="#059669" rx="5"/>
  <text x="430" y="126" fill="#059669" font-family="ui-monospace, monospace" font-size="10" font-weight="600" text-anchor="middle">Agent D</text>
  <text x="430" y="138" fill="#141413" font-size="9" text-anchor="middle">轻量级账本</text>
  <path stroke="#d1cfc5" stroke-width="1.5" d="M180 79h200m-250 25v10m300-10v10"/>
  <path stroke="#d1cfc5" stroke-dasharray="3,3" d="M180 104h200M80 79v25m400-25v25m-300 0 200 10"/>
  <text x="280" y="128" fill="#87867f" font-size="9" font-style="italic" text-anchor="middle">无中心节点 · 直接通信 · 轻量级账本协商</text>
</svg>
