<svg xmlns="http://www.w3.org/2000/svg" font-family="ui-serif, Georgia, serif" viewBox="0 0 560 240"><path fill="#faf9f5" d="M0 0h560v240H0z"/><text x="280" y="20" fill="#141413" font-size="13" font-weight="500" letter-spacing="-.02em" text-anchor="middle">TDD → IDD：开发范式的转变</text><text x="280" y="36" fill="#87867f" font-family="ui-monospace, monospace" font-size="9.5" text-anchor="middle">postcodeengineering.com · 2025/04/26</text><path stroke="#d97757" stroke-width="2" d="M195 120h150"/><path fill="#d97757" d="m345 116-6 4 6 4z"/><text x="270" y="114" fill="#d97757" font-family="ui-monospace, monospace" font-size="9" text-anchor="middle">AI 时代</text><text x="270" y="132" fill="#d97757" font-family="ui-monospace, monospace" font-size="9" text-anchor="middle">范式转移</text><rect width="170" height="162" x="20" y="58" fill="#fff" stroke="#d1cfc5" stroke-width="1.5" rx="8"/><rect width="170" height="28" x="20" y="58" fill="#f0eee6" stroke="#d1cfc5" stroke-width="1.5" rx="8"/><text x="105" y="77" fill="#87867f" font-size="12" font-weight="600" text-anchor="middle">TDD</text><text x="105" y="96" fill="#141413" font-size="10" font-weight="600" text-anchor="middle">测试驱动开发</text><text x="105" y="110" fill="#87867f" font-size="9" text-anchor="middle">Test-Driven Development</text><path stroke="#d1cfc5" d="M40 120h130"/><text x="35" y="134" fill="#87867f" font-size="9">关注点</text><text x="35" y="146" fill="#141413" font-size="9.5">代码行为是否符合预期</text><path stroke="#d1cfc5" stroke-dasharray="2,2" stroke-width=".5" d="M40 154h130"/><text x="35" y="168" fill="#87867f" font-size="9">驱动源</text><text x="35" y="180" fill="#141413" font-size="9.5">测试用例</text><path stroke="#d1cfc5" stroke-dasharray="2,2" stroke-width=".5" d="M40 188h130"/><text x="35" y="202" fill="#87867f" font-size="9">测试编写</text><text x="35" y="214" fill="#141413" font-size="9.5">人工编写</text><rect width="170" height="162" x="370" y="58" fill="#fff" stroke="#d97757" stroke-width="1.8" rx="8"/><rect width="170" height="28" x="370" y="58" fill="#fef3c7" stroke="#d97757" stroke-width="1.5" rx="8"/><text x="455" y="77" fill="#d97757" font-size="12" font-weight="600" text-anchor="middle">IDD</text><text x="455" y="96" fill="#141413" font-size="10" font-weight="600" text-anchor="middle">意图驱动开发</text><text x="455" y="110" fill="#87867f" font-size="9" text-anchor="middle">Intent-Driven Development</text><path stroke="#d97757" d="M390 120h130"/><text x="385" y="134" fill="#d97757" font-size="9">关注点</text><text x="385" y="146" fill="#141413" font-size="9.5">代码是否准确表达业务意图</text><path stroke="#d1cfc5" stroke-dasharray="2,2" stroke-width=".5" d="M390 154h130"/><text x="385" y="168" fill="#d97757" font-size="9">驱动源</text><text x="385" y="180" fill="#141413" font-size="9.5">业务意图文档</text><path stroke="#d1cfc5" stroke-dasharray="2,2" stroke-width=".5" d="M390 188h130"/><text x="385" y="202" fill="#d97757" font-size="9">测试编写</text><text x="385" y="214" fill="#141413" font-size="9.5">AI 生成 + 人工审查</text><text x="280" y="232" fill="#87867f" font-size="9" font-style="italic" text-anchor="middle">TDD 问&quot;代码对不对&quot;；IDD 问&quot;代码是否表达了正确的业务意图&quot;</text></svg>