<svg xmlns="http://www.w3.org/2000/svg" font-family="ui-serif, Georgia, serif" viewBox="0 0 680 460"><title>AI-Native架构六大战术模式</title><desc>六个AI-Native架构战术模式：Intent Router、Context Cache、Model Gateway、Feedback Loop、A/B Agent、Human-in-the-Loop</desc><path fill="#faf9f5" d="M0 0h680v460H0z"/><text x="340" y="26" fill="#141413" font-size="14" font-weight="500" letter-spacing="-.02em" text-anchor="middle">AI-Native架构六大战术模式</text><text x="340" y="42" fill="#87867f" font-family="ui-monospace, monospace" font-size="10" text-anchor="middle">AI-Native Engineering · 2025/04/01</text><rect width="290" height="120" x="40" y="58" fill="#fff" stroke="#d1cfc5" stroke-width="1.5" rx="8"/><rect width="290" height="32" x="40" y="58" fill="#d97757" rx="8"/><path fill="#d97757" d="M40 78h290v12H40z"/><text x="56" y="78" fill="#fff" font-family="ui-monospace, monospace" font-size="12" font-weight="600">01</text><text x="78" y="78" fill="#fff" font-size="12" font-weight="600">Intent Router</text><text x="56" y="110" fill="#141413" font-size="13">意图路由器</text><text x="56" y="128" fill="#87867f" font-size="10.5">理解用户自然语言请求</text><text x="56" y="144" fill="#87867f" font-size="10.5">路由到最合适的处理单元</text><text x="56" y="160" fill="#788c5d" font-family="ui-monospace, monospace" font-size="10">Router本身也是AI</text><rect width="290" height="120" x="350" y="58" fill="#fff" stroke="#d1cfc5" stroke-width="1.5" rx="8"/><rect width="290" height="32" x="350" y="58" fill="#788c5d" rx="8"/><path fill="#788c5d" d="M350 78h290v12H350z"/><text x="366" y="78" fill="#fff" font-family="ui-monospace, monospace" font-size="12" font-weight="600">02</text><text x="388" y="78" fill="#fff" font-size="12" font-weight="600">Context Cache</text><text x="366" y="110" fill="#141413" font-size="13">上下文缓存</text><text x="366" y="128" fill="#87867f" font-size="10.5">预加载和缓存用户Context</text><text x="366" y="144" fill="#87867f" font-size="10.5">减少每次请求的Context构建时间</text><text x="366" y="160" fill="#788c5d" font-family="ui-monospace, monospace" font-size="10">把上下文存在模型外面</text><rect width="290" height="120" x="40" y="192" fill="#fff" stroke="#d1cfc5" stroke-width="1.5" rx="8"/><rect width="290" height="32" x="40" y="192" fill="#d97757" rx="8"/><path fill="#d97757" d="M40 212h290v12H40z"/><text x="56" y="212" fill="#fff" font-family="ui-monospace, monospace" font-size="12" font-weight="600">03</text><text x="78" y="212" fill="#fff" font-size="12" font-weight="600">Model Gateway</text><text x="56" y="244" fill="#141413" font-size="13">模型网关</text><text x="56" y="262" fill="#87867f" font-size="10.5">根据任务复杂度、成本、延迟</text><text x="56" y="278" fill="#87867f" font-size="10.5">自动选择最合适的模型</text><text x="56" y="294" fill="#788c5d" font-family="ui-monospace, monospace" font-size="10">快弱 vs 慢强的路由</text><rect width="290" height="120" x="350" y="192" fill="#fff" stroke="#d1cfc5" stroke-width="1.5" rx="8"/><rect width="290" height="32" x="350" y="192" fill="#788c5d" rx="8"/><path fill="#788c5d" d="M350 212h290v12H350z"/><text x="366" y="212" fill="#fff" font-family="ui-monospace, monospace" font-size="12" font-weight="600">04</text><text x="388" y="212" fill="#fff" font-size="12" font-weight="600">Feedback Loop</text><text x="366" y="244" fill="#141413" font-size="13">反馈循环</text><text x="366" y="262" fill="#87867f" font-size="10.5">建立从用户反馈到模型改进</text><text x="366" y="278" fill="#87867f" font-size="10.5">的闭环，让系统越用越好</text><text x="366" y="294" fill="#788c5d" font-family="ui-monospace, monospace" font-size="10">Hill Climbing Loop</text><rect width="290" height="120" x="40" y="326" fill="#fff" stroke="#d1cfc5" stroke-width="1.5" rx="8"/><rect width="290" height="32" x="40" y="326" fill="#d97757" rx="8"/><path fill="#d97757" d="M40 346h290v12H40z"/><text x="56" y="346" fill="#fff" font-family="ui-monospace, monospace" font-size="12" font-weight="600">05</text><text x="78" y="346" fill="#fff" font-size="12" font-weight="600">A/B Agent</text><text x="56" y="378" fill="#141413" font-size="13">A/B智能体</text><text x="56" y="396" fill="#87867f" font-size="10.5">像A/B测试UI一样</text><text x="56" y="412" fill="#87867f" font-size="10.5">A/B测试AI Agent的行为</text><text x="56" y="428" fill="#788c5d" font-family="ui-monospace, monospace" font-size="10">实验驱动AI行为优化</text><rect width="290" height="120" x="350" y="326" fill="#fff" stroke="#d1cfc5" stroke-width="1.5" rx="8"/><rect width="290" height="32" x="350" y="326" fill="#788c5d" rx="8"/><path fill="#788c5d" d="M350 346h290v12H350z"/><text x="366" y="346" fill="#fff" font-family="ui-monospace, monospace" font-size="12" font-weight="600">06</text><text x="388" y="346" fill="#fff" font-size="12" font-weight="600">Human-in-the-Loop</text><text x="366" y="378" fill="#141413" font-size="13">人在回路</text><text x="366" y="396" fill="#87867f" font-size="10.5">根据AI置信度和任务关键性</text><text x="366" y="412" fill="#87867f" font-size="10.5">动态决定是否需要人类介入</text><text x="366" y="428" fill="#788c5d" font-family="ui-monospace, monospace" font-size="10">让人类判断始终可及</text></svg>