<svg xmlns="http://www.w3.org/2000/svg" font-family="ui-serif, Georgia, serif" viewBox="0 0 560 260">
  <path fill="#faf9f5" d="M0 0h560v260H0z"/>
  <text x="280" y="22" fill="#141413" font-size="13" font-weight="500" letter-spacing="-.02em" text-anchor="middle">意图契约循环</text>
  <text x="280" y="36" fill="#87867f" font-family="ui-monospace, monospace" font-size="9.5" text-anchor="middle">Intent Contract Loop</text>
  <rect width="180" height="56" x="190" y="50" fill="#fff" stroke="#d97757" stroke-width="1.8" rx="10"/>
  <rect width="180" height="18" x="190" y="50" fill="#d97757" rx="10"/>
  <path fill="#d97757" d="M190 62h180v6H190z"/>
  <text x="280" y="65" fill="#fff" font-family="ui-monospace, monospace" font-size="10" font-weight="600" text-anchor="middle">人类意图</text>
  <text x="280" y="86" fill="#141413" font-size="11" text-anchor="middle">自然语言描述 / Prompt</text>
  <rect width="180" height="56" x="320" y="170" fill="#fff" stroke="#788c5d" stroke-width="1.8" rx="10"/>
  <rect width="180" height="18" x="320" y="170" fill="#788c5d" rx="10"/>
  <path fill="#788c5d" d="M320 182h180v6H320z"/>
  <text x="410" y="185" fill="#fff" font-family="ui-monospace, monospace" font-size="10" font-weight="600" text-anchor="middle">AI 生成</text>
  <text x="410" y="206" fill="#141413" font-size="11" text-anchor="middle">代码 + 测试套件</text>
  <rect width="180" height="56" x="60" y="170" fill="#fff" stroke="#141413" stroke-width="1.8" rx="10"/>
  <rect width="180" height="18" x="60" y="170" fill="#141413" rx="10"/>
  <path fill="#141413" d="M60 182h180v6H60z"/>
  <text x="150" y="185" fill="#fff" font-family="ui-monospace, monospace" font-size="10" font-weight="600" text-anchor="middle">契约验证</text>
  <text x="150" y="206" fill="#141413" font-size="11" text-anchor="middle">通过？重新生成？</text>
  <path stroke="#d97757" stroke-width="1.5" d="M355 106v56"/>
  <path fill="#d97757" d="m355 168-5-8h10z"/>
  <text x="374" y="138" fill="#d97757" font-family="ui-monospace, monospace" font-size="8.5">生成</text>
  <path stroke="#788c5d" stroke-width="1.5" d="M320 198h-80"/>
  <path fill="#788c5d" d="m234 198 8-5v10z"/>
  <text x="280" y="192" fill="#788c5d" font-family="ui-monospace, monospace" font-size="8.5" text-anchor="middle">验证</text>
  <path stroke="#141413" stroke-width="1.5" d="m155 170 65-64"/>
  <path fill="#141413" d="m223 101-9 8h12z"/>
  <text x="128" y="138" fill="#141413" font-family="ui-monospace, monospace" font-size="8.5">修正意图</text>
  <path fill="none" stroke="#d1cfc5" stroke-dasharray="4,3" stroke-width="1.5" d="M60 188C30 188 30 80 190 80"/>
  <path fill="#d1cfc5" d="m190 75-6 9h12z"/>
  <text x="34" y="136" fill="#87867f" font-family="ui-monospace, monospace" font-size="8.5">重新</text>
  <text x="34" y="148" fill="#87867f" font-family="ui-monospace, monospace" font-size="8.5">理解</text>
  <title>意图契约循环</title>
  <desc>
    三节点循环图：顶部是人类意图节点（自然语言/Prompt），右下是AI生成节点（代码+测试套件），左下是契约验证节点（通过或重新生成）。三个节点之间有双向箭头连接，形成完整的意图-验证循环。
  </desc>
</svg>
