<svg xmlns="http://www.w3.org/2000/svg" font-family="ui-serif, Georgia, serif" viewBox="0 0 680 300"><title>2008 雷曼兄弟 vs 高盛：降级模式对比</title><desc>两条时间轴对比：雷曼兄弟灾难性崩溃 vs 高盛以降级模式运行72小时</desc><path fill="#faf9f5" d="M0 0h680v300H0z"/><text x="340" y="26" fill="#141413" font-size="14" font-weight="500" letter-spacing="-.02em" text-anchor="middle">2008 金融危机的系统启示</text><text x="340" y="42" fill="#87867f" font-family="ui-monospace, monospace" font-size="10" text-anchor="middle">雷曼兄弟 vs 高盛 · 2008/09/15</text><rect width="600" height="80" x="40" y="68" fill="#fff" stroke="#c0392b" stroke-width="1.5" rx="8"/><text x="56" y="86" fill="#c0392b" font-family="ui-monospace, monospace" font-size="11" font-weight="600">雷曼兄弟 LEHMAN BROTHERS</text><text x="56" y="100" fill="#87867f" font-size="10">灾难性崩溃 · 2008-09-15</text><rect width="80" height="60" x="460" y="74" fill="#c0392b" opacity=".15" rx="4"/><text x="500" y="102" fill="#c0392b" font-size="11" font-weight="600" text-anchor="middle">全面</text><text x="500" y="116" fill="#c0392b" font-size="11" font-weight="600" text-anchor="middle">崩溃</text><text x="500" y="130" fill="#c0392b" font-size="9" text-anchor="middle">0% 功能</text><text x="140" y="124" fill="#87867f" font-family="ui-monospace, monospace" font-size="9">Trading Core</text><text x="220" y="124" fill="#87867f" font-family="ui-monospace, monospace" font-size="9">Complex Derivatives</text><text x="320" y="124" fill="#87867f" font-family="ui-monospace, monospace" font-size="9">Non-core Features</text><text x="140" y="118" fill="#c0392b" font-size="14" text-anchor="middle">✗</text><text x="220" y="118" fill="#c0392b" font-size="14" text-anchor="middle">✗</text><text x="320" y="118" fill="#c0392b" font-size="14" text-anchor="middle">✗</text><rect width="600" height="80" x="40" y="162" fill="#fff" stroke="#d97757" stroke-width="1.5" rx="8"/><text x="56" y="180" fill="#d97757" font-family="ui-monospace, monospace" font-size="11" font-weight="600">高盛 GOLDMAN SACHS</text><text x="56" y="194" fill="#87867f" font-size="10">降级模式运行 72 小时 · 2008/09/15</text><rect width="100" height="58" x="130" y="172" fill="#788c5d" opacity=".2" rx="4"/><text x="180" y="198" fill="#788c5d" font-size="10" font-weight="500" text-anchor="middle">Trading Core</text><text x="180" y="214" fill="#788c5d" font-size="9" text-anchor="middle">100% 运行</text><rect width="100" height="58" x="240" y="172" fill="#d97757" opacity=".2" rx="4"/><text x="290" y="198" fill="#d97757" font-size="10" font-weight="500" text-anchor="middle">Complex Derivatives</text><text x="290" y="214" fill="#d97757" font-size="9" text-anchor="middle">降级</text><rect width="100" height="58" x="350" y="172" fill="#87867f" opacity=".15" rx="4"/><text x="400" y="198" fill="#87867f" font-size="10" font-weight="500" text-anchor="middle">Non-core Features</text><text x="400" y="214" fill="#87867f" font-size="9" text-anchor="middle">关闭</text><rect width="80" height="56" x="460" y="174" fill="#d97757" opacity=".15" rx="4"/><text x="500" y="198" fill="#d97757" font-size="11" font-weight="600" text-anchor="middle">72h+</text><text x="500" y="214" fill="#d97757" font-size="9" text-anchor="middle">降级运行</text><path stroke="#c0392b" stroke-dasharray="4,3" stroke-width="1.5" d="M420 58v194"/><text x="420" y="256" fill="#c0392b" font-family="ui-monospace, monospace" font-size="8" text-anchor="middle">雷曼破产</text><rect width="100" height="28" x="540" y="260" fill="#fff" stroke="#d1cfc5" rx="4"/><text x="548" y="274" fill="#141413" font-size="9">■ 完全运行</text><text x="548" y="284" fill="#141413" font-size="9">■ 降级运行</text><text x="604" y="274" fill="#87867f" font-size="9">■ 关闭</text></svg>