<svg xmlns="http://www.w3.org/2000/svg" font-family="ui-serif, Georgia, serif" viewBox="0 0 560 260">
  <path fill="#faf9f5" d="M0 0h560v260H0z"/>
  <text x="280" y="20" fill="#141413" font-size="13" font-weight="500" letter-spacing="-.02em" text-anchor="middle">企业级 AI Context Layer 三层模型</text>
  <text x="280" y="36" fill="#87867f" font-family="ui-monospace, monospace" font-size="9.5" text-anchor="middle">postcodeengineering.com · 2025/02/23</text>
  <rect width="480" height="60" x="40" y="50" fill="#fff" stroke="#d97757" stroke-width="1.8" rx="6"/>
  <rect width="480" height="24" x="40" y="50" fill="#fef3c7" stroke="#d97757" stroke-width="1.5" rx="6"/>
  <text x="60" y="67" fill="#d97757" font-family="ui-monospace, monospace" font-size="10" font-weight="600">L3 · Business Context</text>
  <text x="200" y="67" fill="#141413" font-size="11" font-weight="600">业务上下文层</text>
  <text x="60" y="88" fill="#87867f" font-size="10">领域模型 · 业务规则 · 术语表 · 合规要求</text>
  <rect width="18" height="18" x="490" y="62" fill="#d97757" rx="9"/>
  <text x="499" y="75" fill="#fff" font-family="ui-monospace, monospace" font-size="9" text-anchor="middle">L3</text>
  <path stroke="#d1cfc5" stroke-width="1.5" d="M280 110v10"/>
  <path fill="#d1cfc5" d="m276 120 4 8 4-8z"/>
  <rect width="480" height="60" x="40" y="128" fill="#fff" stroke="#2563eb" stroke-width="1.5" rx="6"/>
  <rect width="480" height="24" x="40" y="128" fill="#dbeafe" stroke="#2563eb" stroke-width="1.5" rx="6"/>
  <text x="60" y="145" fill="#2563eb" font-family="ui-monospace, monospace" font-size="10" font-weight="600">L2 · Technical Context</text>
  <text x="200" y="145" fill="#141413" font-size="11" font-weight="600">技术上下文层</text>
  <text x="60" y="166" fill="#87867f" font-size="10">架构决策 · 技术栈 · API 契约 · 基础设施</text>
  <rect width="18" height="18" x="490" y="140" fill="#2563eb" rx="9"/>
  <text x="499" y="153" fill="#fff" font-family="ui-monospace, monospace" font-size="9" text-anchor="middle">L2</text>
  <path stroke="#d1cfc5" stroke-width="1.5" d="M280 188v10"/>
  <path fill="#d1cfc5" d="m276 198 4 8 4-8z"/>
  <rect width="480" height="44" x="40" y="206" fill="#fff" stroke="#059669" stroke-width="1.5" rx="6"/>
  <rect width="480" height="22" x="40" y="206" fill="#d1fae5" stroke="#059669" stroke-width="1.5" rx="6"/>
  <text x="60" y="221" fill="#059669" font-family="ui-monospace, monospace" font-size="10" font-weight="600">L1 · Project Context</text>
  <text x="200" y="221" fill="#141413" font-size="11" font-weight="600">项目上下文层</text>
  <text x="60" y="238" fill="#87867f" font-size="10">代码规范 · 团队规则 · 近期变更 · 上下文边界</text>
  <rect width="18" height="18" x="490" y="218" fill="#059669" rx="9"/>
  <text x="499" y="231" fill="#fff" font-family="ui-monospace, monospace" font-size="9" text-anchor="middle">L1</text>
  <text x="280" y="256" fill="#87867f" font-size="9" font-style="italic" text-anchor="middle">三层自上而下抽象递增，L3 最稳定，L1 最动态；AI Agent 按需从对应层级获取上下文</text>
</svg>
