<svg xmlns="http://www.w3.org/2000/svg" aria-label="技术债务仪表盘" viewBox="0 0 760 340">
  <title>技术债务仪表盘</title>
  <desc>
    技术债务总览、类型分布和高风险债务列表
  </desc>
  <defs>
    <filter id="shadow" width="110%" height="115%" x="-5%" y="-5%">
      <feDropShadow dx="0" dy="2" flood-color="#141413" flood-opacity=".08" stdDeviation="3"/>
    </filter>
  </defs>
  <path fill="#faf9f5" d="M0 0h760v340H0z"/>
  <rect width="730" height="316" x="15" y="12" fill="none" stroke="#d1cfc5" stroke-width="1.5" rx="10"/>
  <text x="30" y="32" fill="#141413" font-family="system-ui,-apple-system,sans-serif" font-size="14" font-weight="700">技术债务仪表盘</text>
  <rect width="230" height="135" x="25" y="45" fill="#fef3c7" stroke="#d97706" stroke-width="2" filter="url(#shadow)" rx="8"/>
  <text x="140" y="66" fill="#92400e" font-family="system-ui,-apple-system,sans-serif" font-size="13" font-weight="700" text-anchor="middle">债务总览</text>
  <path stroke="#fcd34d" d="M35 76h210"/>
  <text x="40" y="96" fill="#78716c" font-family="system-ui,-apple-system,sans-serif" font-size="12">总债务分数</text>
  <text x="40" y="118" fill="#d97706" font-family="system-ui,-apple-system,sans-serif" font-size="22" font-weight="700">156分</text>
  <text x="110" y="118" fill="#87867f" font-family="system-ui,-apple-system,sans-serif" font-size="11">(↓12分/月)</text>
  <path stroke="#fcd34d" d="M35 128h210"/>
  <circle cx="50" cy="145" r="6" fill="#fee2e2" stroke="#dc2626"/>
  <text x="62" y="148" fill="#78716c" font-family="system-ui,-apple-system,sans-serif" font-size="11">P0债务</text>
  <text x="110" y="148" fill="#dc2626" font-family="system-ui,-apple-system,sans-serif" font-size="12" font-weight="600">0个</text>
  <text x="140" y="148" fill="#059669" font-family="system-ui,-apple-system,sans-serif" font-size="11">✅</text>
  <circle cx="50" cy="165" r="6" fill="#fef3c7" stroke="#d97706"/>
  <text x="62" y="168" fill="#78716c" font-family="system-ui,-apple-system,sans-serif" font-size="11">P1债务</text>
  <text x="110" y="168" fill="#d97706" font-family="system-ui,-apple-system,sans-serif" font-size="12" font-weight="600">3个</text>
  <text x="145" y="168" fill="#d97706" font-family="system-ui,-apple-system,sans-serif" font-size="11">⚠️</text>
  <rect width="230" height="135" x="265" y="45" fill="#dbeafe" stroke="#2563eb" stroke-width="2" filter="url(#shadow)" rx="8"/>
  <text x="380" y="66" fill="#1e40af" font-family="system-ui,-apple-system,sans-serif" font-size="13" font-weight="700" text-anchor="middle">债务类型分布</text>
  <path stroke="#93c5fd" d="M275 76h210"/>
  <text x="275" y="94" fill="#78716c" font-family="system-ui,-apple-system,sans-serif" font-size="11">代码债务</text>
  <rect width="135" height="14" x="350" y="84" fill="#e3dacc" rx="3"/>
  <rect width="60" height="14" x="350" y="84" fill="#d97757" rx="3"/>
  <text x="495" y="94" fill="#78716c" font-family="system-ui,-apple-system,sans-serif" font-size="10">45%</text>
  <text x="275" y="114" fill="#78716c" font-family="system-ui,-apple-system,sans-serif" font-size="11">测试债务</text>
  <rect width="135" height="14" x="350" y="104" fill="#e3dacc" rx="3"/>
  <rect width="40" height="14" x="350" y="104" fill="#2563eb" rx="3"/>
  <text x="495" y="114" fill="#78716c" font-family="system-ui,-apple-system,sans-serif" font-size="10">30%</text>
  <text x="275" y="134" fill="#78716c" font-family="system-ui,-apple-system,sans-serif" font-size="11">架构债务</text>
  <rect width="135" height="14" x="350" y="124" fill="#e3dacc" rx="3"/>
  <rect width="20" height="14" x="350" y="124" fill="#059669" rx="3"/>
  <text x="495" y="134" fill="#78716c" font-family="system-ui,-apple-system,sans-serif" font-size="10">15%</text>
  <text x="275" y="154" fill="#78716c" font-family="system-ui,-apple-system,sans-serif" font-size="11">文档债务</text>
  <rect width="135" height="14" x="350" y="144" fill="#e3dacc" rx="3"/>
  <rect width="14" height="14" x="350" y="144" fill="#87867f" rx="3"/>
  <text x="495" y="154" fill="#78716c" font-family="system-ui,-apple-system,sans-serif" font-size="10">10%</text>
  <rect width="230" height="280" x="505" y="45" fill="#fee2e2" stroke="#dc2626" stroke-width="2" filter="url(#shadow)" rx="8"/>
  <text x="620" y="66" fill="#991b1b" font-family="system-ui,-apple-system,sans-serif" font-size="13" font-weight="700" text-anchor="middle">高风险债务 (TOP 5)</text>
  <path stroke="#fca5a5" d="M515 76h210"/>
  <circle cx="525" cy="94" r="10" fill="#fef3c7" stroke="#d97706" stroke-width="1.5"/>
  <text x="525" y="98" fill="#b45309" font-family="system-ui,-apple-system,sans-serif" font-size="10" font-weight="700" text-anchor="middle">1</text>
  <text x="542" y="92" fill="#991b1b" font-family="system-ui,-apple-system,sans-serif" font-size="11" font-weight="600">[P1]</text>
  <text x="570" y="92" fill="#141413" font-family="system-ui,-apple-system,sans-serif" font-size="11">order_service.py:156</text>
  <text x="542" y="108" fill="#78716c" font-family="system-ui,-apple-system,sans-serif" font-size="10">函数长度120行</text>
  <circle cx="525" cy="130" r="10" fill="#fef3c7" stroke="#d97706" stroke-width="1.5"/>
  <text x="525" y="134" fill="#b45309" font-family="system-ui,-apple-system,sans-serif" font-size="10" font-weight="700" text-anchor="middle">2</text>
  <text x="542" y="128" fill="#991b1b" font-family="system-ui,-apple-system,sans-serif" font-size="11" font-weight="600">[P1]</text>
  <text x="570" y="128" fill="#141413" font-family="system-ui,-apple-system,sans-serif" font-size="11">payment_module</text>
  <text x="542" y="144" fill="#78716c" font-family="system-ui,-apple-system,sans-serif" font-size="10">循环依赖</text>
  <circle cx="525" cy="166" r="10" fill="#e3dacc" stroke="#d1cfc5" stroke-width="1.5"/>
  <text x="525" y="170" fill="#78716c" font-family="system-ui,-apple-system,sans-serif" font-size="10" font-weight="700" text-anchor="middle">3</text>
  <text x="542" y="164" fill="#b45309" font-family="system-ui,-apple-system,sans-serif" font-size="11" font-weight="600">[P2]</text>
  <text x="570" y="164" fill="#141413" font-family="system-ui,-apple-system,sans-serif" font-size="11">user_api.py</text>
  <text x="542" y="180" fill="#78716c" font-family="system-ui,-apple-system,sans-serif" font-size="10">缺少测试覆盖</text>
  <circle cx="525" cy="202" r="10" fill="#e3dacc" stroke="#d1cfc5" stroke-width="1.5"/>
  <text x="525" y="206" fill="#78716c" font-family="system-ui,-apple-system,sans-serif" font-size="10" font-weight="700" text-anchor="middle">4</text>
  <text x="542" y="200" fill="#b45309" font-family="system-ui,-apple-system,sans-serif" font-size="11" font-weight="600">[P2]</text>
  <text x="570" y="200" fill="#141413" font-family="system-ui,-apple-system,sans-serif" font-size="11">auth_service</text>
  <text x="542" y="216" fill="#78716c" font-family="system-ui,-apple-system,sans-serif" font-size="10">文档过时</text>
  <circle cx="525" cy="238" r="10" fill="#e3dacc" stroke="#d1cfc5" stroke-width="1.5"/>
  <text x="525" y="242" fill="#78716c" font-family="system-ui,-apple-system,sans-serif" font-size="10" font-weight="700" text-anchor="middle">5</text>
  <text x="542" y="236" fill="#b45309" font-family="system-ui,-apple-system,sans-serif" font-size="11" font-weight="600">[P2]</text>
  <text x="570" y="236" fill="#141413" font-family="system-ui,-apple-system,sans-serif" font-size="11">database.py</text>
  <text x="542" y="252" fill="#78716c" font-family="system-ui,-apple-system,sans-serif" font-size="10">重复代码</text>
  <rect width="10" height="10" x="25" y="290" fill="#fef3c7" stroke="#d97706" rx="2"/>
  <text x="40" y="299" fill="#87867f" font-family="system-ui,-apple-system,sans-serif" font-size="10">高优先级</text>
  <rect width="10" height="10" x="110" y="290" fill="#e3dacc" stroke="#d1cfc5" rx="2"/>
  <text x="125" y="299" fill="#87867f" font-family="system-ui,-apple-system,sans-serif" font-size="10">中优先级</text>
  <rect width="10" height="10" x="195" y="290" fill="#d97757" rx="2"/>
  <text x="210" y="299" fill="#87867f" font-family="system-ui,-apple-system,sans-serif" font-size="10">代码债务</text>
  <rect width="10" height="10" x="280" y="290" fill="#2563eb" rx="2"/>
  <text x="295" y="299" fill="#87867f" font-family="system-ui,-apple-system,sans-serif" font-size="10">测试债务</text>
  <rect width="10" height="10" x="360" y="290" fill="#059669" rx="2"/>
  <text x="375" y="299" fill="#87867f" font-family="system-ui,-apple-system,sans-serif" font-size="10">架构债务</text>
  <rect width="10" height="10" x="440" y="290" fill="#87867f" rx="2"/>
  <text x="455" y="299" fill="#87867f" font-family="system-ui,-apple-system,sans-serif" font-size="10">文档债务</text>
</svg>
