<svg xmlns="http://www.w3.org/2000/svg" font-family="ui-serif, Georgia, serif" viewBox="0 0 560 200"><path fill="#faf9f5" d="M0 0h560v200H0z"/><text x="280" y="20" fill="#141413" font-size="13" font-weight="500" letter-spacing="-.02em" text-anchor="middle">三层术语架构：业务语言到代码命名</text><text x="280" y="36" fill="#87867f" font-family="ui-monospace, monospace" font-size="9.5" text-anchor="middle">postcodeengineering.com · 2025/05/14</text><rect width="480" height="52" x="40" y="50" fill="#fff" stroke="#d97757" stroke-width="1.8" rx="6"/><rect width="480" height="20" x="40" y="50" fill="#fef3c7" stroke="#d97757" rx="6"/><text x="60" y="66" fill="#d97757" font-family="ui-monospace, monospace" font-size="10" font-weight="600">L3 · 业务层</text><text x="140" y="66" fill="#141413" font-size="12" font-weight="600">Business Language</text><text x="60" y="84" fill="#87867f" font-size="10">业务专家使用的自然语言</text><text x="60" y="96" fill="#87867f" font-size="9.5">示例：客户、订单、支付、退款</text><rect width="18" height="18" x="490" y="62" fill="#d97757" rx="9"/><text x="499" y="75" fill="#fff" font-family="ui-monospace, monospace" font-size="9" text-anchor="middle">L3</text><path stroke="#d1cfc5" stroke-width="1.5" d="M280 102v10"/><path fill="#d1cfc5" d="m276 112 4 8 4-18z"/><rect width="480" height="44" x="40" y="120" fill="#fff" stroke="#2563eb" stroke-width="1.5" rx="6"/><rect width="480" height="18" x="40" y="120" fill="#dbeafe" stroke="#2563eb" rx="6"/><text x="60" y="135" fill="#2563eb" font-family="ui-monospace, monospace" font-size="10" font-weight="600">L2 · 映射层</text><text x="140" y="135" fill="#141413" font-size="12" font-weight="600">Mapping Layer</text><text x="60" y="152" fill="#87867f" font-size="10">业务术语与代码命名的对应关系</text><text x="60" y="164" fill="#87867f" font-size="9.5">示例：客户 → Customer</text><rect width="18" height="18" x="490" y="130" fill="#2563eb" rx="9"/><text x="499" y="143" fill="#fff" font-family="ui-monospace, monospace" font-size="9" text-anchor="middle">L2</text><path stroke="#d1cfc5" stroke-width="1.5" d="M280 164v10"/><path fill="#d1cfc5" d="m276 174 4 8 4-8z"/><rect width="480" height="18" x="40" y="182" fill="#d1fae5" stroke="#059669" stroke-width="1.5" rx="5"/><text x="60" y="194" fill="#059669" font-family="ui-monospace, monospace" font-size="10" font-weight="600">L1 · 代码层</text><text x="140" y="194" fill="#141413" font-size="12" font-weight="600">Code Language</text><text x="300" y="194" fill="#87867f" font-size="10">类、方法、变量命名：Customer、Order、PaymentService</text><rect width="18" height="12" x="490" y="185" fill="#059669" rx="6"/><text x="499" y="194" fill="#fff" font-family="ui-monospace, monospace" font-size="8" text-anchor="middle">L1</text></svg>