<svg xmlns="http://www.w3.org/2000/svg" viewBox="0 0 900 540">
  <defs>
    <filter id="shadow" width="110%" height="115%" x="-5%" y="-5%">
      <feDropShadow dx="0" dy="3" flood-color="#141413" flood-opacity=".08" stdDeviation="5"/>
    </filter>
    <style>
      .lvl-desc,.lvl-title,.tag{font-family:&quot;Helvetica Neue&quot;,Arial,sans-serif}.lvl-title{font-size:15px;font-weight:700}.lvl-desc,.tag{font-size:11px}
    </style>
  </defs>
  <path d="M0 0h900v540H0z" style="fill:#faf9f5"/>
  <text x="30" y="34" style="font-family:&quot;Helvetica Neue&quot;,Arial,sans-serif;font-size:22px;font-weight:800;fill:#141413">RAG-DD 企业知识库：四层知识架构</text>
  <text x="30" y="54" style="font-family:&quot;Helvetica Neue&quot;,Arial,sans-serif;font-size:13px;fill:#87867f">编码规范 → 架构模式 → 业务规则 → 历史代码，层层递进构成企业知识体系</text>
  <path d="M30 64h840" style="stroke:#d1cfc5;stroke-width:1"/>
  <g transform="translate(30 80)">
    <rect width="400" height="90" fill="#faf9f5" stroke="#d1cfc5" stroke-width="1.5" filter="url(#shadow)" rx="12"/>
    <rect width="400" height="6" fill="#d97757" rx="3"/>
    <text x="18" y="78" fill="#d97757" font-family="Helvetica Neue, Arial" font-size="40" font-weight="800">4</text>
    <text x="50" y="34" fill="#faf9f5" class="lvl-title" font-size="16">历史代码 Historical Code</text>
    <text x="50" y="52" fill="#87867f" class="lvl-desc">参考实现 · 模式库 · ADR 架构决策记录</text>
    <g transform="translate(50 64)">
      <rect width="70" height="16" fill="#d97757" opacity=".2" rx="4"/>
      <text x="35" y="11" fill="#d97757" class="tag" font-size="10" text-anchor="middle">patterns/</text>
      <rect width="70" height="16" x="78" fill="#d97757" opacity=".2" rx="4"/>
      <text x="113" y="11" fill="#d97757" class="tag" font-size="10" text-anchor="middle">examples/</text>
      <rect width="70" height="16" x="156" fill="#d97757" opacity=".2" rx="4"/>
      <text x="191" y="11" fill="#d97757" class="tag" font-size="10" text-anchor="middle">decisions/</text>
    </g>
  </g>
  <path stroke="#d1cfc5" stroke-width="2" d="M228 172v14"/>
  <path fill="#d1cfc5" d="M223 186h10l-5 6z"/>
  <g transform="translate(30 194)">
    <rect width="400" height="90" fill="#fff" stroke="#d1cfc5" stroke-width="1.5" filter="url(#shadow)" rx="12"/>
    <rect width="400" height="6" fill="#87867f" rx="3"/>
    <text x="18" y="78" fill="#d1cfc5" font-family="Helvetica Neue, Arial" font-size="40" font-weight="800">3</text>
    <text x="50" y="34" fill="#141413" class="lvl-title" font-size="16">业务规则 Business Rules</text>
    <text x="50" y="52" fill="#87867f" class="lvl-desc">密码策略 · MFA 要求 · 定价规则 · 折扣逻辑</text>
    <g transform="translate(50 64)">
      <rect width="110" height="16" fill="#87867f" opacity=".15" rx="4"/>
      <text x="115" y="11" fill="#87867f" class="tag" font-size="10" text-anchor="middle">password_policy</text>
      <rect width="80" height="16" x="170" fill="#87867f" opacity=".15" rx="4"/>
      <text x="210" y="11" fill="#87867f" class="tag" font-size="10" text-anchor="middle">pricing</text>
      <rect width="90" height="16" x="258" fill="#87867f" opacity=".15" rx="4"/>
      <text x="303" y="11" fill="#87867f" class="tag" font-size="10" text-anchor="middle">discount_rules</text>
    </g>
  </g>
  <path stroke="#d1cfc5" stroke-width="2" d="M228 286v14"/>
  <path fill="#d1cfc5" d="M223 300h10l-5 6z"/>
  <g transform="translate(30 308)">
    <rect width="400" height="90" fill="#fff" stroke="#d1cfc5" stroke-width="1.5" filter="url(#shadow)" rx="12"/>
    <rect width="400" height="6" fill="#d1cfc5" rx="3"/>
    <text x="18" y="78" fill="#d1cfc5" font-family="Helvetica Neue, Arial" font-size="40" font-weight="800">2</text>
    <text x="50" y="34" fill="#141413" class="lvl-title" font-size="16">架构模式 Architecture Patterns</text>
    <text x="50" y="52" fill="#87867f" class="lvl-desc">微服务通信 · Repository + UoW · Redis 缓存 · 异常处理</text>
    <g transform="translate(50 64)">
      <rect width="80" height="16" fill="#d1cfc5" opacity=".3" rx="4"/>
      <text x="95" y="11" fill="#87867f" class="tag" font-size="10" text-anchor="middle">microservices</text>
      <rect width="90" height="16" x="138" fill="#d1cfc5" opacity=".3" rx="4"/>
      <text x="183" y="11" fill="#87867f" class="tag" font-size="10" text-anchor="middle">data_access</text>
      <rect width="90" height="16" x="236" fill="#d1cfc5" opacity=".3" rx="4"/>
      <text x="281" y="11" fill="#87867f" class="tag" font-size="10" text-anchor="middle">error_handling</text>
    </g>
  </g>
  <path stroke="#d1cfc5" stroke-width="2" d="M228 400v14"/>
  <path fill="#d1cfc5" d="M223 414h10l-5 6z"/>
  <g transform="translate(30 422)">
    <rect width="400" height="90" fill="#fff" stroke="#d1cfc5" stroke-width="1.5" filter="url(#shadow)" rx="12"/>
    <rect width="400" height="6" fill="#788c5d" rx="3"/>
    <text x="18" y="78" fill="#788c5d" font-family="Helvetica Neue, Arial" font-size="40" font-weight="800" opacity=".3">1</text>
    <text x="50" y="34" fill="#141413" class="lvl-title" font-size="16">编码规范 Coding Standards</text>
    <text x="50" y="52" fill="#87867f" class="lvl-desc">PEP8 · 参数化查询 · Argon2id 密码哈希 · AWS Secrets Manager</text>
    <g transform="translate(50 64)">
      <rect width="50" height="16" fill="#788c5d" opacity=".2" rx="4"/>
      <text x="75" y="11" fill="#788c5d" class="tag" font-size="10" text-anchor="middle">style</text>
      <rect width="70" height="16" x="108" fill="#788c5d" opacity=".2" rx="4"/>
      <text x="143" y="11" fill="#788c5d" class="tag" font-size="10" text-anchor="middle">security</text>
      <rect width="60" height="16" x="186" fill="#788c5d" opacity=".2" rx="4"/>
      <text x="216" y="11" fill="#788c5d" class="tag" font-size="10" text-anchor="middle">naming</text>
    </g>
  </g>
  <g transform="translate(480 80)">
    <rect width="390" height="170" fill="#fff" stroke="#d1cfc5" stroke-width="1.5" filter="url(#shadow)" rx="14"/>
    <rect width="390" height="44" fill="#141413" rx="14"/>
    <path fill="#141413" d="M0 14h390v30H0z"/>
    <text x="20" y="28" fill="#faf9f5" font-family="Helvetica Neue, Arial" font-size="13" font-weight="700">向量数据库 Vector Store</text>
    <g transform="translate(20 56)">
      <rect width="120" height="88" fill="#e3dacc" rx="8"/>
      <path stroke="#d1cfc5" d="M20 70h80M20 82h80M20 94h80M60 58v68"/>
      <text x="20" y="66" fill="#87867f" font-family="Courier New" font-size="8">chunk_id</text>
      <text x="20" y="78" fill="#87867f" font-family="Courier New" font-size="8">embedding</text>
      <text x="20" y="90" fill="#87867f" font-family="Courier New" font-size="8">content</text>
      <text x="20" y="102" fill="#87867f" font-family="Courier New" font-size="8">metadata</text>
    </g>
    <text fill="#141413" font-family="Helvetica Neue" font-size="11" font-weight="700" transform="translate(155 56)">chunk_id</text>
    <text y="14" fill="#87867f" font-family="Helvetica Neue" font-size="10" transform="translate(155 56)">唯一标识</text>
    <text fill="#141413" font-family="Helvetica Neue" font-size="11" font-weight="700" transform="translate(155 82)">embedding</text>
    <text y="14" fill="#87867f" font-family="Helvetica Neue" font-size="10" transform="translate(155 82)">1536维向量</text>
    <text fill="#141413" font-family="Helvetica Neue" font-size="11" font-weight="700" transform="translate(155 108)">content</text>
    <text y="14" fill="#87867f" font-family="Helvetica Neue" font-size="10" transform="translate(155 108)">知识文本块</text>
    <text fill="#141413" font-family="Helvetica Neue" font-size="11" font-weight="700" transform="translate(155 134)">metadata</text>
    <text y="14" fill="#87867f" font-family="Helvetica Neue" font-size="10" transform="translate(155 134)">{type, source, tags}</text>
  </g>
  <g transform="translate(480 268)">
    <rect width="390" height="200" fill="#fff" stroke="#d1cfc5" stroke-width="1.5" filter="url(#shadow)" rx="14"/>
    <rect width="390" height="44" fill="#788c5d" rx="14"/>
    <path fill="#788c5d" d="M0 14h390v30H0z"/>
    <text x="20" y="28" fill="#faf9f5" font-family="Helvetica Neue" font-size="13" font-weight="700">检索融合流程 Retrieval Fusion</text>
    <g transform="translate(16 56)">
      <rect width="110" height="58" fill="#e3dacc" rx="8"/>
      <text x="55" y="18" fill="#141413" font-family="Helvetica Neue" font-size="11" font-weight="700" text-anchor="middle">意图解析</text>
      <text x="55" y="32" fill="#87867f" font-family="Helvetica Neue" font-size="9" text-anchor="middle">Intent Parser</text>
      <text x="55" y="46" fill="#141413" font-family="Courier New" font-size="8" text-anchor="middle">{domain, op}</text>
    </g>
    <text x="132" y="85" fill="#d1cfc5" font-size="16" text-anchor="middle">→</text>
    <g transform="translate(144 56)">
      <rect width="110" height="58" fill="#e3dacc" rx="8"/>
      <text x="55" y="18" fill="#141413" font-family="Helvetica Neue" font-size="11" font-weight="700" text-anchor="middle">多维检索</text>
      <text x="55" y="32" fill="#87867f" font-family="Helvetica Neue" font-size="9" text-anchor="middle">Multi-Dim Search</text>
      <text x="55" y="46" fill="#141413" font-family="Courier New" font-size="8" text-anchor="middle">top_k=5</text>
    </g>
    <text x="260" y="85" fill="#d1cfc5" font-size="16" text-anchor="middle">→</text>
    <g transform="translate(272 56)">
      <rect width="110" height="58" fill="#e3dacc" rx="8"/>
      <text x="55" y="18" fill="#141413" font-family="Helvetica Neue" font-size="11" font-weight="700" text-anchor="middle">上下文融合</text>
      <text x="55" y="32" fill="#87867f" font-family="Helvetica Neue" font-size="9" text-anchor="middle">Fusion Engine</text>
      <text x="55" y="46" fill="#141413" font-family="Courier New" font-size="8" text-anchor="middle">prompt += kb</text>
    </g>
    <g transform="translate(16 126)">
      <rect width="80" height="24" fill="#141413" rx="6"/>
      <text x="40" y="16" fill="#faf9f5" font-family="Helvetica Neue" font-size="10" text-anchor="middle">coding_standards</text>
      <rect width="80" height="24" x="88" fill="#141413" rx="6"/>
      <text x="128" y="16" fill="#faf9f5" font-family="Helvetica Neue" font-size="10" text-anchor="middle">arch_patterns</text>
      <rect width="80" height="24" x="176" fill="#141413" rx="6"/>
      <text x="216" y="16" fill="#faf9f5" font-family="Helvetica Neue" font-size="10" text-anchor="middle">business_rules</text>
      <rect width="80" height="24" x="264" fill="#141413" rx="6"/>
      <text x="304" y="16" fill="#faf9f5" font-family="Helvetica Neue" font-size="10" text-anchor="middle">similar_code</text>
    </g>
  </g>
  <rect width="840" height="32" x="30" y="526" fill="#e3dacc" opacity=".5" rx="8"/>
  <text x="50" y="546" fill="#141413" font-family="Helvetica Neue" font-size="12" font-weight="600">💡 核心洞察</text>
  <text x="148" y="546" fill="#87867f" font-family="Helvetica Neue" font-size="12">知识库不是一次性的 — 定期更新 + 版本控制 + 使用反馈 + 自动化入库</text>
</svg>
