<svg xmlns="http://www.w3.org/2000/svg" font-family="ui-serif, Georgia, serif" viewBox="0 0 680 360"><title>Context Engineering 数据流</title><desc>从数据源到检索的完整数据管道：结构化数据、非结构化文档、知识图谱、实时系统 → 向量数据库 + 图数据库 → 多策略检索 → Context 窗口</desc><path fill="#faf9f5" d="M0 0h680v360H0z"/><text x="340" y="26" fill="#141413" font-size="14" font-weight="500" letter-spacing="-.02em" text-anchor="middle">Context Engineering · 数据管道</text><text x="340" y="42" fill="#87867f" font-family="ui-monospace, monospace" font-size="10" text-anchor="middle">数据源 → 处理 → 检索 → Context 窗口</text><text x="60" y="68" fill="#87867f" font-family="ui-monospace, monospace" font-size="10">数据源</text><rect width="110" height="44" x="20" y="76" fill="#fff" stroke="#d97757" stroke-width="1.5" rx="6"/><text x="75" y="94" fill="#d97757" font-family="ui-monospace, monospace" font-size="10" font-weight="600" text-anchor="middle">结构化数据</text><text x="75" y="110" fill="#141413" font-size="9" text-anchor="middle">关系数据库</text><rect width="110" height="44" x="20" y="126" fill="#fff" stroke="#d1cfc5" stroke-width="1.5" rx="6"/><text x="75" y="144" fill="#87867f" font-family="ui-monospace, monospace" font-size="10" font-weight="600" text-anchor="middle">非结构化文档</text><text x="75" y="160" fill="#141413" font-size="9" text-anchor="middle">Markdown · PDF</text><rect width="110" height="44" x="20" y="176" fill="#fff" stroke="#d1cfc5" stroke-width="1.5" rx="6"/><text x="75" y="194" fill="#87867f" font-family="ui-monospace, monospace" font-size="10" font-weight="600" text-anchor="middle">知识图谱</text><text x="75" y="210" fill="#141413" font-size="9" text-anchor="middle">实体 · 关系</text><rect width="110" height="44" x="20" y="226" fill="#fff" stroke="#d1cfc5" stroke-width="1.5" rx="6"/><text x="75" y="244" fill="#87867f" font-family="ui-monospace, monospace" font-size="10" font-weight="600" text-anchor="middle">实时系统</text><text x="75" y="260" fill="#141413" font-size="9" text-anchor="middle">库存 · 物流</text><rect width="100" height="194" x="155" y="76" fill="#f0eee6" stroke="#d97757" stroke-width="1.5" rx="8"/><text x="205" y="100" fill="#d97757" font-family="ui-monospace, monospace" font-size="11" font-weight="600" text-anchor="middle">处理层</text><text x="205" y="122" fill="#141413" font-size="9" text-anchor="middle">Embedding</text><text x="205" y="138" fill="#141413" font-size="9" text-anchor="middle">向量化</text><text x="205" y="160" fill="#d97757" font-family="ui-monospace, monospace" font-size="11" font-weight="600" text-anchor="middle">存储层</text><text x="205" y="182" fill="#141413" font-size="9" text-anchor="middle">索引构建</text><text x="205" y="198" fill="#141413" font-size="9" text-anchor="middle">缓存管理</text><text x="205" y="220" fill="#d97757" font-family="ui-monospace, monospace" font-size="11" font-weight="600" text-anchor="middle">检索层</text><text x="205" y="242" fill="#141413" font-size="9" text-anchor="middle">Query 解析</text><text x="205" y="258" fill="#141413" font-size="9" text-anchor="middle">重排序</text><path stroke="#d97757" stroke-width="1.5" d="M130 98h15"/><path fill="#d97757" d="m145 94-6 4 6 4z"/><path stroke="#d1cfc5" stroke-width="1.5" d="M130 148h15"/><path fill="#d1cfc5" d="m145 144-6 4 6 4z"/><path stroke="#d1cfc5" stroke-width="1.5" d="M130 198h15"/><path fill="#d1cfc5" d="m145 194-6 4 6 4z"/><path stroke="#d1cfc5" stroke-width="1.5" d="M130 248h15"/><path fill="#d1cfc5" d="m145 244-6 4 6 4z"/><rect width="130" height="60" x="280" y="76" fill="#fff" stroke="#d97757" stroke-width="1.8" rx="8"/><text x="345" y="98" fill="#d97757" font-family="ui-monospace, monospace" font-size="11" font-weight="600" text-anchor="middle">向量数据库</text><text x="345" y="116" fill="#141413" font-size="9" text-anchor="middle">语义搜索</text><text x="345" y="130" fill="#788c5d" font-family="ui-monospace, monospace" font-size="9" text-anchor="middle">Pinecone / Milvus</text><rect width="130" height="60" x="280" y="146" fill="#fff" stroke="#d1cfc5" stroke-width="1.5" rx="8"/><text x="345" y="168" fill="#87867f" font-family="ui-monospace, monospace" font-size="11" font-weight="600" text-anchor="middle">图数据库</text><text x="345" y="186" fill="#141413" font-size="9" text-anchor="middle">关系查询</text><text x="345" y="200" fill="#788c5d" font-family="ui-monospace, monospace" font-size="9" text-anchor="middle">Neo4j / Nebula</text><rect width="130" height="54" x="280" y="216" fill="#fff" stroke="#d1cfc5" stroke-width="1.5" rx="8"/><text x="345" y="238" fill="#87867f" font-family="ui-monospace, monospace" font-size="11" font-weight="600" text-anchor="middle">缓存层</text><text x="345" y="256" fill="#141413" font-size="9" text-anchor="middle">热点数据加速</text><text x="345" y="268" fill="#788c5d" font-family="ui-monospace, monospace" font-size="9" text-anchor="middle">Redis</text><path stroke="#d97757" stroke-width="1.5" d="m255 120 15-14"/><path fill="#d97757" d="m270 102-7 6 4 6z"/><path stroke="#d1cfc5" stroke-width="1.5" d="M255 173h15"/><path fill="#d1cfc5" d="m270 169-7 4 7 4z"/><path stroke="#d1cfc5" stroke-width="1.5" d="M255 243h15"/><path fill="#d1cfc5" d="m270 239-7 4 7 4z"/><rect width="130" height="194" x="435" y="76" fill="#f0eee6" stroke="#d97757" stroke-width="1.5" rx="8"/><text x="500" y="100" fill="#d97757" font-family="ui-monospace, monospace" font-size="11" font-weight="600" text-anchor="middle">多策略检索</text><rect width="106" height="36" x="447" y="112" fill="#fff" stroke="#d97757" rx="5"/><text x="500" y="130" fill="#141413" font-size="9.5" text-anchor="middle">语义搜索</text><text x="500" y="143" fill="#87867f" font-family="ui-monospace, monospace" font-size="8.5" text-anchor="middle">向量相似度</text><rect width="106" height="36" x="447" y="154" fill="#fff" stroke="#d1cfc5" rx="5"/><text x="500" y="172" fill="#141413" font-size="9.5" text-anchor="middle">关键词搜索</text><text x="500" y="185" fill="#87867f" font-family="ui-monospace, monospace" font-size="8.5" text-anchor="middle">BM25 / TF-IDF</text><rect width="106" height="36" x="447" y="196" fill="#fff" stroke="#d1cfc5" rx="5"/><text x="500" y="214" fill="#141413" font-size="9.5" text-anchor="middle">图遍历</text><text x="500" y="227" fill="#87867f" font-family="ui-monospace, monospace" font-size="8.5" text-anchor="middle">关系路径推理</text><path stroke="#d97757" stroke-width="1.5" d="m410 106 27 24"/><path fill="#d97757" d="m437 127-7 5 5 4z"/><path stroke="#d1cfc5" stroke-width="1.5" d="m410 176 27-4"/><path fill="#d1cfc5" d="m437 168-7 4 7 4z"/><path stroke="#d1cfc5" stroke-width="1.5" d="m410 243 27-29"/><path fill="#d1cfc5" d="m437 211-7 5 5 4z"/><rect width="75" height="146" x="585" y="100" fill="#fff" stroke="#d97757" stroke-width="2" rx="8"/><text x="622" y="124" fill="#d97757" font-family="ui-monospace, monospace" font-size="10" font-weight="600" text-anchor="middle">Context</text><text x="622" y="140" fill="#d97757" font-family="ui-monospace, monospace" font-size="10" font-weight="600" text-anchor="middle">Window</text><text x="622" y="160" fill="#141413" font-size="8.5" text-anchor="middle">最相关的</text><text x="622" y="174" fill="#141413" font-size="8.5" text-anchor="middle">上下文片段</text><text x="622" y="200" fill="#d97757" font-family="ui-monospace, monospace" font-size="9" text-anchor="middle">→ LLM</text><path stroke="#d97757" stroke-width="1.5" d="M565 173h10"/><path fill="#d97757" d="m575 169-7 4 7 4z"/><rect width="8" height="8" x="20" y="306" fill="#d97757" rx="2"/><text x="34" y="314" fill="#87867f" font-family="ui-monospace, monospace" font-size="9">核心管道</text><rect width="8" height="8" x="100" y="306" fill="#d1cfc5" rx="2"/><text x="114" y="314" fill="#87867f" font-family="ui-monospace, monospace" font-size="9">支持管道</text><rect width="8" height="8" x="185" y="306" fill="#788c5d" rx="2"/><text x="199" y="314" fill="#87867f" font-family="ui-monospace, monospace" font-size="9">技术栈</text><text x="340" y="340" fill="#87867f" font-size="9" font-style="italic" text-anchor="middle">多策略检索组合：语义 + 关键词 + 图遍历，结果经重排序后送入 Context Window</text></svg>