<svg xmlns="http://www.w3.org/2000/svg" font-family="ui-serif, Georgia, 'Times New Roman', serif" viewBox="0 0 680 300">
  <path fill="#faf9f5" d="M0 0h680v300H0z"/>
  <text x="340" y="26" fill="#141413" font-size="15" font-weight="500" letter-spacing="-.02em" text-anchor="middle">User Story Pack 核心概念</text>
  <text x="340" y="44" fill="#87867f" font-family="ui-monospace, monospace" font-size="10" text-anchor="middle">aazh2026 · 2025/04/28</text>
  <rect width="170" height="140" x="30" y="70" fill="#fff" stroke="#87867f" stroke-width="1.8" rx="10"/>
  <rect width="170" height="32" x="30" y="70" fill="#87867f" rx="10"/>
  <path fill="#87867f" d="M30 88h170v14H30z"/>
  <text x="115" y="90" fill="#fff" font-family="ui-monospace, monospace" font-size="11" font-weight="600" text-anchor="middle">Stage 1</text>
  <text x="115" y="125" fill="#141413" font-size="12.5" text-anchor="middle">自然语言用户故事</text>
  <text x="115" y="145" fill="#87867f" font-size="10.5" text-anchor="middle">As a … I want …</text>
  <text x="115" y="165" fill="#87867f" font-size="10.5" text-anchor="middle">So that …</text>
  <text x="115" y="195" fill="#87867f" font-size="10" text-anchor="middle">给人读 · 自然语言</text>
  <rect width="106" height="18" x="62" y="202" fill="#e8e6df" stroke="#d1cfc5" rx="9"/>
  <text x="115" y="215" fill="#87867f" font-family="ui-monospace, monospace" font-size="9" text-anchor="middle">无法自动验证</text>
  <path stroke="#d97757" stroke-width="2" d="M200 140h45"/>
  <path fill="#d97757" d="m245 135-8 8v-6z"/>
  <text x="222" y="132" fill="#d97757" font-family="ui-monospace, monospace" font-size="9" text-anchor="middle">手动解读</text>
  <rect width="180" height="140" x="250" y="70" fill="#fff" stroke="#d97757" stroke-width="2" rx="10"/>
  <rect width="180" height="32" x="250" y="70" fill="#d97757" rx="10"/>
  <path fill="#d97757" d="M250 88h180v14H250z"/>
  <text x="340" y="90" fill="#fff" font-family="ui-monospace, monospace" font-size="11" font-weight="600" text-anchor="middle">Stage 2</text>
  <text x="340" y="120" fill="#141413" font-size="12" text-anchor="middle">User Story Pack</text>
  <text x="340" y="138" fill="#87867f" font-size="10" text-anchor="middle">Story · Scenario · Example</text>
  <path stroke="#d1cfc5" d="M268 150h144"/>
  <text x="340" y="165" fill="#d97757" font-size="9.5" text-anchor="middle">结构化 YAML / Gherkin</text>
  <text x="340" y="195" fill="#87867f" font-size="10" text-anchor="middle">机器可解析 · 业务可读</text>
  <rect width="136" height="18" x="272" y="202" fill="#f5ddd0" stroke="#d97757" rx="9"/>
  <text x="340" y="215" fill="#d97757" font-family="ui-monospace, monospace" font-size="9" text-anchor="middle">三层结构化规格</text>
  <path stroke="#d97757" stroke-width="2" d="M430 140h45"/>
  <path fill="#d97757" d="m475 135-8 8v-6z"/>
  <text x="452" y="132" fill="#d97757" font-family="ui-monospace, monospace" font-size="9" text-anchor="middle">自动解析</text>
  <rect width="170" height="140" x="480" y="70" fill="#f0f5ec" stroke="#788c5d" stroke-width="2" rx="10"/>
  <rect width="170" height="32" x="480" y="70" fill="#788c5d" rx="10"/>
  <path fill="#788c5d" d="M480 88h170v14H480z"/>
  <text x="565" y="90" fill="#fff" font-family="ui-monospace, monospace" font-size="11" font-weight="600" text-anchor="middle">Stage 3</text>
  <circle cx="565" cy="135" r="22" fill="#788c5d"/>
  <path fill="none" stroke="#fff" stroke-linecap="round" stroke-linejoin="round" stroke-width="3" d="m554 135 7 8 16-18"/>
  <text x="565" y="168" fill="#141413" font-size="12" text-anchor="middle">可执行测试</text>
  <text x="565" y="186" fill="#788c5d" font-size="10" text-anchor="middle">Given-When-Then</text>
  <text x="565" y="195" fill="#87867f" font-size="10" text-anchor="middle">Behave · Cucumber · pytest-bdd</text>
  <rect width="106" height="18" x="512" y="202" fill="#e3edda" stroke="#788c5d" rx="9"/>
  <text x="565" y="215" fill="#788c5d" font-family="ui-monospace, monospace" font-size="9" text-anchor="middle">验收即测试</text>
  <path stroke="#d1cfc5" d="M30 250h620"/>
  <text x="340" y="266" fill="#87867f" font-family="ui-monospace, monospace" font-size="9" text-anchor="middle">User Story Pack · Story → Scenario → Example → Test</text>
</svg>
