<svg xmlns="http://www.w3.org/2000/svg" font-family="ui-serif, Georgia, serif" viewBox="0 0 560 240"><path fill="#faf9f5" d="M0 0h560v240H0z"/><text x="280" y="20" fill="#141413" font-size="13" font-weight="500" text-anchor="middle">OpenClaw 四层架构模型</text><text x="280" y="36" fill="#87867f" font-family="ui-monospace, monospace" font-size="9.5" text-anchor="middle">postcodeengineering.com · 2025/01/22</text><rect width="480" height="44" x="40" y="50" fill="#fef3c7" stroke="#d97757" stroke-width="2" rx="6"/><text x="60" y="72" fill="#d97757" font-family="ui-monospace, monospace" font-size="10" font-weight="600">L4 · 模型层</text><text x="140" y="72" fill="#141413" font-size="11" font-weight="600">Model Layer</text><text x="140" y="86" fill="#87867f" font-size="9.5">Kimi / GPT / Claude 等大模型 · 推理能力 · 上下文理解</text><path stroke="#d1cfc5" stroke-width="1.5" d="M280 94v10"/><path fill="#d1cfc5" d="m276 104 4 8 4-8z"/><rect width="480" height="44" x="40" y="114" fill="#fed7aa" stroke="#788c5d" stroke-width="1.5" rx="6"/><text x="60" y="136" fill="#788c5d" font-family="ui-monospace, monospace" font-size="10" font-weight="600">L3 · 技能层</text><text x="140" y="136" fill="#141413" font-size="11" font-weight="600">Skill Layer · 13,000+ Skills</text><text x="140" y="150" fill="#87867f" font-size="9.5">工具调用 (GitHub/Notion/Slack) · 领域能力 (SEO/数据分析/编程) · 自动化脚本</text><path stroke="#d1cfc5" stroke-width="1.5" d="M280 158v10"/><path fill="#d1cfc5" d="m276 168 4 8 4-8z"/><rect width="480" height="44" x="40" y="178" fill="#dbeafe" stroke="#788c5d" stroke-width="1.5" rx="6"/><text x="60" y="200" fill="#788c5d" font-family="ui-monospace, monospace" font-size="10" font-weight="600">L2 · 执行层</text><text x="140" y="200" fill="#141413" font-size="11" font-weight="600">Execution Layer · Cron / Agent / Workflow</text><text x="140" y="214" fill="#87867f" font-size="9.5">定时任务 · 多步骤编排 · 异常处理</text><path stroke="#d1cfc5" d="M40 228h480"/><text x="280" y="238" fill="#87867f" font-size="9" font-style="italic" text-anchor="middle">从模型理解到技能执行，层层递进，最终落地为可执行的任务编排</text></svg>