<svg xmlns="http://www.w3.org/2000/svg" viewBox="0 0 554 346">
  <defs>
    <style>
      text{font-family:&quot;SF Mono&quot;,&quot;Menlo&quot;,&quot;Monaco&quot;,&quot;Courier New&quot;,monospace}
    </style>
  </defs>
  <path fill="#faf9f5" d="M0 0h554v346H0z"/>
  <rect width="546" height="338" x="4" y="4" fill="none" stroke="#d1cfc5" rx="4"/>
  <text x="21" y="33.5" fill="#141413" font-family="monospace" font-size="12">p</text>
  <text x="31.5" y="33.5" fill="#141413" font-family="monospace" font-size="12">r</text>
  <text x="42" y="33.5" fill="#141413" font-family="monospace" font-size="12">o</text>
  <text x="52.5" y="33.5" fill="#141413" font-family="monospace" font-size="12">m</text>
  <text x="63" y="33.5" fill="#141413" font-family="monospace" font-size="12">p</text>
  <text x="73.5" y="33.5" fill="#141413" font-family="monospace" font-size="12">t</text>
  <text x="84" y="33.5" fill="#141413" font-family="monospace" font-size="12">s</text>
  <text x="94.5" y="33.5" fill="#141413" font-family="monospace" font-size="12">/</text>
  <path fill="none" stroke="#141413" stroke-width="1.5" d="M30.5 38.5H20V57"/>
  <path stroke="#141413" stroke-width="1.5" d="M30.5 47.8H20m10.5 0H41m0 0h10.5"/>
  <text x="63" y="52" fill="#141413" font-family="monospace" font-size="12">R</text>
  <text x="73.5" y="52" fill="#141413" font-family="monospace" font-size="12">E</text>
  <text x="84" y="52" fill="#141413" font-family="monospace" font-size="12">A</text>
  <text x="94.5" y="52" fill="#141413" font-family="monospace" font-size="12">D</text>
  <text x="105" y="52" fill="#141413" font-family="monospace" font-size="12">M</text>
  <text x="115.5" y="52" fill="#141413" font-family="monospace" font-size="12">E</text>
  <text x="126" y="52" fill="#141413" font-family="monospace" font-size="12">.</text>
  <text x="136.5" y="52" fill="#141413" font-family="monospace" font-size="12">m</text>
  <text x="147" y="52" fill="#141413" font-family="monospace" font-size="12">d</text>
  <text x="336" y="52" fill="#141413" font-family="monospace" font-size="12">#</text>
  <text x="357" y="52" fill="#141413" font-family="monospace" font-size="12">P</text>
  <text x="367.5" y="52" fill="#141413" font-family="monospace" font-size="12">r</text>
  <text x="378" y="52" fill="#141413" font-family="monospace" font-size="12">o</text>
  <text x="388.5" y="52" fill="#141413" font-family="monospace" font-size="12">m</text>
  <text x="399" y="52" fill="#141413" font-family="monospace" font-size="12">p</text>
  <text x="409.5" y="52" fill="#141413" font-family="monospace" font-size="12">t</text>
  <text x="420" y="52" fill="#141413" font-family="monospace" font-size="12">库</text>
  <text x="430.5" y="52" fill="#141413" font-family="monospace" font-size="12">说</text>
  <text x="441" y="52" fill="#141413" font-family="monospace" font-size="12">明</text>
  <path fill="none" stroke="#141413" stroke-width="1.5" d="M30.5 57H20v18.5"/>
  <path stroke="#141413" stroke-width="1.5" d="M30.5 66.2H20m10.5 0H41m0 0h10.5"/>
  <text x="63" y="70.5" fill="#141413" font-family="monospace" font-size="12">C</text>
  <text x="73.5" y="70.5" fill="#141413" font-family="monospace" font-size="12">O</text>
  <text x="84" y="70.5" fill="#141413" font-family="monospace" font-size="12">N</text>
  <text x="94.5" y="70.5" fill="#141413" font-family="monospace" font-size="12">T</text>
  <text x="105" y="70.5" fill="#141413" font-family="monospace" font-size="12">R</text>
  <text x="115.5" y="70.5" fill="#141413" font-family="monospace" font-size="12">I</text>
  <text x="126" y="70.5" fill="#141413" font-family="monospace" font-size="12">B</text>
  <text x="136.5" y="70.5" fill="#141413" font-family="monospace" font-size="12">U</text>
  <text x="147" y="70.5" fill="#141413" font-family="monospace" font-size="12">T</text>
  <text x="157.5" y="70.5" fill="#141413" font-family="monospace" font-size="12">I</text>
  <text x="168" y="70.5" fill="#141413" font-family="monospace" font-size="12">N</text>
  <text x="178.5" y="70.5" fill="#141413" font-family="monospace" font-size="12">G</text>
  <text x="189" y="70.5" fill="#141413" font-family="monospace" font-size="12">.</text>
  <text x="199.5" y="70.5" fill="#141413" font-family="monospace" font-size="12">m</text>
  <text x="210" y="70.5" fill="#141413" font-family="monospace" font-size="12">d</text>
  <text x="336" y="70.5" fill="#141413" font-family="monospace" font-size="12">#</text>
  <text x="357" y="70.5" fill="#141413" font-family="monospace" font-size="12">贡</text>
  <text x="367.5" y="70.5" fill="#141413" font-family="monospace" font-size="12">献</text>
  <text x="378" y="70.5" fill="#141413" font-family="monospace" font-size="12">指</text>
  <text x="388.5" y="70.5" fill="#141413" font-family="monospace" font-size="12">南</text>
  <path fill="none" stroke="#141413" stroke-width="1.5" d="M30.5 75.5H20V94"/>
  <path stroke="#141413" stroke-width="1.5" d="M30.5 84.8H20m10.5 0H41m0 0h10.5"/>
  <text x="63" y="89" fill="#141413" font-family="monospace" font-size="12">.</text>
  <text x="73.5" y="89" fill="#141413" font-family="monospace" font-size="12">p</text>
  <text x="84" y="89" fill="#141413" font-family="monospace" font-size="12">r</text>
  <text x="94.5" y="89" fill="#141413" font-family="monospace" font-size="12">o</text>
  <text x="105" y="89" fill="#141413" font-family="monospace" font-size="12">m</text>
  <text x="115.5" y="89" fill="#141413" font-family="monospace" font-size="12">p</text>
  <text x="126" y="89" fill="#141413" font-family="monospace" font-size="12">t</text>
  <text x="136.5" y="89" fill="#141413" font-family="monospace" font-size="12">-</text>
  <text x="147" y="89" fill="#141413" font-family="monospace" font-size="12">l</text>
  <text x="157.5" y="89" fill="#141413" font-family="monospace" font-size="12">i</text>
  <text x="168" y="89" fill="#141413" font-family="monospace" font-size="12">n</text>
  <text x="178.5" y="89" fill="#141413" font-family="monospace" font-size="12">t</text>
  <text x="189" y="89" fill="#141413" font-family="monospace" font-size="12">.</text>
  <text x="199.5" y="89" fill="#141413" font-family="monospace" font-size="12">y</text>
  <text x="210" y="89" fill="#141413" font-family="monospace" font-size="12">m</text>
  <text x="220.5" y="89" fill="#141413" font-family="monospace" font-size="12">l</text>
  <text x="325.5" y="89" fill="#141413" font-family="monospace" font-size="12">#</text>
  <text x="346.5" y="89" fill="#141413" font-family="monospace" font-size="12">P</text>
  <text x="357" y="89" fill="#141413" font-family="monospace" font-size="12">r</text>
  <text x="367.5" y="89" fill="#141413" font-family="monospace" font-size="12">o</text>
  <text x="378" y="89" fill="#141413" font-family="monospace" font-size="12">m</text>
  <text x="388.5" y="89" fill="#141413" font-family="monospace" font-size="12">p</text>
  <text x="399" y="89" fill="#141413" font-family="monospace" font-size="12">t</text>
  <text x="409.5" y="89" fill="#141413" font-family="monospace" font-size="12">质</text>
  <text x="420" y="89" fill="#141413" font-family="monospace" font-size="12">量</text>
  <text x="430.5" y="89" fill="#141413" font-family="monospace" font-size="12">规</text>
  <text x="441" y="89" fill="#141413" font-family="monospace" font-size="12">则</text>
  <path fill="none" stroke="#141413" stroke-width="1.5" d="M30.5 94H20v18.5"/>
  <path stroke="#141413" stroke-width="1.5" d="M30.5 103.2H20m10.5 0H41m0 0h10.5"/>
  <text x="63" y="107.5" fill="#141413" font-family="monospace" font-size="12">c</text>
  <text x="73.5" y="107.5" fill="#141413" font-family="monospace" font-size="12">o</text>
  <text x="84" y="107.5" fill="#141413" font-family="monospace" font-size="12">m</text>
  <text x="94.5" y="107.5" fill="#141413" font-family="monospace" font-size="12">m</text>
  <text x="105" y="107.5" fill="#141413" font-family="monospace" font-size="12">o</text>
  <text x="115.5" y="107.5" fill="#141413" font-family="monospace" font-size="12">n</text>
  <text x="126" y="107.5" fill="#141413" font-family="monospace" font-size="12">/</text>
  <text x="336" y="107.5" fill="#141413" font-family="monospace" font-size="12">#</text>
  <text x="357" y="107.5" fill="#141413" font-family="monospace" font-size="12">通</text>
  <text x="367.5" y="107.5" fill="#141413" font-family="monospace" font-size="12">用</text>
  <text x="378" y="107.5" fill="#141413" font-family="monospace" font-size="12">P</text>
  <text x="388.5" y="107.5" fill="#141413" font-family="monospace" font-size="12">r</text>
  <text x="399" y="107.5" fill="#141413" font-family="monospace" font-size="12">o</text>
  <text x="409.5" y="107.5" fill="#141413" font-family="monospace" font-size="12">m</text>
  <text x="420" y="107.5" fill="#141413" font-family="monospace" font-size="12">p</text>
  <text x="430.5" y="107.5" fill="#141413" font-family="monospace" font-size="12">t</text>
  <path stroke="#141413" stroke-width="1.5" d="M24.8 112.5V131"/>
  <path fill="none" stroke="#141413" stroke-width="1.5" d="M72.5 112.5H62V131"/>
  <path stroke="#141413" stroke-width="1.5" d="M72.5 121.8H62m10.5 0H83m0 0h10.5"/>
  <text x="105" y="126" fill="#141413" font-family="monospace" font-size="12">c</text>
  <text x="115.5" y="126" fill="#141413" font-family="monospace" font-size="12">o</text>
  <text x="126" y="126" fill="#141413" font-family="monospace" font-size="12">d</text>
  <text x="136.5" y="126" fill="#141413" font-family="monospace" font-size="12">e</text>
  <text x="147" y="126" fill="#141413" font-family="monospace" font-size="12">-</text>
  <text x="157.5" y="126" fill="#141413" font-family="monospace" font-size="12">r</text>
  <text x="168" y="126" fill="#141413" font-family="monospace" font-size="12">e</text>
  <text x="178.5" y="126" fill="#141413" font-family="monospace" font-size="12">v</text>
  <text x="189" y="126" fill="#141413" font-family="monospace" font-size="12">i</text>
  <text x="199.5" y="126" fill="#141413" font-family="monospace" font-size="12">e</text>
  <text x="210" y="126" fill="#141413" font-family="monospace" font-size="12">w</text>
  <text x="220.5" y="126" fill="#141413" font-family="monospace" font-size="12">/</text>
  <path stroke="#141413" stroke-width="1.5" d="M24.8 131v18.5m42-18.5v18.5"/>
  <path fill="none" stroke="#141413" stroke-width="1.5" d="M114.5 131H104v18.5"/>
  <path stroke="#141413" stroke-width="1.5" d="M114.5 140.2H104m10.5 0H125m0 0h10.5"/>
  <text x="147" y="144.5" fill="#141413" font-family="monospace" font-size="12">v</text>
  <text x="157.5" y="144.5" fill="#141413" font-family="monospace" font-size="12">1</text>
  <text x="168" y="144.5" fill="#141413" font-family="monospace" font-size="12">.</text>
  <text x="178.5" y="144.5" fill="#141413" font-family="monospace" font-size="12">0</text>
  <text x="189" y="144.5" fill="#141413" font-family="monospace" font-size="12">.</text>
  <text x="199.5" y="144.5" fill="#141413" font-family="monospace" font-size="12">0</text>
  <text x="210" y="144.5" fill="#141413" font-family="monospace" font-size="12">.</text>
  <text x="220.5" y="144.5" fill="#141413" font-family="monospace" font-size="12">p</text>
  <text x="231" y="144.5" fill="#141413" font-family="monospace" font-size="12">r</text>
  <text x="241.5" y="144.5" fill="#141413" font-family="monospace" font-size="12">o</text>
  <text x="252" y="144.5" fill="#141413" font-family="monospace" font-size="12">m</text>
  <text x="262.5" y="144.5" fill="#141413" font-family="monospace" font-size="12">p</text>
  <text x="273" y="144.5" fill="#141413" font-family="monospace" font-size="12">t</text>
  <text x="325.5" y="144.5" fill="#141413" font-family="monospace" font-size="12">#</text>
  <text x="346.5" y="144.5" fill="#141413" font-family="monospace" font-size="12">版</text>
  <text x="357" y="144.5" fill="#141413" font-family="monospace" font-size="12">本</text>
  <text x="367.5" y="144.5" fill="#141413" font-family="monospace" font-size="12">化</text>
  <text x="378" y="144.5" fill="#141413" font-family="monospace" font-size="12">存</text>
  <text x="388.5" y="144.5" fill="#141413" font-family="monospace" font-size="12">储</text>
  <path stroke="#141413" stroke-width="1.5" d="M24.8 149.5V168m42-18.5V168"/>
  <path fill="none" stroke="#141413" stroke-width="1.5" d="M114.5 149.5H104V168"/>
  <path stroke="#141413" stroke-width="1.5" d="M114.5 158.8H104m10.5 0H125m0 0h10.5"/>
  <text x="147" y="163" fill="#141413" font-family="monospace" font-size="12">v</text>
  <text x="157.5" y="163" fill="#141413" font-family="monospace" font-size="12">1</text>
  <text x="168" y="163" fill="#141413" font-family="monospace" font-size="12">.</text>
  <text x="178.5" y="163" fill="#141413" font-family="monospace" font-size="12">1</text>
  <text x="189" y="163" fill="#141413" font-family="monospace" font-size="12">.</text>
  <text x="199.5" y="163" fill="#141413" font-family="monospace" font-size="12">0</text>
  <text x="210" y="163" fill="#141413" font-family="monospace" font-size="12">.</text>
  <text x="220.5" y="163" fill="#141413" font-family="monospace" font-size="12">p</text>
  <text x="231" y="163" fill="#141413" font-family="monospace" font-size="12">r</text>
  <text x="241.5" y="163" fill="#141413" font-family="monospace" font-size="12">o</text>
  <text x="252" y="163" fill="#141413" font-family="monospace" font-size="12">m</text>
  <text x="262.5" y="163" fill="#141413" font-family="monospace" font-size="12">p</text>
  <text x="273" y="163" fill="#141413" font-family="monospace" font-size="12">t</text>
  <path stroke="#141413" stroke-width="1.5" d="M24.8 168v18.5m42-18.5v18.5"/>
  <path fill="none" stroke="#141413" stroke-width="1.5" d="M114.5 168H104v9.2"/>
  <path stroke="#141413" stroke-width="1.5" d="M114.5 177.2H125m0 0h10.5"/>
  <text x="147" y="181.5" fill="#141413" font-family="monospace" font-size="12">l</text>
  <text x="157.5" y="181.5" fill="#141413" font-family="monospace" font-size="12">a</text>
  <text x="168" y="181.5" fill="#141413" font-family="monospace" font-size="12">t</text>
  <text x="178.5" y="181.5" fill="#141413" font-family="monospace" font-size="12">e</text>
  <text x="189" y="181.5" fill="#141413" font-family="monospace" font-size="12">s</text>
  <text x="199.5" y="181.5" fill="#141413" font-family="monospace" font-size="12">t</text>
  <text x="210" y="181.5" fill="#141413" font-family="monospace" font-size="12">.</text>
  <text x="220.5" y="181.5" fill="#141413" font-family="monospace" font-size="12">p</text>
  <text x="231" y="181.5" fill="#141413" font-family="monospace" font-size="12">r</text>
  <text x="241.5" y="181.5" fill="#141413" font-family="monospace" font-size="12">o</text>
  <text x="252" y="181.5" fill="#141413" font-family="monospace" font-size="12">m</text>
  <text x="262.5" y="181.5" fill="#141413" font-family="monospace" font-size="12">p</text>
  <text x="273" y="181.5" fill="#141413" font-family="monospace" font-size="12">t</text>
  <text x="294" y="181.5" fill="#141413" font-family="monospace" font-size="12">→</text>
  <text x="315" y="181.5" fill="#141413" font-family="monospace" font-size="12">v</text>
  <text x="325.5" y="181.5" fill="#141413" font-family="monospace" font-size="12">1</text>
  <text x="336" y="181.5" fill="#141413" font-family="monospace" font-size="12">.</text>
  <text x="346.5" y="181.5" fill="#141413" font-family="monospace" font-size="12">1</text>
  <text x="357" y="181.5" fill="#141413" font-family="monospace" font-size="12">.</text>
  <text x="367.5" y="181.5" fill="#141413" font-family="monospace" font-size="12">0</text>
  <text x="378" y="181.5" fill="#141413" font-family="monospace" font-size="12">.</text>
  <text x="388.5" y="181.5" fill="#141413" font-family="monospace" font-size="12">p</text>
  <text x="399" y="181.5" fill="#141413" font-family="monospace" font-size="12">r</text>
  <text x="409.5" y="181.5" fill="#141413" font-family="monospace" font-size="12">o</text>
  <text x="420" y="181.5" fill="#141413" font-family="monospace" font-size="12">m</text>
  <text x="430.5" y="181.5" fill="#141413" font-family="monospace" font-size="12">p</text>
  <text x="441" y="181.5" fill="#141413" font-family="monospace" font-size="12">t</text>
  <text x="472.5" y="181.5" fill="#141413" font-family="monospace" font-size="12">#</text>
  <text x="493.5" y="181.5" fill="#141413" font-family="monospace" font-size="12">软</text>
  <text x="504" y="181.5" fill="#141413" font-family="monospace" font-size="12">链</text>
  <text x="514.5" y="181.5" fill="#141413" font-family="monospace" font-size="12">接</text>
  <path stroke="#141413" stroke-width="1.5" d="M24.8 186.5V205"/>
  <path fill="none" stroke="#141413" stroke-width="1.5" d="M72.5 186.5H62v9.3"/>
  <path stroke="#141413" stroke-width="1.5" d="M72.5 195.8H83m0 0h10.5"/>
  <text x="105" y="200" fill="#141413" font-family="monospace" font-size="12">u</text>
  <text x="115.5" y="200" fill="#141413" font-family="monospace" font-size="12">n</text>
  <text x="126" y="200" fill="#141413" font-family="monospace" font-size="12">i</text>
  <text x="136.5" y="200" fill="#141413" font-family="monospace" font-size="12">t</text>
  <text x="147" y="200" fill="#141413" font-family="monospace" font-size="12">-</text>
  <text x="157.5" y="200" fill="#141413" font-family="monospace" font-size="12">t</text>
  <text x="168" y="200" fill="#141413" font-family="monospace" font-size="12">e</text>
  <text x="178.5" y="200" fill="#141413" font-family="monospace" font-size="12">s</text>
  <text x="189" y="200" fill="#141413" font-family="monospace" font-size="12">t</text>
  <text x="199.5" y="200" fill="#141413" font-family="monospace" font-size="12">/</text>
  <path fill="none" stroke="#141413" stroke-width="1.5" d="M30.5 205H20v18.5"/>
  <path stroke="#141413" stroke-width="1.5" d="M30.5 214.2H20m10.5 0H41m0 0h10.5"/>
  <text x="63" y="218.5" fill="#141413" font-family="monospace" font-size="12">b</text>
  <text x="73.5" y="218.5" fill="#141413" font-family="monospace" font-size="12">a</text>
  <text x="84" y="218.5" fill="#141413" font-family="monospace" font-size="12">c</text>
  <text x="94.5" y="218.5" fill="#141413" font-family="monospace" font-size="12">k</text>
  <text x="105" y="218.5" fill="#141413" font-family="monospace" font-size="12">e</text>
  <text x="115.5" y="218.5" fill="#141413" font-family="monospace" font-size="12">n</text>
  <text x="126" y="218.5" fill="#141413" font-family="monospace" font-size="12">d</text>
  <text x="136.5" y="218.5" fill="#141413" font-family="monospace" font-size="12">/</text>
  <text x="336" y="218.5" fill="#141413" font-family="monospace" font-size="12">#</text>
  <text x="357" y="218.5" fill="#141413" font-family="monospace" font-size="12">后</text>
  <text x="367.5" y="218.5" fill="#141413" font-family="monospace" font-size="12">端</text>
  <text x="378" y="218.5" fill="#141413" font-family="monospace" font-size="12">团</text>
  <text x="388.5" y="218.5" fill="#141413" font-family="monospace" font-size="12">队</text>
  <text x="399" y="218.5" fill="#141413" font-family="monospace" font-size="12">P</text>
  <text x="409.5" y="218.5" fill="#141413" font-family="monospace" font-size="12">r</text>
  <text x="420" y="218.5" fill="#141413" font-family="monospace" font-size="12">o</text>
  <text x="430.5" y="218.5" fill="#141413" font-family="monospace" font-size="12">m</text>
  <text x="441" y="218.5" fill="#141413" font-family="monospace" font-size="12">p</text>
  <text x="451.5" y="218.5" fill="#141413" font-family="monospace" font-size="12">t</text>
  <path stroke="#141413" stroke-width="1.5" d="M24.8 223.5V242"/>
  <path fill="none" stroke="#141413" stroke-width="1.5" d="M72.5 223.5H62v9.3"/>
  <path stroke="#141413" stroke-width="1.5" d="M72.5 232.8H83m0 0h10.5"/>
  <text x="105" y="237" fill="#141413" font-family="monospace" font-size="12">a</text>
  <text x="115.5" y="237" fill="#141413" font-family="monospace" font-size="12">p</text>
  <text x="126" y="237" fill="#141413" font-family="monospace" font-size="12">i</text>
  <text x="136.5" y="237" fill="#141413" font-family="monospace" font-size="12">-</text>
  <text x="147" y="237" fill="#141413" font-family="monospace" font-size="12">d</text>
  <text x="157.5" y="237" fill="#141413" font-family="monospace" font-size="12">e</text>
  <text x="168" y="237" fill="#141413" font-family="monospace" font-size="12">s</text>
  <text x="178.5" y="237" fill="#141413" font-family="monospace" font-size="12">i</text>
  <text x="189" y="237" fill="#141413" font-family="monospace" font-size="12">g</text>
  <text x="199.5" y="237" fill="#141413" font-family="monospace" font-size="12">n</text>
  <text x="210" y="237" fill="#141413" font-family="monospace" font-size="12">/</text>
  <path fill="none" stroke="#141413" stroke-width="1.5" d="M30.5 242H20v18.5"/>
  <path stroke="#141413" stroke-width="1.5" d="M30.5 251.2H20m10.5 0H41m0 0h10.5"/>
  <text x="63" y="255.5" fill="#141413" font-family="monospace" font-size="12">f</text>
  <text x="73.5" y="255.5" fill="#141413" font-family="monospace" font-size="12">r</text>
  <text x="84" y="255.5" fill="#141413" font-family="monospace" font-size="12">o</text>
  <text x="94.5" y="255.5" fill="#141413" font-family="monospace" font-size="12">n</text>
  <text x="105" y="255.5" fill="#141413" font-family="monospace" font-size="12">t</text>
  <text x="115.5" y="255.5" fill="#141413" font-family="monospace" font-size="12">e</text>
  <text x="126" y="255.5" fill="#141413" font-family="monospace" font-size="12">n</text>
  <text x="136.5" y="255.5" fill="#141413" font-family="monospace" font-size="12">d</text>
  <text x="147" y="255.5" fill="#141413" font-family="monospace" font-size="12">/</text>
  <text x="336" y="255.5" fill="#141413" font-family="monospace" font-size="12">#</text>
  <text x="357" y="255.5" fill="#141413" font-family="monospace" font-size="12">前</text>
  <text x="367.5" y="255.5" fill="#141413" font-family="monospace" font-size="12">端</text>
  <text x="378" y="255.5" fill="#141413" font-family="monospace" font-size="12">团</text>
  <text x="388.5" y="255.5" fill="#141413" font-family="monospace" font-size="12">队</text>
  <text x="399" y="255.5" fill="#141413" font-family="monospace" font-size="12">P</text>
  <text x="409.5" y="255.5" fill="#141413" font-family="monospace" font-size="12">r</text>
  <text x="420" y="255.5" fill="#141413" font-family="monospace" font-size="12">o</text>
  <text x="430.5" y="255.5" fill="#141413" font-family="monospace" font-size="12">m</text>
  <text x="441" y="255.5" fill="#141413" font-family="monospace" font-size="12">p</text>
  <text x="451.5" y="255.5" fill="#141413" font-family="monospace" font-size="12">t</text>
  <path stroke="#141413" stroke-width="1.5" d="M24.8 260.5V279"/>
  <path fill="none" stroke="#141413" stroke-width="1.5" d="M72.5 260.5H62v9.3"/>
  <path stroke="#141413" stroke-width="1.5" d="M72.5 269.8H83m0 0h10.5"/>
  <text x="105" y="274" fill="#141413" font-family="monospace" font-size="12">c</text>
  <text x="115.5" y="274" fill="#141413" font-family="monospace" font-size="12">o</text>
  <text x="126" y="274" fill="#141413" font-family="monospace" font-size="12">m</text>
  <text x="136.5" y="274" fill="#141413" font-family="monospace" font-size="12">p</text>
  <text x="147" y="274" fill="#141413" font-family="monospace" font-size="12">o</text>
  <text x="157.5" y="274" fill="#141413" font-family="monospace" font-size="12">n</text>
  <text x="168" y="274" fill="#141413" font-family="monospace" font-size="12">e</text>
  <text x="178.5" y="274" fill="#141413" font-family="monospace" font-size="12">n</text>
  <text x="189" y="274" fill="#141413" font-family="monospace" font-size="12">t</text>
  <text x="199.5" y="274" fill="#141413" font-family="monospace" font-size="12">-</text>
  <text x="210" y="274" fill="#141413" font-family="monospace" font-size="12">g</text>
  <text x="220.5" y="274" fill="#141413" font-family="monospace" font-size="12">e</text>
  <text x="231" y="274" fill="#141413" font-family="monospace" font-size="12">n</text>
  <text x="241.5" y="274" fill="#141413" font-family="monospace" font-size="12">/</text>
  <path fill="none" stroke="#141413" stroke-width="1.5" d="M30.5 279H20v9.2"/>
  <path stroke="#141413" stroke-width="1.5" d="M30.5 288.2H41m0 0h10.5"/>
  <text x="63" y="292.5" fill="#141413" font-family="monospace" font-size="12">d</text>
  <text x="73.5" y="292.5" fill="#141413" font-family="monospace" font-size="12">e</text>
  <text x="84" y="292.5" fill="#141413" font-family="monospace" font-size="12">p</text>
  <text x="94.5" y="292.5" fill="#141413" font-family="monospace" font-size="12">r</text>
  <text x="105" y="292.5" fill="#141413" font-family="monospace" font-size="12">e</text>
  <text x="115.5" y="292.5" fill="#141413" font-family="monospace" font-size="12">c</text>
  <text x="126" y="292.5" fill="#141413" font-family="monospace" font-size="12">a</text>
  <text x="136.5" y="292.5" fill="#141413" font-family="monospace" font-size="12">t</text>
  <text x="147" y="292.5" fill="#141413" font-family="monospace" font-size="12">e</text>
  <text x="157.5" y="292.5" fill="#141413" font-family="monospace" font-size="12">d</text>
  <text x="168" y="292.5" fill="#141413" font-family="monospace" font-size="12">/</text>
  <text x="336" y="292.5" fill="#141413" font-family="monospace" font-size="12">#</text>
  <text x="357" y="292.5" fill="#141413" font-family="monospace" font-size="12">废</text>
  <text x="367.5" y="292.5" fill="#141413" font-family="monospace" font-size="12">弃</text>
  <text x="378" y="292.5" fill="#141413" font-family="monospace" font-size="12">P</text>
  <text x="388.5" y="292.5" fill="#141413" font-family="monospace" font-size="12">r</text>
  <text x="399" y="292.5" fill="#141413" font-family="monospace" font-size="12">o</text>
  <text x="409.5" y="292.5" fill="#141413" font-family="monospace" font-size="12">m</text>
  <text x="420" y="292.5" fill="#141413" font-family="monospace" font-size="12">p</text>
  <text x="430.5" y="292.5" fill="#141413" font-family="monospace" font-size="12">t</text>
  <path fill="none" stroke="#141413" stroke-width="1.5" d="M72.5 297.5H62v9.3"/>
  <path stroke="#141413" stroke-width="1.5" d="M72.5 306.8H83m0 0h10.5"/>
  <text x="105" y="311" fill="#141413" font-family="monospace" font-size="12">R</text>
  <text x="115.5" y="311" fill="#141413" font-family="monospace" font-size="12">E</text>
  <text x="126" y="311" fill="#141413" font-family="monospace" font-size="12">A</text>
  <text x="136.5" y="311" fill="#141413" font-family="monospace" font-size="12">D</text>
  <text x="147" y="311" fill="#141413" font-family="monospace" font-size="12">M</text>
  <text x="157.5" y="311" fill="#141413" font-family="monospace" font-size="12">E</text>
  <text x="168" y="311" fill="#141413" font-family="monospace" font-size="12">.</text>
  <text x="178.5" y="311" fill="#141413" font-family="monospace" font-size="12">m</text>
  <text x="189" y="311" fill="#141413" font-family="monospace" font-size="12">d</text>
  <text x="336" y="311" fill="#141413" font-family="monospace" font-size="12">#</text>
  <text x="357" y="311" fill="#141413" font-family="monospace" font-size="12">废</text>
  <text x="367.5" y="311" fill="#141413" font-family="monospace" font-size="12">弃</text>
  <text x="378" y="311" fill="#141413" font-family="monospace" font-size="12">原</text>
  <text x="388.5" y="311" fill="#141413" font-family="monospace" font-size="12">因</text>
  <text x="399" y="311" fill="#141413" font-family="monospace" font-size="12">说</text>
  <text x="409.5" y="311" fill="#141413" font-family="monospace" font-size="12">明</text>
</svg>
