<svg xmlns="http://www.w3.org/2000/svg" font-family="ui-serif, Georgia, serif" viewBox="0 0 600 400"><title>三次技术革命的演进模式</title><desc>工厂制、福特流水线、丰田生产方式三次技术革命，都遵循&quot;技术先行→组织滞后→重构突破&quot;模式，AI转型正在重演</desc><path fill="#faf9f5" d="M0 0h600v400H0z"/><text x="300" y="26" fill="#141413" font-size="14" font-weight="500" letter-spacing="-.02em" text-anchor="middle">三次技术革命的演进模式</text><text x="300" y="42" fill="#87867f" font-family="ui-monospace, monospace" font-size="10" text-anchor="middle">技术先行 → 组织重构 → 突破</text><path stroke="#d1cfc5" stroke-width="1.5" d="M60 62h480"/><path fill="#d1cfc5" d="m540 57 10 5-10 5z"/><text x="300" y="58" fill="#87867f" font-family="ui-monospace, monospace" font-size="9" text-anchor="middle">技术先行</text><text x="480" y="78" fill="#d97757" font-family="ui-monospace, monospace" font-size="9" text-anchor="middle">组织重构</text><rect width="160" height="160" x="40" y="80" fill="#fff" stroke="#d1cfc5" stroke-width="1.5" rx="10"/><rect width="160" height="32" x="40" y="80" fill="#d97757" rx="10"/><path fill="#d97757" d="M40 100h160v12H40z"/><text x="120" y="100" fill="#fff" font-family="ui-monospace, monospace" font-size="11" font-weight="600" text-anchor="middle">01 · 工厂制</text><text x="120" y="130" fill="#141413" font-size="12" text-anchor="middle">18世纪 · 英国纺织业</text><path stroke="#d1cfc5" d="M60 140h120"/><text x="120" y="156" fill="#141413" font-size="10" text-anchor="middle">珍妮纺纱机</text><text x="120" y="172" fill="#141413" font-size="10" text-anchor="middle">水力纺纱机</text><path stroke="#d1cfc5" d="M60 184h120"/><text x="120" y="200" fill="#87867f" font-size="10" text-anchor="middle">工厂集中 +</text><text x="120" y="216" fill="#87867f" font-size="10" text-anchor="middle">标准化流程</text><text x="120" y="232" fill="#788c5d" font-family="ui-monospace, monospace" font-size="9" text-anchor="middle">→ 组织滞后约20年</text><rect width="160" height="160" x="220" y="80" fill="#fff" stroke="#d1cfc5" stroke-width="1.5" rx="10"/><rect width="160" height="32" x="220" y="80" fill="#d97757" rx="10"/><path fill="#d97757" d="M220 100h160v12H220z"/><text x="300" y="100" fill="#fff" font-family="ui-monospace, monospace" font-size="11" font-weight="600" text-anchor="middle">02 · 福特流水线</text><text x="300" y="130" fill="#141413" font-size="12" text-anchor="middle">20世纪初 · 美国汽车</text><path stroke="#d1cfc5" d="M240 140h120"/><text x="300" y="156" fill="#141413" font-size="10" text-anchor="middle">装配流水线</text><text x="300" y="172" fill="#141413" font-size="10" text-anchor="middle">专用机床</text><path stroke="#d1cfc5" d="M240 184h120"/><text x="300" y="200" fill="#87867f" font-size="10" text-anchor="middle">分工细化 +</text><text x="300" y="216" fill="#87867f" font-size="10" text-anchor="middle">绩效管理革命</text><text x="300" y="232" fill="#788c5d" font-family="ui-monospace, monospace" font-size="9" text-anchor="middle">→ 物理+组织双重革命</text><rect width="160" height="160" x="400" y="80" fill="#fff" stroke="#788c5d" stroke-width="1.5" rx="10"/><rect width="160" height="32" x="400" y="80" fill="#788c5d" rx="10"/><path fill="#788c5d" d="M400 100h160v12H400z"/><text x="480" y="100" fill="#fff" font-family="ui-monospace, monospace" font-size="11" font-weight="600" text-anchor="middle">03 · 丰田生产方式</text><text x="480" y="130" fill="#141413" font-size="12" text-anchor="middle">1980年代 · 日本汽车</text><path stroke="#788c5d" d="M420 140h120"/><text x="480" y="156" fill="#141413" font-size="10" text-anchor="middle">看板管理</text><text x="480" y="172" fill="#141413" font-size="10" text-anchor="middle">持续改善</text><path stroke="#788c5d" d="M420 184h120"/><text x="480" y="200" fill="#87867f" font-size="10" text-anchor="middle">工人变改进主体</text><text x="480" y="216" fill="#87867f" font-size="10" text-anchor="middle">质量成为共同责任</text><text x="480" y="232" fill="#788c5d" font-family="ui-monospace, monospace" font-size="9" text-anchor="middle">→ 组织基因全面重构</text><path stroke="#d97757" stroke-width="1.5" d="M200 160h18"/><path fill="#d97757" d="m218 155 10 5-10 5z"/><path stroke="#d97757" stroke-width="1.5" d="M380 160h18"/><path fill="#d97757" d="m398 155 10 5-10 5z"/><rect width="520" height="36" x="40" y="250" fill="#d97757" stroke="#d97757" stroke-width="1.5" opacity=".1" rx="8"/><text x="300" y="272" fill="#d97757" font-size="11" font-weight="600" text-anchor="middle">突破：组织形式跟上技术能力之后</text><rect width="520" height="76" x="40" y="298" fill="#fff" stroke="#d97757" stroke-dasharray="6,4" stroke-width="1.5" rx="10"/><text x="300" y="320" fill="#d97757" font-family="ui-monospace, monospace" font-size="12" font-weight="600" text-anchor="middle">04 · AI转型 (今)</text><text x="300" y="340" fill="#141413" font-size="10" text-anchor="middle">LLM / 生成式AI / Agent系统</text><text x="300" y="358" fill="#141413" font-size="10" text-anchor="middle">决策模式重构 · 协作结构重塑 · 学习机制重建</text><text x="300" y="385" fill="#87867f" font-family="ui-monospace, monospace" font-size="9" text-anchor="middle">与前三次技术革命遵循相同模式 — 正在等待组织重构的突破</text></svg>