<svg xmlns="http://www.w3.org/2000/svg" font-family="ui-serif, Georgia, serif" viewBox="0 0 560 200">
  <path fill="#faf9f5" d="M0 0h560v200H0z"/>
  <text x="280" y="20" fill="#141413" font-size="13" font-weight="500" letter-spacing="-.02em" text-anchor="middle">正确的层次结构：编排层 + 专业 Agent</text>
  <text x="280" y="36" fill="#87867f" font-family="ui-monospace, monospace" font-size="9.5" text-anchor="middle">postcodeengineering.com · 2026/03/15</text>
  <rect width="240" height="46" x="160" y="50" fill="#fff" stroke="#d97757" stroke-width="2" rx="6"/>
  <rect width="240" height="18" x="160" y="50" fill="#fef3c7" stroke="#d97757" rx="6"/>
  <text x="280" y="64" fill="#d97757" font-family="ui-monospace, monospace" font-size="10" font-weight="600" text-anchor="middle">编排层 Orchestrator</text>
  <text x="280" y="80" fill="#141413" font-size="9" text-anchor="middle">不做具体工作，只做协调：「让合适的 Agent 做合适的事」</text>
  <rect width="14" height="14" x="392" y="60" fill="#d97757" rx="7"/>
  <text x="399" y="71" fill="#fff" font-family="ui-monospace, monospace" font-size="7" text-anchor="middle">O</text>
  <path stroke="#d1cfc5" stroke-width="1.5" d="M280 96v14"/>
  <path fill="#d1cfc5" d="m276 110 4 8 4-8z"/>
  <rect width="480" height="44" x="40" y="118" fill="#f0eee6" stroke="#d1cfc5" stroke-width="1.5" rx="6"/>
  <text x="60" y="134" fill="#141413" font-size="10" font-weight="600">专业 Agent 层：</text>
  <rect width="100" height="28" x="160" y="126" fill="#fff" stroke="#d97757" stroke-width="1.5" rx="5"/>
  <text x="210" y="138" fill="#d97757" font-size="9" font-weight="600" text-anchor="middle">邮件 Agent</text>
  <rect width="10" height="10" x="252" y="133" fill="#d97757" rx="5"/>
  <text x="257" y="141" fill="#fff" font-size="6" text-anchor="middle">A</text>
  <rect width="100" height="28" x="270" y="126" fill="#fff" stroke="#87867f" stroke-width="1.5" rx="5"/>
  <text x="320" y="138" fill="#87867f" font-size="9" font-weight="600" text-anchor="middle">日程 Agent</text>
  <rect width="10" height="10" x="362" y="133" fill="#87867f" rx="5"/>
  <text x="367" y="141" fill="#fff" font-size="6" text-anchor="middle">B</text>
  <rect width="100" height="28" x="380" y="126" fill="#fff" stroke="#d1cfc5" stroke-width="1.5" rx="5"/>
  <text x="430" y="138" fill="#87867f" font-size="9" font-weight="600" text-anchor="middle">文档 Agent</text>
  <rect width="10" height="10" x="472" y="133" fill="#d1cfc5" rx="5"/>
  <text x="477" y="141" fill="#fff" font-size="6" text-anchor="middle">C</text>
  <path stroke="#d1cfc5" stroke-width="1.5" d="M280 162v12"/>
  <path fill="#d1cfc5" d="m276 174 4 8 4-8z"/>
  <rect width="240" height="20" x="40" y="182" fill="#fff" stroke="#87867f" stroke-width="1.2" rx="5"/>
  <text x="60" y="196" fill="#87867f" font-size="9" font-weight="600">工具层 Tool Layer</text>
  <text x="160" y="196" fill="#87867f" font-size="9">Gmail API · Calendar API · Docs API</text>
  <rect width="220" height="20" x="300" y="182" fill="#fff" stroke="#87867f" stroke-width="1.2" rx="5"/>
  <text x="320" y="196" fill="#87867f" font-size="9" font-weight="600">LLM Client</text>
  <text x="410" y="196" fill="#87867f" font-size="9">GPT-4 / Claude / Gemini</text>
  <text x="280" y="214" fill="#87867f" font-size="9" font-style="italic" text-anchor="middle">Orchestrator 只负责任务分发，具体执行由专业 Agent 负责</text>
</svg>
