<svg xmlns="http://www.w3.org/2000/svg" font-family="ui-serif, Georgia, serif" viewBox="0 0 680 320">
  <title>向量数据网格架构</title>
  <desc>
    向量数据网格的三层结构：Embedding 模型层、Vector Mesh Layer、存储与应用层
  </desc>
  <path fill="#faf9f5" d="M0 0h680v320H0z"/>
  <text x="340" y="26" fill="#141413" font-size="14" font-weight="500" letter-spacing="-.02em" text-anchor="middle">向量数据网格架构</text>
  <text x="340" y="42" fill="#87867f" font-family="ui-monospace, monospace" font-size="10" text-anchor="middle">postcodeeng · 2026/03/15</text>
  <rect width="600" height="76" x="40" y="58" fill="#fff" stroke="#d1cfc5" stroke-width="1.5" rx="8"/>
  <text x="60" y="78" fill="#87867f" font-family="ui-monospace, monospace" font-size="10" font-weight="600">Tier 1 — Embedding Models</text>
  <rect width="120" height="30" x="80" y="92" fill="#f0eee6" stroke="#d1cfc5" stroke-width="1.2" rx="6"/>
  <text x="140" y="112" fill="#141413" font-size="10.5" text-anchor="middle">Text Embedding</text>
  <rect width="120" height="30" x="220" y="92" fill="#f0eee6" stroke="#d1cfc5" stroke-width="1.2" rx="6"/>
  <text x="280" y="112" fill="#141413" font-size="10.5" text-anchor="middle">Image Embedding</text>
  <rect width="120" height="30" x="360" y="92" fill="#f0eee6" stroke="#d1cfc5" stroke-width="1.2" rx="6"/>
  <text x="420" y="112" fill="#141413" font-size="10.5" text-anchor="middle">Audio Embedding</text>
  <rect width="120" height="30" x="500" y="92" fill="#f0eee6" stroke="#d1cfc5" stroke-width="1.2" rx="6"/>
  <text x="560" y="112" fill="#141413" font-size="10.5" text-anchor="middle">Code Embedding</text>
  <rect width="360" height="80" x="160" y="152" fill="#fff" stroke="#d97757" stroke-width="2" rx="10"/>
  <text x="340" y="176" fill="#d97757" font-size="13" font-weight="600" text-anchor="middle">Vector Mesh Layer</text>
  <text x="340" y="194" fill="#87867f" font-size="10.5" text-anchor="middle">统一 Embedding 服务 · 向量版本管理 · 语义路由</text>
  <rect width="200" height="18" x="240" y="206" fill="#d97757" rx="9"/>
  <text x="340" y="219" fill="#fff" font-family="ui-monospace, monospace" font-size="9" text-anchor="middle">Hub · Model-Agnostic</text>
  <path stroke="#d1cfc5" stroke-width="1.2" d="m140 134 200 18m-60-18 60 18m80-18-80 18m220-18-220 18"/>
  <rect width="600" height="56" x="40" y="250" fill="#fff" stroke="#788c5d" stroke-width="1.5" rx="8"/>
  <text x="60" y="270" fill="#788c5d" font-family="ui-monospace, monospace" font-size="10" font-weight="600">Tier 3 — Storage &amp; Applications</text>
  <rect width="90" height="22" x="80" y="276" fill="#f0eee6" stroke="#788c5d" stroke-width="1.2" rx="6"/>
  <text x="125" y="291" fill="#141413" font-size="9.5" text-anchor="middle">Vector DB 1</text>
  <rect width="90" height="22" x="190" y="276" fill="#f0eee6" stroke="#788c5d" stroke-width="1.2" rx="6"/>
  <text x="235" y="291" fill="#141413" font-size="9.5" text-anchor="middle">Vector DB 2</text>
  <rect width="90" height="22" x="300" y="276" fill="#f0eee6" stroke="#788c5d" stroke-width="1.2" rx="6"/>
  <text x="345" y="291" fill="#141413" font-size="9.5" text-anchor="middle">Vector DB N</text>
  <rect width="90" height="22" x="420" y="276" fill="#f0eee6" stroke="#d1cfc5" stroke-width="1.2" rx="6"/>
  <text x="465" y="291" fill="#141413" font-size="9.5" text-anchor="middle">Semantic Search</text>
  <rect width="90" height="22" x="530" y="276" fill="#f0eee6" stroke="#d1cfc5" stroke-width="1.2" rx="6"/>
  <text x="575" y="291" fill="#141413" font-size="9.5" text-anchor="middle">Recommendation</text>
  <path stroke="#d1cfc5" stroke-width="1.5" d="M340 232v18"/>
  <path stroke="#d1cfc5" stroke-width="1.2" d="m340 232-215 18m215-18-105 18m105-18 125 18m-125-18 235 18"/>
  <path fill="#d1cfc5" d="m125 250-4-8h8zm110 0-4-8h8z"/>
  <path fill="#d97757" d="m340 250-4-8h8z"/>
  <path fill="#d1cfc5" d="m465 250-4-8h8zm110 0-4-8h8z"/>
</svg>
