<svg xmlns="http://www.w3.org/2000/svg" viewBox="0 0 800 440"><defs><linearGradient id="bg" x1="0" x2="1" y1="0" y2="1"><stop offset="0%" stop-color="#faf9f5"/><stop offset="100%" stop-color="#e3dacc"/></linearGradient><linearGradient id="ess-grad" x1="0" x2="0" y1="0" y2="1"><stop offset="0%" stop-color="#d97757"/><stop offset="100%" stop-color="#b05540"/></linearGradient><linearGradient id="acc-grad" x1="0" x2="0" y1="0" y2="1"><stop offset="0%" stop-color="#788c5d"/><stop offset="100%" stop-color="#5f7249"/></linearGradient><filter id="shadow" width="110%" height="115%" x="-5%" y="-5%"><feDropShadow dx="0" dy="3" flood-color="#141413" flood-opacity=".1" stdDeviation="6"/></filter></defs><rect width="800" height="440" fill="url(#bg)" rx="16"/><text x="400" y="36" fill="#141413" font-family="system-ui,-apple-system,sans-serif" font-size="20" font-weight="700" letter-spacing="-.3" text-anchor="middle">规则演进：错误率 vs 合规率</text><path stroke="#d1cfc5" stroke-width="1.5" d="M180 50h440"/><g transform="translate(400 90)"><circle cx="-240" r="20" fill="#d1cfc5" stroke="#87867f" stroke-width="1.5"/><text x="-240" y="5" fill="#141413" font-family="system-ui,-apple-system,sans-serif" font-size="12" font-weight="700" text-anchor="middle">0</text><text x="-240" y="30" fill="#87867f" font-family="system-ui,-apple-system,sans-serif" font-size="11" text-anchor="middle">无规则</text><path stroke="#d1cfc5" stroke-dasharray="4,3" stroke-width="2" d="M-215 0h85"/><text x="-172" y="-14" fill="#87867f" font-family="system-ui,-apple-system,sans-serif" font-size="10" text-anchor="middle">+4条</text><circle cx="-105" r="20" fill="#d97757" stroke="#d97757" stroke-width="2" opacity=".85"/><text x="-105" y="5" fill="#faf9f5" font-family="system-ui,-apple-system,sans-serif" font-size="12" font-weight="700" text-anchor="middle">4</text><text x="-105" y="30" fill="#d97757" font-family="system-ui,-apple-system,sans-serif" font-size="11" text-anchor="middle">Karpathy</text><path stroke="#d1cfc5" stroke-dasharray="4,3" stroke-width="2" d="M-80 0h185"/><text x="12" y="-14" fill="#87867f" font-family="system-ui,-apple-system,sans-serif" font-size="10" text-anchor="middle">+8条</text><circle cx="130" r="20" fill="#d97757" stroke="#d97757" stroke-width="2"/><text x="130" y="5" fill="#faf9f5" font-family="system-ui,-apple-system,sans-serif" font-size="12" font-weight="700" text-anchor="middle">12</text><text x="130" y="30" fill="#d97757" font-family="system-ui,-apple-system,sans-serif" font-size="11" text-anchor="middle">实测扩展</text><path stroke="#d1cfc5" stroke-dasharray="4,3" stroke-width="2" d="M155 0h85"/><text x="197" y="-14" fill="#87867f" font-family="system-ui,-apple-system,sans-serif" font-size="10" text-anchor="middle">&gt;14条崩</text><circle cx="265" r="20" fill="#d1cfc5" stroke="#87867f" stroke-dasharray="3,2" stroke-width="1.5"/><text x="265" y="5" fill="#87867f" font-family="system-ui,-apple-system,sans-serif" font-size="12" font-weight="700" text-anchor="middle">18</text><text x="265" y="30" fill="#87867f" font-family="system-ui,-apple-system,sans-serif" font-size="11" text-anchor="middle">过载</text></g><rect width="350" height="250" x="40" y="135" fill="#faf9f5" filter="url(#shadow)" rx="14"/><rect width="350" height="48" x="40" y="135" fill="url(#ess-grad)" rx="14"/><path fill="url(#ess-grad)" d="M40 169h350v14H40z"/><text x="215" y="162" fill="#faf9f5" font-family="system-ui,-apple-system,sans-serif" font-size="16" font-weight="700" text-anchor="middle">错误率（越低越好）</text><text x="60" y="207" fill="#d97757" font-family="system-ui,-apple-system,sans-serif" font-size="11" font-weight="600" letter-spacing="1">无规则</text><rect width="240" height="22" x="130" y="194" fill="#d97757" opacity=".85" rx="6"/><text x="375" y="209" fill="#d97757" font-family="system-ui,-apple-system,sans-serif" font-size="13" font-weight="700">41%</text><text x="60" y="245" fill="#d97757" font-family="system-ui,-apple-system,sans-serif" font-size="11" font-weight="600" letter-spacing="1">4 条规则</text><rect width="17" height="22" x="130" y="232" fill="#d97757" rx="6"/><text x="152" y="247" fill="#d97757" font-family="system-ui,-apple-system,sans-serif" font-size="11" font-weight="600">~3%</text><text x="60" y="270" fill="#87867f" font-family="system-ui,-apple-system,sans-serif" font-size="10">下降 38 个百分点</text><text x="60" y="300" fill="#d97757" font-family="system-ui,-apple-system,sans-serif" font-size="11" font-weight="600" letter-spacing="1">12 条规则</text><rect width="14" height="22" x="130" y="287" fill="#b05540" rx="6"/><text x="149" y="302" fill="#b05540" font-family="system-ui,-apple-system,sans-serif" font-size="11" font-weight="600">~3%</text><text x="60" y="325" fill="#87867f" font-family="system-ui,-apple-system,sans-serif" font-size="10">再降 8pp</text><path stroke="#d1cfc5" stroke-dasharray="3,3" d="M130 194v126"/><rect width="350" height="250" x="410" y="135" fill="#faf9f5" filter="url(#shadow)" rx="14"/><rect width="350" height="48" x="410" y="135" fill="url(#acc-grad)" rx="14"/><path fill="url(#acc-grad)" d="M410 169h350v14H410z"/><text x="585" y="162" fill="#faf9f5" font-family="system-ui,-apple-system,sans-serif" font-size="16" font-weight="700" text-anchor="middle">合规率（越高越好）</text><text x="430" y="207" fill="#788c5d" font-family="system-ui,-apple-system,sans-serif" font-size="11" font-weight="600" letter-spacing="1">4 条规则</text><rect width="226" height="22" x="510" y="194" fill="#788c5d" opacity=".85" rx="6"/><text x="741" y="209" fill="#788c5d" font-family="system-ui,-apple-system,sans-serif" font-size="13" font-weight="700">78%</text><text x="430" y="247" fill="#788c5d" font-family="system-ui,-apple-system,sans-serif" font-size="11" font-weight="600" letter-spacing="1">12 条规则</text><rect width="221" height="22" x="510" y="234" fill="#5f7249" rx="6"/><text x="736" y="249" fill="#5f7249" font-family="system-ui,-apple-system,sans-serif" font-size="13" font-weight="700">76%</text><path stroke="#d1cfc5" stroke-dasharray="3,3" d="M510 194v66"/><path stroke="#788c5d" stroke-dasharray="4,3" d="M510 234h226"/><rect width="230" height="55" x="510" y="268" fill="#e3dacc" opacity=".7" rx="8"/><text x="525" y="287" fill="#141413" font-family="system-ui,-apple-system,sans-serif" font-size="11" font-weight="600">关键洞察：</text><text x="525" y="304" fill="#141413" font-family="system-ui,-apple-system,sans-serif" font-size="11">+8 条规则，合规成本仅降 2%</text><text x="525" y="318" fill="#141413" font-family="system-ui,-apple-system,sans-serif" font-size="11">却覆盖了 8 个新失败模式</text><rect width="720" height="38" x="40" y="395" fill="#141413" opacity=".04" rx="10"/><text x="400" y="418" fill="#141413" font-family="system-ui,-apple-system,sans-serif" font-size="12" text-anchor="middle">数据来源：30 代码库 × 6 周实测 | &quot;&gt;14 条规则&quot;时 Claude 开始整体 pattern-match 而非逐条处理</text></svg>