<svg xmlns="http://www.w3.org/2000/svg" font-family="ui-serif, Georgia, serif" viewBox="0 0 680 320"><path fill="#faf9f5" d="M0 0h680v320H0z"/><text x="340" y="26" fill="#141413" font-size="14" font-weight="500" letter-spacing="-.02em" text-anchor="middle">传统 ML 流程 vs 左移后流程</text><text x="340" y="42" fill="#87867f" font-family="ui-monospace, monospace" font-size="10" text-anchor="middle">Preflight · preflight-validator</text><rect width="290" height="220" x="30" y="62" fill="#fff" stroke="#d1cfc5" stroke-width="1.5" rx="8"/><text x="175" y="86" fill="#87867f" font-family="ui-monospace, monospace" font-size="13" font-weight="600" text-anchor="middle">传统 ML 流程</text><rect width="90" height="38" x="50" y="100" fill="#f0eee6" stroke="#d1cfc5" stroke-width="1.5" rx="8"/><text x="95" y="124" fill="#141413" font-size="11" text-anchor="middle">数据准备</text><path stroke="#d1cfc5" stroke-width="1.5" d="M140 119h20"/><path fill="#d1cfc5" d="m160 119-6-4v8z"/><rect width="90" height="38" x="165" y="100" fill="#fff" stroke="#d97757" stroke-width="1.5" rx="8"/><text x="210" y="124" fill="#141413" font-size="11" text-anchor="middle">训练</text><text x="248" y="106" fill="#d97757" font-size="18" font-weight="700">✕</text><text x="210" y="150" fill="#d97757" font-family="ui-monospace, monospace" font-size="10" text-anchor="middle">3 天后发现问题</text><path stroke="#d1cfc5" stroke-width="1.5" d="M210 156v16"/><path fill="#d1cfc5" d="m210 172-4-6h8z"/><rect width="90" height="38" x="165" y="178" fill="#fff" stroke="#d97757" stroke-width="1.5" rx="8"/><text x="210" y="202" fill="#141413" font-size="11" text-anchor="middle">Debug 循环</text><path fill="none" stroke="#d97757" stroke-dasharray="4,3" stroke-width="1.2" d="M255 197c25 0 25-78-90-78" opacity=".7"/><text x="268" y="160" fill="#d97757" font-family="ui-monospace, monospace" font-size="9">重复</text><text x="175" y="260" fill="#87867f" font-size="11" text-anchor="middle">发现问题代价：</text><text x="175" y="276" fill="#d97757" font-size="16" font-weight="600" text-anchor="middle">3 天</text><path stroke="#d1cfc5" stroke-dasharray="6,4" d="M340 70v220"/><rect width="290" height="220" x="360" y="62" fill="#fff" stroke="#788c5d" stroke-width="1.5" rx="8"/><text x="505" y="86" fill="#788c5d" font-family="ui-monospace, monospace" font-size="13" font-weight="600" text-anchor="middle">左移后流程</text><rect width="80" height="38" x="380" y="100" fill="#f0eee6" stroke="#d1cfc5" stroke-width="1.5" rx="8"/><text x="420" y="124" fill="#141413" font-size="11" text-anchor="middle">数据准备</text><path stroke="#d1cfc5" stroke-width="1.5" d="M460 119h20"/><path fill="#d1cfc5" d="m480 119-6-4v8z"/><rect width="100" height="38" x="485" y="100" fill="#d97757" stroke="#d97757" stroke-width="1.5" rx="8"/><text x="535" y="124" fill="#fff" font-size="12" font-weight="600" text-anchor="middle">preflight</text><rect width="18" height="18" x="570" y="102" fill="#788c5d" rx="9"/><text x="579" y="115" fill="#fff" font-size="10" font-weight="700" text-anchor="middle">✓</text><text x="535" y="150" fill="#788c5d" font-family="ui-monospace, monospace" font-size="10" text-anchor="middle">3 分钟发现问题</text><path stroke="#d1cfc5" stroke-width="1.5" d="M535 156v16"/><path fill="#d1cfc5" d="m535 172-4-6h8z"/><rect width="100" height="38" x="485" y="178" fill="#f0eee6" stroke="#788c5d" stroke-width="1.5" rx="8"/><text x="535" y="202" fill="#141413" font-size="11" text-anchor="middle">训练 → 上线</text><rect width="18" height="18" x="572" y="180" fill="#788c5d" rx="9"/><text x="581" y="193" fill="#fff" font-size="10" font-weight="700" text-anchor="middle">→</text><path stroke="#788c5d" stroke-dasharray="4,3" stroke-width="1.2" d="M600 119v78"/><text x="614" y="160" fill="#788c5d" font-family="ui-monospace, monospace" font-size="10" writing-mode="tb">3 分钟</text><text x="505" y="260" fill="#87867f" font-size="11" text-anchor="middle">发现问题代价：</text><text x="505" y="276" fill="#788c5d" font-size="16" font-weight="600" text-anchor="middle">3 分钟</text></svg>