<svg xmlns="http://www.w3.org/2000/svg" font-family="ui-serif, Georgia, serif" viewBox="0 0 560 160"><path fill="#faf9f5" d="M0 0h560v160H0z"/><text x="280" y="18" fill="#141413" font-size="12" font-weight="500" letter-spacing="-.02em" text-anchor="middle">业务服务层：微服务架构</text><text x="280" y="32" fill="#87867f" font-family="ui-monospace, monospace" font-size="9" text-anchor="middle">postcodeengineering.com · 2026/03/15</text><rect width="130" height="60" x="60" y="56" fill="#fff" stroke="#2563eb" stroke-width="1.5" rx="6"/><rect width="130" height="18" x="60" y="56" fill="#dbeafe" stroke="#2563eb" rx="6"/><text x="125" y="70" fill="#2563eb" font-family="ui-monospace, monospace" font-size="10" font-weight="600" text-anchor="middle">UserSvc</text><text x="125" y="90" fill="#141413" font-size="9" text-anchor="middle">用户服务</text><text x="125" y="106" fill="#87867f" font-size="8.5" text-anchor="middle">用户管理 · 权限</text><rect width="130" height="60" x="215" y="56" fill="#fff" stroke="#2563eb" stroke-width="1.5" rx="6"/><rect width="130" height="18" x="215" y="56" fill="#dbeafe" stroke="#2563eb" rx="6"/><text x="280" y="70" fill="#2563eb" font-family="ui-monospace, monospace" font-size="10" font-weight="600" text-anchor="middle">OrderSvc</text><text x="280" y="90" fill="#141413" font-size="9" text-anchor="middle">订单服务</text><text x="280" y="106" fill="#87867f" font-size="8.5" text-anchor="middle">订单管理 · 状态</text><rect width="130" height="60" x="370" y="56" fill="#fff" stroke="#2563eb" stroke-width="1.5" rx="6"/><rect width="130" height="18" x="370" y="56" fill="#dbeafe" stroke="#2563eb" rx="6"/><text x="435" y="70" fill="#2563eb" font-family="ui-monospace, monospace" font-size="10" font-weight="600" text-anchor="middle">StockSvc</text><text x="435" y="90" fill="#141413" font-size="9" text-anchor="middle">库存服务</text><text x="435" y="106" fill="#87867f" font-size="8.5" text-anchor="middle">库存管理 · 锁定</text><path stroke="#d1cfc5" stroke-width="1.5" d="m125 116 155 20m0-20v20m155-20-155 20"/><rect width="240" height="20" x="160" y="136" fill="#fff" stroke="#d97757" stroke-width="2" rx="5"/><rect width="240" height="14" x="160" y="136" fill="#fef3c7" stroke="#d97757" rx="5"/><text x="280" y="149" fill="#d97757" font-family="ui-monospace, monospace" font-size="10" font-weight="600" text-anchor="middle">API Gateway · 服务编排层</text></svg>