<svg xmlns="http://www.w3.org/2000/svg" font-family="ui-serif, Georgia, 'Times New Roman', serif" viewBox="0 0 680 320"><path fill="#faf9f5" d="M0 0h680v320H0z"/><text x="340" y="26" fill="#141413" font-size="14" font-weight="500" letter-spacing="-.02em" text-anchor="middle">抽象层级的演进史</text><text x="340" y="44" fill="#87867f" font-family="ui-monospace, monospace" font-size="10" text-anchor="middle">Charlie · 2026/03/15</text><path stroke="#d1cfc5" stroke-width="1.5" d="M60 76h560"/><path fill="#d1cfc5" d="m620 76-8-5v10z"/><circle cx="80" cy="76" r="5" fill="#d97757"/><circle cx="180" cy="76" r="5" fill="#d97757"/><circle cx="280" cy="76" r="5" fill="#d97757"/><circle cx="380" cy="76" r="5" fill="#d97757"/><circle cx="480" cy="76" r="5" fill="#d97757"/><circle cx="580" cy="76" r="5" fill="#d97757"/><rect width="100" height="68" x="30" y="92" fill="#fff" stroke="#d1cfc5" stroke-width="1.5" rx="6"/><text x="80" y="112" fill="#d97757" font-family="ui-monospace, monospace" font-size="11" font-weight="600" text-anchor="middle">Layer 1</text><text x="80" y="128" fill="#141413" font-size="12" text-anchor="middle">机器码</text><text x="80" y="142" fill="#87867f" font-size="10" text-anchor="middle">1940s</text><text x="80" y="156" fill="#788c5d" font-family="ui-monospace, monospace" font-size="9.5" text-anchor="middle">00110001...</text><rect width="100" height="68" x="130" y="152" fill="#fff" stroke="#d1cfc5" stroke-width="1.5" rx="6"/><text x="180" y="172" fill="#d97757" font-family="ui-monospace, monospace" font-size="11" font-weight="600" text-anchor="middle">Layer 2</text><text x="180" y="188" fill="#141413" font-size="12" text-anchor="middle">汇编语言</text><text x="180" y="202" fill="#87867f" font-size="10" text-anchor="middle">1950s</text><text x="180" y="216" fill="#788c5d" font-family="ui-monospace, monospace" font-size="9.5" text-anchor="middle">mov ax, 5</text><rect width="100" height="68" x="230" y="92" fill="#fff" stroke="#d97757" stroke-width="1.5" rx="6"/><text x="280" y="112" fill="#d97757" font-family="ui-monospace, monospace" font-size="11" font-weight="600" text-anchor="middle">Layer 3</text><text x="280" y="128" fill="#141413" font-size="12" text-anchor="middle">C语言</text><text x="280" y="142" fill="#87867f" font-size="10" text-anchor="middle">1970s</text><text x="280" y="156" fill="#788c5d" font-family="ui-monospace, monospace" font-size="9.5" text-anchor="middle">int a = 5;</text><rect width="100" height="68" x="330" y="152" fill="#fff" stroke="#d1cfc5" stroke-width="1.5" rx="6"/><text x="380" y="172" fill="#d97757" font-family="ui-monospace, monospace" font-size="11" font-weight="600" text-anchor="middle">Layer 4</text><text x="380" y="188" fill="#141413" font-size="12" text-anchor="middle">OOP / 托管</text><text x="380" y="202" fill="#87867f" font-size="10" text-anchor="middle">1980s-90s</text><text x="380" y="216" fill="#788c5d" font-family="ui-monospace, monospace" font-size="9.5" text-anchor="middle">class Foo {}</text><rect width="100" height="68" x="430" y="92" fill="#fff" stroke="#d1cfc5" stroke-width="1.5" rx="6"/><text x="480" y="112" fill="#d97757" font-family="ui-monospace, monospace" font-size="11" font-weight="600" text-anchor="middle">Layer 5</text><text x="480" y="128" fill="#141413" font-size="12" text-anchor="middle">动态 / 函数式</text><text x="480" y="142" fill="#87867f" font-size="10" text-anchor="middle">2000s-10s</text><text x="480" y="156" fill="#788c5d" font-family="ui-monospace, monospace" font-size="9.5" text-anchor="middle">map filter reduce</text><rect width="100" height="68" x="530" y="152" fill="#fff" stroke="#788c5d" stroke-width="1.5" rx="6"/><text x="580" y="172" fill="#788c5d" font-family="ui-monospace, monospace" font-size="11" font-weight="600" text-anchor="middle">Layer 6</text><text x="580" y="188" fill="#141413" font-size="12" text-anchor="middle">自然语言</text><text x="580" y="202" fill="#87867f" font-size="10" text-anchor="middle">2010s-2020s</text><text x="580" y="216" fill="#788c5d" font-family="ui-monospace, monospace" font-size="9.5" text-anchor="middle">&quot;帮我写个排序&quot;</text><path stroke="#d1cfc5" stroke-dasharray="3,3" d="M80 160v72m100-72v72m100-72v72m100-72v72m100-72v72"/><text x="340" y="300" fill="#87867f" font-family="ui-monospace, monospace" font-size="9" text-anchor="middle">抽象层级每跃迁一次，表达意图就更接近人类思维</text></svg>