<svg xmlns="http://www.w3.org/2000/svg" font-family="ui-serif, Georgia, 'Times New Roman', serif" viewBox="0 0 680 400">
  <path fill="#faf9f5" d="M0 0h680v400H0z"/>
  <text x="340" y="28" fill="#141413" font-size="14" font-weight="500" letter-spacing="-.02em" text-anchor="middle">执行瓶颈 → 判断瓶颈</text>
  <text x="340" y="44" fill="#87867f" font-family="ui-monospace, monospace" font-size="10" text-anchor="middle">AI 改变了创始人时间的结构</text>
  <rect width="270" height="220" x="40" y="68" fill="#fff" stroke="#d1cfc5" stroke-width="1.5" rx="10"/>
  <rect width="270" height="36" x="40" y="68" fill="#d1cfc5" rx="10"/>
  <path fill="#d1cfc5" d="M40 90h270v14H40z"/>
  <text x="175" y="91" fill="#fff" font-family="ui-monospace, monospace" font-size="12" font-weight="600" text-anchor="middle">Before AI</text>
  <text x="175" y="110" fill="#87867f" font-family="ui-monospace, monospace" font-size="10" text-anchor="middle">执行瓶颈时代</text>
  <circle cx="175" cy="155" r="26" fill="none" stroke="#d1cfc5" stroke-width="2"/>
  <path stroke="#d1cfc5" stroke-linecap="round" stroke-width="2.5" d="M175 155v-17"/>
  <path stroke="#d1cfc5" stroke-linecap="round" stroke-width="2" d="m175 155 13 7"/>
  <text x="175" y="195" fill="#141413" font-size="12" text-anchor="middle">时间 = 执行瓶颈</text>
  <rect width="34" height="28" x="158" y="205" fill="#f0eee6" stroke="#d1cfc5" stroke-width="1.2" rx="4"/>
  <rect width="26" height="3" x="162" y="209" fill="#d1cfc5" rx="1"/>
  <rect width="20" height="3" x="162" y="214" fill="#d1cfc5" rx="1"/>
  <rect width="24" height="3" x="162" y="219" fill="#d1cfc5" rx="1"/>
  <text x="175" y="252" fill="#87867f" font-size="10" text-anchor="middle">大量时间投入执行</text>
  <text x="175" y="268" fill="#87867f" font-size="10" text-anchor="middle">判断力随经验积累</text>
  <path stroke="#788c5d" stroke-width="2.5" d="M310 178h60"/>
  <path fill="#788c5d" d="m370 178-10-6v12z"/>
  <text x="340" y="168" fill="#788c5d" font-family="ui-monospace, monospace" font-size="9" text-anchor="middle">AI</text>
  <text x="340" y="196" fill="#788c5d" font-family="ui-monospace, monospace" font-size="9" text-anchor="middle">接管执行</text>
  <rect width="270" height="220" x="370" y="68" fill="#fff" stroke="#d97757" stroke-width="2" rx="10"/>
  <rect width="270" height="36" x="370" y="68" fill="#d97757" rx="10"/>
  <path fill="#d97757" d="M370 90h270v14H370z"/>
  <text x="505" y="91" fill="#fff" font-family="ui-monospace, monospace" font-size="12" font-weight="600" text-anchor="middle">After AI</text>
  <text x="505" y="110" fill="#f5c4b8" font-family="ui-monospace, monospace" font-size="10" text-anchor="middle">判断瓶颈时代</text>
  <circle cx="505" cy="148" r="14" fill="#d97757"/>
  <text x="505" y="152" fill="#fff" font-family="ui-monospace, monospace" font-size="9" text-anchor="middle">决策</text>
  <path stroke="#d97757" stroke-width="1.5" d="m491 158-36 14m50-10v16m14-20 36 14"/>
  <circle cx="450" cy="178" r="10" fill="#fff" stroke="#d97757" stroke-width="1.5"/>
  <text x="450" y="182" fill="#d97757" font-family="ui-monospace, monospace" font-size="8" text-anchor="middle">A</text>
  <circle cx="505" cy="186" r="10" fill="#fff" stroke="#d97757" stroke-width="1.5"/>
  <text x="505" y="190" fill="#d97757" font-family="ui-monospace, monospace" font-size="8" text-anchor="middle">B</text>
  <circle cx="560" cy="178" r="10" fill="#fff" stroke="#d97757" stroke-width="1.5"/>
  <text x="560" y="182" fill="#d97757" font-family="ui-monospace, monospace" font-size="8" text-anchor="middle">C</text>
  <path stroke="#d97757" stroke-width="1.2" d="m500 196-22 16m32-16 22 16"/>
  <circle cx="472" cy="218" r="8" fill="#fff" stroke="#d97757" stroke-width="1.2"/>
  <circle cx="538" cy="218" r="8" fill="#fff" stroke="#d97757" stroke-width="1.2"/>
  <text x="505" y="245" fill="#141413" font-size="12" text-anchor="middle">判断 = 决策密度瓶颈</text>
  <text x="505" y="263" fill="#87867f" font-size="10" text-anchor="middle">每一次&quot;让AI做什么&quot;</text>
  <text x="505" y="277" fill="#87867f" font-size="10" text-anchor="middle">都是一次判断</text>
  <rect width="600" height="68" x="40" y="308" fill="#f0eee6" stroke="#d1cfc5" rx="8"/>
  <text x="340" y="330" fill="#141413" font-size="10.5" text-anchor="middle">决策密度 = 选择让AI做什么的频率 × AI执行速度</text>
  <rect width="150" height="26" x="90" y="340" fill="#fff" stroke="#d1cfc5" rx="6"/>
  <text x="165" y="358" fill="#87867f" font-size="10" text-anchor="middle">AI执行速度 ↑</text>
  <text x="260" y="358" fill="#d97757" font-size="14" text-anchor="middle">×</text>
  <rect width="150" height="26" x="290" y="340" fill="#fff" stroke="#d1cfc5" rx="6"/>
  <text x="365" y="358" fill="#87867f" font-size="10" text-anchor="middle">判断频率 ↑↑↑</text>
  <text x="460" y="358" fill="#d97757" font-size="14" text-anchor="middle">=</text>
  <rect width="130" height="26" x="490" y="340" fill="#d97757" rx="6"/>
  <text x="555" y="358" fill="#fff" font-family="ui-monospace, monospace" font-size="10" text-anchor="middle">判断瓶颈 ↑↑↑↑</text>
</svg>
