<svg xmlns="http://www.w3.org/2000/svg" font-family="ui-serif, Georgia, serif" viewBox="0 0 680 380">
  <path fill="#faf9f5" d="M0 0h680v380H0z"/>
  <text x="340" y="26" fill="#141413" font-size="14" font-weight="500" letter-spacing="-.02em" text-anchor="middle">Prompt 注入攻击面分类</text>
  <text x="340" y="42" fill="#87867f" font-family="ui-monospace, monospace" font-size="10" text-anchor="middle">威胁情报概览 · 2026/03/17</text>
  <circle cx="340" cy="200" r="52" fill="#fff" stroke="#d97757" stroke-width="2"/>
  <text x="340" y="193" fill="#d97757" font-family="ui-monospace, monospace" font-size="12" font-weight="600" text-anchor="middle">AI Agent</text>
  <text x="340" y="210" fill="#87867f" font-size="10" text-anchor="middle">核心系统</text>
  <rect width="160" height="52" x="260" y="58" fill="#fff" stroke="#d97757" stroke-width="1.8" rx="8"/>
  <rect width="28" height="52" x="260" y="58" fill="#d97757" rx="8"/>
  <text x="274" y="89" fill="#fff" font-family="ui-monospace, monospace" font-size="9" text-anchor="middle">极高</text>
  <text x="346" y="82" fill="#141413" font-size="12" text-anchor="middle">指令覆盖</text>
  <text x="346" y="98" fill="#87867f" font-size="9.5" text-anchor="middle">直接覆盖系统指令</text>
  <path stroke="#d97757" stroke-width="2" d="M340 110v38"/>
  <path fill="#d97757" d="m340 148-4-8h8z"/>
  <rect width="160" height="52" x="468" y="100" fill="#fff" stroke="#788c5d" stroke-width="1.8" rx="8"/>
  <rect width="28" height="52" x="468" y="100" fill="#788c5d" rx="8"/>
  <text x="482" y="131" fill="#fff" font-family="ui-monospace, monospace" font-size="9" text-anchor="middle">高</text>
  <text x="554" y="123" fill="#141413" font-size="12" text-anchor="middle">上下文污染</text>
  <text x="554" y="139" fill="#87867f" font-size="9.5" text-anchor="middle">多轮对话逐步改变行为</text>
  <path stroke="#788c5d" stroke-width="2" d="m468 140-76 28"/>
  <path fill="#788c5d" d="m392 168 6-6 8 8z"/>
  <rect width="160" height="52" x="468" y="230" fill="#fff" stroke="#788c5d" stroke-width="1.8" rx="8"/>
  <rect width="28" height="52" x="468" y="230" fill="#788c5d" rx="8"/>
  <text x="482" y="261" fill="#fff" font-family="ui-monospace, monospace" font-size="9" text-anchor="middle">高</text>
  <text x="554" y="253" fill="#141413" font-size="12" text-anchor="middle">数据泄露诱导</text>
  <text x="554" y="269" fill="#87867f" font-size="9.5" text-anchor="middle">诱导 AI 泄露敏感信息</text>
  <path stroke="#788c5d" stroke-width="2" d="m468 256-76-24"/>
  <path fill="#788c5d" d="m392 232 8 4-2 8z"/>
  <rect width="160" height="52" x="52" y="230" fill="#fff" stroke="#d97757" stroke-width="1.8" rx="8"/>
  <rect width="28" height="52" x="52" y="230" fill="#e3a873" rx="8"/>
  <text x="66" y="261" fill="#fff" font-family="ui-monospace, monospace" font-size="9" text-anchor="middle">中高</text>
  <text x="138" y="253" fill="#141413" font-size="12" text-anchor="middle">社会工程</text>
  <text x="138" y="269" fill="#87867f" font-size="9.5" text-anchor="middle">利用&quot;帮助性&quot;绕过限制</text>
  <path stroke="#e3a873" stroke-width="2" d="m212 256 76-24"/>
  <path fill="#e3a873" d="m288 232-8 4 2 8z"/>
  <rect width="160" height="52" x="52" y="100" fill="#fff" stroke="#d97757" stroke-width="1.8" rx="8"/>
  <rect width="28" height="52" x="52" y="100" fill="#d97757" rx="8"/>
  <text x="66" y="131" fill="#fff" font-family="ui-monospace, monospace" font-size="9" text-anchor="middle">极高</text>
  <text x="138" y="123" fill="#141413" font-size="12" text-anchor="middle">间接注入</text>
  <text x="138" y="139" fill="#87867f" font-size="9.5" text-anchor="middle">通过外部数据源注入</text>
  <path stroke="#d97757" stroke-width="2" d="m212 140 76 28"/>
  <path fill="#d97757" d="m288 168-8-6 2 8z"/>
  <text x="52" y="330" fill="#87867f" font-family="ui-monospace, monospace" font-size="10">危险等级：</text>
  <rect width="14" height="14" x="112" y="320" fill="#d97757" rx="3"/>
  <text x="130" y="331" fill="#141413" font-size="9.5">极高</text>
  <rect width="14" height="14" x="170" y="320" fill="#788c5d" rx="3"/>
  <text x="188" y="331" fill="#141413" font-size="9.5">高</text>
  <rect width="14" height="14" x="216" y="320" fill="#e3a873" rx="3"/>
  <text x="234" y="331" fill="#141413" font-size="9.5">中高</text>
  <text x="280" y="331" fill="#87867f" font-size="9.5">箭头方向表示攻击指向 Agent</text>
  <text x="680" y="370" fill="#87867f" font-family="ui-monospace, monospace" font-size="9" text-anchor="end">Simon Willison · OpenAI · OWASP</text>
</svg>
