<svg xmlns="http://www.w3.org/2000/svg" style="font-family:&quot;Courier New&quot;,Courier,monospace;background:#faf9f5" viewBox="0 0 424 308"><path fill="#faf9f5" d="M0 0h424v308H0z"/><text x="212" y="18" fill="#141413" font-size="12" font-weight="bold" text-anchor="middle">知识共享网络</text><path stroke="#d1cfc5" stroke-linecap="round" stroke-width="1.5" d="M63.2 143.5h14.4m-14.4 0V169m0-17v34m0-8.5h14.4m-14.4 0V152m4.8-3.7h19.2m-19.2 34h19.2m-9.6-34h19.2m-19.2 34h19.2M92 109.5h14.4m-19.2 38.8h19.2M92 177.5h14.4m-14.4 0H77.6m14.4 0V203m0-8.5h14.4m-14.4 0V169m4.8-54.7H116m-19.2 34H116m-19.2 34H116m-19.2 17H116m-9.6-85h19.2m-19.2 34h19.2m-19.2 34h19.2m-19.2 17h19.2m-9.6-85h19.2m-14.4 29.2h-14.4m14.4 0V169m0-17v34m0-8.5h-14.4m14.4 0V152m-4.8 47.3h19.2m-9.6-85h19.2m-19.2 85h19.2M140 58.5h14.4m-14.4 0V84m0-17v34m0-8.5h14.4m-14.4 0V67m-4.8 47.3h19.2M140 143.5h14.4m-14.4 0V169m0-17v34m0-8.5h14.4m-14.4 0V152m-4.8 47.3h19.2M140 228.5h14.4m-14.4 0V254m0-17v34m0-8.5h14.4m-14.4 0V237m4.8-173.7H164m-19.2 34H164m-19.2 17H164m-19.2 34H164m-19.2 34H164m-19.2 17H164m-19.2 34H164m-19.2 34H164m-9.6-204h19.2m-19.2 34h19.2m-19.2 17h19.2m-19.2 34h19.2m-19.2 34h19.2m-19.2 17h19.2m-19.2 34h19.2m-19.2 34h19.2m-9.6-204h19.2m-14.4 29.2h14.4m-14.4 0h-14.4m14.4 0V118m0-8.5h14.4m-14.4 0h-14.4m14.4 0V84m-4.8 64.3h19.2m-14.4 29.2h14.4m-14.4 0h-14.4m14.4 0V203m0-8.5h14.4m-14.4 0h-14.4m14.4 0V169m-4.8 64.3h19.2m-19.2 34h19.2m-9.6-204h19.2m-19.2 34h19.2m-19.2 17h19.2m-19.2 34h19.2m-19.2 34h19.2m-19.2 17h19.2m-19.2 34h19.2m-19.2 34h19.2m-9.6-204h19.2m-19.2 34h19.2m-19.2 17h19.2m-19.2 34h19.2m-19.2 34h19.2m-19.2 17h19.2m-19.2 34h19.2m-19.2 34h19.2m-4.8-208.8h-14.4m14.4 0V84m0-17v34m0-8.5h-14.4m14.4 0V67m-4.8 47.3H212m-14.4 29.2h-14.4m14.4 0V169m0-17v34m0-8.5h-14.4m14.4 0V152m-4.8 47.3H212m-14.4 29.2h-14.4m14.4 0V254m0-17v34m0-8.5h-14.4m14.4 0V237m4.8-122.7h19.2m-19.2 85h19.2m-9.6-85h19.2m-14.4 29.2h14.4m-14.4 0V169m0-17v34m0-8.5h14.4m-14.4 0V152m-4.8 47.3h19.2m-9.6-85h19.2m-19.2 34h19.2m-19.2 34h19.2m-19.2 17h19.2m-9.6-85h19.2m-19.2 34h19.2m-19.2 34h19.2m-19.2 17h19.2m-4.8-89.8h-14.4m9.6 38.8H260m-14.4 29.2H260m-14.4 0h-14.4m14.4 0V203m0-8.5h-14.4m14.4 0V169m4.8-20.7h19.2m-19.2 34h19.2m-9.6-34h19.2m-19.2 34h19.2m-4.8-38.8H260m14.4 0V169m0-17v34m0-8.5H260m14.4 0V152"/><text x="92" y="131.3" fill="#d97757" font-size="14" font-weight="bold" text-anchor="middle">↓</text><text x="168.8" y="131.3" fill="#d97757" font-size="14" font-weight="bold" text-anchor="middle">↓</text><text x="168.8" y="216.3" fill="#d97757" font-size="14" font-weight="bold" text-anchor="middle">↓</text><text x="216.8" y="80.3" fill="#d97757" font-size="14" font-weight="bold" text-anchor="middle">←</text><text x="216.8" y="250.3" fill="#d97757" font-size="14" font-weight="bold" text-anchor="middle">←</text><text x="245.6" y="131.3" fill="#d97757" font-size="14" font-weight="bold" text-anchor="middle">↓</text><text x="293.6" y="165.3" fill="#d97757" font-size="14" font-weight="bold" text-anchor="middle">←</text><text x="24.8" y="284.3" fill="#141413" font-size="13">`</text><text x="34.4" y="284.3" fill="#141413" font-size="13">`</text><text x="44" y="284.3" fill="#141413" font-size="13">`</text><text x="82.4" y="165.3" fill="#141413" font-size="13">A</text><text x="92" y="165.3" fill="#141413" font-size="13">-</text><text x="101.6" y="165.3" fill="#141413" font-size="13">1</text><text x="149.6" y="80.3" fill="#141413" font-size="13">H</text><text x="149.6" y="250.3" fill="#141413" font-size="13">H</text><text x="159.2" y="80.3" fill="#141413" font-size="13">u</text><text x="159.2" y="165.3" fill="#141413" font-size="13">A</text><text x="159.2" y="250.3" fill="#141413" font-size="13">u</text><text x="168.8" y="80.3" fill="#141413" font-size="13">b</text><text x="168.8" y="165.3" fill="#141413" font-size="13">-</text><text x="168.8" y="250.3" fill="#141413" font-size="13">b</text><text x="178.4" y="165.3" fill="#141413" font-size="13">2</text><text x="188" y="80.3" fill="#141413" font-size="13">A</text><text x="188" y="250.3" fill="#141413" font-size="13">B</text><text x="236" y="80.3" fill="#141413" font-size="13">知</text><text x="236" y="165.3" fill="#141413" font-size="13">A</text><text x="236" y="250.3" fill="#141413" font-size="13">另</text><text x="245.6" y="80.3" fill="#141413" font-size="13">识</text><text x="245.6" y="165.3" fill="#141413" font-size="13">-</text><text x="245.6" y="250.3" fill="#141413" font-size="13">一</text><text x="255.2" y="80.3" fill="#141413" font-size="13">汇</text><text x="255.2" y="165.3" fill="#141413" font-size="13">3</text><text x="255.2" y="250.3" fill="#141413" font-size="13">个</text><text x="264.8" y="80.3" fill="#141413" font-size="13">聚</text><text x="264.8" y="250.3" fill="#141413" font-size="13">知</text><text x="274.4" y="80.3" fill="#141413" font-size="13">中</text><text x="274.4" y="250.3" fill="#141413" font-size="13">识</text><text x="284" y="80.3" fill="#141413" font-size="13">心</text><text x="284" y="250.3" fill="#141413" font-size="13">中</text><text x="293.6" y="250.3" fill="#141413" font-size="13">心</text><text x="312.8" y="165.3" fill="#141413" font-size="13">专</text><text x="322.4" y="165.3" fill="#141413" font-size="13">业</text><text x="332" y="165.3" fill="#141413" font-size="13">领</text><text x="341.6" y="165.3" fill="#141413" font-size="13">域</text><text x="360.8" y="165.3" fill="#141413" font-size="13">A</text><text x="370.4" y="165.3" fill="#141413" font-size="13">g</text><text x="380" y="165.3" fill="#141413" font-size="13">e</text><text x="389.6" y="165.3" fill="#141413" font-size="13">n</text><text x="399.2" y="165.3" fill="#141413" font-size="13">t</text></svg>