<svg xmlns="http://www.w3.org/2000/svg" font-family="ui-serif, Georgia, serif" viewBox="0 0 560 140"><path fill="#faf9f5" d="M0 0h560v140H0z"/><text x="280" y="18" fill="#141413" font-size="12" font-weight="500" letter-spacing="-.02em" text-anchor="middle">表示层：Web UI / Mobile UI / REST API</text><text x="280" y="32" fill="#87867f" font-family="ui-monospace, monospace" font-size="9" text-anchor="middle">postcodeengineering.com · 2026/03/15</text><rect width="160" height="60" x="30" y="50" fill="#fff" stroke="#d97757" stroke-width="1.5" rx="6"/><rect width="160" height="16" x="30" y="50" fill="#fef3c7" stroke="#d97757" rx="6"/><text x="110" y="63" fill="#d97757" font-family="ui-monospace, monospace" font-size="10" font-weight="600" text-anchor="middle">Web UI</text><text x="110" y="83" fill="#141413" font-size="9" text-anchor="middle">浏览器渲染</text><text x="110" y="98" fill="#87867f" font-size="9" text-anchor="middle">HTML · CSS · JavaScript</text><rect width="160" height="60" x="200" y="50" fill="#fff" stroke="#2563eb" stroke-width="1.5" rx="6"/><rect width="160" height="16" x="200" y="50" fill="#dbeafe" stroke="#2563eb" rx="6"/><text x="280" y="63" fill="#2563eb" font-family="ui-monospace, monospace" font-size="10" font-weight="600" text-anchor="middle">REST API</text><text x="280" y="83" fill="#141413" font-size="9" text-anchor="middle">JSON over HTTP</text><text x="280" y="98" fill="#87867f" font-size="9" text-anchor="middle">GET · POST · PUT · DELETE</text><rect width="160" height="60" x="370" y="50" fill="#fff" stroke="#059669" stroke-width="1.5" rx="6"/><rect width="160" height="16" x="370" y="50" fill="#d1fae5" stroke="#059669" rx="6"/><text x="450" y="63" fill="#059669" font-family="ui-monospace, monospace" font-size="10" font-weight="600" text-anchor="middle">Mobile UI</text><text x="450" y="83" fill="#141413" font-size="9" text-anchor="middle">原生应用渲染</text><text x="450" y="98" fill="#87867f" font-size="9" text-anchor="middle">Swift · Kotlin · React Native</text><path stroke="#d1cfc5" stroke-dasharray="3,2" d="M110 110h170m0 0h170"/><text x="280" y="120" fill="#87867f" font-size="9" text-anchor="middle">共同的业务服务层</text><text x="280" y="132" fill="#87867f" font-size="8.5" text-anchor="middle">同一套 Domain Model</text></svg>