<svg xmlns="http://www.w3.org/2000/svg" font-family="ui-serif, Georgia, serif" viewBox="0 0 680 360"><path fill="#faf9f5" d="M0 0h680v360H0z"/><text x="340" y="26" fill="#141413" font-size="14" font-weight="500" letter-spacing="-.02em" text-anchor="middle">Loop Engineering · 五阶段循环</text><text x="340" y="42" fill="#87867f" font-family="ui-monospace, monospace" font-size="10" text-anchor="middle">Addy Osmani · addyosmani.com · 2026/06/07</text><rect width="130" height="88" x="40" y="68" fill="#fff" stroke="#d97757" stroke-width="1.8" rx="8"/><text x="105" y="92" fill="#d97757" font-family="ui-monospace, monospace" font-size="11" font-weight="600" text-anchor="middle">Stage 1</text><text x="105" y="112" fill="#141413" font-size="15" font-weight="600" text-anchor="middle">Discover</text><text x="105" y="130" fill="#87867f" font-size="9.5" text-anchor="middle">识别问题</text><text x="105" y="144" fill="#87867f" font-size="9" text-anchor="middle">确定目标</text><rect width="130" height="88" x="275" y="68" fill="#fff" stroke="#d1cfc5" stroke-width="1.5" rx="8"/><text x="340" y="92" fill="#d97757" font-family="ui-monospace, monospace" font-size="11" font-weight="600" text-anchor="middle">Stage 2</text><text x="340" y="112" fill="#141413" font-size="15" font-weight="600" text-anchor="middle">Plan</text><text x="340" y="130" fill="#87867f" font-size="9.5" text-anchor="middle">拆解任务</text><text x="340" y="144" fill="#87867f" font-size="9" text-anchor="middle">设定验收标准</text><rect width="130" height="88" x="510" y="68" fill="#fff" stroke="#d1cfc5" stroke-width="1.5" rx="8"/><text x="575" y="92" fill="#d97757" font-family="ui-monospace, monospace" font-size="11" font-weight="600" text-anchor="middle">Stage 3</text><text x="575" y="112" fill="#141413" font-size="15" font-weight="600" text-anchor="middle">Execute</text><text x="575" y="130" fill="#87867f" font-size="9.5" text-anchor="middle">实现代码</text><text x="575" y="144" fill="#87867f" font-size="9" text-anchor="middle">调用工具</text><rect width="130" height="88" x="510" y="196" fill="#fff" stroke="#d1cfc5" stroke-width="1.5" rx="8"/><text x="575" y="220" fill="#d97757" font-family="ui-monospace, monospace" font-size="11" font-weight="600" text-anchor="middle">Stage 4</text><text x="575" y="240" fill="#141413" font-size="15" font-weight="600" text-anchor="middle">Verify</text><text x="575" y="258" fill="#87867f" font-size="9.5" text-anchor="middle">Grader 打分</text><text x="575" y="272" fill="#87867f" font-size="9" text-anchor="middle">test pass / lint clean</text><rect width="130" height="88" x="40" y="196" fill="#fff" stroke="#d1cfc5" stroke-width="1.5" rx="8"/><text x="105" y="220" fill="#d97757" font-family="ui-monospace, monospace" font-size="11" font-weight="600" text-anchor="middle">Stage 5</text><text x="105" y="240" fill="#141413" font-size="15" font-weight="600" text-anchor="middle">Iterate</text><text x="105" y="258" fill="#87867f" font-size="9.5" text-anchor="middle">失败则带反馈重试</text><text x="105" y="272" fill="#87867f" font-size="9" text-anchor="middle">成功则提交</text><path stroke="#d97757" stroke-width="1.5" d="M170 105h95"/><path fill="#d97757" d="m265 101-7 4 7 4z"/><text x="217" y="99" fill="#d97757" font-family="ui-monospace, monospace" font-size="8" text-anchor="middle">→</text><path stroke="#d1cfc5" stroke-width="1.5" d="M405 105h95"/><path fill="#d1cfc5" d="m500 101-7 4 7 4z"/><text x="452" y="99" fill="#d1cfc5" font-family="ui-monospace, monospace" font-size="8" text-anchor="middle">→</text><path stroke="#d1cfc5" stroke-width="1.5" d="M575 156v30"/><path fill="#d1cfc5" d="m571 186 4 7 4-7z"/><path stroke="#d1cfc5" stroke-width="1.5" d="M500 233H170"/><path fill="#d1cfc5" d="m170 229-7 4 7 4z"/><path stroke="#d97757" stroke-width="1.5" d="M105 196v-41"/><path fill="#d97757" d="m101 155 4-7 4 7z"/><text x="50" y="155" fill="#d97757" font-family="ui-monospace, monospace" font-size="9">Loop</text><text x="50" y="166" fill="#d97757" font-family="ui-monospace, monospace" font-size="9">重试</text><rect width="240" height="88" x="220" y="196" fill="#f0eee6" stroke="#d1cfc5" stroke-width="1.5" rx="8"/><text x="340" y="222" fill="#141413" font-size="11" font-weight="600" text-anchor="middle">Stop Condition</text><text x="340" y="242" fill="#87867f" font-size="10" text-anchor="middle">可验证的成功标准</text><text x="340" y="258" fill="#87867f" font-size="10" text-anchor="middle">test pass + reviewer sign-off</text><text x="340" y="274" fill="#d97757" font-family="ui-monospace, monospace" font-size="10" font-weight="600" text-anchor="middle">&quot;seems right&quot; ≠ 完成</text><rect width="240" height="40" x="220" y="296" fill="#fff" stroke="#d97757" stroke-dasharray="4,3" rx="6"/><text x="340" y="314" fill="#141413" font-size="9" font-style="italic" text-anchor="middle">&quot;AI agents default to the shortest path —</text><text x="340" y="328" fill="#141413" font-size="9" font-style="italic" text-anchor="middle">skills force them not to.&quot;</text><text x="340" y="340" fill="#87867f" font-family="ui-monospace, monospace" font-size="8.5" text-anchor="middle">— Addy Osmani</text><rect width="8" height="8" x="40" y="312" fill="#d97757" rx="2"/><text x="54" y="320" fill="#87867f" font-family="ui-monospace, monospace" font-size="9">核心循环</text><rect width="8" height="8" x="40" y="328" fill="#d1cfc5" rx="2"/><text x="54" y="336" fill="#87867f" font-family="ui-monospace, monospace" font-size="9">执行阶段</text><rect width="8" height="8" x="40" y="344" fill="#f0eee6" stroke="#d1cfc5" rx="2"/><text x="54" y="352" fill="#87867f" font-family="ui-monospace, monospace" font-size="9">停止条件 + 引用</text></svg>