<svg xmlns="http://www.w3.org/2000/svg" viewBox="0 0 900 480"><defs><linearGradient id="bg2" x1="0" x2="1" y1="0" y2="1"><stop offset="0%" stop-color="#faf9f5"/><stop offset="100%" stop-color="#e3dacc"/></linearGradient><marker id="arrow" markerHeight="8" markerWidth="8" orient="auto" refX="6" refY="3"><path fill="#87867f" d="M0 0v6l8-3z"/></marker><filter id="shadow2" width="110%" height="110%" x="-5%" y="-5%"><feDropShadow dx="0" dy="3" flood-color="#141413" flood-opacity=".1" stdDeviation="6"/></filter></defs><rect width="900" height="480" fill="url(#bg2)" rx="16"/><text x="450" y="42" fill="#141413" font-family="system-ui,-apple-system,sans-serif" font-size="22" font-weight="700" letter-spacing="-.3" text-anchor="middle">AI 时代的认知债务动态</text><path stroke="#d1cfc5" stroke-width="1.5" d="M200 56h500"/><rect width="270" height="340" x="40" y="76" fill="#faf9f5" filter="url(#shadow2)" rx="14"/><rect width="270" height="52" x="40" y="76" fill="#d97757" rx="14"/><path fill="#d97757" d="M40 110h270v18H40z"/><text x="175" y="108" fill="#faf9f5" font-family="system-ui,-apple-system,sans-serif" font-size="16" font-weight="700" text-anchor="middle">AI 让「容易」更容易</text><g transform="translate(60 148)"><rect width="230" height="36" fill="#d97757" opacity=".08" rx="8"/><text x="115" y="23" fill="#d97757" font-family="system-ui,-apple-system,sans-serif" font-size="13" font-weight="600" text-anchor="middle">代码生成：几秒完成 ✓</text><path stroke="#d97757" stroke-width="2" marker-end="url(#arrow)" d="M115 42v14" opacity=".6"/><rect width="230" height="36" y="62" fill="#d97757" opacity=".14" rx="8"/><text x="115" y="85" fill="#d97757" font-family="system-ui,-apple-system,sans-serif" font-size="13" font-weight="600" text-anchor="middle">一键部署：不需要理解 ✓</text><path stroke="#d97757" stroke-width="2" marker-end="url(#arrow)" d="M115 104v14" opacity=".6"/><rect width="230" height="36" y="124" fill="#d97757" opacity=".2" rx="8"/><text x="115" y="147" fill="#d97757" font-family="system-ui,-apple-system,sans-serif" font-size="13" font-weight="600" text-anchor="middle">自动化：不需要学习 ✓</text><path stroke="#d97757" stroke-width="2" marker-end="url(#arrow)" d="M115 166v14" opacity=".6"/><rect width="230" height="36" y="186" fill="#d97757" opacity=".26" rx="8"/><text x="115" y="209" fill="#d97757" font-family="system-ui,-apple-system,sans-serif" font-size="13" font-weight="600" text-anchor="middle">复杂度被隐藏 ≠ 消除 ⚠</text></g><path stroke="#d1cfc5" stroke-dasharray="8,6" stroke-width="2" d="M355 100v290"/><text x="355" y="250" fill="#87867f" font-family="system-ui,-apple-system,sans-serif" font-size="26" text-anchor="middle">→</text><rect width="270" height="340" x="400" y="76" fill="#faf9f5" filter="url(#shadow2)" rx="14"/><rect width="270" height="52" x="400" y="76" fill="#788c5d" rx="14"/><path fill="#788c5d" d="M400 110h270v18H400z"/><text x="535" y="108" fill="#faf9f5" font-family="system-ui,-apple-system,sans-serif" font-size="16" font-weight="700" text-anchor="middle">但 AI 让「简单」更难</text><g transform="translate(420 148)"><rect width="230" height="36" fill="#788c5d" opacity=".08" rx="8"/><text x="115" y="23" fill="#788c5d" font-family="system-ui,-apple-system,sans-serif" font-size="13" font-weight="600" text-anchor="middle">代码工作了，但不知道原因 ❓</text><path stroke="#788c5d" stroke-width="2" marker-end="url(#arrow)" d="M115 42v14" opacity=".6"/><rect width="230" height="36" y="62" fill="#788c5d" opacity=".14" rx="8"/><text x="115" y="85" fill="#788c5d" font-family="system-ui,-apple-system,sans-serif" font-size="13" font-weight="600" text-anchor="middle">隐藏的依赖链，无法推理 ❓</text><path stroke="#788c5d" stroke-width="2" marker-end="url(#arrow)" d="M115 104v14" opacity=".6"/><rect width="230" height="36" y="124" fill="#788c5d" opacity=".2" rx="8"/><text x="115" y="147" fill="#788c5d" font-family="system-ui,-apple-system,sans-serif" font-size="13" font-weight="600" text-anchor="middle">黑盒系统，理解边界模糊 ❓</text><path stroke="#788c5d" stroke-width="2" marker-end="url(#arrow)" d="M115 166v14" opacity=".6"/><rect width="230" height="36" y="186" fill="#788c5d" opacity=".26" rx="8"/><text x="115" y="209" fill="#788c5d" font-family="system-ui,-apple-system,sans-serif" font-size="13" font-weight="600" text-anchor="middle">认知债务持续累积 💀</text></g><rect width="165" height="340" x="700" y="76" fill="#141413" filter="url(#shadow2)" rx="14"/><text x="782" y="120" fill="#faf9f5" font-family="system-ui,-apple-system,sans-serif" font-size="14" font-weight="700" text-anchor="middle">结果</text><path stroke="#d1cfc5" d="M720 132h125" opacity=".3"/><path fill="#d97757" d="m782 155 58 185H724z" opacity=".3"/><path fill="#d97757" d="m782 155 28 105h-56z" opacity=".5"/><path fill="#d97757" d="m782 155 13 65h-26z" opacity=".8"/><text x="782" y="365" fill="#87867f" font-family="system-ui,-apple-system,sans-serif" font-size="11" text-anchor="middle">认知债务</text><text x="782" y="382" fill="#87867f" font-family="system-ui,-apple-system,sans-serif" font-size="11" text-anchor="middle">金字塔</text><rect width="820" height="38" x="40" y="432" fill="#141413" opacity=".05" rx="10"/><text x="450" y="456" fill="#141413" font-family="system-ui,-apple-system,sans-serif" font-size="13" font-style="italic" text-anchor="middle">&quot;认知债务：当下省下的理解成本，未来要连本带利偿还。&quot;</text></svg>