<svg xmlns="http://www.w3.org/2000/svg" viewBox="0 0 800 440">
  <defs>
    <pattern id="grid" width="40" height="40" patternUnits="userSpaceOnUse">
      <path fill="none" stroke="#e3dacc" stroke-width=".5" d="M40 0H0v40"/>
    </pattern>
  </defs>
  <rect width="800" height="440" fill="#faf9f5" rx="12"/>
  <text x="40" y="38" fill="#141413" font-family="system-ui, sans-serif" font-size="18" font-weight="700">VibeSec 清算：AI 编程的安全代价</text>
  <text x="40" y="58" fill="#87867f" font-family="system-ui, sans-serif" font-size="12">2026 年 AI 生成代码安全风险数据矩阵</text>
  <rect width="720" height="28" x="40" y="75" fill="#141413" rx="6"/>
  <text x="95" y="93" fill="#faf9f5" font-family="system-ui, sans-serif" font-size="11" font-weight="700">统计</text>
  <text x="350" y="93" fill="#faf9f5" font-family="system-ui, sans-serif" font-size="11" font-weight="700" text-anchor="middle">含义</text>
  <text x="620" y="93" fill="#faf9f5" font-family="system-ui, sans-serif" font-size="11" font-weight="700" text-anchor="middle">应对方案</text>
  <rect width="720" height="70" x="40" y="110" fill="url(#grid)" rx="0"/>
  <rect width="720" height="70" x="40" y="110" fill="#d97757" fill-opacity=".1" stroke="#d97757" stroke-width=".5" rx="0"/>
  <rect width="90" height="50" x="55" y="120" fill="#d97757" rx="6"/>
  <text x="100" y="145" fill="#faf9f5" font-family="system-ui, sans-serif" font-size="22" font-weight="800" text-anchor="middle">25%</text>
  <text x="100" y="163" fill="#faf9f5" font-family="system-ui, sans-serif" font-size="9" text-anchor="middle">含漏洞代码</text>
  <text x="230" y="137" fill="#141413" font-family="system-ui, sans-serif" font-size="12" font-weight="600">每 4 行 AI 代码就有 1 行含已知漏洞</text>
  <text x="230" y="156" fill="#87867f" font-family="system-ui, sans-serif" font-size="11">AppSec Santa 2026 | 78% 代码库含高危/严重漏洞</text>
  <rect width="140" height="22" x="450" y="120" fill="#788c5d" fill-opacity=".2" stroke="#788c5d" rx="4"/>
  <text x="520" y="134" fill="#788c5d" font-family="system-ui, sans-serif" font-size="10" font-weight="600" text-anchor="middle">SAST + DAST 强制扫描</text>
  <rect width="140" height="22" x="450" y="148" fill="#788c5d" fill-opacity=".2" stroke="#788c5d" rx="4"/>
  <text x="520" y="162" fill="#788c5d" font-family="system-ui, sans-serif" font-size="10" font-weight="600" text-anchor="middle">安全上下文文件</text>
  <rect width="140" height="22" x="600" y="120" fill="#788c5d" fill-opacity=".2" stroke="#788c5d" rx="4"/>
  <text x="670" y="134" fill="#788c5d" font-family="system-ui, sans-serif" font-size="10" font-weight="600" text-anchor="middle">Harness 工程门控</text>
  <rect width="140" height="22" x="600" y="148" fill="#788c5d" fill-opacity=".2" stroke="#788c5d" rx="4"/>
  <text x="670" y="162" fill="#788c5d" font-family="system-ui, sans-serif" font-size="10" font-weight="600" text-anchor="middle">部署前强制门控</text>
  <rect width="720" height="70" x="40" y="183" fill="url(#grid)" rx="0"/>
  <rect width="720" height="70" x="40" y="183" fill="#d97757" fill-opacity=".1" stroke="#d97757" stroke-width=".5" rx="0"/>
  <rect width="90" height="50" x="55" y="193" fill="#d97757" rx="6"/>
  <text x="100" y="218" fill="#faf9f5" font-family="system-ui, sans-serif" font-size="22" font-weight="800" text-anchor="middle">73%</text>
  <text x="100" y="236" fill="#faf9f5" font-family="system-ui, sans-serif" font-size="9" text-anchor="middle">Prompt 注入暴露</text>
  <text x="230" y="210" fill="#141413" font-family="system-ui, sans-serif" font-size="12" font-weight="600">近 3/4 AI 系统存在 prompt injection 暴露</text>
  <text x="230" y="229" fill="#87867f" font-family="system-ui, sans-serif" font-size="11">SQ Magazine 2026 | 44% 应用漏洞攻击同比增长</text>
  <rect width="140" height="22" x="450" y="193" fill="#788c5d" fill-opacity=".2" stroke="#788c5d" rx="4"/>
  <text x="520" y="207" fill="#788c5d" font-family="system-ui, sans-serif" font-size="10" font-weight="600" text-anchor="middle">输入隔离沙箱</text>
  <rect width="140" height="22" x="450" y="221" fill="#788c5d" fill-opacity=".2" stroke="#788c5d" rx="4"/>
  <text x="520" y="235" fill="#788c5d" font-family="system-ui, sans-serif" font-size="10" font-weight="600" text-anchor="middle">最小权限原则</text>
  <rect width="140" height="22" x="600" y="193" fill="#788c5d" fill-opacity=".2" stroke="#788c5d" rx="4"/>
  <text x="670" y="207" fill="#788c5d" font-family="system-ui, sans-serif" font-size="10" font-weight="600" text-anchor="middle">Red Team Prompt 测试</text>
  <rect width="140" height="22" x="600" y="221" fill="#788c5d" fill-opacity=".2" stroke="#788c5d" rx="4"/>
  <text x="670" y="235" fill="#788c5d" font-family="system-ui, sans-serif" font-size="10" font-weight="600" text-anchor="middle">不可绕过规则编码</text>
  <rect width="720" height="70" x="40" y="256" fill="url(#grid)" rx="0"/>
  <rect width="720" height="70" x="40" y="256" fill="#87867f" fill-opacity=".06" stroke="#87867f" stroke-width=".5" rx="0"/>
  <rect width="90" height="50" x="55" y="266" fill="#87867f" rx="6"/>
  <text x="100" y="288" fill="#faf9f5" font-family="system-ui, sans-serif" font-size="18" font-weight="800" text-anchor="middle">62%</text>
  <text x="100" y="306" fill="#faf9f5" font-family="system-ui, sans-serif" font-size="9" text-anchor="middle">安全团队超负荷</text>
  <text x="230" y="283" fill="#141413" font-family="system-ui, sans-serif" font-size="12" font-weight="600">安全团队表示跟上 AI 代码量越来越难</text>
  <text x="230" y="302" fill="#87867f" font-family="system-ui, sans-serif" font-size="11">ProjectDiscovery 2026 | 42% 新企业软件由 AI 生成</text>
  <rect width="140" height="22" x="450" y="266" fill="#788c5d" fill-opacity=".2" stroke="#788c5d" rx="4"/>
  <text x="520" y="280" fill="#788c5d" font-family="system-ui, sans-serif" font-size="10" font-weight="600" text-anchor="middle">自动化安全情报 Feed</text>
  <rect width="140" height="22" x="450" y="294" fill="#788c5d" fill-opacity=".2" stroke="#788c5d" rx="4"/>
  <text x="520" y="308" fill="#788c5d" font-family="system-ui, sans-serif" font-size="10" font-weight="600" text-anchor="middle">把安全规则进 Builder</text>
  <rect width="140" height="22" x="600" y="266" fill="#788c5d" fill-opacity=".2" stroke="#788c5d" rx="4"/>
  <text x="670" y="280" fill="#788c5d" font-family="system-ui, sans-serif" font-size="10" font-weight="600" text-anchor="middle">每日 CVE 情报</text>
  <rect width="140" height="22" x="600" y="294" fill="#788c5d" fill-opacity=".2" stroke="#788c5d" rx="4"/>
  <text x="670" y="308" fill="#788c5d" font-family="system-ui, sans-serif" font-size="10" font-weight="600" text-anchor="middle">安全默认模板</text>
  <rect width="720" height="70" x="40" y="329" fill="url(#grid)" rx="0"/>
  <rect width="720" height="70" x="40" y="329" fill="#d97757" fill-opacity=".1" stroke="#d97757" stroke-width=".5" rx="0"/>
  <rect width="90" height="50" x="55" y="339" fill="#d97757" rx="6"/>
  <text x="100" y="363" fill="#faf9f5" font-family="system-ui, sans-serif" font-size="18" font-weight="800" text-anchor="middle">1/5</text>
  <text x="100" y="381" fill="#faf9f5" font-family="system-ui, sans-serif" font-size="9" text-anchor="middle">数据泄露来源</text>
  <text x="230" y="356" fill="#141413" font-family="system-ui, sans-serif" font-size="12" font-weight="600">企业数据泄露由 AI 代码引起（Aikido Security 2026）</text>
  <text x="230" y="375" fill="#87867f" font-family="system-ui, sans-serif" font-size="11">Thoughtworks 案例：AI 两次推荐严重安全风险配置，在造成实际伤害前拦截</text>
  <rect width="140" height="22" x="450" y="339" fill="#d97757" fill-opacity=".15" stroke="#d97757" rx="4"/>
  <text x="520" y="353" fill="#d97757" font-family="system-ui, sans-serif" font-size="10" font-weight="600" text-anchor="middle">质疑 AI 建议的每个权限</text>
  <rect width="140" height="22" x="450" y="367" fill="#d97757" fill-opacity=".15" stroke="#d97757" rx="4"/>
  <text x="520" y="381" fill="#d97757" font-family="system-ui, sans-serif" font-size="10" font-weight="600" text-anchor="middle">安全路径 ≠ 阻力最小路径</text>
  <rect width="140" height="22" x="600" y="339" fill="#788c5d" fill-opacity=".2" stroke="#788c5d" rx="4"/>
  <text x="670" y="353" fill="#788c5d" font-family="system-ui, sans-serif" font-size="10" font-weight="600" text-anchor="middle">零信任执行</text>
  <rect width="140" height="22" x="600" y="367" fill="#788c5d" fill-opacity=".2" stroke="#788c5d" rx="4"/>
  <text x="670" y="381" fill="#788c5d" font-family="system-ui, sans-serif" font-size="10" font-weight="600" text-anchor="middle">Secret Manager 强制</text>
  <rect width="720" height="24" x="40" y="410" fill="#141413" rx="6"/>
  <text x="400" y="426" fill="#d1cfc5" font-family="system-ui, sans-serif" font-size="11" text-anchor="middle">告诉 AI「要安全」≠ 强制它安全：Prompt 可以被覆盖、被误解、被忽略 | 核心：从「建议」到「门控」的转换</text>
</svg>
