<svg xmlns="http://www.w3.org/2000/svg" style="font-family:&quot;Courier New&quot;,Courier,monospace" viewBox="0 0 800 560">
  <defs>
    <marker id="arr" markerHeight="8" markerWidth="8" orient="auto" refX="4" refY="4">
      <path fill="#d97757" d="m0 0 8 4-8 4Z"/>
    </marker>
    <style>
      .layer-name,.layer-num{font-weight:700}.layer-num{font-size:13px;fill:#87867f}.layer-name{font-size:15px;fill:#141413}.tech-tag{font-size:12px;fill:#87867f}.duty-label{font-size:11px;fill:#d97757}.duty-text{font-size:12px;fill:#141413}
    </style>
  </defs>
  <path fill="#faf9f5" d="M0 0h800v560H0z"/>
  <rect width="760" height="520" x="20" y="20" fill="none" stroke="#d1cfc5" stroke-width="2" rx="4"/>
  <text x="400" y="57" style="font-size:20px;font-weight:700;fill:#141413" text-anchor="middle">Agent OS 架构</text>
  <path stroke="#d1cfc5" d="M280 68h240"/>
  <path stroke="#d97757" stroke-width="2" marker-end="url(#arr)" d="M400 146v12"/>
  <path stroke="#d97757" stroke-width="2" marker-end="url(#arr)" d="M400 222v12"/>
  <path stroke="#d97757" stroke-width="2" marker-end="url(#arr)" d="M400 298v12"/>
  <path stroke="#d97757" stroke-width="2" marker-end="url(#arr)" d="M400 374v12"/>
  <rect width="690" height="64" x="55" y="82" fill="#faf9f5" stroke="#d1cfc5" stroke-width="1.5" rx="3"/>
  <rect width="5" height="64" x="55" y="82" fill="#87867f" rx="2"/>
  <rect width="54" height="20" x="72" y="90" fill="#e3dacc" rx="3"/>
  <text x="99" y="104" class="layer-num" text-anchor="middle">第5层</text>
  <path stroke="#d1cfc5" d="M136 90v48"/>
  <text x="150" y="108" class="layer-name">接口层 (Interface Layer)</text>
  <text x="150" y="126" class="tech-tag">WebSocket, HTTP, CLI, Voice</text>
  <path stroke="#d1cfc5" d="M440 90v48"/>
  <text x="454" y="107" class="duty-label">职责：</text>
  <text x="490" y="107" class="duty-text">协议适配、输入验证、响应格式化</text>
  <rect width="690" height="64" x="55" y="158" fill="#faf9f5" stroke="#d1cfc5" stroke-width="1.5" rx="3"/>
  <rect width="5" height="64" x="55" y="158" fill="#e3dacc" rx="2"/>
  <rect width="54" height="20" x="72" y="166" fill="#e3dacc" rx="3"/>
  <text x="99" y="180" class="layer-num" text-anchor="middle">第4层</text>
  <path stroke="#d1cfc5" d="M136 166v48"/>
  <text x="150" y="184" class="layer-name">编排层 (Orchestration Layer)</text>
  <text x="150" y="202" class="tech-tag">Task Scheduler, Flow Control</text>
  <path stroke="#d1cfc5" d="M440 166v48"/>
  <text x="454" y="183" class="duty-label">职责：</text>
  <text x="490" y="183" class="duty-text">任务分解、并发管理、错误恢复</text>
  <rect width="690" height="64" x="55" y="234" fill="#faf9f5" stroke="#d1cfc5" stroke-width="1.5" rx="3"/>
  <rect width="5" height="64" x="55" y="234" fill="#d97757" rx="2"/>
  <rect width="54" height="20" x="72" y="242" fill="#e3dacc" rx="3"/>
  <text x="99" y="256" class="layer-num" text-anchor="middle">第3层</text>
  <path stroke="#d1cfc5" d="M136 242v48"/>
  <text x="150" y="260" class="layer-name">认知层 (Cognition Layer)</text>
  <text x="150" y="278" class="tech-tag">LLM, Reasoning, Planning</text>
  <path stroke="#d1cfc5" d="M440 242v48"/>
  <text x="454" y="259" class="duty-label">职责：</text>
  <text x="490" y="259" class="duty-text">推理、决策、策略生成</text>
  <rect width="690" height="64" x="55" y="310" fill="#faf9f5" stroke="#d1cfc5" stroke-width="1.5" rx="3"/>
  <rect width="5" height="64" x="55" y="310" fill="#788c5d" rx="2"/>
  <rect width="54" height="20" x="72" y="318" fill="#e3dacc" rx="3"/>
  <text x="99" y="332" class="layer-num" text-anchor="middle">第2层</text>
  <path stroke="#d1cfc5" d="M136 318v48"/>
  <text x="150" y="336" class="layer-name">记忆层 (Memory Layer)</text>
  <text x="150" y="354" class="tech-tag">Vector DB, Graph DB, Cache</text>
  <path stroke="#d1cfc5" d="M440 318v48"/>
  <text x="454" y="335" class="duty-label">职责：</text>
  <text x="490" y="335" class="duty-text">知识存储、上下文检索、长期记忆</text>
  <rect width="690" height="64" x="55" y="386" fill="#faf9f5" stroke="#d1cfc5" stroke-width="1.5" rx="3"/>
  <rect width="5" height="64" x="55" y="386" fill="#141413" rx="2"/>
  <rect width="54" height="20" x="72" y="394" fill="#e3dacc" rx="3"/>
  <text x="99" y="408" class="layer-num" text-anchor="middle">第1层</text>
  <path stroke="#d1cfc5" d="M136 394v48"/>
  <text x="150" y="412" class="layer-name">执行层 (Execution Layer)</text>
  <text x="150" y="430" class="tech-tag">Tools, APIs, File System, Browser</text>
  <path stroke="#d1cfc5" d="M440 394v48"/>
  <text x="454" y="411" class="duty-label">职责：</text>
  <text x="490" y="411" class="duty-text">实际动作、副作用、外部交互</text>
  <path fill="none" stroke="#d1cfc5" stroke-width="2" d="M20 20v14m0-14h14m746 0v14m0-14h-14M20 540v-14m0 14h14m746 0v-14m0 14h-14"/>
</svg>
