<svg xmlns="http://www.w3.org/2000/svg" font-family="'JetBrains Mono', 'Fira Code', 'SF Mono', monospace" viewBox="0 0 860 520">
  <defs>
    <style>
      .border{stroke:#d1cfc5;stroke-width:1.5;fill:none}.text-section{fill:#141413;font-size:13px;font-weight:600}.text-box{fill:#141413;font-size:11px}.text-sub{fill:#87867f;font-size:10px}.text-label{fill:#141413;font-size:11px;font-weight:600}.fill-build{fill:#e3dacc;stroke:#87867f;stroke-width:1.5}.fill-decision{fill:#fef3c7;stroke:#d97757;stroke-width:2}.fill-canary,.fill-monitor{fill:#dbeafe;stroke:#2563eb;stroke-width:2}.fill-monitor{fill:#d1fae5;stroke:#059669}.fill-rollback{fill:#fce7f3;stroke:#788c5d;stroke-width:2}.fill-white{fill:#fff}.fill-sm-box{fill:#faf9f5;stroke:#d1cfc5;stroke-width:1}.arrow{stroke:#141413;stroke-width:1.5;fill:none}.arrow-head{fill:#141413}
    </style>
  </defs>
  <path d="M0 0h860v520H0z" style="fill:#faf9f5"/>
  <text x="430" y="28" style="fill:#141413;font-size:15px;font-weight:700" text-anchor="middle">AI-Native Delivery Pipeline</text>
  <rect width="780" height="80" x="40" y="45" rx="10" style="fill:#faf9f5;stroke:#d1cfc5;stroke-width:2"/>
  <text x="60" y="63" fill="#87867f" class="text-section">Phase 1</text>
  <rect width="100" height="38" x="75" y="75" class="fill-build" rx="6"/>
  <text x="125" y="93" class="text-box" text-anchor="middle">Build</text>
  <text x="125" y="107" class="text-sub" text-anchor="middle">代码构建</text>
  <path d="M175 94h18" class="arrow"/>
  <path d="m193 94-7-4v8z" class="arrow-head"/>
  <rect width="100" height="38" x="200" y="75" rx="6" style="fill:#e3dacc;stroke:#87867f;stroke-width:1.5"/>
  <text x="250" y="93" class="text-box" text-anchor="middle">Test</text>
  <text x="250" y="107" class="text-sub" text-anchor="middle">自动化测试</text>
  <path d="M300 94h18" class="arrow"/>
  <path d="m318 94-7-4v8z" class="arrow-head"/>
  <rect width="120" height="38" x="325" y="75" rx="6" style="fill:#e3dacc;stroke:#87867f;stroke-width:1.5"/>
  <text x="385" y="93" class="text-box" text-anchor="middle">AI Judge</text>
  <text x="385" y="107" class="text-sub" text-anchor="middle">AI 质量评审</text>
  <path d="M445 94h18" class="arrow"/>
  <path d="m463 94-7-4v8z" class="arrow-head"/>
  <rect width="100" height="38" x="470" y="75" rx="6" style="fill:#e3dacc;stroke:#87867f;stroke-width:1.5"/>
  <text x="520" y="93" class="text-box" text-anchor="middle">Package</text>
  <text x="520" y="107" class="text-sub" text-anchor="middle">镜像打包</text>
  <path stroke-width="2" d="M430 125v23" class="arrow"/>
  <path d="m430 148-5-8h10z" class="arrow-head"/>
  <rect width="780" height="80" x="40" y="148" class="fill-decision" rx="10"/>
  <text x="60" y="166" fill="#d97757" class="text-section">Phase 2</text>
  <text x="430" y="168" class="text-label" font-size="13" text-anchor="middle">Intelligent Deployment Decision</text>
  <text x="430" y="183" class="text-sub" text-anchor="middle">智能部署决策 — 时机优化 · 风险评估 · 资源分配</text>
  <rect width="160" height="26" x="130" y="193" class="fill-sm-box" rx="5"/>
  <text x="210" y="211" class="text-box" font-size="10" text-anchor="middle">时机预测优化</text>
  <rect width="160" height="26" x="310" y="193" class="fill-sm-box" rx="5"/>
  <text x="390" y="211" class="text-box" font-size="10" text-anchor="middle">风险等级评估</text>
  <rect width="160" height="26" x="490" y="193" class="fill-sm-box" rx="5"/>
  <text x="570" y="211" class="text-box" font-size="10" text-anchor="middle">资源智能预热</text>
  <path stroke-width="2" d="M430 228v23" class="arrow"/>
  <path d="m430 251-5-8h10z" class="arrow-head"/>
  <rect width="780" height="80" x="40" y="251" class="fill-canary" rx="10"/>
  <text x="60" y="269" fill="#2563eb" class="text-section">Phase 3</text>
  <text x="430" y="271" class="text-label" font-size="13" text-anchor="middle">Intelligent Canary Release</text>
  <text x="430" y="286" class="text-sub" text-anchor="middle">智能金丝雀发布 — 动态流量分配 · 多维异常检测 · AI驱动推进</text>
  <rect width="160" height="26" x="130" y="296" class="fill-white border" rx="5"/>
  <text x="210" y="314" class="text-box" font-size="10" text-anchor="middle">动态流量调优</text>
  <rect width="160" height="26" x="310" y="296" class="fill-white border" rx="5"/>
  <text x="390" y="314" class="text-box" font-size="10" text-anchor="middle">多维异常检测</text>
  <rect width="160" height="26" x="490" y="296" class="fill-white border" rx="5"/>
  <text x="570" y="314" class="text-box" font-size="10" text-anchor="middle">AI推进决策</text>
  <path stroke-width="2" d="M430 331v23" class="arrow"/>
  <path d="m430 354-5-8h10z" class="arrow-head"/>
  <rect width="780" height="80" x="40" y="354" class="fill-monitor" rx="10"/>
  <text x="60" y="372" fill="#059669" class="text-section">Phase 4</text>
  <text x="430" y="374" class="text-label" font-size="13" text-anchor="middle">Continuous Risk Monitoring</text>
  <text x="430" y="389" class="text-sub" text-anchor="middle">持续风险监控 — 实时指标 · 漂移检测 · 预测性故障预警</text>
  <rect width="160" height="26" x="130" y="399" class="fill-white border" rx="5"/>
  <text x="210" y="417" class="text-box" font-size="10" text-anchor="middle">实时指标采集</text>
  <rect width="160" height="26" x="310" y="399" class="fill-white border" rx="5"/>
  <text x="390" y="417" class="text-box" font-size="10" text-anchor="middle">模型漂移检测</text>
  <rect width="160" height="26" x="490" y="399" class="fill-white border" rx="5"/>
  <text x="570" y="417" class="text-box" font-size="10" text-anchor="middle">预测性故障检测</text>
  <path stroke-dasharray="5 3" stroke-width="1.5" d="M430 434v16" class="arrow"/>
  <path d="m430 450-5-8h10z" class="arrow-head"/>
  <rect width="780" height="58" x="40" y="450" class="fill-rollback" rx="10"/>
  <text x="60" y="468" fill="#788c5d" class="text-section">Phase 5</text>
  <text x="430" y="470" class="text-label" font-size="13" text-anchor="middle">Intelligent Rollback (if needed)</text>
  <text x="430" y="485" class="text-sub" text-anchor="middle">智能回滚 — 影响评估 · 渐进回滚 · 安全状态迁移</text>
  <rect width="160" height="22" x="130" y="477" class="fill-white border" rx="5"/>
  <text x="210" y="492" class="text-box" font-size="9" text-anchor="middle">影响评估引擎</text>
  <rect width="160" height="22" x="310" y="477" class="fill-white border" rx="5"/>
  <text x="390" y="492" class="text-box" font-size="9" text-anchor="middle">渐进/区域回滚</text>
  <rect width="160" height="22" x="490" y="477" class="fill-white border" rx="5"/>
  <text x="570" y="492" class="text-box" font-size="9" text-anchor="middle">状态安全迁移</text>
  <rect width="160" height="140" x="660" y="44" fill="none" class="border" rx="8"/>
  <text x="740" y="62" class="text-label" font-size="11" text-anchor="middle">图例</text>
  <rect width="14" height="14" x="674" y="73" class="fill-build" rx="3"/>
  <text x="696" y="84" class="text-box" font-size="10">代码构建阶段</text>
  <rect width="14" height="14" x="674" y="93" class="fill-decision" rx="3"/>
  <text x="696" y="104" class="text-box" font-size="10">智能决策层</text>
  <rect width="14" height="14" x="674" y="113" class="fill-canary" rx="3"/>
  <text x="696" y="124" class="text-box" font-size="10">金丝雀发布层</text>
  <rect width="14" height="14" x="674" y="133" class="fill-monitor" rx="3"/>
  <text x="696" y="144" class="text-box" font-size="10">风险监控层</text>
  <rect width="14" height="14" x="674" y="153" class="fill-rollback" rx="3"/>
  <text x="696" y="164" class="text-box" font-size="10">智能回滚层</text>
  <path stroke-width="1.5" d="M674 178h81" class="arrow"/>
  <path d="m755 178-8-5v10z" class="arrow-head"/>
  <text x="696" y="190" class="text-box" font-size="10">处理流程</text>
  <path stroke-dasharray="5 3" stroke-width="1.5" d="M674 202h81" class="arrow"/>
  <path d="m755 202-8-5v10z" class="arrow-head"/>
  <text x="696" y="214" class="text-box" font-size="10">条件触发</text>
</svg>
