<svg xmlns="http://www.w3.org/2000/svg" font-family="ui-serif, Georgia, serif" viewBox="0 0 720 340">
  <title>evo 三阶段优化机制</title>
  <desc>
    Alok Bishoyi 的工具 evo 实现的三阶段闭环：并行探索、树搜索、Gates
  </desc>
  <path fill="#faf9f5" d="M0 0h720v340H0z"/>
  <text x="360" y="26" fill="#141413" font-size="14" font-weight="500" letter-spacing="-.02em" text-anchor="middle">evo 闭环优化机制</text>
  <text x="360" y="42" fill="#87867f" font-family="ui-monospace, monospace" font-size="10" text-anchor="middle">Alok Bishoyi · evo-hq.com · 2026/05/27</text>
  <rect width="76" height="22" x="40" y="58" fill="#d97757" rx="11"/>
  <text x="78" y="73" fill="#fff" font-family="ui-monospace, monospace" font-size="10" text-anchor="middle">并行探索</text>
  <rect width="100" height="40" x="56" y="106" fill="#fff" stroke="#d97757" stroke-width="1.8" rx="6"/>
  <text x="106" y="124" fill="#141413" font-size="11" font-weight="600" text-anchor="middle">SealQA base</text>
  <text x="106" y="139" fill="#87867f" font-family="ui-monospace, monospace" font-size="9" text-anchor="middle">5/20 → 11/20</text>
  <path stroke="#d1cfc5" stroke-width="1.5" d="m106 146-36 20m36-20v20m0-20 36 20"/>
  <rect width="80" height="34" x="30" y="172" fill="#fff" stroke="#d1cfc5" stroke-width="1.5" rx="5"/>
  <text x="70" y="189" fill="#141413" font-size="9.5" text-anchor="middle">Accuracy</text>
  <text x="70" y="201" fill="#87867f" font-family="ui-monospace, monospace" font-size="8" text-anchor="middle">假设 A</text>
  <rect width="80" height="34" x="66" y="172" fill="#fff" stroke="#d1cfc5" stroke-width="1.5" rx="5"/>
  <text x="106" y="189" fill="#141413" font-size="9.5" text-anchor="middle">Coverage</text>
  <text x="106" y="201" fill="#87867f" font-family="ui-monospace, monospace" font-size="8" text-anchor="middle">假设 B</text>
  <rect width="80" height="34" x="102" y="172" fill="#fff" stroke="#d1cfc5" stroke-width="1.5" rx="5"/>
  <text x="142" y="189" fill="#141413" font-size="9.5" text-anchor="middle">Reasoning</text>
  <text x="142" y="201" fill="#87867f" font-family="ui-monospace, monospace" font-size="8" text-anchor="middle">假设 C</text>
  <rect width="72" height="34" x="138" y="172" fill="#fff" stroke="#d1cfc5" stroke-width="1.5" opacity=".55" rx="5"/>
  <text x="174" y="189" fill="#141413" font-size="9.5" text-anchor="middle">Format</text>
  <text x="174" y="201" fill="#87867f" font-family="ui-monospace, monospace" font-size="8" text-anchor="middle">…</text>
  <path fill="none" stroke="#d1cfc5" stroke-width="1.5" d="M196 188h44"/>
  <path fill="#d1cfc5" d="m244 188-8-4v8z"/>
  <rect width="76" height="22" x="250" y="58" fill="#d97757" rx="11"/>
  <text x="288" y="73" fill="#fff" font-family="ui-monospace, monospace" font-size="10" text-anchor="middle">树搜索</text>
  <rect width="90" height="36" x="280" y="100" fill="#fff" stroke="#d97757" stroke-width="1.8" rx="5"/>
  <text x="325" y="117" fill="#141413" font-size="10" font-weight="600" text-anchor="middle">Expert Branches</text>
  <text x="325" y="130" fill="#87867f" font-family="ui-monospace, monospace" font-size="8.5" text-anchor="middle">各维度胜出</text>
  <path stroke="#d1cfc5" stroke-width="1.5" d="m325 136-57 24m57-24v24m0-24 57 24"/>
  <rect width="64" height="30" x="236" y="166" fill="#fff" stroke="#d1cfc5" stroke-width="1.5" rx="5"/>
  <text x="268" y="181" fill="#141413" font-size="9" text-anchor="middle">Accuracy</text>
  <text x="268" y="192" fill="#87867f" font-family="ui-monospace, monospace" font-size="8" text-anchor="middle">专家分支</text>
  <rect width="64" height="30" x="293" y="166" fill="#fff" stroke="#d1cfc5" stroke-width="1.5" rx="5"/>
  <text x="325" y="181" fill="#141413" font-size="9" text-anchor="middle">Coverage</text>
  <text x="325" y="192" fill="#87867f" font-family="ui-monospace, monospace" font-size="8" text-anchor="middle">专家分支</text>
  <rect width="64" height="30" x="350" y="166" fill="#fff" stroke="#d1cfc5" stroke-width="1.5" rx="5"/>
  <text x="382" y="181" fill="#141413" font-size="9" text-anchor="middle">Reasoning</text>
  <text x="382" y="192" fill="#87867f" font-family="ui-monospace, monospace" font-size="8" text-anchor="middle">专家分支</text>
  <path stroke="#d1cfc5" stroke-width="1.5" d="M268 196v16m57-16v16m57-16v16"/>
  <rect width="74" height="30" x="288" y="216" fill="#fff" stroke="#788c5d" stroke-width="1.8" rx="5"/>
  <text x="325" y="231" fill="#141413" font-size="9.5" font-weight="600" text-anchor="middle">合并尝试</text>
  <text x="325" y="242" fill="#87867f" font-family="ui-monospace, monospace" font-size="8" text-anchor="middle">merge</text>
  <path fill="none" stroke="#d1cfc5" stroke-width="1.5" d="M362 230h44"/>
  <path fill="#d1cfc5" d="m410 230-8-4v8z"/>
  <rect width="54" height="22" x="416" y="58" fill="#d97757" rx="11"/>
  <text x="443" y="73" fill="#fff" font-family="ui-monospace, monospace" font-size="10" text-anchor="middle">Gates</text>
  <rect width="70" height="34" x="436" y="98" fill="#fff" stroke="#788c5d" stroke-width="1.8" rx="5"/>
  <text x="471" y="117" fill="#141413" font-size="10" font-weight="600" text-anchor="middle">Gate</text>
  <text x="471" y="128" fill="#87867f" font-family="ui-monospace, monospace" font-size="8" text-anchor="middle">回归测试</text>
  <path stroke="#788c5d" stroke-width="2" d="M471 98V72"/>
  <path fill="#788c5d" d="m471 68-4 8h8z"/>
  <rect width="38" height="18" x="452" y="50" fill="#788c5d" rx="9"/>
  <text x="471" y="63" fill="#fff" font-family="ui-monospace, monospace" font-size="8.5" text-anchor="middle">通过</text>
  <rect width="70" height="34" x="430" y="140" fill="#fff" stroke="#d97757" stroke-dasharray="4,3" stroke-width="1.8" rx="5"/>
  <text x="465" y="159" fill="#141413" font-size="10" font-weight="600" text-anchor="middle">Gate</text>
  <text x="465" y="170" fill="#87867f" font-family="ui-monospace, monospace" font-size="8" text-anchor="middle">高分但作弊</text>
  <path stroke="#d97757" stroke-width="2.5" d="m436 146 64 22m0-22-64 22"/>
  <path fill="none" stroke="#d97757" stroke-dasharray="5,4" stroke-width="1.5" d="M471 68c0-40-365-40-365 18" opacity=".65"/>
  <path fill="#d97757" d="m106 86-6-8h12z" opacity=".65"/>
  <text x="280" y="24" fill="#d97757" font-family="ui-monospace, monospace" font-size="9" text-anchor="middle">下一轮迭代</text>
  <rect width="160" height="140" x="536" y="90" fill="#fff" stroke="#d1cfc5" stroke-width="1.5" rx="8"/>
  <text x="552" y="110" fill="#141413" font-size="10" font-weight="600">图例</text>
  <rect width="12" height="12" x="548" y="120" fill="#fff" stroke="#d97757" stroke-width="1.5" rx="2"/>
  <text x="566" y="130" fill="#141413" font-size="9">Stage 标签</text>
  <rect width="12" height="12" x="548" y="140" fill="#fff" stroke="#d1cfc5" stroke-width="1.5" rx="2"/>
  <text x="566" y="150" fill="#141413" font-size="9">节点</text>
  <rect width="12" height="12" x="548" y="160" fill="#fff" stroke="#788c5d" stroke-width="1.5" rx="2"/>
  <text x="566" y="170" fill="#141413" font-size="9">合并/通过</text>
  <path stroke="#d97757" stroke-dasharray="4,3" stroke-width="1.5" d="M548 188h16" opacity=".65"/>
  <text x="570" y="192" fill="#141413" font-size="9">反馈循环</text>
  <path stroke="#d97757" stroke-width="2.5" d="M548 208h16m-13.657-5.657 11.314 11.314"/>
  <text x="570" y="212" fill="#141413" font-size="9">失败/Gate 未通过</text>
  <path stroke="#d1cfc5" stroke-width="1.5" d="M548 226h16"/>
  <text x="570" y="230" fill="#141413" font-size="9">数据流向</text>
</svg>
