<svg xmlns="http://www.w3.org/2000/svg" font-family="ui-serif, Georgia, 'Times New Roman', serif" viewBox="0 0 600 360">
  <path fill="#faf9f5" d="M0 0h600v360H0z"/>
  <text x="300" y="26" fill="#141413" font-size="14" font-weight="500" letter-spacing="-.02em" text-anchor="middle">Harness Engineering 三层架构</text>
  <text x="300" y="42" fill="#87867f" font-family="ui-monospace, monospace" font-size="10" text-anchor="middle">Based on Martin Fowler · OpenAI Harness Engineering · 2025/03</text>
  <rect width="168" height="220" x="24" y="60" fill="#fff" stroke="#d1cfc5" stroke-width="1.5" rx="8"/>
  <rect width="6" height="220" x="24" y="60" fill="#d97757" rx="3"/>
  <text x="40" y="84" fill="#d97757" font-family="ui-monospace, monospace" font-size="11" font-weight="600">Layer 1</text>
  <text x="40" y="104" fill="#141413" font-size="13">Context Engineering</text>
  <text x="40" y="124" fill="#87867f" font-size="10.5">上下文工程</text>
  <path stroke="#d1cfc5" d="M40 136h110"/>
  <text x="40" y="156" fill="#141413" font-size="10">知识库</text>
  <text x="40" y="170" fill="#87867f" font-size="9.5">CONTEXT.md / ARCHITECTURE.md</text>
  <text x="40" y="188" fill="#141413" font-size="10">动态上下文</text>
  <text x="40" y="202" fill="#87867f" font-size="9.5">错误日志 + 性能指标</text>
  <text x="40" y="220" fill="#141413" font-size="10">实时信息</text>
  <text x="40" y="234" fill="#87867f" font-size="9.5">Playwright + Browser</text>
  <text x="40" y="254" fill="#788c5d" font-family="ui-monospace, monospace" font-size="9">Context is King</text>
  <path stroke="#d97757" stroke-width="2" d="M192 170h18"/>
  <path fill="#d97757" d="m210 166 8 4-8 4z"/>
  <rect width="168" height="220" x="216" y="60" fill="#fff" stroke="#d1cfc5" stroke-width="1.5" rx="8"/>
  <rect width="6" height="220" x="216" y="60" fill="#d97757" rx="3"/>
  <text x="232" y="84" fill="#d97757" font-family="ui-monospace, monospace" font-size="11" font-weight="600">Layer 2</text>
  <text x="232" y="104" fill="#141413" font-size="13">Architectural Constraints</text>
  <text x="232" y="124" fill="#87867f" font-size="10.5">架构约束</text>
  <path stroke="#d1cfc5" d="M232 136h110"/>
  <text x="232" y="156" fill="#141413" font-size="10">确定性约束</text>
  <text x="232" y="170" fill="#87867f" font-size="9.5">ESLint · TypeScript · ArchTest</text>
  <text x="232" y="188" fill="#141413" font-size="10">LLM 约束</text>
  <text x="232" y="202" fill="#87867f" font-size="9.5">Agent 自检架构合规性</text>
  <text x="232" y="220" fill="#141413" font-size="10">Cursor Rules</text>
  <text x="232" y="234" fill="#87867f" font-size="9.5">.cursorrules 项目规范</text>
  <text x="232" y="254" fill="#788c5d" font-family="ui-monospace, monospace" font-size="9">Deterministic &gt; LLM</text>
  <path stroke="#d97757" stroke-width="2" d="M384 170h18"/>
  <path fill="#d97757" d="m402 166 8 4-8 4z"/>
  <rect width="168" height="220" x="408" y="60" fill="#fff" stroke="#d1cfc5" stroke-width="1.5" rx="8"/>
  <rect width="6" height="220" x="408" y="60" fill="#d97757" rx="3"/>
  <text x="424" y="84" fill="#d97757" font-family="ui-monospace, monospace" font-size="11" font-weight="600">Layer 3</text>
  <text x="424" y="104" fill="#141413" font-size="13">Garbage Collection</text>
  <text x="424" y="124" fill="#87867f" font-size="10.5">垃圾回收</text>
  <path stroke="#d1cfc5" d="M424 136h110"/>
  <text x="424" y="156" fill="#141413" font-size="10">定期运行 Agent</text>
  <text x="424" y="170" fill="#87867f" font-size="9.5">每日一次 / 每周一次</text>
  <text x="424" y="188" fill="#141413" font-size="10">检测范围</text>
  <text x="424" y="202" fill="#87867f" font-size="9.5">死代码 · 架构违规 · 文档过时</text>
  <text x="424" y="220" fill="#141413" font-size="10">自动修复 PR</text>
  <text x="424" y="234" fill="#87867f" font-size="9.5">GitHub Action + LLM</text>
  <text x="424" y="254" fill="#788c5d" font-family="ui-monospace, monospace" font-size="9">自动化 &gt; 人工</text>
  <text x="300" y="316" fill="#87867f" font-size="10" text-anchor="middle">Harness = Context Engineering + Architectural Constraints + Garbage Collection</text>
  <path stroke="#d1cfc5" d="M160 328h280"/>
  <text x="300" y="346" fill="#b5b3ab" font-family="ui-monospace, monospace" font-size="9" text-anchor="middle">5 months · 1M+ lines · zero manually typed code · OpenAI Codex Agent</text>
</svg>
