<svg viewBox="0 0 600 420" xmlns="http://www.w3.org/2000/svg" font-family="ui-serif, Georgia, 'Times New Roman', serif">
  <!-- Color palette: ivory bg, clay #D97757, olive #788C5D, slate #141413, g300 #D1CFC5 -->

  <!-- Background -->
  <rect width="600" height="420" fill="#FAF9F5"/>

  <!-- Title -->
  <text x="300" y="28" text-anchor="middle" font-size="14" font-weight="500" fill="#141413" letter-spacing="-0.02em">Loop Engineering 四层堆叠</text>
  <text x="300" y="44" text-anchor="middle" font-size="10" fill="#87867F" font-family="ui-monospace, monospace">Sydney Runkle · langchain.com · 2026/06/16</text>

  <!-- Level 4 -->
  <rect x="40" y="58" width="520" height="70" rx="6" fill="#FFFFFF" stroke="#D97757" stroke-width="1.5"/>
  <text x="56" y="80" font-size="12" font-weight="600" fill="#D97757" font-family="ui-monospace, monospace">Level 4</text>
  <text x="56" y="97" font-size="13" fill="#141413">Hill Climbing Loop</text>
  <text x="56" y="114" font-size="10.5" fill="#87867F">trace 分析 → harness 配置改进</text>
  <text x="430" y="97" font-size="10" fill="#788C5D" font-family="ui-monospace, monospace">LangSmith Engine</text>
  <rect x="508" y="74" width="38" height="18" rx="9" fill="#D97757"/>
  <text x="527" y="87" text-anchor="middle" font-size="9" fill="#FFFFFF" font-family="ui-monospace, monospace">改进</text>

  <!-- Arrow 4→3 -->
  <line x1="300" y1="128" x2="300" y2="140" stroke="#D1CFC5" stroke-width="1.5"/>
  <polygon points="300,144 296,136 304,136" fill="#D1CFC5"/>

  <!-- Level 3 -->
  <rect x="40" y="148" width="520" height="70" rx="6" fill="#FFFFFF" stroke="#D1CFC5" stroke-width="1.5"/>
  <text x="56" y="170" font-size="12" font-weight="600" fill="#D97757" font-family="ui-monospace, monospace">Level 3</text>
  <text x="56" y="187" font-size="13" fill="#141413">Event-driven Loop</text>
  <text x="56" y="204" font-size="10.5" fill="#87867F">事件触发，agent 在后台持续运行</text>
  <text x="430" y="187" font-size="10" fill="#788C5D" font-family="ui-monospace, monospace">LangSmith Deployment / Fleet</text>
  <rect x="508" y="164" width="38" height="18" rx="9" fill="#788C5D"/>
  <text x="527" y="177" text-anchor="middle" font-size="9" fill="#FFFFFF" font-family="ui-monospace, monospace">规模化</text>

  <!-- Arrow 3→2 -->
  <line x1="300" y1="218" x2="300" y2="230" stroke="#D1CFC5" stroke-width="1.5"/>
  <polygon points="300,234 296,226 304,226" fill="#D1CFC5"/>

  <!-- Level 2 -->
  <rect x="40" y="238" width="520" height="70" rx="6" fill="#FFFFFF" stroke="#D1CFC5" stroke-width="1.5"/>
  <text x="56" y="260" font-size="12" font-weight="600" fill="#D97757" font-family="ui-monospace, monospace">Level 2</text>
  <text x="56" y="277" font-size="13" fill="#141413">Verification Loop</text>
  <text x="56" y="294" font-size="10.5" fill="#87867F">grader 按 rubric 打分，失败则带反馈重试</text>
  <text x="430" y="277" font-size="10" fill="#788C5D" font-family="ui-monospace, monospace">RubricMiddleware / after_agent hook</text>
  <rect x="508" y="254" width="38" height="18" rx="9" fill="#E3DACC"/>
  <text x="527" y="267" text-anchor="middle" font-size="9" fill="#141413" font-family="ui-monospace, monospace">质量</text>

  <!-- Arrow 2→1 -->
  <line x1="300" y1="308" x2="300" y2="320" stroke="#D1CFC5" stroke-width="1.5"/>
  <polygon points="300,324 296,316 304,316" fill="#D1CFC5"/>

  <!-- Level 1 -->
  <rect x="40" y="328" width="520" height="70" rx="6" fill="#FFFFFF" stroke="#D1CFC5" stroke-width="1.5"/>
  <text x="56" y="350" font-size="12" font-weight="600" fill="#D97757" font-family="ui-monospace, monospace">Level 1</text>
  <text x="56" y="367" font-size="13" fill="#141413">Agent Loop</text>
  <text x="56" y="384" font-size="10.5" fill="#87867F">模型 + 工具，循环调用直到任务完成</text>
  <text x="430" y="367" font-size="10" fill="#788C5D" font-family="ui-monospace, monospace">create_agent + 任意模型</text>
  <rect x="508" y="344" width="38" height="18" rx="9" fill="#F0EEE6" stroke="#D1CFC5" stroke-width="1"/>
  <text x="527" y="357" text-anchor="middle" font-size="9" fill="#141413" font-family="ui-monospace, monospace">工作</text>

  <!-- Feedback arrow: Level 4 → Level 1 (yellow-orange, right side) -->
  <path d="M 560 88 C 578 88, 578 360, 560 356" stroke="#D97757" stroke-width="2" fill="none" stroke-dasharray="4,3" opacity="0.6"/>
  <polygon points="560,356 554,348 566,348" fill="#D97757" opacity="0.6"/>
  <text x="572" y="225" font-size="9" fill="#D97757" font-family="ui-monospace, monospace">反馈改进</text>
</svg>
