<svg xmlns="http://www.w3.org/2000/svg" font-family="ui-serif, Georgia, serif" viewBox="0 0 800 450">
  <path fill="#faf9f5" d="M0 0h800v450H0z"/>
  <text x="400" y="30" fill="#141413" font-size="16" font-weight="700" letter-spacing="1" text-anchor="middle">Rakuten AI 转型成果指标</text>
  <text x="400" y="48" fill="#87867f" font-size="11" text-anchor="middle">MTTR 降低 50%，质量与速度双提升</text>
  <g transform="translate(60 80)">
    <text fill="#141413" font-size="13" font-weight="700">MTTR</text>
    <text y="14" fill="#87867f" font-size="10">平均修复时间</text>
    <rect width="240" height="28" y="24" fill="#d1cfc5" rx="6"/>
    <text x="8" y="43" fill="#141413" font-size="11" font-weight="600">8-12h</text>
    <text x="244" y="43" fill="#87867f" font-size="10">转型前</text>
    <rect width="120" height="28" y="58" fill="#d97757" rx="6"/>
    <text x="8" y="77" fill="#faf9f5" font-size="11" font-weight="600">4-6h</text>
    <text x="124" y="77" fill="#d97757" font-size="10" font-weight="600">50% ↓</text>
  </g>
  <g transform="translate(60 185)">
    <text fill="#141413" font-size="13" font-weight="700">代码审查时间</text>
    <text y="14" fill="#87867f" font-size="10">Code Review</text>
    <rect width="220" height="28" y="24" fill="#d1cfc5" rx="6"/>
    <text x="8" y="43" fill="#141413" font-size="11" font-weight="600">1-2天</text>
    <text x="224" y="43" fill="#87867f" font-size="10">转型前</text>
    <rect width="66" height="28" y="58" fill="#d97757" rx="6"/>
    <text x="8" y="77" fill="#faf9f5" font-size="11" font-weight="600">4-6h</text>
    <text x="70" y="77" fill="#d97757" font-size="10" font-weight="600">70% ↓</text>
  </g>
  <g transform="translate(60 290)">
    <text fill="#141413" font-size="13" font-weight="700">新功能交付</text>
    <text y="14" fill="#87867f" font-size="10">全栈功能</text>
    <rect width="280" height="28" y="24" fill="#d1cfc5" rx="6"/>
    <text x="8" y="43" fill="#141413" font-size="11" font-weight="600">2-3月</text>
    <text x="284" y="43" fill="#87867f" font-size="10">转型前</text>
    <rect width="112" height="28" y="58" fill="#d97757" rx="6"/>
    <text x="8" y="77" fill="#faf9f5" font-size="11" font-weight="600">2-4周</text>
    <text x="116" y="77" fill="#d97757" font-size="10" font-weight="600">60% ↓</text>
  </g>
  <text fill="#141413" font-size="13" font-weight="700" transform="translate(480 80)">质量指标提升</text>
  <g transform="translate(480 110)">
    <rect width="290" height="55" fill="#e3dacc" opacity=".5" rx="8"/>
    <text x="15" y="20" fill="#141413" font-size="11" font-weight="600">生产环境 Bug 率</text>
    <text x="15" y="38" fill="#788c5d" font-size="18" font-weight="800">-20%</text>
    <text x="85" y="38" fill="#788c5d" font-size="11">降低</text>
  </g>
  <g transform="translate(480 175)">
    <rect width="290" height="55" fill="#e3dacc" opacity=".5" rx="8"/>
    <text x="15" y="20" fill="#141413" font-size="11" font-weight="600">代码审查通过率</text>
    <text x="15" y="38" fill="#788c5d" font-size="18" font-weight="800">60% → 85%</text>
  </g>
  <g transform="translate(480 240)">
    <rect width="290" height="55" fill="#e3dacc" opacity=".5" rx="8"/>
    <text x="15" y="20" fill="#141413" font-size="11" font-weight="600">返工率</text>
    <text x="15" y="38" fill="#788c5d" font-size="18" font-weight="800">-35%</text>
    <text x="85" y="38" fill="#788c5d" font-size="11">降低</text>
  </g>
  <g transform="translate(480 305)">
    <rect width="290" height="55" fill="#e3dacc" opacity=".5" rx="8"/>
    <text x="15" y="20" fill="#141413" font-size="11" font-weight="600">工程师满意度</text>
    <text x="15" y="38" fill="#788c5d" font-size="18" font-weight="800">+25%</text>
    <text x="95" y="38" fill="#788c5d" font-size="11">提升</text>
  </g>
  <rect width="720" height="60" x="40" y="370" fill="#141413" rx="12"/>
  <text x="400" y="393" fill="#faf9f5" font-size="13" font-weight="700" text-anchor="middle">核心洞察：AI 不是替代工程师，而是增强工程师</text>
  <text x="400" y="412" fill="#d1cfc5" font-size="11" text-anchor="middle">AI 处理 boilerplate、审查初筛、文档生成 | 工程师专注架构设计、业务逻辑、关键决策</text>
</svg>
