<svg xmlns="http://www.w3.org/2000/svg" font-family="ui-serif, Georgia, 'Times New Roman', serif" viewBox="0 0 640 400"><path fill="#faf9f5" d="M0 0h640v400H0z"/><text x="320" y="28" fill="#141413" font-size="14" font-weight="500" letter-spacing="-.02em" text-anchor="middle">详细设计分层模型</text><text x="320" y="44" fill="#87867f" font-family="ui-monospace, monospace" font-size="10" text-anchor="middle">Intent-Driven · AI-Native SDLC</text><rect width="560" height="100" x="40" y="60" fill="#fff" stroke="#d97757" stroke-width="2" rx="8"/><rect width="40" height="100" x="40" y="60" fill="#d97757" opacity=".12" rx="8"/><text x="56" y="85" fill="#d97757" font-family="ui-monospace, monospace" font-size="11" font-weight="600">Layer 1</text><text x="56" y="102" fill="#d97757" font-size="13" font-weight="600">Intent-Driven（80% 的需求）</text><text x="56" y="120" fill="#87867f" font-size="10.5">常规业务功能 · CRUD · 标准流程</text><rect width="110" height="56" x="140" y="84" fill="#fff" stroke="#d97757" stroke-width="1.5" rx="6"/><text x="195" y="103" fill="#d97757" font-family="ui-monospace, monospace" font-size="10" font-weight="600" text-anchor="middle">Intent</text><text x="195" y="118" fill="#141413" font-size="9" text-anchor="middle">意图</text><text x="195" y="132" fill="#87867f" font-size="8.5" text-anchor="middle">为什么要做</text><rect width="110" height="56" x="265" y="84" fill="#fff" stroke="#d97757" stroke-width="1.5" rx="6"/><text x="320" y="103" fill="#d97757" font-family="ui-monospace, monospace" font-size="10" font-weight="600" text-anchor="middle">Constraints</text><text x="320" y="118" fill="#141413" font-size="9" text-anchor="middle">约束</text><text x="320" y="132" fill="#87867f" font-size="8.5" text-anchor="middle">边界 · 不能做的事</text><rect width="110" height="56" x="390" y="84" fill="#fff" stroke="#d97757" stroke-width="1.5" rx="6"/><text x="445" y="103" fill="#d97757" font-family="ui-monospace, monospace" font-size="10" font-weight="600" text-anchor="middle">Examples</text><text x="445" y="118" fill="#141413" font-size="9" text-anchor="middle">示例</text><text x="445" y="132" fill="#87867f" font-size="8.5" text-anchor="middle">3-5 个高质量例子</text><path stroke="#d1cfc5" stroke-width="1.5" d="M320 160v18"/><path fill="#d1cfc5" d="m320 182-4-8h8z"/><text x="320" y="194" fill="#87867f" font-family="ui-monospace, monospace" font-size="9" text-anchor="middle">按需选择详细程度</text><rect width="560" height="82" x="40" y="202" fill="#fff" stroke="#d1cfc5" stroke-width="1.5" rx="8"/><rect width="40" height="82" x="40" y="202" fill="#788c5d" opacity=".1" rx="8"/><text x="56" y="227" fill="#788c5d" font-family="ui-monospace, monospace" font-size="11" font-weight="600">Layer 2</text><text x="56" y="244" fill="#141413" font-size="13" font-weight="600">Structured Design（15% 的需求）</text><text x="56" y="262" fill="#87867f" font-size="10.5">复杂业务逻辑 · 跨模块交互 · 性能敏感功能</text><rect width="80" height="50" x="500" y="218" fill="#fff" stroke="#788c5d" stroke-width="1.5" rx="6"/><rect width="24" height="14" x="510" y="228" fill="#788c5d" opacity=".25" rx="3"/><rect width="24" height="14" x="546" y="228" fill="#788c5d" opacity=".25" rx="3"/><path stroke="#788c5d" stroke-width="1.5" d="M522 242h24"/><rect width="30" height="10" x="520" y="248" fill="#788c5d" opacity=".25" rx="3"/><path stroke="#d1cfc5" stroke-width="1.5" d="M320 284v14"/><path fill="#d1cfc5" d="m320 302-4-8h8z"/><rect width="560" height="72" x="40" y="310" fill="#fff" stroke="#d1cfc5" stroke-width="1.5" rx="8"/><rect width="40" height="72" x="40" y="310" fill="#141413" opacity=".06" rx="8"/><text x="56" y="335" fill="#141413" font-family="ui-monospace, monospace" font-size="11" font-weight="600">Layer 3</text><text x="56" y="352" fill="#141413" font-size="13" font-weight="600">Detailed Design（5% 的需求）</text><text x="56" y="370" fill="#87867f" font-size="10.5">核心算法 · 安全关键 · 架构级变更</text><rect width="64" height="48" x="516" y="322" fill="#fff" stroke="#d1cfc5" stroke-width="1.5" rx="4"/><path stroke="#d1cfc5" stroke-width="1.2" d="M526 334h40m-40 8h40m-40 8h30m-30 8h36"/><text x="610" y="112" fill="#d97757" font-family="ui-monospace, monospace" font-size="22" font-weight="700" text-anchor="end">80%</text><text x="610" y="244" fill="#788c5d" font-family="ui-monospace, monospace" font-size="22" font-weight="700" text-anchor="end">15%</text><text x="610" y="348" fill="#141413" font-family="ui-monospace, monospace" font-size="22" font-weight="700" text-anchor="end">5%</text><title>详细设计分层模型</title><desc>三层堆叠图：Layer 1 Intent-Driven（80%）、Layer 2 Structured Design（15%）、Layer 3 Detailed Design（5%），展示 AI-Native 时代详细设计的分层选择</desc></svg>