<svg xmlns="http://www.w3.org/2000/svg" aria-label="Firefox AI 窗口架构图" viewBox="0 0 560 320"><title>Firefox 侧边栏 AI 助手架构</title><desc>Firefox 149 侧边栏 AI 助手布局示意图，上方为正常浏览区域，下方左侧为 AI 问答区域。</desc><defs><style>.muted,.text{font-family:monospace}.text{fill:#141413}.muted{fill:#87867f}.border,.border-iv{stroke:#d1cfc5;stroke-width:1.5;fill:none}.border-iv{stroke-width:1}</style></defs><path d="M0 0h560v320H0z" style="fill:#faf9f5"/><rect width="500" height="200" x="30" y="20" class="border" rx="4"/><rect width="110" height="22" x="30" y="20" rx="4" style="fill:#e3dacc"/><text x="40" y="35" class="text" font-size="11" font-weight="bold">网页内容</text><rect width="450" height="140" x="55" y="60" class="border-iv" rx="3"/><text x="65" y="88" class="muted" font-size="11">┌─────────────────────────────┐</text><text x="65" y="102" class="muted" font-size="11">│                             │</text><text x="65" y="116" class="muted" font-size="11">│    正常浏览区域              │</text><text x="65" y="130" class="muted" font-size="11">│                             │</text><text x="65" y="144" class="muted" font-size="11">│                             │</text><text x="65" y="158" class="muted" font-size="11">│                             │</text><text x="65" y="172" class="muted" font-size="11">└─────────────────────────────┘</text><path d="M30 235h500" style="stroke:#d97757;stroke-width:1.5"/><rect width="200" height="65" x="30" y="235" class="border" rx="0" style="stroke:#d97757"/><rect width="120" height="22" x="30" y="235" opacity=".15" rx="4" style="fill:#d97757"/><text x="40" y="250" fill="#d97757" class="text" font-size="11" font-weight="bold">AI 窗口（可选）</text><rect width="130" height="26" x="50" y="265" class="border-iv" rx="3"/><text x="60" y="282" class="muted" font-size="11">问题输入</text><path d="M50 291h130" class="border-iv"/><text x="60" y="295" class="muted" font-size="10">AI 回答</text><text x="60" y="307" class="muted" font-size="10">区域</text><rect width="300" height="65" x="230" y="235" class="border" opacity=".4" rx="0" style="stroke:#d1cfc5"/><text x="245" y="273" class="muted" font-size="11" opacity=".5">← 正常浏览区域继续</text></svg>