<svg xmlns="http://www.w3.org/2000/svg" font-family="ui-serif, Georgia, 'Times New Roman', serif" viewBox="0 0 680 360">
  <title>康威定律 2.0 框架：组织架构到 Agent 拓扑的映射</title>
  <desc>
    展示三种组织架构（中心化、分布式、分层管理）如何映射到对应的 Agent 拓扑（Supervisor/P2P/Hierarchical）
  </desc>
  <path fill="#faf9f5" d="M0 0h680v360H0z"/>
  <text x="340" y="28" fill="#141413" font-size="14" font-weight="500" letter-spacing="-.02em" text-anchor="middle">康威定律 2.0 框架</text>
  <text x="340" y="44" fill="#87867f" font-family="ui-monospace, monospace" font-size="10" text-anchor="middle">组织架构 → Agent 拓扑 映射</text>
  <text x="56" y="80" fill="#141413" font-family="ui-monospace, monospace" font-size="11" font-weight="600">组织架构</text>
  <rect width="120" height="48" x="100" y="95" fill="#fff" stroke="#d97757" stroke-width="1.8" rx="6"/>
  <text x="160" y="116" fill="#141413" font-size="12" font-weight="600" text-anchor="middle">中心化决策</text>
  <text x="160" y="132" fill="#87867f" font-size="10" text-anchor="middle">Hub-and-Spoke</text>
  <rect width="120" height="48" x="280" y="95" fill="#fff" stroke="#d97757" stroke-width="1.8" rx="6"/>
  <text x="340" y="116" fill="#141413" font-size="12" font-weight="600" text-anchor="middle">分布式自治</text>
  <text x="340" y="132" fill="#87867f" font-size="10" text-anchor="middle">P2P / Mesh</text>
  <rect width="120" height="48" x="460" y="95" fill="#fff" stroke="#d97757" stroke-width="1.8" rx="6"/>
  <text x="520" y="116" fill="#141413" font-size="12" font-weight="600" text-anchor="middle">分层管理</text>
  <text x="520" y="132" fill="#87867f" font-size="10" text-anchor="middle">Hierarchical</text>
  <path stroke="#d97757" stroke-width="2" d="M40 119h30"/>
  <path fill="#d97757" d="m70 115-8 4 8 4z"/>
  <text x="20" y="108" fill="#d97757" font-family="ui-monospace, monospace" font-size="9" text-anchor="middle">康威定律</text>
  <text x="20" y="130" fill="#d97757" font-family="ui-monospace, monospace" font-size="9" text-anchor="middle">2.0</text>
  <path stroke="#d1cfc5" stroke-width="1.5" d="M160 143v20"/>
  <path fill="#d1cfc5" d="m160 167-4-8h8z"/>
  <text x="160" y="158" fill="#788c5d" font-family="ui-monospace, monospace" font-size="8" text-anchor="middle">映射</text>
  <path stroke="#d1cfc5" stroke-width="1.5" d="M340 143v20"/>
  <path fill="#d1cfc5" d="m340 167-4-8h8z"/>
  <text x="340" y="158" fill="#788c5d" font-family="ui-monospace, monospace" font-size="8" text-anchor="middle">映射</text>
  <path stroke="#d1cfc5" stroke-width="1.5" d="M520 143v20"/>
  <path fill="#d1cfc5" d="m520 167-4-8h8z"/>
  <text x="520" y="158" fill="#788c5d" font-family="ui-monospace, monospace" font-size="8" text-anchor="middle">映射</text>
  <text x="340" y="182" fill="#788c5d" font-family="ui-monospace, monospace" font-size="10" text-anchor="middle">↓ AI-Native 映射 ↓</text>
  <text x="56" y="215" fill="#141413" font-family="ui-monospace, monospace" font-size="11" font-weight="600">Agent 拓扑</text>
  <rect width="120" height="48" x="100" y="228" fill="#fff" stroke="#788c5d" stroke-width="1.8" rx="6"/>
  <text x="160" y="249" fill="#141413" font-size="12" font-weight="600" text-anchor="middle">Supervisor</text>
  <text x="160" y="265" fill="#87867f" font-size="10" text-anchor="middle">中心协调型</text>
  <circle cx="160" cy="257" r="5" fill="#d97757"/>
  <path stroke="#d97757" stroke-width="1.5" d="M160 252v-7m-5 14-7 3m17-3 7 3"/>
  <rect width="120" height="48" x="280" y="228" fill="#fff" stroke="#788c5d" stroke-width="1.8" rx="6"/>
  <text x="340" y="249" fill="#141413" font-size="12" font-weight="600" text-anchor="middle">P2P / Mesh</text>
  <text x="340" y="265" fill="#87867f" font-size="10" text-anchor="middle">对等协作型</text>
  <circle cx="320" cy="255" r="4" fill="#788c5d"/>
  <circle cx="340" cy="247" r="4" fill="#788c5d"/>
  <circle cx="360" cy="255" r="4" fill="#788c5d"/>
  <path stroke="#788c5d" stroke-width="1.5" d="m323 253 14-4m6 0 14 4m-34 4h34"/>
  <rect width="120" height="48" x="460" y="228" fill="#fff" stroke="#788c5d" stroke-width="1.8" rx="6"/>
  <text x="520" y="249" fill="#141413" font-size="12" font-weight="600" text-anchor="middle">Hierarchical</text>
  <text x="520" y="265" fill="#87867f" font-size="10" text-anchor="middle">分层授权型</text>
  <rect width="28" height="12" x="506" y="245" fill="#788c5d" rx="2"/>
  <rect width="28" height="12" x="506" y="259" fill="#d1cfc5" stroke="#788c5d" rx="2"/>
  <rect width="28" height="12" x="506" y="273" fill="#d1cfc5" stroke="#788c5d" rx="2"/>
  <rect width="600" height="48" x="40" y="295" fill="#fff" stroke="#d97757" stroke-width="1.5" rx="6"/>
  <text x="60" y="315" fill="#d97757" font-family="ui-monospace, monospace" font-size="11" font-weight="600">💡 核心洞察</text>
  <text x="160" y="315" fill="#141413" font-size="11">你的 Agent 系统，就是你的组织架构在数字世界的投影。</text>
  <text x="60" y="333" fill="#87867f" font-size="10">组织结构 → 沟通结构 → 软件架构 / Agent 拓扑</text>
  <text x="340" y="355" fill="#87867f" font-family="ui-monospace, monospace" font-size="9" text-anchor="middle">康威定律 2.0 · 2026/03/15</text>
</svg>
