<svg xmlns="http://www.w3.org/2000/svg" aria-label="抽象层级与认知负荷" viewBox="0 0 620 360"><title>抽象层级与认知负荷</title><desc>从自然语言到机器码的抽象层级金字塔</desc><defs><filter id="shadow" width="110%" height="115%" x="-5%" y="-5%"><feDropShadow dx="0" dy="2" flood-color="#141413" flood-opacity=".08" stdDeviation="3"/></filter></defs><path fill="#faf9f5" d="M0 0h620v360H0z"/><rect width="590" height="336" x="15" y="12" fill="none" stroke="#d1cfc5" stroke-width="1.5" rx="10"/><text x="30" y="32" fill="#141413" font-family="system-ui,-apple-system,sans-serif" font-size="14" font-weight="700">抽象层级与认知负荷</text><rect width="560" height="52" x="30" y="48" fill="#fef3c7" stroke="#d97706" stroke-width="2.5" filter="url(#shadow)" rx="10"/><rect width="44" height="32" x="40" y="58" fill="#b45309" rx="6"/><text x="62" y="78" fill="#fff" font-family="system-ui,-apple-system,sans-serif" font-size="13" font-weight="700" text-anchor="middle">L6</text><text x="100" y="70" fill="#92400e" font-family="system-ui,-apple-system,sans-serif" font-size="13" font-weight="700">高抽象层级</text><text x="100" y="86" fill="#b45309" font-family="system-ui,-apple-system,sans-serif" font-size="11">&quot;过滤错误日志&quot; ← 领域概念</text><text x="490" y="78" fill="#d97706" font-family="system-ui,-apple-system,sans-serif" font-size="11" text-anchor="middle">↑ 高生产力</text><rect width="500" height="45" x="60" y="110" fill="#fed7aa" stroke="#ea580c" stroke-width="2" filter="url(#shadow)" rx="8"/><rect width="44" height="25" x="70" y="120" fill="#c2410c" rx="6"/><text x="92" y="137" fill="#fff" font-family="system-ui,-apple-system,sans-serif" font-size="12" font-weight="700" text-anchor="middle">L5</text><text x="125" y="128" fill="#c2410c" font-family="system-ui,-apple-system,sans-serif" font-size="12">[Python]</text><text x="195" y="128" fill="#78716c" font-family="system-ui,-apple-system,sans-serif" font-size="12">open().writelines(...) ← 标准库抽象</text><text x="505" y="137" fill="#ea580c" font-family="system-ui,-apple-system,sans-serif" font-size="10" text-anchor="middle">↑</text><rect width="440" height="45" x="90" y="165" fill="#dbeafe" stroke="#2563eb" stroke-width="2" filter="url(#shadow)" rx="8"/><rect width="44" height="25" x="100" y="175" fill="#1e40af" rx="6"/><text x="122" y="192" fill="#fff" font-family="system-ui,-apple-system,sans-serif" font-size="12" font-weight="700" text-anchor="middle">L4</text><text x="155" y="183" fill="#1e40af" font-family="system-ui,-apple-system,sans-serif" font-size="12">[C]</text><text x="195" y="183" fill="#78716c" font-family="system-ui,-apple-system,sans-serif" font-size="12">FILE*, fopen, fgets ← 系统调用封装</text><rect width="380" height="45" x="120" y="220" fill="#bfdbfe" stroke="#3b82f6" stroke-width="2" filter="url(#shadow)" rx="8"/><rect width="44" height="25" x="130" y="230" fill="#1d4ed8" rx="6"/><text x="152" y="247" fill="#fff" font-family="system-ui,-apple-system,sans-serif" font-size="12" font-weight="700" text-anchor="middle">L3</text><text x="185" y="238" fill="#1e40af" font-family="system-ui,-apple-system,sans-serif" font-size="12">[内核]</text><text x="235" y="238" fill="#78716c" font-family="system-ui,-apple-system,sans-serif" font-size="12">read(), write(), 缓冲区管理 ← OS抽象</text><rect width="320" height="52" x="150" y="275" fill="#d1fae5" stroke="#059669" stroke-width="2.5" filter="url(#shadow)" rx="10"/><rect width="44" height="32" x="160" y="285" fill="#047857" rx="6"/><text x="182" y="305" fill="#fff" font-family="system-ui,-apple-system,sans-serif" font-size="13" font-weight="700" text-anchor="middle">L2</text><text x="215" y="297" fill="#065f46" font-family="system-ui,-apple-system,sans-serif" font-size="13" font-weight="700">低抽象层级</text><text x="215" y="313" fill="#047857" font-family="system-ui,-apple-system,sans-serif" font-size="11">[硬件] 磁盘控制器, DMA, 中断 ← 物理世界</text><text x="435" y="305" fill="#059669" font-family="system-ui,-apple-system,sans-serif" font-size="11" text-anchor="middle">↑ 高控制力</text><path fill="none" stroke="#d1cfc5" stroke-width="1.5" marker-end="url(#a)" d="M570 74h25"/><defs><marker id="a" markerHeight="8" markerWidth="8" orient="auto" refX="6" refY="4"><path fill="#d1cfc5" d="m0 0 8 4-8 4Z"/></marker></defs><text x="600" y="78" fill="#87867f" font-family="system-ui,-apple-system,sans-serif" font-size="9" text-anchor="middle" transform="rotate(-90 600 78)">认知负荷</text><text x="600" y="290" fill="#87867f" font-family="system-ui,-apple-system,sans-serif" font-size="9" text-anchor="middle" transform="rotate(-90 600 290)">认知负荷</text><text x="310" y="350" fill="#87867f" font-family="system-ui,-apple-system,sans-serif" font-size="11" text-anchor="middle">核心洞见：优秀的程序员知道何时在正确的层级工作</text></svg>