<svg xmlns="http://www.w3.org/2000/svg" font-family="ui-serif, Georgia, serif" viewBox="0 0 720 400"><title>知识孤岛形成双路径</title><desc>知识孤岛指数 (KII) 双路径对比图：AI生成代码导致知识孤岛路径（高KII）vs 知识共享路径（低KII）</desc><path fill="#faf9f5" d="M0 0h720v400H0z"/><text x="360" y="28" fill="#141413" font-size="15" font-weight="500" text-anchor="middle">知识孤岛形成双路径</text><text x="360" y="46" fill="#87867f" font-family="ui-monospace, monospace" font-size="10" text-anchor="middle">知识孤岛指数 (KII) · 2026/03/12</text><rect width="100" height="60" x="30" y="160" fill="#fff" stroke="#d1cfc5" stroke-width="1.5" rx="10"/><text x="80" y="183" fill="#141413" font-size="12" font-weight="600" text-anchor="middle">AI-Generated</text><text x="80" y="200" fill="#141413" font-size="12" font-weight="600" text-anchor="middle">Code</text><path stroke="#d1cfc5" stroke-width="1.5" marker-end="url(#arrow)" d="M130 190h40"/><text x="360" y="105" fill="#d97757" font-size="11" font-weight="600" text-anchor="middle">知识孤岛路径（高 KII）</text><text x="360" y="300" fill="#788c5d" font-size="11" font-weight="600" text-anchor="middle">集体理解路径（低 KII）</text><rect width="110" height="42" x="185" y="130" fill="#fff" stroke="#d97757" stroke-width="1.5" rx="8"/><text x="240" y="155" fill="#141413" font-size="11" text-anchor="middle">代码复杂度</text><rect width="110" height="42" x="315" y="130" fill="#fff" stroke="#d97757" stroke-width="1.5" rx="8"/><text x="370" y="155" fill="#141413" font-size="11" text-anchor="middle">个人化Prompt</text><rect width="110" height="42" x="445" y="130" fill="#fff" stroke="#d97757" stroke-width="1.5" rx="8"/><text x="500" y="155" fill="#141413" font-size="11" text-anchor="middle">审查 Gap</text><path stroke="#d97757" stroke-width="1.2" marker-end="url(#arrowClay)" d="M170 151h13"/><path stroke="#d97757" stroke-width="1.2" marker-end="url(#arrowClay)" d="M295 151h18"/><path stroke="#d97757" stroke-width="1.2" marker-end="url(#arrowClay)" d="M425 151h18"/><path stroke="#d97757" stroke-width="1.2" d="m555 151 35 19"/><path stroke="#d97757" stroke-width="1.2" marker-end="url(#arrowClay)" d="M590 170v70"/><rect width="110" height="42" x="185" y="230" fill="#fff" stroke="#788c5d" stroke-width="1.5" rx="8"/><text x="240" y="255" fill="#141413" font-size="11" text-anchor="middle">文档化</text><rect width="110" height="42" x="315" y="230" fill="#fff" stroke="#788c5d" stroke-width="1.5" rx="8"/><text x="370" y="255" fill="#141413" font-size="11" text-anchor="middle">共享Prompt</text><rect width="110" height="42" x="445" y="230" fill="#fff" stroke="#788c5d" stroke-width="1.5" rx="8"/><text x="500" y="255" fill="#141413" font-size="11" text-anchor="middle">团队审查</text><path stroke="#788c5d" stroke-width="1.2" marker-end="url(#arrowOlive)" d="M170 251h13"/><path stroke="#788c5d" stroke-width="1.2" marker-end="url(#arrowOlive)" d="M295 251h18"/><path stroke="#788c5d" stroke-width="1.2" marker-end="url(#arrowOlive)" d="M425 251h18"/><path stroke="#788c5d" stroke-width="1.2" d="m555 251 35-19"/><path stroke="#788c5d" stroke-width="1.2" marker-end="url(#arrowOlive)" d="M590 232v-62"/><rect width="100" height="70" x="590" y="170" fill="#fff" stroke="#d1cfc5" stroke-width="1.5" rx="10"/><text x="640" y="196" fill="#141413" font-size="11" font-weight="600" text-anchor="middle">End State</text><text x="640" y="213" fill="#d97757" font-size="10" text-anchor="middle">KII: High</text><text x="640" y="228" fill="#87867f" font-size="10" text-anchor="middle">or</text><text x="640" y="243" fill="#788c5d" font-size="10" text-anchor="middle">KII: Low</text><rect width="14" height="14" x="30" y="340" fill="#fff" stroke="#d97757" stroke-width="1.5" rx="3"/><text x="50" y="352" fill="#141413" font-size="10">高KII路径（clay）</text><rect width="14" height="14" x="165" y="340" fill="#fff" stroke="#788c5d" stroke-width="1.5" rx="3"/><text x="185" y="352" fill="#141413" font-size="10">低KII路径（olive）</text><defs><marker id="arrow" markerHeight="8" markerWidth="8" orient="auto" refX="7" refY="3"><path fill="#d1cfc5" d="M0 0v6l7-3z"/></marker><marker id="arrowClay" markerHeight="8" markerWidth="8" orient="auto" refX="7" refY="3"><path fill="#d97757" d="M0 0v6l7-3z"/></marker><marker id="arrowOlive" markerHeight="8" markerWidth="8" orient="auto" refX="7" refY="3"><path fill="#788c5d" d="M0 0v6l7-3z"/></marker></defs></svg>