<svg xmlns="http://www.w3.org/2000/svg" viewBox="0 0 386 364" width="386" height="364">
  <defs>
    <style>
      text { font-family: 'SF Mono', 'Menlo', 'Monaco', 'Courier New', monospace; }
    </style>
  </defs>
  <rect width="386" height="364" fill="#FAF9F5"/>
  <rect x="4" y="4" width="378" height="356" fill="none" stroke="#D1CFC5" stroke-width="1" rx="4"/>
<text x="21.0" y="33.5" fill="#141413" font-size="12" font-family="monospace">m</text>
<text x="31.5" y="33.5" fill="#141413" font-size="12" font-family="monospace">y</text>
<text x="42.0" y="33.5" fill="#141413" font-size="12" font-family="monospace">a</text>
<text x="52.5" y="33.5" fill="#141413" font-size="12" font-family="monospace">p</text>
<text x="63.0" y="33.5" fill="#141413" font-size="12" font-family="monospace">p</text>
<text x="73.5" y="33.5" fill="#141413" font-size="12" font-family="monospace">/</text>
<polyline points="30.5,38.5 20.0,38.5 20.0,57.0" fill="none" stroke="#141413" stroke-width="1.5"/>
<line x1="30.5" y1="47.8" x2="20.0" y2="47.8" stroke="#141413" stroke-width="1.5"/>
<line x1="30.5" y1="47.8" x2="41.0" y2="47.8" stroke="#141413" stroke-width="1.5"/>
<line x1="41.0" y1="47.8" x2="51.5" y2="47.8" stroke="#141413" stroke-width="1.5"/>
<text x="63.0" y="52.0" fill="#141413" font-size="12" font-family="monospace">m</text>
<text x="73.5" y="52.0" fill="#141413" font-size="12" font-family="monospace">o</text>
<text x="84.0" y="52.0" fill="#141413" font-size="12" font-family="monospace">d</text>
<text x="94.5" y="52.0" fill="#141413" font-size="12" font-family="monospace">u</text>
<text x="105.0" y="52.0" fill="#141413" font-size="12" font-family="monospace">l</text>
<text x="115.5" y="52.0" fill="#141413" font-size="12" font-family="monospace">e</text>
<text x="126.0" y="52.0" fill="#141413" font-size="12" font-family="monospace">s</text>
<text x="136.5" y="52.0" fill="#141413" font-size="12" font-family="monospace">/</text>
<line x1="24.8" y1="57.0" x2="24.8" y2="75.5" stroke="#141413" stroke-width="1.5"/>
<polyline points="72.5,57.0 62.0,57.0 62.0,75.5" fill="none" stroke="#141413" stroke-width="1.5"/>
<line x1="72.5" y1="66.2" x2="62.0" y2="66.2" stroke="#141413" stroke-width="1.5"/>
<line x1="72.5" y1="66.2" x2="83.0" y2="66.2" stroke="#141413" stroke-width="1.5"/>
<line x1="83.0" y1="66.2" x2="93.5" y2="66.2" stroke="#141413" stroke-width="1.5"/>
<text x="105.0" y="70.5" fill="#141413" font-size="12" font-family="monospace">u</text>
<text x="115.5" y="70.5" fill="#141413" font-size="12" font-family="monospace">s</text>
<text x="126.0" y="70.5" fill="#141413" font-size="12" font-family="monospace">e</text>
<text x="136.5" y="70.5" fill="#141413" font-size="12" font-family="monospace">r</text>
<text x="147.0" y="70.5" fill="#141413" font-size="12" font-family="monospace">/</text>
<text x="273.0" y="70.5" fill="#141413" font-size="12" font-family="monospace">#</text>
<text x="294.0" y="70.5" fill="#141413" font-size="12" font-family="monospace">用</text>
<text x="304.5" y="70.5" fill="#141413" font-size="12" font-family="monospace">户</text>
<text x="315.0" y="70.5" fill="#141413" font-size="12" font-family="monospace">模</text>
<text x="325.5" y="70.5" fill="#141413" font-size="12" font-family="monospace">块</text>
<line x1="24.8" y1="75.5" x2="24.8" y2="94.0" stroke="#141413" stroke-width="1.5"/>
<line x1="66.8" y1="75.5" x2="66.8" y2="94.0" stroke="#141413" stroke-width="1.5"/>
<polyline points="114.5,75.5 104.0,75.5 104.0,94.0" fill="none" stroke="#141413" stroke-width="1.5"/>
<line x1="114.5" y1="84.8" x2="104.0" y2="84.8" stroke="#141413" stroke-width="1.5"/>
<line x1="114.5" y1="84.8" x2="125.0" y2="84.8" stroke="#141413" stroke-width="1.5"/>
<line x1="125.0" y1="84.8" x2="135.5" y2="84.8" stroke="#141413" stroke-width="1.5"/>
<text x="147.0" y="89.0" fill="#141413" font-size="12" font-family="monospace">a</text>
<text x="157.5" y="89.0" fill="#141413" font-size="12" font-family="monospace">p</text>
<text x="168.0" y="89.0" fill="#141413" font-size="12" font-family="monospace">i</text>
<text x="178.5" y="89.0" fill="#141413" font-size="12" font-family="monospace">.</text>
<text x="189.0" y="89.0" fill="#141413" font-size="12" font-family="monospace">p</text>
<text x="199.5" y="89.0" fill="#141413" font-size="12" font-family="monospace">y</text>
<text x="273.0" y="89.0" fill="#141413" font-size="12" font-family="monospace">#</text>
<text x="294.0" y="89.0" fill="#141413" font-size="12" font-family="monospace">内</text>
<text x="304.5" y="89.0" fill="#141413" font-size="12" font-family="monospace">部</text>
<text x="325.5" y="89.0" fill="#141413" font-size="12" font-family="monospace">A</text>
<text x="336.0" y="89.0" fill="#141413" font-size="12" font-family="monospace">P</text>
<text x="346.5" y="89.0" fill="#141413" font-size="12" font-family="monospace">I</text>
<line x1="24.8" y1="94.0" x2="24.8" y2="112.5" stroke="#141413" stroke-width="1.5"/>
<line x1="66.8" y1="94.0" x2="66.8" y2="112.5" stroke="#141413" stroke-width="1.5"/>
<polyline points="114.5,94.0 104.0,94.0 104.0,112.5" fill="none" stroke="#141413" stroke-width="1.5"/>
<line x1="114.5" y1="103.2" x2="104.0" y2="103.2" stroke="#141413" stroke-width="1.5"/>
<line x1="114.5" y1="103.2" x2="125.0" y2="103.2" stroke="#141413" stroke-width="1.5"/>
<line x1="125.0" y1="103.2" x2="135.5" y2="103.2" stroke="#141413" stroke-width="1.5"/>
<text x="147.0" y="107.5" fill="#141413" font-size="12" font-family="monospace">m</text>
<text x="157.5" y="107.5" fill="#141413" font-size="12" font-family="monospace">o</text>
<text x="168.0" y="107.5" fill="#141413" font-size="12" font-family="monospace">d</text>
<text x="178.5" y="107.5" fill="#141413" font-size="12" font-family="monospace">e</text>
<text x="189.0" y="107.5" fill="#141413" font-size="12" font-family="monospace">l</text>
<text x="199.5" y="107.5" fill="#141413" font-size="12" font-family="monospace">s</text>
<text x="210.0" y="107.5" fill="#141413" font-size="12" font-family="monospace">.</text>
<text x="220.5" y="107.5" fill="#141413" font-size="12" font-family="monospace">p</text>
<text x="231.0" y="107.5" fill="#141413" font-size="12" font-family="monospace">y</text>
<text x="273.0" y="107.5" fill="#141413" font-size="12" font-family="monospace">#</text>
<text x="294.0" y="107.5" fill="#141413" font-size="12" font-family="monospace">数</text>
<text x="304.5" y="107.5" fill="#141413" font-size="12" font-family="monospace">据</text>
<text x="315.0" y="107.5" fill="#141413" font-size="12" font-family="monospace">模</text>
<text x="325.5" y="107.5" fill="#141413" font-size="12" font-family="monospace">型</text>
<line x1="24.8" y1="112.5" x2="24.8" y2="131.0" stroke="#141413" stroke-width="1.5"/>
<line x1="66.8" y1="112.5" x2="66.8" y2="131.0" stroke="#141413" stroke-width="1.5"/>
<polyline points="114.5,112.5 104.0,112.5 104.0,121.8" fill="none" stroke="#141413" stroke-width="1.5"/>
<line x1="114.5" y1="121.8" x2="125.0" y2="121.8" stroke="#141413" stroke-width="1.5"/>
<line x1="125.0" y1="121.8" x2="135.5" y2="121.8" stroke="#141413" stroke-width="1.5"/>
<text x="147.0" y="126.0" fill="#141413" font-size="12" font-family="monospace">s</text>
<text x="157.5" y="126.0" fill="#141413" font-size="12" font-family="monospace">e</text>
<text x="168.0" y="126.0" fill="#141413" font-size="12" font-family="monospace">r</text>
<text x="178.5" y="126.0" fill="#141413" font-size="12" font-family="monospace">v</text>
<text x="189.0" y="126.0" fill="#141413" font-size="12" font-family="monospace">i</text>
<text x="199.5" y="126.0" fill="#141413" font-size="12" font-family="monospace">c</text>
<text x="210.0" y="126.0" fill="#141413" font-size="12" font-family="monospace">e</text>
<text x="220.5" y="126.0" fill="#141413" font-size="12" font-family="monospace">.</text>
<text x="231.0" y="126.0" fill="#141413" font-size="12" font-family="monospace">p</text>
<text x="241.5" y="126.0" fill="#141413" font-size="12" font-family="monospace">y</text>
<text x="273.0" y="126.0" fill="#141413" font-size="12" font-family="monospace">#</text>
<text x="294.0" y="126.0" fill="#141413" font-size="12" font-family="monospace">业</text>
<text x="304.5" y="126.0" fill="#141413" font-size="12" font-family="monospace">务</text>
<text x="315.0" y="126.0" fill="#141413" font-size="12" font-family="monospace">逻</text>
<text x="325.5" y="126.0" fill="#141413" font-size="12" font-family="monospace">辑</text>
<line x1="24.8" y1="131.0" x2="24.8" y2="149.5" stroke="#141413" stroke-width="1.5"/>
<polyline points="72.5,131.0 62.0,131.0 62.0,149.5" fill="none" stroke="#141413" stroke-width="1.5"/>
<line x1="72.5" y1="140.2" x2="62.0" y2="140.2" stroke="#141413" stroke-width="1.5"/>
<line x1="72.5" y1="140.2" x2="83.0" y2="140.2" stroke="#141413" stroke-width="1.5"/>
<line x1="83.0" y1="140.2" x2="93.5" y2="140.2" stroke="#141413" stroke-width="1.5"/>
<text x="105.0" y="144.5" fill="#141413" font-size="12" font-family="monospace">o</text>
<text x="115.5" y="144.5" fill="#141413" font-size="12" font-family="monospace">r</text>
<text x="126.0" y="144.5" fill="#141413" font-size="12" font-family="monospace">d</text>
<text x="136.5" y="144.5" fill="#141413" font-size="12" font-family="monospace">e</text>
<text x="147.0" y="144.5" fill="#141413" font-size="12" font-family="monospace">r</text>
<text x="157.5" y="144.5" fill="#141413" font-size="12" font-family="monospace">/</text>
<text x="273.0" y="144.5" fill="#141413" font-size="12" font-family="monospace">#</text>
<text x="294.0" y="144.5" fill="#141413" font-size="12" font-family="monospace">订</text>
<text x="304.5" y="144.5" fill="#141413" font-size="12" font-family="monospace">单</text>
<text x="315.0" y="144.5" fill="#141413" font-size="12" font-family="monospace">模</text>
<text x="325.5" y="144.5" fill="#141413" font-size="12" font-family="monospace">块</text>
<line x1="24.8" y1="149.5" x2="24.8" y2="168.0" stroke="#141413" stroke-width="1.5"/>
<line x1="66.8" y1="149.5" x2="66.8" y2="168.0" stroke="#141413" stroke-width="1.5"/>
<polyline points="114.5,149.5 104.0,149.5 104.0,168.0" fill="none" stroke="#141413" stroke-width="1.5"/>
<line x1="114.5" y1="158.8" x2="104.0" y2="158.8" stroke="#141413" stroke-width="1.5"/>
<line x1="114.5" y1="158.8" x2="125.0" y2="158.8" stroke="#141413" stroke-width="1.5"/>
<line x1="125.0" y1="158.8" x2="135.5" y2="158.8" stroke="#141413" stroke-width="1.5"/>
<text x="147.0" y="163.0" fill="#141413" font-size="12" font-family="monospace">a</text>
<text x="157.5" y="163.0" fill="#141413" font-size="12" font-family="monospace">p</text>
<text x="168.0" y="163.0" fill="#141413" font-size="12" font-family="monospace">i</text>
<text x="178.5" y="163.0" fill="#141413" font-size="12" font-family="monospace">.</text>
<text x="189.0" y="163.0" fill="#141413" font-size="12" font-family="monospace">p</text>
<text x="199.5" y="163.0" fill="#141413" font-size="12" font-family="monospace">y</text>
<line x1="24.8" y1="168.0" x2="24.8" y2="186.5" stroke="#141413" stroke-width="1.5"/>
<line x1="66.8" y1="168.0" x2="66.8" y2="186.5" stroke="#141413" stroke-width="1.5"/>
<polyline points="114.5,168.0 104.0,168.0 104.0,186.5" fill="none" stroke="#141413" stroke-width="1.5"/>
<line x1="114.5" y1="177.2" x2="104.0" y2="177.2" stroke="#141413" stroke-width="1.5"/>
<line x1="114.5" y1="177.2" x2="125.0" y2="177.2" stroke="#141413" stroke-width="1.5"/>
<line x1="125.0" y1="177.2" x2="135.5" y2="177.2" stroke="#141413" stroke-width="1.5"/>
<text x="147.0" y="181.5" fill="#141413" font-size="12" font-family="monospace">m</text>
<text x="157.5" y="181.5" fill="#141413" font-size="12" font-family="monospace">o</text>
<text x="168.0" y="181.5" fill="#141413" font-size="12" font-family="monospace">d</text>
<text x="178.5" y="181.5" fill="#141413" font-size="12" font-family="monospace">e</text>
<text x="189.0" y="181.5" fill="#141413" font-size="12" font-family="monospace">l</text>
<text x="199.5" y="181.5" fill="#141413" font-size="12" font-family="monospace">s</text>
<text x="210.0" y="181.5" fill="#141413" font-size="12" font-family="monospace">.</text>
<text x="220.5" y="181.5" fill="#141413" font-size="12" font-family="monospace">p</text>
<text x="231.0" y="181.5" fill="#141413" font-size="12" font-family="monospace">y</text>
<line x1="24.8" y1="186.5" x2="24.8" y2="205.0" stroke="#141413" stroke-width="1.5"/>
<line x1="66.8" y1="186.5" x2="66.8" y2="205.0" stroke="#141413" stroke-width="1.5"/>
<polyline points="114.5,186.5 104.0,186.5 104.0,195.8" fill="none" stroke="#141413" stroke-width="1.5"/>
<line x1="114.5" y1="195.8" x2="125.0" y2="195.8" stroke="#141413" stroke-width="1.5"/>
<line x1="125.0" y1="195.8" x2="135.5" y2="195.8" stroke="#141413" stroke-width="1.5"/>
<text x="147.0" y="200.0" fill="#141413" font-size="12" font-family="monospace">s</text>
<text x="157.5" y="200.0" fill="#141413" font-size="12" font-family="monospace">e</text>
<text x="168.0" y="200.0" fill="#141413" font-size="12" font-family="monospace">r</text>
<text x="178.5" y="200.0" fill="#141413" font-size="12" font-family="monospace">v</text>
<text x="189.0" y="200.0" fill="#141413" font-size="12" font-family="monospace">i</text>
<text x="199.5" y="200.0" fill="#141413" font-size="12" font-family="monospace">c</text>
<text x="210.0" y="200.0" fill="#141413" font-size="12" font-family="monospace">e</text>
<text x="220.5" y="200.0" fill="#141413" font-size="12" font-family="monospace">.</text>
<text x="231.0" y="200.0" fill="#141413" font-size="12" font-family="monospace">p</text>
<text x="241.5" y="200.0" fill="#141413" font-size="12" font-family="monospace">y</text>
<line x1="24.8" y1="205.0" x2="24.8" y2="223.5" stroke="#141413" stroke-width="1.5"/>
<polyline points="72.5,205.0 62.0,205.0 62.0,214.2" fill="none" stroke="#141413" stroke-width="1.5"/>
<line x1="72.5" y1="214.2" x2="83.0" y2="214.2" stroke="#141413" stroke-width="1.5"/>
<line x1="83.0" y1="214.2" x2="93.5" y2="214.2" stroke="#141413" stroke-width="1.5"/>
<text x="105.0" y="218.5" fill="#141413" font-size="12" font-family="monospace">p</text>
<text x="115.5" y="218.5" fill="#141413" font-size="12" font-family="monospace">a</text>
<text x="126.0" y="218.5" fill="#141413" font-size="12" font-family="monospace">y</text>
<text x="136.5" y="218.5" fill="#141413" font-size="12" font-family="monospace">m</text>
<text x="147.0" y="218.5" fill="#141413" font-size="12" font-family="monospace">e</text>
<text x="157.5" y="218.5" fill="#141413" font-size="12" font-family="monospace">n</text>
<text x="168.0" y="218.5" fill="#141413" font-size="12" font-family="monospace">t</text>
<text x="178.5" y="218.5" fill="#141413" font-size="12" font-family="monospace">/</text>
<text x="273.0" y="218.5" fill="#141413" font-size="12" font-family="monospace">#</text>
<text x="294.0" y="218.5" fill="#141413" font-size="12" font-family="monospace">支</text>
<text x="304.5" y="218.5" fill="#141413" font-size="12" font-family="monospace">付</text>
<text x="315.0" y="218.5" fill="#141413" font-size="12" font-family="monospace">模</text>
<text x="325.5" y="218.5" fill="#141413" font-size="12" font-family="monospace">块</text>
<line x1="24.8" y1="223.5" x2="24.8" y2="242.0" stroke="#141413" stroke-width="1.5"/>
<polyline points="114.5,223.5 104.0,223.5 104.0,242.0" fill="none" stroke="#141413" stroke-width="1.5"/>
<line x1="114.5" y1="232.8" x2="104.0" y2="232.8" stroke="#141413" stroke-width="1.5"/>
<line x1="114.5" y1="232.8" x2="125.0" y2="232.8" stroke="#141413" stroke-width="1.5"/>
<line x1="125.0" y1="232.8" x2="135.5" y2="232.8" stroke="#141413" stroke-width="1.5"/>
<text x="147.0" y="237.0" fill="#141413" font-size="12" font-family="monospace">a</text>
<text x="157.5" y="237.0" fill="#141413" font-size="12" font-family="monospace">p</text>
<text x="168.0" y="237.0" fill="#141413" font-size="12" font-family="monospace">i</text>
<text x="178.5" y="237.0" fill="#141413" font-size="12" font-family="monospace">.</text>
<text x="189.0" y="237.0" fill="#141413" font-size="12" font-family="monospace">p</text>
<text x="199.5" y="237.0" fill="#141413" font-size="12" font-family="monospace">y</text>
<line x1="24.8" y1="242.0" x2="24.8" y2="260.5" stroke="#141413" stroke-width="1.5"/>
<polyline points="114.5,242.0 104.0,242.0 104.0,260.5" fill="none" stroke="#141413" stroke-width="1.5"/>
<line x1="114.5" y1="251.2" x2="104.0" y2="251.2" stroke="#141413" stroke-width="1.5"/>
<line x1="114.5" y1="251.2" x2="125.0" y2="251.2" stroke="#141413" stroke-width="1.5"/>
<line x1="125.0" y1="251.2" x2="135.5" y2="251.2" stroke="#141413" stroke-width="1.5"/>
<text x="147.0" y="255.5" fill="#141413" font-size="12" font-family="monospace">m</text>
<text x="157.5" y="255.5" fill="#141413" font-size="12" font-family="monospace">o</text>
<text x="168.0" y="255.5" fill="#141413" font-size="12" font-family="monospace">d</text>
<text x="178.5" y="255.5" fill="#141413" font-size="12" font-family="monospace">e</text>
<text x="189.0" y="255.5" fill="#141413" font-size="12" font-family="monospace">l</text>
<text x="199.5" y="255.5" fill="#141413" font-size="12" font-family="monospace">s</text>
<text x="210.0" y="255.5" fill="#141413" font-size="12" font-family="monospace">.</text>
<text x="220.5" y="255.5" fill="#141413" font-size="12" font-family="monospace">p</text>
<text x="231.0" y="255.5" fill="#141413" font-size="12" font-family="monospace">y</text>
<line x1="24.8" y1="260.5" x2="24.8" y2="279.0" stroke="#141413" stroke-width="1.5"/>
<polyline points="114.5,260.5 104.0,260.5 104.0,269.8" fill="none" stroke="#141413" stroke-width="1.5"/>
<line x1="114.5" y1="269.8" x2="125.0" y2="269.8" stroke="#141413" stroke-width="1.5"/>
<line x1="125.0" y1="269.8" x2="135.5" y2="269.8" stroke="#141413" stroke-width="1.5"/>
<text x="147.0" y="274.0" fill="#141413" font-size="12" font-family="monospace">s</text>
<text x="157.5" y="274.0" fill="#141413" font-size="12" font-family="monospace">e</text>
<text x="168.0" y="274.0" fill="#141413" font-size="12" font-family="monospace">r</text>
<text x="178.5" y="274.0" fill="#141413" font-size="12" font-family="monospace">v</text>
<text x="189.0" y="274.0" fill="#141413" font-size="12" font-family="monospace">i</text>
<text x="199.5" y="274.0" fill="#141413" font-size="12" font-family="monospace">c</text>
<text x="210.0" y="274.0" fill="#141413" font-size="12" font-family="monospace">e</text>
<text x="220.5" y="274.0" fill="#141413" font-size="12" font-family="monospace">.</text>
<text x="231.0" y="274.0" fill="#141413" font-size="12" font-family="monospace">p</text>
<text x="241.5" y="274.0" fill="#141413" font-size="12" font-family="monospace">y</text>
<polyline points="30.5,279.0 20.0,279.0 20.0,297.5" fill="none" stroke="#141413" stroke-width="1.5"/>
<line x1="30.5" y1="288.2" x2="20.0" y2="288.2" stroke="#141413" stroke-width="1.5"/>
<line x1="30.5" y1="288.2" x2="41.0" y2="288.2" stroke="#141413" stroke-width="1.5"/>
<line x1="41.0" y1="288.2" x2="51.5" y2="288.2" stroke="#141413" stroke-width="1.5"/>
<text x="63.0" y="292.5" fill="#141413" font-size="12" font-family="monospace">s</text>
<text x="73.5" y="292.5" fill="#141413" font-size="12" font-family="monospace">h</text>
<text x="84.0" y="292.5" fill="#141413" font-size="12" font-family="monospace">a</text>
<text x="94.5" y="292.5" fill="#141413" font-size="12" font-family="monospace">r</text>
<text x="105.0" y="292.5" fill="#141413" font-size="12" font-family="monospace">e</text>
<text x="115.5" y="292.5" fill="#141413" font-size="12" font-family="monospace">d</text>
<text x="126.0" y="292.5" fill="#141413" font-size="12" font-family="monospace">/</text>
<text x="273.0" y="292.5" fill="#141413" font-size="12" font-family="monospace">#</text>
<text x="294.0" y="292.5" fill="#141413" font-size="12" font-family="monospace">共</text>
<text x="304.5" y="292.5" fill="#141413" font-size="12" font-family="monospace">享</text>
<text x="315.0" y="292.5" fill="#141413" font-size="12" font-family="monospace">组</text>
<text x="325.5" y="292.5" fill="#141413" font-size="12" font-family="monospace">件</text>
<polyline points="30.5,297.5 20.0,297.5 20.0,316.0" fill="none" stroke="#141413" stroke-width="1.5"/>
<line x1="30.5" y1="306.8" x2="20.0" y2="306.8" stroke="#141413" stroke-width="1.5"/>
<line x1="30.5" y1="306.8" x2="41.0" y2="306.8" stroke="#141413" stroke-width="1.5"/>
<line x1="41.0" y1="306.8" x2="51.5" y2="306.8" stroke="#141413" stroke-width="1.5"/>
<text x="63.0" y="311.0" fill="#141413" font-size="12" font-family="monospace">t</text>
<text x="73.5" y="311.0" fill="#141413" font-size="12" font-family="monospace">e</text>
<text x="84.0" y="311.0" fill="#141413" font-size="12" font-family="monospace">s</text>
<text x="94.5" y="311.0" fill="#141413" font-size="12" font-family="monospace">t</text>
<text x="105.0" y="311.0" fill="#141413" font-size="12" font-family="monospace">s</text>
<text x="115.5" y="311.0" fill="#141413" font-size="12" font-family="monospace">/</text>
<polyline points="30.5,316.0 20.0,316.0 20.0,325.2" fill="none" stroke="#141413" stroke-width="1.5"/>
<line x1="30.5" y1="325.2" x2="41.0" y2="325.2" stroke="#141413" stroke-width="1.5"/>
<line x1="41.0" y1="325.2" x2="51.5" y2="325.2" stroke="#141413" stroke-width="1.5"/>
<text x="63.0" y="329.5" fill="#141413" font-size="12" font-family="monospace">a</text>
<text x="73.5" y="329.5" fill="#141413" font-size="12" font-family="monospace">p</text>
<text x="84.0" y="329.5" fill="#141413" font-size="12" font-family="monospace">p</text>
<text x="94.5" y="329.5" fill="#141413" font-size="12" font-family="monospace">.</text>
<text x="105.0" y="329.5" fill="#141413" font-size="12" font-family="monospace">p</text>
<text x="115.5" y="329.5" fill="#141413" font-size="12" font-family="monospace">y</text>
<text x="273.0" y="329.5" fill="#141413" font-size="12" font-family="monospace">#</text>
<text x="294.0" y="329.5" fill="#141413" font-size="12" font-family="monospace">统</text>
<text x="304.5" y="329.5" fill="#141413" font-size="12" font-family="monospace">一</text>
<text x="315.0" y="329.5" fill="#141413" font-size="12" font-family="monospace">的</text>
<text x="325.5" y="329.5" fill="#141413" font-size="12" font-family="monospace">入</text>
<text x="336.0" y="329.5" fill="#141413" font-size="12" font-family="monospace">口</text>
<text x="346.5" y="329.5" fill="#141413" font-size="12" font-family="monospace">点</text>

</svg>