<svg xmlns="http://www.w3.org/2000/svg" font-family="ui-serif, Georgia, serif" viewBox="0 0 560 160"><path fill="#faf9f5" d="M0 0h560v160H0z"/><text x="280" y="18" fill="#141413" font-size="12" font-weight="500" letter-spacing="-.02em" text-anchor="middle">Supervisor Agent 模式</text><text x="280" y="32" fill="#87867f" font-family="ui-monospace, monospace" font-size="9" text-anchor="middle">postcodeengineering.com · 2026/03/15</text><rect width="160" height="42" x="200" y="46" fill="#fff" stroke="#d97757" stroke-width="2" rx="6"/><rect width="160" height="18" x="200" y="46" fill="#fef3c7" stroke="#d97757" rx="6"/><text x="280" y="60" fill="#d97757" font-family="ui-monospace, monospace" font-size="10" font-weight="600" text-anchor="middle">Supervisor Agent</text><text x="280" y="76" fill="#87867f" font-size="9" text-anchor="middle">任务分解 · 结果聚合</text><rect width="14" height="14" x="352" y="54" fill="#d97757" rx="7"/><text x="359" y="65" fill="#fff" font-family="ui-monospace, monospace" font-size="7" text-anchor="middle">S</text><path stroke="#d1cfc5" stroke-width="1.5" d="M280 88v20"/><path fill="#d1cfc5" d="m276 108 4 8 4-8z"/><rect width="130" height="34" x="60" y="116" fill="#fff" stroke="#2563eb" stroke-width="1.5" rx="5"/><rect width="130" height="14" x="60" y="116" fill="#dbeafe" stroke="#2563eb" rx="5"/><text x="125" y="129" fill="#2563eb" font-family="ui-monospace, monospace" font-size="10" font-weight="600" text-anchor="middle">Code Agent</text><text x="125" y="143" fill="#141413" font-size="8.5" text-anchor="middle">执行代码生成</text><rect width="12" height="12" x="182" y="127" fill="#2563eb" rx="6"/><text x="188" y="136" fill="#fff" font-family="ui-monospace, monospace" font-size="7" text-anchor="middle">C</text><rect width="130" height="34" x="215" y="116" fill="#fff" stroke="#2563eb" stroke-width="1.5" rx="5"/><rect width="130" height="14" x="215" y="116" fill="#dbeafe" stroke="#2563eb" rx="5"/><text x="280" y="129" fill="#2563eb" font-family="ui-monospace, monospace" font-size="10" font-weight="600" text-anchor="middle">Test Agent</text><text x="280" y="143" fill="#141413" font-size="8.5" text-anchor="middle">执行测试生成</text><rect width="12" height="12" x="337" y="127" fill="#2563eb" rx="6"/><text x="343" y="136" fill="#fff" font-family="ui-monospace, monospace" font-size="7" text-anchor="middle">T</text><rect width="130" height="34" x="370" y="116" fill="#fff" stroke="#2563eb" stroke-width="1.5" rx="5"/><rect width="130" height="14" x="370" y="116" fill="#dbeafe" stroke="#2563eb" rx="5"/><text x="435" y="129" fill="#2563eb" font-family="ui-monospace, monospace" font-size="10" font-weight="600" text-anchor="middle">Doc Agent</text><text x="435" y="143" fill="#141413" font-size="8.5" text-anchor="middle">执行文档生成</text><rect width="12" height="12" x="492" y="127" fill="#2563eb" rx="6"/><text x="498" y="136" fill="#fff" font-family="ui-monospace, monospace" font-size="7" text-anchor="middle">D</text></svg>