<svg xmlns="http://www.w3.org/2000/svg" font-family="ui-serif, Georgia, 'Times New Roman', serif" viewBox="0 0 640 280"><path fill="#faf9f5" d="M0 0h640v280H0z"/><text x="320" y="26" fill="#141413" font-size="13" font-weight="500" letter-spacing="-.02em" text-anchor="middle">反馈回路：系统的&quot;神经系统&quot;</text><text x="320" y="42" fill="#87867f" font-family="ui-monospace, monospace" font-size="10" text-anchor="middle">增强回路 vs 平衡回路</text><rect width="286" height="196" x="24" y="56" fill="#fff" stroke="#d97757" stroke-width="1.5" rx="8"/><text x="167" y="78" fill="#d97757" font-family="ui-monospace, monospace" font-size="11" font-weight="600" text-anchor="middle">正反馈回路 · 增强回路</text><circle cx="167" cy="160" r="62" fill="none" stroke="#d97757" stroke-dasharray="6,4" stroke-width="2" opacity=".7"/><path fill="#d97757" d="m167 98-6 14h12z" opacity=".7"/><rect width="74" height="24" x="130" y="82" fill="#d97757" rx="5"/><text x="167" y="98" fill="#fff" font-family="ui-monospace, monospace" font-size="9.5" text-anchor="middle">Agent 加入</text><rect width="78" height="24" x="200" y="120" fill="#fff" stroke="#d97757" stroke-width="1.5" rx="5"/><text x="239" y="136" fill="#141413" font-family="ui-monospace, monospace" font-size="9.5" text-anchor="middle">系统能力增强</text><rect width="74" height="24" x="130" y="204" fill="#fff" stroke="#d97757" stroke-width="1.5" rx="5"/><text x="167" y="220" fill="#141413" font-family="ui-monospace, monospace" font-size="9.5" text-anchor="middle">吸引更多 Agent</text><rect width="74" height="24" x="58" y="120" fill="#fff" stroke="#d97757" stroke-width="1.5" rx="5"/><text x="95" y="136" fill="#141413" font-family="ui-monospace, monospace" font-size="9.5" text-anchor="middle">数据质量↑</text><path fill="none" stroke="#d97757" stroke-width="1.5" d="M167 106v12"/><path fill="#d97757" d="m167 120-4-8h8z"/><path fill="none" stroke="#d97757" stroke-width="1.5" d="m239 146 9 4q4 5 0 10l-44 40m0 4-4-6q-5-3-10 2l-22 4m-38 0-8-4q-7-5-7-12v-42m0-2 7 6q5 5 10 0l36-30"/><rect width="286" height="196" x="330" y="56" fill="#fff" stroke="#788c5d" stroke-width="1.5" rx="8"/><text x="473" y="78" fill="#788c5d" font-family="ui-monospace, monospace" font-size="11" font-weight="600" text-anchor="middle">负反馈回路 · 平衡回路</text><path stroke="#788c5d" stroke-width="1.5" d="M473 100v118m-83-58h166" opacity=".4"/><rect width="60" height="24" x="405" y="96" fill="#788c5d" rx="5"/><text x="435" y="112" fill="#fff" font-family="ui-monospace, monospace" font-size="9.5" text-anchor="middle">负载升高</text><rect width="68" height="24" x="510" y="136" fill="#fff" stroke="#788c5d" stroke-width="1.5" rx="5"/><text x="544" y="152" fill="#141413" font-family="ui-monospace, monospace" font-size="9.5" text-anchor="middle">触发负载均衡</text><rect width="60" height="24" x="405" y="196" fill="#fff" stroke="#788c5d" stroke-width="1.5" rx="5"/><text x="435" y="212" fill="#141413" font-family="ui-monospace, monospace" font-size="9.5" text-anchor="middle">负载降低</text><rect width="68" height="24" x="310" y="136" fill="#fff" stroke="#788c5d" stroke-width="1.5" rx="5"/><text x="344" y="152" fill="#141413" font-family="ui-monospace, monospace" font-size="9.5" text-anchor="middle">恢复平衡</text><text x="473" y="164" fill="#788c5d" font-family="ui-monospace, monospace" font-size="9" text-anchor="middle">均衡点</text><circle cx="473" cy="160" r="4" fill="#788c5d"/><path fill="none" stroke="#788c5d" stroke-width="1.5" d="m435 122 3 6q2 4 7 4l63 6"/><path fill="#788c5d" d="m510 140-8-4 4 8z"/><path fill="none" stroke="#788c5d" stroke-width="1.5" d="m544 162 6 6q2 7-2 12l-113 18"/><path fill="#788c5d" d="m433 196 8 4-4-8z"/><path fill="none" stroke="#788c5d" stroke-width="1.5" d="m405 198-7-6q-6-7-6-14v-18l-12-8m-2-2 8-6q8-6 14-2l33-22"/></svg>