<svg xmlns="http://www.w3.org/2000/svg" font-family="ui-serif, Georgia, serif" viewBox="0 0 680 360"><title>AI-Native 数据工程三层架构</title><desc>AI-Native 数据工程的三层架构：数据意图层、智能管道层、向量数据网格</desc><path fill="#faf9f5" d="M0 0h680v360H0z"/><text x="340" y="28" fill="#141413" font-size="14" font-weight="500" letter-spacing="-.02em" text-anchor="middle">AI-Native 数据工程三层架构</text><text x="340" y="44" fill="#87867f" font-family="ui-monospace, monospace" font-size="10" text-anchor="middle">postcodeeng · 2026/03/15</text><rect width="600" height="72" x="40" y="62" fill="#fff" stroke="#d97757" stroke-width="1.8" rx="8"/><text x="60" y="86" fill="#d97757" font-family="ui-monospace, monospace" font-size="11" font-weight="600">Layer 1</text><text x="60" y="106" fill="#141413" font-size="14">数据意图层</text><text x="60" y="122" fill="#87867f" font-size="10.5">数据主动感知业务意图，自动发现、推荐与服务</text><rect width="112" height="20" x="510" y="78" fill="#d97757" rx="10"/><text x="566" y="92" fill="#fff" font-family="ui-monospace, monospace" font-size="9" text-anchor="middle">主动感知</text><path stroke="#d1cfc5" stroke-width="1.5" d="M340 134v16"/><path fill="#d1cfc5" d="m340 154-6-8h12z"/><rect width="600" height="72" x="40" y="158" fill="#fff" stroke="#d1cfc5" stroke-width="1.5" rx="8"/><text x="60" y="182" fill="#d97757" font-family="ui-monospace, monospace" font-size="11" font-weight="600">Layer 2</text><text x="60" y="202" fill="#141413" font-size="14">智能管道层</text><text x="60" y="218" fill="#87867f" font-size="10.5">自愈 · 自适应 · 自优化 — AI 驱动的数据质量监控与自动修复</text><rect width="58" height="18" x="420" y="172" fill="#f0eee6" stroke="#d1cfc5" rx="9"/><text x="449" y="184" fill="#141413" font-family="ui-monospace, monospace" font-size="9" text-anchor="middle">自愈</text><rect width="58" height="18" x="484" y="172" fill="#f0eee6" stroke="#d1cfc5" rx="9"/><text x="513" y="184" fill="#141413" font-family="ui-monospace, monospace" font-size="9" text-anchor="middle">自适应</text><rect width="74" height="18" x="548" y="172" fill="#f0eee6" stroke="#d1cfc5" rx="9"/><text x="585" y="184" fill="#141413" font-family="ui-monospace, monospace" font-size="9" text-anchor="middle">自优化</text><path stroke="#d1cfc5" stroke-width="1.5" d="M340 230v16"/><path fill="#d1cfc5" d="m340 250-6-8h12z"/><rect width="600" height="72" x="40" y="254" fill="#fff" stroke="#788c5d" stroke-width="1.8" rx="8"/><text x="60" y="278" fill="#788c5d" font-family="ui-monospace, monospace" font-size="11" font-weight="600">Layer 3</text><text x="60" y="298" fill="#141413" font-size="14">向量数据网格</text><text x="60" y="314" fill="#87867f" font-size="10.5">统一 Embedding 服务 · 分布式向量存储 · 语义检索</text><rect width="112" height="20" x="510" y="270" fill="#788c5d" rx="10"/><text x="566" y="284" fill="#fff" font-family="ui-monospace, monospace" font-size="9" text-anchor="middle">语义服务</text><path fill="none" stroke="#d97757" stroke-dasharray="4,3" stroke-width="2" d="M640 88c22 0 22 222 0 218" opacity=".5"/><path fill="#d97757" d="m640 306-6-8h12z" opacity=".5"/><text x="654" y="200" fill="#d97757" font-family="ui-monospace, monospace" font-size="9">反馈闭环</text></svg>