<svg xmlns="http://www.w3.org/2000/svg" font-family="system-ui, -apple-system, sans-serif" viewBox="0 0 900 520"><rect width="900" height="520" fill="#faf9f5" rx="12"/><text x="450" y="38" fill="#141413" font-size="18" font-weight="700" text-anchor="middle">Agent Orchestrator: Workflow Execution</text><text x="450" y="58" fill="#87867f" font-size="12" text-anchor="middle">Dependency-aware multi-agent task orchestration with parallel execution</text><g transform="translate(350 80)"><rect width="200" height="60" fill="#141413" rx="10"/><text x="100" y="28" fill="#fff" font-size="14" font-weight="700" text-anchor="middle">Orchestrator</text><text x="100" y="46" fill="#d1cfc5" font-size="11" text-anchor="middle">dependency resolver + task scheduler</text></g><g transform="translate(50 170)"><rect width="200" height="200" fill="#faf9f5" stroke="#d1cfc5" stroke-width="1.5" rx="8"/><text x="100" y="24" fill="#141413" font-size="12" font-weight="700" text-anchor="middle">Workflow Definition</text><text x="100" y="42" fill="#87867f" font-size="9" text-anchor="middle">JSON / YAML</text><path stroke="#d1cfc5" d="M20 52h160"/><g transform="translate(15 62)"><rect width="170" height="22" fill="#e3dacc" rx="4"/><text x="8" y="15" fill="#141413" font-size="9">{ agent: &quot;A&quot;, task: &quot;t1&quot; }</text></g><g transform="translate(15 88)"><rect width="170" height="22" fill="#e3dacc" rx="4"/><text x="8" y="15" fill="#141413" font-size="9">{ agent: &quot;B&quot;, task: &quot;t2&quot;, depends_on: [&quot;A&quot;] }</text></g><g transform="translate(15 114)"><rect width="170" height="22" fill="#e3dacc" rx="4"/><text x="8" y="15" fill="#141413" font-size="9">{ agent: &quot;C&quot;, task: &quot;t3&quot;, depends_on: [&quot;A&quot;] }</text></g><g transform="translate(15 140)"><rect width="170" height="22" fill="#e3dacc" rx="4"/><text x="8" y="15" fill="#141413" font-size="9">{ agent: &quot;D&quot;, task: &quot;t4&quot;, depends_on: [&quot;B&quot;,&quot;C&quot;] }</text></g></g><path stroke="#d1cfc5" stroke-dasharray="5,4" stroke-width="2" d="m250 270 120-120"/><path fill="#d1cfc5" d="m365 148 13 7-13 7z"/><g transform="translate(320 170)"><rect width="260" height="200" fill="#faf9f5" stroke="#d1cfc5" stroke-width="1.5" rx="8"/><text x="130" y="24" fill="#141413" font-size="12" font-weight="700" text-anchor="middle">Execution Graph</text><text x="130" y="42" fill="#87867f" font-size="9" text-anchor="middle">Topological sort + parallel scheduling</text><path stroke="#d1cfc5" d="M20 52h220"/><g transform="translate(20 65)"><rect width="60" height="36" fill="#788c5d" rx="6"/><text x="30" y="16" fill="#fff" font-size="10" font-weight="600" text-anchor="middle">Agent A</text><text x="30" y="28" fill="#e3dacc" font-size="9" text-anchor="middle">Step 1</text></g><path stroke="#d1cfc5" stroke-width="1.5" d="M50 101v14m80 0H20m110 0h50"/><g transform="translate(20 120)"><rect width="60" height="36" fill="#d97757" rx="6"/><text x="30" y="16" fill="#fff" font-size="10" font-weight="600" text-anchor="middle">Agent B</text><text x="30" y="28" fill="#faf9f5" font-size="9" text-anchor="middle">Step 2a</text></g><g transform="translate(180 120)"><rect width="60" height="36" fill="#d97757" rx="6"/><text x="30" y="16" fill="#fff" font-size="10" font-weight="600" text-anchor="middle">Agent C</text><text x="30" y="28" fill="#faf9f5" font-size="9" text-anchor="middle">Step 2b</text></g><text x="130" y="108" fill="#788c5d" font-size="8" text-anchor="middle">PARALLEL</text><path stroke="#d1cfc5" stroke-width="1.5" d="M50 156v9m160 0H50m80 0v5"/><g transform="translate(90 170)"><rect width="80" height="36" fill="#141413" rx="6"/><text x="40" y="16" fill="#fff" font-size="10" font-weight="600" text-anchor="middle">Agent D</text><text x="40" y="28" fill="#d1cfc5" font-size="9" text-anchor="middle">Step 3</text></g></g><g transform="translate(650 170)"><rect width="200" height="200" fill="#faf9f5" stroke="#788c5d" stroke-width="2" rx="8"/><text x="100" y="24" fill="#788c5d" font-size="12" font-weight="700" text-anchor="middle">Execution Results</text><path stroke="#d1cfc5" d="M20 36h160"/><g transform="translate(15 50)"><circle cx="10" cy="8" r="6" fill="#788c5d"/><text x="24" y="12" fill="#141413" font-size="10">A → { success: true }</text></g><g transform="translate(15 80)"><circle cx="10" cy="8" r="6" fill="#788c5d"/><text x="24" y="12" fill="#141413" font-size="10">B → { success: true }</text></g><g transform="translate(15 110)"><circle cx="10" cy="8" r="6" fill="#788c5d"/><text x="24" y="12" fill="#141413" font-size="10">C → { success: true }</text></g><g transform="translate(15 140)"><circle cx="10" cy="8" r="6" fill="#788c5d"/><text x="24" y="12" fill="#141413" font-size="10">D → { success: true }</text></g><rect width="170" height="28" x="15" y="162" fill="#788c5d" rx="4"/><text x="100" y="180" fill="#fff" font-size="11" font-weight="600" text-anchor="middle">✓ Workflow Complete</text></g><path stroke="#d1cfc5" stroke-dasharray="5,4" stroke-width="2" d="M580 270h70"/><path fill="#d1cfc5" d="m645 264 11 6-11 6z"/><g transform="translate(50 420)"><rect width="800" height="80" fill="#faf9f5" stroke="#d1cfc5" rx="8"/><text x="400" y="20" fill="#141413" font-size="12" font-weight="700" text-anchor="middle">Orchestrator Responsibilities</text><g transform="translate(40 35)"><rect width="150" height="36" fill="#e3dacc" rx="6"/><text x="75" y="16" fill="#141413" font-size="10" font-weight="600" text-anchor="middle">Dependency Resolution</text><text x="75" y="28" fill="#87867f" font-size="9" text-anchor="middle">Topological sort</text></g><g transform="translate(220 35)"><rect width="150" height="36" fill="#e3dacc" rx="6"/><text x="75" y="16" fill="#141413" font-size="10" font-weight="600" text-anchor="middle">Parallel Scheduling</text><text x="75" y="28" fill="#87867f" font-size="9" text-anchor="middle">Ready tasks concurrently</text></g><g transform="translate(400 35)"><rect width="150" height="36" fill="#e3dacc" rx="6"/><text x="75" y="16" fill="#141413" font-size="10" font-weight="600" text-anchor="middle">Result Aggregation</text><text x="75" y="28" fill="#87867f" font-size="9" text-anchor="middle">Merge outputs</text></g><g transform="translate(580 35)"><rect width="150" height="36" fill="#e3dacc" rx="6"/><text x="75" y="16" fill="#141413" font-size="10" font-weight="600" text-anchor="middle">Error Handling</text><text x="75" y="28" fill="#87867f" font-size="9" text-anchor="middle">Fail-fast + rollback</text></g></g></svg>