<svg xmlns="http://www.w3.org/2000/svg" font-family="ui-serif, Georgia, serif" viewBox="0 0 680 420">
  <title>Iteration Flywheel: Worse is Better + AI</title>
  <desc>
    迭代飞轮图：快速发布 → 获取反馈 → AI 迭代 → 持续进化，代码生成成本趋近于零使快速试错成为主动策略。
  </desc>
  <path fill="#faf9f5" d="M0 0h680v420H0z"/>
  <text x="340" y="28" fill="#141413" font-size="14" font-weight="500" letter-spacing="-.02em" text-anchor="middle">Worse is Better 迭代飞轮</text>
  <text x="340" y="44" fill="#87867f" font-family="ui-monospace, monospace" font-size="10" text-anchor="middle">AI-Native Engineering · 代码生成成本 → 0</text>
  <circle cx="340" cy="210" r="55" fill="#fff" stroke="#d1cfc5" stroke-width="1.5"/>
  <text x="340" y="200" fill="#141413" font-family="ui-monospace, monospace" font-size="11" font-weight="600" text-anchor="middle">Code Gen</text>
  <text x="340" y="216" fill="#141413" font-family="ui-monospace, monospace" font-size="11" font-weight="600" text-anchor="middle">Cost</text>
  <text x="340" y="234" fill="#d97757" font-family="ui-monospace, monospace" font-size="16" font-weight="700" text-anchor="middle">→ 0</text>
  <rect width="160" height="90" x="400" y="80" fill="#fff" stroke="#d97757" stroke-width="1.8" rx="8"/>
  <rect width="20" height="20" x="536" y="90" fill="#d97757" rx="10"/>
  <text x="546" y="105" fill="#fff" font-family="ui-monospace, monospace" font-size="9" text-anchor="middle">1</text>
  <text x="480" y="112" fill="#d97757" font-size="13" font-weight="600">Quick Release</text>
  <text x="480" y="132" fill="#141413" font-size="10.5">快速发布可用的</text>
  <text x="480" y="148" fill="#141413" font-size="10.5">第一版本</text>
  <text x="480" y="164" fill="#87867f" font-family="ui-monospace, monospace" font-size="9">AI 生成成本 ≈ 0</text>
  <rect width="160" height="90" x="400" y="250" fill="#fff" stroke="#788c5d" stroke-width="1.8" rx="8"/>
  <rect width="20" height="20" x="536" y="260" fill="#788c5d" rx="10"/>
  <text x="546" y="275" fill="#fff" font-family="ui-monospace, monospace" font-size="9" text-anchor="middle">2</text>
  <text x="480" y="282" fill="#788c5d" font-size="13" font-weight="600">Get Feedback</text>
  <text x="480" y="302" fill="#141413" font-size="10.5">在真实世界中</text>
  <text x="480" y="318" fill="#141413" font-size="10.5">获取用户反馈</text>
  <text x="480" y="334" fill="#87867f" font-family="ui-monospace, monospace" font-size="9">验证方向正确性</text>
  <rect width="160" height="90" x="120" y="250" fill="#fff" stroke="#d97757" stroke-width="1.8" rx="8"/>
  <rect width="20" height="20" x="124" y="260" fill="#d97757" rx="10"/>
  <text x="134" y="275" fill="#fff" font-family="ui-monospace, monospace" font-size="9" text-anchor="middle">3</text>
  <text x="200" y="282" fill="#d97757" font-size="13" font-weight="600">AI Iterate</text>
  <text x="200" y="302" fill="#141413" font-size="10.5">用 AI 快速修复</text>
  <text x="200" y="318" fill="#141413" font-size="10.5">问题和迭代</text>
  <text x="200" y="334" fill="#87867f" font-family="ui-monospace, monospace" font-size="9">AI 重构 + 重新设计</text>
  <rect width="160" height="90" x="120" y="80" fill="#fff" stroke="#788c5d" stroke-width="1.8" rx="8"/>
  <rect width="20" height="20" x="124" y="90" fill="#788c5d" rx="10"/>
  <text x="134" y="105" fill="#fff" font-family="ui-monospace, monospace" font-size="9" text-anchor="middle">4</text>
  <text x="200" y="112" fill="#788c5d" font-size="13" font-weight="600">Evolve</text>
  <text x="200" y="132" fill="#141413" font-size="10.5">持续进化</text>
  <text x="200" y="148" fill="#141413" font-size="10.5">系统与能力</text>
  <text x="200" y="164" fill="#87867f" font-family="ui-monospace, monospace" font-size="9">累积学习复利</text>
  <path fill="none" stroke="#d1cfc5" stroke-dasharray="6,4" stroke-width="2" d="M560 175q20 35 0 75"/>
  <path fill="#d1cfc5" d="m560 250-4-10 8 2z"/>
  <path fill="none" stroke="#d1cfc5" stroke-dasharray="6,4" stroke-width="2" d="M400 295q-60 35-120 0"/>
  <path fill="#d1cfc5" d="m280 295 8-5 2 8z"/>
  <path fill="none" stroke="#d1cfc5" stroke-dasharray="6,4" stroke-width="2" d="M120 245q-20-35 0-70"/>
  <path fill="#d1cfc5" d="m120 175 4 10-8-2z"/>
  <path fill="none" stroke="#d1cfc5" stroke-dasharray="6,4" stroke-width="2" d="M280 125q60-35 120 0"/>
  <path fill="#d1cfc5" d="m400 125-8 5-2-8z"/>
  <text x="340" y="390" fill="#87867f" font-family="ui-monospace, monospace" font-size="10" text-anchor="middle">飞轮一旦转动，每一圈都在加速</text>
  <rect width="110" height="30" x="550" y="180" fill="#fef9f5" stroke="#d97757" rx="4"/>
  <text x="605" y="195" fill="#d97757" font-family="ui-monospace, monospace" font-size="9" text-anchor="middle">试错成本 ↓ 90%</text>
  <text x="605" y="207" fill="#d97757" font-family="ui-monospace, monospace" font-size="9" text-anchor="middle">迭代速度 ↑ 10x</text>
</svg>
