<svg xmlns="http://www.w3.org/2000/svg" aria-label="Harness 三层架构图" viewBox="0 0 560 360"><title>Harness 架构</title><desc>Harness Engineering 的三层架构：Layer 1 上下文工程、Layer 2 架构约束、Layer 3 垃圾回收</desc><defs><style>.border{fill:none;stroke:#d1cfc5;stroke-width:2}.title-bg{fill:#141413}.item,.layer-label,.layer-sub{font-family:ui-monospace,monospace}.layer-label,.layer-sub{fill:#faf9f5}.layer-label{font-size:11px;font-weight:700}.layer-sub{font-size:9px}.item{fill:#141413;font-size:11px}.divider{stroke:#d1cfc5;stroke-width:1.5}</style></defs><path d="M0 0h560v360H0z" style="fill:#faf9f5"/><rect width="520" height="320" x="20" y="20" rx="6" style="fill:none;stroke:#d1cfc5;stroke-width:2.5"/><rect width="520" height="36" x="20" y="20" class="title-bg" rx="6"/><path d="M20 44h520v12H20z" class="title-bg"/><text x="280" y="43" style="fill:#faf9f5;font-family:ui-monospace,monospace;font-size:13px;font-weight:700" text-anchor="middle">Harness 架构</text><path d="M20 68h520v90H20z" style="fill:#d97757"/><path d="M20 68h520v90H20z" class="border"/><rect width="140" height="20" x="26" y="74" fill="rgba(0,0,0,0.2)" rx="3"/><text x="96" y="88" class="layer-label" text-anchor="middle">Layer 3</text><text x="96" y="99" class="layer-sub" text-anchor="middle">Garbage Collection</text><text x="176" y="90" class="item">- 定期运行的 Agent</text><text x="176" y="106" class="item">- 发现文档不一致</text><text x="176" y="122" class="item">- 修复架构违规</text><text x="176" y="138" class="item">- 对抗熵增和腐烂</text><path d="M20 158h520" class="divider"/><path d="M20 158h520v90H20z" style="fill:#788c5d"/><path d="M20 158h520v90H20z" class="border"/><rect width="140" height="20" x="26" y="164" fill="rgba(0,0,0,0.2)" rx="3"/><text x="96" y="178" class="layer-label" text-anchor="middle">Layer 2</text><text x="96" y="189" class="layer-sub" text-anchor="middle">架构约束</text><text x="176" y="180" class="item">- 确定性自定义 Linter</text><text x="176" y="196" class="item">- 结构化测试</text><text x="176" y="212" class="item">- LLM-based Agent 监控</text><path d="M20 248h520" class="divider"/><rect width="520" height="92" x="20" y="248" rx="0" style="fill:#e3dacc"/><path d="M20 248h520v92H20z" class="border"/><path fill="#e3dacc" d="M20 332q0 8 8 8h504q8 0 8-8"/><rect width="520" height="92" x="20" y="248" fill="none" stroke="#d1cfc5" stroke-width="2.5" rx="6"/><rect width="140" height="20" x="26" y="254" fill="rgba(0,0,0,0.08)" rx="3"/><text x="96" y="268" class="layer-label" style="fill:#141413" text-anchor="middle">Layer 1</text><text x="96" y="279" class="layer-sub" style="fill:#141413" text-anchor="middle">上下文工程</text><text x="176" y="270" class="item">- 持续增强的知识库</text><text x="176" y="286" class="item">- 动态上下文（可观测性数据）</text><text x="176" y="302" class="item">- 浏览器导航等实时信息</text></svg>