<svg xmlns="http://www.w3.org/2000/svg" viewBox="0 0 900 560">
  <path fill="#faf9f5" d="M0 0h900v560H0z"/>
  <text x="450" y="42" fill="#141413" font-family="Georgia, serif" font-size="20" font-weight="bold" text-anchor="middle">浏览器 AI 化的三条路径</text>
  <rect width="250" height="180" x="50" y="75" fill="#d97757" fill-opacity=".15" stroke="#d97757" stroke-width="2" rx="12"/>
  <text x="175" y="102" fill="#d97757" font-family="Georgia, serif" font-size="15" font-weight="bold" text-anchor="middle">Chrome / Edge</text>
  <text x="175" y="120" fill="#87867f" font-family="Arial, sans-serif" font-size="12" text-anchor="middle">深度集成策略</text>
  <rect width="220" height="28" x="65" y="135" fill="#141413" rx="4"/>
  <text x="175" y="154" fill="#faf9f5" font-family="Arial, sans-serif" font-size="11" text-anchor="middle">地址栏 → AI 搜索建议</text>
  <rect width="220" height="28" x="65" y="168" fill="#141413" rx="4"/>
  <text x="175" y="187" fill="#faf9f5" font-family="Arial, sans-serif" font-size="11" text-anchor="middle">右键菜单 → AI 总结/翻译</text>
  <rect width="220" height="28" x="65" y="201" fill="#141413" rx="4"/>
  <text x="175" y="220" fill="#faf9f5" font-family="Arial, sans-serif" font-size="11" text-anchor="middle">侧边栏 → AI 助手常驻</text>
  <rect width="220" height="28" x="65" y="234" fill="#141413" rx="4"/>
  <text x="175" y="253" fill="#faf9f5" font-family="Arial, sans-serif" font-size="11" text-anchor="middle">DevTools → AI 代码建议</text>
  <rect width="250" height="180" x="325" y="75" fill="#788c5d" fill-opacity=".15" stroke="#788c5d" stroke-width="2" rx="12"/>
  <text x="450" y="102" fill="#788c5d" font-family="Georgia, serif" font-size="15" font-weight="bold" text-anchor="middle">Safari</text>
  <text x="450" y="120" fill="#87867f" font-family="Arial, sans-serif" font-size="12" text-anchor="middle">系统级集成策略</text>
  <rect width="220" height="28" x="340" y="135" fill="#141413" rx="4"/>
  <text x="450" y="154" fill="#faf9f5" font-family="Arial, sans-serif" font-size="11" text-anchor="middle">macOS Apple Intelligence</text>
  <rect width="220" height="28" x="340" y="168" fill="#141413" rx="4"/>
  <text x="450" y="187" fill="#faf9f5" font-family="Arial, sans-serif" font-size="11" text-anchor="middle">Safari 调用系统 AI API</text>
  <rect width="220" height="28" x="340" y="201" fill="#141413" rx="4"/>
  <text x="450" y="220" fill="#faf9f5" font-family="Arial, sans-serif" font-size="11" text-anchor="middle">跨应用 AI 上下文共享</text>
  <rect width="250" height="180" x="600" y="75" fill="#d1cfc5" stroke="#87867f" stroke-width="2" rx="12"/>
  <text x="725" y="102" fill="#141413" font-family="Georgia, serif" font-size="15" font-weight="bold" text-anchor="middle">Firefox</text>
  <text x="725" y="120" fill="#87867f" font-family="Arial, sans-serif" font-size="12" text-anchor="middle">模块化集成策略</text>
  <rect width="220" height="28" x="615" y="135" fill="#d1cfc5" stroke="#87867f" rx="4"/>
  <text x="725" y="154" fill="#141413" font-family="Arial, sans-serif" font-size="11" text-anchor="middle">Firefox Core（无 AI）</text>
  <rect width="220" height="28" x="615" y="168" fill="#e3dacc" stroke="#d97757" stroke-dasharray="4,2" rx="4"/>
  <text x="725" y="187" fill="#141413" font-family="Arial, sans-serif" font-size="11" text-anchor="middle">可选 AI 模块</text>
  <rect width="220" height="28" x="615" y="201" fill="#e3dacc" stroke="#d97757" stroke-dasharray="4,2" rx="4"/>
  <text x="725" y="220" fill="#141413" font-family="Arial, sans-serif" font-size="11" text-anchor="middle">本地 / Mozilla / 第三方</text>
  <path fill="none" stroke="#d97757" stroke-width="2" d="M175 260v30m-10-10 10 10 10-10"/>
  <path fill="none" stroke="#788c5d" stroke-width="2" d="M450 260v30m-10-10 10 10 10-10"/>
  <path fill="none" stroke="#87867f" stroke-width="2" d="M725 260v30m-10-10 10 10 10-10"/>
  <rect width="800" height="250" x="50" y="295" fill="#e3dacc" fill-opacity=".3" rx="12"/>
  <rect width="800" height="35" x="50" y="295" fill="#141413" rx="12"/>
  <text x="120" y="318" fill="#faf9f5" font-family="Arial, sans-serif" font-size="12" font-weight="bold" text-anchor="middle">维度</text>
  <text x="280" y="318" fill="#faf9f5" font-family="Arial, sans-serif" font-size="12" font-weight="bold" text-anchor="middle">Chrome/Edge</text>
  <text x="450" y="318" fill="#faf9f5" font-family="Arial, sans-serif" font-size="12" font-weight="bold" text-anchor="middle">Safari</text>
  <text x="620" y="318" fill="#faf9f5" font-family="Arial, sans-serif" font-size="12" font-weight="bold" text-anchor="middle">Firefox</text>
  <text x="770" y="318" fill="#faf9f5" font-family="Arial, sans-serif" font-size="12" font-weight="bold" text-anchor="middle">隐私</text>
  <path fill="#faf9f5" d="M50 330h800v38H50z"/>
  <text x="120" y="355" fill="#141413" font-family="Arial, sans-serif" font-size="12" text-anchor="middle">用户选择权</text>
  <text x="280" y="355" font-family="Arial, sans-serif" font-size="14" text-anchor="middle">⚠️</text>
  <text x="450" y="355" font-family="Arial, sans-serif" font-size="14" text-anchor="middle">⚠️</text>
  <text x="620" y="355" fill="#788c5d" font-family="Arial, sans-serif" font-size="14" text-anchor="middle">✅</text>
  <text x="770" y="355" fill="#788c5d" font-family="Arial, sans-serif" font-size="12" text-anchor="middle">最强</text>
  <path fill="#e3dacc" fill-opacity=".5" d="M50 368h800v38H50z"/>
  <text x="120" y="393" fill="#141413" font-family="Arial, sans-serif" font-size="12" text-anchor="middle">本地 AI</text>
  <text x="280" y="393" font-family="Arial, sans-serif" font-size="14" text-anchor="middle">❌</text>
  <text x="450" y="393" fill="#788c5d" font-family="Arial, sans-serif" font-size="14" text-anchor="middle">✅</text>
  <text x="620" y="393" fill="#788c5d" font-family="Arial, sans-serif" font-size="14" text-anchor="middle">✅</text>
  <text x="770" y="393" fill="#788c5d" font-family="Arial, sans-serif" font-size="12" text-anchor="middle">支持</text>
  <path fill="#faf9f5" d="M50 406h800v38H50z"/>
  <text x="120" y="431" fill="#141413" font-family="Arial, sans-serif" font-size="12" text-anchor="middle">第三方 AI</text>
  <text x="280" y="431" font-family="Arial, sans-serif" font-size="14" text-anchor="middle">❌</text>
  <text x="450" y="431" font-family="Arial, sans-serif" font-size="14" text-anchor="middle">❌</text>
  <text x="620" y="431" fill="#788c5d" font-family="Arial, sans-serif" font-size="14" text-anchor="middle">✅</text>
  <text x="770" y="431" fill="#d97757" font-family="Arial, sans-serif" font-size="12" text-anchor="middle">按需</text>
  <path fill="#e3dacc" fill-opacity=".5" d="M50 444h800v38H50z"/>
  <text x="120" y="469" fill="#141413" font-family="Arial, sans-serif" font-size="12" text-anchor="middle">数据控制</text>
  <text x="280" y="469" font-family="Arial, sans-serif" font-size="14" text-anchor="middle">⚠️</text>
  <text x="450" y="469" font-family="Arial, sans-serif" font-size="14" text-anchor="middle">⚠️</text>
  <text x="620" y="469" fill="#788c5d" font-family="Arial, sans-serif" font-size="14" text-anchor="middle">✅</text>
  <text x="770" y="469" fill="#788c5d" font-family="Arial, sans-serif" font-size="12" text-anchor="middle">用户</text>
  <path fill="#faf9f5" d="M50 482h800v38H50z"/>
  <text x="120" y="507" fill="#141413" font-family="Arial, sans-serif" font-size="12" text-anchor="middle">生态开放性</text>
  <text x="280" y="507" font-family="Arial, sans-serif" font-size="14" text-anchor="middle">🔒</text>
  <text x="450" y="507" font-family="Arial, sans-serif" font-size="14" text-anchor="middle">🔒</text>
  <text x="620" y="507" font-family="Arial, sans-serif" font-size="14" text-anchor="middle">🔓</text>
  <text x="770" y="507" fill="#788c5d" font-family="Arial, sans-serif" font-size="12" text-anchor="middle">开放</text>
  <rect width="800" height="28" x="50" y="525" fill="#d97757" fill-opacity=".2" stroke="#d97757" rx="4"/>
  <text x="450" y="543" fill="#141413" font-family="Georgia, serif" font-size="12" font-style="italic" text-anchor="middle">关键洞察：Firefox 的模块化策略以用户选择自由换取功能丰富度</text>
</svg>
