<svg xmlns="http://www.w3.org/2000/svg" font-family="ui-serif, Georgia, serif" viewBox="0 0 480 120"><path fill="#faf9f5" d="M0 0h480v120H0z"/><text x="240" y="18" fill="#141413" font-size="12" font-weight="500" letter-spacing="-.02em" text-anchor="middle">反馈循环</text><text x="240" y="32" fill="#87867f" font-family="ui-monospace, monospace" font-size="9" text-anchor="middle">postcodeengineering.com · 2026/03/15</text><rect width="72" height="44" x="30" y="50" fill="#fff" stroke="#2563eb" stroke-width="1.5" rx="6"/><rect width="72" height="16" x="30" y="50" fill="#dbeafe" stroke="#2563eb" rx="6"/><text x="66" y="63" fill="#2563eb" font-family="ui-monospace, monospace" font-size="9" font-weight="600" text-anchor="middle">Action</text><text x="66" y="80" fill="#141413" font-size="9" text-anchor="middle">行动</text><rect width="12" height="12" x="94" y="66" fill="#2563eb" rx="6"/><text x="100" y="75" fill="#fff" font-family="ui-monospace, monospace" font-size="7" text-anchor="middle">A</text><path stroke="#d1cfc5" stroke-width="1.5" d="M102 72h18"/><path fill="#d1cfc5" d="m120 68 8 4-8 4z"/><rect width="72" height="44" x="128" y="50" fill="#fff" stroke="#d97757" stroke-width="1.5" rx="6"/><rect width="72" height="16" x="128" y="50" fill="#fef3c7" stroke="#d97757" rx="6"/><text x="164" y="63" fill="#d97757" font-family="ui-monospace, monospace" font-size="9" font-weight="600" text-anchor="middle">Outcome</text><text x="164" y="80" fill="#141413" font-size="9" text-anchor="middle">结果</text><rect width="12" height="12" x="192" y="66" fill="#d97757" rx="6"/><text x="198" y="75" fill="#fff" font-family="ui-monospace, monospace" font-size="7" text-anchor="middle">O</text><path stroke="#d1cfc5" stroke-width="1.5" d="M200 72h18"/><path fill="#d1cfc5" d="m218 68 8 4-8 4z"/><rect width="72" height="44" x="226" y="50" fill="#fff" stroke="#059669" stroke-width="1.5" rx="6"/><rect width="72" height="16" x="226" y="50" fill="#d1fae5" stroke="#059669" rx="6"/><text x="262" y="63" fill="#059669" font-family="ui-monospace, monospace" font-size="9" font-weight="600" text-anchor="middle">Sense</text><text x="262" y="80" fill="#141413" font-size="9" text-anchor="middle">感知</text><rect width="12" height="12" x="290" y="66" fill="#059669" rx="6"/><text x="296" y="75" fill="#fff" font-family="ui-monospace, monospace" font-size="7" text-anchor="middle">S</text><path stroke="#d1cfc5" stroke-width="1.5" d="M298 72h18"/><path fill="#d1cfc5" d="m316 68 8 4-8 4z"/><rect width="72" height="44" x="324" y="50" fill="#fff" stroke="#ea580c" stroke-width="1.5" rx="6"/><rect width="72" height="16" x="324" y="50" fill="#fed7aa" stroke="#ea580c" rx="6"/><text x="360" y="63" fill="#ea580c" font-family="ui-monospace, monospace" font-size="9" font-weight="600" text-anchor="middle">Feedback</text><text x="360" y="80" fill="#141413" font-size="9" text-anchor="middle">反馈</text><rect width="12" height="12" x="388" y="66" fill="#ea580c" rx="6"/><text x="394" y="75" fill="#fff" font-family="ui-monospace, monospace" font-size="7" text-anchor="middle">F</text><path fill="none" stroke="#d1cfc5" stroke-dasharray="4,3" stroke-width="1.5" d="M360 94q-120 16-258 0"/><path fill="#d1cfc5" d="m102 94 6-4v8z"/><text x="240" y="116" fill="#87867f" font-size="9" font-style="italic" text-anchor="middle">反馈循环速度决定系统适应环境的速度</text></svg>