<svg xmlns="http://www.w3.org/2000/svg" viewBox="0 0 424 308" width="424" height="308" style="font-family: 'Courier New', Courier, monospace; background: #FAF9F5;">
  <rect width="424" height="308" fill="#FAF9F5"/>
<text x="212.0" y="18" text-anchor="middle" font-size="12px" font-weight="bold" fill="#141413">知识共享网络</text>
  <g>
    <line x1="63.2" y1="143.5" x2="77.6" y2="143.5" stroke="#D1CFC5" stroke-width="1.5" stroke-linecap="round"/>
<line x1="63.2" y1="143.5" x2="63.2" y2="169.0" stroke="#D1CFC5" stroke-width="1.5" stroke-linecap="round"/>
<line x1="63.2" y1="152.0" x2="63.2" y2="186.0" stroke="#D1CFC5" stroke-width="1.5" stroke-linecap="round"/>
<line x1="63.2" y1="177.5" x2="77.6" y2="177.5" stroke="#D1CFC5" stroke-width="1.5" stroke-linecap="round"/>
<line x1="63.2" y1="177.5" x2="63.2" y2="152.0" stroke="#D1CFC5" stroke-width="1.5" stroke-linecap="round"/>
<line x1="68.0" y1="148.3" x2="87.2" y2="148.3" stroke="#D1CFC5" stroke-width="1.5" stroke-linecap="round"/>
<line x1="68.0" y1="182.3" x2="87.2" y2="182.3" stroke="#D1CFC5" stroke-width="1.5" stroke-linecap="round"/>
<line x1="77.6" y1="148.3" x2="96.8" y2="148.3" stroke="#D1CFC5" stroke-width="1.5" stroke-linecap="round"/>
<line x1="77.6" y1="182.3" x2="96.8" y2="182.3" stroke="#D1CFC5" stroke-width="1.5" stroke-linecap="round"/>
<line x1="92.0" y1="109.5" x2="106.4" y2="109.5" stroke="#D1CFC5" stroke-width="1.5" stroke-linecap="round"/>
<line x1="87.2" y1="148.3" x2="106.4" y2="148.3" stroke="#D1CFC5" stroke-width="1.5" stroke-linecap="round"/>
<line x1="92.0" y1="177.5" x2="106.4" y2="177.5" stroke="#D1CFC5" stroke-width="1.5" stroke-linecap="round"/>
<line x1="92.0" y1="177.5" x2="77.6" y2="177.5" stroke="#D1CFC5" stroke-width="1.5" stroke-linecap="round"/>
<line x1="92.0" y1="177.5" x2="92.0" y2="203.0" stroke="#D1CFC5" stroke-width="1.5" stroke-linecap="round"/>
<line x1="92.0" y1="194.5" x2="106.4" y2="194.5" stroke="#D1CFC5" stroke-width="1.5" stroke-linecap="round"/>
<line x1="92.0" y1="194.5" x2="92.0" y2="169.0" stroke="#D1CFC5" stroke-width="1.5" stroke-linecap="round"/>
<line x1="96.8" y1="114.3" x2="116.0" y2="114.3" stroke="#D1CFC5" stroke-width="1.5" stroke-linecap="round"/>
<line x1="96.8" y1="148.3" x2="116.0" y2="148.3" stroke="#D1CFC5" stroke-width="1.5" stroke-linecap="round"/>
<line x1="96.8" y1="182.3" x2="116.0" y2="182.3" stroke="#D1CFC5" stroke-width="1.5" stroke-linecap="round"/>
<line x1="96.8" y1="199.3" x2="116.0" y2="199.3" stroke="#D1CFC5" stroke-width="1.5" stroke-linecap="round"/>
<line x1="106.4" y1="114.3" x2="125.6" y2="114.3" stroke="#D1CFC5" stroke-width="1.5" stroke-linecap="round"/>
<line x1="106.4" y1="148.3" x2="125.6" y2="148.3" stroke="#D1CFC5" stroke-width="1.5" stroke-linecap="round"/>
<line x1="106.4" y1="182.3" x2="125.6" y2="182.3" stroke="#D1CFC5" stroke-width="1.5" stroke-linecap="round"/>
<line x1="106.4" y1="199.3" x2="125.6" y2="199.3" stroke="#D1CFC5" stroke-width="1.5" stroke-linecap="round"/>
<line x1="116.0" y1="114.3" x2="135.2" y2="114.3" stroke="#D1CFC5" stroke-width="1.5" stroke-linecap="round"/>
<line x1="120.8" y1="143.5" x2="106.4" y2="143.5" stroke="#D1CFC5" stroke-width="1.5" stroke-linecap="round"/>
<line x1="120.8" y1="143.5" x2="120.8" y2="169.0" stroke="#D1CFC5" stroke-width="1.5" stroke-linecap="round"/>
<line x1="120.8" y1="152.0" x2="120.8" y2="186.0" stroke="#D1CFC5" stroke-width="1.5" stroke-linecap="round"/>
<line x1="120.8" y1="177.5" x2="106.4" y2="177.5" stroke="#D1CFC5" stroke-width="1.5" stroke-linecap="round"/>
<line x1="120.8" y1="177.5" x2="120.8" y2="152.0" stroke="#D1CFC5" stroke-width="1.5" stroke-linecap="round"/>
<line x1="116.0" y1="199.3" x2="135.2" y2="199.3" stroke="#D1CFC5" stroke-width="1.5" stroke-linecap="round"/>
<line x1="125.6" y1="114.3" x2="144.8" y2="114.3" stroke="#D1CFC5" stroke-width="1.5" stroke-linecap="round"/>
<line x1="125.6" y1="199.3" x2="144.8" y2="199.3" stroke="#D1CFC5" stroke-width="1.5" stroke-linecap="round"/>
<line x1="140.0" y1="58.5" x2="154.4" y2="58.5" stroke="#D1CFC5" stroke-width="1.5" stroke-linecap="round"/>
<line x1="140.0" y1="58.5" x2="140.0" y2="84.0" stroke="#D1CFC5" stroke-width="1.5" stroke-linecap="round"/>
<line x1="140.0" y1="67.0" x2="140.0" y2="101.0" stroke="#D1CFC5" stroke-width="1.5" stroke-linecap="round"/>
<line x1="140.0" y1="92.5" x2="154.4" y2="92.5" stroke="#D1CFC5" stroke-width="1.5" stroke-linecap="round"/>
<line x1="140.0" y1="92.5" x2="140.0" y2="67.0" stroke="#D1CFC5" stroke-width="1.5" stroke-linecap="round"/>
<line x1="135.2" y1="114.3" x2="154.4" y2="114.3" stroke="#D1CFC5" stroke-width="1.5" stroke-linecap="round"/>
<line x1="140.0" y1="143.5" x2="154.4" y2="143.5" stroke="#D1CFC5" stroke-width="1.5" stroke-linecap="round"/>
<line x1="140.0" y1="143.5" x2="140.0" y2="169.0" stroke="#D1CFC5" stroke-width="1.5" stroke-linecap="round"/>
<line x1="140.0" y1="152.0" x2="140.0" y2="186.0" stroke="#D1CFC5" stroke-width="1.5" stroke-linecap="round"/>
<line x1="140.0" y1="177.5" x2="154.4" y2="177.5" stroke="#D1CFC5" stroke-width="1.5" stroke-linecap="round"/>
<line x1="140.0" y1="177.5" x2="140.0" y2="152.0" stroke="#D1CFC5" stroke-width="1.5" stroke-linecap="round"/>
<line x1="135.2" y1="199.3" x2="154.4" y2="199.3" stroke="#D1CFC5" stroke-width="1.5" stroke-linecap="round"/>
<line x1="140.0" y1="228.5" x2="154.4" y2="228.5" stroke="#D1CFC5" stroke-width="1.5" stroke-linecap="round"/>
<line x1="140.0" y1="228.5" x2="140.0" y2="254.0" stroke="#D1CFC5" stroke-width="1.5" stroke-linecap="round"/>
<line x1="140.0" y1="237.0" x2="140.0" y2="271.0" stroke="#D1CFC5" stroke-width="1.5" stroke-linecap="round"/>
<line x1="140.0" y1="262.5" x2="154.4" y2="262.5" stroke="#D1CFC5" stroke-width="1.5" stroke-linecap="round"/>
<line x1="140.0" y1="262.5" x2="140.0" y2="237.0" stroke="#D1CFC5" stroke-width="1.5" stroke-linecap="round"/>
<line x1="144.8" y1="63.3" x2="164.0" y2="63.3" stroke="#D1CFC5" stroke-width="1.5" stroke-linecap="round"/>
<line x1="144.8" y1="97.3" x2="164.0" y2="97.3" stroke="#D1CFC5" stroke-width="1.5" stroke-linecap="round"/>
<line x1="144.8" y1="114.3" x2="164.0" y2="114.3" stroke="#D1CFC5" stroke-width="1.5" stroke-linecap="round"/>
<line x1="144.8" y1="148.3" x2="164.0" y2="148.3" stroke="#D1CFC5" stroke-width="1.5" stroke-linecap="round"/>
<line x1="144.8" y1="182.3" x2="164.0" y2="182.3" stroke="#D1CFC5" stroke-width="1.5" stroke-linecap="round"/>
<line x1="144.8" y1="199.3" x2="164.0" y2="199.3" stroke="#D1CFC5" stroke-width="1.5" stroke-linecap="round"/>
<line x1="144.8" y1="233.3" x2="164.0" y2="233.3" stroke="#D1CFC5" stroke-width="1.5" stroke-linecap="round"/>
<line x1="144.8" y1="267.3" x2="164.0" y2="267.3" stroke="#D1CFC5" stroke-width="1.5" stroke-linecap="round"/>
<line x1="154.4" y1="63.3" x2="173.6" y2="63.3" stroke="#D1CFC5" stroke-width="1.5" stroke-linecap="round"/>
<line x1="154.4" y1="97.3" x2="173.6" y2="97.3" stroke="#D1CFC5" stroke-width="1.5" stroke-linecap="round"/>
<line x1="154.4" y1="114.3" x2="173.6" y2="114.3" stroke="#D1CFC5" stroke-width="1.5" stroke-linecap="round"/>
<line x1="154.4" y1="148.3" x2="173.6" y2="148.3" stroke="#D1CFC5" stroke-width="1.5" stroke-linecap="round"/>
<line x1="154.4" y1="182.3" x2="173.6" y2="182.3" stroke="#D1CFC5" stroke-width="1.5" stroke-linecap="round"/>
<line x1="154.4" y1="199.3" x2="173.6" y2="199.3" stroke="#D1CFC5" stroke-width="1.5" stroke-linecap="round"/>
<line x1="154.4" y1="233.3" x2="173.6" y2="233.3" stroke="#D1CFC5" stroke-width="1.5" stroke-linecap="round"/>
<line x1="154.4" y1="267.3" x2="173.6" y2="267.3" stroke="#D1CFC5" stroke-width="1.5" stroke-linecap="round"/>
<line x1="164.0" y1="63.3" x2="183.2" y2="63.3" stroke="#D1CFC5" stroke-width="1.5" stroke-linecap="round"/>
<line x1="168.8" y1="92.5" x2="183.2" y2="92.5" stroke="#D1CFC5" stroke-width="1.5" stroke-linecap="round"/>
<line x1="168.8" y1="92.5" x2="154.4" y2="92.5" stroke="#D1CFC5" stroke-width="1.5" stroke-linecap="round"/>
<line x1="168.8" y1="92.5" x2="168.8" y2="118.0" stroke="#D1CFC5" stroke-width="1.5" stroke-linecap="round"/>
<line x1="168.8" y1="109.5" x2="183.2" y2="109.5" stroke="#D1CFC5" stroke-width="1.5" stroke-linecap="round"/>
<line x1="168.8" y1="109.5" x2="154.4" y2="109.5" stroke="#D1CFC5" stroke-width="1.5" stroke-linecap="round"/>
<line x1="168.8" y1="109.5" x2="168.8" y2="84.0" stroke="#D1CFC5" stroke-width="1.5" stroke-linecap="round"/>
<line x1="164.0" y1="148.3" x2="183.2" y2="148.3" stroke="#D1CFC5" stroke-width="1.5" stroke-linecap="round"/>
<line x1="168.8" y1="177.5" x2="183.2" y2="177.5" stroke="#D1CFC5" stroke-width="1.5" stroke-linecap="round"/>
<line x1="168.8" y1="177.5" x2="154.4" y2="177.5" stroke="#D1CFC5" stroke-width="1.5" stroke-linecap="round"/>
<line x1="168.8" y1="177.5" x2="168.8" y2="203.0" stroke="#D1CFC5" stroke-width="1.5" stroke-linecap="round"/>
<line x1="168.8" y1="194.5" x2="183.2" y2="194.5" stroke="#D1CFC5" stroke-width="1.5" stroke-linecap="round"/>
<line x1="168.8" y1="194.5" x2="154.4" y2="194.5" stroke="#D1CFC5" stroke-width="1.5" stroke-linecap="round"/>
<line x1="168.8" y1="194.5" x2="168.8" y2="169.0" stroke="#D1CFC5" stroke-width="1.5" stroke-linecap="round"/>
<line x1="164.0" y1="233.3" x2="183.2" y2="233.3" stroke="#D1CFC5" stroke-width="1.5" stroke-linecap="round"/>
<line x1="164.0" y1="267.3" x2="183.2" y2="267.3" stroke="#D1CFC5" stroke-width="1.5" stroke-linecap="round"/>
<line x1="173.6" y1="63.3" x2="192.8" y2="63.3" stroke="#D1CFC5" stroke-width="1.5" stroke-linecap="round"/>
<line x1="173.6" y1="97.3" x2="192.8" y2="97.3" stroke="#D1CFC5" stroke-width="1.5" stroke-linecap="round"/>
<line x1="173.6" y1="114.3" x2="192.8" y2="114.3" stroke="#D1CFC5" stroke-width="1.5" stroke-linecap="round"/>
<line x1="173.6" y1="148.3" x2="192.8" y2="148.3" stroke="#D1CFC5" stroke-width="1.5" stroke-linecap="round"/>
<line x1="173.6" y1="182.3" x2="192.8" y2="182.3" stroke="#D1CFC5" stroke-width="1.5" stroke-linecap="round"/>
<line x1="173.6" y1="199.3" x2="192.8" y2="199.3" stroke="#D1CFC5" stroke-width="1.5" stroke-linecap="round"/>
<line x1="173.6" y1="233.3" x2="192.8" y2="233.3" stroke="#D1CFC5" stroke-width="1.5" stroke-linecap="round"/>
<line x1="173.6" y1="267.3" x2="192.8" y2="267.3" stroke="#D1CFC5" stroke-width="1.5" stroke-linecap="round"/>
<line x1="183.2" y1="63.3" x2="202.4" y2="63.3" stroke="#D1CFC5" stroke-width="1.5" stroke-linecap="round"/>
<line x1="183.2" y1="97.3" x2="202.4" y2="97.3" stroke="#D1CFC5" stroke-width="1.5" stroke-linecap="round"/>
<line x1="183.2" y1="114.3" x2="202.4" y2="114.3" stroke="#D1CFC5" stroke-width="1.5" stroke-linecap="round"/>
<line x1="183.2" y1="148.3" x2="202.4" y2="148.3" stroke="#D1CFC5" stroke-width="1.5" stroke-linecap="round"/>
<line x1="183.2" y1="182.3" x2="202.4" y2="182.3" stroke="#D1CFC5" stroke-width="1.5" stroke-linecap="round"/>
<line x1="183.2" y1="199.3" x2="202.4" y2="199.3" stroke="#D1CFC5" stroke-width="1.5" stroke-linecap="round"/>
<line x1="183.2" y1="233.3" x2="202.4" y2="233.3" stroke="#D1CFC5" stroke-width="1.5" stroke-linecap="round"/>
<line x1="183.2" y1="267.3" x2="202.4" y2="267.3" stroke="#D1CFC5" stroke-width="1.5" stroke-linecap="round"/>
<line x1="197.6" y1="58.5" x2="183.2" y2="58.5" stroke="#D1CFC5" stroke-width="1.5" stroke-linecap="round"/>
<line x1="197.6" y1="58.5" x2="197.6" y2="84.0" stroke="#D1CFC5" stroke-width="1.5" stroke-linecap="round"/>
<line x1="197.6" y1="67.0" x2="197.6" y2="101.0" stroke="#D1CFC5" stroke-width="1.5" stroke-linecap="round"/>
<line x1="197.6" y1="92.5" x2="183.2" y2="92.5" stroke="#D1CFC5" stroke-width="1.5" stroke-linecap="round"/>
<line x1="197.6" y1="92.5" x2="197.6" y2="67.0" stroke="#D1CFC5" stroke-width="1.5" stroke-linecap="round"/>
<line x1="192.8" y1="114.3" x2="212.0" y2="114.3" stroke="#D1CFC5" stroke-width="1.5" stroke-linecap="round"/>
<line x1="197.6" y1="143.5" x2="183.2" y2="143.5" stroke="#D1CFC5" stroke-width="1.5" stroke-linecap="round"/>
<line x1="197.6" y1="143.5" x2="197.6" y2="169.0" stroke="#D1CFC5" stroke-width="1.5" stroke-linecap="round"/>
<line x1="197.6" y1="152.0" x2="197.6" y2="186.0" stroke="#D1CFC5" stroke-width="1.5" stroke-linecap="round"/>
<line x1="197.6" y1="177.5" x2="183.2" y2="177.5" stroke="#D1CFC5" stroke-width="1.5" stroke-linecap="round"/>
<line x1="197.6" y1="177.5" x2="197.6" y2="152.0" stroke="#D1CFC5" stroke-width="1.5" stroke-linecap="round"/>
<line x1="192.8" y1="199.3" x2="212.0" y2="199.3" stroke="#D1CFC5" stroke-width="1.5" stroke-linecap="round"/>
<line x1="197.6" y1="228.5" x2="183.2" y2="228.5" stroke="#D1CFC5" stroke-width="1.5" stroke-linecap="round"/>
<line x1="197.6" y1="228.5" x2="197.6" y2="254.0" stroke="#D1CFC5" stroke-width="1.5" stroke-linecap="round"/>
<line x1="197.6" y1="237.0" x2="197.6" y2="271.0" stroke="#D1CFC5" stroke-width="1.5" stroke-linecap="round"/>
<line x1="197.6" y1="262.5" x2="183.2" y2="262.5" stroke="#D1CFC5" stroke-width="1.5" stroke-linecap="round"/>
<line x1="197.6" y1="262.5" x2="197.6" y2="237.0" stroke="#D1CFC5" stroke-width="1.5" stroke-linecap="round"/>
<line x1="202.4" y1="114.3" x2="221.6" y2="114.3" stroke="#D1CFC5" stroke-width="1.5" stroke-linecap="round"/>
<line x1="202.4" y1="199.3" x2="221.6" y2="199.3" stroke="#D1CFC5" stroke-width="1.5" stroke-linecap="round"/>
<line x1="212.0" y1="114.3" x2="231.2" y2="114.3" stroke="#D1CFC5" stroke-width="1.5" stroke-linecap="round"/>
<line x1="216.8" y1="143.5" x2="231.2" y2="143.5" stroke="#D1CFC5" stroke-width="1.5" stroke-linecap="round"/>
<line x1="216.8" y1="143.5" x2="216.8" y2="169.0" stroke="#D1CFC5" stroke-width="1.5" stroke-linecap="round"/>
<line x1="216.8" y1="152.0" x2="216.8" y2="186.0" stroke="#D1CFC5" stroke-width="1.5" stroke-linecap="round"/>
<line x1="216.8" y1="177.5" x2="231.2" y2="177.5" stroke="#D1CFC5" stroke-width="1.5" stroke-linecap="round"/>
<line x1="216.8" y1="177.5" x2="216.8" y2="152.0" stroke="#D1CFC5" stroke-width="1.5" stroke-linecap="round"/>
<line x1="212.0" y1="199.3" x2="231.2" y2="199.3" stroke="#D1CFC5" stroke-width="1.5" stroke-linecap="round"/>
<line x1="221.6" y1="114.3" x2="240.8" y2="114.3" stroke="#D1CFC5" stroke-width="1.5" stroke-linecap="round"/>
<line x1="221.6" y1="148.3" x2="240.8" y2="148.3" stroke="#D1CFC5" stroke-width="1.5" stroke-linecap="round"/>
<line x1="221.6" y1="182.3" x2="240.8" y2="182.3" stroke="#D1CFC5" stroke-width="1.5" stroke-linecap="round"/>
<line x1="221.6" y1="199.3" x2="240.8" y2="199.3" stroke="#D1CFC5" stroke-width="1.5" stroke-linecap="round"/>
<line x1="231.2" y1="114.3" x2="250.4" y2="114.3" stroke="#D1CFC5" stroke-width="1.5" stroke-linecap="round"/>
<line x1="231.2" y1="148.3" x2="250.4" y2="148.3" stroke="#D1CFC5" stroke-width="1.5" stroke-linecap="round"/>
<line x1="231.2" y1="182.3" x2="250.4" y2="182.3" stroke="#D1CFC5" stroke-width="1.5" stroke-linecap="round"/>
<line x1="231.2" y1="199.3" x2="250.4" y2="199.3" stroke="#D1CFC5" stroke-width="1.5" stroke-linecap="round"/>
<line x1="245.6" y1="109.5" x2="231.2" y2="109.5" stroke="#D1CFC5" stroke-width="1.5" stroke-linecap="round"/>
<line x1="240.8" y1="148.3" x2="260.0" y2="148.3" stroke="#D1CFC5" stroke-width="1.5" stroke-linecap="round"/>
<line x1="245.6" y1="177.5" x2="260.0" y2="177.5" stroke="#D1CFC5" stroke-width="1.5" stroke-linecap="round"/>
<line x1="245.6" y1="177.5" x2="231.2" y2="177.5" stroke="#D1CFC5" stroke-width="1.5" stroke-linecap="round"/>
<line x1="245.6" y1="177.5" x2="245.6" y2="203.0" stroke="#D1CFC5" stroke-width="1.5" stroke-linecap="round"/>
<line x1="245.6" y1="194.5" x2="231.2" y2="194.5" stroke="#D1CFC5" stroke-width="1.5" stroke-linecap="round"/>
<line x1="245.6" y1="194.5" x2="245.6" y2="169.0" stroke="#D1CFC5" stroke-width="1.5" stroke-linecap="round"/>
<line x1="250.4" y1="148.3" x2="269.6" y2="148.3" stroke="#D1CFC5" stroke-width="1.5" stroke-linecap="round"/>
<line x1="250.4" y1="182.3" x2="269.6" y2="182.3" stroke="#D1CFC5" stroke-width="1.5" stroke-linecap="round"/>
<line x1="260.0" y1="148.3" x2="279.2" y2="148.3" stroke="#D1CFC5" stroke-width="1.5" stroke-linecap="round"/>
<line x1="260.0" y1="182.3" x2="279.2" y2="182.3" stroke="#D1CFC5" stroke-width="1.5" stroke-linecap="round"/>
<line x1="274.4" y1="143.5" x2="260.0" y2="143.5" stroke="#D1CFC5" stroke-width="1.5" stroke-linecap="round"/>
<line x1="274.4" y1="143.5" x2="274.4" y2="169.0" stroke="#D1CFC5" stroke-width="1.5" stroke-linecap="round"/>
<line x1="274.4" y1="152.0" x2="274.4" y2="186.0" stroke="#D1CFC5" stroke-width="1.5" stroke-linecap="round"/>
<line x1="274.4" y1="177.5" x2="260.0" y2="177.5" stroke="#D1CFC5" stroke-width="1.5" stroke-linecap="round"/>
<line x1="274.4" y1="177.5" x2="274.4" y2="152.0" stroke="#D1CFC5" stroke-width="1.5" stroke-linecap="round"/>
  </g>
  <g>
    <text x="92.0" y="131.3" text-anchor="middle" font-size="14px" fill="#D97757" font-weight="bold">↓</text>
<text x="168.8" y="131.3" text-anchor="middle" font-size="14px" fill="#D97757" font-weight="bold">↓</text>
<text x="168.8" y="216.3" text-anchor="middle" font-size="14px" fill="#D97757" font-weight="bold">↓</text>
<text x="216.8" y="80.3" text-anchor="middle" font-size="14px" fill="#D97757" font-weight="bold">←</text>
<text x="216.8" y="250.3" text-anchor="middle" font-size="14px" fill="#D97757" font-weight="bold">←</text>
<text x="245.6" y="131.3" text-anchor="middle" font-size="14px" fill="#D97757" font-weight="bold">↓</text>
<text x="293.6" y="165.3" text-anchor="middle" font-size="14px" fill="#D97757" font-weight="bold">←</text>
<text x="24.8" y="284.3" font-size="13px" fill="#141413">`</text>
<text x="34.4" y="284.3" font-size="13px" fill="#141413">`</text>
<text x="44.0" y="284.3" font-size="13px" fill="#141413">`</text>
<text x="82.4" y="165.3" font-size="13px" fill="#141413">A</text>
<text x="92.0" y="165.3" font-size="13px" fill="#141413">-</text>
<text x="101.6" y="165.3" font-size="13px" fill="#141413">1</text>
<text x="149.6" y="80.3" font-size="13px" fill="#141413">H</text>
<text x="149.6" y="250.3" font-size="13px" fill="#141413">H</text>
<text x="159.2" y="80.3" font-size="13px" fill="#141413">u</text>
<text x="159.2" y="165.3" font-size="13px" fill="#141413">A</text>
<text x="159.2" y="250.3" font-size="13px" fill="#141413">u</text>
<text x="168.8" y="80.3" font-size="13px" fill="#141413">b</text>
<text x="168.8" y="165.3" font-size="13px" fill="#141413">-</text>
<text x="168.8" y="250.3" font-size="13px" fill="#141413">b</text>
<text x="178.4" y="165.3" font-size="13px" fill="#141413">2</text>
<text x="188.0" y="80.3" font-size="13px" fill="#141413">A</text>
<text x="188.0" y="250.3" font-size="13px" fill="#141413">B</text>
<text x="236.0" y="80.3" font-size="13px" fill="#141413">知</text>
<text x="236.0" y="165.3" font-size="13px" fill="#141413">A</text>
<text x="236.0" y="250.3" font-size="13px" fill="#141413">另</text>
<text x="245.6" y="80.3" font-size="13px" fill="#141413">识</text>
<text x="245.6" y="165.3" font-size="13px" fill="#141413">-</text>
<text x="245.6" y="250.3" font-size="13px" fill="#141413">一</text>
<text x="255.2" y="80.3" font-size="13px" fill="#141413">汇</text>
<text x="255.2" y="165.3" font-size="13px" fill="#141413">3</text>
<text x="255.2" y="250.3" font-size="13px" fill="#141413">个</text>
<text x="264.8" y="80.3" font-size="13px" fill="#141413">聚</text>
<text x="264.8" y="250.3" font-size="13px" fill="#141413">知</text>
<text x="274.4" y="80.3" font-size="13px" fill="#141413">中</text>
<text x="274.4" y="250.3" font-size="13px" fill="#141413">识</text>
<text x="284.0" y="80.3" font-size="13px" fill="#141413">心</text>
<text x="284.0" y="250.3" font-size="13px" fill="#141413">中</text>
<text x="293.6" y="250.3" font-size="13px" fill="#141413">心</text>
<text x="312.8" y="165.3" font-size="13px" fill="#141413">专</text>
<text x="322.4" y="165.3" font-size="13px" fill="#141413">业</text>
<text x="332.0" y="165.3" font-size="13px" fill="#141413">领</text>
<text x="341.6" y="165.3" font-size="13px" fill="#141413">域</text>
<text x="360.8" y="165.3" font-size="13px" fill="#141413">A</text>
<text x="370.4" y="165.3" font-size="13px" fill="#141413">g</text>
<text x="380.0" y="165.3" font-size="13px" fill="#141413">e</text>
<text x="389.6" y="165.3" font-size="13px" fill="#141413">n</text>
<text x="399.2" y="165.3" font-size="13px" fill="#141413">t</text>
  </g>
</svg>