<svg xmlns="http://www.w3.org/2000/svg" font-family="ui-serif, Georgia, serif" viewBox="0 0 560 180">
  <path fill="#faf9f5" d="M0 0h560v180H0z"/>
  <text x="280" y="18" fill="#141413" font-size="12" font-weight="500" letter-spacing="-.02em" text-anchor="middle">CEO Agent 分层管理模式</text>
  <text x="280" y="32" fill="#87867f" font-family="ui-monospace, monospace" font-size="9" text-anchor="middle">postcodeengineering.com · 2026/03/15</text>
  <rect width="200" height="42" x="180" y="46" fill="#fff" stroke="#d97757" stroke-width="2" rx="6"/>
  <rect width="200" height="18" x="180" y="46" fill="#fef3c7" stroke="#d97757" rx="6"/>
  <text x="280" y="60" fill="#d97757" font-family="ui-monospace, monospace" font-size="10" font-weight="600" text-anchor="middle">CEO Agent</text>
  <text x="280" y="76" fill="#87867f" font-size="9" text-anchor="middle">战略决策 · 资源分配</text>
  <rect width="14" height="14" x="372" y="54" fill="#d97757" rx="7"/>
  <text x="379" y="65" fill="#fff" font-family="ui-monospace, monospace" font-size="7" text-anchor="middle">C</text>
  <path stroke="#d1cfc5" stroke-width="1.5" d="m280 88-170 24m170-24v24m0-24 170 24"/>
  <rect width="130" height="50" x="40" y="112" fill="#fff" stroke="#2563eb" stroke-width="1.5" rx="5"/>
  <rect width="130" height="16" x="40" y="112" fill="#dbeafe" stroke="#2563eb" rx="5"/>
  <text x="105" y="126" fill="#2563eb" font-family="ui-monospace, monospace" font-size="10" font-weight="600" text-anchor="middle">Eng Agent</text>
  <text x="105" y="142" fill="#141413" font-size="8.5" text-anchor="middle">工程部门</text>
  <text x="105" y="155" fill="#87867f" font-size="8" text-anchor="middle">Sub-Agents ×N</text>
  <rect width="14" height="14" x="162" y="126" fill="#2563eb" rx="7"/>
  <text x="169" y="137" fill="#fff" font-family="ui-monospace, monospace" font-size="7" text-anchor="middle">E</text>
  <rect width="130" height="50" x="215" y="112" fill="#fff" stroke="#ea580c" stroke-width="1.5" rx="5"/>
  <rect width="130" height="16" x="215" y="112" fill="#fed7aa" stroke="#ea580c" rx="5"/>
  <text x="280" y="126" fill="#ea580c" font-family="ui-monospace, monospace" font-size="10" font-weight="600" text-anchor="middle">Biz Agent</text>
  <text x="280" y="142" fill="#141413" font-size="8.5" text-anchor="middle">商业部门</text>
  <text x="280" y="155" fill="#87867f" font-size="8" text-anchor="middle">Sub-Agents ×N</text>
  <rect width="14" height="14" x="337" y="126" fill="#ea580c" rx="7"/>
  <text x="344" y="137" fill="#fff" font-family="ui-monospace, monospace" font-size="7" text-anchor="middle">B</text>
  <rect width="130" height="50" x="390" y="112" fill="#fff" stroke="#059669" stroke-width="1.5" rx="5"/>
  <rect width="130" height="16" x="390" y="112" fill="#d1fae5" stroke="#059669" rx="5"/>
  <text x="455" y="126" fill="#059669" font-family="ui-monospace, monospace" font-size="10" font-weight="600" text-anchor="middle">HR Agent</text>
  <text x="455" y="142" fill="#141413" font-size="8.5" text-anchor="middle">人力部门</text>
  <text x="455" y="155" fill="#87867f" font-size="8" text-anchor="middle">Sub-Agents ×N</text>
  <rect width="14" height="14" x="512" y="126" fill="#059669" rx="7"/>
  <text x="519" y="137" fill="#fff" font-family="ui-monospace, monospace" font-size="7" text-anchor="middle">H</text>
</svg>
