<svg xmlns="http://www.w3.org/2000/svg" font-family="ui-serif, Georgia, serif" viewBox="0 0 560 200"><path fill="#faf9f5" d="M0 0h560v200H0z"/><text x="280" y="20" fill="#141413" font-size="13" font-weight="500" letter-spacing="-.02em" text-anchor="middle">AI 能力组合三层架构</text><text x="280" y="36" fill="#87867f" font-family="ui-monospace, monospace" font-size="9.5" text-anchor="middle">postcodeengineering.com · 2026/03/15</text><rect width="480" height="52" x="40" y="50" fill="#fff" stroke="#d97757" stroke-width="1.8" rx="6"/><rect width="480" height="18" x="40" y="50" fill="#fef3c7" stroke="#d97757" rx="6"/><text x="60" y="65" fill="#d97757" font-family="ui-monospace, monospace" font-size="10" font-weight="600">L3 · 能力组合</text><text x="200" y="65" fill="#141413" font-size="12" font-weight="600">Capability Composition</text><text x="60" y="84" fill="#141413" font-size="10.5">思考、推理、规划、反思等认知能力的组合</text><rect width="18" height="18" x="490" y="60" fill="#d97757" rx="9"/><text x="499" y="73" fill="#fff" font-family="ui-monospace, monospace" font-size="9" text-anchor="middle">L3</text><path stroke="#d1cfc5" stroke-width="1.5" d="M280 102v10"/><path fill="#d1cfc5" d="m276 112 4 8 4-18z"/><rect width="480" height="38" x="40" y="120" fill="#fff" stroke="#2563eb" stroke-width="1.5" rx="6"/><rect width="480" height="18" x="40" y="120" fill="#dbeafe" stroke="#2563eb" rx="6"/><text x="60" y="135" fill="#2563eb" font-family="ui-monospace, monospace" font-size="10" font-weight="600">L2 · 行为组合</text><text x="200" y="135" fill="#141413" font-size="12" font-weight="600">Behavior Composition</text><text x="60" y="152" fill="#87867f" font-size="10">工具使用、API 调用、数据处理的组合</text><rect width="18" height="14" x="490" y="130" fill="#2563eb" rx="9"/><text x="499" y="141" fill="#fff" font-family="ui-monospace, monospace" font-size="8" text-anchor="middle">L2</text><path stroke="#d1cfc5" stroke-width="1.5" d="M280 158v10"/><path fill="#d1cfc5" d="m276 168 4 8 4-18z"/><rect width="480" height="18" x="40" y="176" fill="#d1fae5" stroke="#059669" stroke-width="1.5" rx="5"/><text x="60" y="188" fill="#059669" font-family="ui-monospace, monospace" font-size="10" font-weight="600">L1 · 记忆组合</text><text x="200" y="188" fill="#141413" font-size="12" font-weight="600">Memory Composition</text><text x="400" y="188" fill="#87867f" font-size="10">短期记忆 · 长期记忆 · 知识图谱</text><text x="280" y="200" fill="#87867f" font-size="9" font-style="italic" text-anchor="middle">L3 → L2 → L1：上层能力依赖下层组合，高层组合调用低层组合</text></svg>