<svg xmlns="http://www.w3.org/2000/svg" font-family="ui-serif, Georgia, serif" viewBox="0 0 720 380"><title>知识传染 vs 知识阻断</title><desc>知识传染模型对比图：正常情况下知识从专家传播到团队成员；AI时代知识传播链断裂</desc><path fill="#faf9f5" d="M0 0h720v380H0z"/><text x="360" y="28" fill="#141413" font-size="15" font-weight="500" text-anchor="middle">知识传染 vs 知识阻断</text><text x="360" y="46" fill="#87867f" font-family="ui-monospace, monospace" font-size="10" text-anchor="middle">知识孤岛指数 (KII) · 2026/03/12</text><path stroke="#d1cfc5" stroke-dasharray="6,4" d="M360 70v270"/><text x="180" y="75" fill="#788c5d" font-size="12" font-weight="600" text-anchor="middle">正常情况：知识传染</text><rect width="140" height="52" x="110" y="95" fill="#fff" stroke="#788c5d" stroke-width="1.8" rx="10"/><text x="180" y="117" fill="#141413" font-size="12" font-weight="600" text-anchor="middle">Domain Expert</text><text x="180" y="134" fill="#87867f" font-size="10" text-anchor="middle">知识源头</text><rect width="100" height="44" x="30" y="185" fill="#fff" stroke="#788c5d" stroke-width="1.5" rx="8"/><text x="80" y="203" fill="#141413" font-size="11" text-anchor="middle">Team Member A</text><text x="80" y="218" fill="#87867f" font-size="9" text-anchor="middle">code review</text><rect width="100" height="44" x="155" y="185" fill="#fff" stroke="#788c5d" stroke-width="1.5" rx="8"/><text x="205" y="203" fill="#141413" font-size="11" text-anchor="middle">Team Member B</text><text x="205" y="218" fill="#87867f" font-size="9" text-anchor="middle">documentation</text><rect width="100" height="44" x="30" y="255" fill="#fff" stroke="#788c5d" stroke-width="1.5" rx="8"/><text x="80" y="273" fill="#141413" font-size="11" text-anchor="middle">Team Member C</text><text x="80" y="288" fill="#87867f" font-size="9" text-anchor="middle">discussion</text><rect width="100" height="44" x="155" y="255" fill="#fff" stroke="#788c5d" stroke-width="1.5" rx="8"/><text x="205" y="273" fill="#141413" font-size="11" text-anchor="middle">Team Member D</text><text x="205" y="288" fill="#87867f" font-size="9" text-anchor="middle">walkthrough</text><path stroke="#788c5d" stroke-width="1.2" marker-end="url(#arrowOlive)" d="m130 147-65 36"/><path stroke="#788c5d" stroke-width="1.2" marker-end="url(#arrowOlive)" d="M180 147v36"/><path stroke="#788c5d" stroke-width="1.2" marker-end="url(#arrowOlive)" d="m230 147-10 36"/><path stroke="#788c5d" stroke-width="1.2" marker-end="url(#arrowOlive)" d="M130 147 65 253"/><path stroke="#788c5d" stroke-width="1.2" marker-end="url(#arrowOlive)" d="m230 147-10 106"/><text x="180" y="325" fill="#788c5d" font-size="10" font-weight="600" text-anchor="middle">KII &lt; 0.3 · 知识持续传播</text><text x="540" y="75" fill="#d97757" font-size="12" font-weight="600" text-anchor="middle">AI时代：知识阻断</text><rect width="140" height="52" x="440" y="95" fill="#fff" stroke="#d97757" stroke-width="1.8" rx="10"/><text x="510" y="117" fill="#141413" font-size="12" font-weight="600" text-anchor="middle">AI Agent</text><text x="510" y="134" fill="#d97757" font-size="10" text-anchor="middle">生成代码 · 无解释</text><rect width="100" height="44" x="360" y="185" fill="#fff" stroke="#d97757" stroke-width="1.5" rx="8"/><text x="410" y="203" fill="#141413" font-size="11" text-anchor="middle">Team Member A</text><text x="410" y="218" fill="#d97757" font-size="9" text-anchor="middle">? 无传递</text><rect width="100" height="44" x="485" y="185" fill="#fff" stroke="#d97757" stroke-width="1.5" rx="8"/><text x="535" y="203" fill="#141413" font-size="11" text-anchor="middle">Team Member B</text><text x="535" y="218" fill="#d97757" font-size="9" text-anchor="middle">? 无传递</text><rect width="100" height="44" x="360" y="255" fill="#fff" stroke="#d97757" stroke-width="1.5" rx="8"/><text x="410" y="273" fill="#141413" font-size="11" text-anchor="middle">Team Member C</text><text x="410" y="288" fill="#d97757" font-size="9" text-anchor="middle">? 无传递</text><rect width="100" height="44" x="485" y="255" fill="#fff" stroke="#d97757" stroke-width="1.5" rx="8"/><text x="535" y="273" fill="#141413" font-size="11" text-anchor="middle">Team Member D</text><text x="535" y="288" fill="#d97757" font-size="9" text-anchor="middle">? 无传递</text><path stroke="#d97757" stroke-dasharray="4,3" marker-end="url(#arrowClayQ)" d="m450 147-70 36"/><path stroke="#d97757" stroke-dasharray="4,3" marker-end="url(#arrowClayQ)" d="M510 147v36"/><path stroke="#d97757" stroke-dasharray="4,3" marker-end="url(#arrowClayQ)" d="m570 147-20 36"/><path stroke="#d97757" stroke-dasharray="4,3" marker-end="url(#arrowClayQ)" d="m450 147-70 106"/><path stroke="#d97757" stroke-dasharray="4,3" marker-end="url(#arrowClayQ)" d="m570 147-20 106"/><text x="540" y="325" fill="#d97757" font-size="10" font-weight="600" text-anchor="middle">KII &gt; 0.6 · 知识链断裂</text><defs><marker id="arrowOlive" markerHeight="7" markerWidth="7" orient="auto" refX="6" refY="3"><path fill="#788c5d" d="M0 0v6l6-3z"/></marker><marker id="arrowClayQ" markerHeight="7" markerWidth="7" orient="auto" refX="6" refY="3"><path fill="#d97757" d="M0 0v6l6-3z"/></marker></defs></svg>