<svg xmlns="http://www.w3.org/2000/svg" font-family="'JetBrains Mono', 'Fira Code', 'SF Mono', monospace" viewBox="0 0 800 420">
  <defs>
    <style>
      .text-xs{fill:#87867f;font-size:10px}.text-label{fill:#141413;font-size:12px;font-weight:600}.border{stroke:#d1cfc5;stroke-width:1.5}.fill-detector{fill:#fef3c7;stroke:#d97757}.fill-matrix{fill:#dbeafe;stroke:#2563eb;stroke-width:2}.fill-strategy{fill:#d1fae5;stroke:#059669;stroke-width:2}.fill-white{fill:#fff}
    </style>
  </defs>
  <path d="M0 0h800v420H0z" style="fill:#faf9f5"/>
  <text x="400" y="28" font-weight="700" style="fill:#141413;font-size:13px" text-anchor="middle">智能回滚决策引擎架构</text>
  <rect width="720" height="350" x="40" y="50" fill="none" stroke="#d1cfc5" stroke-width="2" class="border" rx="12"/>
  <text x="60" y="70" class="text-label">智能回滚决策引擎</text>
  <rect width="660" height="70" x="70" y="85" class="fill-detector" rx="8"/>
  <text x="90" y="105" fill="#d97757" class="text-label">异常检测器</text>
  <rect width="135" height="30" x="90" y="115" class="fill-white border" rx="5"/>
  <text x="157" y="134" class="text-xs" text-anchor="middle">技术指标异常</text>
  <rect width="135" height="30" x="240" y="115" class="fill-white border" rx="5"/>
  <text x="307" y="134" class="text-xs" text-anchor="middle">业务指标异常</text>
  <rect width="135" height="30" x="390" y="115" class="fill-white border" rx="5"/>
  <text x="457" y="134" class="text-xs" text-anchor="middle">模型漂移检测</text>
  <rect width="135" height="30" x="540" y="115" class="fill-white border" rx="5"/>
  <text x="607" y="134" class="text-xs" text-anchor="middle">预测性故障检测</text>
  <path stroke-width="2" d="M400 155v23" class="border"/>
  <path fill="#141413" d="m400 178-5-8h10z"/>
  <rect width="300" height="70" x="70" y="178" rx="8" style="fill:#fef3c7;stroke:#d97757"/>
  <text x="90" y="198" fill="#d97757" class="text-label">影响评估器</text>
  <rect width="135" height="30" x="90" y="208" class="fill-white border" rx="5"/>
  <text x="157" y="227" class="text-xs" text-anchor="middle">用户体验影响</text>
  <rect width="115" height="30" x="240" y="208" class="fill-white border" rx="5"/>
  <text x="297" y="227" class="text-xs" text-anchor="middle">数据一致性</text>
  <path d="M300 213h50" class="border"/>
  <path fill="#141413" d="m350 213-8-5v10z"/>
  <rect width="300" height="70" x="430" y="178" rx="8" style="fill:#fef3c7;stroke:#d97757"/>
  <text x="450" y="198" fill="#d97757" class="text-label">决策生成器</text>
  <rect width="135" height="30" x="450" y="208" class="fill-white border" rx="5"/>
  <text x="517" y="227" class="text-xs" text-anchor="middle">策略推荐</text>
  <rect width="115" height="30" x="600" y="208" class="fill-white border" rx="5"/>
  <text x="657" y="227" class="text-xs" text-anchor="middle">置信度评分</text>
  <path d="M450 213h-50" class="border"/>
  <path fill="#141413" d="m400 213 8-5v10z"/>
  <path d="M340 248h60m60 0h-60m0 0v10" class="border"/>
  <path fill="#141413" d="m400 258-5-8h10z"/>
  <rect width="400" height="65" x="200" y="258" class="fill-matrix" rx="10"/>
  <text x="400" y="278" class="text-label" font-size="13" text-anchor="middle">回滚决策矩阵</text>
  <rect width="85" height="26" x="220" y="288" class="fill-white border" rx="4"/>
  <text x="262" y="305" class="text-xs" text-anchor="middle">立即回滚</text>
  <rect width="85" height="26" x="315" y="288" class="fill-white border" rx="4"/>
  <text x="357" y="305" class="text-xs" text-anchor="middle">渐进回滚</text>
  <rect width="85" height="26" x="410" y="288" class="fill-white border" rx="4"/>
  <text x="452" y="305" class="text-xs" text-anchor="middle">区域回滚</text>
  <rect width="85" height="26" x="505" y="288" class="fill-white border" rx="4"/>
  <text x="547" y="305" class="text-xs" text-anchor="middle">功能降级</text>
  <path stroke-width="2" d="M400 323v17" class="border"/>
  <path fill="#141413" d="m400 340-5-8h10z"/>
  <rect width="600" height="50" x="100" y="340" class="fill-strategy" rx="10"/>
  <text x="400" y="358" fill="#059669" class="text-label" font-size="13" text-anchor="middle">执行策略</text>
  <rect width="120" height="20" x="125" y="366" class="fill-white border" rx="4"/>
  <text x="185" y="380" class="text-xs" text-anchor="middle">Shadow Warmup</text>
  <rect width="120" height="20" x="260" y="366" class="fill-white border" rx="4"/>
  <text x="320" y="380" class="text-xs" text-anchor="middle">渐进流量迁移</text>
  <rect width="120" height="20" x="395" y="366" class="fill-white border" rx="4"/>
  <text x="455" y="380" class="text-xs" text-anchor="middle">状态格式兼容</text>
  <rect width="120" height="20" x="530" y="366" class="fill-white border" rx="4"/>
  <text x="590" y="380" class="text-xs" text-anchor="middle">健康检查通过后</text>
  <rect width="140" height="130" x="620" y="55" fill="none" class="border" rx="8"/>
  <text x="690" y="73" class="text-label" text-anchor="middle">图例</text>
  <rect width="12" height="12" x="634" y="84" class="fill-detector" rx="2"/>
  <text x="652" y="95" class="text-xs">异常检测组件</text>
  <rect width="12" height="12" x="634" y="102" class="fill-matrix" rx="2"/>
  <text x="652" y="113" class="text-xs">决策矩阵（核心）</text>
  <rect width="12" height="12" x="634" y="120" class="fill-strategy" rx="2"/>
  <text x="652" y="131" class="text-xs">执行策略层</text>
  <path stroke-width="1.5" d="M634 148h86" class="border"/>
  <path fill="#141413" d="m720 148-8-5v10z"/>
  <text x="652" y="160" class="text-xs">决策流向</text>
</svg>
