<svg xmlns="http://www.w3.org/2000/svg" font-family="ui-serif, Georgia, serif" viewBox="0 0 680 420">
  <path fill="#faf9f5" d="M0 0h680v420H0z"/>
  <text x="340" y="28" fill="#141413" font-size="14" font-weight="500" letter-spacing="-.02em" text-anchor="middle">GitHub 三层AI战略</text>
  <text x="340" y="44" fill="#87867f" font-family="ui-monospace, monospace" font-size="10" text-anchor="middle">Copilot → Workspace → Agent 演进路径</text>
  <rect width="600" height="88" x="40" y="62" fill="#fff" stroke="#d97757" stroke-width="1.5" rx="8"/>
  <rect width="70" height="22" x="56" y="78" fill="#d97757" rx="11"/>
  <text x="91" y="94" fill="#fff" font-family="ui-monospace, monospace" font-size="11" font-weight="600" text-anchor="middle">Copilot</text>
  <text x="140" y="94" fill="#141413" font-size="12">AI辅助编程</text>
  <text x="56" y="120" fill="#87867f" font-size="10.5">代码补全 · 注释生成 · 测试生成</text>
  <rect width="126" height="22" x="500" y="78" fill="#788c5d" rx="11"/>
  <text x="563" y="94" fill="#fff" font-family="ui-monospace, monospace" font-size="10" text-anchor="middle">已成熟</text>
  <path stroke="#d1cfc5" stroke-width="2" d="M340 150v16"/>
  <path fill="#d1cfc5" d="m340 170-6-10h12z"/>
  <text x="356" y="164" fill="#87867f" font-family="ui-monospace, monospace" font-size="9">推进中</text>
  <rect width="600" height="88" x="40" y="174" fill="#fff" stroke="#d1cfc5" stroke-width="1.5" rx="8"/>
  <rect width="82" height="22" x="56" y="190" fill="#d97757" rx="11"/>
  <text x="97" y="206" fill="#fff" font-family="ui-monospace, monospace" font-size="11" font-weight="600" text-anchor="middle">Workspace</text>
  <text x="152" y="206" fill="#141413" font-size="12">平台原生AI开发环境</text>
  <text x="56" y="232" fill="#87867f" font-size="10.5">自然语言Issue · 自动PR生成 · 智能Code Review</text>
  <rect width="126" height="22" x="500" y="190" fill="#e3dacc" stroke="#d97757" stroke-width="1.5" rx="11"/>
  <text x="563" y="206" fill="#d97757" font-family="ui-monospace, monospace" font-size="10" text-anchor="middle">推进中</text>
  <path stroke="#d1cfc5" stroke-width="2" d="M340 262v16"/>
  <path fill="#d1cfc5" d="m340 282-6-10h12z"/>
  <text x="356" y="276" fill="#87867f" font-family="ui-monospace, monospace" font-size="9">未来形态</text>
  <rect width="600" height="88" x="40" y="286" fill="#fff" stroke="#d1cfc5" stroke-width="1.5" rx="8"/>
  <rect width="60" height="22" x="56" y="302" fill="#d97757" rx="11"/>
  <text x="86" y="318" fill="#fff" font-family="ui-monospace, monospace" font-size="11" font-weight="600" text-anchor="middle">Agent</text>
  <text x="130" y="318" fill="#141413" font-size="12">自主开发Agent</text>
  <text x="56" y="344" fill="#87867f" font-size="10.5">Issue-to-PR · Code Review · Architecture Agent</text>
  <rect width="126" height="22" x="500" y="302" fill="#f0eee6" stroke="#d1cfc5" stroke-width="1.5" rx="11"/>
  <text x="563" y="318" fill="#87867f" font-family="ui-monospace, monospace" font-size="10" text-anchor="middle">规划中</text>
  <text x="340" y="400" fill="#87867f" font-family="ui-monospace, monospace" font-size="9" text-anchor="middle">github.com/AI-strategy · 2026</text>
</svg>
