<svg xmlns="http://www.w3.org/2000/svg" font-family="ui-serif, Georgia, 'Times New Roman', serif" viewBox="0 0 680 360">
  <path fill="#faf9f5" d="M0 0h680v360H0z"/>
  <text x="340" y="28" fill="#141413" font-size="14" font-weight="500" letter-spacing="-.02em" text-anchor="middle">从代码优先到意图优先：编程范式的转移</text>
  <text x="340" y="44" fill="#87867f" font-family="ui-monospace, monospace" font-size="10" text-anchor="middle">后代码时代 · 2026/03/14</text>
  <rect width="560" height="80" x="60" y="70" fill="#fff" stroke="#d97757" stroke-width="2" rx="8"/>
  <rect width="560" height="24" x="60" y="70" fill="#d97757" rx="8"/>
  <path fill="#d97757" d="M60 86h560v8H60z"/>
  <text x="80" y="87" fill="#fff" font-family="ui-monospace, monospace" font-size="11" font-weight="600">Intent Layer · 意图层</text>
  <text x="80" y="108" fill="#141413" font-size="13">自然语言描述需求</text>
  <text x="80" y="126" fill="#87867f" font-size="11">&quot;在页面上显示用户最近 5 个订单&quot;</text>
  <ellipse cx="540" cy="115" fill="#d97757" opacity=".15" rx="60" ry="28"/>
  <text x="540" y="112" fill="#d97757" font-family="ui-monospace, monospace" font-size="10" text-anchor="middle">意图</text>
  <text x="540" y="126" fill="#d97757" font-family="ui-monospace, monospace" font-size="10" text-anchor="middle">Intent</text>
  <path stroke="#d97757" stroke-width="2" d="M340 150v20"/>
  <path fill="#d97757" d="m340 174-6-10h12z"/>
  <text x="356" y="165" fill="#d97757" font-family="ui-monospace, monospace" font-size="10">AI 翻译</text>
  <rect width="560" height="80" x="60" y="178" fill="#fff" stroke="#788c5d" stroke-width="1.8" rx="8"/>
  <rect width="560" height="24" x="60" y="178" fill="#788c5d" rx="8"/>
  <path fill="#788c5d" d="M60 194h560v8H60z"/>
  <text x="80" y="195" fill="#fff" font-family="ui-monospace, monospace" font-size="11" font-weight="600">Abstraction Layer · 抽象层</text>
  <text x="80" y="216" fill="#141413" font-size="13">DSL / 框架 / 中间代码</text>
  <text x="80" y="234" fill="#87867f" font-size="11">信息损耗 · 翻译成本</text>
  <rect width="90" height="44" x="500" y="195" fill="#788c5d" opacity=".1" rx="6"/>
  <text x="545" y="215" fill="#788c5d" font-family="ui-monospace, monospace" font-size="9" text-anchor="middle">信息</text>
  <text x="545" y="229" fill="#788c5d" font-family="ui-monospace, monospace" font-size="9" text-anchor="middle">损耗</text>
  <path stroke="#788c5d" stroke-width="1.8" d="M340 258v20"/>
  <path fill="#788c5d" d="m340 282-6-10h12z"/>
  <text x="356" y="273" fill="#788c5d" font-family="ui-monospace, monospace" font-size="10">编译/解释</text>
  <rect width="560" height="60" x="60" y="286" fill="#fff" stroke="#d1cfc5" stroke-width="1.5" rx="8"/>
  <text x="80" y="308" fill="#87867f" font-family="ui-monospace, monospace" font-size="11" font-weight="600">Code Layer · 代码层</text>
  <text x="200" y="308" fill="#141413" font-size="13">机器码 / 字节码 / 语法树</text>
  <text x="80" y="328" fill="#87867f" font-size="10">语法 · 编译 · 机器执行</text>
  <path fill="none" stroke="#d1cfc5" stroke-dasharray="4,4" d="M620 90v240"/>
  <text x="628" y="200" fill="#87867f" font-family="ui-monospace, monospace" font-size="9">传统</text>
  <text x="628" y="212" fill="#87867f" font-family="ui-monospace, monospace" font-size="9">路径</text>
  <text x="628" y="224" fill="#87867f" font-family="ui-monospace, monospace" font-size="9">需学</text>
  <text x="628" y="236" fill="#87867f" font-family="ui-monospace, monospace" font-size="9">习</text>
  <path fill="none" stroke="#d97757" stroke-width="1.5" d="M40 90v240"/>
  <text x="28" y="200" fill="#d97757" font-family="ui-monospace, monospace" font-size="9">意图</text>
  <text x="28" y="212" fill="#d97757" font-family="ui-monospace, monospace" font-size="9">优先</text>
  <text x="28" y="224" fill="#d97757" font-family="ui-monospace, monospace" font-size="9">路径</text>
  <rect width="320" height="14" x="180" y="344" fill="#d97757" opacity=".1" rx="4"/>
  <text x="340" y="354" fill="#d97757" font-family="ui-serif, Georgia, serif" font-size="10" text-anchor="middle">意图 → 验证 → 解决真正的问题</text>
</svg>
