<svg xmlns="http://www.w3.org/2000/svg" viewBox="0 0 900 500">
  <defs>
    <linearGradient id="bg3" x1="0" x2="1" y1="0" y2="1">
      <stop offset="0%" stop-color="#faf9f5"/>
      <stop offset="100%" stop-color="#e3dacc"/>
    </linearGradient>
    <linearGradient id="ess-grad" x1="0" x2="0" y1="0" y2="1">
      <stop offset="0%" stop-color="#d97757"/>
      <stop offset="100%" stop-color="#b05540"/>
    </linearGradient>
    <linearGradient id="acc-grad" x1="0" x2="0" y1="0" y2="1">
      <stop offset="0%" stop-color="#788c5d"/>
      <stop offset="100%" stop-color="#5f7249"/>
    </linearGradient>
    <linearGradient id="cog-grad" x1="0" x2="0" y1="0" y2="1">
      <stop offset="0%" stop-color="#87867f"/>
      <stop offset="100%" stop-color="#6a675f"/>
    </linearGradient>
    <filter id="shadow3" width="110%" height="110%" x="-5%" y="-5%">
      <feDropShadow dx="0" dy="3" flood-color="#141413" flood-opacity=".1" stdDeviation="6"/>
    </filter>
  </defs>
  <rect width="900" height="500" fill="url(#bg3)" rx="16"/>
  <text x="450" y="42" fill="#141413" font-family="system-ui,-apple-system,sans-serif" font-size="22" font-weight="700" letter-spacing="-.3" text-anchor="middle">Brooks 框架：两种复杂度</text>
  <path stroke="#d1cfc5" stroke-width="1.5" d="M200 56h500"/>
  <rect width="265" height="370" x="40" y="76" fill="#faf9f5" filter="url(#shadow3)" rx="14"/>
  <rect width="265" height="52" x="40" y="76" fill="url(#ess-grad)" rx="14"/>
  <path fill="url(#ess-grad)" d="M40 110h265v18H40z"/>
  <text x="172" y="108" fill="#faf9f5" font-family="system-ui,-apple-system,sans-serif" font-size="17" font-weight="700" text-anchor="middle">本质复杂度</text>
  <text x="172" y="128" fill="#faf9f5" font-family="system-ui,-apple-system,sans-serif" font-size="12" opacity=".85" text-anchor="middle">Essential Complexity</text>
  <text x="60" y="160" fill="#d97757" font-family="system-ui,-apple-system,sans-serif" font-size="12" font-weight="600" letter-spacing="1">无法消除，只能转移</text>
  <g transform="translate(60 178)">
    <circle cx="6" cy="6" r="4" fill="#d97757" opacity=".7"/>
    <text x="20" y="11" fill="#141413" font-family="system-ui,-apple-system,sans-serif" font-size="12.5">需求模糊且易变</text>
    <circle cx="6" cy="32" r="4" fill="#d97757" opacity=".7"/>
    <text x="20" y="37" fill="#141413" font-family="system-ui,-apple-system,sans-serif" font-size="12.5">约束条件相互冲突</text>
    <circle cx="6" cy="58" r="4" fill="#d97757" opacity=".7"/>
    <text x="20" y="63" fill="#141413" font-family="system-ui,-apple-system,sans-serif" font-size="12.5">边界情况爆炸</text>
    <circle cx="6" cy="84" r="4" fill="#d97757" opacity=".7"/>
    <text x="20" y="89" fill="#141413" font-family="system-ui,-apple-system,sans-serif" font-size="12.5">系统涌现行为</text>
  </g>
  <path stroke="#d1cfc5" d="M60 285h225"/>
  <text x="60" y="305" fill="#d97757" font-family="system-ui,-apple-system,sans-serif" font-size="12" font-weight="600" letter-spacing="1">AI 解决能力</text>
  <rect width="220" height="32" x="60" y="320" fill="#d97757" opacity=".12" rx="8"/>
  <text x="170" y="341" fill="#d97757" font-family="system-ui,-apple-system,sans-serif" font-size="13" font-weight="700" text-anchor="middle">❌ 无法解决</text>
  <rect width="220" height="32" x="60" y="365" fill="#d97757" opacity=".06" rx="8"/>
  <text x="170" y="386" fill="#87867f" font-family="system-ui,-apple-system,sans-serif" font-size="12" text-anchor="middle">需求理解、架构设计、系统思考</text>
  <rect width="265" height="370" x="318" y="76" fill="#faf9f5" filter="url(#shadow3)" rx="14"/>
  <rect width="265" height="52" x="318" y="76" fill="url(#acc-grad)" rx="14"/>
  <path fill="url(#acc-grad)" d="M318 110h265v18H318z"/>
  <text x="450" y="108" fill="#faf9f5" font-family="system-ui,-apple-system,sans-serif" font-size="17" font-weight="700" text-anchor="middle">偶然复杂度</text>
  <text x="450" y="128" fill="#faf9f5" font-family="system-ui,-apple-system,sans-serif" font-size="12" opacity=".85" text-anchor="middle">Accidental Complexity</text>
  <text x="338" y="160" fill="#788c5d" font-family="system-ui,-apple-system,sans-serif" font-size="12" font-weight="600" letter-spacing="1">可以被消除或大幅减少</text>
  <g transform="translate(338 178)">
    <circle cx="6" cy="6" r="4" fill="#788c5d" opacity=".7"/>
    <text x="20" y="11" fill="#141413" font-family="system-ui,-apple-system,sans-serif" font-size="12.5">语法和样板代码</text>
    <circle cx="6" cy="32" r="4" fill="#788c5d" opacity=".7"/>
    <text x="20" y="37" fill="#141413" font-family="system-ui,-apple-system,sans-serif" font-size="12.5">API 记忆负担</text>
    <circle cx="6" cy="58" r="4" fill="#788c5d" opacity=".7"/>
    <text x="20" y="63" fill="#141413" font-family="system-ui,-apple-system,sans-serif" font-size="12.5">环境配置与工具链</text>
    <circle cx="6" cy="84" r="4" fill="#788c5d" opacity=".7"/>
    <text x="20" y="89" fill="#141413" font-family="system-ui,-apple-system,sans-serif" font-size="12.5">依赖地狱、版本冲突</text>
  </g>
  <path stroke="#d1cfc5" d="M338 285h225"/>
  <text x="338" y="305" fill="#788c5d" font-family="system-ui,-apple-system,sans-serif" font-size="12" font-weight="600" letter-spacing="1">AI 解决能力</text>
  <rect width="220" height="32" x="338" y="320" fill="#788c5d" opacity=".18" rx="8"/>
  <text x="448" y="341" fill="#788c5d" font-family="system-ui,-apple-system,sans-serif" font-size="13" font-weight="700" text-anchor="middle">✅ 大量削减</text>
  <rect width="220" height="32" x="338" y="365" fill="#788c5d" opacity=".06" rx="8"/>
  <text x="448" y="386" fill="#87867f" font-family="system-ui,-apple-system,sans-serif" font-size="12" text-anchor="middle">语法生成、API 提示、调试辅助</text>
  <rect width="265" height="370" x="596" y="76" fill="#faf9f5" filter="url(#shadow3)" rx="14"/>
  <rect width="265" height="52" x="596" y="76" fill="url(#cog-grad)" rx="14"/>
  <path fill="url(#cog-grad)" d="M596 110h265v18H596z"/>
  <text x="728" y="108" fill="#faf9f5" font-family="system-ui,-apple-system,sans-serif" font-size="17" font-weight="700" text-anchor="middle">认知复杂度</text>
  <text x="728" y="128" fill="#faf9f5" font-family="system-ui,-apple-system,sans-serif" font-size="12" opacity=".85" text-anchor="middle">Cognitive Complexity (AI 引入)</text>
  <text x="616" y="160" fill="#87867f" font-family="system-ui,-apple-system,sans-serif" font-size="12" font-weight="600" letter-spacing="1">AI 新引入的第三种复杂度</text>
  <g transform="translate(616 178)">
    <circle cx="6" cy="6" r="4" fill="#87867f" opacity=".7"/>
    <text x="20" y="11" fill="#141413" font-family="system-ui,-apple-system,sans-serif" font-size="12.5">验证负担：判断 AI 输出是否正确</text>
    <circle cx="6" cy="32" r="4" fill="#87867f" opacity=".7"/>
    <text x="20" y="37" fill="#141413" font-family="system-ui,-apple-system,sans-serif" font-size="12.5">信任校准：权威偏见 + 自动化偏见</text>
    <circle cx="6" cy="58" r="4" fill="#87867f" opacity=".7"/>
    <text x="20" y="63" fill="#141413" font-family="system-ui,-apple-system,sans-serif" font-size="12.5">知识幻觉：看似正确但实际错误</text>
    <circle cx="6" cy="84" r="4" fill="#87867f" opacity=".7"/>
    <text x="20" y="89" fill="#141413" font-family="system-ui,-apple-system,sans-serif" font-size="12.5">技能退化：过度依赖导致能力萎缩</text>
  </g>
  <path stroke="#d1cfc5" d="M616 285h225"/>
  <text x="616" y="305" fill="#87867f" font-family="system-ui,-apple-system,sans-serif" font-size="12" font-weight="600" letter-spacing="1">AI 解决能力</text>
  <rect width="220" height="32" x="616" y="320" fill="#87867f" opacity=".12" rx="8"/>
  <text x="726" y="341" fill="#87867f" font-family="system-ui,-apple-system,sans-serif" font-size="13" font-weight="700" text-anchor="middle">⚠️ 自身引入，难以自我解决</text>
  <rect width="220" height="32" x="616" y="365" fill="#87867f" opacity=".06" rx="8"/>
  <text x="726" y="386" fill="#87867f" font-family="system-ui,-apple-system,sans-serif" font-size="12" text-anchor="middle">必须靠人类判断力来对抗</text>
  <rect width="820" height="34" x="40" y="460" fill="#141413" opacity=".05" rx="10"/>
  <text x="450" y="482" fill="#141413" font-family="system-ui,-apple-system,sans-serif" font-size="13" font-style="italic" text-anchor="middle">&quot;AI 让写代码变快了，但让写正确的代码变难了。&quot;</text>
</svg>
