<svg xmlns="http://www.w3.org/2000/svg" viewBox="0 0 900 520" font-family="system-ui, -apple-system, sans-serif">
  <defs>
    <linearGradient id="bg2" x1="0%" y1="0%" x2="100%" y2="100%">
      <stop offset="0%" stop-color="#FAF9F5"/>
      <stop offset="100%" stop-color="#E3DACC"/>
    </linearGradient>
    <filter id="shadow2" x="-10%" y="-10%" width="120%" height="120%">
      <feDropShadow dx="0" dy="2" stdDeviation="4" flood-color="#141413" flood-opacity="0.08"/>
    </filter>
  </defs>

  <rect width="900" height="520" rx="12" fill="url(#bg2)"/>

  <!-- Title -->
  <text x="450" y="38" text-anchor="middle" font-size="18" font-weight="700" fill="#141413">Agent Orchestrator: Workflow Execution</text>
  <text x="450" y="58" text-anchor="middle" font-size="12" fill="#87867F">Dependency-aware multi-agent task orchestration with parallel execution</text>

  <!-- Orchestrator Core -->
  <g transform="translate(350, 80)" filter="url(#shadow2)">
    <rect width="200" height="60" rx="10" fill="#141413"/>
    <text x="100" y="28" text-anchor="middle" font-size="14" font-weight="700" fill="white">Orchestrator</text>
    <text x="100" y="46" text-anchor="middle" font-size="11" fill="#D1CFC5">dependency resolver + task scheduler</text>
  </g>

  <!-- Workflow Definition -->
  <g transform="translate(50, 170)" filter="url(#shadow2)">
    <rect width="200" height="200" rx="8" fill="#FAF9F5" stroke="#D1CFC5" stroke-width="1.5"/>
    <text x="100" y="24" text-anchor="middle" font-size="12" font-weight="700" fill="#141413">Workflow Definition</text>
    <text x="100" y="42" font-size="9" fill="#87867F" text-anchor="middle">JSON / YAML</text>
    <line x1="20" y1="52" x2="180" y2="52" stroke="#D1CFC5" stroke-width="1"/>

    <!-- Workflow items -->
    <g transform="translate(15, 62)">
      <rect width="170" height="22" rx="4" fill="#E3DACC"/>
      <text x="8" y="15" font-size="9" fill="#141413">{ agent: "A", task: "t1" }</text>
    </g>
    <g transform="translate(15, 88)">
      <rect width="170" height="22" rx="4" fill="#E3DACC"/>
      <text x="8" y="15" font-size="9" fill="#141413">{ agent: "B", task: "t2", depends_on: ["A"] }</text>
    </g>
    <g transform="translate(15, 114)">
      <rect width="170" height="22" rx="4" fill="#E3DACC"/>
      <text x="8" y="15" font-size="9" fill="#141413">{ agent: "C", task: "t3", depends_on: ["A"] }</text>
    </g>
    <g transform="translate(15, 140)">
      <rect width="170" height="22" rx="4" fill="#E3DACC"/>
      <text x="8" y="15" font-size="9" fill="#141413">{ agent: "D", task: "t4", depends_on: ["B","C"] }</text>
    </g>
  </g>

  <!-- Arrow from workflow to orchestrator -->
  <line x1="250" y1="270" x2="370" y2="150" stroke="#D1CFC5" stroke-width="2" stroke-dasharray="5,4"/>
  <polygon points="365,148 378,155 365,162" fill="#D1CFC5"/>

  <!-- Execution Graph -->
  <g transform="translate(320, 170)" filter="url(#shadow2)">
    <rect width="260" height="200" rx="8" fill="#FAF9F5" stroke="#D1CFC5" stroke-width="1.5"/>
    <text x="130" y="24" text-anchor="middle" font-size="12" font-weight="700" fill="#141413">Execution Graph</text>
    <text x="130" y="42" font-size="9" fill="#87867F" text-anchor="middle">Topological sort + parallel scheduling</text>
    <line x1="20" y1="52" x2="240" y2="52" stroke="#D1CFC5" stroke-width="1"/>

    <!-- Stage 1 -->
    <g transform="translate(20, 65)">
      <rect width="60" height="36" rx="6" fill="#788C5D"/>
      <text x="30" y="16" text-anchor="middle" font-size="10" font-weight="600" fill="white">Agent A</text>
      <text x="30" y="28" text-anchor="middle" font-size="9" fill="#E3DACC">Step 1</text>
    </g>

    <!-- Stage 2 (parallel) -->
    <line x1="50" y1="101" x2="50" y2="115" stroke="#D1CFC5" stroke-width="1.5"/>
    <line x1="130" y1="115" x2="20" y2="115" stroke="#D1CFC5" stroke-width="1.5"/>
    <line x1="130" y1="115" x2="180" y2="115" stroke="#D1CFC5" stroke-width="1.5"/>

    <g transform="translate(20, 120)">
      <rect width="60" height="36" rx="6" fill="#D97757"/>
      <text x="30" y="16" text-anchor="middle" font-size="10" font-weight="600" fill="white">Agent B</text>
      <text x="30" y="28" text-anchor="middle" font-size="9" fill="#FAF9F5">Step 2a</text>
    </g>
    <g transform="translate(180, 120)">
      <rect width="60" height="36" rx="6" fill="#D97757"/>
      <text x="30" y="16" text-anchor="middle" font-size="10" font-weight="600" fill="white">Agent C</text>
      <text x="30" y="28" text-anchor="middle" font-size="9" fill="#FAF9F5">Step 2b</text>
    </g>

    <!-- Parallel label -->
    <text x="130" y="108" text-anchor="middle" font-size="8" fill="#788C5D">PARALLEL</text>

    <!-- Stage 3 -->
    <line x1="50" y1="156" x2="50" y2="165" stroke="#D1CFC5" stroke-width="1.5"/>
    <line x1="210" y1="165" x2="50" y2="165" stroke="#D1CFC5" stroke-width="1.5"/>
    <line x1="130" y1="165" x2="130" y2="170" stroke="#D1CFC5" stroke-width="1.5"/>

    <g transform="translate(90, 170)">
      <rect width="80" height="36" rx="6" fill="#141413"/>
      <text x="40" y="16" text-anchor="middle" font-size="10" font-weight="600" fill="white">Agent D</text>
      <text x="40" y="28" text-anchor="middle" font-size="9" fill="#D1CFC5">Step 3</text>
    </g>
  </g>

  <!-- Results -->
  <g transform="translate(650, 170)" filter="url(#shadow2)">
    <rect width="200" height="200" rx="8" fill="#FAF9F5" stroke="#788C5D" stroke-width="2"/>
    <text x="100" y="24" text-anchor="middle" font-size="12" font-weight="700" fill="#788C5D">Execution Results</text>
    <line x1="20" y1="36" x2="180" y2="36" stroke="#D1CFC5" stroke-width="1"/>

    <g transform="translate(15, 50)">
      <circle cx="10" cy="8" r="6" fill="#788C5D"/>
      <text x="24" y="12" font-size="10" fill="#141413">A → { success: true }</text>
    </g>
    <g transform="translate(15, 80)">
      <circle cx="10" cy="8" r="6" fill="#788C5D"/>
      <text x="24" y="12" font-size="10" fill="#141413">B → { success: true }</text>
    </g>
    <g transform="translate(15, 110)">
      <circle cx="10" cy="8" r="6" fill="#788C5D"/>
      <text x="24" y="12" font-size="10" fill="#141413">C → { success: true }</text>
    </g>
    <g transform="translate(15, 140)">
      <circle cx="10" cy="8" r="6" fill="#788C5D"/>
      <text x="24" y="12" font-size="10" fill="#141413">D → { success: true }</text>
    </g>

    <rect x="15" y="162" width="170" height="28" rx="4" fill="#788C5D"/>
    <text x="100" y="180" text-anchor="middle" font-size="11" font-weight="600" fill="white">✓ Workflow Complete</text>
  </g>

  <!-- Arrow from execution graph to results -->
  <line x1="580" y1="270" x2="650" y2="270" stroke="#D1CFC5" stroke-width="2" stroke-dasharray="5,4"/>
  <polygon points="645,264 656,270 645,276" fill="#D1CFC5"/>

  <!-- Key Features Bottom -->
  <g transform="translate(50, 420)">
    <rect width="800" height="80" rx="8" fill="#FAF9F5" stroke="#D1CFC5" stroke-width="1"/>
    <text x="400" y="20" text-anchor="middle" font-size="12" font-weight="700" fill="#141413">Orchestrator Responsibilities</text>

    <g transform="translate(40, 35)">
      <rect width="150" height="36" rx="6" fill="#E3DACC"/>
      <text x="75" y="16" text-anchor="middle" font-size="10" font-weight="600" fill="#141413">Dependency Resolution</text>
      <text x="75" y="28" text-anchor="middle" font-size="9" fill="#87867F">Topological sort</text>
    </g>

    <g transform="translate(220, 35)">
      <rect width="150" height="36" rx="6" fill="#E3DACC"/>
      <text x="75" y="16" text-anchor="middle" font-size="10" font-weight="600" fill="#141413">Parallel Scheduling</text>
      <text x="75" y="28" text-anchor="middle" font-size="9" fill="#87867F">Ready tasks concurrently</text>
    </g>

    <g transform="translate(400, 35)">
      <rect width="150" height="36" rx="6" fill="#E3DACC"/>
      <text x="75" y="16" text-anchor="middle" font-size="10" font-weight="600" fill="#141413">Result Aggregation</text>
      <text x="75" y="28" text-anchor="middle" font-size="9" fill="#87867F">Merge outputs</text>
    </g>

    <g transform="translate(580, 35)">
      <rect width="150" height="36" rx="6" fill="#E3DACC"/>
      <text x="75" y="16" text-anchor="middle" font-size="10" font-weight="600" fill="#141413">Error Handling</text>
      <text x="75" y="28" text-anchor="middle" font-size="9" fill="#87867F">Fail-fast + rollback</text>
    </g>
  </g>
</svg>