<svg xmlns="http://www.w3.org/2000/svg" font-family="ui-serif, Georgia, serif" viewBox="0 0 560 180"><path fill="#faf9f5" d="M0 0h560v180H0z"/><text x="280" y="20" fill="#141413" font-size="13" font-weight="500" letter-spacing="-.02em" text-anchor="middle">专业化 Agent 协作：各司其职</text><text x="280" y="36" fill="#87867f" font-family="ui-monospace, monospace" font-size="9.5" text-anchor="middle">postcodeengineering.com · 2026/03/15</text><rect width="130" height="80" x="40" y="60" fill="#fff" stroke="#d97757" stroke-width="1.8" rx="6"/><rect width="130" height="18" x="40" y="60" fill="#fef3c7" stroke="#d97757" rx="6"/><text x="105" y="74" fill="#d97757" font-family="ui-monospace, monospace" font-size="10" font-weight="600" text-anchor="middle">A · 邮件管理 Agent</text><text x="60" y="94" fill="#141413" font-size="9">• 读取邮件</text><text x="60" y="108" fill="#141413" font-size="9">• 撰写回复</text><text x="60" y="122" fill="#141413" font-size="9">• 发送邮件</text><rect width="14" height="14" x="162" y="88" fill="#d97757" rx="7"/><text x="169" y="99" fill="#fff" font-family="ui-monospace, monospace" font-size="7" text-anchor="middle">A</text><rect width="130" height="80" x="215" y="60" fill="#fff" stroke="#87867f" stroke-width="1.5" rx="6"/><rect width="130" height="18" x="215" y="60" fill="#f5f4f0" stroke="#87867f" rx="6"/><text x="280" y="74" fill="#87867f" font-family="ui-monospace, monospace" font-size="10" font-weight="600" text-anchor="middle">B · 日程协调 Agent</text><text x="235" y="94" fill="#141413" font-size="9">• 查询空闲</text><text x="235" y="108" fill="#141413" font-size="9">• 安排会议</text><text x="235" y="122" fill="#141413" font-size="9">• 处理冲突</text><rect width="14" height="14" x="337" y="88" fill="#87867f" rx="7"/><text x="344" y="99" fill="#fff" font-family="ui-monospace, monospace" font-size="7" text-anchor="middle">B</text><rect width="130" height="80" x="390" y="60" fill="#fff" stroke="#d1cfc5" stroke-width="1.5" rx="6"/><rect width="130" height="18" x="390" y="60" fill="#f8f7f4" stroke="#d1cfc5" rx="6"/><text x="455" y="74" fill="#87867f" font-family="ui-monospace, monospace" font-size="10" font-weight="600" text-anchor="middle">C · 文档处理 Agent</text><text x="410" y="94" fill="#141413" font-size="9">• 创建文档</text><text x="410" y="108" fill="#141413" font-size="9">• 编辑内容</text><text x="410" y="122" fill="#141413" font-size="9">• 管理版本</text><rect width="14" height="14" x="512" y="88" fill="#d1cfc5" rx="7"/><text x="519" y="99" fill="#87867f" font-family="ui-monospace, monospace" font-size="7" text-anchor="middle">C</text><path stroke="#d1cfc5" stroke-dasharray="4,3" stroke-width="1.5" d="M172 100h41m132 0h43"/><path stroke="#d1cfc5" stroke-width="1.5" d="M280 140v20"/><path fill="#d1cfc5" d="m276 160 4 8 4-8z"/><text x="280" y="176" fill="#87867f" font-size="9" font-style="italic" text-anchor="middle">各 Agent 独立演进，按需协作，符合 SRP</text></svg>