<svg xmlns="http://www.w3.org/2000/svg" font-family="ui-monospace, 'Cascadia Code', 'Fira Code', monospace" viewBox="0 0 520 280"><path fill="#faf9f5" d="M0 0h520v280H0z"/><text x="260" y="24" fill="#141413" font-size="13" font-weight="bold" text-anchor="middle">OpenAI Instruction Hierarchy</text><rect width="440" height="44" x="40" y="44" fill="#141413" rx="4"/><text x="60" y="66" fill="#faf9f5" font-size="12" font-weight="bold">System</text><text x="60" y="80" fill="#d1cfc5" font-size="10">安全政策、核心行为约束</text><text x="420" y="72" fill="#d97757" font-size="11" font-weight="bold" text-anchor="end">▲ 最高优先级</text><path stroke="#d1cfc5" stroke-width="1.5" d="M260 88v20"/><path fill="#d1cfc5" d="m260 108-4-8h8z"/><rect width="440" height="44" x="40" y="108" fill="#788c5d" rx="4"/><text x="60" y="130" fill="#faf9f5" font-size="12" font-weight="bold">Developer</text><text x="60" y="144" fill="#e3dacc" font-size="10">应用特定的行为指导</text><text x="420" y="136" fill="#faf9f5" font-size="11" font-weight="bold" text-anchor="end">▲ 高优先级</text><path stroke="#d1cfc5" stroke-width="1.5" d="M260 152v20"/><path fill="#d1cfc5" d="m260 172-4-8h8z"/><rect width="440" height="44" x="40" y="172" fill="#87867f" rx="4"/><text x="60" y="194" fill="#faf9f5" font-size="12" font-weight="bold">User</text><text x="60" y="208" fill="#e3dacc" font-size="10">直接请求</text><text x="420" y="200" fill="#faf9f5" font-size="11" font-weight="bold" text-anchor="end">▲ 中优先级</text><path stroke="#d1cfc5" stroke-width="1.5" d="M260 216v20"/><path fill="#d1cfc5" d="m260 236-4-8h8z"/><rect width="440" height="36" x="40" y="236" fill="#d97757" rx="4"/><text x="60" y="255" fill="#faf9f5" font-size="12" font-weight="bold">Tool</text><text x="150" y="255" fill="#e3dacc" font-size="10">外部数据源、不可信内容</text><text x="420" y="255" fill="#faf9f5" font-size="11" font-weight="bold" text-anchor="end">▼ 最低优先级</text><text x="20" y="70" fill="#d97757" font-size="10" transform="rotate(-90 20 70)">Priority</text></svg>