<svg xmlns="http://www.w3.org/2000/svg" font-family="system-ui,-apple-system,sans-serif" viewBox="0 0 800 520"><defs><marker id="arrow" markerHeight="7" markerWidth="10" orient="auto" refX="9" refY="3.5"><path fill="#87867f" d="m0 0 10 3.5L0 7z"/></marker><filter id="shadow" width="110%" height="110%" x="-5%" y="-5%"><feDropShadow dx="0" dy="2" flood-color="#141413" flood-opacity=".12" stdDeviation="3"/></filter></defs><path fill="#faf9f5" d="M0 0h800v520H0z"/><text x="400" y="38" fill="#141413" font-size="18" font-weight="700" letter-spacing=".5" text-anchor="middle">Agent Loop Cycle — 五组件闭环</text><text x="400" y="58" fill="#87867f" font-size="11" text-anchor="middle">Loop Engineering: 从操作者到设计师的范式转移</text><circle cx="400" cy="275" r="190" fill="none" stroke="#d1cfc5" stroke-dasharray="8,4" stroke-width="2"/><circle cx="400" cy="275" r="52" fill="#141413" filter="url(#shadow)"/><text x="400" y="268" fill="#faf9f5" font-size="13" font-weight="700" text-anchor="middle">目标</text><text x="400" y="284" fill="#d1cfc5" font-size="11" text-anchor="middle">Goal</text><text x="400" y="298" fill="#87867f" font-size="9" text-anchor="middle">锚点 · 可验证</text><circle cx="400" cy="95" r="40" fill="#d97757" filter="url(#shadow)"/><text x="400" y="91" fill="#faf9f5" font-size="12" font-weight="700" text-anchor="middle">行动</text><text x="400" y="105" fill="#faf9f5" font-size="10" opacity=".85" text-anchor="middle">Action</text><circle cx="572" cy="158" r="40" fill="#788c5d" filter="url(#shadow)"/><text x="572" y="154" fill="#faf9f5" font-size="12" font-weight="700" text-anchor="middle">观察</text><text x="572" y="168" fill="#faf9f5" font-size="10" opacity=".85" text-anchor="middle">Observation</text><circle cx="572" cy="392" r="40" fill="#d97757" filter="url(#shadow)"/><text x="572" y="388" fill="#faf9f5" font-size="12" font-weight="700" text-anchor="middle">评估</text><text x="572" y="402" fill="#faf9f5" font-size="10" opacity=".85" text-anchor="middle">Evaluation</text><circle cx="228" cy="392" r="40" fill="#788c5d" filter="url(#shadow)"/><text x="228" y="388" fill="#faf9f5" font-size="12" font-weight="700" text-anchor="middle">修正</text><text x="228" y="402" fill="#faf9f5" font-size="10" opacity=".85" text-anchor="middle">Revision</text><circle cx="228" cy="158" r="40" fill="#e3dacc" filter="url(#shadow)"/><text x="228" y="150" fill="#141413" font-size="11" font-weight="700" text-anchor="middle">上下文</text><text x="228" y="164" fill="#141413" font-size="10" opacity=".8" text-anchor="middle">Context</text><text x="228" y="176" fill="#141413" font-size="9" opacity=".6" text-anchor="middle">+ Tools</text><path fill="none" stroke="#87867f" stroke-width="2" marker-end="url(#arrow)" d="M400 223v-86"/><text x="420" y="180" fill="#87867f" font-size="9">指令</text><path fill="none" stroke="#87867f" stroke-width="2" marker-end="url(#arrow)" d="m435 103 113 43"/><text x="500" y="112" fill="#87867f" font-size="9">结果</text><path fill="none" stroke="#87867f" stroke-width="2" marker-end="url(#arrow)" d="M592 197v157"/><text x="605" y="280" fill="#87867f" font-size="9">状态</text><path fill="none" stroke="#87867f" stroke-width="2" marker-end="url(#arrow)" d="M548 415H267"/><text x="408" y="430" fill="#87867f" font-size="9">偏差</text><path fill="none" stroke="#87867f" stroke-width="2" marker-end="url(#arrow)" d="m228 353 124-125"/><text x="258" y="295" fill="#87867f" font-size="9">调整</text><rect width="148" height="38" x="620" y="258" fill="#e3dacc" filter="url(#shadow)" rx="6"/><text x="694" y="274" fill="#141413" font-size="10" font-weight="700" text-anchor="middle">停止条件</text><text x="694" y="288" fill="#87867f" font-size="9" text-anchor="middle">Stop Conditions</text><rect width="640" height="44" x="80" y="460" fill="#e3dacc" rx="6"/><text x="400" y="477" fill="#141413" font-size="10" text-anchor="middle">工程师的位置：从循环内操作者 → 循环外设计师</text><text x="400" y="493" fill="#87867f" font-size="9" text-anchor="middle">定义目标 · 设计上下文 · 选择工具 · 设计评估 · 设置停止条件</text></svg>