<svg xmlns="http://www.w3.org/2000/svg" font-family="ui-serif, Georgia, serif" viewBox="0 0 560 160"><path fill="#faf9f5" d="M0 0h560v160H0z"/><text x="280" y="18" fill="#141413" font-size="12" font-weight="500" letter-spacing="-.02em" text-anchor="middle">MVC 架构：Model-View-Controller</text><text x="280" y="32" fill="#87867f" font-family="ui-monospace, monospace" font-size="9" text-anchor="middle">postcodeengineering.com · 2026/03/15</text><rect width="140" height="80" x="40" y="50" fill="#fff" stroke="#059669" stroke-width="1.5" rx="6"/><rect width="140" height="18" x="40" y="50" fill="#d1fae5" stroke="#059669" rx="6"/><text x="110" y="64" fill="#059669" font-family="ui-monospace, monospace" font-size="10" font-weight="600" text-anchor="middle">Model</text><text x="110" y="86" fill="#141413" font-size="9.5" text-anchor="middle">数据和业务逻辑</text><text x="110" y="102" fill="#87867f" font-size="9" text-anchor="middle">数据验证</text><text x="110" y="116" fill="#87867f" font-size="9" text-anchor="middle">数据库交互</text><rect width="140" height="80" x="210" y="50" fill="#fff" stroke="#d97757" stroke-width="1.8" rx="6"/><rect width="140" height="18" x="210" y="50" fill="#fef3c7" stroke="#d97757" rx="6"/><text x="280" y="64" fill="#d97757" font-family="ui-monospace, monospace" font-size="10" font-weight="600" text-anchor="middle">Controller</text><text x="280" y="86" fill="#141413" font-size="9.5" text-anchor="middle">处理用户输入</text><text x="280" y="102" fill="#87867f" font-size="9" text-anchor="middle">调用 Model</text><text x="280" y="116" fill="#87867f" font-size="9" text-anchor="middle">选择 View</text><rect width="140" height="80" x="380" y="50" fill="#fff" stroke="#2563eb" stroke-width="1.5" rx="6"/><rect width="140" height="18" x="380" y="50" fill="#dbeafe" stroke="#2563eb" rx="6"/><text x="450" y="64" fill="#2563eb" font-family="ui-monospace, monospace" font-size="10" font-weight="600" text-anchor="middle">View</text><text x="450" y="86" fill="#141413" font-size="9.5" text-anchor="middle">用户界面展示</text><text x="450" y="102" fill="#87867f" font-size="9" text-anchor="middle">接收 Model 数据</text><text x="450" y="116" fill="#87867f" font-size="9" text-anchor="middle">渲染 UI</text><path stroke="#d1cfc5" stroke-width="1.5" d="M180 90h28"/><path fill="#d1cfc5" d="m208 86 8 4-8 4z"/><path stroke="#d1cfc5" stroke-width="1.5" d="M352 90h26"/><path fill="#d1cfc5" d="m378 86-8 4 8 4z"/><path stroke="#d1cfc5" stroke-dasharray="3,2" d="M280 130H110m170 0h170"/><text x="280" y="148" fill="#87867f" font-size="9" font-style="italic" text-anchor="middle">Model ↔ View：数据驱动的被动更新</text></svg>