<svg xmlns="http://www.w3.org/2000/svg" viewBox="0 0 600 140">
  <path fill="#faf9f5" d="M0 0h600v140H0z"/>
  <path stroke="#d1cfc5" d="M0 70h180"/>
  <rect width="60" height="80" x="195" y="30" fill="#fff" stroke="#d1cfc5" rx="4"/>
  <rect width="34" height="34" x="208" y="42" fill="#d97757" rx="3"/>
  <text x="225" y="62" fill="#fff" font-family="ui-monospace, monospace" font-size="11" text-anchor="middle">分化</text>
  <text x="225" y="90" fill="#141413" font-size="10" text-anchor="middle">AI 市场分化</text>
  <text x="225" y="103" fill="#87867f" font-size="9" text-anchor="middle">3 类开发者</text>
  <path stroke="#d1cfc5" stroke-width="1.5" d="M260 70h15"/>
  <path fill="#d1cfc5" d="m275 66 8 4-8 4z"/>
  <rect width="60" height="80" x="288" y="30" fill="#fff" stroke="#d1cfc5" rx="4"/>
  <rect width="34" height="34" x="301" y="42" fill="#788c5d" rx="3"/>
  <text x="318" y="62" fill="#fff" font-family="ui-monospace, monospace" font-size="11" text-anchor="middle">技能</text>
  <text x="318" y="90" fill="#141413" font-size="10" text-anchor="middle">高价值技能</text>
  <text x="318" y="103" fill="#87867f" font-size="9" text-anchor="middle">架构·性能·并发</text>
  <path stroke="#d1cfc5" stroke-width="1.5" d="M353 70h15"/>
  <path fill="#d1cfc5" d="m368 66 8 4-8 4z"/>
  <rect width="60" height="80" x="381" y="30" fill="#fff" stroke="#d1cfc5" rx="4"/>
  <rect width="34" height="34" x="394" y="42" fill="#141413" rx="3"/>
  <text x="411" y="62" fill="#fff" font-family="ui-monospace, monospace" font-size="11" text-anchor="middle">品牌</text>
  <text x="411" y="90" fill="#141413" font-size="10" text-anchor="middle">个人声誉</text>
  <text x="411" y="103" fill="#87867f" font-size="9" text-anchor="middle">博客·开源·咨询</text>
  <path stroke="#d1cfc5" d="M446 70h154"/>
  <text x="300" y="128" fill="#87867f" font-family="ui-monospace, monospace" font-size="10" text-anchor="middle">开发者应对策略</text>
</svg>
