<svg xmlns="http://www.w3.org/2000/svg" font-family="ui-serif, Georgia, serif" viewBox="0 0 640 420">
  <path fill="#faf9f5" d="M0 0h640v420H0z"/>
  <text x="320" y="24" fill="#141413" font-size="14" font-weight="500" letter-spacing="-.02em" text-anchor="middle">Osmani 的六块积木</text>
  <text x="320" y="40" fill="#87867f" font-family="ui-monospace, monospace" font-size="10" text-anchor="middle">addyosmani.com · 2026/06/07</text>
  <circle cx="320" cy="218" r="50" fill="#fff" stroke="#d97757" stroke-width="2"/>
  <circle cx="320" cy="218" r="38" fill="#f0eee6" stroke="#d97757" stroke-width="1.5"/>
  <text x="320" y="212" fill="#d97757" font-family="ui-monospace, monospace" font-size="11" font-weight="600" text-anchor="middle">Agent</text>
  <text x="320" y="227" fill="#d97757" font-family="ui-monospace, monospace" font-size="11" font-weight="600" text-anchor="middle">Loop</text>
  <text x="320" y="240" fill="#87867f" font-size="9" text-anchor="middle">核心循环</text>
  <rect width="200" height="52" x="220" y="56" fill="#fff" stroke="#d97757" stroke-width="1.5" rx="8"/>
  <text x="240" y="76" fill="#d97757" font-family="ui-monospace, monospace" font-size="10" font-weight="600">1 · Automations</text>
  <text x="240" y="91" fill="#141413" font-size="10.5">心跳 · 定时触发</text>
  <text x="240" y="103" fill="#87867f" font-size="9">/loop · /goal · Codex Automations</text>
  <rect width="176" height="52" x="430" y="100" fill="#fff" stroke="#d1cfc5" stroke-width="1.5" rx="8"/>
  <text x="450" y="120" fill="#d97757" font-family="ui-monospace, monospace" font-size="10" font-weight="600">6 · Memory</text>
  <text x="450" y="135" fill="#141413" font-size="10.5">记忆 · State 写磁盘</text>
  <text x="450" y="147" fill="#87867f" font-size="9">STATE.md · Linear · Git Issues</text>
  <rect width="176" height="52" x="430" y="190" fill="#fff" stroke="#d1cfc5" stroke-width="1.5" rx="8"/>
  <text x="450" y="210" fill="#d97757" font-family="ui-monospace, monospace" font-size="10" font-weight="600">4 · Connectors</text>
  <text x="450" y="225" fill="#141413" font-size="10.5">连接 · MCP 协议</text>
  <text x="450" y="237" fill="#87867f" font-size="9">GitHub · Slack · DB · CI/CD</text>
  <rect width="176" height="52" x="380" y="308" fill="#fff" stroke="#d1cfc5" stroke-width="1.5" rx="8"/>
  <text x="400" y="328" fill="#d97757" font-family="ui-monospace, monospace" font-size="10" font-weight="600">3 · Skills</text>
  <text x="400" y="343" fill="#141413" font-size="10.5">技能 · Intent Debt</text>
  <text x="400" y="355" fill="#87867f" font-size="9">SKILL.md · references/</text>
  <rect width="176" height="52" x="84" y="308" fill="#fff" stroke="#d1cfc5" stroke-width="1.5" rx="8"/>
  <text x="104" y="328" fill="#d97757" font-family="ui-monospace, monospace" font-size="10" font-weight="600">5 · Sub-agents</text>
  <text x="104" y="343" fill="#141413" font-size="10.5">子代理 · 写≠打分</text>
  <text x="104" y="355" fill="#87867f" font-size="9">独立的 verifier Agent</text>
  <rect width="176" height="52" x="34" y="190" fill="#fff" stroke="#d1cfc5" stroke-width="1.5" rx="8"/>
  <text x="54" y="210" fill="#d97757" font-family="ui-monospace, monospace" font-size="10" font-weight="600">2 · Worktrees</text>
  <text x="54" y="225" fill="#141413" font-size="10.5">工作树 · 并行安全</text>
  <text x="54" y="237" fill="#87867f" font-size="9">git worktree · 隔离工作区</text>
  <path stroke="#d97757" stroke-dasharray="4,3" stroke-width="1.5" d="M320 108v50"/>
  <path fill="#d97757" d="m320 158-4-8h8z"/>
  <path stroke="#d1cfc5" stroke-dasharray="4,3" stroke-width="1.5" d="m430 130-58 50"/>
  <path fill="#d1cfc5" d="m372 180-1-8 7 4z"/>
  <path stroke="#d1cfc5" stroke-dasharray="4,3" stroke-width="1.5" d="M430 216h-56"/>
  <path fill="#d1cfc5" d="m374 212-6 4 6 4z"/>
  <path stroke="#d1cfc5" stroke-dasharray="4,3" stroke-width="1.5" d="m260 326 28-60"/>
  <path fill="#d1cfc5" d="m288 266-2 8 8-4z"/>
  <path stroke="#d1cfc5" stroke-dasharray="4,3" stroke-width="1.5" d="m380 326-28-60"/>
  <path fill="#d1cfc5" d="m352 266 2 8-8-4z"/>
  <path stroke="#d1cfc5" stroke-dasharray="4,3" stroke-width="1.5" d="M210 216h56"/>
  <path fill="#d1cfc5" d="m266 212 6 4-6 4z"/>
  <rect width="360" height="32" x="140" y="378" fill="#fff" stroke="#d97757" stroke-dasharray="4,3" rx="6"/>
  <text x="320" y="394" fill="#141413" font-size="9.5" font-style="italic" text-anchor="middle">&quot;The agent forgets, the repo doesn&apos;t.&quot;</text>
  <text x="320" y="406" fill="#87867f" font-family="ui-monospace, monospace" font-size="8.5" text-anchor="middle">— Addy Osmani</text>
</svg>
