<svg xmlns="http://www.w3.org/2000/svg" font-family="ui-serif, Georgia, serif" viewBox="0 0 560 220"><path fill="#faf9f5" d="M0 0h560v220H0z"/><text x="280" y="18" fill="#141413" font-size="12" font-weight="500" letter-spacing="-.02em" text-anchor="middle">Agent + Human 决策矩阵</text><text x="280" y="32" fill="#87867f" font-family="ui-monospace, monospace" font-size="9" text-anchor="middle">postcodeengineering.com · 2026/03/15</text><text x="40" y="62" fill="#87867f" font-family="ui-monospace, monospace" font-size="9">低复杂度</text><text x="40" y="132" fill="#87867f" font-family="ui-monospace, monospace" font-size="9">高复杂度</text><text x="175" y="46" fill="#87867f" font-family="ui-monospace, monospace" font-size="9" text-anchor="middle">低出错成本</text><text x="385" y="46" fill="#87867f" font-family="ui-monospace, monospace" font-size="9" text-anchor="middle">高出错成本</text><rect width="180" height="90" x="80" y="52" fill="#fff" stroke="#059669" stroke-width="2" rx="6"/><rect width="180" height="22" x="80" y="52" fill="#d1fae5" stroke="#059669" rx="6"/><text x="170" y="66" fill="#059669" font-family="ui-monospace, monospace" font-size="9.5" font-weight="600" text-anchor="middle">A · Agent 自主处理</text><text x="170" y="90" fill="#141413" font-size="10" text-anchor="middle">Agent 完全自主决策</text><text x="170" y="107" fill="#87867f" font-size="9" text-anchor="middle">无需人类介入</text><text x="170" y="126" fill="#059669" font-size="8" text-anchor="middle">✓ 最优效率</text><rect width="180" height="90" x="290" y="52" fill="#fff" stroke="#2563eb" stroke-width="2" rx="6"/><rect width="180" height="22" x="290" y="52" fill="#dbeafe" stroke="#2563eb" rx="6"/><text x="380" y="66" fill="#2563eb" font-family="ui-monospace, monospace" font-size="9.5" font-weight="600" text-anchor="middle">B · Agent + 人类审核</text><text x="380" y="90" fill="#141413" font-size="10" text-anchor="middle">Agent 执行，人类最终审批</text><text x="380" y="107" fill="#87867f" font-size="9" text-anchor="middle">降低高风险错误</text><text x="380" y="126" fill="#2563eb" font-size="8" text-anchor="middle">⚠ 适度效率</text><rect width="180" height="60" x="80" y="148" fill="#fff" stroke="#d97757" stroke-width="2" rx="6"/><rect width="180" height="22" x="80" y="148" fill="#fef3c7" stroke="#d97757" rx="6"/><text x="170" y="162" fill="#d97757" font-family="ui-monospace, monospace" font-size="9.5" font-weight="600" text-anchor="middle">C · Agent 辅助 · 人类决策</text><text x="170" y="182" fill="#141413" font-size="10" text-anchor="middle">Agent 提供分析，人类最终决策</text><text x="170" y="198" fill="#87867f" font-size="9" text-anchor="middle">发挥人类判断力</text><rect width="180" height="60" x="290" y="148" fill="#fff" stroke="#ea580c" stroke-width="2" rx="6"/><rect width="180" height="22" x="290" y="148" fill="#fed7aa" stroke="#ea580c" rx="6"/><text x="380" y="162" fill="#ea580c" font-family="ui-monospace, monospace" font-size="9.5" font-weight="600" text-anchor="middle">D · 人类主导 · Agent 支持</text><text x="380" y="182" fill="#141413" font-size="10" text-anchor="middle">人类主导决策，Agent 提供执行支持</text><text x="380" y="198" fill="#87867f" font-size="9" text-anchor="middle">最严风险控制</text></svg>