<svg xmlns="http://www.w3.org/2000/svg" viewBox="0 0 501 290" width="501" height="290">
  <defs>
    <style>
      text { font-family: 'SF Mono', 'Menlo', 'Monaco', 'Courier New', monospace; }
    </style>
  </defs>
  <rect width="501" height="290" fill="#FAF9F5"/>
  <rect x="4" y="4" width="493" height="282" fill="none" stroke="#D1CFC5" stroke-width="1" rx="4"/>
<polyline points="30.5,29.2 20.0,29.2 20.0,38.5" fill="none" stroke="#141413" stroke-width="1.5"/>
<line x1="30.5" y1="29.2" x2="41.0" y2="29.2" stroke="#141413" stroke-width="1.5"/>
<line x1="41.0" y1="29.2" x2="51.5" y2="29.2" stroke="#141413" stroke-width="1.5"/>
<line x1="51.5" y1="29.2" x2="62.0" y2="29.2" stroke="#141413" stroke-width="1.5"/>
<line x1="62.0" y1="29.2" x2="72.5" y2="29.2" stroke="#141413" stroke-width="1.5"/>
<line x1="72.5" y1="29.2" x2="83.0" y2="29.2" stroke="#141413" stroke-width="1.5"/>
<line x1="83.0" y1="29.2" x2="93.5" y2="29.2" stroke="#141413" stroke-width="1.5"/>
<line x1="93.5" y1="29.2" x2="104.0" y2="29.2" stroke="#141413" stroke-width="1.5"/>
<line x1="104.0" y1="29.2" x2="114.5" y2="29.2" stroke="#141413" stroke-width="1.5"/>
<line x1="114.5" y1="29.2" x2="125.0" y2="29.2" stroke="#141413" stroke-width="1.5"/>
<line x1="125.0" y1="29.2" x2="135.5" y2="29.2" stroke="#141413" stroke-width="1.5"/>
<line x1="135.5" y1="29.2" x2="146.0" y2="29.2" stroke="#141413" stroke-width="1.5"/>
<line x1="146.0" y1="29.2" x2="156.5" y2="29.2" stroke="#141413" stroke-width="1.5"/>
<line x1="156.5" y1="29.2" x2="167.0" y2="29.2" stroke="#141413" stroke-width="1.5"/>
<line x1="167.0" y1="29.2" x2="177.5" y2="29.2" stroke="#141413" stroke-width="1.5"/>
<line x1="177.5" y1="29.2" x2="188.0" y2="29.2" stroke="#141413" stroke-width="1.5"/>
<line x1="188.0" y1="29.2" x2="198.5" y2="29.2" stroke="#141413" stroke-width="1.5"/>
<line x1="198.5" y1="29.2" x2="209.0" y2="29.2" stroke="#141413" stroke-width="1.5"/>
<line x1="209.0" y1="29.2" x2="219.5" y2="29.2" stroke="#141413" stroke-width="1.5"/>
<line x1="219.5" y1="29.2" x2="230.0" y2="29.2" stroke="#141413" stroke-width="1.5"/>
<line x1="230.0" y1="29.2" x2="240.5" y2="29.2" stroke="#141413" stroke-width="1.5"/>
<line x1="240.5" y1="29.2" x2="251.0" y2="29.2" stroke="#141413" stroke-width="1.5"/>
<line x1="251.0" y1="29.2" x2="261.5" y2="29.2" stroke="#141413" stroke-width="1.5"/>
<line x1="261.5" y1="29.2" x2="272.0" y2="29.2" stroke="#141413" stroke-width="1.5"/>
<line x1="272.0" y1="29.2" x2="282.5" y2="29.2" stroke="#141413" stroke-width="1.5"/>
<line x1="282.5" y1="29.2" x2="293.0" y2="29.2" stroke="#141413" stroke-width="1.5"/>
<line x1="293.0" y1="29.2" x2="303.5" y2="29.2" stroke="#141413" stroke-width="1.5"/>
<line x1="303.5" y1="29.2" x2="314.0" y2="29.2" stroke="#141413" stroke-width="1.5"/>
<line x1="314.0" y1="29.2" x2="324.5" y2="29.2" stroke="#141413" stroke-width="1.5"/>
<line x1="324.5" y1="29.2" x2="335.0" y2="29.2" stroke="#141413" stroke-width="1.5"/>
<line x1="335.0" y1="29.2" x2="345.5" y2="29.2" stroke="#141413" stroke-width="1.5"/>
<line x1="345.5" y1="29.2" x2="356.0" y2="29.2" stroke="#141413" stroke-width="1.5"/>
<line x1="356.0" y1="29.2" x2="366.5" y2="29.2" stroke="#141413" stroke-width="1.5"/>
<line x1="366.5" y1="29.2" x2="377.0" y2="29.2" stroke="#141413" stroke-width="1.5"/>
<line x1="377.0" y1="29.2" x2="387.5" y2="29.2" stroke="#141413" stroke-width="1.5"/>
<line x1="387.5" y1="29.2" x2="398.0" y2="29.2" stroke="#141413" stroke-width="1.5"/>
<line x1="398.0" y1="29.2" x2="408.5" y2="29.2" stroke="#141413" stroke-width="1.5"/>
<line x1="408.5" y1="29.2" x2="419.0" y2="29.2" stroke="#141413" stroke-width="1.5"/>
<line x1="419.0" y1="29.2" x2="429.5" y2="29.2" stroke="#141413" stroke-width="1.5"/>
<line x1="429.5" y1="29.2" x2="440.0" y2="29.2" stroke="#141413" stroke-width="1.5"/>
<line x1="440.0" y1="29.2" x2="450.5" y2="29.2" stroke="#141413" stroke-width="1.5"/>
<line x1="450.5" y1="29.2" x2="461.0" y2="29.2" stroke="#141413" stroke-width="1.5"/>
<polyline points="461.0,29.2 471.5,29.2 471.5,38.5" fill="none" stroke="#141413" stroke-width="1.5"/>
<line x1="24.8" y1="38.5" x2="24.8" y2="57.0" stroke="#141413" stroke-width="1.5"/>
<text x="126.0" y="52.0" fill="#141413" font-size="12" font-family="monospace">D</text>
<text x="136.5" y="52.0" fill="#141413" font-size="12" font-family="monospace">o</text>
<text x="147.0" y="52.0" fill="#141413" font-size="12" font-family="monospace">m</text>
<text x="157.5" y="52.0" fill="#141413" font-size="12" font-family="monospace">a</text>
<text x="168.0" y="52.0" fill="#141413" font-size="12" font-family="monospace">i</text>
<text x="178.5" y="52.0" fill="#141413" font-size="12" font-family="monospace">n</text>
<text x="199.5" y="52.0" fill="#141413" font-size="12" font-family="monospace">A</text>
<text x="210.0" y="52.0" fill="#141413" font-size="12" font-family="monospace">g</text>
<text x="220.5" y="52.0" fill="#141413" font-size="12" font-family="monospace">e</text>
<text x="231.0" y="52.0" fill="#141413" font-size="12" font-family="monospace">n</text>
<text x="241.5" y="52.0" fill="#141413" font-size="12" font-family="monospace">t</text>
<text x="262.5" y="52.0" fill="#141413" font-size="12" font-family="monospace">C</text>
<text x="273.0" y="52.0" fill="#141413" font-size="12" font-family="monospace">l</text>
<text x="283.5" y="52.0" fill="#141413" font-size="12" font-family="monospace">u</text>
<text x="294.0" y="52.0" fill="#141413" font-size="12" font-family="monospace">s</text>
<text x="304.5" y="52.0" fill="#141413" font-size="12" font-family="monospace">t</text>
<text x="315.0" y="52.0" fill="#141413" font-size="12" font-family="monospace">e</text>
<text x="325.5" y="52.0" fill="#141413" font-size="12" font-family="monospace">r</text>
<line x1="465.8" y1="38.5" x2="465.8" y2="57.0" stroke="#141413" stroke-width="1.5"/>
<line x1="24.8" y1="57.0" x2="24.8" y2="75.5" stroke="#141413" stroke-width="1.5"/>
<polyline points="62.0,66.2 51.5,66.2 51.5,75.5" fill="none" stroke="#141413" stroke-width="1.5"/>
<line x1="62.0" y1="66.2" x2="72.5" y2="66.2" stroke="#141413" stroke-width="1.5"/>
<line x1="72.5" y1="66.2" x2="83.0" y2="66.2" stroke="#141413" stroke-width="1.5"/>
<line x1="83.0" y1="66.2" x2="93.5" y2="66.2" stroke="#141413" stroke-width="1.5"/>
<line x1="93.5" y1="66.2" x2="104.0" y2="66.2" stroke="#141413" stroke-width="1.5"/>
<line x1="104.0" y1="66.2" x2="114.5" y2="66.2" stroke="#141413" stroke-width="1.5"/>
<line x1="114.5" y1="66.2" x2="125.0" y2="66.2" stroke="#141413" stroke-width="1.5"/>
<line x1="125.0" y1="66.2" x2="135.5" y2="66.2" stroke="#141413" stroke-width="1.5"/>
<line x1="135.5" y1="66.2" x2="146.0" y2="66.2" stroke="#141413" stroke-width="1.5"/>
<line x1="146.0" y1="66.2" x2="156.5" y2="66.2" stroke="#141413" stroke-width="1.5"/>
<line x1="156.5" y1="66.2" x2="167.0" y2="66.2" stroke="#141413" stroke-width="1.5"/>
<line x1="161.8" y1="66.2" x2="161.8" y2="57.0" stroke="#141413" stroke-width="1.5"/>
<line x1="167.0" y1="66.2" x2="177.5" y2="66.2" stroke="#141413" stroke-width="1.5"/>
<line x1="177.5" y1="66.2" x2="188.0" y2="66.2" stroke="#141413" stroke-width="1.5"/>
<line x1="188.0" y1="66.2" x2="198.5" y2="66.2" stroke="#141413" stroke-width="1.5"/>
<line x1="198.5" y1="66.2" x2="209.0" y2="66.2" stroke="#141413" stroke-width="1.5"/>
<line x1="209.0" y1="66.2" x2="219.5" y2="66.2" stroke="#141413" stroke-width="1.5"/>
<line x1="219.5" y1="66.2" x2="230.0" y2="66.2" stroke="#141413" stroke-width="1.5"/>
<line x1="230.0" y1="66.2" x2="240.5" y2="66.2" stroke="#141413" stroke-width="1.5"/>
<line x1="240.5" y1="66.2" x2="251.0" y2="66.2" stroke="#141413" stroke-width="1.5"/>
<line x1="251.0" y1="66.2" x2="261.5" y2="66.2" stroke="#141413" stroke-width="1.5"/>
<line x1="261.5" y1="66.2" x2="272.0" y2="66.2" stroke="#141413" stroke-width="1.5"/>
<line x1="266.8" y1="66.2" x2="266.8" y2="57.0" stroke="#141413" stroke-width="1.5"/>
<line x1="272.0" y1="66.2" x2="282.5" y2="66.2" stroke="#141413" stroke-width="1.5"/>
<line x1="282.5" y1="66.2" x2="293.0" y2="66.2" stroke="#141413" stroke-width="1.5"/>
<line x1="293.0" y1="66.2" x2="303.5" y2="66.2" stroke="#141413" stroke-width="1.5"/>
<line x1="303.5" y1="66.2" x2="314.0" y2="66.2" stroke="#141413" stroke-width="1.5"/>
<line x1="314.0" y1="66.2" x2="324.5" y2="66.2" stroke="#141413" stroke-width="1.5"/>
<line x1="324.5" y1="66.2" x2="335.0" y2="66.2" stroke="#141413" stroke-width="1.5"/>
<line x1="335.0" y1="66.2" x2="345.5" y2="66.2" stroke="#141413" stroke-width="1.5"/>
<line x1="345.5" y1="66.2" x2="356.0" y2="66.2" stroke="#141413" stroke-width="1.5"/>
<line x1="356.0" y1="66.2" x2="366.5" y2="66.2" stroke="#141413" stroke-width="1.5"/>
<polyline points="366.5,66.2 377.0,66.2 377.0,75.5" fill="none" stroke="#141413" stroke-width="1.5"/>
<line x1="455.2" y1="57.0" x2="455.2" y2="75.5" stroke="#141413" stroke-width="1.5"/>
<line x1="24.8" y1="75.5" x2="24.8" y2="94.0" stroke="#141413" stroke-width="1.5"/>
<line x1="56.2" y1="75.5" x2="56.2" y2="94.0" stroke="#141413" stroke-width="1.5"/>
<text x="73.5" y="89.0" fill="#141413" font-size="12" font-family="monospace">A</text>
<text x="84.0" y="89.0" fill="#141413" font-size="12" font-family="monospace">g</text>
<text x="94.5" y="89.0" fill="#141413" font-size="12" font-family="monospace">e</text>
<text x="105.0" y="89.0" fill="#141413" font-size="12" font-family="monospace">n</text>
<text x="115.5" y="89.0" fill="#141413" font-size="12" font-family="monospace">t</text>
<text x="136.5" y="89.0" fill="#141413" font-size="12" font-family="monospace">A</text>
<line x1="161.2" y1="75.5" x2="161.2" y2="94.0" stroke="#141413" stroke-width="1.5"/>
<text x="178.5" y="89.0" fill="#141413" font-size="12" font-family="monospace">A</text>
<text x="189.0" y="89.0" fill="#141413" font-size="12" font-family="monospace">g</text>
<text x="199.5" y="89.0" fill="#141413" font-size="12" font-family="monospace">e</text>
<text x="210.0" y="89.0" fill="#141413" font-size="12" font-family="monospace">n</text>
<text x="220.5" y="89.0" fill="#141413" font-size="12" font-family="monospace">t</text>
<text x="241.5" y="89.0" fill="#141413" font-size="12" font-family="monospace">B</text>
<line x1="266.2" y1="75.5" x2="266.2" y2="94.0" stroke="#141413" stroke-width="1.5"/>
<text x="283.5" y="89.0" fill="#141413" font-size="12" font-family="monospace">A</text>
<text x="294.0" y="89.0" fill="#141413" font-size="12" font-family="monospace">g</text>
<text x="304.5" y="89.0" fill="#141413" font-size="12" font-family="monospace">e</text>
<text x="315.0" y="89.0" fill="#141413" font-size="12" font-family="monospace">n</text>
<text x="325.5" y="89.0" fill="#141413" font-size="12" font-family="monospace">t</text>
<text x="346.5" y="89.0" fill="#141413" font-size="12" font-family="monospace">C</text>
<line x1="371.2" y1="75.5" x2="371.2" y2="94.0" stroke="#141413" stroke-width="1.5"/>
<line x1="455.2" y1="75.5" x2="455.2" y2="94.0" stroke="#141413" stroke-width="1.5"/>
<line x1="24.8" y1="94.0" x2="24.8" y2="112.5" stroke="#141413" stroke-width="1.5"/>
<line x1="56.2" y1="94.0" x2="56.2" y2="112.5" stroke="#141413" stroke-width="1.5"/>
<text x="63.0" y="107.5" fill="#141413" font-size="12" font-family="monospace">(</text>
<text x="73.5" y="107.5" fill="#141413" font-size="12" font-family="monospace">F</text>
<text x="84.0" y="107.5" fill="#141413" font-size="12" font-family="monospace">e</text>
<text x="94.5" y="107.5" fill="#141413" font-size="12" font-family="monospace">a</text>
<text x="105.0" y="107.5" fill="#141413" font-size="12" font-family="monospace">t</text>
<text x="115.5" y="107.5" fill="#141413" font-size="12" font-family="monospace">u</text>
<text x="126.0" y="107.5" fill="#141413" font-size="12" font-family="monospace">r</text>
<text x="136.5" y="107.5" fill="#141413" font-size="12" font-family="monospace">e</text>
<text x="147.0" y="107.5" fill="#141413" font-size="12" font-family="monospace">)</text>
<line x1="161.2" y1="94.0" x2="161.2" y2="112.5" stroke="#141413" stroke-width="1.5"/>
<text x="168.0" y="107.5" fill="#141413" font-size="12" font-family="monospace">(</text>
<text x="178.5" y="107.5" fill="#141413" font-size="12" font-family="monospace">F</text>
<text x="189.0" y="107.5" fill="#141413" font-size="12" font-family="monospace">e</text>
<text x="199.5" y="107.5" fill="#141413" font-size="12" font-family="monospace">a</text>
<text x="210.0" y="107.5" fill="#141413" font-size="12" font-family="monospace">t</text>
<text x="220.5" y="107.5" fill="#141413" font-size="12" font-family="monospace">u</text>
<text x="231.0" y="107.5" fill="#141413" font-size="12" font-family="monospace">r</text>
<text x="241.5" y="107.5" fill="#141413" font-size="12" font-family="monospace">e</text>
<text x="252.0" y="107.5" fill="#141413" font-size="12" font-family="monospace">)</text>
<line x1="266.2" y1="94.0" x2="266.2" y2="112.5" stroke="#141413" stroke-width="1.5"/>
<text x="273.0" y="107.5" fill="#141413" font-size="12" font-family="monospace">(</text>
<text x="283.5" y="107.5" fill="#141413" font-size="12" font-family="monospace">F</text>
<text x="294.0" y="107.5" fill="#141413" font-size="12" font-family="monospace">e</text>
<text x="304.5" y="107.5" fill="#141413" font-size="12" font-family="monospace">a</text>
<text x="315.0" y="107.5" fill="#141413" font-size="12" font-family="monospace">t</text>
<text x="325.5" y="107.5" fill="#141413" font-size="12" font-family="monospace">u</text>
<text x="336.0" y="107.5" fill="#141413" font-size="12" font-family="monospace">r</text>
<text x="346.5" y="107.5" fill="#141413" font-size="12" font-family="monospace">e</text>
<text x="357.0" y="107.5" fill="#141413" font-size="12" font-family="monospace">)</text>
<line x1="371.2" y1="94.0" x2="371.2" y2="112.5" stroke="#141413" stroke-width="1.5"/>
<line x1="455.2" y1="94.0" x2="455.2" y2="112.5" stroke="#141413" stroke-width="1.5"/>
<line x1="24.8" y1="112.5" x2="24.8" y2="131.0" stroke="#141413" stroke-width="1.5"/>
<polyline points="62.0,112.5 51.5,112.5 51.5,121.8" fill="none" stroke="#141413" stroke-width="1.5"/>
<line x1="62.0" y1="121.8" x2="72.5" y2="121.8" stroke="#141413" stroke-width="1.5"/>
<line x1="72.5" y1="121.8" x2="83.0" y2="121.8" stroke="#141413" stroke-width="1.5"/>
<line x1="83.0" y1="121.8" x2="93.5" y2="121.8" stroke="#141413" stroke-width="1.5"/>
<line x1="93.5" y1="121.8" x2="104.0" y2="121.8" stroke="#141413" stroke-width="1.5"/>
<line x1="104.0" y1="121.8" x2="114.5" y2="121.8" stroke="#141413" stroke-width="1.5"/>
<line x1="114.5" y1="121.8" x2="125.0" y2="121.8" stroke="#141413" stroke-width="1.5"/>
<line x1="125.0" y1="121.8" x2="135.5" y2="121.8" stroke="#141413" stroke-width="1.5"/>
<line x1="135.5" y1="121.8" x2="146.0" y2="121.8" stroke="#141413" stroke-width="1.5"/>
<line x1="146.0" y1="121.8" x2="156.5" y2="121.8" stroke="#141413" stroke-width="1.5"/>
<line x1="156.5" y1="121.8" x2="167.0" y2="121.8" stroke="#141413" stroke-width="1.5"/>
<line x1="161.8" y1="121.8" x2="161.8" y2="131.0" stroke="#141413" stroke-width="1.5"/>
<line x1="167.0" y1="121.8" x2="177.5" y2="121.8" stroke="#141413" stroke-width="1.5"/>
<line x1="177.5" y1="121.8" x2="188.0" y2="121.8" stroke="#141413" stroke-width="1.5"/>
<line x1="188.0" y1="121.8" x2="198.5" y2="121.8" stroke="#141413" stroke-width="1.5"/>
<line x1="198.5" y1="121.8" x2="209.0" y2="121.8" stroke="#141413" stroke-width="1.5"/>
<line x1="209.0" y1="121.8" x2="219.5" y2="121.8" stroke="#141413" stroke-width="1.5"/>
<line x1="219.5" y1="121.8" x2="230.0" y2="121.8" stroke="#141413" stroke-width="1.5"/>
<line x1="230.0" y1="121.8" x2="240.5" y2="121.8" stroke="#141413" stroke-width="1.5"/>
<line x1="240.5" y1="121.8" x2="251.0" y2="121.8" stroke="#141413" stroke-width="1.5"/>
<line x1="251.0" y1="121.8" x2="261.5" y2="121.8" stroke="#141413" stroke-width="1.5"/>
<line x1="261.5" y1="121.8" x2="272.0" y2="121.8" stroke="#141413" stroke-width="1.5"/>
<line x1="266.8" y1="121.8" x2="266.8" y2="131.0" stroke="#141413" stroke-width="1.5"/>
<line x1="272.0" y1="121.8" x2="282.5" y2="121.8" stroke="#141413" stroke-width="1.5"/>
<line x1="282.5" y1="121.8" x2="293.0" y2="121.8" stroke="#141413" stroke-width="1.5"/>
<line x1="293.0" y1="121.8" x2="303.5" y2="121.8" stroke="#141413" stroke-width="1.5"/>
<line x1="303.5" y1="121.8" x2="314.0" y2="121.8" stroke="#141413" stroke-width="1.5"/>
<line x1="314.0" y1="121.8" x2="324.5" y2="121.8" stroke="#141413" stroke-width="1.5"/>
<line x1="324.5" y1="121.8" x2="335.0" y2="121.8" stroke="#141413" stroke-width="1.5"/>
<line x1="335.0" y1="121.8" x2="345.5" y2="121.8" stroke="#141413" stroke-width="1.5"/>
<line x1="345.5" y1="121.8" x2="356.0" y2="121.8" stroke="#141413" stroke-width="1.5"/>
<line x1="356.0" y1="121.8" x2="366.5" y2="121.8" stroke="#141413" stroke-width="1.5"/>
<polyline points="366.5,112.5 377.0,112.5 377.0,121.8" fill="none" stroke="#141413" stroke-width="1.5"/>
<line x1="455.2" y1="112.5" x2="455.2" y2="131.0" stroke="#141413" stroke-width="1.5"/>
<line x1="24.8" y1="131.0" x2="24.8" y2="149.5" stroke="#141413" stroke-width="1.5"/>
<text x="126.0" y="144.5" fill="#141413" font-size="12" font-family="monospace">↓</text>
<text x="147.0" y="144.5" fill="#141413" font-size="12" font-family="monospace">共</text>
<text x="157.5" y="144.5" fill="#141413" font-size="12" font-family="monospace">享</text>
<text x="168.0" y="144.5" fill="#141413" font-size="12" font-family="monospace">领</text>
<text x="178.5" y="144.5" fill="#141413" font-size="12" font-family="monospace">域</text>
<text x="189.0" y="144.5" fill="#141413" font-size="12" font-family="monospace">知</text>
<text x="199.5" y="144.5" fill="#141413" font-size="12" font-family="monospace">识</text>
<line x1="413.2" y1="131.0" x2="413.2" y2="149.5" stroke="#141413" stroke-width="1.5"/>
<line x1="24.8" y1="149.5" x2="24.8" y2="168.0" stroke="#141413" stroke-width="1.5"/>
<polyline points="83.0,158.8 72.5,158.8 72.5,168.0" fill="none" stroke="#141413" stroke-width="1.5"/>
<line x1="83.0" y1="158.8" x2="93.5" y2="158.8" stroke="#141413" stroke-width="1.5"/>
<line x1="93.5" y1="158.8" x2="104.0" y2="158.8" stroke="#141413" stroke-width="1.5"/>
<line x1="104.0" y1="158.8" x2="114.5" y2="158.8" stroke="#141413" stroke-width="1.5"/>
<line x1="114.5" y1="158.8" x2="125.0" y2="158.8" stroke="#141413" stroke-width="1.5"/>
<line x1="125.0" y1="158.8" x2="135.5" y2="158.8" stroke="#141413" stroke-width="1.5"/>
<line x1="135.5" y1="158.8" x2="146.0" y2="158.8" stroke="#141413" stroke-width="1.5"/>
<line x1="146.0" y1="158.8" x2="156.5" y2="158.8" stroke="#141413" stroke-width="1.5"/>
<line x1="156.5" y1="158.8" x2="167.0" y2="158.8" stroke="#141413" stroke-width="1.5"/>
<line x1="167.0" y1="158.8" x2="177.5" y2="158.8" stroke="#141413" stroke-width="1.5"/>
<line x1="177.5" y1="158.8" x2="188.0" y2="158.8" stroke="#141413" stroke-width="1.5"/>
<line x1="188.0" y1="158.8" x2="198.5" y2="158.8" stroke="#141413" stroke-width="1.5"/>
<line x1="198.5" y1="158.8" x2="209.0" y2="158.8" stroke="#141413" stroke-width="1.5"/>
<line x1="209.0" y1="158.8" x2="219.5" y2="158.8" stroke="#141413" stroke-width="1.5"/>
<polyline points="219.5,158.8 230.0,158.8 230.0,168.0" fill="none" stroke="#141413" stroke-width="1.5"/>
<line x1="455.2" y1="149.5" x2="455.2" y2="168.0" stroke="#141413" stroke-width="1.5"/>
<line x1="24.8" y1="168.0" x2="24.8" y2="186.5" stroke="#141413" stroke-width="1.5"/>
<line x1="77.2" y1="168.0" x2="77.2" y2="186.5" stroke="#141413" stroke-width="1.5"/>
<text x="94.5" y="181.5" fill="#141413" font-size="12" font-family="monospace">S</text>
<text x="105.0" y="181.5" fill="#141413" font-size="12" font-family="monospace">h</text>
<text x="115.5" y="181.5" fill="#141413" font-size="12" font-family="monospace">a</text>
<text x="126.0" y="181.5" fill="#141413" font-size="12" font-family="monospace">r</text>
<text x="136.5" y="181.5" fill="#141413" font-size="12" font-family="monospace">e</text>
<text x="147.0" y="181.5" fill="#141413" font-size="12" font-family="monospace">d</text>
<line x1="224.2" y1="168.0" x2="224.2" y2="186.5" stroke="#141413" stroke-width="1.5"/>
<line x1="455.2" y1="168.0" x2="455.2" y2="186.5" stroke="#141413" stroke-width="1.5"/>
<line x1="24.8" y1="186.5" x2="24.8" y2="205.0" stroke="#141413" stroke-width="1.5"/>
<line x1="77.2" y1="186.5" x2="77.2" y2="205.0" stroke="#141413" stroke-width="1.5"/>
<text x="94.5" y="200.0" fill="#141413" font-size="12" font-family="monospace">K</text>
<text x="105.0" y="200.0" fill="#141413" font-size="12" font-family="monospace">n</text>
<text x="115.5" y="200.0" fill="#141413" font-size="12" font-family="monospace">o</text>
<text x="126.0" y="200.0" fill="#141413" font-size="12" font-family="monospace">w</text>
<text x="136.5" y="200.0" fill="#141413" font-size="12" font-family="monospace">l</text>
<text x="147.0" y="200.0" fill="#141413" font-size="12" font-family="monospace">e</text>
<text x="157.5" y="200.0" fill="#141413" font-size="12" font-family="monospace">d</text>
<text x="168.0" y="200.0" fill="#141413" font-size="12" font-family="monospace">g</text>
<text x="178.5" y="200.0" fill="#141413" font-size="12" font-family="monospace">e</text>
<line x1="224.2" y1="186.5" x2="224.2" y2="205.0" stroke="#141413" stroke-width="1.5"/>
<line x1="455.2" y1="186.5" x2="455.2" y2="205.0" stroke="#141413" stroke-width="1.5"/>
<line x1="24.8" y1="205.0" x2="24.8" y2="223.5" stroke="#141413" stroke-width="1.5"/>
<line x1="77.2" y1="205.0" x2="77.2" y2="223.5" stroke="#141413" stroke-width="1.5"/>
<text x="94.5" y="218.5" fill="#141413" font-size="12" font-family="monospace">B</text>
<text x="105.0" y="218.5" fill="#141413" font-size="12" font-family="monospace">a</text>
<text x="115.5" y="218.5" fill="#141413" font-size="12" font-family="monospace">s</text>
<text x="126.0" y="218.5" fill="#141413" font-size="12" font-family="monospace">e</text>
<line x1="224.2" y1="205.0" x2="224.2" y2="223.5" stroke="#141413" stroke-width="1.5"/>
<line x1="455.2" y1="205.0" x2="455.2" y2="223.5" stroke="#141413" stroke-width="1.5"/>
<line x1="24.8" y1="223.5" x2="24.8" y2="242.0" stroke="#141413" stroke-width="1.5"/>
<polyline points="83.0,223.5 72.5,223.5 72.5,232.8" fill="none" stroke="#141413" stroke-width="1.5"/>
<line x1="83.0" y1="232.8" x2="93.5" y2="232.8" stroke="#141413" stroke-width="1.5"/>
<line x1="93.5" y1="232.8" x2="104.0" y2="232.8" stroke="#141413" stroke-width="1.5"/>
<line x1="104.0" y1="232.8" x2="114.5" y2="232.8" stroke="#141413" stroke-width="1.5"/>
<line x1="114.5" y1="232.8" x2="125.0" y2="232.8" stroke="#141413" stroke-width="1.5"/>
<line x1="125.0" y1="232.8" x2="135.5" y2="232.8" stroke="#141413" stroke-width="1.5"/>
<line x1="135.5" y1="232.8" x2="146.0" y2="232.8" stroke="#141413" stroke-width="1.5"/>
<line x1="146.0" y1="232.8" x2="156.5" y2="232.8" stroke="#141413" stroke-width="1.5"/>
<line x1="156.5" y1="232.8" x2="167.0" y2="232.8" stroke="#141413" stroke-width="1.5"/>
<line x1="167.0" y1="232.8" x2="177.5" y2="232.8" stroke="#141413" stroke-width="1.5"/>
<line x1="177.5" y1="232.8" x2="188.0" y2="232.8" stroke="#141413" stroke-width="1.5"/>
<line x1="188.0" y1="232.8" x2="198.5" y2="232.8" stroke="#141413" stroke-width="1.5"/>
<line x1="198.5" y1="232.8" x2="209.0" y2="232.8" stroke="#141413" stroke-width="1.5"/>
<line x1="209.0" y1="232.8" x2="219.5" y2="232.8" stroke="#141413" stroke-width="1.5"/>
<polyline points="219.5,223.5 230.0,223.5 230.0,232.8" fill="none" stroke="#141413" stroke-width="1.5"/>
<line x1="455.2" y1="223.5" x2="455.2" y2="242.0" stroke="#141413" stroke-width="1.5"/>
<polyline points="30.5,242.0 20.0,242.0 20.0,251.2" fill="none" stroke="#141413" stroke-width="1.5"/>
<line x1="30.5" y1="251.2" x2="41.0" y2="251.2" stroke="#141413" stroke-width="1.5"/>
<line x1="41.0" y1="251.2" x2="51.5" y2="251.2" stroke="#141413" stroke-width="1.5"/>
<line x1="51.5" y1="251.2" x2="62.0" y2="251.2" stroke="#141413" stroke-width="1.5"/>
<line x1="62.0" y1="251.2" x2="72.5" y2="251.2" stroke="#141413" stroke-width="1.5"/>
<line x1="72.5" y1="251.2" x2="83.0" y2="251.2" stroke="#141413" stroke-width="1.5"/>
<line x1="83.0" y1="251.2" x2="93.5" y2="251.2" stroke="#141413" stroke-width="1.5"/>
<line x1="93.5" y1="251.2" x2="104.0" y2="251.2" stroke="#141413" stroke-width="1.5"/>
<line x1="104.0" y1="251.2" x2="114.5" y2="251.2" stroke="#141413" stroke-width="1.5"/>
<line x1="114.5" y1="251.2" x2="125.0" y2="251.2" stroke="#141413" stroke-width="1.5"/>
<line x1="125.0" y1="251.2" x2="135.5" y2="251.2" stroke="#141413" stroke-width="1.5"/>
<line x1="135.5" y1="251.2" x2="146.0" y2="251.2" stroke="#141413" stroke-width="1.5"/>
<line x1="146.0" y1="251.2" x2="156.5" y2="251.2" stroke="#141413" stroke-width="1.5"/>
<line x1="156.5" y1="251.2" x2="167.0" y2="251.2" stroke="#141413" stroke-width="1.5"/>
<line x1="167.0" y1="251.2" x2="177.5" y2="251.2" stroke="#141413" stroke-width="1.5"/>
<line x1="177.5" y1="251.2" x2="188.0" y2="251.2" stroke="#141413" stroke-width="1.5"/>
<line x1="188.0" y1="251.2" x2="198.5" y2="251.2" stroke="#141413" stroke-width="1.5"/>
<line x1="198.5" y1="251.2" x2="209.0" y2="251.2" stroke="#141413" stroke-width="1.5"/>
<line x1="209.0" y1="251.2" x2="219.5" y2="251.2" stroke="#141413" stroke-width="1.5"/>
<line x1="219.5" y1="251.2" x2="230.0" y2="251.2" stroke="#141413" stroke-width="1.5"/>
<line x1="230.0" y1="251.2" x2="240.5" y2="251.2" stroke="#141413" stroke-width="1.5"/>
<line x1="240.5" y1="251.2" x2="251.0" y2="251.2" stroke="#141413" stroke-width="1.5"/>
<line x1="251.0" y1="251.2" x2="261.5" y2="251.2" stroke="#141413" stroke-width="1.5"/>
<line x1="261.5" y1="251.2" x2="272.0" y2="251.2" stroke="#141413" stroke-width="1.5"/>
<line x1="272.0" y1="251.2" x2="282.5" y2="251.2" stroke="#141413" stroke-width="1.5"/>
<line x1="282.5" y1="251.2" x2="293.0" y2="251.2" stroke="#141413" stroke-width="1.5"/>
<line x1="293.0" y1="251.2" x2="303.5" y2="251.2" stroke="#141413" stroke-width="1.5"/>
<line x1="303.5" y1="251.2" x2="314.0" y2="251.2" stroke="#141413" stroke-width="1.5"/>
<line x1="314.0" y1="251.2" x2="324.5" y2="251.2" stroke="#141413" stroke-width="1.5"/>
<line x1="324.5" y1="251.2" x2="335.0" y2="251.2" stroke="#141413" stroke-width="1.5"/>
<line x1="335.0" y1="251.2" x2="345.5" y2="251.2" stroke="#141413" stroke-width="1.5"/>
<line x1="345.5" y1="251.2" x2="356.0" y2="251.2" stroke="#141413" stroke-width="1.5"/>
<line x1="356.0" y1="251.2" x2="366.5" y2="251.2" stroke="#141413" stroke-width="1.5"/>
<line x1="366.5" y1="251.2" x2="377.0" y2="251.2" stroke="#141413" stroke-width="1.5"/>
<line x1="377.0" y1="251.2" x2="387.5" y2="251.2" stroke="#141413" stroke-width="1.5"/>
<line x1="387.5" y1="251.2" x2="398.0" y2="251.2" stroke="#141413" stroke-width="1.5"/>
<line x1="398.0" y1="251.2" x2="408.5" y2="251.2" stroke="#141413" stroke-width="1.5"/>
<line x1="408.5" y1="251.2" x2="419.0" y2="251.2" stroke="#141413" stroke-width="1.5"/>
<line x1="419.0" y1="251.2" x2="429.5" y2="251.2" stroke="#141413" stroke-width="1.5"/>
<line x1="429.5" y1="251.2" x2="440.0" y2="251.2" stroke="#141413" stroke-width="1.5"/>
<line x1="440.0" y1="251.2" x2="450.5" y2="251.2" stroke="#141413" stroke-width="1.5"/>
<line x1="450.5" y1="251.2" x2="461.0" y2="251.2" stroke="#141413" stroke-width="1.5"/>
<polyline points="461.0,242.0 471.5,242.0 471.5,251.2" fill="none" stroke="#141413" stroke-width="1.5"/>

</svg>