<svg xmlns="http://www.w3.org/2000/svg" viewBox="0 0 900 520"><path fill="#faf9f5" d="M0 0h900v520H0z"/><defs><filter id="shadow" width="120%" height="120%" x="-10%" y="-10%"><feDropShadow dx="0" dy="2" flood-color="#141413" flood-opacity=".08" stdDeviation="4"/></filter></defs><text x="450" y="35" fill="#141413" font-family="system-ui, sans-serif" font-size="18" font-weight="700" text-anchor="middle">智能数据流水线：自愈 · 自适应 · 自优化</text><text x="450" y="57" fill="#87867f" font-family="system-ui, sans-serif" font-size="12" text-anchor="middle">Self-Healing · Self-Adaptive · Self-Optimizing Data Pipeline</text><g transform="translate(30 85)"><rect width="270" height="360" fill="#fff" stroke="#d97757" stroke-width="2" filter="url(#shadow)" rx="12"/><rect width="270" height="44" fill="#d97757" rx="12"/><path fill="#d97757" d="M0 32h270v16H0z"/><text x="135" y="28" fill="#fff" font-family="system-ui, sans-serif" font-size="14" font-weight="700" text-anchor="middle">自愈 Self-Healing</text><g transform="translate(20 60)"><rect width="230" height="30" fill="#faf9f5" stroke="#e3dacc" rx="6"/><text x="115" y="19" fill="#141413" font-family="system-ui, sans-serif" font-size="10" font-weight="600" text-anchor="middle">数据源 Input</text><path fill="none" stroke="#d1cfc5" stroke-width="1.5" marker-end="url(#arrow)" d="M115 30v18"/><rect width="230" height="44" y="50" fill="#faf9f5" stroke="#788c5d" stroke-width="1.5" rx="6"/><text x="115" y="67" fill="#788c5d" font-family="system-ui, sans-serif" font-size="10" font-weight="700" text-anchor="middle">Schema 漂移检测</text><text x="115" y="82" fill="#87867f" font-family="system-ui, sans-serif" font-size="9" text-anchor="middle">自动适应新 Schema</text><path fill="none" stroke="#d1cfc5" stroke-width="1.5" d="M115 94v18"/><rect width="230" height="44" y="114" fill="#faf9f5" stroke="#788c5d" stroke-width="1.5" rx="6"/><text x="115" y="131" fill="#788c5d" font-family="system-ui, sans-serif" font-size="10" font-weight="700" text-anchor="middle">质量监控</text><text x="115" y="146" fill="#87867f" font-family="system-ui, sans-serif" font-size="9" text-anchor="middle">异常自动隔离/修复</text><path fill="none" stroke="#d1cfc5" stroke-width="1.5" d="M115 158v18"/><rect width="230" height="44" y="178" fill="#faf9f5" stroke="#788c5d" stroke-width="1.5" rx="6"/><text x="115" y="195" fill="#788c5d" font-family="system-ui, sans-serif" font-size="10" font-weight="700" text-anchor="middle">智能路由</text><text x="115" y="210" fill="#87867f" font-family="system-ui, sans-serif" font-size="9" text-anchor="middle">自动优化数据路径</text><path fill="none" stroke="#d1cfc5" stroke-width="1.5" d="M115 222v18"/><rect width="230" height="30" y="242" fill="#788c5d" fill-opacity=".15" stroke="#788c5d" rx="6"/><text x="115" y="261" fill="#788c5d" font-family="system-ui, sans-serif" font-size="10" font-weight="700" text-anchor="middle">✓ 输出</text></g><g transform="translate(20 310)"><rect width="230" height="38" fill="#d97757" fill-opacity=".1" stroke="#d97757" rx="6"/><text x="115" y="16" fill="#d97757" font-family="system-ui, sans-serif" font-size="9" font-weight="600" text-anchor="middle">异常处理</text><text x="115" y="30" fill="#87867f" font-family="system-ui, sans-serif" font-size="9" text-anchor="middle">故障自动恢复或升级</text></g></g><path fill="none" stroke="#d1cfc5" stroke-width="2" d="M305 265h30"/><path fill="#d1cfc5" d="m335 265-6-4v8z"/><g transform="translate(340 85)"><rect width="270" height="360" fill="#fff" stroke="#788c5d" stroke-width="2" filter="url(#shadow)" rx="12"/><rect width="270" height="44" fill="#788c5d" rx="12"/><path fill="#788c5d" d="M0 32h270v16H0z"/><text x="135" y="28" fill="#fff" font-family="system-ui, sans-serif" font-size="14" font-weight="700" text-anchor="middle">自适应 Self-Adaptive</text><g transform="translate(15 60)"><rect width="240" height="70" fill="#faf9f5" stroke="#e3dacc" stroke-width="1.5" rx="8"/><text x="120" y="18" fill="#141413" font-family="system-ui, sans-serif" font-size="10" font-weight="700" text-anchor="middle">负载自适应</text><path stroke="#e3dacc" d="M20 28h200"/><text x="20" y="44" fill="#87867f" font-family="system-ui, sans-serif" font-size="9">监控：数据到达速率</text><text x="20" y="58" fill="#788c5d" font-family="system-ui, sans-serif" font-size="9">响应：自动扩缩容处理资源</text></g><g transform="translate(15 140)"><rect width="240" height="70" fill="#faf9f5" stroke="#e3dacc" stroke-width="1.5" rx="8"/><text x="120" y="18" fill="#141413" font-family="system-ui, sans-serif" font-size="10" font-weight="700" text-anchor="middle">质量自适应</text><path stroke="#e3dacc" d="M20 28h200"/><text x="20" y="44" fill="#87867f" font-family="system-ui, sans-serif" font-size="9">监控：数据质量分数</text><text x="20" y="58" fill="#788c5d" font-family="system-ui, sans-serif" font-size="9">响应：质量下降时切换备用数据源</text></g><g transform="translate(15 220)"><rect width="240" height="70" fill="#faf9f5" stroke="#e3dacc" stroke-width="1.5" rx="8"/><text x="120" y="18" fill="#141413" font-family="system-ui, sans-serif" font-size="10" font-weight="700" text-anchor="middle">优先级自适应</text><path stroke="#e3dacc" d="M20 28h200"/><text x="20" y="44" fill="#87867f" font-family="system-ui, sans-serif" font-size="9">监控：业务重要性</text><text x="20" y="58" fill="#788c5d" font-family="system-ui, sans-serif" font-size="9">响应：高优先级数据优先处理</text></g></g><path fill="none" stroke="#d1cfc5" stroke-width="2" d="M615 265h30"/><path fill="#d1cfc5" d="m645 265-6-4v8z"/><g transform="translate(650 85)"><rect width="240" height="360" fill="#fff" stroke="#141413" stroke-width="2" filter="url(#shadow)" rx="12"/><rect width="240" height="44" fill="#141413" rx="12"/><path fill="#141413" d="M0 32h240v16H0z"/><text x="120" y="28" fill="#fff" font-family="system-ui, sans-serif" font-size="14" font-weight="700" text-anchor="middle">自优化 Self-Optimizing</text><g transform="translate(15 60)"><rect width="210" height="50" fill="#faf9f5" stroke="#e3dacc" rx="6"/><text x="105" y="18" fill="#141413" font-family="system-ui, sans-serif" font-size="10" font-weight="700" text-anchor="middle">1. 查询模式学习</text><text x="105" y="36" fill="#87867f" font-family="system-ui, sans-serif" font-size="9" text-anchor="middle">分析历史查询行为</text><path fill="none" stroke="#d1cfc5" stroke-width="1.5" d="M105 50v12"/></g><g transform="translate(15 125)"><rect width="210" height="50" fill="#faf9f5" stroke="#e3dacc" rx="6"/><text x="105" y="18" fill="#141413" font-family="system-ui, sans-serif" font-size="10" font-weight="700" text-anchor="middle">2. 自动索引建议</text><text x="105" y="36" fill="#87867f" font-family="system-ui, sans-serif" font-size="9" text-anchor="middle">何时创建索引最有效</text><path fill="none" stroke="#d1cfc5" stroke-width="1.5" d="M105 50v12"/></g><g transform="translate(15 190)"><rect width="210" height="50" fill="#faf9f5" stroke="#e3dacc" rx="6"/><text x="105" y="18" fill="#141413" font-family="system-ui, sans-serif" font-size="10" font-weight="700" text-anchor="middle">3. 查询重写优化</text><text x="105" y="36" fill="#87867f" font-family="system-ui, sans-serif" font-size="9" text-anchor="middle">提升查询性能</text><path fill="none" stroke="#d1cfc5" stroke-width="1.5" d="M105 50v12"/></g><g transform="translate(15 255)"><rect width="210" height="50" fill="#faf9f5" stroke="#e3dacc" rx="6"/><text x="105" y="18" fill="#141413" font-family="system-ui, sans-serif" font-size="10" font-weight="700" text-anchor="middle">4. 缓存策略优化</text><text x="105" y="36" fill="#87867f" font-family="system-ui, sans-serif" font-size="9" text-anchor="middle">智能缓存预热</text></g><g transform="translate(15 315)"><rect width="210" height="38" fill="#141413" rx="6"/><text x="105" y="16" fill="#d1cfc5" font-family="monospace" font-size="8" text-anchor="middle">if is_cache_friendly(query):</text><text x="105" y="30" fill="#788c5d" font-family="monospace" font-size="8" text-anchor="middle">execute_with_caching()</text></g></g><path stroke="#e3dacc" d="M40 460h820"/><text x="450" y="480" fill="#87867f" font-family="system-ui, sans-serif" font-size="10" text-anchor="middle">传统数据流水线：静态 · 被动 · 手动</text><text x="450" y="498" fill="#d97757" font-family="system-ui, sans-serif" font-size="10" text-anchor="middle">智能数据流水线：动态 · 主动 · 自动化</text></svg>