<svg xmlns="http://www.w3.org/2000/svg" font-family="ui-serif, Georgia, serif" viewBox="0 0 560 140">
  <path fill="#faf9f5" d="M0 0h560v140H0z"/>
  <text x="280" y="18" fill="#141413" font-size="12" font-weight="500" letter-spacing="-.02em" text-anchor="middle">Agent 增强型：PM → Dev → Ops 流水线</text>
  <text x="280" y="32" fill="#87867f" font-family="ui-monospace, monospace" font-size="9" text-anchor="middle">postcodeengineering.com · 2026/03/15</text>
  <rect width="130" height="70" x="30" y="50" fill="#fff" stroke="#d97757" stroke-width="1.8" rx="6"/>
  <rect width="130" height="18" x="30" y="50" fill="#fef3c7" stroke="#d97757" rx="6"/>
  <text x="95" y="64" fill="#d97757" font-family="ui-monospace, monospace" font-size="9" font-weight="600" text-anchor="middle">PM（人类）</text>
  <text x="95" y="84" fill="#141413" font-size="8.5" text-anchor="middle">需求分析 Agent</text>
  <text x="95" y="97" fill="#141413" font-size="8.5" text-anchor="middle">竞品监控 Agent</text>
  <text x="95" y="110" fill="#87867f" font-size="8" text-anchor="middle">制定决策</text>
  <path stroke="#d1cfc5" stroke-width="1.5" d="M160 85h26"/>
  <path fill="#d1cfc5" d="m186 81 8 4-8 4z"/>
  <rect width="130" height="70" x="194" y="50" fill="#fff" stroke="#2563eb" stroke-width="1.5" rx="6"/>
  <rect width="130" height="18" x="194" y="50" fill="#dbeafe" stroke="#2563eb" rx="6"/>
  <text x="259" y="64" fill="#2563eb" font-family="ui-monospace, monospace" font-size="9" font-weight="600" text-anchor="middle">Dev（人类）</text>
  <text x="259" y="84" fill="#141413" font-size="8.5" text-anchor="middle">代码生成 Agent</text>
  <text x="259" y="97" fill="#141413" font-size="8.5" text-anchor="middle">测试 Agent</text>
  <text x="259" y="110" fill="#87867f" font-size="8" text-anchor="middle">执行实现</text>
  <path stroke="#d1cfc5" stroke-width="1.5" d="M324 85h26"/>
  <path fill="#d1cfc5" d="m350 81 8 4-8 4z"/>
  <rect width="130" height="70" x="358" y="50" fill="#fff" stroke="#059669" stroke-width="1.5" rx="6"/>
  <rect width="130" height="18" x="358" y="50" fill="#d1fae5" stroke="#059669" rx="6"/>
  <text x="423" y="64" fill="#059669" font-family="ui-monospace, monospace" font-size="9" font-weight="600" text-anchor="middle">Ops（人类）</text>
  <text x="423" y="84" fill="#141413" font-size="8.5" text-anchor="middle">监控 Agent</text>
  <text x="423" y="97" fill="#141413" font-size="8.5" text-anchor="middle">自动修复 Agent</text>
  <text x="423" y="110" fill="#87867f" font-size="8" text-anchor="middle">负责部署</text>
  <text x="280" y="128" fill="#87867f" font-size="9" font-style="italic" text-anchor="middle">人类主导决策，Agent 辅助执行，形成流水线协作</text>
</svg>
