<svg xmlns="http://www.w3.org/2000/svg" font-family="ui-serif, Georgia, 'Times New Roman', serif" viewBox="0 0 600 400">
  <title>AI-Native 职责划分决策矩阵</title>
  <desc>
    三维度决策矩阵：决策复杂度、出错成本、情感需求，决定某项工作由 Agent 还是人类负责
  </desc>
  <path fill="#faf9f5" d="M0 0h600v400H0z"/>
  <text x="300" y="26" fill="#141413" font-size="14" font-weight="500" letter-spacing="-.02em" text-anchor="middle">AI-Native 职责划分决策矩阵</text>
  <text x="300" y="42" fill="#87867f" font-family="ui-monospace, monospace" font-size="10" text-anchor="middle">康威定律 2.0 · 职责划分原则</text>
  <rect width="440" height="32" x="80" y="58" fill="#d1cfc5" rx="4"/>
  <text x="160" y="78" fill="#141413" font-size="11" font-weight="600" text-anchor="middle">决策复杂度</text>
  <text x="300" y="78" fill="#141413" font-size="11" font-weight="600" text-anchor="middle">出错成本</text>
  <text x="440" y="78" fill="#141413" font-size="11" font-weight="600" text-anchor="middle">情感需求</text>
  <rect width="50" height="130" x="20" y="100" fill="#d97757" rx="4"/>
  <text x="45" y="165" fill="#fff" font-family="ui-monospace, monospace" font-size="10" font-weight="600" text-anchor="middle">→</text>
  <text x="45" y="178" fill="#fff" font-family="ui-monospace, monospace" font-size="10" font-weight="600" text-anchor="middle">Agent</text>
  <rect width="140" height="130" x="80" y="100" fill="#fff" stroke="#d97757" stroke-width="1.5" rx="4"/>
  <path fill="#d97757" d="m145 115-7 20h6l-8 20 16-25h-6l8-15z"/>
  <text x="150" y="172" fill="#141413" font-size="10" text-anchor="middle">低复杂度</text>
  <text x="150" y="188" fill="#87867f" font-size="9" text-anchor="middle">规则判断</text>
  <text x="150" y="202" fill="#87867f" font-size="9" text-anchor="middle">结构化任务</text>
  <text x="150" y="216" fill="#87867f" font-size="9" text-anchor="middle">重复性工作</text>
  <rect width="140" height="130" x="230" y="100" fill="#fff" stroke="#d97757" stroke-width="1.5" rx="4"/>
  <circle cx="300" cy="135" r="14" fill="none" stroke="#788c5d" stroke-width="2"/>
  <path fill="none" stroke="#788c5d" stroke-width="2" d="m292 135 5 5 12-12"/>
  <text x="300" y="172" fill="#141413" font-size="10" text-anchor="middle">低出错成本</text>
  <text x="300" y="188" fill="#87867f" font-size="9" text-anchor="middle">可逆操作</text>
  <text x="300" y="202" fill="#87867f" font-size="9" text-anchor="middle">自动恢复</text>
  <text x="300" y="216" fill="#87867f" font-size="9" text-anchor="middle">批量处理</text>
  <rect width="140" height="130" x="380" y="100" fill="#fff" stroke="#d97757" stroke-width="1.5" rx="4"/>
  <rect width="40" height="32" x="430" y="115" fill="none" stroke="#d97757" stroke-width="1.5" rx="6"/>
  <circle cx="442" cy="128" r="3" fill="#d97757"/>
  <circle cx="458" cy="128" r="3" fill="#d97757"/>
  <rect width="24" height="3" x="438" y="136" fill="#d97757" rx="1.5"/>
  <text x="450" y="172" fill="#141413" font-size="10" text-anchor="middle">无情感需求</text>
  <text x="450" y="188" fill="#87867f" font-size="9" text-anchor="middle">信息查询</text>
  <text x="450" y="202" fill="#87867f" font-size="9" text-anchor="middle">数据处理</text>
  <text x="450" y="216" fill="#87867f" font-size="9" text-anchor="middle">事务性对话</text>
  <path stroke="#d1cfc5" stroke-dasharray="4,3" d="M80 238h440"/>
  <rect width="50" height="130" x="20" y="248" fill="#d1cfc5" stroke="#d1cfc5" stroke-width="1.5" rx="4"/>
  <text x="45" y="313" fill="#141413" font-family="ui-monospace, monospace" font-size="10" font-weight="600" text-anchor="middle">→</text>
  <text x="45" y="326" fill="#141413" font-family="ui-monospace, monospace" font-size="10" font-weight="600" text-anchor="middle">人类</text>
  <rect width="140" height="130" x="80" y="248" fill="#fff" stroke="#d1cfc5" stroke-width="1.5" rx="4"/>
  <path fill="none" stroke="#141413" stroke-width="1.5" d="M145 260q-15-5-15 10t15 10q10 10 20 0 15 5 15-10t-15-10q-10-10-20 0"/>
  <text x="150" y="320" fill="#141413" font-size="10" text-anchor="middle">高复杂度决策</text>
  <text x="150" y="336" fill="#87867f" font-size="9" text-anchor="middle">战略判断</text>
  <text x="150" y="350" fill="#87867f" font-size="9" text-anchor="middle">跨领域权衡</text>
  <text x="150" y="364" fill="#87867f" font-size="9" text-anchor="middle">创新探索</text>
  <rect width="140" height="130" x="230" y="248" fill="#fff" stroke="#d1cfc5" stroke-width="1.5" rx="4"/>
  <path fill="none" stroke="#d97757" stroke-width="1.5" d="m300 258-15 30h30z"/>
  <path stroke="#d97757" stroke-width="2" d="M300 268v10"/>
  <circle cx="300" cy="283" r="2" fill="#d97757"/>
  <text x="300" y="320" fill="#141413" font-size="10" text-anchor="middle">高出错成本</text>
  <text x="300" y="336" fill="#87867f" font-size="9" text-anchor="middle">不可逆后果</text>
  <text x="300" y="350" fill="#87867f" font-size="9" text-anchor="middle">合规/法律风险</text>
  <text x="300" y="364" fill="#87867f" font-size="9" text-anchor="middle">声誉影响</text>
  <rect width="140" height="130" x="380" y="248" fill="#fff" stroke="#d1cfc5" stroke-width="1.5" rx="4"/>
  <path fill="none" stroke="#d97757" stroke-width="1.5" d="M450 270c0-10-10-15-15-10-5-5-15 0-15 10 0 15 15 25 30 38 15-13 30-23 30-38 0-10-10-15-15-10-5-5-15 0-15 10"/>
  <text x="450" y="320" fill="#141413" font-size="10" text-anchor="middle">高情感需求</text>
  <text x="450" y="336" fill="#87867f" font-size="9" text-anchor="middle">敏感对话</text>
  <text x="450" y="350" fill="#87867f" font-size="9" text-anchor="middle">冲突处理</text>
  <text x="450" y="364" fill="#87867f" font-size="9" text-anchor="middle">危机支持</text>
  <text x="300" y="392" fill="#87867f" font-family="ui-monospace, monospace" font-size="9" text-anchor="middle">康威定律 2.0 · 职责划分原则</text>
</svg>
