<svg xmlns="http://www.w3.org/2000/svg" font-family="'JetBrains Mono', 'Fira Code', 'SF Mono', monospace" viewBox="0 0 1100 740">
  <defs>
    <style>
      .text-main{fill:#141413;font-size:12px}.text-sm{fill:#87867f;font-size:10px}.text-label{fill:#141413;font-size:11px;font-weight:500}.border{stroke:#d1cfc5;stroke-width:1.5}.fill-blue{fill:#dbeafe;stroke:#2563eb}.fill-amber{fill:#fef3c7;stroke:#d97757;stroke-width:2}
    </style>
  </defs>
  <path d="M0 0h1100v740H0z" style="fill:#faf9f5"/>
  <text x="550" y="30" class="text-main" font-size="15" font-weight="700" text-anchor="middle">范式转移全景图：从传统 SOLID 到 AI-Native 新 SOLID</text>
  <text x="265" y="58" fill="#2563eb" class="text-main" font-size="13" font-weight="600" text-anchor="middle">传统 SOLID (OOP)</text>
  <text x="550" y="58" fill="#87867f" class="text-main" font-size="13" font-weight="600" text-anchor="middle">Interface 转变</text>
  <text x="835" y="58" fill="#d97757" class="text-main" font-size="13" font-weight="600" text-anchor="middle">新 SOLID (AI-Native)</text>
  <rect width="190" height="55" x="170" y="72" class="fill-blue border" rx="7"/>
  <text x="265" y="92" class="text-label" text-anchor="middle">Class</text>
  <path d="M265 97v16" class="border"/>
  <text x="265" y="118" class="text-sm" text-anchor="middle">Encapsulation</text>
  <rect width="190" height="28" x="170" y="142" class="fill-blue border" rx="5"/>
  <text x="265" y="161" class="text-main" font-size="11" text-anchor="middle">Encapsulation</text>
  <rect width="190" height="28" x="170" y="180" class="fill-blue border" rx="5"/>
  <text x="265" y="199" class="text-main" font-size="11" text-anchor="middle">Method</text>
  <rect width="190" height="28" x="170" y="218" class="fill-blue border" rx="5"/>
  <text x="265" y="237" class="text-main" font-size="11" text-anchor="middle">State (fields)</text>
  <path d="M265 127v15" class="border"/>
  <path d="m265 142-4-8h8z" class="fill-blue"/>
  <path d="m265 127 35 30" class="border"/>
  <path d="m300 157-6-6 6-6z" class="fill-blue"/>
  <path d="m265 127-35 30" class="border"/>
  <path d="m230 157 6-6-6-6z" class="fill-blue"/>
  <rect width="155" height="55" x="430" y="72" class="fill-blue border" rx="7"/>
  <text x="507" y="92" class="text-label" text-anchor="middle">Interface</text>
  <path d="M507 97v16" class="border"/>
  <text x="507" y="118" class="text-sm" text-anchor="middle">Static typing</text>
  <rect width="70" height="26" x="430" y="142" class="fill-blue border" rx="4"/>
  <text x="465" y="160" class="text-sm" text-anchor="middle">Static typing</text>
  <rect width="75" height="26" x="510" y="142" class="fill-blue border" rx="4"/>
  <text x="547" y="160" class="text-sm" text-anchor="middle">Compile check</text>
  <path d="m507 127-42 15" class="border"/>
  <path d="m465 142 7-6-7-6z" class="fill-blue"/>
  <path d="m507 127 40 15" class="border"/>
  <path d="m547 142-7-6 7-6z" class="fill-blue"/>
  <path stroke-width="2" d="M360 100h70" class="border"/>
  <path d="M360 93v14m70-14v14" class="border"/>
  <rect width="155" height="55" x="595" y="72" class="fill-amber border" rx="7"/>
  <text x="672" y="92" class="text-label" text-anchor="middle">Capability Contract</text>
  <path d="M672 97v16" class="border"/>
  <text x="672" y="118" class="text-sm" text-anchor="middle">Dynamic capability desc</text>
  <rect width="70" height="26" x="595" y="142" class="fill-amber border" rx="4"/>
  <text x="630" y="160" class="text-sm" text-anchor="middle">Dynamic desc</text>
  <rect width="75" height="26" x="675" y="142" class="fill-amber border" rx="4"/>
  <text x="712" y="160" class="text-sm" text-anchor="middle">Runtime validation</text>
  <path d="m672 127-42 15" class="border"/>
  <path d="m630 142 7-6-7-6z" class="fill-amber"/>
  <path d="m672 127 40 15" class="border"/>
  <path d="m712 142-7-6 7-6z" class="fill-amber"/>
  <path stroke-width="2" d="M585 100h75" class="border"/>
  <path d="M585 93v14m75-14v14" class="border"/>
  <path stroke="#d97757" stroke-dasharray="5 5" d="M360 100h235" class="border"/>
  <text x="477" y="93" fill="#d97757" class="text-sm" text-anchor="middle">抽象层次跃迁</text>
  <rect width="190" height="55" x="740" y="72" class="fill-amber border" rx="7"/>
  <text x="835" y="92" class="text-label" text-anchor="middle">Agent</text>
  <path d="M835 97v16" class="border"/>
  <text x="835" y="118" class="text-sm" text-anchor="middle">Context Management</text>
  <rect width="190" height="28" x="740" y="142" class="fill-amber border" rx="5"/>
  <text x="835" y="161" class="text-main" font-size="11" text-anchor="middle">Intent + Tool Calling</text>
  <rect width="190" height="28" x="740" y="180" class="fill-amber border" rx="5"/>
  <text x="835" y="199" class="text-main" font-size="11" text-anchor="middle">Memory + Working Context</text>
  <rect width="190" height="28" x="740" y="218" class="fill-amber border" rx="5"/>
  <text x="835" y="237" class="text-main" font-size="11" text-anchor="middle">Context Management</text>
  <path d="M835 127v15" class="border"/>
  <path d="m835 142-4-8h8z" class="fill-amber"/>
  <path d="m835 127-45 30" class="border"/>
  <path d="m790 157 7-6-7-6z" class="fill-amber"/>
  <path d="m835 127 45 30" class="border"/>
  <path d="m880 157-7-6 7-6z" class="fill-amber"/>
  <rect width="155" height="50" x="430" y="270" class="fill-blue border" rx="7"/>
  <text x="507" y="290" class="text-label" text-anchor="middle">Inheritance</text>
  <path d="M507 295v13" class="border"/>
  <text x="507" y="318" class="text-sm" text-anchor="middle">Is-a / Override</text>
  <rect width="70" height="26" x="430" y="335" class="fill-blue border" rx="4"/>
  <text x="465" y="353" class="text-sm" text-anchor="middle">Is-a relationship</text>
  <rect width="75" height="26" x="510" y="335" class="fill-blue border" rx="4"/>
  <text x="547" y="353" class="text-sm" text-anchor="middle">Method override</text>
  <path d="m507 320-42 15" class="border"/>
  <path d="m465 335 7-6-7-6z" class="fill-blue"/>
  <path d="m507 320 40 15" class="border"/>
  <path d="m547 335-7-6 7-6z" class="fill-blue"/>
  <path stroke-width="2" d="M360 295h70" class="border"/>
  <path d="M360 288v14m70-14v14" class="border"/>
  <rect width="155" height="50" x="595" y="270" class="fill-amber border" rx="7"/>
  <text x="672" y="290" class="text-label" text-anchor="middle">Composition + Prompting</text>
  <path d="M672 295v13" class="border"/>
  <text x="672" y="318" class="text-sm" text-anchor="middle">Has-capability / Prompt</text>
  <rect width="70" height="26" x="595" y="335" class="fill-amber border" rx="4"/>
  <text x="630" y="353" class="text-sm" text-anchor="middle">Has-capability</text>
  <rect width="75" height="26" x="675" y="335" class="fill-amber border" rx="4"/>
  <text x="712" y="353" class="text-sm" text-anchor="middle">Prompt template</text>
  <path d="m672 320-42 15" class="border"/>
  <path d="m630 335 7-6-7-6z" class="fill-amber"/>
  <path d="m672 320 40 15" class="border"/>
  <path d="m712 335-7-6 7-6z" class="fill-amber"/>
  <path stroke-width="2" d="M585 295h75" class="border"/>
  <path d="M585 288v14m75-14v14" class="border"/>
  <path stroke="#d97757" stroke-dasharray="5 5" d="M360 295h235" class="border"/>
  <text x="477" y="288" fill="#d97757" class="text-sm" text-anchor="middle">组合优于继承</text>
  <rect width="214" height="205" x="158" y="64" fill="none" rx="10" style="stroke:#d1cfc5;stroke-width:1.5;stroke-dasharray:5 4"/>
  <rect width="214" height="205" x="728" y="64" fill="none" stroke="#d97757" stroke-dasharray="5 4" rx="10"/>
  <rect width="1040" height="295" x="30" y="415" fill="none" class="border" rx="10"/>
  <text x="550" y="438" class="text-main" font-size="14" font-weight="700" text-anchor="middle">核心转变总结</text>
  <rect width="180" height="26" x="50" y="452" class="fill-blue border" rx="4"/>
  <text x="140" y="469" class="text-main" font-size="11" font-weight="600" text-anchor="middle">特性</text>
  <rect width="250" height="26" x="230" y="452" class="fill-blue border" rx="4"/>
  <text x="355" y="469" class="text-main" font-size="11" font-weight="600" text-anchor="middle">Class</text>
  <rect width="250" height="26" x="480" y="452" class="fill-amber border" rx="4"/>
  <text x="605" y="469" class="text-main" font-size="11" font-weight="600" text-anchor="middle">Agent</text>
  <rect width="230" height="26" x="730" y="452" class="border" rx="4"/>
  <text x="845" y="469" class="text-main" font-size="11" font-weight="600" text-anchor="middle">意义</text>
  <rect width="180" height="26" x="50" y="483" fill="none" class="border" rx="3"/>
  <text x="140" y="500" class="text-main" font-size="10" text-anchor="middle">激活方式</text>
  <rect width="250" height="26" x="230" y="483" fill="none" class="border" rx="3"/>
  <text x="355" y="500" class="text-main" font-size="10" text-anchor="middle">方法调用</text>
  <rect width="250" height="26" x="480" y="483" fill="none" class="border" rx="3"/>
  <text x="605" y="500" class="text-main" font-size="10" text-anchor="middle">Intent + Context</text>
  <rect width="230" height="26" x="730" y="483" fill="none" class="border" rx="3"/>
  <text x="845" y="500" fill="#788c5d" class="text-main" font-size="10" text-anchor="middle">从同步到异步</text>
  <rect width="180" height="26" x="50" y="514" fill="none" class="border" rx="3"/>
  <text x="140" y="531" class="text-main" font-size="10" text-anchor="middle">执行逻辑</text>
  <rect width="250" height="26" x="230" y="514" fill="none" class="border" rx="3"/>
  <text x="355" y="531" class="text-main" font-size="10" text-anchor="middle">确定性代码</text>
  <rect width="250" height="26" x="480" y="514" fill="none" class="border" rx="3"/>
  <text x="605" y="531" class="text-main" font-size="10" text-anchor="middle">LLM + Tool Calling</text>
  <rect width="230" height="26" x="730" y="514" fill="none" class="border" rx="3"/>
  <text x="845" y="531" fill="#788c5d" class="text-main" font-size="10" text-anchor="middle">从规则到推理</text>
  <rect width="180" height="26" x="50" y="545" fill="none" class="border" rx="3"/>
  <text x="140" y="562" class="text-main" font-size="10" text-anchor="middle">状态管理</text>
  <rect width="250" height="26" x="230" y="545" fill="none" class="border" rx="3"/>
  <text x="355" y="562" class="text-main" font-size="10" text-anchor="middle">字段封装</text>
  <rect width="250" height="26" x="480" y="545" fill="none" class="border" rx="3"/>
  <text x="605" y="562" class="text-main" font-size="10" text-anchor="middle">Context + Memory</text>
  <rect width="230" height="26" x="730" y="545" fill="none" class="border" rx="3"/>
  <text x="845" y="562" fill="#788c5d" class="text-main" font-size="10" text-anchor="middle">从本地到全局</text>
  <rect width="180" height="26" x="50" y="576" fill="none" class="border" rx="3"/>
  <text x="140" y="593" class="text-main" font-size="10" text-anchor="middle">能力扩展</text>
  <rect width="250" height="26" x="230" y="576" fill="none" class="border" rx="3"/>
  <text x="355" y="593" class="text-main" font-size="10" text-anchor="middle">继承 / 组合</text>
  <rect width="250" height="26" x="480" y="576" fill="none" class="border" rx="3"/>
  <text x="605" y="593" class="text-main" font-size="10" text-anchor="middle">Prompt + Tool 注册</text>
  <rect width="230" height="26" x="730" y="576" fill="none" class="border" rx="3"/>
  <text x="845" y="593" fill="#788c5d" class="text-main" font-size="10" text-anchor="middle">从编译到运行时</text>
  <rect width="180" height="26" x="50" y="607" fill="none" class="border" rx="3"/>
  <text x="140" y="624" class="text-main" font-size="10" text-anchor="middle">交互模式</text>
  <rect width="250" height="26" x="230" y="607" fill="none" class="border" rx="3"/>
  <text x="355" y="624" class="text-main" font-size="10" text-anchor="middle">Request / Response</text>
  <rect width="250" height="26" x="480" y="607" fill="none" class="border" rx="3"/>
  <text x="605" y="624" class="text-main" font-size="10" text-anchor="middle">多轮对话 + 自主决策</text>
  <rect width="230" height="26" x="730" y="607" fill="none" class="border" rx="3"/>
  <text x="845" y="624" fill="#788c5d" class="text-main" font-size="10" text-anchor="middle">从单次到持续</text>
  <rect width="14" height="14" x="50" y="648" class="fill-blue border" rx="3"/>
  <text x="70" y="660" class="text-sm">传统 OOP 概念</text>
  <rect width="14" height="14" x="200" y="648" stroke="#d97757" class="fill-amber border" rx="3"/>
  <text x="220" y="660" class="text-sm">AI-Native 新概念</text>
</svg>
