<svg xmlns="http://www.w3.org/2000/svg" font-family="ui-serif, Georgia, serif" viewBox="0 0 560 180">
  <path fill="#faf9f5" d="M0 0h560v180H0z"/>
  <text x="280" y="18" fill="#141413" font-size="12" font-weight="500" letter-spacing="-.02em" text-anchor="middle">人机成对协作：PM层 + 开发层</text>
  <text x="280" y="32" fill="#87867f" font-family="ui-monospace, monospace" font-size="9" text-anchor="middle">postcodeengineering.com · 2026/03/15</text>
  <rect width="240" height="90" x="30" y="50" fill="#fff" stroke="#d1cfc5" stroke-dasharray="4,3" stroke-width="1.5" rx="6"/>
  <text x="150" y="66" fill="#87867f" font-size="10" font-weight="600" text-anchor="middle">产品经理层</text>
  <rect width="100" height="50" x="50" y="78" fill="#fff" stroke="#2563eb" stroke-width="1.5" rx="5"/>
  <rect width="100" height="16" x="50" y="78" fill="#dbeafe" stroke="#2563eb" rx="5"/>
  <text x="100" y="91" fill="#2563eb" font-family="ui-monospace, monospace" font-size="9" font-weight="600" text-anchor="middle">PM Agent</text>
  <text x="100" y="108" fill="#141413" font-size="8.5" text-anchor="middle">数据收集</text>
  <text x="100" y="120" fill="#141413" font-size="8.5" text-anchor="middle">竞品分析</text>
  <path stroke="#d1cfc5" stroke-width="1.5" d="M150 103h20"/>
  <path fill="#d1cfc5" d="m150 99 6 4-6 4zm20 0-6 4 6 4z"/>
  <rect width="90" height="50" x="170" y="78" fill="#fff" stroke="#d97757" stroke-width="1.8" rx="5"/>
  <rect width="90" height="16" x="170" y="78" fill="#fef3c7" stroke="#d97757" rx="5"/>
  <text x="215" y="91" fill="#d97757" font-family="ui-monospace, monospace" font-size="9" font-weight="600" text-anchor="middle">PM（人类）</text>
  <text x="215" y="108" fill="#141413" font-size="8.5" text-anchor="middle">制定决策</text>
  <text x="215" y="120" fill="#141413" font-size="8.5" text-anchor="middle">验收确认</text>
  <path stroke="#d1cfc5" stroke-width="1.5" d="M150 140h250"/>
  <path fill="#d1cfc5" d="m150 136 6 4-6 4zm250 0-6 4 6 4z"/>
  <text x="275" y="136" fill="#87867f" font-size="8.5" text-anchor="middle">协作通信</text>
  <rect width="240" height="90" x="290" y="50" fill="#fff" stroke="#d1cfc5" stroke-dasharray="4,3" stroke-width="1.5" rx="6"/>
  <text x="410" y="66" fill="#87867f" font-size="10" font-weight="600" text-anchor="middle">开发层</text>
  <rect width="100" height="50" x="310" y="78" fill="#fff" stroke="#2563eb" stroke-width="1.5" rx="5"/>
  <rect width="100" height="16" x="310" y="78" fill="#dbeafe" stroke="#2563eb" rx="5"/>
  <text x="360" y="91" fill="#2563eb" font-family="ui-monospace, monospace" font-size="9" font-weight="600" text-anchor="middle">Dev Agent</text>
  <text x="360" y="108" fill="#141413" font-size="8.5" text-anchor="middle">代码生成</text>
  <text x="360" y="120" fill="#141413" font-size="8.5" text-anchor="middle">测试生成</text>
  <path stroke="#d1cfc5" stroke-width="1.5" d="M410 103h20"/>
  <path fill="#d1cfc5" d="m410 99 6 4-6 4zm20 0-6 4 6 4z"/>
  <rect width="90" height="50" x="430" y="78" fill="#fff" stroke="#d97757" stroke-width="1.8" rx="5"/>
  <rect width="90" height="16" x="430" y="78" fill="#fef3c7" stroke="#d97757" rx="5"/>
  <text x="475" y="91" fill="#d97757" font-family="ui-monospace, monospace" font-size="9" font-weight="600" text-anchor="middle">Dev（人类）</text>
  <text x="475" y="108" fill="#141413" font-size="8.5" text-anchor="middle">Code Review</text>
  <text x="475" y="120" fill="#141413" font-size="8.5" text-anchor="middle">架构决策</text>
  <text x="280" y="172" fill="#87867f" font-size="9" font-style="italic" text-anchor="middle">Agent ↔ Human 成对协作，Agent 承担执行，Human 负责决策</text>
</svg>
