<svg xmlns="http://www.w3.org/2000/svg" font-family="ui-serif, Georgia, 'Times New Roman', serif" viewBox="0 0 680 360"><path fill="#faf9f5" d="M0 0h680v360H0z"/><text x="340" y="26" fill="#141413" font-size="14" font-weight="500" letter-spacing="-.02em" text-anchor="middle">Human-AI Contract 三层接口架构</text><text x="340" y="42" fill="#87867f" font-family="ui-monospace, monospace" font-size="10" text-anchor="middle">Intent · Context · Prompt</text><rect width="100" height="100" x="30" y="130" fill="#fff" stroke="#d97757" stroke-width="1.8" rx="10"/><text x="80" y="162" fill="#141413" font-size="13" text-anchor="middle">人类</text><text x="80" y="178" fill="#87867f" font-size="11" text-anchor="middle">调用者</text><text x="80" y="194" fill="#87867f" font-size="10" text-anchor="middle">Caller</text><path stroke="#d97757" stroke-width="2" d="M130 165h28"/><path fill="#d97757" d="m165 165-8-4v8z"/><text x="148" y="158" fill="#d97757" font-family="ui-monospace, monospace" font-size="9" text-anchor="middle">Intent</text><rect width="160" height="130" x="172" y="100" fill="#fff" stroke="#d97757" stroke-width="1.8" rx="8"/><text x="252" y="122" fill="#d97757" font-family="ui-monospace, monospace" font-size="11" font-weight="600" text-anchor="middle">Intent 接口</text><text x="252" y="140" fill="#87867f" font-size="10" text-anchor="middle">我想要什么</text><rect width="132" height="22" x="186" y="150" fill="#f0eee6" stroke="#d1cfc5" rx="4"/><text x="252" y="165" fill="#141413" font-family="ui-monospace, monospace" font-size="10" text-anchor="middle">type: &quot;REFACTOR_CODE&quot;</text><rect width="132" height="22" x="186" y="178" fill="#f0eee6" stroke="#d1cfc5" rx="4"/><text x="252" y="193" fill="#141413" font-family="ui-monospace, monospace" font-size="10" text-anchor="middle">target: function_name</text><rect width="132" height="14" x="186" y="206" fill="#f0eee6" stroke="#d1cfc5" rx="4"/><text x="252" y="217" fill="#87867f" font-family="ui-monospace, monospace" font-size="9" text-anchor="middle">constraints: [...]</text><path stroke="#788c5d" stroke-width="2" d="M332 165h28"/><path fill="#788c5d" d="m367 165-8-4v8z"/><text x="348" y="158" fill="#788c5d" font-family="ui-monospace, monospace" font-size="9" text-anchor="middle">Context</text><rect width="160" height="130" x="374" y="100" fill="#fff" stroke="#788c5d" stroke-width="1.8" rx="8"/><text x="454" y="122" fill="#788c5d" font-family="ui-monospace, monospace" font-size="11" font-weight="600" text-anchor="middle">Context 接口</text><text x="454" y="140" fill="#87867f" font-size="10" text-anchor="middle">我给了什么</text><rect width="132" height="22" x="388" y="150" fill="#f0eee6" stroke="#d1cfc5" rx="4"/><text x="454" y="165" fill="#141413" font-family="ui-monospace, monospace" font-size="10" text-anchor="middle">project_metadata</text><rect width="132" height="22" x="388" y="178" fill="#f0eee6" stroke="#d1cfc5" rx="4"/><text x="454" y="193" fill="#141413" font-family="ui-monospace, monospace" font-size="10" text-anchor="middle">relevant_files[]</text><rect width="132" height="14" x="388" y="206" fill="#f0eee6" stroke="#d1cfc5" rx="4"/><text x="454" y="217" fill="#87867f" font-family="ui-monospace, monospace" font-size="9" text-anchor="middle">constraints / success_criteria</text><path stroke="#141413" stroke-width="2" d="M534 165h28"/><path fill="#141413" d="m569 165-8-4v8z"/><text x="550" y="158" fill="#141413" font-family="ui-monospace, monospace" font-size="9" text-anchor="middle">Prompt</text><rect width="100" height="100" x="576" y="130" fill="#fff" stroke="#141413" stroke-width="1.8" rx="10"/><text x="626" y="162" fill="#141413" font-size="13" text-anchor="middle">AI</text><text x="626" y="178" fill="#87867f" font-size="11" text-anchor="middle">服务提供者</text><text x="626" y="194" fill="#87867f" font-size="10" text-anchor="middle">Service Provider</text><rect width="220" height="72" x="230" y="268" fill="#fff" stroke="#d1cfc5" stroke-width="1.8" rx="8"/><text x="340" y="290" fill="#141413" font-family="ui-monospace, monospace" font-size="11" font-weight="600" text-anchor="middle">Prompt 接口</text><text x="340" y="308" fill="#87867f" font-size="10" text-anchor="middle">怎么表达（模板化、结构化）</text><text x="340" y="326" fill="#141413" font-family="ui-monospace, monospace" font-size="10" text-anchor="middle">{ intent, target, check, output_format }</text><path stroke="#d1cfc5" stroke-dasharray="4,3" stroke-width="1.2" d="M252 230v38m88-38v38m88-38v38"/><text x="40" y="300" fill="#87867f" font-family="ui-monospace, monospace" font-size="9">Intent = 我想要什么</text><text x="40" y="314" fill="#87867f" font-family="ui-monospace, monospace" font-size="9">Context = 我已知什么</text><text x="40" y="328" fill="#87867f" font-family="ui-monospace, monospace" font-size="9">Prompt = 怎么告诉 AI</text></svg>