<svg xmlns="http://www.w3.org/2000/svg" font-family="system-ui,-apple-system,sans-serif" viewBox="0 0 860 440"><rect width="860" height="440" fill="#faf9f5" rx="12"/><text x="30" y="38" fill="#141413" font-size="15" font-weight="700">Claude Skills 建设四阶段流程</text><text x="30" y="56" fill="#87867f" font-size="11">Saved Prompt vs Skill：质的区别，不是量的区别</text><rect width="190" height="200" x="30" y="78" fill="none" stroke="#788c5d" stroke-width="2" rx="10"/><rect width="190" height="34" x="30" y="78" fill="#788c5d" rx="10"/><path fill="#788c5d" d="M30 102h190v10H30z"/><text x="125" y="100" fill="#faf9f5" font-size="12" font-weight="700" text-anchor="middle">Phase 1</text><text x="125" y="128" fill="#141413" font-size="11" font-weight="700" text-anchor="middle">5 分钟安装</text><text x="125" y="148" fill="#141413" font-size="10" text-anchor="middle">首个 Skill</text><path stroke="#e3dacc" d="M30 158h190"/><text x="125" y="176" fill="#141413" font-size="10" text-anchor="middle">浏览 skillsmp.com</text><text x="125" y="192" fill="#141413" font-size="10" text-anchor="middle">安装社区 Skill</text><text x="125" y="208" fill="#141413" font-size="10" text-anchor="middle">对比输出质量</text><text x="125" y="224" fill="#141413" font-size="10" text-anchor="middle">记录改进点</text><rect width="160" height="24" x="45" y="238" fill="#e3dacc" rx="6"/><text x="125" y="255" fill="#141413" font-size="10" font-weight="600" text-anchor="middle">目标：找到感觉</text><path stroke="#87867f" stroke-width="2" marker-end="url(#arr)" d="M224 178h28"/><defs><marker id="arr" markerHeight="6" markerWidth="8" orient="auto" refX="7" refY="3"><path fill="#87867f" d="m0 0 8 3-8 3z"/></marker></defs><rect width="190" height="200" x="258" y="78" fill="none" stroke="#d97757" stroke-width="2" rx="10"/><rect width="190" height="34" x="258" y="78" fill="#d97757" rx="10"/><path fill="#d97757" d="M258 102h190v10H258z"/><text x="353" y="100" fill="#faf9f5" font-size="12" font-weight="700" text-anchor="middle">Phase 2</text><text x="353" y="128" fill="#141413" font-size="11" font-weight="700" text-anchor="middle">从零构建</text><text x="353" y="148" fill="#141413" font-size="10" text-anchor="middle">自定义 Skill</text><path stroke="#e3dacc" d="M258 158h190"/><text x="353" y="176" fill="#141413" font-size="10" font-weight="700" text-anchor="middle">三问题测试：</text><text x="353" y="192" fill="#141413" font-size="10" text-anchor="middle">① 这个 Skill 做什么？</text><text x="353" y="206" fill="#141413" font-size="10" text-anchor="middle">② 什么时候激活？</text><text x="353" y="220" fill="#141413" font-size="10" text-anchor="middle">③ 完美输出什么样？</text><rect width="150" height="22" x="278" y="232" fill="#e3dacc" rx="5"/><text x="353" y="247" fill="#141413" font-size="10" text-anchor="middle">YAML frontmatter</text><rect width="150" height="22" x="278" y="258" fill="#e3dacc" rx="5"/><text x="353" y="273" fill="#141413" font-size="10" text-anchor="middle">&lt; 500 行分步指令</text><path stroke="#87867f" stroke-width="2" marker-end="url(#arr)" d="M452 178h28"/><rect width="190" height="200" x="486" y="78" fill="none" stroke="#788c5d" stroke-width="2" rx="10"/><rect width="190" height="34" x="486" y="78" fill="#788c5d" rx="10"/><path fill="#788c5d" d="M486 102h190v10H486z"/><text x="581" y="100" fill="#faf9f5" font-size="12" font-weight="700" text-anchor="middle">Phase 3</text><text x="581" y="128" fill="#141413" font-size="11" font-weight="700" text-anchor="middle">测试 · 优化</text><text x="581" y="148" fill="#141413" font-size="10" text-anchor="middle">Production-grade</text><path stroke="#e3dacc" d="M486 158h190"/><text x="581" y="176" fill="#141413" font-size="10" font-weight="700" text-anchor="middle">三场景测试：</text><rect width="162" height="18" x="500" y="184" fill="#788c5d" rx="4"/><text x="581" y="196" fill="#faf9f5" font-size="10" text-anchor="middle">快乐路径（80% 用例）</text><rect width="162" height="18" x="500" y="206" fill="#d97757" rx="4"/><text x="581" y="218" fill="#faf9f5" font-size="10" text-anchor="middle">边缘情况（异常/不完整）</text><rect width="162" height="18" x="500" y="228" fill="#87867f" rx="4"/><text x="581" y="240" fill="#faf9f5" font-size="10" text-anchor="middle">压力测试（最复杂输入）</text><rect width="162" height="22" x="500" y="256" fill="#e3dacc" rx="5"/><text x="581" y="271" fill="#141413" font-size="10" text-anchor="middle">输出 = 客户可接受</text><path stroke="#87867f" stroke-width="2" marker-end="url(#arr)" d="M680 178h28"/><rect width="116" height="200" x="714" y="78" fill="none" stroke="#d97757" stroke-width="2" rx="10"/><rect width="116" height="34" x="714" y="78" fill="#d97757" rx="10"/><path fill="#d97757" d="M714 102h116v10H714z"/><text x="772" y="100" fill="#faf9f5" font-size="12" font-weight="700" text-anchor="middle">Phase 4</text><text x="772" y="130" fill="#141413" font-size="11" font-weight="700" text-anchor="middle">完整</text><text x="772" y="146" fill="#141413" font-size="11" font-weight="700" text-anchor="middle">Skill 库</text><path stroke="#e3dacc" d="M714 158h116"/><text x="772" y="176" fill="#141413" font-size="10" font-weight="700" text-anchor="middle">1个 Skill</text><text x="772" y="192" fill="#141413" font-size="10" text-anchor="middle">= 工具</text><text x="772" y="212" fill="#d97757" font-size="10" font-weight="700" text-anchor="middle">10个 Skills</text><text x="772" y="228" fill="#141413" font-size="10" text-anchor="middle">= 劳动力</text><text x="772" y="250" fill="#141413" font-size="10" text-anchor="middle">覆盖每个</text><text x="772" y="264" fill="#141413" font-size="10" text-anchor="middle">主要工作流</text><rect width="96" height="22" x="724" y="270" fill="#141413" rx="5"/><text x="772" y="285" fill="#faf9f5" font-size="10" font-weight="700" text-anchor="middle">复利资产</text><rect width="800" height="110" x="30" y="296" fill="none" stroke="#d1cfc5" stroke-width="1.5" rx="10"/><text x="430" y="316" fill="#141413" font-size="12" font-weight="700" text-anchor="middle">Saved Prompt vs Skill 核心差异</text><path stroke="#d1cfc5" d="M30 324h800"/><rect width="180" height="22" x="30" y="324" fill="#d1cfc5" rx="0"/><rect width="260" height="22" x="210" y="324" fill="#e3dacc" rx="0"/><rect width="360" height="22" x="470" y="324" fill="#788c5d" rx="0"/><text x="120" y="339" fill="#141413" font-size="11" font-weight="700" text-anchor="middle">维度</text><text x="340" y="339" fill="#141413" font-size="11" font-weight="700" text-anchor="middle">Saved Prompt</text><text x="650" y="339" fill="#faf9f5" font-size="11" font-weight="700" text-anchor="middle">Skill</text><text x="120" y="358" fill="#141413" font-size="10" text-anchor="middle">性质</text><text x="340" y="358" fill="#87867f" font-size="10" text-anchor="middle">对话起点</text><text x="650" y="358" fill="#788c5d" font-size="10" font-weight="600" text-anchor="middle">训练有素的员工</text><text x="120" y="376" fill="#141413" font-size="10" text-anchor="middle">输出质量</text><text x="340" y="376" fill="#87867f" font-size="10" text-anchor="middle">一次性，不一致</text><text x="650" y="376" fill="#788c5d" font-size="10" font-weight="600" text-anchor="middle">标准化，每次相同</text><text x="120" y="394" fill="#141413" font-size="10" text-anchor="middle">持久性</text><text x="340" y="394" fill="#87867f" font-size="10" text-anchor="middle">每次重新解释</text><text x="650" y="394" fill="#788c5d" font-size="10" font-weight="600" text-anchor="middle">永久存在，自动执行</text><text x="120" y="412" fill="#141413" font-size="10" text-anchor="middle">适用场景</text><text x="340" y="412" fill="#87867f" font-size="10" text-anchor="middle">一次性任务</text><text x="650" y="412" fill="#788c5d" font-size="10" font-weight="600" text-anchor="middle">重复性任务</text></svg>