<svg xmlns="http://www.w3.org/2000/svg" viewBox="0 0 420 320">
  <path fill="#faf9f5" d="M0 0h420v320H0z"/>
  <style>
    text{font-family:&quot;SF Mono&quot;,&quot;Cascadia Code&quot;,&quot;Fira Code&quot;,monospace;font-size:12px;fill:#141413}.box{fill:none;stroke:#d1cfc5;stroke-width:1}.chapter-num{fill:#d97757;font-weight:700}.chapter-title{fill:#141413}.separator{fill:#d97757}
  </style>
  <text x="16" y="28" class="chapter-num">第3章</text>
  <text x="80" y="28" class="chapter-title">│</text>
  <text x="100" y="28">分层的历史：从 OSI 七层到现代软件架构</text>
  <path d="M390 16v24" class="box"/>
  <circle cx="72" cy="36" r="2" class="separator"/>
  <text x="16" y="60" class="chapter-num">第4章</text>
  <text x="80" y="60" class="chapter-title">│</text>
  <text x="100" y="60">为什么分层有效：关注点分离与抽象的力量</text>
  <path d="M390 48v24" class="box"/>
  <circle cx="72" cy="68" r="2" class="separator"/>
  <text x="16" y="92" class="chapter-num">第5章</text>
  <text x="80" y="92" class="chapter-title">│</text>
  <text x="100" y="92">Agent OS 五层架构：重新定义 AI 系统边界</text>
  <path d="M390 80v24" class="box"/>
  <circle cx="72" cy="100" r="2" class="separator"/>
  <text x="16" y="124" class="chapter-num">第6章</text>
  <text x="80" y="124" class="chapter-title">│</text>
  <text x="100" y="124">层间通信：Context 传递的艺术</text>
  <path d="M390 112v24" class="box"/>
  <circle cx="72" cy="132" r="2" class="separator"/>
  <text x="16" y="156" class="chapter-num">第7章</text>
  <text x="80" y="156" class="chapter-title">│</text>
  <text x="100" y="156">何时打破分层：性能与灵活性的权衡</text>
  <path d="M390 144v24" class="box"/>
  <circle cx="72" cy="164" r="2" class="separator"/>
  <text x="16" y="188" class="chapter-num">第8章</text>
  <text x="80" y="188" class="chapter-title">│</text>
  <text x="100" y="188">反直觉洞察：分层架构的隐藏代价</text>
  <path d="M390 176v24" class="box"/>
  <circle cx="72" cy="196" r="2" class="separator"/>
  <text x="16" y="220" class="chapter-num">第9章</text>
  <text x="80" y="220" class="chapter-title">│</text>
  <text x="100" y="220">实战：从零设计分层的 Agent 系统</text>
  <path d="M390 208v24" class="box"/>
  <circle cx="72" cy="228" r="2" class="separator"/>
  <text x="16" y="252" class="chapter-num">第10章</text>
  <text x="96" y="252" class="chapter-title">│</text>
  <text x="116" y="252">结语：分层是一种思维方式</text>
</svg>
