<svg xmlns="http://www.w3.org/2000/svg" font-family="ui-serif, Georgia, serif" viewBox="0 0 560 140">
  <path fill="#faf9f5" d="M0 0h560v140H0z"/>
  <text x="280" y="18" fill="#141413" font-size="12" font-weight="500" letter-spacing="-.02em" text-anchor="middle">DevOps Agent 平等协作模式</text>
  <text x="280" y="32" fill="#87867f" font-family="ui-monospace, monospace" font-size="9" text-anchor="middle">postcodeengineering.com · 2026/03/15</text>
  <rect width="110" height="60" x="30" y="50" fill="#fff" stroke="#2563eb" stroke-width="1.5" rx="6"/>
  <rect width="110" height="16" x="30" y="50" fill="#dbeafe" stroke="#2563eb" rx="6"/>
  <text x="85" y="63" fill="#2563eb" font-family="ui-monospace, monospace" font-size="9" font-weight="600" text-anchor="middle">Dev Agent</text>
  <text x="85" y="80" fill="#141413" font-size="8.5" text-anchor="middle">代码开发</text>
  <text x="85" y="94" fill="#87867f" font-size="8" text-anchor="middle">CI/CD 集成</text>
  <rect width="110" height="60" x="160" y="50" fill="#fff" stroke="#059669" stroke-width="1.5" rx="6"/>
  <rect width="110" height="16" x="160" y="50" fill="#d1fae5" stroke="#059669" rx="6"/>
  <text x="215" y="63" fill="#059669" font-family="ui-monospace, monospace" font-size="9" font-weight="600" text-anchor="middle">Ops Agent</text>
  <text x="215" y="80" fill="#141413" font-size="8.5" text-anchor="middle">运维部署</text>
  <text x="215" y="94" fill="#87867f" font-size="8" text-anchor="middle">监控 · 扩缩容</text>
  <rect width="110" height="60" x="290" y="50" fill="#fff" stroke="#7c3aed" stroke-width="1.5" rx="6"/>
  <rect width="110" height="16" x="290" y="50" fill="#ede9fe" stroke="#7c3aed" rx="6"/>
  <text x="345" y="63" fill="#7c3aed" font-family="ui-monospace, monospace" font-size="9" font-weight="600" text-anchor="middle">QA Agent</text>
  <text x="345" y="80" fill="#141413" font-size="8.5" text-anchor="middle">质量保障</text>
  <text x="345" y="94" fill="#87867f" font-size="8" text-anchor="middle">测试 · 回归</text>
  <rect width="110" height="60" x="420" y="50" fill="#fff" stroke="#d97757" stroke-width="1.5" rx="6"/>
  <rect width="110" height="16" x="420" y="50" fill="#fef3c7" stroke="#d97757" rx="6"/>
  <text x="475" y="63" fill="#d97757" font-family="ui-monospace, monospace" font-size="9" font-weight="600" text-anchor="middle">PM Agent</text>
  <text x="475" y="80" fill="#141413" font-size="8.5" text-anchor="middle">产品管理</text>
  <text x="475" y="94" fill="#87867f" font-size="8" text-anchor="middle">需求 · 优先级</text>
  <path stroke="#d1cfc5" stroke-width="1.5" d="M140 80h20m110 0h20m110 0h20"/>
  <path fill="#d1cfc5" d="m140 76 8 4-8 4zm20 0-8 4 8 4zm110 0 8 4-8 4zm20 0-8 4 8 4zm110 0 8 4-8 4zm20 0-8 4 8 4z"/>
  <text x="280" y="120" fill="#87867f" font-size="9" font-style="italic" text-anchor="middle">平等协作，无中心节点，按需双向通信</text>
</svg>
