<svg xmlns="http://www.w3.org/2000/svg" viewBox="0 0 600 280">
  <style>
    .text-dark-small{fill:#141413;font-family:&quot;SF Mono&quot;,&quot;Cascadia Code&quot;,&quot;Fira Code&quot;,monospace;font-size:12px;font-weight:500}.divider{stroke:#d1cfc5;stroke-width:1}
  </style>
  <defs>
    <marker id="arrowhead" markerHeight="6" markerWidth="8" orient="auto" refX="8" refY="3">
      <path fill="#d1cfc5" d="m0 0 8 3-8 3z"/>
    </marker>
    <marker id="arrowhead-dark" markerHeight="6" markerWidth="8" orient="auto" refX="8" refY="3">
      <path fill="#87867f" d="m0 0 8 3-8 3z"/>
    </marker>
    <marker id="arrowhead-clay" markerHeight="6" markerWidth="8" orient="auto" refX="8" refY="3">
      <path fill="#d97757" d="m0 0 8 3-8 3z"/>
    </marker>
  </defs>
  <rect width="600" height="280" rx="8" style="fill:#faf9f5"/>
  <text x="300" y="35" style="fill:#141413;font-family:&quot;SF Mono&quot;,&quot;Cascadia Code&quot;,&quot;Fira Code&quot;,monospace;font-size:12px;font-weight:700" text-anchor="middle">两种设计哲学</text>
  <rect width="200" height="36" x="50" y="55" fill="#d1cfc5" rx="0"/>
  <text x="150" y="78" class="text-dark-small" style="font-weight:700" text-anchor="middle">Agent 编排</text>
  <rect width="200" height="36" x="250" y="55" fill="#d1cfc5" rx="0"/>
  <text x="350" y="78" class="text-dark-small" style="font-weight:700" text-anchor="middle">系统设计</text>
  <path d="M50 91h400" class="divider"/>
  <path fill="#faf9f5" stroke="#d1cfc5" stroke-width=".5" d="M50 91h400v36H50z"/>
  <text x="62" y="114" class="text-dark-small">关注：每个 Agent 做什么</text>
  <text x="262" y="114" class="text-dark-small">关注：Agent 如何交互</text>
  <path d="M50 127h400" class="divider"/>
  <path fill="#f5f4f0" stroke="#d1cfc5" stroke-width=".5" d="M50 127h400v36H50z"/>
  <text x="62" y="150" class="text-dark-small">隐喻：管弦乐队指挥</text>
  <text x="262" y="150" class="text-dark-small">隐喻：生态系统园丁</text>
  <path d="M50 163h400" class="divider"/>
  <path fill="#faf9f5" stroke="#d1cfc5" stroke-width=".5" d="M50 163h400v36H50z"/>
  <text x="62" y="186" class="text-dark-small">控制：中央调度</text>
  <text x="262" y="186" class="text-dark-small">控制：规则与环境</text>
  <path d="M50 199h400" class="divider"/>
  <path fill="#f5f4f0" stroke="#d1cfc5" stroke-width=".5" d="M50 199h400v36H50z"/>
  <text x="62" y="222" class="text-dark-small">优化：个体效率</text>
  <text x="262" y="222" class="text-dark-small">优化：整体适应力</text>
  <path d="M50 235h400" class="divider"/>
  <path fill="#faf9f5" stroke="#d1cfc5" stroke-width=".5" d="M50 235h400v36H50z"/>
  <text x="62" y="258" class="text-dark-small">问题：&quot;Agent A 应该...&quot;</text>
  <text x="262" y="258" class="text-dark-small">问题：&quot;什么规则能让...&quot;</text>
  <path d="M50 271h400M250 55v216" class="divider"/>
  <rect width="400" height="216" x="50" y="55" rx="0" style="stroke:#d1cfc5;stroke-width:1.5;fill:none"/>
</svg>
