<svg xmlns="http://www.w3.org/2000/svg" font-family="'Courier New', monospace" font-size="14" viewBox="0 0 560 320">
  <path fill="#faf9f5" d="M0 0h560v320H0z"/>
  <path stroke="#141413" stroke-width="2" d="M0 0h560"/>
  <path stroke="#141413" d="M0 1h560"/>
  <path fill="#141413" d="M0 0h560v42H0z"/>
  <path fill="#141413" d="M1 1h558v40H1z"/>
  <text x="80" y="27" fill="#d97757" font-size="13" text-anchor="middle">第3章</text>
  <path stroke="#87867f" d="M90 0v42"/>
  <text x="100" y="27" fill="#faf9f5" font-size="13">Melvin Conway 的经典定律回顾</text>
  <path stroke="#141413" stroke-width="2" d="M0 42h560"/>
  <path stroke="#d1cfc5" d="M0 43h560M90 42v42"/>
  <path fill="#e3dacc" d="M0 42h560v42H0z"/>
  <path fill="#e3dacc" d="M1 43h558v40H1z"/>
  <text x="80" y="69" fill="#d97757" font-size="13" text-anchor="middle">第4章</text>
  <path stroke="#87867f" d="M90 42v42"/>
  <text x="100" y="69" fill="#141413" font-size="13">传统康威定律的局限</text>
  <path stroke="#141413" stroke-width="2" d="M0 84h560"/>
  <path stroke="#d1cfc5" d="M0 85h560M90 84v42"/>
  <path fill="#141413" d="M0 84h560v42H0z"/>
  <path fill="#141413" d="M1 85h558v40H1z"/>
  <text x="80" y="111" fill="#d97757" font-size="13" text-anchor="middle">第5章</text>
  <path stroke="#87867f" d="M90 84v42"/>
  <text x="100" y="111" fill="#faf9f5" font-size="13">AI Agent 作为组织新成员</text>
  <path stroke="#141413" stroke-width="2" d="M0 126h560"/>
  <path stroke="#d1cfc5" d="M0 127h560m-470-1v42"/>
  <path fill="#e3dacc" d="M0 126h560v42H0z"/>
  <path fill="#e3dacc" d="M1 127h558v40H1z"/>
  <text x="80" y="153" fill="#d97757" font-size="13" text-anchor="middle">第6章</text>
  <path stroke="#87867f" d="M90 126v42"/>
  <text x="100" y="153" fill="#141413" font-size="13">AI-Native 团队的组织设计</text>
  <path stroke="#141413" stroke-width="2" d="M0 168h560"/>
  <path stroke="#d1cfc5" d="M0 169h560m-470-1v42"/>
  <path fill="#141413" d="M0 168h560v42H0z"/>
  <path fill="#141413" d="M1 169h558v40H1z"/>
  <text x="80" y="195" fill="#d97757" font-size="13" text-anchor="middle">第7章</text>
  <path stroke="#87867f" d="M90 168v42"/>
  <text x="100" y="195" fill="#faf9f5" font-size="13">从团队拓扑到系统架构的新映射</text>
  <path stroke="#141413" stroke-width="2" d="M0 210h560"/>
  <path stroke="#d1cfc5" d="M0 211h560m-470-1v42"/>
  <path fill="#e3dacc" d="M0 210h560v42H0z"/>
  <path fill="#e3dacc" d="M1 211h558v40H1z"/>
  <text x="80" y="237" fill="#d97757" font-size="13" text-anchor="middle">第8章</text>
  <path stroke="#87867f" d="M90 210v42"/>
  <text x="100" y="237" fill="#141413" font-size="13">反直觉洞察</text>
  <path stroke="#141413" stroke-width="2" d="M0 252h560"/>
  <path stroke="#d1cfc5" d="M0 253h560m-470-1v42"/>
  <path fill="#141413" d="M0 252h560v42H0z"/>
  <path fill="#141413" d="M1 253h558v40H1z"/>
  <text x="80" y="279" fill="#d97757" font-size="13" text-anchor="middle">第9章</text>
  <path stroke="#87867f" d="M90 252v42"/>
  <text x="100" y="279" fill="#faf9f5" font-size="13">实战：设计 AI-Native 组织的团队结构</text>
  <path stroke="#141413" stroke-width="2" d="M0 294h560"/>
  <path fill="#e3dacc" d="M0 294h560v26H0z"/>
  <path fill="#e3dacc" d="M1 295h558v24H1z"/>
  <text x="80" y="311" fill="#d97757" font-size="13" text-anchor="middle">第10章</text>
  <path stroke="#87867f" d="M90 294v26"/>
  <text x="100" y="311" fill="#141413" font-size="13">结语</text>
  <path stroke="#141413" stroke-width="2" d="M0 320h560M0 0v320M559 0v320"/>
</svg>
