<svg xmlns="http://www.w3.org/2000/svg" viewBox="0 0 520 320">
  <path fill="#faf9f5" d="M0 0h520v320H0z"/>
  <style>
    text{font-family:&quot;SF Mono&quot;,&quot;Cascadia Code&quot;,&quot;Fira Code&quot;,monospace;font-size:11px;fill:#141413}.panel{fill:#e3dacc;stroke:#d1cfc5;stroke-width:1;rx:4}.panel-header{fill:#d97757;font-weight:700;font-size:10px}.btn{fill:#faf9f5;stroke:#d1cfc5;stroke-width:1;rx:4}.btn-text{font-size:10px;fill:#141413}.divider{stroke:#d1cfc5;stroke-width:1}.label{fill:#87867f;font-size:10px}
  </style>
  <rect width="480" height="280" x="20" y="20" rx="8" style="fill:none;stroke:#141413;stroke-width:1.5"/>
  <rect width="480" height="36" x="20" y="20" rx="8" style="fill:#141413"/>
  <path fill="#141413" d="M20 44h480v12H20z"/>
  <text x="40" y="43" style="fill:#faf9f5;font-weight:700;font-size:13px">意图编辑器（Intent Editor）</text>
  <path d="M20 56h480" class="divider"/>
  <rect width="140" height="90" x="32" y="68" class="panel" rx="6"/>
  <rect width="140" height="20" x="32" y="68" fill="#d97757" rx="6"/>
  <path fill="#d97757" d="M32 80h140v8H32z"/>
  <text x="102" y="82" fill="#faf9f5" font-size="10" font-weight="bold" text-anchor="middle">Context</text>
  <text x="42" y="104" class="panel-header">面板</text>
  <text x="42" y="120" class="label">Actor / State / Goal</text>
  <text x="42" y="136" class="label">前置条件</text>
  <text x="42" y="150" class="label">业务背景</text>
  <rect width="140" height="90" x="188" y="68" class="panel" rx="6"/>
  <rect width="140" height="20" x="188" y="68" fill="#788c5d" rx="6"/>
  <path fill="#788c5d" d="M188 80h140v8H188z"/>
  <text x="258" y="82" fill="#faf9f5" font-size="10" font-weight="bold" text-anchor="middle">Constraints</text>
  <text x="198" y="104" class="panel-header">面板</text>
  <text x="198" y="120" class="label">功能 / 性能 / 安全</text>
  <text x="198" y="136" class="label">合规要求</text>
  <text x="198" y="150" class="label">依赖约束</text>
  <rect width="140" height="90" x="344" y="68" class="panel" rx="6"/>
  <rect width="140" height="20" x="344" y="68" fill="#141413" rx="6"/>
  <path fill="#141413" d="M344 80h140v8H344z"/>
  <text x="414" y="82" fill="#faf9f5" font-size="10" font-weight="bold" text-anchor="middle">AC</text>
  <text x="354" y="104" class="panel-header">面板</text>
  <text x="354" y="120" class="label">验收标准</text>
  <text x="354" y="136" class="label">正常/异常路径</text>
  <text x="354" y="150" class="label">边界条件</text>
  <path d="M32 172h456" class="divider"/>
  <text x="42" y="192" fill="#141413" font-weight="bold">辅助功能：</text>
  <rect width="80" height="24" x="42" y="200" class="btn" rx="4"/>
  <text x="82" y="216" class="btn-text" text-anchor="middle">AI补全</text>
  <rect width="80" height="24" x="130" y="200" class="btn" rx="4"/>
  <text x="170" y="216" class="btn-text" text-anchor="middle">约束检查</text>
  <rect width="80" height="24" x="218" y="200" class="btn" rx="4"/>
  <text x="258" y="216" class="btn-text" text-anchor="middle">AC生成</text>
  <rect width="80" height="24" x="306" y="200" class="btn" rx="4"/>
  <text x="346" y="216" class="btn-text" text-anchor="middle">影响分析</text>
  <path d="M32 240h456" class="divider"/>
  <text x="42" y="260" fill="#141413" font-weight="bold">输出选项：</text>
  <rect width="90" height="24" x="42" y="268" class="btn" rx="4"/>
  <text x="87" y="284" class="btn-text" text-anchor="middle">生成代码</text>
  <rect width="90" height="24" x="140" y="268" class="btn" rx="4"/>
  <text x="185" y="284" class="btn-text" text-anchor="middle">生成测试</text>
  <rect width="90" height="24" x="238" y="268" class="btn" rx="4"/>
  <text x="283" y="284" class="btn-text" text-anchor="middle">生成文档</text>
  <rect width="90" height="24" x="336" y="268" class="btn" rx="4"/>
  <text x="381" y="284" class="btn-text" text-anchor="middle">导出Prompt</text>
</svg>
