<svg xmlns="http://www.w3.org/2000/svg" viewBox="0 0 580 365">
  <defs>
    <style>
      text{font-family:-apple-system,BlinkMacSystemFont,&quot;Segoe UI&quot;,Helvetica,Arial,sans-serif}
    </style>
  </defs>
  <path fill="#faf9f5" d="M0 0h580v365H0z"/>
  <rect width="560" height="345" x="10" y="10" fill="none" stroke="#d1cfc5" stroke-width="1.5" rx="4"/>
  <rect width="560" height="36" x="10" y="10" fill="#141413" rx="4"/>
  <path fill="#141413" d="M10 26h560v20H10z"/>
  <text x="290" y="33" fill="#faf9f5" font-size="15" font-weight="700" letter-spacing=".5" text-anchor="middle">Agent 安全防护架构</text>
  <rect width="560" height="74" x="10" y="46" fill="#faf9f5" stroke="#d1cfc5" stroke-width="1.5" rx="0" style="stroke-width:1.5"/>
  <path fill="#d97757" d="M10 46h120v74H10z"/>
  <text x="70" y="68" fill="#faf9f5" font-size="12" font-weight="700" text-anchor="middle">Layer 4</text>
  <text x="70" y="82" fill="#faf9f5" font-size="11" text-anchor="middle">输出审计层</text>
  <text x="142" y="67" fill="#141413" font-size="11">响应内容检查</text>
  <text x="142" y="81" fill="#141413" font-size="11">敏感信息脱敏</text>
  <text x="142" y="95" fill="#141413" font-size="11">异常行为标记</text>
  <rect width="560" height="74" x="10" y="120" fill="#faf9f5" stroke="#d1cfc5" stroke-width="1.5" rx="0"/>
  <path fill="#788c5d" d="M10 120h120v74H10z"/>
  <text x="70" y="142" fill="#faf9f5" font-size="12" font-weight="700" text-anchor="middle">Layer 3</text>
  <text x="70" y="156" fill="#faf9f5" font-size="11" text-anchor="middle">行为约束层</text>
  <text x="142" y="141" fill="#141413" font-size="11">危险操作白名单</text>
  <text x="142" y="155" fill="#141413" font-size="11">权限沙箱</text>
  <text x="142" y="169" fill="#141413" font-size="11">操作审计日志</text>
  <rect width="560" height="74" x="10" y="194" fill="#faf9f5" stroke="#d1cfc5" stroke-width="1.5" rx="0"/>
  <path fill="#e3dacc" stroke="#d1cfc5" d="M10 194h120v74H10z"/>
  <text x="70" y="216" fill="#141413" font-size="12" font-weight="700" text-anchor="middle">Layer 2</text>
  <text x="70" y="230" fill="#141413" font-size="11" text-anchor="middle">数据分类层</text>
  <text x="142" y="215" fill="#141413" font-size="11">敏感数据识别</text>
  <text x="142" y="229" fill="#141413" font-size="11">访问控制策略</text>
  <text x="142" y="243" fill="#141413" font-size="11">数据脱敏规则</text>
  <rect width="560" height="87" x="10" y="268" fill="#faf9f5" stroke="#d1cfc5" stroke-width="1.5" rx="0"/>
  <path fill="#87867f" d="M10 268h120v87H10z"/>
  <text x="70" y="290" fill="#faf9f5" font-size="12" font-weight="700" text-anchor="middle">Layer 1</text>
  <text x="70" y="304" fill="#faf9f5" font-size="11" text-anchor="middle">输入过滤层</text>
  <text x="142" y="289" fill="#141413" font-size="11">Prompt 注入检测</text>
  <text x="142" y="303" fill="#141413" font-size="11">恶意模式识别</text>
  <text x="142" y="317" fill="#141413" font-size="11">指令隔离</text>
</svg>
