<svg viewBox="0 0 560 160" xmlns="http://www.w3.org/2000/svg" font-family="ui-serif, Georgia, serif">
  <!-- Supervisor Agent 模式 -->
  <rect width="560" height="160" fill="#FAF9F5"/>
  <text x="280" y="18" text-anchor="middle" font-size="12" font-weight="500" fill="#141413" letter-spacing="-0.02em">Supervisor Agent 模式</text>
  <text x="280" y="32" text-anchor="middle" font-size="9" fill="#87867F" font-family="ui-monospace, monospace">postcodeengineering.com · 2026/03/15</text>

  <!-- Supervisor (top) -->
  <rect x="200" y="46" width="160" height="42" rx="6" fill="#FFFFFF" stroke="#D97757" stroke-width="2"/>
  <rect x="200" y="46" width="160" height="18" rx="6" fill="#FEF3C7" stroke="#D97757" stroke-width="1"/>
  <text x="280" y="60" text-anchor="middle" font-size="10" fill="#D97757" font-family="ui-monospace, monospace" font-weight="600">Supervisor Agent</text>
  <text x="280" y="76" text-anchor="middle" font-size="9" fill="#87867F">任务分解 · 结果聚合</text>
  <rect x="352" y="54" width="14" height="14" rx="7" fill="#D97757"/>
  <text x="359" y="65" text-anchor="middle" font-size="7" fill="#FFFFFF" font-family="ui-monospace, monospace">S</text>

  <!-- Arrow S→Code -->
  <line x1="280" y1="88" x2="280" y2="108" stroke="#D1CFC5" stroke-width="1.5"/>
  <polygon points="276,108 280,116 284,108" fill="#D1CFC5"/>

  <!-- Code/Test/Doc agents -->
  <rect x="60" y="116" width="130" height="34" rx="5" fill="#FFFFFF" stroke="#2563EB" stroke-width="1.5"/>
  <rect x="60" y="116" width="130" height="14" rx="5" fill="#DBEAFE" stroke="#2563EB" stroke-width="1"/>
  <text x="125" y="129" text-anchor="middle" font-size="10" fill="#2563EB" font-family="ui-monospace, monospace" font-weight="600">Code Agent</text>
  <text x="125" y="143" text-anchor="middle" font-size="8.5" fill="#141413">执行代码生成</text>
  <rect x="182" y="127" width="12" height="12" rx="6" fill="#2563EB"/>
  <text x="188" y="136" text-anchor="middle" font-size="7" fill="#FFFFFF" font-family="ui-monospace, monospace">C</text>

  <rect x="215" y="116" width="130" height="34" rx="5" fill="#FFFFFF" stroke="#2563EB" stroke-width="1.5"/>
  <rect x="215" y="116" width="130" height="14" rx="5" fill="#DBEAFE" stroke="#2563EB" stroke-width="1"/>
  <text x="280" y="129" text-anchor="middle" font-size="10" fill="#2563EB" font-family="ui-monospace, monospace" font-weight="600">Test Agent</text>
  <text x="280" y="143" text-anchor="middle" font-size="8.5" fill="#141413">执行测试生成</text>
  <rect x="337" y="127" width="12" height="12" rx="6" fill="#2563EB"/>
  <text x="343" y="136" text-anchor="middle" font-size="7" fill="#FFFFFF" font-family="ui-monospace, monospace">T</text>

  <rect x="370" y="116" width="130" height="34" rx="5" fill="#FFFFFF" stroke="#2563EB" stroke-width="1.5"/>
  <rect x="370" y="116" width="130" height="14" rx="5" fill="#DBEAFE" stroke="#2563EB" stroke-width="1"/>
  <text x="435" y="129" text-anchor="middle" font-size="10" fill="#2563EB" font-family="ui-monospace, monospace" font-weight="600">Doc Agent</text>
  <text x="435" y="143" text-anchor="middle" font-size="8.5" fill="#141413">执行文档生成</text>
  <rect x="492" y="127" width="12" height="12" rx="6" fill="#2563EB"/>
  <text x="498" y="136" text-anchor="middle" font-size="7" fill="#FFFFFF" font-family="ui-monospace, monospace">D</text>
</svg>