<svg xmlns="http://www.w3.org/2000/svg" font-family="ui-serif, Georgia, 'Times New Roman', serif" viewBox="0 0 600 280"><path fill="#faf9f5" d="M0 0h600v280H0z"/><text x="300" y="28" fill="#141413" font-size="14" font-weight="500" letter-spacing="-.02em" text-anchor="middle">Agent = Model + Harness</text><text x="300" y="46" fill="#87867f" font-family="ui-monospace, monospace" font-size="10" text-anchor="middle">Addy Osmani · Google Cloud AI Director · 2026/05</text><circle cx="140" cy="140" r="56" fill="#fff" stroke="#d97757" stroke-width="2"/><text x="140" y="132" fill="#d97757" font-family="ui-monospace, monospace" font-size="13" font-weight="600" text-anchor="middle">Model</text><text x="140" y="150" fill="#87867f" font-size="10" text-anchor="middle">LLM weights</text><text x="140" y="164" fill="#87867f" font-size="10" text-anchor="middle">+ training</text><text x="300" y="146" fill="#d1cfc5" font-size="28" font-weight="300" text-anchor="middle">+</text><rect width="300" height="156" x="230" y="74" fill="#fff" stroke="#d1cfc5" stroke-width="1.5" rx="10"/><rect width="300" height="32" x="230" y="74" fill="#d97757" rx="10"/><path fill="#d97757" d="M230 96h300v10H230z"/><text x="380" y="94" fill="#fff" font-family="ui-monospace, monospace" font-size="13" font-weight="600" text-anchor="middle">Harness</text><rect width="82" height="26" x="246" y="118" fill="#f0eee6" stroke="#d1cfc5" rx="5"/><text x="287" y="135" fill="#141413" font-family="ui-monospace, monospace" font-size="10" text-anchor="middle">prompts</text><rect width="82" height="26" x="338" y="118" fill="#f0eee6" stroke="#d1cfc5" rx="5"/><text x="379" y="135" fill="#141413" font-family="ui-monospace, monospace" font-size="10" text-anchor="middle">tools</text><rect width="82" height="26" x="430" y="118" fill="#f0eee6" stroke="#d1cfc5" rx="5"/><text x="471" y="135" fill="#141413" font-family="ui-monospace, monospace" font-size="10" text-anchor="middle">context</text><rect width="82" height="26" x="246" y="152" fill="#f0eee6" stroke="#d1cfc5" rx="5"/><text x="287" y="169" fill="#141413" font-family="ui-monospace, monospace" font-size="10" text-anchor="middle">hooks</text><rect width="82" height="26" x="338" y="152" fill="#f0eee6" stroke="#d1cfc5" rx="5"/><text x="379" y="169" fill="#141413" font-family="ui-monospace, monospace" font-size="10" text-anchor="middle">sandboxes</text><rect width="82" height="26" x="430" y="152" fill="#f0eee6" stroke="#d1cfc5" rx="5"/><text x="471" y="169" fill="#141413" font-family="ui-monospace, monospace" font-size="10" text-anchor="middle">subagents</text><rect width="82" height="26" x="246" y="186" fill="#f0eee6" stroke="#d1cfc5" rx="5"/><text x="287" y="203" fill="#141413" font-family="ui-monospace, monospace" font-size="10" text-anchor="middle">feedback</text><rect width="82" height="26" x="338" y="186" fill="#f0eee6" stroke="#d1cfc5" rx="5"/><text x="379" y="203" fill="#141413" font-family="ui-monospace, monospace" font-size="10" text-anchor="middle">recovery</text><rect width="82" height="26" x="430" y="186" fill="#f0eee6" stroke="#d1cfc5" rx="5"/><text x="471" y="203" fill="#141413" font-family="ui-monospace, monospace" font-size="10" text-anchor="middle">traces</text><path stroke="#d97757" stroke-width="2" d="M196 140h28"/><path fill="#d97757" d="m224 136-8 4 8 4z"/><text x="300" y="252" fill="#87867f" font-size="11" text-anchor="middle">模型只是输入之一，其余全是 harness</text><text x="580" y="272" fill="#d1cfc5" font-family="ui-monospace, monospace" font-size="9" text-anchor="end">Harness Engineering · Osmani 2026</text></svg>