<svg xmlns="http://www.w3.org/2000/svg" font-family="ui-serif, Georgia, 'Times New Roman', serif" viewBox="0 0 600 340"><path fill="#faf9f5" d="M0 0h600v340H0z"/><text x="300" y="28" fill="#141413" font-size="14" font-weight="500" letter-spacing="-.02em" text-anchor="middle">架构演进光谱</text><text x="300" y="44" fill="#87867f" font-family="ui-monospace, monospace" font-size="10" text-anchor="middle">团队规模 · 独立需求 · 扩展差异</text><rect width="480" height="12" x="60" y="100" fill="#d1cfc5" rx="6"/><rect width="120" height="52" x="60" y="80" fill="#fff" stroke="#d97757" stroke-width="2" rx="8"/><text x="120" y="100" fill="#d97757" font-family="ui-monospace, monospace" font-size="12" font-weight="600" text-anchor="middle">单体架构</text><text x="120" y="117" fill="#141413" font-size="10" text-anchor="middle">Monolith</text><rect width="120" height="52" x="240" y="80" fill="#fff" stroke="#788c5d" stroke-width="2" rx="8"/><text x="300" y="100" fill="#788c5d" font-family="ui-monospace, monospace" font-size="12" font-weight="600" text-anchor="middle">模块化单体</text><text x="300" y="117" fill="#141413" font-size="10" text-anchor="middle">Modular Monolith</text><rect width="120" height="52" x="420" y="80" fill="#fff" stroke="#d1cfc5" stroke-width="1.5" rx="8"/><text x="480" y="100" fill="#141413" font-family="ui-monospace, monospace" font-size="12" font-weight="600" text-anchor="middle">微服务架构</text><text x="480" y="117" fill="#141413" font-size="10" text-anchor="middle">Microservices</text><path fill="#d1cfc5" d="m540 106-12-6v12z"/><rect width="8" height="8" x="90" y="160" fill="#d97757" rx="4"/><path stroke="#d97757" stroke-width="1.5" d="M94 168v17"/><text x="60" y="200" fill="#141413" font-size="11" font-weight="600">信号 1</text><text x="60" y="215" fill="#141413" font-size="10">团队规模</text><text x="60" y="228" fill="#87867f" font-size="10">&lt; 150 人</text><rect width="8" height="8" x="296" y="160" fill="#d97757" rx="4"/><path stroke="#d97757" stroke-width="1.5" d="M300 168v17"/><text x="266" y="200" fill="#141413" font-size="11" font-weight="600">信号 2</text><text x="266" y="215" fill="#141413" font-size="10">真正的</text><text x="266" y="228" fill="#141413" font-size="10">团队独立性</text><rect width="8" height="8" x="502" y="160" fill="#d97757" rx="4"/><path stroke="#d97757" stroke-width="1.5" d="M506 168v17"/><text x="472" y="200" fill="#141413" font-size="11" font-weight="600">信号 3</text><text x="472" y="215" fill="#141413" font-size="10">截然不同的</text><text x="472" y="228" fill="#141413" font-size="10">扩展需求</text><path stroke="#d1cfc5" stroke-dasharray="3,3" d="M94 185h412"/><rect width="160" height="50" x="60" y="255" fill="#fff" stroke="#788c5d" stroke-width="1.5" rx="6"/><text x="140" y="275" fill="#788c5d" font-family="ui-monospace, monospace" font-size="11" font-weight="600" text-anchor="middle">单体 / 模块化单体</text><text x="140" y="292" fill="#87867f" font-size="10" text-anchor="middle">大多数团队的最佳起点</text><path stroke="#d1cfc5" stroke-width="1.5" d="M140 305v13"/><path fill="#d1cfc5" d="m140 322-4-8h8z"/><rect width="160" height="50" x="380" y="255" fill="#fff" stroke="#d97757" stroke-width="1.5" rx="6"/><text x="460" y="275" fill="#d97757" font-family="ui-monospace, monospace" font-size="11" font-weight="600" text-anchor="middle">微服务</text><text x="460" y="292" fill="#87867f" font-size="10" text-anchor="middle">仅在上述三个信号都满足时</text><path stroke="#d1cfc5" stroke-width="1.5" d="M460 305v13"/><path fill="#d1cfc5" d="m460 322-4-8h8z"/></svg>