<svg xmlns="http://www.w3.org/2000/svg" font-family="ui-serif, Georgia, serif" viewBox="0 0 680 340"><path fill="#faf9f5" d="M0 0h680v340H0z"/><text x="340" y="26" fill="#141413" font-size="14" font-weight="500" letter-spacing="-.02em" text-anchor="middle">Intent-Driven Development：意图替代文档</text><text x="340" y="42" fill="#87867f" font-family="ui-monospace, monospace" font-size="10" text-anchor="middle">AI-Native SDLC · 2026/03/11</text><rect width="160" height="56" x="50" y="76" fill="#fff" stroke="#d97757" stroke-width="1.8" rx="8"/><text x="130" y="98" fill="#d97757" font-family="ui-monospace, monospace" font-size="11" font-weight="600" text-anchor="middle">Intent</text><text x="130" y="114" fill="#141413" font-size="10" text-anchor="middle">业务目标</text><text x="130" y="127" fill="#87867f" font-size="9" text-anchor="middle">为什么做</text><text x="220" y="106" fill="#87867f" font-size="16" text-anchor="middle">+</text><rect width="160" height="56" x="240" y="76" fill="#fff" stroke="#788c5d" stroke-width="1.8" rx="8"/><text x="320" y="98" fill="#788c5d" font-family="ui-monospace, monospace" font-size="11" font-weight="600" text-anchor="middle">Constraints</text><text x="320" y="114" fill="#141413" font-size="10" text-anchor="middle">边界条件</text><text x="320" y="127" fill="#87867f" font-size="9" text-anchor="middle">不能做什么</text><text x="410" y="106" fill="#87867f" font-size="16" text-anchor="middle">+</text><rect width="160" height="56" x="430" y="76" fill="#fff" stroke="#788c5d" stroke-width="1.8" rx="8"/><text x="510" y="98" fill="#788c5d" font-family="ui-monospace, monospace" font-size="11" font-weight="600" text-anchor="middle">Examples</text><text x="510" y="114" fill="#141413" font-size="10" text-anchor="middle">示例输入/输出</text><text x="510" y="127" fill="#87867f" font-size="9" text-anchor="middle">期望行为</text><path stroke="#d97757" stroke-width="2.5" d="M340 138v24"/><path fill="#d97757" d="m340 168-5-10h10z"/><text x="340" y="157" fill="#d97757" font-family="ui-monospace, monospace" font-size="9" text-anchor="middle">结构化输入</text><rect width="200" height="52" x="240" y="172" fill="#d97757" rx="8"/><text x="340" y="194" fill="#fff" font-size="13" font-weight="600" text-anchor="middle">AI Model</text><text x="340" y="212" fill="#fad8c8" font-size="10" text-anchor="middle">代码生成 + 测试生成 + 审查</text><path stroke="#d1cfc5" stroke-width="1.5" d="m290 224-20 24"/><path fill="#d1cfc5" d="m266 250 7-7-4-2z"/><path stroke="#d1cfc5" stroke-width="1.5" d="M340 224v24"/><path fill="#d1cfc5" d="m340 254-4-8h8z"/><path stroke="#d1cfc5" stroke-width="1.5" d="m390 224 20 24"/><path fill="#d1cfc5" d="m414 250-7-7 4-2z"/><rect width="100" height="32" x="190" y="252" fill="#fff" stroke="#d1cfc5" stroke-width="1.2" rx="5"/><text x="240" y="272" fill="#141413" font-size="10.5" text-anchor="middle">Code</text><text x="240" y="280" fill="#87867f" font-size="8" text-anchor="middle">生产代码</text><rect width="100" height="32" x="290" y="252" fill="#fff" stroke="#d1cfc5" stroke-width="1.2" rx="5"/><text x="340" y="272" fill="#141413" font-size="10.5" text-anchor="middle">Test</text><text x="340" y="280" fill="#87867f" font-size="8" text-anchor="middle">单元/集成测试</text><rect width="100" height="32" x="390" y="252" fill="#fff" stroke="#d1cfc5" stroke-width="1.2" rx="5"/><text x="440" y="272" fill="#141413" font-size="10.5" text-anchor="middle">Review</text><text x="440" y="280" fill="#87867f" font-size="8" text-anchor="middle">PR 审查意见</text><rect width="620" height="28" x="30" y="300" fill="#f5f3ee" stroke="#d1cfc5" rx="5"/><text x="340" y="318" fill="#141413" font-size="10" text-anchor="middle">
    <tspan fill="#87867f">Design Doc is now </tspan>
    <tspan fill="#d97757" font-weight="600">Context Artifacts</tspan>
    <tspan fill="#87867f"> — 50% of detailed design disappears</tspan>
  </text></svg>