<svg xmlns="http://www.w3.org/2000/svg" font-family="ui-serif, Georgia, serif" viewBox="0 0 560 260"><path fill="#faf9f5" d="M0 0h560v260H0z"/><text x="280" y="18" fill="#141413" font-size="12" font-weight="500" letter-spacing="-.02em" text-anchor="middle">软件分层架构演进</text><text x="280" y="32" fill="#87867f" font-family="ui-monospace, monospace" font-size="9" text-anchor="middle">postcodeengineering.com · 2026/03/15</text><rect width="480" height="28" x="40" y="50" fill="#fff" stroke="#dc2626" stroke-width="2" rx="6"/><rect width="480" height="14" x="40" y="50" fill="#fee2e2" stroke="#dc2626" rx="6"/><text x="60" y="63" fill="#dc2626" font-family="ui-monospace, monospace" font-size="9" font-weight="600">L7</text><text x="80" y="63" fill="#141413" font-size="10.5" font-weight="600">应用层 Application</text><text x="240" y="63" fill="#87867f" font-size="9">HTTP · FTP · SMTP</text><rect width="16" height="12" x="490" y="58" fill="#dc2626" rx="6"/><text x="498" y="67" fill="#fff" font-family="ui-monospace, monospace" font-size="8" text-anchor="middle">L7</text><rect width="480" height="28" x="40" y="78" fill="#fff" stroke="#d97757" stroke-width="1.8" rx="6"/><rect width="480" height="14" x="40" y="78" fill="#fef3c7" stroke="#d97757" rx="6"/><text x="60" y="91" fill="#d97757" font-family="ui-monospace, monospace" font-size="9" font-weight="600">L6</text><text x="80" y="91" fill="#141413" font-size="10.5" font-weight="600">表示层 Presentation</text><text x="240" y="91" fill="#87867f" font-size="9">TLS · ASCII · JSON · XML</text><rect width="480" height="26" x="40" y="106" fill="#fff" stroke="#ea580c" stroke-width="1.5" rx="6"/><rect width="480" height="13" x="40" y="106" fill="#fed7aa" stroke="#ea580c" rx="6"/><text x="60" y="118" fill="#ea580c" font-family="ui-monospace, monospace" font-size="9" font-weight="600">L5</text><text x="80" y="118" fill="#141413" font-size="10.5" font-weight="600">会话层 Session</text><text x="220" y="118" fill="#87867f" font-size="9">RPC · WebSocket · SSH</text><rect width="480" height="26" x="40" y="132" fill="#fff" stroke="#f97316" stroke-width="1.5" rx="6"/><rect width="480" height="13" x="40" y="132" fill="#fdba74" stroke="#f97316" rx="6"/><text x="60" y="144" fill="#f97316" font-family="ui-monospace, monospace" font-size="9" font-weight="600">L4</text><text x="80" y="144" fill="#141413" font-size="10.5" font-weight="600">传输层 Transport</text><text x="220" y="144" fill="#87867f" font-size="9">TCP · UDP</text><rect width="480" height="26" x="40" y="158" fill="#fff" stroke="#2563eb" stroke-width="1.5" rx="6"/><rect width="480" height="13" x="40" y="158" fill="#dbeafe" stroke="#2563eb" rx="6"/><text x="60" y="170" fill="#2563eb" font-family="ui-monospace, monospace" font-size="9" font-weight="600">L3</text><text x="80" y="170" fill="#141413" font-size="10.5" font-weight="600">网络层 Network</text><text x="220" y="170" fill="#87867f" font-size="9">IP · ICMP · BGP</text><rect width="480" height="26" x="40" y="184" fill="#fff" stroke="#059669" stroke-width="1.5" rx="6"/><rect width="480" height="13" x="40" y="184" fill="#d1fae5" stroke="#059669" rx="6"/><text x="60" y="196" fill="#059669" font-family="ui-monospace, monospace" font-size="9" font-weight="600">L2</text><text x="80" y="196" fill="#141413" font-size="10.5" font-weight="600">数据链路层 Data Link</text><text x="260" y="196" fill="#87867f" font-size="9">Ethernet · ARP · PPP</text><rect width="480" height="22" x="40" y="210" fill="#fff" stroke="#87867f" rx="5"/><text x="60" y="224" fill="#87867f" font-family="ui-monospace, monospace" font-size="9" font-weight="600">L1 · Physical</text><text x="160" y="224" fill="#141413" font-size="10">物理层：电信号 · 光信号 · 比特</text><text x="280" y="248" fill="#87867f" font-size="9" font-style="italic" text-anchor="middle">OSI 七层模型：每层只关心自己的职责，依赖下层服务</text></svg>