<svg xmlns="http://www.w3.org/2000/svg" font-family="'Courier New', Courier, monospace" font-size="12" viewBox="0 0 580 200">
  <path fill="#faf9f5" d="M0 0h580v200H0z"/>
  <path fill="none" stroke="#141413" stroke-width="2" d="M20 10h540v180H20z"/>
  <path fill="#d97757" d="M20 10h540v28H20z"/>
  <text x="290" y="29" fill="#faf9f5" font-size="13" font-weight="bold" text-anchor="middle">两种设计哲学</text>
  <path fill="#d1cfc5" d="M20 38h270v22H20z"/>
  <text x="155" y="53" fill="#141413" font-weight="bold" text-anchor="middle">Agent 编排</text>
  <path fill="#d1cfc5" d="M290 38h270v22H290z"/>
  <text x="425" y="53" fill="#141413" font-weight="bold" text-anchor="middle">系统设计</text>
  <path stroke="#141413" d="M290 38v150M20 60h540"/>
  <text x="40" y="74" fill="#141413">关注：每个 Agent 做什么</text>
  <text x="310" y="74" fill="#141413">关注：Agent 如何交互</text>
  <path stroke="#141413" d="M20 84h540"/>
  <text x="40" y="98" fill="#141413">隐喻：管弦乐队指挥</text>
  <text x="310" y="98" fill="#141413">隐喻：生态系统园丁</text>
  <path stroke="#141413" d="M20 108h540"/>
  <text x="40" y="122" fill="#141413">控制：中央调度</text>
  <text x="310" y="122" fill="#141413">控制：规则与环境</text>
  <path stroke="#141413" d="M20 132h540"/>
  <text x="40" y="146" fill="#141413">优化：个体效率</text>
  <text x="310" y="146" fill="#141413">优化：整体适应力</text>
  <text x="40" y="170" fill="#141413">问题：&quot;Agent A 应该...&quot;</text>
  <text x="310" y="170" fill="#141413">问题：&quot;什么规则能让...&quot;</text>
</svg>
