<svg xmlns="http://www.w3.org/2000/svg" font-family="'JetBrains Mono', 'Fira Code', 'SF Mono', monospace" viewBox="0 0 760 280">
  <defs>
    <style>
      .text-sm,.text-xs{fill:#87867f;font-size:11px}.text-xs{font-size:10px}.text-label{fill:#141413;font-size:12px;font-weight:600}.border{stroke:#d1cfc5;stroke-width:1.5}
    </style>
  </defs>
  <path d="M0 0h760v280H0z" style="fill:#faf9f5"/>
  <text x="380" y="28" font-weight="700" style="fill:#141413;font-size:13px" text-anchor="middle">GitHub Agent 工作流整合</text>
  <rect width="90" height="52" x="40" y="80" rx="8" style="fill:#dbeafe;stroke:#2563eb"/>
  <text x="85" y="100" class="text-label" text-anchor="middle">Issue</text>
  <text x="85" y="116" class="text-xs" text-anchor="middle">问题描述</text>
  <path stroke-width="2" d="M130 106h30" class="border"/>
  <path fill="#141413" d="m160 106-8-5v10z"/>
  <rect width="90" height="52" x="160" y="80" rx="8" style="fill:#dbeafe;stroke:#2563eb"/>
  <text x="205" y="100" class="text-label" text-anchor="middle">Branch</text>
  <text x="205" y="116" class="text-xs" text-anchor="middle">创建分支</text>
  <path stroke-width="2" d="M250 106h30" class="border"/>
  <path fill="#141413" d="m280 106-8-5v10z"/>
  <rect width="90" height="52" x="280" y="80" rx="8" style="fill:#dbeafe;stroke:#2563eb"/>
  <text x="325" y="100" class="text-label" text-anchor="middle">Commit</text>
  <text x="325" y="116" class="text-xs" text-anchor="middle">代码提交</text>
  <path stroke-width="2" d="M370 106h30" class="border"/>
  <path fill="#141413" d="m400 106-8-5v10z"/>
  <rect width="90" height="52" x="400" y="80" rx="8" style="fill:#dbeafe;stroke:#2563eb"/>
  <text x="445" y="100" class="text-label" text-anchor="middle">PR</text>
  <text x="445" y="116" class="text-xs" text-anchor="middle">Pull Request</text>
  <path stroke-width="2" d="M490 106h30" class="border"/>
  <path fill="#141413" d="m520 106-8-5v10z"/>
  <rect width="90" height="52" x="520" y="80" rx="8" style="fill:#dbeafe;stroke:#2563eb"/>
  <text x="565" y="100" class="text-label" text-anchor="middle">Review</text>
  <text x="565" y="116" class="text-xs" text-anchor="middle">代码审查</text>
  <path stroke-width="2" d="M610 106h30" class="border"/>
  <path fill="#141413" d="m640 106-8-5v10z"/>
  <rect width="90" height="52" x="640" y="80" rx="8" style="fill:#dbeafe;stroke:#2563eb"/>
  <text x="685" y="100" class="text-label" text-anchor="middle">Merge</text>
  <text x="685" y="116" class="text-xs" text-anchor="middle">合并代码</text>
  <path stroke-width="2" d="M685 132v58m0 0H445m0 0v-30" class="border"/>
  <path fill="#141413" d="m445 160-5 8h10z"/>
  <rect width="90" height="52" x="400" y="160" rx="8" style="fill:#d1fae5;stroke:#059669;stroke-width:2"/>
  <text x="445" y="180" fill="#059669" class="text-label" text-anchor="middle">Deploy</text>
  <text x="445" y="196" class="text-xs" text-anchor="middle">部署上线</text>
  <text x="565" y="204" fill="#87867f" class="text-xs" text-anchor="middle">GitHub Agent 可介入任意环节</text>
  <rect width="740" height="28" x="40" y="45" fill="#fef3c7" stroke="#d97757" stroke-width="1.5" rx="6"/>
  <text x="410" y="63" fill="#d97757" class="text-sm" text-anchor="middle">GitHub Agent 可介入任意环节：Issue → Branch → Commit → PR → Review → Merge → Deploy</text>
  <rect width="720" height="40" x="40" y="230" fill="none" stroke="#d1cfc5" stroke-dasharray="5 4" class="border" rx="8"/>
  <text x="80" y="252" fill="#87867f" class="text-sm">Agent 能力介入点：</text>
  <text x="220" y="252" class="text-xs">Issue-to-PR</text>
  <path stroke="#d97757" stroke-width="1.5" d="M200 247v10"/>
  <text x="340" y="252" class="text-xs">Code Review Agent</text>
  <path stroke="#d97757" stroke-width="1.5" d="M320 247v10"/>
  <text x="490" y="252" class="text-xs">Architecture Agent</text>
  <path stroke="#d97757" stroke-width="1.5" d="M470 247v10"/>
  <text x="640" y="252" class="text-xs">Security Scan Agent</text>
  <path stroke="#d97757" stroke-width="1.5" d="M620 247v10"/>
</svg>
