<svg xmlns="http://www.w3.org/2000/svg" viewBox="0 0 800 440">
  <defs>
    <linearGradient id="bg2" x1="0" x2="1" y1="0" y2="1">
      <stop offset="0%" stop-color="#faf9f5"/>
      <stop offset="100%" stop-color="#e3dacc"/>
    </linearGradient>
    <filter id="shadow2" width="110%" height="115%" x="-5%" y="-5%">
      <feDropShadow dx="0" dy="3" flood-color="#141413" flood-opacity=".1" stdDeviation="6"/>
    </filter>
  </defs>
  <rect width="800" height="440" fill="url(#bg2)" rx="16"/>
  <text x="400" y="36" fill="#141413" font-family="system-ui,-apple-system,sans-serif" font-size="20" font-weight="700" letter-spacing="-.3" text-anchor="middle">AI 原生写作：六维对比</text>
  <path stroke="#d1cfc5" stroke-width="1.5" d="M180 50h440"/>
  <g transform="translate(280 240)">
    <circle r="60" fill="none" stroke="#d1cfc5"/>
    <circle r="100" fill="none" stroke="#d1cfc5"/>
    <circle r="140" fill="none" stroke="#d1cfc5" stroke-width="1.5"/>
    <path stroke="#d1cfc5" d="M0-145v290m0-290L125 72m.574-144.5L.146 144.253M125.574 72.5l-251.148-145M0 145-125-72m-.574 144.5L-.146-144.253"/>
    <path fill="#d1cfc5" stroke="#87867f" stroke-width="1.5" d="m0-60 53.7 29-21.2 87.3L-60 0l40-69.3-16 131.5z" opacity=".45"/>
    <path fill="#d97757" stroke="#d97757" stroke-width="2.5" d="m0-135 110.9 71L65 112.6-105 0l45-103.9-6 218.2z" opacity=".18"/>
    <text y="-152" fill="#141413" font-family="system-ui,-apple-system,sans-serif" font-size="11" font-weight="600" text-anchor="middle">信息密度</text>
    <text y="164" fill="#87867f" font-family="system-ui,-apple-system,sans-serif" font-size="11" text-anchor="middle">HTML/MD</text>
    <text x="133" y="-62" fill="#141413" font-family="system-ui,-apple-system,sans-serif" font-size="11" font-weight="600">视觉清晰度</text>
    <text x="133" y="78" fill="#141413" font-family="system-ui,-apple-system,sans-serif" font-size="11" font-weight="600">分享便利</text>
    <text y="78" fill="#141413" font-family="system-ui,-apple-system,sans-serif" font-size="11" font-weight="600" text-anchor="middle">交互性</text>
    <text x="-133" y="78" fill="#141413" font-family="system-ui,-apple-system,sans-serif" font-size="11" font-weight="600" text-anchor="end">&gt;100行可读</text>
    <text x="-133" y="-62" fill="#141413" font-family="system-ui,-apple-system,sans-serif" font-size="11" font-weight="600" text-anchor="end">适用场景</text>
    <rect width="14" height="14" x="-20" y="195" fill="#d1cfc5" stroke="#87867f" rx="3"/>
    <text x="2" y="206" fill="#141413" font-family="system-ui,-apple-system,sans-serif" font-size="11">Markdown</text>
    <rect width="14" height="14" x="100" y="195" fill="#d97757" stroke="#d97757" stroke-width="1.5" opacity=".25" rx="3"/>
    <text x="122" y="206" fill="#141413" font-family="system-ui,-apple-system,sans-serif" font-size="11">HTML</text>
  </g>
  <rect width="270" height="320" x="510" y="72" fill="#faf9f5" filter="url(#shadow2)" rx="14"/>
  <rect width="270" height="48" x="510" y="72" fill="#d97757" opacity=".9" rx="14"/>
  <path fill="#d97757" d="M510 106h270v14H510z" opacity=".9"/>
  <text x="645" y="100" fill="#faf9f5" font-family="system-ui,-apple-system,sans-serif" font-size="15" font-weight="700" text-anchor="middle">HTML 典型场景</text>
  <g transform="translate(528 135)">
    <rect width="234" height="50" fill="#e3dacc" opacity=".6" rx="8"/>
    <circle cx="14" cy="25" r="6" fill="#d97757"/>
    <text x="28" y="20" fill="#141413" font-family="system-ui,-apple-system,sans-serif" font-size="12" font-weight="600">Specs &amp; 规划文档</text>
    <text x="28" y="36" fill="#87867f" font-family="system-ui,-apple-system,sans-serif" font-size="10.5">tabs · 图表 · 链接导航</text>
    <rect width="234" height="50" y="58" fill="#e3dacc" opacity=".4" rx="8"/>
    <circle cx="14" cy="83" r="6" fill="#788c5d"/>
    <text x="28" y="78" fill="#141413" font-family="system-ui,-apple-system,sans-serif" font-size="12" font-weight="600">代码审查 &amp; 说明</text>
    <text x="28" y="94" fill="#87867f" font-family="system-ui,-apple-system,sans-serif" font-size="10.5">diff · 流程图 · 模块关系</text>
    <rect width="234" height="50" y="116" fill="#e3dacc" opacity=".4" rx="8"/>
    <circle cx="14" cy="141" r="6" fill="#87867f"/>
    <text x="28" y="136" fill="#141413" font-family="system-ui,-apple-system,sans-serif" font-size="12" font-weight="600">设计 &amp; 原型</text>
    <text x="28" y="152" fill="#87867f" font-family="system-ui,-apple-system,sans-serif" font-size="10.5">sliders · 参数调整 · 动画</text>
    <rect width="234" height="50" y="174" fill="#e3dacc" opacity=".4" rx="8"/>
    <circle cx="14" cy="199" r="6" fill="#d97757" opacity=".7"/>
    <text x="28" y="194" fill="#141413" font-family="system-ui,-apple-system,sans-serif" font-size="12" font-weight="600">报告 &amp; 研究</text>
    <text x="28" y="210" fill="#87867f" font-family="system-ui,-apple-system,sans-serif" font-size="10.5">SVG图表 · 多数据源综合</text>
  </g>
  <rect width="720" height="34" x="40" y="400" fill="#141413" opacity=".04" rx="10"/>
  <text x="400" y="421" fill="#141413" font-family="system-ui,-apple-system,sans-serif" font-size="12" font-style="italic" text-anchor="middle">核心洞察：格式即思想 — HTML 是对话的延续，Markdown 是对话的终结</text>
</svg>
