<svg xmlns="http://www.w3.org/2000/svg" aria-label="实时反馈系统架构图" viewBox="0 0 960 680">
  <title>实时反馈系统架构</title>
  <desc>
    AI-Native实时反馈系统的五层架构：输入层、处理层、输出层和学习层
  </desc>
  <defs>
    <linearGradient id="boxHeader" x1="0" x2="1" y1="0" y2="0">
      <stop offset="0%" stop-color="#d97757"/>
      <stop offset="100%" stop-color="#c0664a"/>
    </linearGradient>
    <marker id="arrowMain" markerHeight="8" markerWidth="8" orient="auto" refX="6" refY="3">
      <path fill="#d97757" d="M0 0v6l8-3z"/>
    </marker>
    <filter id="shadow" width="110%" height="110%" x="-5%" y="-5%">
      <feDropShadow dx="2" dy="2" flood-color="#141413" flood-opacity=".08" stdDeviation="3"/>
    </filter>
    <path id="bg" fill="#faf9f5" d="M0 0h960v680H0z"/>
  </defs>
  <use href="#bg"/>
  <rect width="920" height="648" x="20" y="16" fill="none" stroke="#d1cfc5" stroke-width="2" rx="6"/>
  <rect width="920" height="40" x="20" y="16" fill="url(#boxHeader)" rx="6"/>
  <path fill="url(#boxHeader)" d="M20 46h920v10H20z"/>
  <text x="480" y="42" fill="#faf9f5" font-family="system-ui, -apple-system, sans-serif" font-size="15" font-weight="700" letter-spacing="2" text-anchor="middle">实时反馈系统架构</text>
  <text x="40" y="84" fill="#141413" font-family="system-ui, -apple-system, sans-serif" font-size="11" font-weight="700" letter-spacing="1">输入层</text>
  <g filter="url(#shadow)">
    <rect width="160" height="76" x="40" y="92" fill="#faf9f5" stroke="#d1cfc5" stroke-width="1.5" rx="4"/>
    <rect width="160" height="24" x="40" y="92" fill="#e3dacc" rx="4"/>
    <path fill="#e3dacc" d="M40 108h160v8H40z"/>
    <text x="120" y="107" fill="#141413" font-family="system-ui, -apple-system, sans-serif" font-size="10" font-weight="600" text-anchor="middle">IDE集成</text>
    <text x="120" y="132" fill="#87867f" font-family="system-ui, -apple-system, sans-serif" font-size="9" text-anchor="middle">编码时</text>
  </g>
  <g filter="url(#shadow)">
    <rect width="160" height="76" x="240" y="92" fill="#faf9f5" stroke="#d1cfc5" stroke-width="1.5" rx="4"/>
    <rect width="160" height="24" x="240" y="92" fill="#e3dacc" rx="4"/>
    <path fill="#e3dacc" d="M240 108h160v8H240z"/>
    <text x="320" y="107" fill="#141413" font-family="system-ui, -apple-system, sans-serif" font-size="10" font-weight="600" text-anchor="middle">代码托管</text>
    <text x="320" y="132" fill="#87867f" font-family="system-ui, -apple-system, sans-serif" font-size="9" text-anchor="middle">提交时</text>
  </g>
  <g filter="url(#shadow)">
    <rect width="160" height="76" x="440" y="92" fill="#faf9f5" stroke="#d1cfc5" stroke-width="1.5" rx="4"/>
    <rect width="160" height="24" x="440" y="92" fill="#e3dacc" rx="4"/>
    <path fill="#e3dacc" d="M440 108h160v8H440z"/>
    <text x="520" y="107" fill="#141413" font-family="system-ui, -apple-system, sans-serif" font-size="10" font-weight="600" text-anchor="middle">监控系统</text>
    <text x="520" y="132" fill="#87867f" font-family="system-ui, -apple-system, sans-serif" font-size="9" text-anchor="middle">运行时</text>
  </g>
  <path stroke="#d97757" stroke-width="1.5" marker-end="url(#arrowMain)" d="M120 168v20"/>
  <path stroke="#d97757" stroke-width="1.5" marker-end="url(#arrowMain)" d="M320 168v20"/>
  <path stroke="#d97757" stroke-width="1.5" marker-end="url(#arrowMain)" d="M520 168v20"/>
  <path stroke="#d97757" stroke-width="1.5" d="M120 188h400"/>
  <path stroke="#d97757" stroke-width="1.5" marker-end="url(#arrowMain)" d="M520 188v12"/>
  <text x="40" y="214" fill="#141413" font-family="system-ui, -apple-system, sans-serif" font-size="11" font-weight="700" letter-spacing="1">处理层</text>
  <g filter="url(#shadow)">
    <rect width="880" height="72" x="40" y="222" fill="#faf9f5" stroke="#d97757" stroke-width="1.5" rx="4"/>
    <rect width="880" height="24" x="40" y="222" fill="#d97757" opacity=".15" rx="4"/>
    <path fill="#d97757" d="M40 238h880v8H40z" opacity=".15"/>
    <text x="480" y="237" fill="#d97757" font-family="system-ui, -apple-system, sans-serif" font-size="11" font-weight="700" text-anchor="middle">Context Engine (上下文引擎)</text>
    <text x="80" y="258" fill="#87867f" font-family="monospace" font-size="9">• 代码解析和语义分析</text>
    <text x="340" y="258" fill="#87867f" font-family="monospace" font-size="9">• 项目结构和依赖分析</text>
    <text x="600" y="258" fill="#87867f" font-family="monospace" font-size="9">• 历史数据检索</text>
  </g>
  <path stroke="#d97757" stroke-width="1.5" marker-end="url(#arrowMain)" d="M480 294v16"/>
  <g filter="url(#shadow)">
    <rect width="880" height="72" x="40" y="314" fill="#faf9f5" stroke="#788c5d" stroke-width="1.5" rx="4"/>
    <rect width="880" height="24" x="40" y="314" fill="#788c5d" opacity=".15" rx="4"/>
    <path fill="#788c5d" d="M40 330h880v8H40z" opacity=".15"/>
    <text x="480" y="329" fill="#788c5d" font-family="system-ui, -apple-system, sans-serif" font-size="11" font-weight="700" text-anchor="middle">Analysis Engine (分析引擎)</text>
    <text x="80" y="350" fill="#87867f" font-family="monospace" font-size="9">• 静态分析和规则检查</text>
    <text x="340" y="350" fill="#87867f" font-family="monospace" font-size="9">• 模式识别和异常检测</text>
    <text x="600" y="350" fill="#87867f" font-family="monospace" font-size="9">• 机器学习预测</text>
  </g>
  <path stroke="#d97757" stroke-width="1.5" marker-end="url(#arrowMain)" d="M480 386v16"/>
  <g filter="url(#shadow)">
    <rect width="880" height="72" x="40" y="406" fill="#faf9f5" stroke="#87867f" stroke-width="1.5" rx="4"/>
    <rect width="880" height="24" x="40" y="406" fill="#e3dacc" rx="4"/>
    <path fill="#e3dacc" d="M40 422h880v8H40z"/>
    <text x="480" y="421" fill="#141413" font-family="system-ui, -apple-system, sans-serif" font-size="11" font-weight="700" text-anchor="middle">Feedback Generator (反馈生成器)</text>
    <text x="80" y="442" fill="#87867f" font-family="monospace" font-size="9">• 优先级排序</text>
    <text x="340" y="442" fill="#87867f" font-family="monospace" font-size="9">• 建议生成和优化</text>
    <text x="600" y="442" fill="#87867f" font-family="monospace" font-size="9">• 个性化适配</text>
  </g>
  <path stroke="#d97757" stroke-width="1.5" marker-end="url(#arrowMain)" d="M480 478v16"/>
  <text x="40" y="502" fill="#141413" font-family="system-ui, -apple-system, sans-serif" font-size="11" font-weight="700" letter-spacing="1">输出层</text>
  <g filter="url(#shadow)">
    <rect width="220" height="64" x="40" y="510" fill="#faf9f5" stroke="#d1cfc5" stroke-width="1.5" rx="4"/>
    <rect width="220" height="22" x="40" y="510" fill="#e3dacc" rx="4"/>
    <path fill="#e3dacc" d="M40 524h220v8H40z"/>
    <text x="150" y="523" fill="#141413" font-family="system-ui, -apple-system, sans-serif" font-size="10" font-weight="600" text-anchor="middle">IDE提示</text>
    <text x="150" y="547" fill="#d97757" font-family="system-ui, -apple-system, sans-serif" font-size="9" font-weight="600" text-anchor="middle">即时</text>
  </g>
  <g filter="url(#shadow)">
    <rect width="220" height="64" x="300" y="510" fill="#faf9f5" stroke="#d1cfc5" stroke-width="1.5" rx="4"/>
    <rect width="220" height="22" x="300" y="510" fill="#e3dacc" rx="4"/>
    <path fill="#e3dacc" d="M300 524h220v8H300z"/>
    <text x="410" y="523" fill="#141413" font-family="system-ui, -apple-system, sans-serif" font-size="10" font-weight="600" text-anchor="middle">报告/通知</text>
    <text x="410" y="547" fill="#87867f" font-family="system-ui, -apple-system, sans-serif" font-size="9" text-anchor="middle">聚合</text>
  </g>
  <g filter="url(#shadow)">
    <rect width="220" height="64" x="560" y="510" fill="#faf9f5" stroke="#d1cfc5" stroke-width="1.5" rx="4"/>
    <rect width="220" height="22" x="560" y="510" fill="#e3dacc" rx="4"/>
    <path fill="#e3dacc" d="M560 524h220v8H560z"/>
    <text x="670" y="523" fill="#141413" font-family="system-ui, -apple-system, sans-serif" font-size="10" font-weight="600" text-anchor="middle">自动化动作</text>
    <text x="670" y="547" fill="#87867f" font-family="system-ui, -apple-system, sans-serif" font-size="9" text-anchor="middle">条件触发</text>
  </g>
  <path fill="none" stroke="#87867f" stroke-dasharray="4,3" d="M670 574v18H480v6m-330-24v18h330"/>
  <text x="40" y="606" fill="#141413" font-family="system-ui, -apple-system, sans-serif" font-size="11" font-weight="700" letter-spacing="1">学习层</text>
  <g filter="url(#shadow)">
    <rect width="880" height="46" x="40" y="614" fill="#faf9f5" stroke="#d97757" stroke-width="1.5" rx="4"/>
    <rect width="880" height="22" x="40" y="614" fill="#d97757" rx="4"/>
    <path fill="#d97757" d="M40 628h880v8H40z"/>
    <text x="480" y="628" fill="#faf9f5" font-family="system-ui, -apple-system, sans-serif" font-size="10" font-weight="700" text-anchor="middle">Feedback Loop (反馈学习)</text>
    <text x="80" y="650" fill="#87867f" font-family="monospace" font-size="9">• 采纳率追踪 → 优化建议质量</text>
    <text x="380" y="650" fill="#87867f" font-family="monospace" font-size="9">• 人工反馈 → 调整推荐策略</text>
    <text x="660" y="650" fill="#87867f" font-family="monospace" font-size="9">• 效果评估 → 持续改进模型</text>
  </g>
  <path fill="none" stroke="#d97757" stroke-dasharray="5,3" stroke-width="1.5" marker-end="url(#arrowMain)" d="M880 617c40 0 40-277 0-277"/>
  <text x="900" y="480" fill="#d97757" font-family="system-ui, -apple-system, sans-serif" font-size="8" transform="rotate(90 900 480)">学习反馈</text>
</svg>
