<svg xmlns="http://www.w3.org/2000/svg" aria-label="Strangler Fig Pattern Evolution Diagram" viewBox="0 0 720 400"><title>Strangler Fig Pattern - 渐进式演进</title><desc>展示了从单体架构到微服务架构的 Strangler Fig 迁移模式：初始状态、第一步、第二步和最终状态</desc><defs><linearGradient id="boxGradClient" x1="0%" x2="0%" y1="0%" y2="100%"><stop offset="0%" stop-color="#d97757"/><stop offset="100%" stop-color="#c0624a"/></linearGradient><linearGradient id="boxGradGateway" x1="0%" x2="0%" y1="0%" y2="100%"><stop offset="0%" stop-color="#788c5d"/><stop offset="100%" stop-color="#5e7350"/></linearGradient><linearGradient id="boxGradMonolith" x1="0%" x2="0%" y1="0%" y2="100%"><stop offset="0%" stop-color="#d1cfc5"/><stop offset="100%" stop-color="#b8b5ac"/></linearGradient><linearGradient id="boxGradService" x1="0%" x2="0%" y1="0%" y2="100%"><stop offset="0%" stop-color="#e3dacc"/><stop offset="100%" stop-color="#d4c9b8"/></linearGradient><linearGradient id="boxGradShrinking" x1="0%" x2="0%" y1="0%" y2="100%"><stop offset="0%" stop-color="#e3dacc" stop-opacity=".6"/><stop offset="100%" stop-color="#d4c9b8" stop-opacity=".6"/></linearGradient><marker id="arrowHead" markerHeight="7" markerWidth="10" orient="auto" refX="9" refY="3.5"><path fill="#87867f" d="m0 0 10 3.5L0 7z"/></marker><filter id="shadow" width="140%" height="140%" x="-20%" y="-20%"><feDropShadow dx="1" dy="1" flood-color="#141413" flood-opacity=".1" stdDeviation="2"/></filter></defs><path fill="#faf9f5" d="M0 0h720v400H0z"/><g id="stage-initial"><text x="90" y="30" fill="#141413" font-family="Georgia, serif" font-size="14" font-weight="bold" text-anchor="middle">初始状态</text><rect width="80" height="36" x="30" y="45" fill="url(#boxGradClient)" filter="url(#shadow)" rx="4"/><text x="70" y="68" fill="#faf9f5" font-family="Georgia, serif" font-size="12" text-anchor="middle">Client</text><path stroke="#87867f" stroke-width="1.5" marker-end="url(#arrowHead)" d="M115 63h30"/><rect width="100" height="36" x="150" y="45" fill="url(#boxGradMonolith)" filter="url(#shadow)" rx="4"/><text x="200" y="68" fill="#141413" font-family="Georgia, serif" font-size="12" text-anchor="middle">Monolith</text></g><g id="stage-step1"><text x="270" y="30" fill="#141413" font-family="Georgia, serif" font-size="14" font-weight="bold" text-anchor="middle">第一步</text><rect width="80" height="36" x="190" y="100" fill="url(#boxGradClient)" filter="url(#shadow)" rx="4"/><text x="230" y="123" fill="#faf9f5" font-family="Georgia, serif" font-size="12" text-anchor="middle">Client</text><path stroke="#87867f" stroke-width="1.5" marker-end="url(#arrowHead)" d="M275 118h30"/><rect width="80" height="36" x="310" y="100" fill="url(#boxGradGateway)" filter="url(#shadow)" rx="4"/><text x="350" y="123" fill="#faf9f5" font-family="Georgia, serif" font-size="12" text-anchor="middle">Gateway</text><path stroke="#87867f" stroke-width="1.5" marker-end="url(#arrowHead)" d="m355 136 50 29"/><rect width="100" height="36" x="410" y="165" fill="url(#boxGradMonolith)" filter="url(#shadow)" rx="4"/><text x="460" y="188" fill="#141413" font-family="Georgia, serif" font-size="12" text-anchor="middle">Monolith</text><path stroke="#87867f" stroke-width="1.5" marker-end="url(#arrowHead)" d="M460 201v30"/><rect width="100" height="36" x="410" y="236" fill="url(#boxGradService)" filter="url(#shadow)" rx="4"/><text x="460" y="259" fill="#141413" font-family="Georgia, serif" font-size="12" text-anchor="middle">Service A</text><text x="460" y="288" fill="#788c5d" font-family="Georgia, serif" font-size="10" text-anchor="middle">New</text></g><g id="stage-step2"><text x="90" y="215" fill="#141413" font-family="Georgia, serif" font-size="14" font-weight="bold" text-anchor="middle">第二步</text><rect width="80" height="36" x="30" y="285" fill="url(#boxGradClient)" filter="url(#shadow)" rx="4"/><text x="70" y="308" fill="#faf9f5" font-family="Georgia, serif" font-size="12" text-anchor="middle">Client</text><path stroke="#87867f" stroke-width="1.5" marker-end="url(#arrowHead)" d="M115 303h30"/><rect width="80" height="36" x="150" y="285" fill="url(#boxGradGateway)" filter="url(#shadow)" rx="4"/><text x="190" y="308" fill="#faf9f5" font-family="Georgia, serif" font-size="12" text-anchor="middle">Gateway</text><path stroke="#87867f" stroke-width="1.5" marker-end="url(#arrowHead)" d="m195 321 20 24"/><rect width="70" height="30" x="220" y="345" fill="url(#boxGradShrinking)" stroke="#d97757" stroke-dasharray="4,2" stroke-width="2" filter="url(#shadow)" rx="4"/><text x="255" y="365" fill="#87867f" font-family="Georgia, serif" font-size="11" text-anchor="middle">Monolith</text><path stroke="#87867f" stroke-width="1.5" marker-end="url(#arrowHead)" d="M190 321v24"/><rect width="90" height="30" x="145" y="350" fill="url(#boxGradService)" filter="url(#shadow)" rx="4"/><text x="190" y="369" fill="#141413" font-family="Georgia, serif" font-size="11" text-anchor="middle">Service A</text><rect width="90" height="30" x="245" y="350" fill="url(#boxGradService)" filter="url(#shadow)" rx="4"/><text x="290" y="369" fill="#141413" font-family="Georgia, serif" font-size="11" text-anchor="middle">Service B</text></g><g id="stage-final"><text x="570" y="30" fill="#141413" font-family="Georgia, serif" font-size="14" font-weight="bold" text-anchor="middle">最终状态</text><rect width="80" height="36" x="505" y="50" fill="url(#boxGradClient)" filter="url(#shadow)" rx="4"/><text x="545" y="73" fill="#faf9f5" font-family="Georgia, serif" font-size="12" text-anchor="middle">Client</text><path stroke="#87867f" stroke-width="1.5" marker-end="url(#arrowHead)" d="M590 68h20"/><rect width="80" height="36" x="615" y="50" fill="url(#boxGradGateway)" filter="url(#shadow)" rx="4"/><text x="655" y="73" fill="#faf9f5" font-family="Georgia, serif" font-size="12" text-anchor="middle">Gateway</text><path stroke="#87867f" stroke-width="1.5" marker-end="url(#arrowHead)" d="M655 86v34"/><path stroke="#87867f" stroke-width="1.5" d="M655 120H535"/><path stroke="#87867f" stroke-width="1.5" marker-end="url(#arrowHead)" d="M535 120v15"/><path stroke="#87867f" stroke-width="1.5" d="M655 120h120"/><path stroke="#87867f" stroke-width="1.5" marker-end="url(#arrowHead)" d="M775 120v15"/><rect width="90" height="30" x="490" y="140" fill="url(#boxGradService)" filter="url(#shadow)" rx="4"/><text x="535" y="159" fill="#141413" font-family="Georgia, serif" font-size="11" text-anchor="middle">Service A</text><rect width="90" height="30" x="590" y="140" fill="url(#boxGradService)" filter="url(#shadow)" rx="4"/><text x="635" y="159" fill="#141413" font-family="Georgia, serif" font-size="11" text-anchor="middle">Service B</text><rect width="90" height="30" x="510" y="180" fill="url(#boxGradService)" filter="url(#shadow)" rx="4"/><text x="555" y="199" fill="#141413" font-family="Georgia, serif" font-size="11" text-anchor="middle">Service C</text><rect width="90" height="30" x="610" y="180" fill="url(#boxGradService)" filter="url(#shadow)" rx="4"/><text x="655" y="199" fill="#141413" font-family="Georgia, serif" font-size="11" text-anchor="middle">Service D</text></g><path stroke="#d1cfc5" d="M15 90h690M15 245h690"/><path stroke="#d1cfc5" stroke-dasharray="4,4" d="M155 15v380M405 15v380"/></svg>