<svg xmlns="http://www.w3.org/2000/svg" font-family="ui-serif, Georgia, 'Times New Roman', serif" viewBox="0 0 720 260">
  <path fill="#faf9f5" d="M0 0h720v260H0z"/>
  <text x="360" y="26" fill="#141413" font-size="14" font-weight="500" letter-spacing="-.02em" text-anchor="middle">AI 执行流程：Base Context + Delta Context</text>
  <text x="360" y="42" fill="#87867f" font-family="ui-monospace, monospace" font-size="10" text-anchor="middle">Delta Specification 工作流</text>
  <rect width="180" height="100" x="40" y="70" fill="#fff" stroke="#d1cfc5" stroke-width="1.5" rx="6"/>
  <rect width="180" height="24" x="40" y="70" fill="#d1cfc5" rx="6"/>
  <path fill="#d1cfc5" d="M40 86h180v8H40z"/>
  <text x="130" y="86" fill="#141413" font-family="ui-monospace, monospace" font-size="11" font-weight="600" text-anchor="middle">Base Spec</text>
  <text x="130" y="110" fill="#141413" font-size="11" text-anchor="middle">现有系统完整上下文</text>
  <text x="130" y="128" fill="#87867f" font-size="10" text-anchor="middle">domain/spec.yaml</text>
  <text x="130" y="144" fill="#87867f" font-size="10" text-anchor="middle">api/openapi.yaml</text>
  <text x="130" y="160" fill="#87867f" font-size="10" text-anchor="middle">existing tests/</text>
  <path stroke="#d97757" stroke-width="2" d="M220 120h50"/>
  <path fill="#d97757" d="m270 120-8-5v10z"/>
  <text x="245" y="110" fill="#d97757" font-family="ui-monospace, monospace" font-size="9" text-anchor="middle">读取</text>
  <rect width="180" height="100" x="270" y="70" fill="#fff" stroke="#d97757" stroke-width="2" rx="6"/>
  <rect width="180" height="24" x="270" y="70" fill="#d97757" rx="6"/>
  <path fill="#d97757" d="M270 86h180v8H270z"/>
  <text x="360" y="86" fill="#fff" font-family="ui-monospace, monospace" font-size="11" font-weight="600" text-anchor="middle">Delta Spec</text>
  <text x="360" y="110" fill="#141413" font-size="11" text-anchor="middle">增量变更规格</text>
  <text x="360" y="128" fill="#d97757" font-size="10" text-anchor="middle">change.md</text>
  <text x="360" y="144" fill="#d97757" font-size="10" text-anchor="middle">domain.delta.md</text>
  <text x="360" y="160" fill="#d97757" font-size="10" text-anchor="middle">api.delta.yaml</text>
  <path stroke="#d97757" stroke-width="2" d="M450 120h50"/>
  <path fill="#d97757" d="m500 120-8-5v10z"/>
  <text x="475" y="110" fill="#d97757" font-family="ui-monospace, monospace" font-size="9" text-anchor="middle">合并</text>
  <rect width="180" height="100" x="500" y="70" fill="#fff" stroke="#788c5d" stroke-width="2" rx="6"/>
  <rect width="180" height="24" x="500" y="70" fill="#788c5d" rx="6"/>
  <path fill="#788c5d" d="M500 86h180v8H500z"/>
  <text x="590" y="86" fill="#fff" font-family="ui-monospace, monospace" font-size="11" font-weight="600" text-anchor="middle">AI Execution Context</text>
  <text x="590" y="110" fill="#141413" font-size="11" text-anchor="middle">稳定merged上下文</text>
  <text x="590" y="128" fill="#788c5d" font-size="10" text-anchor="middle">Base + Delta</text>
  <text x="590" y="148" fill="#87867f" font-size="10" text-anchor="middle">AI 实现变更</text>
  <text x="590" y="164" fill="#87867f" font-size="10" text-anchor="middle">向后兼容</text>
  <rect width="72" height="22" x="554" y="184" fill="#788c5d" rx="11"/>
  <text x="590" y="199" fill="#fff" font-family="ui-monospace, monospace" font-size="10" text-anchor="middle">Stable Output</text>
  <rect width="640" height="44" x="40" y="200" fill="#f0eee6" stroke="#d1cfc5" rx="4"/>
  <text x="56" y="218" fill="#d97757" font-family="ui-monospace, monospace" font-size="10" font-weight="600">Compatibility Rules</text>
  <text x="140" y="218" fill="#141413" font-size="10">：AI 必须遵守的约束，确保不破坏已有逻辑</text>
  <text x="56" y="234" fill="#87867f" font-size="10">例：已发货订单不可取消 · DELETE /orders/{id} 不能暴露 · 已有 GET /orders/{id} 保持兼容</text>
  <circle cx="130" cy="58" r="10" fill="#d1cfc5"/>
  <text x="130" y="62" fill="#141413" font-family="ui-monospace, monospace" font-size="10" text-anchor="middle">1</text>
  <circle cx="360" cy="58" r="10" fill="#d97757"/>
  <text x="360" y="62" fill="#fff" font-family="ui-monospace, monospace" font-size="10" text-anchor="middle">2</text>
  <circle cx="590" cy="58" r="10" fill="#788c5d"/>
  <text x="590" y="62" fill="#fff" font-family="ui-monospace, monospace" font-size="10" text-anchor="middle">3</text>
</svg>
