<svg xmlns="http://www.w3.org/2000/svg" font-family="ui-serif, Georgia, serif" viewBox="0 0 560 220"><path fill="#faf9f5" d="M0 0h560v220H0z"/><text x="280" y="20" fill="#141413" font-size="13" font-weight="500" letter-spacing="-.02em" text-anchor="middle">优雅工程五步法</text><text x="280" y="36" fill="#87867f" font-family="ui-monospace, monospace" font-size="9.5" text-anchor="middle">postcodeengineering.com · 2026/03/15</text><rect width="90" height="90" x="30" y="58" fill="#fff" stroke="#d97757" stroke-width="1.8" rx="6"/><rect width="90" height="16" x="30" y="58" fill="#fef3c7" stroke="#d97757" rx="6"/><text x="75" y="71" fill="#d97757" font-family="ui-monospace, monospace" font-size="9" font-weight="600" text-anchor="middle">S1 · 意图表达</text><text x="75" y="92" fill="#141413" font-size="8.5" text-anchor="middle">精确的自然语言</text><text x="75" y="105" fill="#87867f" font-size="8" text-anchor="middle">描述需求</text><text x="75" y="118" fill="#87867f" font-size="8" text-anchor="middle">「实现函数，接收</text><text x="75" y="130" fill="#87867f" font-size="8" text-anchor="middle">订单列表，返回</text><text x="75" y="142" fill="#87867f" font-size="8" text-anchor="middle">按状态分组统计」</text><rect width="12" height="12" x="112" y="88" fill="#d97757" rx="6"/><text x="118" y="97" fill="#fff" font-family="ui-monospace, monospace" font-size="7" text-anchor="middle">1</text><path stroke="#d1cfc5" stroke-width="1.5" d="M120 100h18"/><path fill="#d1cfc5" d="m138 96 8 4-8 4z"/><rect width="90" height="90" x="146" y="58" fill="#fff" stroke="#ea580c" stroke-width="1.5" rx="6"/><rect width="90" height="16" x="146" y="58" fill="#fed7aa" stroke="#ea580c" rx="6"/><text x="191" y="71" fill="#ea580c" font-family="ui-monospace, monospace" font-size="9" font-weight="600" text-anchor="middle">S2 · AI生成初稿</text><text x="191" y="92" fill="#141413" font-size="8.5" text-anchor="middle">让 AI 生成</text><text x="191" y="105" fill="#141413" font-size="8" text-anchor="middle">多个实现方案</text><text x="191" y="118" fill="#87867f" font-size="8" text-anchor="middle">比较不同方案</text><text x="191" y="131" fill="#87867f" font-size="8" text-anchor="middle">的优劣</text><rect width="12" height="12" x="228" y="88" fill="#ea580c" rx="6"/><text x="234" y="97" fill="#fff" font-family="ui-monospace, monospace" font-size="7" text-anchor="middle">2</text><path stroke="#d1cfc5" stroke-width="1.5" d="M236 100h18"/><path fill="#d1cfc5" d="m254 96 8 4-8 4z"/><rect width="90" height="90" x="262" y="58" fill="#fff" stroke="#f97316" stroke-width="1.5" rx="6"/><rect width="90" height="16" x="262" y="58" fill="#fdba74" stroke="#f97316" rx="6"/><text x="307" y="71" fill="#f97316" font-family="ui-monospace, monospace" font-size="9" font-weight="600" text-anchor="middle">S3 · 结构审查</text><text x="307" y="92" fill="#141413" font-size="8.5" text-anchor="middle">检查设计合理性</text><text x="307" y="105" fill="#141413" font-size="8" text-anchor="middle">验证边界条件</text><text x="307" y="118" fill="#141413" font-size="8" text-anchor="middle">确认错误处理</text><text x="307" y="131" fill="#87867f" font-size="8" text-anchor="middle">策略</text><rect width="12" height="12" x="344" y="88" fill="#f97316" rx="6"/><text x="350" y="97" fill="#fff" font-family="ui-monospace, monospace" font-size="7" text-anchor="middle">3</text><path stroke="#d1cfc5" stroke-width="1.5" d="M352 100h18"/><path fill="#d1cfc5" d="m370 96 8 4-8 4z"/><rect width="90" height="90" x="378" y="58" fill="#fff" stroke="#2563eb" stroke-width="1.5" rx="6"/><rect width="90" height="16" x="378" y="58" fill="#dbeafe" stroke="#2563eb" rx="6"/><text x="423" y="71" fill="#2563eb" font-family="ui-monospace, monospace" font-size="9" font-weight="600" text-anchor="middle">S4 · 美学打磨</text><text x="423" y="92" fill="#141413" font-size="8.5" text-anchor="middle">统一命名风格</text><text x="423" y="105" fill="#141413" font-size="8" text-anchor="middle">简化复杂表达式</text><text x="423" y="118" fill="#141413" font-size="8" text-anchor="middle">删除冗余代码</text><rect width="12" height="12" x="460" y="88" fill="#2563eb" rx="6"/><text x="466" y="97" fill="#fff" font-family="ui-monospace, monospace" font-size="7" text-anchor="middle">4</text><path stroke="#d1cfc5" stroke-width="1.5" d="M423 148v16"/><path fill="#d1cfc5" d="m419 164 4 8 4-8z"/><rect width="90" height="40" x="378" y="172" fill="#fff" stroke="#059669" stroke-width="1.5" rx="6"/><rect width="90" height="14" x="378" y="172" fill="#d1fae5" stroke="#059669" rx="6"/><text x="423" y="184" fill="#059669" font-family="ui-monospace, monospace" font-size="9" font-weight="600" text-anchor="middle">S5 · 验证与迭代</text><text x="423" y="200" fill="#141413" font-size="8" text-anchor="middle">测试验证正确性</text><rect width="12" height="12" x="460" y="180" fill="#059669" rx="6"/><text x="466" y="189" fill="#fff" font-family="ui-monospace, monospace" font-size="7" text-anchor="middle">5</text><path fill="none" stroke="#d1cfc5" stroke-dasharray="3,3" d="M378 192q-358 0-187-92"/><path fill="#d1cfc5" d="m191 100 6-4v8z"/><text x="280" y="210" fill="#87867f" font-family="ui-monospace, monospace" font-size="8" text-anchor="middle">迭代优化 ←</text></svg>