<svg xmlns="http://www.w3.org/2000/svg" font-family="ui-serif, Georgia, 'Times New Roman', serif" viewBox="0 0 600 340"><path fill="#faf9f5" d="M0 0h600v340H0z"/><text x="300" y="26" fill="#141413" font-size="13" font-weight="500" letter-spacing="-.02em" text-anchor="middle">验证器经济学：生成 vs 筛选</text><text x="300" y="42" fill="#87867f" font-family="ui-monospace, monospace" font-size="9.5" text-anchor="middle">Cobbe et al. · arXiv:2110.14168 · 2021</text><rect width="210" height="200" x="40" y="60" fill="#fff" stroke="#d1cfc5" stroke-width="1.5" rx="6"/><rect width="210" height="32" x="40" y="60" fill="#f0eee6" rx="6"/><path fill="#f0eee6" d="M40 80h210v12H40z"/><text x="60" y="81" fill="#141413" font-family="ui-monospace, monospace" font-size="11" font-weight="700">Generator</text><text x="60" y="96" fill="#87867f" font-size="9.5">模型生成候选答案</text><circle cx="145" cy="160" r="16" fill="none" stroke="#d1cfc5" stroke-width="1.5"/><circle cx="125" cy="145" r="8" fill="#e3dacc"/><circle cx="165" cy="145" r="8" fill="#e3dacc"/><circle cx="125" cy="175" r="8" fill="#e3dacc"/><circle cx="165" cy="175" r="8" fill="#e3dacc"/><path stroke="#d1cfc5" d="m145 160-20-15m20 15 20-15m-20 15-20 15m20-15 20 15m-32-26h24m-24 22h24m-32-18v14m40-14v14"/><text x="145" y="200" fill="#87867f" font-size="9" text-anchor="middle">LLM</text><path stroke="#d1cfc5" d="M40 230v42"/><path fill="#d1cfc5" d="m40 280-4-10h8z"/><text x="26" y="258" fill="#87867f" font-family="ui-monospace, monospace" font-size="9" transform="rotate(-90 26 258)">生成 100 个</text><path stroke="#d1cfc5" stroke-width="2" d="M250 160h70"/><path fill="#d1cfc5" d="m328 160-10-5v10z"/><text x="285" y="153" fill="#87867f" font-family="ui-monospace, monospace" font-size="9" text-anchor="middle">候选答案</text><rect width="230" height="200" x="330" y="60" fill="#fff" stroke="#d97757" stroke-width="2" rx="6"/><rect width="230" height="32" x="330" y="60" fill="#fdf5f2" rx="6"/><path fill="#fdf5f2" d="M330 80h230v12H330z"/><text x="350" y="81" fill="#d97757" font-family="ui-monospace, monospace" font-size="11" font-weight="700">Verifier</text><text x="350" y="96" fill="#87867f" font-size="9.5">验证器筛选最佳答案</text><rect width="70" height="60" x="420" y="130" fill="#fdf5f2" stroke="#d97757" stroke-width="1.5" rx="4"/><path fill="none" stroke="#d97757" stroke-linecap="round" stroke-linejoin="round" stroke-width="2.5" d="m432 162 11 12 15-26"/><path stroke="#d97757" d="M420 163h70m-70-3v15m70-15v15"/><text x="455" y="120" fill="#d97757" font-family="ui-monospace, monospace" font-size="9" text-anchor="middle">筛选</text><path stroke="#d97757" stroke-width="1.5" d="M560 160v112"/><path fill="#d97757" d="m560 280-4-10h8z"/><text x="572" y="258" fill="#d97757" font-family="ui-monospace, monospace" font-size="9" transform="rotate(-90 572 258)">最佳答案</text><rect width="520" height="36" x="40" y="295" fill="#f0eee6" stroke="#d1cfc5" rx="5"/><text x="60" y="317" fill="#141413" font-family="ui-monospace, monospace" font-size="11">准确率提升</text><path stroke="#87867f" d="M170 313v4"/><rect width="55" height="16" x="175" y="305" fill="#e3dacc" rx="3"/><text x="202" y="317" fill="#141413" font-family="ui-monospace, monospace" font-size="10" font-weight="600" text-anchor="middle">~50%</text><path stroke="#d97757" stroke-width="2" d="M240 313h30"/><path fill="#d97757" d="m278 313-10-4v8z"/><rect width="55" height="16" x="285" y="305" fill="#d97757" rx="3"/><text x="312" y="317" fill="#fff" font-family="ui-monospace, monospace" font-size="10" font-weight="600" text-anchor="middle">~70%</text><text x="360" y="317" fill="#788c5d" font-family="ui-monospace, monospace" font-size="10">+20pp · 超线性扩展</text><path fill="none" stroke="#d97757" stroke-dasharray="3,2" d="M395 92c-15 16-25 28-35 38" opacity=".7"/><path fill="#d97757" d="m360 130 6-8-12 4z" opacity=".7"/><text x="396" y="108" fill="#d97757" font-family="ui-monospace, monospace" font-size="9">关键价值</text></svg>