<svg xmlns="http://www.w3.org/2000/svg" font-family="ui-serif, Georgia, 'Times New Roman', serif" viewBox="0 0 640 300">
  <title>层聚合方式对比与 Block AttnRes</title>
  <desc>
    对比标准残差连接的固定权重导致贡献稀释，Attention Residuals 通过可学习权重实现自适应层聚合，以及 Block AttnRes 在保持内存效率的同时实现这一机制
  </desc>
  <path fill="#faf9f5" d="M0 0h640v300H0z"/>
  <text x="320" y="24" fill="#141413" font-size="14" font-weight="500" letter-spacing="-.02em" text-anchor="middle">层聚合方式对比与 Block AttnRes</text>
  <text x="320" y="40" fill="#87867f" font-family="ui-monospace, monospace" font-size="10" text-anchor="middle">Kimi 团队 · arXiv:2603.15031 · 2026/03</text>
  <rect width="190" height="220" x="20" y="56" fill="#fff" stroke="#d1cfc5" stroke-width="1.5" rx="8"/>
  <text x="115" y="78" fill="#d97757" font-family="ui-monospace, monospace" font-size="11" font-weight="600" text-anchor="middle">固定聚合（Standard）</text>
  <rect width="52" height="28" x="36" y="92" fill="#f0eee6" stroke="#d1cfc5" rx="3"/>
  <text x="62" y="110" fill="#141413" font-size="9" text-anchor="middle">L1</text>
  <rect width="52" height="28" x="36" y="126" fill="#f0eee6" stroke="#d1cfc5" rx="3"/>
  <text x="62" y="144" fill="#141413" font-size="9" text-anchor="middle">L2</text>
  <rect width="52" height="28" x="36" y="160" fill="#f0eee6" stroke="#d1cfc5" rx="3"/>
  <text x="62" y="178" fill="#141413" font-size="9" text-anchor="middle">L3</text>
  <rect width="52" height="28" x="36" y="194" fill="#f0eee6" stroke="#d1cfc5" rx="3"/>
  <text x="62" y="212" fill="#141413" font-size="9" text-anchor="middle">L4</text>
  <path stroke="#d97757" stroke-width="2" d="M92 106h20m-20 34h20m-20 34h20m-20 34h20"/>
  <text x="102" y="100" fill="#d97757" font-family="ui-monospace, monospace" font-size="8" text-anchor="middle">=1</text>
  <text x="102" y="134" fill="#d97757" font-family="ui-monospace, monospace" font-size="8" text-anchor="middle">=1</text>
  <text x="102" y="168" fill="#d97757" font-family="ui-monospace, monospace" font-size="8" text-anchor="middle">=1</text>
  <text x="102" y="202" fill="#d97757" font-family="ui-monospace, monospace" font-size="8" text-anchor="middle">=1</text>
  <rect width="84" height="36" x="118" y="130" fill="#e3dacc" stroke="#d1cfc5" rx="3"/>
  <text x="160" y="144" fill="#141413" font-size="8" text-anchor="middle">所有层</text>
  <text x="160" y="157" fill="#141413" font-size="8" text-anchor="middle">均等贡献</text>
  <path stroke="#d1cfc5" stroke-width="1.5" d="M214 156h12"/>
  <path fill="#d1cfc5" d="m226 156-6-4v8z"/>
  <rect width="190" height="220" x="230" y="56" fill="#fff" stroke="#788c5d" stroke-width="1.5" rx="8"/>
  <text x="325" y="78" fill="#788c5d" font-family="ui-monospace, monospace" font-size="11" font-weight="600" text-anchor="middle">自适应聚合（AttnRes）</text>
  <rect width="52" height="28" x="246" y="92" fill="#f0eee6" stroke="#788c5d" rx="3"/>
  <text x="272" y="110" fill="#141413" font-size="9" text-anchor="middle">L1</text>
  <rect width="52" height="28" x="246" y="126" fill="#f0eee6" stroke="#788c5d" rx="3"/>
  <text x="272" y="144" fill="#141413" font-size="9" text-anchor="middle">L2</text>
  <rect width="52" height="28" x="246" y="160" fill="#f0eee6" stroke="#788c5d" rx="3"/>
  <text x="272" y="178" fill="#141413" font-size="9" text-anchor="middle">L3</text>
  <rect width="52" height="28" x="246" y="194" fill="#f0eee6" stroke="#788c5d" rx="3"/>
  <text x="272" y="212" fill="#141413" font-size="9" text-anchor="middle">L4</text>
  <path stroke="#788c5d" stroke-width="2.5" d="M302 106h20"/>
  <path stroke="#788c5d" stroke-width="1.2" d="M302 140h20"/>
  <path stroke="#788c5d" stroke-width=".6" d="M302 174h20"/>
  <path stroke="#788c5d" stroke-width=".4" d="M302 208h20"/>
  <text x="326" y="100" fill="#788c5d" font-family="ui-monospace, monospace" font-size="8">α=0.6</text>
  <text x="326" y="134" fill="#788c5d" font-family="ui-monospace, monospace" font-size="8">α=0.25</text>
  <text x="326" y="168" fill="#788c5d" font-family="ui-monospace, monospace" font-size="8">α=0.1</text>
  <text x="326" y="202" fill="#788c5d" font-family="ui-monospace, monospace" font-size="8">α=0.05</text>
  <rect width="84" height="36" x="328" y="132" fill="#788c5d" stroke="#788c5d" opacity=".12" rx="3"/>
  <text x="370" y="146" fill="#141413" font-size="8" text-anchor="middle">选择性</text>
  <text x="370" y="159" fill="#141413" font-size="8" text-anchor="middle">信息聚合</text>
  <rect width="170" height="20" x="246" y="238" fill="#d97757" stroke="#d97757" opacity=".12" rx="3"/>
  <text x="331" y="252" fill="#d97757" font-family="ui-monospace, monospace" font-size="9" text-anchor="middle">内存：O(L² × D) — 不可扩展</text>
  <path stroke="#d1cfc5" stroke-width="1.5" d="M424 156h12"/>
  <path fill="#d1cfc5" d="m436 156-6-4v8z"/>
  <rect width="190" height="220" x="440" y="56" fill="#fff" stroke="#d97757" stroke-width="1.5" rx="8"/>
  <text x="535" y="78" fill="#d97757" font-family="ui-monospace, monospace" font-size="11" font-weight="600" text-anchor="middle">Block AttnRes（B=4）</text>
  <rect width="80" height="60" x="456" y="92" fill="#d97757" stroke="#d97757" stroke-width="1.5" opacity=".08" rx="4"/>
  <rect width="32" height="20" x="460" y="98" fill="#f0eee6" stroke="#d1cfc5" rx="2"/>
  <text x="476" y="112" fill="#141413" font-size="8" text-anchor="middle">L1</text>
  <rect width="32" height="20" x="460" y="122" fill="#f0eee6" stroke="#d1cfc5" rx="2"/>
  <text x="476" y="136" fill="#141413" font-size="8" text-anchor="middle">L2</text>
  <rect width="32" height="20" x="496" y="98" fill="#f0eee6" stroke="#d1cfc5" rx="2"/>
  <text x="512" y="112" fill="#141413" font-size="8" text-anchor="middle">L3</text>
  <rect width="32" height="20" x="496" y="122" fill="#f0eee6" stroke="#d1cfc5" rx="2"/>
  <text x="512" y="136" fill="#141413" font-size="8" text-anchor="middle">L4</text>
  <path stroke="#788c5d" stroke-width="1.2" d="M492 108h4m-4 20h4m-36-10v4m68-4v4"/>
  <text x="496" y="148" fill="#d97757" font-family="ui-monospace, monospace" font-size="8" text-anchor="middle">块内 AttnRes</text>
  <path stroke="#d97757" stroke-width="2" d="M536 122h22"/>
  <path fill="#d97757" d="m558 122-6-4v8z"/>
  <text x="547" y="116" fill="#d97757" font-family="ui-monospace, monospace" font-size="8" text-anchor="middle">残差</text>
  <rect width="60" height="60" x="560" y="92" fill="#d1cfc5" stroke="#d1cfc5" opacity=".3" rx="4"/>
  <text x="590" y="126" fill="#87867f" font-size="9" text-anchor="middle">Block 2</text>
  <rect width="80" height="60" x="456" y="164" fill="#d97757" stroke="#d97757" stroke-width="1.5" opacity=".08" rx="4"/>
  <rect width="32" height="20" x="460" y="170" fill="#f0eee6" stroke="#d1cfc5" rx="2"/>
  <text x="476" y="184" fill="#141413" font-size="8" text-anchor="middle">L5</text>
  <rect width="32" height="20" x="460" y="194" fill="#f0eee6" stroke="#d1cfc5" rx="2"/>
  <text x="476" y="208" fill="#141413" font-size="8" text-anchor="middle">L6</text>
  <rect width="32" height="20" x="496" y="170" fill="#f0eee6" stroke="#d1cfc5" rx="2"/>
  <text x="512" y="184" fill="#141413" font-size="8" text-anchor="middle">L7</text>
  <rect width="32" height="20" x="496" y="194" fill="#f0eee6" stroke="#d1cfc5" rx="2"/>
  <text x="512" y="208" fill="#141413" font-size="8" text-anchor="middle">L8</text>
  <rect width="60" height="60" x="560" y="164" fill="#d1cfc5" stroke="#d1cfc5" opacity=".3" rx="4"/>
  <text x="590" y="198" fill="#87867f" font-size="9" text-anchor="middle">Block 3</text>
  <rect width="170" height="20" x="456" y="238" fill="#788c5d" stroke="#788c5d" opacity=".15" rx="3"/>
  <text x="541" y="252" fill="#788c5d" font-family="ui-monospace, monospace" font-size="9" text-anchor="middle">内存：O(L²/B × D) — 可扩展</text>
</svg>
