<svg xmlns="http://www.w3.org/2000/svg" font-family="'JetBrains Mono', 'Fira Code', 'SF Mono', monospace" viewBox="0 0 900 480"><defs><style>.text-sm,.text-xs{fill:#87867f;font-size:10px}.text-xs{font-size:9px}.text-label{fill:#141413;font-size:11px;font-weight:500}.border{stroke:#d1cfc5;stroke-width:1.5}.fill-client{fill:#e3dacc}.fill-agent,.fill-router{stroke-width:2}.fill-router{fill:#fef3c7;stroke:#d97757}.fill-agent{fill:#dbeafe;stroke:#2563eb}.fill-capability,.fill-prompt{fill:#d1fae5;stroke:#059669;stroke-width:1.5}.fill-prompt{fill:#fed7aa;stroke:#ea580c}.fill-white{fill:#fff}</style></defs><path d="M0 0h900v480H0z" style="fill:#faf9f5"/><text x="450" y="28" font-weight="700" style="fill:#141413;font-size:12px" text-anchor="middle">智能客服系统架构图 — 新 SOLID 原则应用</text><rect width="120" height="44" x="40" y="80" class="fill-client border" rx="7"/><text x="100" y="98" class="text-label" text-anchor="middle">Client</text><text x="100" y="112" class="text-xs" text-anchor="middle">用户请求</text><path stroke-width="2" d="M160 102h40" class="border"/><path fill="#141413" d="m200 102-8-5v10z"/><rect width="160" height="84" x="200" y="60" class="fill-router" rx="8"/><text x="280" y="80" fill="#141413" class="text-label" font-weight="600" text-anchor="middle">IntentRouter</text><text x="280" y="93" class="text-xs" text-anchor="middle">ISP: Intent 隔离原则</text><rect width="130" height="34" x="215" y="100" class="fill-white border" rx="5"/><text x="280" y="115" class="text-sm" text-anchor="middle">解析用户查询 →</text><text x="280" y="128" class="text-xs" text-anchor="middle">分解为独立 Intent</text><path stroke-width="1.5" d="m280 144-80 76" class="border"/><path fill="#141413" d="m200 220 7-6-7-6z"/><path stroke-width="1.5" d="m280 144 80 76" class="border"/><path fill="#141413" d="m360 220-7-6 7-6z"/><rect width="340" height="160" x="110" y="200" fill="none" stroke="#d1cfc5" stroke-dasharray="6 4" rx="10"/><text x="280" y="216" fill="#87867f" class="text-sm" text-anchor="middle">Agents (SCP — 单一能力原则)</text><rect width="140" height="60" x="130" y="228" class="fill-agent" rx="7"/><text x="200" y="248" class="text-label" text-anchor="middle">OrderAgent</text><text x="200" y="262" class="text-xs" text-anchor="middle">专注：订单查询</text><text x="200" y="276" class="text-xs" text-anchor="middle">Capability: order_query</text><rect width="140" height="60" x="290" y="228" class="fill-agent" rx="7"/><text x="360" y="248" class="text-label" text-anchor="middle">SupportAgent</text><text x="360" y="262" class="text-xs" text-anchor="middle">专注：退款处理</text><text x="360" y="276" class="text-xs" text-anchor="middle">Capability: refund_processor</text><rect width="340" height="80" x="110" y="380" fill="none" stroke="#d1cfc5" stroke-dasharray="6 4" rx="10"/><text x="280" y="396" fill="#87867f" class="text-sm" text-anchor="middle">Capability Layer (DIP — 依赖抽象)</text><rect width="90" height="44" x="130" y="406" class="fill-capability" rx="6"/><text x="175" y="424" class="text-label" text-anchor="middle">LLM</text><text x="175" y="438" class="text-xs" text-anchor="middle">LLMProvider</text><rect width="90" height="44" x="235" y="406" class="fill-capability" rx="6"/><text x="280" y="424" class="text-label" text-anchor="middle">Tools</text><text x="280" y="438" class="text-xs" text-anchor="middle">ToolProvider</text><rect width="90" height="44" x="340" y="406" class="fill-capability" rx="6"/><text x="385" y="424" class="text-label" text-anchor="middle">Memory</text><text x="385" y="438" class="text-xs" text-anchor="middle">MemoryProvider</text><path stroke-dasharray="4 4" d="m200 288-25 118m185-118 25 118M280 288v118" class="border"/><rect width="200" height="120" x="500" y="60" class="fill-prompt" rx="8"/><text x="600" y="80" class="text-label" font-weight="600" text-anchor="middle">Prompt Template System</text><text x="600" y="94" fill="#87867f" class="text-xs" text-anchor="middle">OCP-P: 提示工程开闭原则</text><rect width="170" height="28" x="515" y="102" class="fill-white border" rx="5"/><text x="600" y="118" class="text-sm" text-anchor="middle">BaseTemplate</text><rect width="80" height="26" x="515" y="136" class="fill-white border" rx="4"/><text x="555" y="153" class="text-xs" text-anchor="middle">PremiumSupport</text><rect width="80" height="26" x="605" y="136" class="fill-white border" rx="4"/><text x="645" y="153" class="text-xs" text-anchor="middle">TechSupport</text><path stroke="#ea580c" stroke-dasharray="5 5" d="m580 180-380 70m400-70-240 70" class="border"/><rect width="150" height="180" x="730" y="60" fill="none" class="border" rx="8"/><text x="805" y="80" class="text-label" text-anchor="middle">图例</text><rect width="14" height="14" x="744" y="90" class="fill-client border" rx="3"/><text x="764" y="102" class="text-xs">用户入口</text><rect width="14" height="14" x="744" y="112" class="fill-router" rx="3"/><text x="764" y="124" class="text-xs">Intent 路由器 (ISP)</text><rect width="14" height="14" x="744" y="134" class="fill-agent" rx="3"/><text x="764" y="146" class="text-xs">专业化 Agent (SCP)</text><rect width="14" height="14" x="744" y="156" class="fill-capability" rx="3"/><text x="764" y="168" class="text-xs">能力抽象层 (DIP)</text><rect width="14" height="14" x="744" y="178" class="fill-prompt" rx="3"/><text x="764" y="190" class="text-xs">Prompt 模板 (OCP-P)</text><path stroke-dasharray="4 4" d="M744 208h126" class="border"/><text x="764" y="220" class="text-xs">依赖抽象（运行时注入）</text><rect width="150" height="190" x="730" y="260" fill="none" class="border" rx="8"/><text x="805" y="280" class="text-label" text-anchor="middle">新 SOLID 应用</text><rect width="122" height="24" x="744" y="290" class="fill-router" rx="4"/><text x="805" y="306" class="text-xs" text-anchor="middle">ISP — Intent 隔离</text><rect width="122" height="24" x="744" y="320" class="fill-agent" rx="4"/><text x="805" y="336" class="text-xs" text-anchor="middle">SCP — 单一能力</text><rect width="122" height="24" x="744" y="350" class="fill-prompt" rx="4"/><text x="805" y="366" class="text-xs" text-anchor="middle">OCP-P — 提示工程开闭</text><rect width="122" height="24" x="744" y="380" class="fill-capability" rx="4"/><text x="805" y="396" class="text-xs" text-anchor="middle">DIP — 抽象层依赖倒置</text><rect width="122" height="24" x="744" y="410" class="fill-capability" rx="4"/><text x="805" y="426" class="text-xs" text-anchor="middle">LAP — 忠实表达原则</text></svg>