<svg xmlns="http://www.w3.org/2000/svg" font-family="ui-serif, Georgia, 'Times New Roman', serif" viewBox="0 0 600 420">
  <path fill="#faf9f5" d="M0 0h600v420H0z"/>
  <text x="300" y="28" fill="#141413" font-size="14" font-weight="500" letter-spacing="-.02em" text-anchor="middle">Loop Engineering 四层堆叠</text>
  <text x="300" y="44" fill="#87867f" font-family="ui-monospace, monospace" font-size="10" text-anchor="middle">Sydney Runkle · langchain.com · 2026/06/16</text>
  <rect width="520" height="70" x="40" y="58" fill="#fff" stroke="#d97757" stroke-width="1.5" rx="6"/>
  <text x="56" y="80" fill="#d97757" font-family="ui-monospace, monospace" font-size="12" font-weight="600">Level 4</text>
  <text x="56" y="97" fill="#141413" font-size="13">Hill Climbing Loop</text>
  <text x="56" y="114" fill="#87867f" font-size="10.5">trace 分析 → harness 配置改进</text>
  <text x="430" y="97" fill="#788c5d" font-family="ui-monospace, monospace" font-size="10">LangSmith Engine</text>
  <rect width="38" height="18" x="508" y="74" fill="#d97757" rx="9"/>
  <text x="527" y="87" fill="#fff" font-family="ui-monospace, monospace" font-size="9" text-anchor="middle">改进</text>
  <path stroke="#d1cfc5" stroke-width="1.5" d="M300 128v12"/>
  <path fill="#d1cfc5" d="m300 144-4-8h8z"/>
  <rect width="520" height="70" x="40" y="148" fill="#fff" stroke="#d1cfc5" stroke-width="1.5" rx="6"/>
  <text x="56" y="170" fill="#d97757" font-family="ui-monospace, monospace" font-size="12" font-weight="600">Level 3</text>
  <text x="56" y="187" fill="#141413" font-size="13">Event-driven Loop</text>
  <text x="56" y="204" fill="#87867f" font-size="10.5">事件触发，agent 在后台持续运行</text>
  <text x="430" y="187" fill="#788c5d" font-family="ui-monospace, monospace" font-size="10">LangSmith Deployment / Fleet</text>
  <rect width="38" height="18" x="508" y="164" fill="#788c5d" rx="9"/>
  <text x="527" y="177" fill="#fff" font-family="ui-monospace, monospace" font-size="9" text-anchor="middle">规模化</text>
  <path stroke="#d1cfc5" stroke-width="1.5" d="M300 218v12"/>
  <path fill="#d1cfc5" d="m300 234-4-8h8z"/>
  <rect width="520" height="70" x="40" y="238" fill="#fff" stroke="#d1cfc5" stroke-width="1.5" rx="6"/>
  <text x="56" y="260" fill="#d97757" font-family="ui-monospace, monospace" font-size="12" font-weight="600">Level 2</text>
  <text x="56" y="277" fill="#141413" font-size="13">Verification Loop</text>
  <text x="56" y="294" fill="#87867f" font-size="10.5">grader 按 rubric 打分，失败则带反馈重试</text>
  <text x="430" y="277" fill="#788c5d" font-family="ui-monospace, monospace" font-size="10">RubricMiddleware / after_agent hook</text>
  <rect width="38" height="18" x="508" y="254" fill="#e3dacc" rx="9"/>
  <text x="527" y="267" fill="#141413" font-family="ui-monospace, monospace" font-size="9" text-anchor="middle">质量</text>
  <path stroke="#d1cfc5" stroke-width="1.5" d="M300 308v12"/>
  <path fill="#d1cfc5" d="m300 324-4-8h8z"/>
  <rect width="520" height="70" x="40" y="328" fill="#fff" stroke="#d1cfc5" stroke-width="1.5" rx="6"/>
  <text x="56" y="350" fill="#d97757" font-family="ui-monospace, monospace" font-size="12" font-weight="600">Level 1</text>
  <text x="56" y="367" fill="#141413" font-size="13">Agent Loop</text>
  <text x="56" y="384" fill="#87867f" font-size="10.5">模型 + 工具，循环调用直到任务完成</text>
  <text x="430" y="367" fill="#788c5d" font-family="ui-monospace, monospace" font-size="10">create_agent + 任意模型</text>
  <rect width="38" height="18" x="508" y="344" fill="#f0eee6" stroke="#d1cfc5" rx="9"/>
  <text x="527" y="357" fill="#141413" font-family="ui-monospace, monospace" font-size="9" text-anchor="middle">工作</text>
  <path fill="none" stroke="#d97757" stroke-dasharray="4,3" stroke-width="2" d="M560 88c18 0 18 272 0 268" opacity=".6"/>
  <path fill="#d97757" d="m560 356-6-8h12z" opacity=".6"/>
  <text x="572" y="225" fill="#d97757" font-family="ui-monospace, monospace" font-size="9">反馈改进</text>
</svg>
