<svg xmlns="http://www.w3.org/2000/svg" font-family="'Courier New', monospace" font-size="13" viewBox="0 0 700 400">
  <path fill="#faf9f5" d="M0 0h700v400H0z"/>
  <path fill="#141413" d="M0 0h700v36H0z"/>
  <path fill="#141413" d="M1 1h698v34H1z"/>
  <text x="350" y="24" fill="#faf9f5" font-size="15" font-weight="bold" letter-spacing="3" text-anchor="middle">康威定律 1.0 vs 2.0</text>
  <path fill="#d97757" d="M0 36h700v30H0z"/>
  <path fill="#d97757" d="M1 37h698v28H1z"/>
  <path stroke="#141413" stroke-width="2" d="M350 36v30"/>
  <text x="175" y="56" fill="#faf9f5" font-weight="bold" text-anchor="middle">传统康威定律</text>
  <text x="525" y="56" fill="#faf9f5" font-weight="bold" text-anchor="middle">康威定律 2.0</text>
  <path fill="#e3dacc" d="M0 66h350v42H0z"/>
  <path fill="none" d="M0 66h700v42H0z"/>
  <path fill="#faf9f5" d="M351 66h349v42H351z"/>
  <text x="18" y="89" fill="#141413" font-size="12">人类 → 人类  通信</text>
  <path stroke="#141413" stroke-width="2" d="M350 66v42"/>
  <text x="368" y="89" fill="#141413" font-size="12">人类 ↔ Agent ↔ 人类  混合通信</text>
  <path stroke="#d1cfc5" d="M0 108h700"/>
  <path fill="#faf9f5" d="M0 108h350v42H0z"/>
  <path fill="#e3dacc" d="M351 108h349v42H351z"/>
  <text x="18" y="131" fill="#141413" font-size="12">静态组织结构</text>
  <path stroke="#141413" stroke-width="2" d="M350 108v42"/>
  <text x="368" y="131" fill="#141413" font-size="12">动态、流动的团队拓扑</text>
  <path stroke="#d1cfc5" d="M0 150h700"/>
  <path fill="#e3dacc" d="M0 150h350v42H0z"/>
  <path fill="#faf9f5" d="M351 150h349v42H351z"/>
  <text x="18" y="173" fill="#141413" font-size="12">单一组织边界</text>
  <path stroke="#141413" stroke-width="2" d="M350 150v42"/>
  <text x="368" y="173" fill="#141413" font-size="12">开放的 Agent 生态系统</text>
  <path stroke="#d1cfc5" d="M0 192h700"/>
  <path fill="#faf9f5" d="M0 192h350v42H0z"/>
  <path fill="#e3dacc" d="M351 192h349v42H351z"/>
  <text x="18" y="215" fill="#141413" font-size="12">会议、文档为主要沟通方式</text>
  <path stroke="#141413" stroke-width="2" d="M350 192v42"/>
  <text x="368" y="215" fill="#141413" font-size="12">API、Context、Event 驱动</text>
  <path stroke="#d1cfc5" d="M0 234h700"/>
  <path fill="#e3dacc" d="M0 234h350v42H0z"/>
  <path fill="#faf9f5" d="M351 234h349v42H351z"/>
  <text x="18" y="257" fill="#141413" font-size="12">设计 → 实现  线性流程</text>
  <path stroke="#141413" stroke-width="2" d="M350 234v42"/>
  <text x="368" y="257" fill="#141413" font-size="12">持续迭代、自适应演化</text>
  <path stroke="#141413" stroke-width="2" d="M0 36h700M0 276h700M0 0v276M699 0v276m-349-86"/>
  <path fill="#d97757" d="m350 190 8-4v8z"/>
  <text x="350" y="310" fill="#87867f" font-size="12" font-style="italic" text-anchor="middle">在 AI-Native 组织中，康威定律映射到 Agent 的能力拓扑</text>
  <path stroke="#d1cfc5" d="M100 320h500"/>
  <text x="350" y="340" fill="#87867f" font-size="11" text-anchor="middle">核心洞察：组织架构决定 Agent 边界，沟通结构决定系统集成方式</text>
  <text x="350" y="360" fill="#87867f" font-size="11" text-anchor="middle">传统：人在会议中沟通    AI-Native：Agent 在 API 中协调</text>
</svg>
