<svg xmlns="http://www.w3.org/2000/svg" viewBox="0 0 424 342" width="424" height="342" style="font-family: 'Courier New', Courier, monospace; background: #FAF9F5;">
  <rect width="424" height="342" fill="#FAF9F5"/>
<text x="212.0" y="18" text-anchor="middle" font-size="12px" font-weight="bold" fill="#141413">知识库目录结构</text>
  <g>
    <line x1="24.8" y1="75.5" x2="39.2" y2="75.5" stroke="#D1CFC5" stroke-width="1.5" stroke-linecap="round"/>
<line x1="24.8" y1="92.5" x2="39.2" y2="92.5" stroke="#D1CFC5" stroke-width="1.5" stroke-linecap="round"/>
<line x1="24.8" y1="92.5" x2="24.8" y2="118.0" stroke="#D1CFC5" stroke-width="1.5" stroke-linecap="round"/>
<line x1="24.8" y1="101.0" x2="24.8" y2="135.0" stroke="#D1CFC5" stroke-width="1.5" stroke-linecap="round"/>
<line x1="24.8" y1="118.0" x2="24.8" y2="152.0" stroke="#D1CFC5" stroke-width="1.5" stroke-linecap="round"/>
<line x1="24.8" y1="135.0" x2="24.8" y2="169.0" stroke="#D1CFC5" stroke-width="1.5" stroke-linecap="round"/>
<line x1="24.8" y1="152.0" x2="24.8" y2="186.0" stroke="#D1CFC5" stroke-width="1.5" stroke-linecap="round"/>
<line x1="24.8" y1="169.0" x2="24.8" y2="203.0" stroke="#D1CFC5" stroke-width="1.5" stroke-linecap="round"/>
<line x1="24.8" y1="186.0" x2="24.8" y2="220.0" stroke="#D1CFC5" stroke-width="1.5" stroke-linecap="round"/>
<line x1="24.8" y1="203.0" x2="24.8" y2="237.0" stroke="#D1CFC5" stroke-width="1.5" stroke-linecap="round"/>
<line x1="24.8" y1="220.0" x2="24.8" y2="254.0" stroke="#D1CFC5" stroke-width="1.5" stroke-linecap="round"/>
<line x1="24.8" y1="237.0" x2="24.8" y2="271.0" stroke="#D1CFC5" stroke-width="1.5" stroke-linecap="round"/>
<line x1="24.8" y1="254.0" x2="24.8" y2="288.0" stroke="#D1CFC5" stroke-width="1.5" stroke-linecap="round"/>
<line x1="24.8" y1="279.5" x2="39.2" y2="279.5" stroke="#D1CFC5" stroke-width="1.5" stroke-linecap="round"/>
<line x1="24.8" y1="279.5" x2="24.8" y2="254.0" stroke="#D1CFC5" stroke-width="1.5" stroke-linecap="round"/>
<line x1="29.6" y1="80.3" x2="48.8" y2="80.3" stroke="#D1CFC5" stroke-width="1.5" stroke-linecap="round"/>
<line x1="29.6" y1="97.3" x2="48.8" y2="97.3" stroke="#D1CFC5" stroke-width="1.5" stroke-linecap="round"/>
<line x1="29.6" y1="284.3" x2="48.8" y2="284.3" stroke="#D1CFC5" stroke-width="1.5" stroke-linecap="round"/>
<line x1="63.2" y1="109.5" x2="77.6" y2="109.5" stroke="#D1CFC5" stroke-width="1.5" stroke-linecap="round"/>
<line x1="63.2" y1="109.5" x2="63.2" y2="135.0" stroke="#D1CFC5" stroke-width="1.5" stroke-linecap="round"/>
<line x1="63.2" y1="118.0" x2="63.2" y2="152.0" stroke="#D1CFC5" stroke-width="1.5" stroke-linecap="round"/>
<line x1="63.2" y1="143.5" x2="77.6" y2="143.5" stroke="#D1CFC5" stroke-width="1.5" stroke-linecap="round"/>
<line x1="63.2" y1="143.5" x2="63.2" y2="169.0" stroke="#D1CFC5" stroke-width="1.5" stroke-linecap="round"/>
<line x1="63.2" y1="143.5" x2="63.2" y2="118.0" stroke="#D1CFC5" stroke-width="1.5" stroke-linecap="round"/>
<line x1="63.2" y1="152.0" x2="63.2" y2="186.0" stroke="#D1CFC5" stroke-width="1.5" stroke-linecap="round"/>
<line x1="63.2" y1="177.5" x2="77.6" y2="177.5" stroke="#D1CFC5" stroke-width="1.5" stroke-linecap="round"/>
<line x1="63.2" y1="177.5" x2="63.2" y2="203.0" stroke="#D1CFC5" stroke-width="1.5" stroke-linecap="round"/>
<line x1="63.2" y1="177.5" x2="63.2" y2="152.0" stroke="#D1CFC5" stroke-width="1.5" stroke-linecap="round"/>
<line x1="63.2" y1="186.0" x2="63.2" y2="220.0" stroke="#D1CFC5" stroke-width="1.5" stroke-linecap="round"/>
<line x1="63.2" y1="211.5" x2="77.6" y2="211.5" stroke="#D1CFC5" stroke-width="1.5" stroke-linecap="round"/>
<line x1="63.2" y1="211.5" x2="63.2" y2="237.0" stroke="#D1CFC5" stroke-width="1.5" stroke-linecap="round"/>
<line x1="63.2" y1="211.5" x2="63.2" y2="186.0" stroke="#D1CFC5" stroke-width="1.5" stroke-linecap="round"/>
<line x1="63.2" y1="220.0" x2="63.2" y2="254.0" stroke="#D1CFC5" stroke-width="1.5" stroke-linecap="round"/>
<line x1="63.2" y1="237.0" x2="63.2" y2="271.0" stroke="#D1CFC5" stroke-width="1.5" stroke-linecap="round"/>
<line x1="63.2" y1="262.5" x2="77.6" y2="262.5" stroke="#D1CFC5" stroke-width="1.5" stroke-linecap="round"/>
<line x1="63.2" y1="262.5" x2="63.2" y2="237.0" stroke="#D1CFC5" stroke-width="1.5" stroke-linecap="round"/>
<line x1="63.2" y1="296.5" x2="77.6" y2="296.5" stroke="#D1CFC5" stroke-width="1.5" stroke-linecap="round"/>
<line x1="68.0" y1="114.3" x2="87.2" y2="114.3" stroke="#D1CFC5" stroke-width="1.5" stroke-linecap="round"/>
<line x1="68.0" y1="148.3" x2="87.2" y2="148.3" stroke="#D1CFC5" stroke-width="1.5" stroke-linecap="round"/>
<line x1="68.0" y1="182.3" x2="87.2" y2="182.3" stroke="#D1CFC5" stroke-width="1.5" stroke-linecap="round"/>
<line x1="68.0" y1="216.3" x2="87.2" y2="216.3" stroke="#D1CFC5" stroke-width="1.5" stroke-linecap="round"/>
<line x1="68.0" y1="267.3" x2="87.2" y2="267.3" stroke="#D1CFC5" stroke-width="1.5" stroke-linecap="round"/>
<line x1="68.0" y1="301.3" x2="87.2" y2="301.3" stroke="#D1CFC5" stroke-width="1.5" stroke-linecap="round"/>
<line x1="101.6" y1="126.5" x2="116.0" y2="126.5" stroke="#D1CFC5" stroke-width="1.5" stroke-linecap="round"/>
<line x1="101.6" y1="160.5" x2="116.0" y2="160.5" stroke="#D1CFC5" stroke-width="1.5" stroke-linecap="round"/>
<line x1="101.6" y1="194.5" x2="116.0" y2="194.5" stroke="#D1CFC5" stroke-width="1.5" stroke-linecap="round"/>
<line x1="101.6" y1="228.5" x2="116.0" y2="228.5" stroke="#D1CFC5" stroke-width="1.5" stroke-linecap="round"/>
<line x1="101.6" y1="228.5" x2="101.6" y2="254.0" stroke="#D1CFC5" stroke-width="1.5" stroke-linecap="round"/>
<line x1="101.6" y1="245.5" x2="116.0" y2="245.5" stroke="#D1CFC5" stroke-width="1.5" stroke-linecap="round"/>
<line x1="106.4" y1="131.3" x2="125.6" y2="131.3" stroke="#D1CFC5" stroke-width="1.5" stroke-linecap="round"/>
<line x1="106.4" y1="165.3" x2="125.6" y2="165.3" stroke="#D1CFC5" stroke-width="1.5" stroke-linecap="round"/>
<line x1="106.4" y1="199.3" x2="125.6" y2="199.3" stroke="#D1CFC5" stroke-width="1.5" stroke-linecap="round"/>
<line x1="106.4" y1="233.3" x2="125.6" y2="233.3" stroke="#D1CFC5" stroke-width="1.5" stroke-linecap="round"/>
<line x1="106.4" y1="250.3" x2="125.6" y2="250.3" stroke="#D1CFC5" stroke-width="1.5" stroke-linecap="round"/>
  </g>
  <g>
    <text x="24.8" y="63.3" font-size="13px" fill="#141413">r</text>
<text x="24.8" y="318.3" font-size="13px" fill="#141413">`</text>
<text x="34.4" y="63.3" font-size="13px" fill="#141413">e</text>
<text x="34.4" y="318.3" font-size="13px" fill="#141413">`</text>
<text x="44.0" y="63.3" font-size="13px" fill="#141413">p</text>
<text x="44.0" y="80.3" font-size="13px" fill="#141413">─</text>
<text x="44.0" y="97.3" font-size="13px" fill="#141413">─</text>
<text x="44.0" y="284.3" font-size="13px" fill="#141413">─</text>
<text x="44.0" y="318.3" font-size="13px" fill="#141413">`</text>
<text x="53.6" y="63.3" font-size="13px" fill="#141413">o</text>
<text x="63.2" y="63.3" font-size="13px" fill="#141413">s</text>
<text x="63.2" y="80.3" font-size="13px" fill="#141413">A</text>
<text x="63.2" y="97.3" font-size="13px" fill="#141413">d</text>
<text x="63.2" y="284.3" font-size="13px" fill="#141413">.</text>
<text x="72.8" y="63.3" font-size="13px" fill="#141413">i</text>
<text x="72.8" y="80.3" font-size="13px" fill="#141413">G</text>
<text x="72.8" y="97.3" font-size="13px" fill="#141413">o</text>
<text x="72.8" y="284.3" font-size="13px" fill="#141413">c</text>
<text x="82.4" y="63.3" font-size="13px" fill="#141413">t</text>
<text x="82.4" y="80.3" font-size="13px" fill="#141413">E</text>
<text x="82.4" y="97.3" font-size="13px" fill="#141413">c</text>
<text x="82.4" y="114.3" font-size="13px" fill="#141413">─</text>
<text x="82.4" y="148.3" font-size="13px" fill="#141413">─</text>
<text x="82.4" y="182.3" font-size="13px" fill="#141413">─</text>
<text x="82.4" y="216.3" font-size="13px" fill="#141413">─</text>
<text x="82.4" y="267.3" font-size="13px" fill="#141413">─</text>
<text x="82.4" y="284.3" font-size="13px" fill="#141413">i</text>
<text x="82.4" y="301.3" font-size="13px" fill="#141413">─</text>
<text x="92.0" y="63.3" font-size="13px" fill="#141413">o</text>
<text x="92.0" y="80.3" font-size="13px" fill="#141413">N</text>
<text x="92.0" y="97.3" font-size="13px" fill="#141413">s</text>
<text x="92.0" y="284.3" font-size="13px" fill="#141413">/</text>
<text x="101.6" y="63.3" font-size="13px" fill="#141413">r</text>
<text x="101.6" y="80.3" font-size="13px" fill="#141413">T</text>
<text x="101.6" y="97.3" font-size="13px" fill="#141413">/</text>
<text x="101.6" y="114.3" font-size="13px" fill="#141413">b</text>
<text x="101.6" y="148.3" font-size="13px" fill="#141413">a</text>
<text x="101.6" y="182.3" font-size="13px" fill="#141413">q</text>
<text x="101.6" y="216.3" font-size="13px" fill="#141413">p</text>
<text x="101.6" y="267.3" font-size="13px" fill="#141413">d</text>
<text x="101.6" y="301.3" font-size="13px" fill="#141413">k</text>
<text x="111.2" y="63.3" font-size="13px" fill="#141413">y</text>
<text x="111.2" y="80.3" font-size="13px" fill="#141413">S</text>
<text x="111.2" y="114.3" font-size="13px" fill="#141413">e</text>
<text x="111.2" y="148.3" font-size="13px" fill="#141413">r</text>
<text x="111.2" y="182.3" font-size="13px" fill="#141413">u</text>
<text x="111.2" y="216.3" font-size="13px" fill="#141413">l</text>
<text x="111.2" y="267.3" font-size="13px" fill="#141413">e</text>
<text x="111.2" y="301.3" font-size="13px" fill="#141413">n</text>
<text x="120.8" y="63.3" font-size="13px" fill="#141413">/</text>
<text x="120.8" y="80.3" font-size="13px" fill="#141413">.</text>
<text x="120.8" y="114.3" font-size="13px" fill="#141413">l</text>
<text x="120.8" y="131.3" font-size="13px" fill="#141413">─</text>
<text x="120.8" y="148.3" font-size="13px" fill="#141413">c</text>
<text x="120.8" y="165.3" font-size="13px" fill="#141413">─</text>
<text x="120.8" y="182.3" font-size="13px" fill="#141413">a</text>
<text x="120.8" y="199.3" font-size="13px" fill="#141413">─</text>
<text x="120.8" y="216.3" font-size="13px" fill="#141413">a</text>
<text x="120.8" y="233.3" font-size="13px" fill="#141413">─</text>
<text x="120.8" y="250.3" font-size="13px" fill="#141413">─</text>
<text x="120.8" y="267.3" font-size="13px" fill="#141413">b</text>
<text x="120.8" y="301.3" font-size="13px" fill="#141413">o</text>
<text x="130.4" y="80.3" font-size="13px" fill="#141413">m</text>
<text x="130.4" y="114.3" font-size="13px" fill="#141413">i</text>
<text x="130.4" y="148.3" font-size="13px" fill="#141413">h</text>
<text x="130.4" y="182.3" font-size="13px" fill="#141413">l</text>
<text x="130.4" y="216.3" font-size="13px" fill="#141413">n</text>
<text x="130.4" y="267.3" font-size="13px" fill="#141413">t</text>
<text x="130.4" y="301.3" font-size="13px" fill="#141413">w</text>
<text x="140.0" y="80.3" font-size="13px" fill="#141413">d</text>
<text x="140.0" y="114.3" font-size="13px" fill="#141413">e</text>
<text x="140.0" y="131.3" font-size="13px" fill="#141413">验</text>
<text x="140.0" y="148.3" font-size="13px" fill="#141413">i</text>
<text x="140.0" y="165.3" font-size="13px" fill="#141413">领</text>
<text x="140.0" y="182.3" font-size="13px" fill="#141413">i</text>
<text x="140.0" y="199.3" font-size="13px" fill="#141413">各</text>
<text x="140.0" y="216.3" font-size="13px" fill="#141413">s</text>
<text x="140.0" y="233.3" font-size="13px" fill="#141413">a</text>
<text x="140.0" y="250.3" font-size="13px" fill="#141413">c</text>
<text x="140.0" y="267.3" font-size="13px" fill="#141413">/</text>
<text x="140.0" y="301.3" font-size="13px" fill="#141413">l</text>
<text x="149.6" y="114.3" font-size="13px" fill="#141413">f</text>
<text x="149.6" y="131.3" font-size="13px" fill="#141413">证</text>
<text x="149.6" y="148.3" font-size="13px" fill="#141413">t</text>
<text x="149.6" y="165.3" font-size="13px" fill="#141413">域</text>
<text x="149.6" y="182.3" font-size="13px" fill="#141413">t</text>
<text x="149.6" y="199.3" font-size="13px" fill="#141413">领</text>
<text x="149.6" y="216.3" font-size="13px" fill="#141413">/</text>
<text x="149.6" y="233.3" font-size="13px" fill="#141413">c</text>
<text x="149.6" y="250.3" font-size="13px" fill="#141413">o</text>
<text x="149.6" y="301.3" font-size="13px" fill="#141413">e</text>
<text x="159.2" y="114.3" font-size="13px" fill="#141413">s</text>
<text x="159.2" y="131.3" font-size="13px" fill="#141413">状</text>
<text x="159.2" y="148.3" font-size="13px" fill="#141413">e</text>
<text x="159.2" y="165.3" font-size="13px" fill="#141413">与</text>
<text x="159.2" y="182.3" font-size="13px" fill="#141413">y</text>
<text x="159.2" y="199.3" font-size="13px" fill="#141413">域</text>
<text x="159.2" y="233.3" font-size="13px" fill="#141413">t</text>
<text x="159.2" y="250.3" font-size="13px" fill="#141413">m</text>
<text x="159.2" y="301.3" font-size="13px" fill="#141413">d</text>
<text x="168.8" y="114.3" font-size="13px" fill="#141413">/</text>
<text x="168.8" y="131.3" font-size="13px" fill="#141413">态</text>
<text x="168.8" y="148.3" font-size="13px" fill="#141413">c</text>
<text x="168.8" y="165.3" font-size="13px" fill="#141413">包</text>
<text x="168.8" y="182.3" font-size="13px" fill="#141413">/</text>
<text x="168.8" y="199.3" font-size="13px" fill="#141413">健</text>
<text x="168.8" y="233.3" font-size="13px" fill="#141413">i</text>
<text x="168.8" y="250.3" font-size="13px" fill="#141413">p</text>
<text x="168.8" y="301.3" font-size="13px" fill="#141413">g</text>
<text x="178.4" y="131.3" font-size="13px" fill="#141413">追</text>
<text x="178.4" y="148.3" font-size="13px" fill="#141413">t</text>
<text x="178.4" y="165.3" font-size="13px" fill="#141413">分</text>
<text x="178.4" y="199.3" font-size="13px" fill="#141413">康</text>
<text x="178.4" y="233.3" font-size="13px" fill="#141413">v</text>
<text x="178.4" y="250.3" font-size="13px" fill="#141413">l</text>
<text x="178.4" y="301.3" font-size="13px" fill="#141413">e</text>
<text x="188.0" y="131.3" font-size="13px" fill="#141413">踪</text>
<text x="188.0" y="148.3" font-size="13px" fill="#141413">u</text>
<text x="188.0" y="165.3" font-size="13px" fill="#141413">层</text>
<text x="188.0" y="199.3" font-size="13px" fill="#141413">度</text>
<text x="188.0" y="233.3" font-size="13px" fill="#141413">e</text>
<text x="188.0" y="250.3" font-size="13px" fill="#141413">e</text>
<text x="188.0" y="301.3" font-size="13px" fill="#141413">-</text>
<text x="197.6" y="148.3" font-size="13px" fill="#141413">r</text>
<text x="197.6" y="233.3" font-size="13px" fill="#141413">/</text>
<text x="197.6" y="250.3" font-size="13px" fill="#141413">t</text>
<text x="197.6" y="301.3" font-size="13px" fill="#141413">l</text>
<text x="207.2" y="148.3" font-size="13px" fill="#141413">e</text>
<text x="207.2" y="250.3" font-size="13px" fill="#141413">e</text>
<text x="207.2" y="301.3" font-size="13px" fill="#141413">i</text>
<text x="216.8" y="148.3" font-size="13px" fill="#141413">/</text>
<text x="216.8" y="250.3" font-size="13px" fill="#141413">d</text>
<text x="216.8" y="301.3" font-size="13px" fill="#141413">n</text>
<text x="226.4" y="250.3" font-size="13px" fill="#141413">/</text>
<text x="226.4" y="301.3" font-size="13px" fill="#141413">t</text>
<text x="236.0" y="301.3" font-size="13px" fill="#141413">e</text>
<text x="245.6" y="301.3" font-size="13px" fill="#141413">r</text>
<text x="255.2" y="301.3" font-size="13px" fill="#141413">/</text>
<text x="274.4" y="114.3" font-size="11px" fill="#87867F">#</text>
<text x="274.4" y="148.3" font-size="11px" fill="#87867F">#</text>
<text x="274.4" y="182.3" font-size="11px" fill="#87867F">#</text>
<text x="274.4" y="216.3" font-size="11px" fill="#87867F">#</text>
<text x="274.4" y="233.3" font-size="11px" fill="#87867F">#</text>
<text x="274.4" y="250.3" font-size="11px" fill="#87867F">#</text>
<text x="274.4" y="267.3" font-size="11px" fill="#87867F">#</text>
<text x="274.4" y="301.3" font-size="11px" fill="#87867F">#</text>
<text x="284.0" y="80.3" font-size="11px" fill="#87867F">#</text>
<text x="293.6" y="114.3" font-size="13px" fill="#141413">核</text>
<text x="293.6" y="148.3" font-size="13px" fill="#141413">架</text>
<text x="293.6" y="182.3" font-size="13px" fill="#141413">质</text>
<text x="293.6" y="216.3" font-size="13px" fill="#141413">执</text>
<text x="293.6" y="233.3" font-size="13px" fill="#141413">进</text>
<text x="293.6" y="250.3" font-size="13px" fill="#141413">已</text>
<text x="293.6" y="267.3" font-size="13px" fill="#141413">已</text>
<text x="293.6" y="301.3" font-size="13px" fill="#141413">知</text>
<text x="303.2" y="80.3" font-size="13px" fill="#141413">入</text>
<text x="303.2" y="114.3" font-size="13px" fill="#141413">心</text>
<text x="303.2" y="148.3" font-size="13px" fill="#141413">构</text>
<text x="303.2" y="182.3" font-size="13px" fill="#141413">量</text>
<text x="303.2" y="216.3" font-size="13px" fill="#141413">行</text>
<text x="303.2" y="233.3" font-size="13px" fill="#141413">行</text>
<text x="303.2" y="250.3" font-size="13px" fill="#141413">完</text>
<text x="303.2" y="267.3" font-size="13px" fill="#141413">知</text>
<text x="303.2" y="301.3" font-size="13px" fill="#141413">识</text>
<text x="312.8" y="80.3" font-size="13px" fill="#141413">口</text>
<text x="312.8" y="114.3" font-size="13px" fill="#141413">信</text>
<text x="312.8" y="148.3" font-size="13px" fill="#141413">地</text>
<text x="312.8" y="182.3" font-size="13px" fill="#141413">评</text>
<text x="312.8" y="216.3" font-size="13px" fill="#141413">计</text>
<text x="312.8" y="233.3" font-size="13px" fill="#141413">中</text>
<text x="312.8" y="250.3" font-size="13px" fill="#141413">成</text>
<text x="312.8" y="267.3" font-size="13px" fill="#141413">技</text>
<text x="312.8" y="301.3" font-size="13px" fill="#141413">库</text>
<text x="322.4" y="80.3" font-size="13px" fill="#141413">点</text>
<text x="322.4" y="114.3" font-size="13px" fill="#141413">念</text>
<text x="322.4" y="148.3" font-size="13px" fill="#141413">图</text>
<text x="322.4" y="182.3" font-size="13px" fill="#141413">估</text>
<text x="322.4" y="216.3" font-size="13px" fill="#141413">划</text>
<text x="322.4" y="267.3" font-size="13px" fill="#141413">术</text>
<text x="322.4" y="301.3" font-size="13px" fill="#141413">验</text>
<text x="332.0" y="114.3" font-size="13px" fill="#141413">与</text>
<text x="332.0" y="267.3" font-size="13px" fill="#141413">债</text>
<text x="332.0" y="301.3" font-size="13px" fill="#141413">证</text>
<text x="341.6" y="80.3" font-size="13px" fill="#141413">(</text>
<text x="341.6" y="114.3" font-size="13px" fill="#141413">原</text>
<text x="341.6" y="267.3" font-size="13px" fill="#141413">务</text>
<text x="341.6" y="301.3" font-size="13px" fill="#141413">工</text>
<text x="351.2" y="80.3" font-size="13px" fill="#141413">~</text>
<text x="351.2" y="114.3" font-size="13px" fill="#141413">则</text>
<text x="351.2" y="301.3" font-size="13px" fill="#141413">具</text>
<text x="360.8" y="80.3" font-size="13px" fill="#141413">1</text>
<text x="370.4" y="80.3" font-size="13px" fill="#141413">0</text>
<text x="380.0" y="80.3" font-size="13px" fill="#141413">0</text>
<text x="389.6" y="80.3" font-size="13px" fill="#141413">行</text>
<text x="399.2" y="80.3" font-size="13px" fill="#141413">)</text>
  </g>
</svg>