<svg xmlns="http://www.w3.org/2000/svg" font-family="ui-serif, Georgia, serif" viewBox="0 0 560 160"><path fill="#faf9f5" d="M0 0h560v160H0z"/><text x="280" y="18" fill="#141413" font-size="12" font-weight="500" letter-spacing="-.02em" text-anchor="middle">TCP/IP 四层模型</text><text x="280" y="32" fill="#87867f" font-family="ui-monospace, monospace" font-size="9" text-anchor="middle">postcodeengineering.com · 2026/03/15</text><rect width="480" height="30" x="40" y="48" fill="#fff" stroke="#d97757" stroke-width="1.8" rx="6"/><rect width="480" height="14" x="40" y="48" fill="#fef3c7" stroke="#d97757" rx="6"/><text x="60" y="61" fill="#d97757" font-family="ui-monospace, monospace" font-size="10" font-weight="600">应用层</text><text x="140" y="61" fill="#141413" font-size="11">HTTP · FTP · DNS · SSH</text><text x="360" y="61" fill="#87867f" font-size="9">(OSI L5-L7 合并)</text><path stroke="#d1cfc5" stroke-width="1.5" d="M280 78v8"/><path fill="#d1cfc5" d="m276 86 4 8 4-16z"/><rect width="480" height="26" x="40" y="86" fill="#fff" stroke="#2563eb" stroke-width="1.5" rx="6"/><rect width="480" height="13" x="40" y="86" fill="#dbeafe" stroke="#2563eb" rx="6"/><text x="60" y="98" fill="#2563eb" font-family="ui-monospace, monospace" font-size="10" font-weight="600">传输层</text><text x="140" y="98" fill="#141413" font-size="11">TCP · UDP</text><text x="240" y="98" fill="#87867f" font-size="9">(OSI L4)</text><path stroke="#d1cfc5" stroke-width="1.5" d="M280 112v8"/><path fill="#d1cfc5" d="m276 120 4 8 4-16z"/><rect width="480" height="26" x="40" y="120" fill="#fff" stroke="#059669" stroke-width="1.5" rx="6"/><rect width="480" height="13" x="40" y="120" fill="#d1fae5" stroke="#059669" rx="6"/><text x="60" y="132" fill="#059669" font-family="ui-monospace, monospace" font-size="10" font-weight="600">网络层</text><text x="140" y="132" fill="#141413" font-size="11">IP · ICMP · 路由协议</text><path stroke="#d1cfc5" stroke-width="1.5" d="M280 146v8"/><path fill="#d1cfc5" d="m276 154 4 8 4-8z"/><rect width="480" height="8" x="40" y="154" fill="#f0eee6" stroke="#87867f" rx="4"/><text x="60" y="160" fill="#87867f" font-family="ui-monospace, monospace" font-size="9" font-weight="600">网络接口层</text><text x="180" y="160" fill="#141413" font-size="9">Ethernet · WiFi · 物理设备</text><text x="360" y="160" fill="#87867f" font-size="8">(OSI L1-L2)</text></svg>