<svg xmlns="http://www.w3.org/2000/svg" viewBox="0 0 386 364">
  <defs>
    <style>
      text{font-family:&quot;SF Mono&quot;,&quot;Menlo&quot;,&quot;Monaco&quot;,&quot;Courier New&quot;,monospace}
    </style>
  </defs>
  <path fill="#faf9f5" d="M0 0h386v364H0z"/>
  <rect width="378" height="356" x="4" y="4" fill="none" stroke="#d1cfc5" rx="4"/>
  <text x="21" y="33.5" fill="#141413" font-family="monospace" font-size="12">m</text>
  <text x="31.5" y="33.5" fill="#141413" font-family="monospace" font-size="12">y</text>
  <text x="42" y="33.5" fill="#141413" font-family="monospace" font-size="12">a</text>
  <text x="52.5" y="33.5" fill="#141413" font-family="monospace" font-size="12">p</text>
  <text x="63" y="33.5" fill="#141413" font-family="monospace" font-size="12">p</text>
  <text x="73.5" y="33.5" fill="#141413" font-family="monospace" font-size="12">/</text>
  <path fill="none" stroke="#141413" stroke-width="1.5" d="M30.5 38.5H20V57"/>
  <path stroke="#141413" stroke-width="1.5" d="M30.5 47.8H20m10.5 0H41m0 0h10.5"/>
  <text x="63" y="52" fill="#141413" font-family="monospace" font-size="12">m</text>
  <text x="73.5" y="52" fill="#141413" font-family="monospace" font-size="12">o</text>
  <text x="84" y="52" fill="#141413" font-family="monospace" font-size="12">d</text>
  <text x="94.5" y="52" fill="#141413" font-family="monospace" font-size="12">u</text>
  <text x="105" y="52" fill="#141413" font-family="monospace" font-size="12">l</text>
  <text x="115.5" y="52" fill="#141413" font-family="monospace" font-size="12">e</text>
  <text x="126" y="52" fill="#141413" font-family="monospace" font-size="12">s</text>
  <text x="136.5" y="52" fill="#141413" font-family="monospace" font-size="12">/</text>
  <path stroke="#141413" stroke-width="1.5" d="M24.8 57v18.5"/>
  <path fill="none" stroke="#141413" stroke-width="1.5" d="M72.5 57H62v18.5"/>
  <path stroke="#141413" stroke-width="1.5" d="M72.5 66.2H62m10.5 0H83m0 0h10.5"/>
  <text x="105" y="70.5" fill="#141413" font-family="monospace" font-size="12">u</text>
  <text x="115.5" y="70.5" fill="#141413" font-family="monospace" font-size="12">s</text>
  <text x="126" y="70.5" fill="#141413" font-family="monospace" font-size="12">e</text>
  <text x="136.5" y="70.5" fill="#141413" font-family="monospace" font-size="12">r</text>
  <text x="147" y="70.5" fill="#141413" font-family="monospace" font-size="12">/</text>
  <text x="273" y="70.5" fill="#141413" font-family="monospace" font-size="12">#</text>
  <text x="294" y="70.5" fill="#141413" font-family="monospace" font-size="12">用</text>
  <text x="304.5" y="70.5" fill="#141413" font-family="monospace" font-size="12">户</text>
  <text x="315" y="70.5" fill="#141413" font-family="monospace" font-size="12">模</text>
  <text x="325.5" y="70.5" fill="#141413" font-family="monospace" font-size="12">块</text>
  <path stroke="#141413" stroke-width="1.5" d="M24.8 75.5V94m42-18.5V94"/>
  <path fill="none" stroke="#141413" stroke-width="1.5" d="M114.5 75.5H104V94"/>
  <path stroke="#141413" stroke-width="1.5" d="M114.5 84.8H104m10.5 0H125m0 0h10.5"/>
  <text x="147" y="89" fill="#141413" font-family="monospace" font-size="12">a</text>
  <text x="157.5" y="89" fill="#141413" font-family="monospace" font-size="12">p</text>
  <text x="168" y="89" fill="#141413" font-family="monospace" font-size="12">i</text>
  <text x="178.5" y="89" fill="#141413" font-family="monospace" font-size="12">.</text>
  <text x="189" y="89" fill="#141413" font-family="monospace" font-size="12">p</text>
  <text x="199.5" y="89" fill="#141413" font-family="monospace" font-size="12">y</text>
  <text x="273" y="89" fill="#141413" font-family="monospace" font-size="12">#</text>
  <text x="294" y="89" fill="#141413" font-family="monospace" font-size="12">内</text>
  <text x="304.5" y="89" fill="#141413" font-family="monospace" font-size="12">部</text>
  <text x="325.5" y="89" fill="#141413" font-family="monospace" font-size="12">A</text>
  <text x="336" y="89" fill="#141413" font-family="monospace" font-size="12">P</text>
  <text x="346.5" y="89" fill="#141413" font-family="monospace" font-size="12">I</text>
  <path stroke="#141413" stroke-width="1.5" d="M24.8 94v18.5m42-18.5v18.5"/>
  <path fill="none" stroke="#141413" stroke-width="1.5" d="M114.5 94H104v18.5"/>
  <path stroke="#141413" stroke-width="1.5" d="M114.5 103.2H104m10.5 0H125m0 0h10.5"/>
  <text x="147" y="107.5" fill="#141413" font-family="monospace" font-size="12">m</text>
  <text x="157.5" y="107.5" fill="#141413" font-family="monospace" font-size="12">o</text>
  <text x="168" y="107.5" fill="#141413" font-family="monospace" font-size="12">d</text>
  <text x="178.5" y="107.5" fill="#141413" font-family="monospace" font-size="12">e</text>
  <text x="189" y="107.5" fill="#141413" font-family="monospace" font-size="12">l</text>
  <text x="199.5" y="107.5" fill="#141413" font-family="monospace" font-size="12">s</text>
  <text x="210" y="107.5" fill="#141413" font-family="monospace" font-size="12">.</text>
  <text x="220.5" y="107.5" fill="#141413" font-family="monospace" font-size="12">p</text>
  <text x="231" y="107.5" fill="#141413" font-family="monospace" font-size="12">y</text>
  <text x="273" y="107.5" fill="#141413" font-family="monospace" font-size="12">#</text>
  <text x="294" y="107.5" fill="#141413" font-family="monospace" font-size="12">数</text>
  <text x="304.5" y="107.5" fill="#141413" font-family="monospace" font-size="12">据</text>
  <text x="315" y="107.5" fill="#141413" font-family="monospace" font-size="12">模</text>
  <text x="325.5" y="107.5" fill="#141413" font-family="monospace" font-size="12">型</text>
  <path stroke="#141413" stroke-width="1.5" d="M24.8 112.5V131m42-18.5V131"/>
  <path fill="none" stroke="#141413" stroke-width="1.5" d="M114.5 112.5H104v9.3"/>
  <path stroke="#141413" stroke-width="1.5" d="M114.5 121.8H125m0 0h10.5"/>
  <text x="147" y="126" fill="#141413" font-family="monospace" font-size="12">s</text>
  <text x="157.5" y="126" fill="#141413" font-family="monospace" font-size="12">e</text>
  <text x="168" y="126" fill="#141413" font-family="monospace" font-size="12">r</text>
  <text x="178.5" y="126" fill="#141413" font-family="monospace" font-size="12">v</text>
  <text x="189" y="126" fill="#141413" font-family="monospace" font-size="12">i</text>
  <text x="199.5" y="126" fill="#141413" font-family="monospace" font-size="12">c</text>
  <text x="210" y="126" fill="#141413" font-family="monospace" font-size="12">e</text>
  <text x="220.5" y="126" fill="#141413" font-family="monospace" font-size="12">.</text>
  <text x="231" y="126" fill="#141413" font-family="monospace" font-size="12">p</text>
  <text x="241.5" y="126" fill="#141413" font-family="monospace" font-size="12">y</text>
  <text x="273" y="126" fill="#141413" font-family="monospace" font-size="12">#</text>
  <text x="294" y="126" fill="#141413" font-family="monospace" font-size="12">业</text>
  <text x="304.5" y="126" fill="#141413" font-family="monospace" font-size="12">务</text>
  <text x="315" y="126" fill="#141413" font-family="monospace" font-size="12">逻</text>
  <text x="325.5" y="126" fill="#141413" font-family="monospace" font-size="12">辑</text>
  <path stroke="#141413" stroke-width="1.5" d="M24.8 131v18.5"/>
  <path fill="none" stroke="#141413" stroke-width="1.5" d="M72.5 131H62v18.5"/>
  <path stroke="#141413" stroke-width="1.5" d="M72.5 140.2H62m10.5 0H83m0 0h10.5"/>
  <text x="105" y="144.5" fill="#141413" font-family="monospace" font-size="12">o</text>
  <text x="115.5" y="144.5" fill="#141413" font-family="monospace" font-size="12">r</text>
  <text x="126" y="144.5" fill="#141413" font-family="monospace" font-size="12">d</text>
  <text x="136.5" y="144.5" fill="#141413" font-family="monospace" font-size="12">e</text>
  <text x="147" y="144.5" fill="#141413" font-family="monospace" font-size="12">r</text>
  <text x="157.5" y="144.5" fill="#141413" font-family="monospace" font-size="12">/</text>
  <text x="273" y="144.5" fill="#141413" font-family="monospace" font-size="12">#</text>
  <text x="294" y="144.5" fill="#141413" font-family="monospace" font-size="12">订</text>
  <text x="304.5" y="144.5" fill="#141413" font-family="monospace" font-size="12">单</text>
  <text x="315" y="144.5" fill="#141413" font-family="monospace" font-size="12">模</text>
  <text x="325.5" y="144.5" fill="#141413" font-family="monospace" font-size="12">块</text>
  <path stroke="#141413" stroke-width="1.5" d="M24.8 149.5V168m42-18.5V168"/>
  <path fill="none" stroke="#141413" stroke-width="1.5" d="M114.5 149.5H104V168"/>
  <path stroke="#141413" stroke-width="1.5" d="M114.5 158.8H104m10.5 0H125m0 0h10.5"/>
  <text x="147" y="163" fill="#141413" font-family="monospace" font-size="12">a</text>
  <text x="157.5" y="163" fill="#141413" font-family="monospace" font-size="12">p</text>
  <text x="168" y="163" fill="#141413" font-family="monospace" font-size="12">i</text>
  <text x="178.5" y="163" fill="#141413" font-family="monospace" font-size="12">.</text>
  <text x="189" y="163" fill="#141413" font-family="monospace" font-size="12">p</text>
  <text x="199.5" y="163" fill="#141413" font-family="monospace" font-size="12">y</text>
  <path stroke="#141413" stroke-width="1.5" d="M24.8 168v18.5m42-18.5v18.5"/>
  <path fill="none" stroke="#141413" stroke-width="1.5" d="M114.5 168H104v18.5"/>
  <path stroke="#141413" stroke-width="1.5" d="M114.5 177.2H104m10.5 0H125m0 0h10.5"/>
  <text x="147" y="181.5" fill="#141413" font-family="monospace" font-size="12">m</text>
  <text x="157.5" y="181.5" fill="#141413" font-family="monospace" font-size="12">o</text>
  <text x="168" y="181.5" fill="#141413" font-family="monospace" font-size="12">d</text>
  <text x="178.5" y="181.5" fill="#141413" font-family="monospace" font-size="12">e</text>
  <text x="189" y="181.5" fill="#141413" font-family="monospace" font-size="12">l</text>
  <text x="199.5" y="181.5" fill="#141413" font-family="monospace" font-size="12">s</text>
  <text x="210" y="181.5" fill="#141413" font-family="monospace" font-size="12">.</text>
  <text x="220.5" y="181.5" fill="#141413" font-family="monospace" font-size="12">p</text>
  <text x="231" y="181.5" fill="#141413" font-family="monospace" font-size="12">y</text>
  <path stroke="#141413" stroke-width="1.5" d="M24.8 186.5V205m42-18.5V205"/>
  <path fill="none" stroke="#141413" stroke-width="1.5" d="M114.5 186.5H104v9.3"/>
  <path stroke="#141413" stroke-width="1.5" d="M114.5 195.8H125m0 0h10.5"/>
  <text x="147" y="200" fill="#141413" font-family="monospace" font-size="12">s</text>
  <text x="157.5" y="200" fill="#141413" font-family="monospace" font-size="12">e</text>
  <text x="168" y="200" fill="#141413" font-family="monospace" font-size="12">r</text>
  <text x="178.5" y="200" fill="#141413" font-family="monospace" font-size="12">v</text>
  <text x="189" y="200" fill="#141413" font-family="monospace" font-size="12">i</text>
  <text x="199.5" y="200" fill="#141413" font-family="monospace" font-size="12">c</text>
  <text x="210" y="200" fill="#141413" font-family="monospace" font-size="12">e</text>
  <text x="220.5" y="200" fill="#141413" font-family="monospace" font-size="12">.</text>
  <text x="231" y="200" fill="#141413" font-family="monospace" font-size="12">p</text>
  <text x="241.5" y="200" fill="#141413" font-family="monospace" font-size="12">y</text>
  <path stroke="#141413" stroke-width="1.5" d="M24.8 205v18.5"/>
  <path fill="none" stroke="#141413" stroke-width="1.5" d="M72.5 205H62v9.2"/>
  <path stroke="#141413" stroke-width="1.5" d="M72.5 214.2H83m0 0h10.5"/>
  <text x="105" y="218.5" fill="#141413" font-family="monospace" font-size="12">p</text>
  <text x="115.5" y="218.5" fill="#141413" font-family="monospace" font-size="12">a</text>
  <text x="126" y="218.5" fill="#141413" font-family="monospace" font-size="12">y</text>
  <text x="136.5" y="218.5" fill="#141413" font-family="monospace" font-size="12">m</text>
  <text x="147" y="218.5" fill="#141413" font-family="monospace" font-size="12">e</text>
  <text x="157.5" y="218.5" fill="#141413" font-family="monospace" font-size="12">n</text>
  <text x="168" y="218.5" fill="#141413" font-family="monospace" font-size="12">t</text>
  <text x="178.5" y="218.5" fill="#141413" font-family="monospace" font-size="12">/</text>
  <text x="273" y="218.5" fill="#141413" font-family="monospace" font-size="12">#</text>
  <text x="294" y="218.5" fill="#141413" font-family="monospace" font-size="12">支</text>
  <text x="304.5" y="218.5" fill="#141413" font-family="monospace" font-size="12">付</text>
  <text x="315" y="218.5" fill="#141413" font-family="monospace" font-size="12">模</text>
  <text x="325.5" y="218.5" fill="#141413" font-family="monospace" font-size="12">块</text>
  <path stroke="#141413" stroke-width="1.5" d="M24.8 223.5V242"/>
  <path fill="none" stroke="#141413" stroke-width="1.5" d="M114.5 223.5H104V242"/>
  <path stroke="#141413" stroke-width="1.5" d="M114.5 232.8H104m10.5 0H125m0 0h10.5"/>
  <text x="147" y="237" fill="#141413" font-family="monospace" font-size="12">a</text>
  <text x="157.5" y="237" fill="#141413" font-family="monospace" font-size="12">p</text>
  <text x="168" y="237" fill="#141413" font-family="monospace" font-size="12">i</text>
  <text x="178.5" y="237" fill="#141413" font-family="monospace" font-size="12">.</text>
  <text x="189" y="237" fill="#141413" font-family="monospace" font-size="12">p</text>
  <text x="199.5" y="237" fill="#141413" font-family="monospace" font-size="12">y</text>
  <path stroke="#141413" stroke-width="1.5" d="M24.8 242v18.5"/>
  <path fill="none" stroke="#141413" stroke-width="1.5" d="M114.5 242H104v18.5"/>
  <path stroke="#141413" stroke-width="1.5" d="M114.5 251.2H104m10.5 0H125m0 0h10.5"/>
  <text x="147" y="255.5" fill="#141413" font-family="monospace" font-size="12">m</text>
  <text x="157.5" y="255.5" fill="#141413" font-family="monospace" font-size="12">o</text>
  <text x="168" y="255.5" fill="#141413" font-family="monospace" font-size="12">d</text>
  <text x="178.5" y="255.5" fill="#141413" font-family="monospace" font-size="12">e</text>
  <text x="189" y="255.5" fill="#141413" font-family="monospace" font-size="12">l</text>
  <text x="199.5" y="255.5" fill="#141413" font-family="monospace" font-size="12">s</text>
  <text x="210" y="255.5" fill="#141413" font-family="monospace" font-size="12">.</text>
  <text x="220.5" y="255.5" fill="#141413" font-family="monospace" font-size="12">p</text>
  <text x="231" y="255.5" fill="#141413" font-family="monospace" font-size="12">y</text>
  <path stroke="#141413" stroke-width="1.5" d="M24.8 260.5V279"/>
  <path fill="none" stroke="#141413" stroke-width="1.5" d="M114.5 260.5H104v9.3"/>
  <path stroke="#141413" stroke-width="1.5" d="M114.5 269.8H125m0 0h10.5"/>
  <text x="147" y="274" fill="#141413" font-family="monospace" font-size="12">s</text>
  <text x="157.5" y="274" fill="#141413" font-family="monospace" font-size="12">e</text>
  <text x="168" y="274" fill="#141413" font-family="monospace" font-size="12">r</text>
  <text x="178.5" y="274" fill="#141413" font-family="monospace" font-size="12">v</text>
  <text x="189" y="274" fill="#141413" font-family="monospace" font-size="12">i</text>
  <text x="199.5" y="274" fill="#141413" font-family="monospace" font-size="12">c</text>
  <text x="210" y="274" fill="#141413" font-family="monospace" font-size="12">e</text>
  <text x="220.5" y="274" fill="#141413" font-family="monospace" font-size="12">.</text>
  <text x="231" y="274" fill="#141413" font-family="monospace" font-size="12">p</text>
  <text x="241.5" y="274" fill="#141413" font-family="monospace" font-size="12">y</text>
  <path fill="none" stroke="#141413" stroke-width="1.5" d="M30.5 279H20v18.5"/>
  <path stroke="#141413" stroke-width="1.5" d="M30.5 288.2H20m10.5 0H41m0 0h10.5"/>
  <text x="63" y="292.5" fill="#141413" font-family="monospace" font-size="12">s</text>
  <text x="73.5" y="292.5" fill="#141413" font-family="monospace" font-size="12">h</text>
  <text x="84" y="292.5" fill="#141413" font-family="monospace" font-size="12">a</text>
  <text x="94.5" y="292.5" fill="#141413" font-family="monospace" font-size="12">r</text>
  <text x="105" y="292.5" fill="#141413" font-family="monospace" font-size="12">e</text>
  <text x="115.5" y="292.5" fill="#141413" font-family="monospace" font-size="12">d</text>
  <text x="126" y="292.5" fill="#141413" font-family="monospace" font-size="12">/</text>
  <text x="273" y="292.5" fill="#141413" font-family="monospace" font-size="12">#</text>
  <text x="294" y="292.5" fill="#141413" font-family="monospace" font-size="12">共</text>
  <text x="304.5" y="292.5" fill="#141413" font-family="monospace" font-size="12">享</text>
  <text x="315" y="292.5" fill="#141413" font-family="monospace" font-size="12">组</text>
  <text x="325.5" y="292.5" fill="#141413" font-family="monospace" font-size="12">件</text>
  <path fill="none" stroke="#141413" stroke-width="1.5" d="M30.5 297.5H20V316"/>
  <path stroke="#141413" stroke-width="1.5" d="M30.5 306.8H20m10.5 0H41m0 0h10.5"/>
  <text x="63" y="311" fill="#141413" font-family="monospace" font-size="12">t</text>
  <text x="73.5" y="311" fill="#141413" font-family="monospace" font-size="12">e</text>
  <text x="84" y="311" fill="#141413" font-family="monospace" font-size="12">s</text>
  <text x="94.5" y="311" fill="#141413" font-family="monospace" font-size="12">t</text>
  <text x="105" y="311" fill="#141413" font-family="monospace" font-size="12">s</text>
  <text x="115.5" y="311" fill="#141413" font-family="monospace" font-size="12">/</text>
  <path fill="none" stroke="#141413" stroke-width="1.5" d="M30.5 316H20v9.2"/>
  <path stroke="#141413" stroke-width="1.5" d="M30.5 325.2H41m0 0h10.5"/>
  <text x="63" y="329.5" fill="#141413" font-family="monospace" font-size="12">a</text>
  <text x="73.5" y="329.5" fill="#141413" font-family="monospace" font-size="12">p</text>
  <text x="84" y="329.5" fill="#141413" font-family="monospace" font-size="12">p</text>
  <text x="94.5" y="329.5" fill="#141413" font-family="monospace" font-size="12">.</text>
  <text x="105" y="329.5" fill="#141413" font-family="monospace" font-size="12">p</text>
  <text x="115.5" y="329.5" fill="#141413" font-family="monospace" font-size="12">y</text>
  <text x="273" y="329.5" fill="#141413" font-family="monospace" font-size="12">#</text>
  <text x="294" y="329.5" fill="#141413" font-family="monospace" font-size="12">统</text>
  <text x="304.5" y="329.5" fill="#141413" font-family="monospace" font-size="12">一</text>
  <text x="315" y="329.5" fill="#141413" font-family="monospace" font-size="12">的</text>
  <text x="325.5" y="329.5" fill="#141413" font-family="monospace" font-size="12">入</text>
  <text x="336" y="329.5" fill="#141413" font-family="monospace" font-size="12">口</text>
  <text x="346.5" y="329.5" fill="#141413" font-family="monospace" font-size="12">点</text>
</svg>
