<svg xmlns="http://www.w3.org/2000/svg" font-family="system-ui,-apple-system,sans-serif" viewBox="0 0 860 340"><defs><marker id="arrow" markerHeight="7" markerWidth="10" orient="auto" refX="9" refY="3.5"><path fill="#87867f" d="m0 0 10 3.5L0 7z"/></marker></defs><rect width="860" height="340" fill="#faf9f5" rx="12"/><text x="30" y="38" fill="#141413" font-size="15" font-weight="700">软件开发范式演进：从编码到意图</text><text x="30" y="56" fill="#87867f" font-size="11">Traditional → TDD → IDD 三个时代的核心工作流</text><rect width="220" height="200" x="30" y="80" fill="none" stroke="#d1cfc5" stroke-width="1.5" rx="10"/><rect width="220" height="32" x="30" y="80" fill="#e3dacc" rx="10"/><path fill="#e3dacc" d="M30 96h220v16H30z"/><text x="140" y="102" fill="#141413" font-size="13" font-weight="700" text-anchor="middle">阶段1：瀑布模型</text><text x="140" y="122" fill="#87867f" font-size="10" text-anchor="middle">1960s – 1990s</text><rect width="60" height="30" x="50" y="136" fill="#e3dacc" rx="5"/><text x="80" y="155" fill="#141413" font-size="10" font-weight="600" text-anchor="middle">需求</text><rect width="60" height="30" x="120" y="136" fill="#e3dacc" rx="5"/><text x="150" y="155" fill="#141413" font-size="10" font-weight="600" text-anchor="middle">设计</text><rect width="40" height="30" x="190" y="136" fill="#d97757" rx="5"/><text x="210" y="155" fill="#faf9f5" font-size="9" font-weight="700" text-anchor="middle">编码</text><path stroke="#87867f" stroke-dasharray="3,3" d="M80 166v18"/><rect width="60" height="30" x="50" y="184" fill="#e3dacc" rx="5"/><text x="80" y="203" fill="#141413" font-size="10" font-weight="600" text-anchor="middle">测试</text><path stroke="#87867f" stroke-dasharray="3,3" d="M150 166v18"/><rect width="60" height="30" x="120" y="184" fill="#e3dacc" rx="5"/><text x="150" y="203" fill="#141413" font-size="10" font-weight="600" text-anchor="middle">部署</text><path stroke="#87867f" stroke-dasharray="3,3" d="M210 166v62"/><rect width="40" height="24" x="190" y="228" fill="#d97757" rx="5"/><text x="210" y="243" fill="#faf9f5" font-size="9" font-weight="700" text-anchor="middle">上线</text><path stroke="#87867f" stroke-dasharray="3,3" d="M80 214h70m0 0h60"/><text x="140" y="270" fill="#87867f" font-size="10" text-anchor="middle">开发者主要工作</text><text x="140" y="284" fill="#d97757" font-size="10" font-weight="600" text-anchor="middle">编码 → 实现</text><path stroke="#87867f" marker-end="url(#arrow)" d="M255 180h50"/><text x="280" y="172" fill="#788c5d" font-size="10" font-weight="600" text-anchor="middle">范式转移</text><rect width="220" height="200" x="310" y="80" fill="none" stroke="#d1cfc5" stroke-width="1.5" rx="10"/><rect width="220" height="32" x="310" y="80" fill="#e3dacc" rx="10"/><path fill="#e3dacc" d="M310 96h220v16H310z"/><text x="420" y="102" fill="#141413" font-size="13" font-weight="700" text-anchor="middle">阶段2：TDD</text><text x="420" y="122" fill="#87867f" font-size="10" text-anchor="middle">2000s – 2010s</text><rect width="120" height="30" x="360" y="140" fill="#d97757" rx="5"/><text x="420" y="159" fill="#faf9f5" font-size="10" font-weight="700" text-anchor="middle">测试 → 编码 → 重构</text><path stroke="#87867f" stroke-dasharray="3,3" d="M360 170v18"/><rect width="60" height="30" x="330" y="188" fill="#e3dacc" rx="5"/><text x="360" y="207" fill="#141413" font-size="10" font-weight="600" text-anchor="middle">测试</text><path stroke="#87867f" stroke-dasharray="3,3" d="M420 170v18"/><rect width="60" height="30" x="390" y="188" fill="#e3dacc" rx="5"/><text x="420" y="207" fill="#141413" font-size="10" font-weight="600" text-anchor="middle">编码</text><path stroke="#87867f" stroke-dasharray="3,3" d="M480 170v18"/><rect width="60" height="30" x="450" y="188" fill="#e3dacc" rx="5"/><text x="480" y="207" fill="#141413" font-size="10" font-weight="600" text-anchor="middle">重构</text><path stroke="#87867f" stroke-dasharray="3,3" d="M360 218h60m0 0h60"/><text x="420" y="240" fill="#d97757" font-size="10" font-weight="600" text-anchor="middle">先写测试，再写代码</text><text x="420" y="270" fill="#87867f" font-size="10" text-anchor="middle">开发者角色</text><text x="420" y="284" fill="#788c5d" font-size="10" font-weight="600" text-anchor="middle">测试驱动实现</text><path stroke="#87867f" marker-end="url(#arrow)" d="M535 180h50"/><text x="560" y="172" fill="#788c5d" font-size="10" font-weight="600" text-anchor="middle">范式转移</text><rect width="240" height="200" x="590" y="80" fill="none" stroke="#d97757" stroke-width="2" rx="10"/><rect width="240" height="32" x="590" y="80" fill="#d97757" rx="10"/><path fill="#d97757" d="M590 96h240v16H590z"/><text x="710" y="102" fill="#faf9f5" font-size="13" font-weight="700" text-anchor="middle">阶段3：IDD ⭐</text><text x="710" y="122" fill="#141413" font-size="10" text-anchor="middle">2020s–</text><rect width="52" height="30" x="610" y="140" fill="#788c5d" rx="5"/><text x="636" y="159" fill="#faf9f5" font-size="10" font-weight="700" text-anchor="middle">意图</text><path stroke="#87867f" marker-end="url(#arrow)" d="M662 155h18"/><rect width="50" height="30" x="680" y="140" fill="#d1cfc5" rx="5"/><text x="705" y="159" fill="#141413" font-size="9" font-weight="600" text-anchor="middle">AI生成</text><path stroke="#87867f" marker-end="url(#arrow)" d="M730 155h18"/><rect width="52" height="30" x="748" y="140" fill="#e3dacc" rx="5"/><text x="774" y="159" fill="#141413" font-size="10" font-weight="600" text-anchor="middle">审查</text><path stroke="#87867f" marker-end="url(#arrow)" d="M800 155h18"/><rect width="32" height="30" x="784" y="140" fill="#e3dacc" rx="5"/><text x="800" y="159" fill="#141413" font-size="9" font-weight="600" text-anchor="middle">迭代</text><text x="710" y="186" fill="#141413" font-size="10" font-weight="600" text-anchor="middle">精确表达意图，AI负责实现</text><rect width="200" height="20" x="610" y="196" fill="#e3dacc" rx="4"/><text x="710" y="210" fill="#141413" font-size="10" text-anchor="middle">传统角色：代码实现者</text><rect width="200" height="20" x="610" y="220" fill="#788c5d" rx="4"/><text x="710" y="234" fill="#faf9f5" font-size="10" font-weight="600" text-anchor="middle">IDD角色：意图架构师 ⭐</text><text x="710" y="268" fill="#d97757" font-size="10" font-weight="600" text-anchor="middle">核心技能：意图表达 + 审查判断</text><text x="710" y="284" fill="#87867f" font-size="10" text-anchor="middle">人类做判断，AI做执行</text><rect width="12" height="12" x="30" y="310" fill="#d97757" rx="2"/><text x="48" y="321" fill="#87867f" font-size="10">开发者主要工作</text><rect width="12" height="12" x="150" y="310" fill="#788c5d" rx="2"/><text x="168" y="321" fill="#87867f" font-size="10">AI辅助工作</text><rect width="12" height="12" x="260" y="310" fill="#e3dacc" rx="2"/><text x="278" y="321" fill="#87867f" font-size="10">人类核心职责</text><rect width="12" height="12" x="370" y="310" fill="#d1cfc5" rx="2"/><text x="388" y="321" fill="#87867f" font-size="10">AI生成</text></svg>