<svg xmlns="http://www.w3.org/2000/svg" aria-label="Schema Generation Paths" viewBox="0 0 800 480"><title>事件 Schema 生成路径</title><desc>从代码和需求两种路径使用 AI 生成事件 Schema 的流程图</desc><defs><linearGradient id="bg2" x1="0%" x2="100%" y1="0%" y2="100%"><stop offset="0%" stop-color="#faf9f5"/><stop offset="100%" stop-color="#e3dacc"/></linearGradient><linearGradient id="blueGrad" x1="0%" x2="0%" y1="0%" y2="100%"><stop offset="0%" stop-color="#5b8db8"/><stop offset="100%" stop-color="#4a73a0"/></linearGradient><linearGradient id="greenGrad" x1="0%" x2="0%" y1="0%" y2="100%"><stop offset="0%" stop-color="#788c5d"/><stop offset="100%" stop-color="#5f7350"/></linearGradient><marker id="arrowHead" markerHeight="7" markerWidth="10" orient="auto" refX="9" refY="3.5"><path fill="#87867f" d="m0 0 10 3.5L0 7z"/></marker><filter id="shadow2" width="120%" height="130%" x="-10%" y="-10%"><feDropShadow dx="0" dy="2" flood-color="#141413" flood-opacity=".08" stdDeviation="4"/></filter></defs><rect width="800" height="480" fill="url(#bg2)" rx="16"/><text x="400" y="38" fill="#141413" font-family="system-ui,-apple-system,sans-serif" font-size="20" font-weight="700" text-anchor="middle">AI 事件 Schema 生成路径</text><text x="400" y="60" fill="#87867f" font-family="system-ui,-apple-system,sans-serif" font-size="12" text-anchor="middle">两条生成路径：代码分析 · 需求理解</text><text x="180" y="95" fill="#5b8db8" font-family="system-ui,sans-serif" font-size="13" font-weight="600" text-anchor="middle">路径 1：代码 → Schema</text><rect width="300" height="70" x="30" y="110" fill="#fff" filter="url(#shadow2)" rx="10"/><rect width="6" height="70" x="30" y="110" fill="url(#blueGrad)" rx="3"/><text x="50" y="135" fill="#141413" font-family="system-ui,sans-serif" font-size="12" font-weight="600">源代码分析</text><text x="50" y="152" fill="#87867f" font-family="system-ui,sans-serif" font-size="11">· 类型定义（TypeScript/Java）</text><text x="50" y="167" fill="#87867f" font-family="system-ui,sans-serif" font-size="11">· 注解/装饰器（@Event）</text><path stroke="#d1cfc5" stroke-width="2" marker-end="url(#arrowHead)" d="M180 180v30"/><rect width="300" height="70" x="30" y="215" fill="#fff" filter="url(#shadow2)" rx="10"/><rect width="6" height="70" x="30" y="215" fill="url(#blueGrad)" rx="3"/><text x="50" y="240" fill="#141413" font-family="system-ui,sans-serif" font-size="12" font-weight="600">AI 提取事件定义</text><text x="50" y="257" fill="#87867f" font-family="system-ui,sans-serif" font-size="11">· 识别事件类</text><text x="50" y="272" fill="#87867f" font-family="system-ui,sans-serif" font-size="11">· 提取字段类型与约束</text><path stroke="#d1cfc5" stroke-width="2" marker-end="url(#arrowHead)" d="M180 285v30"/><rect width="300" height="70" x="30" y="320" fill="#fff" filter="url(#shadow2)" rx="10"/><rect width="6" height="70" x="30" y="320" fill="url(#blueGrad)" rx="3"/><text x="50" y="345" fill="#141413" font-family="system-ui,sans-serif" font-size="12" font-weight="600">生成 Schema 文件</text><text x="50" y="362" fill="#87867f" font-family="system-ui,sans-serif" font-size="11">Avro · Protobuf · JSON Schema</text><text x="50" y="377" fill="#87867f" font-family="system-ui,sans-serif" font-size="11">AsyncAPI · TypeScript 类型</text><text x="600" y="95" fill="#788c5d" font-family="system-ui,sans-serif" font-size="13" font-weight="600" text-anchor="middle">路径 2：需求 → Schema</text><rect width="300" height="70" x="420" y="110" fill="#fff" filter="url(#shadow2)" rx="10"/><rect width="6" height="70" x="710" y="110" fill="url(#greenGrad)" rx="3"/><text x="440" y="135" fill="#141413" font-family="system-ui,sans-serif" font-size="12" font-weight="600">需求描述</text><text x="440" y="152" fill="#87867f" font-family="system-ui,sans-serif" font-size="11">· 用户故事</text><text x="440" y="167" fill="#87867f" font-family="system-ui,sans-serif" font-size="11">· 验收标准 · 示例数据</text><path stroke="#d1cfc5" stroke-width="2" marker-end="url(#arrowHead)" d="M570 180v30"/><rect width="300" height="70" x="420" y="215" fill="#fff" filter="url(#shadow2)" rx="10"/><rect width="6" height="70" x="710" y="215" fill="url(#greenGrad)" rx="3"/><text x="440" y="240" fill="#141413" font-family="system-ui,sans-serif" font-size="12" font-weight="600">AI 理解领域概念</text><text x="440" y="257" fill="#87867f" font-family="system-ui,sans-serif" font-size="11">· 识别实体与属性</text><text x="440" y="272" fill="#87867f" font-family="system-ui,sans-serif" font-size="11">· 推断关系与约束</text><path stroke="#d1cfc5" stroke-width="2" marker-end="url(#arrowHead)" d="M570 285v30"/><rect width="300" height="70" x="420" y="320" fill="#fff" filter="url(#shadow2)" rx="10"/><rect width="6" height="70" x="710" y="320" fill="url(#greenGrad)" rx="3"/><text x="440" y="345" fill="#141413" font-family="system-ui,sans-serif" font-size="12" font-weight="600">生成 Schema 草案</text><text x="440" y="362" fill="#87867f" font-family="system-ui,sans-serif" font-size="11">· 字段建议 · 类型推断</text><text x="440" y="377" fill="#87867f" font-family="system-ui,sans-serif" font-size="11">· 约束推荐 · 兼容性评估</text><path stroke="#d97757" stroke-dasharray="6,4" stroke-width="2" marker-end="url(#arrowHead)" d="M330 355h90"/><text x="375" y="345" fill="#d97757" font-family="system-ui,sans-serif" font-size="10" text-anchor="middle">合并</text><rect width="240" height="60" x="280" y="400" fill="#fff" stroke="#d97757" stroke-width="2" filter="url(#shadow2)" rx="10"/><text x="400" y="425" fill="#d97757" font-family="system-ui,sans-serif" font-size="13" font-weight="600" text-anchor="middle">统一 Schema 注册中心</text><text x="400" y="445" fill="#87867f" font-family="system-ui,sans-serif" font-size="11" text-anchor="middle">版本管理 · 兼容性检查 · 消费者发现</text></svg>