<svg xmlns="http://www.w3.org/2000/svg" font-family="ui-serif, Georgia, serif" viewBox="0 0 600 320"><path fill="#faf9f5" d="M0 0h600v320H0z"/><text x="300" y="28" fill="#141413" font-size="14" font-weight="500" letter-spacing="-.02em" text-anchor="middle">优雅的三维定义</text><text x="300" y="44" fill="#87867f" font-family="ui-monospace, monospace" font-size="10" text-anchor="middle">简洁 × 清晰 × 效率 = 优雅</text><circle cx="300" cy="145" r="52" fill="#fff" stroke="#d97757" stroke-width="2"/><text x="300" y="138" fill="#d97757" font-size="20" font-weight="700" text-anchor="middle">优雅</text><text x="300" y="156" fill="#87867f" font-family="ui-monospace, monospace" font-size="11" text-anchor="middle">Elegance</text><text x="248" y="132" fill="#d97757" font-size="18" text-anchor="middle">×</text><text x="352" y="132" fill="#d97757" font-size="18" text-anchor="middle">×</text><circle cx="130" cy="145" r="48" fill="#fff" stroke="#d1cfc5" stroke-width="1.5"/><text x="130" y="138" fill="#141413" font-size="16" font-weight="600" text-anchor="middle">简洁</text><text x="130" y="156" fill="#87867f" font-family="ui-monospace, monospace" font-size="10" text-anchor="middle">Simplicity</text><path stroke="#d1cfc5" stroke-dasharray="4,3" stroke-width="1.5" d="M178 145h70"/><path fill="#d1cfc5" d="m248 141-8 4 8 4z"/><circle cx="470" cy="145" r="48" fill="#fff" stroke="#d1cfc5" stroke-width="1.5"/><text x="470" y="138" fill="#141413" font-size="16" font-weight="600" text-anchor="middle">清晰</text><text x="470" y="156" fill="#87867f" font-family="ui-monospace, monospace" font-size="10" text-anchor="middle">Clarity</text><path stroke="#d1cfc5" stroke-dasharray="4,3" stroke-width="1.5" d="M422 145h-70"/><path fill="#d1cfc5" d="m352 141 8 4-8 4z"/><circle cx="300" cy="255" r="48" fill="#fff" stroke="#d1cfc5" stroke-width="1.5"/><text x="300" y="248" fill="#141413" font-size="16" font-weight="600" text-anchor="middle">高效</text><text x="300" y="266" fill="#87867f" font-family="ui-monospace, monospace" font-size="10" text-anchor="middle">Efficiency</text><path stroke="#d1cfc5" stroke-dasharray="4,3" stroke-width="1.5" d="M300 207v-10"/><path fill="#d1cfc5" d="m300 197-4 8h8z"/><path stroke="#d1cfc5" d="M180 298h240"/><text x="300" y="312" fill="#87867f" font-family="ui-monospace, monospace" font-size="10" text-anchor="middle">任意维度归零，优雅归零</text></svg>