<svg xmlns="http://www.w3.org/2000/svg" font-family="'Courier New', monospace" font-size="15" viewBox="0 0 640 300"><path fill="#faf9f5" d="M0 0h640v300H0z"/><path fill="#141413" d="M0 0h640v36H0z"/><path fill="#141413" d="M1 1h638v34H1z"/><text x="320" y="24" fill="#faf9f5" font-size="16" font-weight="bold" letter-spacing="4" text-anchor="middle">open-swe 核心特性</text><path fill="#d97757" d="M0 36h640v30H0z"/><path fill="#d97757" d="M1 37h638v28H1z"/><path fill="#141413" d="M321 36h1v30h-1z"/><text x="162" y="56" fill="#faf9f5" font-size="14" font-weight="bold" text-anchor="middle">特性</text><text x="480" y="56" fill="#faf9f5" font-size="14" font-weight="bold" text-anchor="middle">说明</text><path fill="#e3dacc" d="M0 66h640v36H0z"/><path fill="#e3dacc" d="M1 67h638v34H1z"/><path fill="#d1cfc5" d="M321 66h1v36h-1z"/><text x="18" y="89" fill="#788c5d" font-size="14" font-weight="bold">✅ 异步执行</text><text x="337" y="89" fill="#141413" font-size="14">非阻塞 I/O，高并发</text><path fill="#faf9f5" d="M0 102h640v36H0z"/><path fill="#faf9f5" d="M1 103h638v34H1z"/><path fill="#d1cfc5" d="M321 102h1v36h-1z"/><text x="18" y="125" fill="#788c5d" font-size="14" font-weight="bold">✅ 代码生成</text><text x="337" y="125" fill="#141413" font-size="14">多语言支持，上下文感知</text><path fill="#e3dacc" d="M0 138h640v36H0z"/><path fill="#e3dacc" d="M1 139h638v34H1z"/><path fill="#d1cfc5" d="M321 138h1v36h-1z"/><text x="18" y="161" fill="#788c5d" font-size="14" font-weight="bold">✅ 文件协调</text><text x="337" y="161" fill="#141413" font-size="14">跨文件依赖分析</text><path fill="#faf9f5" d="M0 174h640v36H0z"/><path fill="#faf9f5" d="M1 175h638v34H1z"/><path fill="#d1cfc5" d="M321 174h1v36h-1z"/><text x="18" y="197" fill="#788c5d" font-size="14" font-weight="bold">✅ CI/CD 集成</text><text x="337" y="197" fill="#141413" font-size="14">自动化流水线</text><path fill="#e3dacc" d="M0 210h640v36H0z"/><path fill="#e3dacc" d="M1 211h638v34H1z"/><path fill="#d1cfc5" d="M321 210h1v36h-1z"/><text x="18" y="233" fill="#788c5d" font-size="14" font-weight="bold">✅ 可扩展</text><text x="337" y="233" fill="#141413" font-size="14">插件化架构</text><path stroke="#141413" stroke-width="2" d="M0 36h640m-319 0v210M0 246h640M1 36v210M639 36v210"/></svg>