<svg xmlns="http://www.w3.org/2000/svg" font-family="ui-serif, Georgia, serif" viewBox="0 0 640 200"><path fill="#faf9f5" d="M0 0h640v200H0z"/><text x="320" y="22" fill="#141413" font-size="13" font-weight="500" letter-spacing="-.02em" text-anchor="middle">ReAct 工作循环</text><text x="320" y="37" fill="#87867f" font-family="ui-monospace, monospace" font-size="9.5" text-anchor="middle">Yao et al. · arXiv:2210.03629 · 2022</text><ellipse cx="320" cy="108" fill="none" stroke="#d1cfc5" stroke-dasharray="6,4" stroke-width="1.5" rx="230" ry="60"/><rect width="110" height="72" x="40" y="72" fill="#fff" stroke="#d97757" stroke-width="1.8" rx="8"/><text x="95" y="98" fill="#d97757" font-family="ui-monospace, monospace" font-size="11" font-weight="600" text-anchor="middle">Thought</text><text x="95" y="116" fill="#141413" font-size="10" text-anchor="middle">推理</text><text x="95" y="130" fill="#87867f" font-size="9" text-anchor="middle">思考下一步做什么</text><path stroke="#d97757" stroke-width="1.5" d="M150 108h42"/><path fill="#d97757" d="m192 104-7 4 7 4z"/><text x="171" y="102" fill="#d97757" font-family="ui-monospace, monospace" font-size="8" text-anchor="middle">L</text><rect width="110" height="72" x="198" y="72" fill="#fff" stroke="#d1cfc5" stroke-width="1.5" rx="8"/><text x="253" y="98" fill="#d97757" font-family="ui-monospace, monospace" font-size="11" font-weight="600" text-anchor="middle">Action</text><text x="253" y="116" fill="#141413" font-size="10" text-anchor="middle">行动</text><text x="253" y="130" fill="#87867f" font-size="9" text-anchor="middle">调用工具/环境交互</text><path stroke="#d1cfc5" stroke-width="1.5" d="M308 108h42"/><path fill="#d1cfc5" d="m350 104-7 4 7 4z"/><text x="329" y="102" fill="#d1cfc5" font-family="ui-monospace, monospace" font-size="8" text-anchor="middle">L</text><rect width="110" height="72" x="356" y="72" fill="#fff" stroke="#d1cfc5" stroke-width="1.5" rx="8"/><text x="411" y="98" fill="#d97757" font-family="ui-monospace, monospace" font-size="11" font-weight="600" text-anchor="middle">Observation</text><text x="411" y="116" fill="#141413" font-size="10" text-anchor="middle">观察</text><text x="411" y="130" fill="#87867f" font-size="9" text-anchor="middle">获取执行结果</text><path fill="none" stroke="#d97757" stroke-dasharray="5,3" stroke-width="1.5" d="M466 108c44 0 44 70-146 70s-190-70-146-70"/><path fill="#d97757" d="m174 104-7 4 7 4z"/><text x="500" y="170" fill="#d97757" font-family="ui-monospace, monospace" font-size="9">循环</text><rect width="96" height="56" x="514" y="80" fill="#f0eee6" stroke="#788c5d" stroke-width="1.5" rx="8"/><text x="562" y="102" fill="#788c5d" font-family="ui-monospace, monospace" font-size="10" font-weight="600" text-anchor="middle">Final</text><text x="562" y="116" fill="#788c5d" font-family="ui-monospace, monospace" font-size="10" font-weight="600" text-anchor="middle">Answer</text><text x="562" y="130" fill="#87867f" font-size="9" text-anchor="middle">停止</text><path stroke="#d1cfc5" d="M320 20V8"/><text x="320" y="4" fill="#87867f" font-family="ui-monospace, monospace" font-size="8" text-anchor="middle">局部推理 → 全链路循环</text><rect width="110" height="30" x="40" y="162" fill="#fff" stroke="#d97757" rx="5"/><text x="95" y="178" fill="#141413" font-size="9.5" font-weight="600" text-anchor="middle">+34% ALFWorld</text><text x="95" y="188" fill="#87867f" font-size="8.5" text-anchor="middle">+10% WebShop</text><rect width="110" height="30" x="160" y="162" fill="#fff" stroke="#d1cfc5" rx="5"/><text x="215" y="178" fill="#141413" font-size="9.5" font-weight="600" text-anchor="middle">1–2 examples</text><text x="215" y="188" fill="#87867f" font-size="8.5" text-anchor="middle">few-shot in-context</text></svg>