<svg xmlns="http://www.w3.org/2000/svg" viewBox="0 0 356 274" width="356" height="274" style="font-family: 'Courier New', Courier, monospace; background: #FAF9F5;">
  <rect width="356" height="274" fill="#FAF9F5"/>
<text x="178.0" y="18" text-anchor="middle" font-size="12px" font-weight="bold" fill="#141413">两种设计哲学对比</text>
  <g>
    
  </g>
  <g>
    <text x="24.8" y="250.3" font-size="13px" fill="#141413">`</text>
<text x="34.4" y="250.3" font-size="13px" fill="#141413">`</text>
<text x="44.0" y="63.3" font-size="13px" fill="#141413">-</text>
<text x="44.0" y="114.3" font-size="13px" fill="#141413">-</text>
<text x="44.0" y="165.3" font-size="13px" fill="#141413">-</text>
<text x="44.0" y="216.3" font-size="13px" fill="#141413">-</text>
<text x="44.0" y="250.3" font-size="13px" fill="#141413">`</text>
<text x="63.2" y="63.3" font-size="13px" fill="#141413">w</text>
<text x="63.2" y="80.3" font-size="13px" fill="#141413">t</text>
<text x="63.2" y="114.3" font-size="13px" fill="#141413">w</text>
<text x="63.2" y="131.3" font-size="13px" fill="#141413">t</text>
<text x="63.2" y="165.3" font-size="13px" fill="#141413">w</text>
<text x="63.2" y="182.3" font-size="13px" fill="#141413">t</text>
<text x="63.2" y="216.3" font-size="13px" fill="#141413">w</text>
<text x="63.2" y="233.3" font-size="13px" fill="#141413">t</text>
<text x="72.8" y="63.3" font-size="13px" fill="#141413">h</text>
<text x="72.8" y="80.3" font-size="13px" fill="#141413">h</text>
<text x="72.8" y="114.3" font-size="13px" fill="#141413">h</text>
<text x="72.8" y="131.3" font-size="13px" fill="#141413">h</text>
<text x="72.8" y="165.3" font-size="13px" fill="#141413">h</text>
<text x="72.8" y="182.3" font-size="13px" fill="#141413">h</text>
<text x="72.8" y="216.3" font-size="13px" fill="#141413">h</text>
<text x="72.8" y="233.3" font-size="13px" fill="#141413">h</text>
<text x="82.4" y="63.3" font-size="13px" fill="#141413">e</text>
<text x="82.4" y="80.3" font-size="13px" fill="#141413">e</text>
<text x="82.4" y="114.3" font-size="13px" fill="#141413">e</text>
<text x="82.4" y="131.3" font-size="13px" fill="#141413">e</text>
<text x="82.4" y="165.3" font-size="13px" fill="#141413">e</text>
<text x="82.4" y="182.3" font-size="13px" fill="#141413">e</text>
<text x="82.4" y="216.3" font-size="13px" fill="#141413">e</text>
<text x="82.4" y="233.3" font-size="13px" fill="#141413">e</text>
<text x="92.0" y="63.3" font-size="13px" fill="#141413">n</text>
<text x="92.0" y="80.3" font-size="13px" fill="#141413">n</text>
<text x="92.0" y="114.3" font-size="13px" fill="#141413">n</text>
<text x="92.0" y="131.3" font-size="13px" fill="#141413">n</text>
<text x="92.0" y="165.3" font-size="13px" fill="#141413">n</text>
<text x="92.0" y="182.3" font-size="13px" fill="#141413">n</text>
<text x="92.0" y="216.3" font-size="13px" fill="#141413">n</text>
<text x="92.0" y="233.3" font-size="13px" fill="#141413">n</text>
<text x="101.6" y="63.3" font-size="13px" fill="#141413">:</text>
<text x="101.6" y="80.3" font-size="13px" fill="#141413">:</text>
<text x="101.6" y="114.3" font-size="13px" fill="#141413">:</text>
<text x="101.6" y="131.3" font-size="13px" fill="#141413">:</text>
<text x="101.6" y="165.3" font-size="13px" fill="#141413">:</text>
<text x="101.6" y="182.3" font-size="13px" fill="#141413">:</text>
<text x="101.6" y="216.3" font-size="13px" fill="#141413">:</text>
<text x="101.6" y="233.3" font-size="13px" fill="#141413">:</text>
<text x="120.8" y="63.3" font-size="13px" fill="#141413">t</text>
<text x="120.8" y="80.3" font-size="13px" fill="#141413">b</text>
<text x="120.8" y="114.3" font-size="13px" fill="#141413">a</text>
<text x="120.8" y="131.3" font-size="13px" fill="#141413">r</text>
<text x="120.8" y="165.3" font-size="13px" fill="#141413">t</text>
<text x="120.8" y="182.3" font-size="13px" fill="#141413">r</text>
<text x="120.8" y="216.3" font-size="13px" fill="#141413">a</text>
<text x="120.8" y="233.3" font-size="13px" fill="#141413">t</text>
<text x="130.4" y="63.3" font-size="13px" fill="#141413">a</text>
<text x="130.4" y="80.3" font-size="13px" fill="#141413">r</text>
<text x="130.4" y="114.3" font-size="13px" fill="#141413">g</text>
<text x="130.4" y="131.3" font-size="13px" fill="#141413">e</text>
<text x="130.4" y="165.3" font-size="13px" fill="#141413">a</text>
<text x="130.4" y="182.3" font-size="13px" fill="#141413">e</text>
<text x="130.4" y="216.3" font-size="13px" fill="#141413">g</text>
<text x="130.4" y="233.3" font-size="13px" fill="#141413">r</text>
<text x="140.0" y="63.3" font-size="13px" fill="#141413">s</text>
<text x="140.0" y="80.3" font-size="13px" fill="#141413">o</text>
<text x="140.0" y="114.3" font-size="13px" fill="#141413">e</text>
<text x="140.0" y="131.3" font-size="13px" fill="#141413">m</text>
<text x="140.0" y="165.3" font-size="13px" fill="#141413">s</text>
<text x="140.0" y="182.3" font-size="13px" fill="#141413">a</text>
<text x="140.0" y="216.3" font-size="13px" fill="#141413">e</text>
<text x="140.0" y="233.3" font-size="13px" fill="#141413">i</text>
<text x="149.6" y="63.3" font-size="13px" fill="#141413">k</text>
<text x="149.6" y="80.3" font-size="13px" fill="#141413">a</text>
<text x="149.6" y="114.3" font-size="13px" fill="#141413">n</text>
<text x="149.6" y="131.3" font-size="13px" fill="#141413">o</text>
<text x="149.6" y="165.3" font-size="13px" fill="#141413">k</text>
<text x="149.6" y="182.3" font-size="13px" fill="#141413">s</text>
<text x="149.6" y="216.3" font-size="13px" fill="#141413">n</text>
<text x="149.6" y="233.3" font-size="13px" fill="#141413">g</text>
<text x="159.2" y="63.3" font-size="13px" fill="#141413">_</text>
<text x="159.2" y="80.3" font-size="13px" fill="#141413">d</text>
<text x="159.2" y="114.3" font-size="13px" fill="#141413">t</text>
<text x="159.2" y="131.3" font-size="13px" fill="#141413">v</text>
<text x="159.2" y="165.3" font-size="13px" fill="#141413">_</text>
<text x="159.2" y="182.3" font-size="13px" fill="#141413">s</text>
<text x="159.2" y="216.3" font-size="13px" fill="#141413">t</text>
<text x="159.2" y="233.3" font-size="13px" fill="#141413">g</text>
<text x="168.8" y="63.3" font-size="13px" fill="#141413">a</text>
<text x="168.8" y="80.3" font-size="13px" fill="#141413">c</text>
<text x="168.8" y="114.3" font-size="13px" fill="#141413">_</text>
<text x="168.8" y="131.3" font-size="13px" fill="#141413">e</text>
<text x="168.8" y="165.3" font-size="13px" fill="#141413">t</text>
<text x="168.8" y="182.3" font-size="13px" fill="#141413">i</text>
<text x="168.8" y="216.3" font-size="13px" fill="#141413">_</text>
<text x="168.8" y="233.3" font-size="13px" fill="#141413">e</text>
<text x="178.4" y="63.3" font-size="13px" fill="#141413">r</text>
<text x="178.4" y="80.3" font-size="13px" fill="#141413">a</text>
<text x="178.4" y="114.3" font-size="13px" fill="#141413">c</text>
<text x="178.4" y="131.3" font-size="13px" fill="#141413">_</text>
<text x="178.4" y="165.3" font-size="13px" fill="#141413">i</text>
<text x="178.4" y="182.3" font-size="13px" fill="#141413">g</text>
<text x="178.4" y="216.3" font-size="13px" fill="#141413">o</text>
<text x="178.4" y="233.3" font-size="13px" fill="#141413">r</text>
<text x="188.0" y="63.3" font-size="13px" fill="#141413">r</text>
<text x="188.0" y="80.3" font-size="13px" fill="#141413">s</text>
<text x="188.0" y="114.3" font-size="13px" fill="#141413">l</text>
<text x="188.0" y="131.3" font-size="13px" fill="#141413">f</text>
<text x="188.0" y="165.3" font-size="13px" fill="#141413">m</text>
<text x="188.0" y="182.3" font-size="13px" fill="#141413">n</text>
<text x="188.0" y="216.3" font-size="13px" fill="#141413">v</text>
<text x="188.0" y="233.3" font-size="13px" fill="#141413">_</text>
<text x="197.6" y="63.3" font-size="13px" fill="#141413">i</text>
<text x="197.6" y="80.3" font-size="13px" fill="#141413">t</text>
<text x="197.6" y="114.3" font-size="13px" fill="#141413">a</text>
<text x="197.6" y="131.3" font-size="13px" fill="#141413">r</text>
<text x="197.6" y="165.3" font-size="13px" fill="#141413">e</text>
<text x="197.6" y="182.3" font-size="13px" fill="#141413">_</text>
<text x="197.6" y="216.3" font-size="13px" fill="#141413">e</text>
<text x="197.6" y="233.3" font-size="13px" fill="#141413">l</text>
<text x="207.2" y="63.3" font-size="13px" fill="#141413">v</text>
<text x="207.2" y="80.3" font-size="13px" fill="#141413">_</text>
<text x="207.2" y="114.3" font-size="13px" fill="#141413">i</text>
<text x="207.2" y="131.3" font-size="13px" fill="#141413">o</text>
<text x="207.2" y="165.3" font-size="13px" fill="#141413">o</text>
<text x="207.2" y="182.3" font-size="13px" fill="#141413">w</text>
<text x="207.2" y="216.3" font-size="13px" fill="#141413">r</text>
<text x="207.2" y="233.3" font-size="13px" fill="#141413">o</text>
<text x="216.8" y="63.3" font-size="13px" fill="#141413">e</text>
<text x="216.8" y="80.3" font-size="13px" fill="#141413">t</text>
<text x="216.8" y="114.3" font-size="13px" fill="#141413">m</text>
<text x="216.8" y="131.3" font-size="13px" fill="#141413">m</text>
<text x="216.8" y="165.3" font-size="13px" fill="#141413">u</text>
<text x="216.8" y="182.3" font-size="13px" fill="#141413">i</text>
<text x="216.8" y="216.3" font-size="13px" fill="#141413">l</text>
<text x="216.8" y="233.3" font-size="13px" fill="#141413">a</text>
<text x="226.4" y="63.3" font-size="13px" fill="#141413">s</text>
<text x="226.4" y="80.3" font-size="13px" fill="#141413">o</text>
<text x="226.4" y="114.3" font-size="13px" fill="#141413">s</text>
<text x="226.4" y="131.3" font-size="13px" fill="#141413">_</text>
<text x="226.4" y="165.3" font-size="13px" fill="#141413">t</text>
<text x="226.4" y="182.3" font-size="13px" fill="#141413">t</text>
<text x="226.4" y="216.3" font-size="13px" fill="#141413">o</text>
<text x="226.4" y="233.3" font-size="13px" fill="#141413">d</text>
<text x="236.0" y="80.3" font-size="13px" fill="#141413">_</text>
<text x="236.0" y="114.3" font-size="13px" fill="#141413">_</text>
<text x="236.0" y="131.3" font-size="13px" fill="#141413">p</text>
<text x="236.0" y="182.3" font-size="13px" fill="#141413">h</text>
<text x="236.0" y="216.3" font-size="13px" fill="#141413">a</text>
<text x="236.0" y="233.3" font-size="13px" fill="#141413">_</text>
<text x="245.6" y="80.3" font-size="13px" fill="#141413">a</text>
<text x="245.6" y="114.3" font-size="13px" fill="#141413">t</text>
<text x="245.6" y="131.3" font-size="13px" fill="#141413">o</text>
<text x="245.6" y="182.3" font-size="13px" fill="#141413">_</text>
<text x="245.6" y="216.3" font-size="13px" fill="#141413">d</text>
<text x="245.6" y="233.3" font-size="13px" fill="#141413">b</text>
<text x="255.2" y="80.3" font-size="13px" fill="#141413">l</text>
<text x="255.2" y="114.3" font-size="13px" fill="#141413">a</text>
<text x="255.2" y="131.3" font-size="13px" fill="#141413">o</text>
<text x="255.2" y="182.3" font-size="13px" fill="#141413">p</text>
<text x="255.2" y="216.3" font-size="13px" fill="#141413">e</text>
<text x="255.2" y="233.3" font-size="13px" fill="#141413">a</text>
<text x="264.8" y="80.3" font-size="13px" fill="#141413">l</text>
<text x="264.8" y="114.3" font-size="13px" fill="#141413">s</text>
<text x="264.8" y="131.3" font-size="13px" fill="#141413">l</text>
<text x="264.8" y="182.3" font-size="13px" fill="#141413">r</text>
<text x="264.8" y="216.3" font-size="13px" fill="#141413">d</text>
<text x="264.8" y="233.3" font-size="13px" fill="#141413">l</text>
<text x="274.4" y="80.3" font-size="13px" fill="#141413">_</text>
<text x="274.4" y="114.3" font-size="13px" fill="#141413">k</text>
<text x="274.4" y="182.3" font-size="13px" fill="#141413">i</text>
<text x="274.4" y="233.3" font-size="13px" fill="#141413">a</text>
<text x="284.0" y="80.3" font-size="13px" fill="#141413">a</text>
<text x="284.0" y="182.3" font-size="13px" fill="#141413">o</text>
<text x="284.0" y="233.3" font-size="13px" fill="#141413">n</text>
<text x="293.6" y="80.3" font-size="13px" fill="#141413">g</text>
<text x="293.6" y="182.3" font-size="13px" fill="#141413">r</text>
<text x="293.6" y="233.3" font-size="13px" fill="#141413">c</text>
<text x="303.2" y="80.3" font-size="13px" fill="#141413">e</text>
<text x="303.2" y="182.3" font-size="13px" fill="#141413">i</text>
<text x="303.2" y="233.3" font-size="13px" fill="#141413">i</text>
<text x="312.8" y="80.3" font-size="13px" fill="#141413">n</text>
<text x="312.8" y="182.3" font-size="13px" fill="#141413">t</text>
<text x="312.8" y="233.3" font-size="13px" fill="#141413">n</text>
<text x="322.4" y="80.3" font-size="13px" fill="#141413">t</text>
<text x="322.4" y="182.3" font-size="13px" fill="#141413">y</text>
<text x="322.4" y="233.3" font-size="13px" fill="#141413">g</text>
<text x="332.0" y="80.3" font-size="13px" fill="#141413">s</text>
  </g>
</svg>