<svg xmlns="http://www.w3.org/2000/svg" style="font-family:&quot;Courier New&quot;,Courier,monospace;background:#faf9f5" viewBox="0 0 356 274">
  <path fill="#faf9f5" d="M0 0h356v274H0z"/>
  <text x="178" y="18" fill="#141413" font-size="12" font-weight="bold" text-anchor="middle">两种设计哲学对比</text>
  <g fill="#141413" font-size="13">
    <text x="24.8" y="250.3">`</text>
    <text x="34.4" y="250.3">`</text>
    <text x="44" y="63.3">-</text>
    <text x="44" y="114.3">-</text>
    <text x="44" y="165.3">-</text>
    <text x="44" y="216.3">-</text>
    <text x="44" y="250.3">`</text>
    <text x="63.2" y="63.3">w</text>
    <text x="63.2" y="80.3">t</text>
    <text x="63.2" y="114.3">w</text>
    <text x="63.2" y="131.3">t</text>
    <text x="63.2" y="165.3">w</text>
    <text x="63.2" y="182.3">t</text>
    <text x="63.2" y="216.3">w</text>
    <text x="63.2" y="233.3">t</text>
    <text x="72.8" y="63.3">h</text>
    <text x="72.8" y="80.3">h</text>
    <text x="72.8" y="114.3">h</text>
    <text x="72.8" y="131.3">h</text>
    <text x="72.8" y="165.3">h</text>
    <text x="72.8" y="182.3">h</text>
    <text x="72.8" y="216.3">h</text>
    <text x="72.8" y="233.3">h</text>
    <text x="82.4" y="63.3">e</text>
    <text x="82.4" y="80.3">e</text>
    <text x="82.4" y="114.3">e</text>
    <text x="82.4" y="131.3">e</text>
    <text x="82.4" y="165.3">e</text>
    <text x="82.4" y="182.3">e</text>
    <text x="82.4" y="216.3">e</text>
    <text x="82.4" y="233.3">e</text>
    <text x="92" y="63.3">n</text>
    <text x="92" y="80.3">n</text>
    <text x="92" y="114.3">n</text>
    <text x="92" y="131.3">n</text>
    <text x="92" y="165.3">n</text>
    <text x="92" y="182.3">n</text>
    <text x="92" y="216.3">n</text>
    <text x="92" y="233.3">n</text>
    <text x="101.6" y="63.3">:</text>
    <text x="101.6" y="80.3">:</text>
    <text x="101.6" y="114.3">:</text>
    <text x="101.6" y="131.3">:</text>
    <text x="101.6" y="165.3">:</text>
    <text x="101.6" y="182.3">:</text>
    <text x="101.6" y="216.3">:</text>
    <text x="101.6" y="233.3">:</text>
    <text x="120.8" y="63.3">t</text>
    <text x="120.8" y="80.3">b</text>
    <text x="120.8" y="114.3">a</text>
    <text x="120.8" y="131.3">r</text>
    <text x="120.8" y="165.3">t</text>
    <text x="120.8" y="182.3">r</text>
    <text x="120.8" y="216.3">a</text>
    <text x="120.8" y="233.3">t</text>
    <text x="130.4" y="63.3">a</text>
    <text x="130.4" y="80.3">r</text>
    <text x="130.4" y="114.3">g</text>
    <text x="130.4" y="131.3">e</text>
    <text x="130.4" y="165.3">a</text>
    <text x="130.4" y="182.3">e</text>
    <text x="130.4" y="216.3">g</text>
    <text x="130.4" y="233.3">r</text>
    <text x="140" y="63.3">s</text>
    <text x="140" y="80.3">o</text>
    <text x="140" y="114.3">e</text>
    <text x="140" y="131.3">m</text>
    <text x="140" y="165.3">s</text>
    <text x="140" y="182.3">a</text>
    <text x="140" y="216.3">e</text>
    <text x="140" y="233.3">i</text>
    <text x="149.6" y="63.3">k</text>
    <text x="149.6" y="80.3">a</text>
    <text x="149.6" y="114.3">n</text>
    <text x="149.6" y="131.3">o</text>
    <text x="149.6" y="165.3">k</text>
    <text x="149.6" y="182.3">s</text>
    <text x="149.6" y="216.3">n</text>
    <text x="149.6" y="233.3">g</text>
    <text x="159.2" y="63.3">_</text>
    <text x="159.2" y="80.3">d</text>
    <text x="159.2" y="114.3">t</text>
    <text x="159.2" y="131.3">v</text>
    <text x="159.2" y="165.3">_</text>
    <text x="159.2" y="182.3">s</text>
    <text x="159.2" y="216.3">t</text>
    <text x="159.2" y="233.3">g</text>
    <text x="168.8" y="63.3">a</text>
    <text x="168.8" y="80.3">c</text>
    <text x="168.8" y="114.3">_</text>
    <text x="168.8" y="131.3">e</text>
    <text x="168.8" y="165.3">t</text>
    <text x="168.8" y="182.3">i</text>
    <text x="168.8" y="216.3">_</text>
    <text x="168.8" y="233.3">e</text>
    <text x="178.4" y="63.3">r</text>
    <text x="178.4" y="80.3">a</text>
    <text x="178.4" y="114.3">c</text>
    <text x="178.4" y="131.3">_</text>
    <text x="178.4" y="165.3">i</text>
    <text x="178.4" y="182.3">g</text>
    <text x="178.4" y="216.3">o</text>
    <text x="178.4" y="233.3">r</text>
    <text x="188" y="63.3">r</text>
    <text x="188" y="80.3">s</text>
    <text x="188" y="114.3">l</text>
    <text x="188" y="131.3">f</text>
    <text x="188" y="165.3">m</text>
    <text x="188" y="182.3">n</text>
    <text x="188" y="216.3">v</text>
    <text x="188" y="233.3">_</text>
    <text x="197.6" y="63.3">i</text>
    <text x="197.6" y="80.3">t</text>
    <text x="197.6" y="114.3">a</text>
    <text x="197.6" y="131.3">r</text>
    <text x="197.6" y="165.3">e</text>
    <text x="197.6" y="182.3">_</text>
    <text x="197.6" y="216.3">e</text>
    <text x="197.6" y="233.3">l</text>
    <text x="207.2" y="63.3">v</text>
    <text x="207.2" y="80.3">_</text>
    <text x="207.2" y="114.3">i</text>
    <text x="207.2" y="131.3">o</text>
    <text x="207.2" y="165.3">o</text>
    <text x="207.2" y="182.3">w</text>
    <text x="207.2" y="216.3">r</text>
    <text x="207.2" y="233.3">o</text>
    <text x="216.8" y="63.3">e</text>
    <text x="216.8" y="80.3">t</text>
    <text x="216.8" y="114.3">m</text>
    <text x="216.8" y="131.3">m</text>
    <text x="216.8" y="165.3">u</text>
    <text x="216.8" y="182.3">i</text>
    <text x="216.8" y="216.3">l</text>
    <text x="216.8" y="233.3">a</text>
    <text x="226.4" y="63.3">s</text>
    <text x="226.4" y="80.3">o</text>
    <text x="226.4" y="114.3">s</text>
    <text x="226.4" y="131.3">_</text>
    <text x="226.4" y="165.3">t</text>
    <text x="226.4" y="182.3">t</text>
    <text x="226.4" y="216.3">o</text>
    <text x="226.4" y="233.3">d</text>
    <text x="236" y="80.3">_</text>
    <text x="236" y="114.3">_</text>
    <text x="236" y="131.3">p</text>
    <text x="236" y="182.3">h</text>
    <text x="236" y="216.3">a</text>
    <text x="236" y="233.3">_</text>
    <text x="245.6" y="80.3">a</text>
    <text x="245.6" y="114.3">t</text>
    <text x="245.6" y="131.3">o</text>
    <text x="245.6" y="182.3">_</text>
    <text x="245.6" y="216.3">d</text>
    <text x="245.6" y="233.3">b</text>
    <text x="255.2" y="80.3">l</text>
    <text x="255.2" y="114.3">a</text>
    <text x="255.2" y="131.3">o</text>
    <text x="255.2" y="182.3">p</text>
    <text x="255.2" y="216.3">e</text>
    <text x="255.2" y="233.3">a</text>
    <text x="264.8" y="80.3">l</text>
    <text x="264.8" y="114.3">s</text>
    <text x="264.8" y="131.3">l</text>
    <text x="264.8" y="182.3">r</text>
    <text x="264.8" y="216.3">d</text>
    <text x="264.8" y="233.3">l</text>
    <text x="274.4" y="80.3">_</text>
    <text x="274.4" y="114.3">k</text>
    <text x="274.4" y="182.3">i</text>
    <text x="274.4" y="233.3">a</text>
    <text x="284" y="80.3">a</text>
    <text x="284" y="182.3">o</text>
    <text x="284" y="233.3">n</text>
    <text x="293.6" y="80.3">g</text>
    <text x="293.6" y="182.3">r</text>
    <text x="293.6" y="233.3">c</text>
    <text x="303.2" y="80.3">e</text>
    <text x="303.2" y="182.3">i</text>
    <text x="303.2" y="233.3">i</text>
    <text x="312.8" y="80.3">n</text>
    <text x="312.8" y="182.3">t</text>
    <text x="312.8" y="233.3">n</text>
    <text x="322.4" y="80.3">t</text>
    <text x="322.4" y="182.3">y</text>
    <text x="322.4" y="233.3">g</text>
    <text x="332" y="80.3">s</text>
  </g>
</svg>
