<svg xmlns="http://www.w3.org/2000/svg" viewBox="0 0 501 290"><defs><style>text{font-family:&quot;SF Mono&quot;,&quot;Menlo&quot;,&quot;Monaco&quot;,&quot;Courier New&quot;,monospace}</style></defs><path fill="#faf9f5" d="M0 0h501v290H0z"/><rect width="493" height="282" x="4" y="4" fill="none" stroke="#d1cfc5" rx="4"/><path fill="none" stroke="#141413" stroke-width="1.5" d="M30.5 29.2H20v9.3"/><path stroke="#141413" stroke-width="1.5" d="M30.5 29.2H41m0 0h10.5m0 0H62m0 0h10.5m0 0H83m0 0h10.5m0 0H104m0 0h10.5m0 0H125m0 0h10.5m0 0H146m0 0h10.5m0 0H167m0 0h10.5m0 0H188m0 0h10.5m0 0H209m0 0h10.5m0 0H230m0 0h10.5m0 0H251m0 0h10.5m0 0H272m0 0h10.5m0 0H293m0 0h10.5m0 0H314m0 0h10.5m0 0H335m0 0h10.5m0 0H356m0 0h10.5m0 0H377m0 0h10.5m0 0H398m0 0h10.5m0 0H419m0 0h10.5m0 0H440m0 0h10.5m0 0H461"/><path fill="none" stroke="#141413" stroke-width="1.5" d="M461 29.2h10.5v9.3"/><path stroke="#141413" stroke-width="1.5" d="M24.8 38.5V57"/><text x="126" y="52" fill="#141413" font-family="monospace" font-size="12">D</text><text x="136.5" y="52" fill="#141413" font-family="monospace" font-size="12">o</text><text x="147" y="52" fill="#141413" font-family="monospace" font-size="12">m</text><text x="157.5" y="52" fill="#141413" font-family="monospace" font-size="12">a</text><text x="168" y="52" fill="#141413" font-family="monospace" font-size="12">i</text><text x="178.5" y="52" fill="#141413" font-family="monospace" font-size="12">n</text><text x="199.5" y="52" fill="#141413" font-family="monospace" font-size="12">A</text><text x="210" y="52" fill="#141413" font-family="monospace" font-size="12">g</text><text x="220.5" y="52" fill="#141413" font-family="monospace" font-size="12">e</text><text x="231" y="52" fill="#141413" font-family="monospace" font-size="12">n</text><text x="241.5" y="52" fill="#141413" font-family="monospace" font-size="12">t</text><text x="262.5" y="52" fill="#141413" font-family="monospace" font-size="12">C</text><text x="273" y="52" fill="#141413" font-family="monospace" font-size="12">l</text><text x="283.5" y="52" fill="#141413" font-family="monospace" font-size="12">u</text><text x="294" y="52" fill="#141413" font-family="monospace" font-size="12">s</text><text x="304.5" y="52" fill="#141413" font-family="monospace" font-size="12">t</text><text x="315" y="52" fill="#141413" font-family="monospace" font-size="12">e</text><text x="325.5" y="52" fill="#141413" font-family="monospace" font-size="12">r</text><path stroke="#141413" stroke-width="1.5" d="M465.8 38.5V57m-441 0v18.5"/><path fill="none" stroke="#141413" stroke-width="1.5" d="M62 66.2H51.5v9.3"/><path stroke="#141413" stroke-width="1.5" d="M62 66.2h10.5m0 0H83m0 0h10.5m0 0H104m0 0h10.5m0 0H125m0 0h10.5m0 0H146m0 0h10.5m0 0H167m-5.2 0V57m5.2 9.2h10.5m0 0H188m0 0h10.5m0 0H209m0 0h10.5m0 0H230m0 0h10.5m0 0H251m0 0h10.5m0 0H272m-5.2 0V57m5.2 9.2h10.5m0 0H293m0 0h10.5m0 0H314m0 0h10.5m0 0H335m0 0h10.5m0 0H356m0 0h10.5"/><path fill="none" stroke="#141413" stroke-width="1.5" d="M366.5 66.2H377v9.3"/><path stroke="#141413" stroke-width="1.5" d="M455.2 57v18.5m-430.4 0V94m31.4-18.5V94"/><text x="73.5" y="89" fill="#141413" font-family="monospace" font-size="12">A</text><text x="84" y="89" fill="#141413" font-family="monospace" font-size="12">g</text><text x="94.5" y="89" fill="#141413" font-family="monospace" font-size="12">e</text><text x="105" y="89" fill="#141413" font-family="monospace" font-size="12">n</text><text x="115.5" y="89" fill="#141413" font-family="monospace" font-size="12">t</text><text x="136.5" y="89" fill="#141413" font-family="monospace" font-size="12">A</text><path stroke="#141413" stroke-width="1.5" d="M161.2 75.5V94"/><text x="178.5" y="89" fill="#141413" font-family="monospace" font-size="12">A</text><text x="189" y="89" fill="#141413" font-family="monospace" font-size="12">g</text><text x="199.5" y="89" fill="#141413" font-family="monospace" font-size="12">e</text><text x="210" y="89" fill="#141413" font-family="monospace" font-size="12">n</text><text x="220.5" y="89" fill="#141413" font-family="monospace" font-size="12">t</text><text x="241.5" y="89" fill="#141413" font-family="monospace" font-size="12">B</text><path stroke="#141413" stroke-width="1.5" d="M266.2 75.5V94"/><text x="283.5" y="89" fill="#141413" font-family="monospace" font-size="12">A</text><text x="294" y="89" fill="#141413" font-family="monospace" font-size="12">g</text><text x="304.5" y="89" fill="#141413" font-family="monospace" font-size="12">e</text><text x="315" y="89" fill="#141413" font-family="monospace" font-size="12">n</text><text x="325.5" y="89" fill="#141413" font-family="monospace" font-size="12">t</text><text x="346.5" y="89" fill="#141413" font-family="monospace" font-size="12">C</text><path stroke="#141413" stroke-width="1.5" d="M371.2 75.5V94m84-18.5V94M24.8 94v18.5M56.2 94v18.5"/><text x="63" y="107.5" fill="#141413" font-family="monospace" font-size="12">(</text><text x="73.5" y="107.5" fill="#141413" font-family="monospace" font-size="12">F</text><text x="84" y="107.5" fill="#141413" font-family="monospace" font-size="12">e</text><text x="94.5" y="107.5" fill="#141413" font-family="monospace" font-size="12">a</text><text x="105" y="107.5" fill="#141413" font-family="monospace" font-size="12">t</text><text x="115.5" y="107.5" fill="#141413" font-family="monospace" font-size="12">u</text><text x="126" y="107.5" fill="#141413" font-family="monospace" font-size="12">r</text><text x="136.5" y="107.5" fill="#141413" font-family="monospace" font-size="12">e</text><text x="147" y="107.5" fill="#141413" font-family="monospace" font-size="12">)</text><path stroke="#141413" stroke-width="1.5" d="M161.2 94v18.5"/><text x="168" y="107.5" fill="#141413" font-family="monospace" font-size="12">(</text><text x="178.5" y="107.5" fill="#141413" font-family="monospace" font-size="12">F</text><text x="189" y="107.5" fill="#141413" font-family="monospace" font-size="12">e</text><text x="199.5" y="107.5" fill="#141413" font-family="monospace" font-size="12">a</text><text x="210" y="107.5" fill="#141413" font-family="monospace" font-size="12">t</text><text x="220.5" y="107.5" fill="#141413" font-family="monospace" font-size="12">u</text><text x="231" y="107.5" fill="#141413" font-family="monospace" font-size="12">r</text><text x="241.5" y="107.5" fill="#141413" font-family="monospace" font-size="12">e</text><text x="252" y="107.5" fill="#141413" font-family="monospace" font-size="12">)</text><path stroke="#141413" stroke-width="1.5" d="M266.2 94v18.5"/><text x="273" y="107.5" fill="#141413" font-family="monospace" font-size="12">(</text><text x="283.5" y="107.5" fill="#141413" font-family="monospace" font-size="12">F</text><text x="294" y="107.5" fill="#141413" font-family="monospace" font-size="12">e</text><text x="304.5" y="107.5" fill="#141413" font-family="monospace" font-size="12">a</text><text x="315" y="107.5" fill="#141413" font-family="monospace" font-size="12">t</text><text x="325.5" y="107.5" fill="#141413" font-family="monospace" font-size="12">u</text><text x="336" y="107.5" fill="#141413" font-family="monospace" font-size="12">r</text><text x="346.5" y="107.5" fill="#141413" font-family="monospace" font-size="12">e</text><text x="357" y="107.5" fill="#141413" font-family="monospace" font-size="12">)</text><path stroke="#141413" stroke-width="1.5" d="M371.2 94v18.5m84-18.5v18.5m-430.4 0V131"/><path fill="none" stroke="#141413" stroke-width="1.5" d="M62 112.5H51.5v9.3"/><path stroke="#141413" stroke-width="1.5" d="M62 121.8h10.5m0 0H83m0 0h10.5m0 0H104m0 0h10.5m0 0H125m0 0h10.5m0 0H146m0 0h10.5m0 0H167m-5.2 0v9.2m5.2-9.2h10.5m0 0H188m0 0h10.5m0 0H209m0 0h10.5m0 0H230m0 0h10.5m0 0H251m0 0h10.5m0 0H272m-5.2 0v9.2m5.2-9.2h10.5m0 0H293m0 0h10.5m0 0H314m0 0h10.5m0 0H335m0 0h10.5m0 0H356m0 0h10.5"/><path fill="none" stroke="#141413" stroke-width="1.5" d="M366.5 112.5H377v9.3"/><path stroke="#141413" stroke-width="1.5" d="M455.2 112.5V131m-430.4 0v18.5"/><text x="126" y="144.5" fill="#141413" font-family="monospace" font-size="12">↓</text><text x="147" y="144.5" fill="#141413" font-family="monospace" font-size="12">共</text><text x="157.5" y="144.5" fill="#141413" font-family="monospace" font-size="12">享</text><text x="168" y="144.5" fill="#141413" font-family="monospace" font-size="12">领</text><text x="178.5" y="144.5" fill="#141413" font-family="monospace" font-size="12">域</text><text x="189" y="144.5" fill="#141413" font-family="monospace" font-size="12">知</text><text x="199.5" y="144.5" fill="#141413" font-family="monospace" font-size="12">识</text><path stroke="#141413" stroke-width="1.5" d="M413.2 131v18.5m-388.4 0V168"/><path fill="none" stroke="#141413" stroke-width="1.5" d="M83 158.8H72.5v9.2"/><path stroke="#141413" stroke-width="1.5" d="M83 158.8h10.5m0 0H104m0 0h10.5m0 0H125m0 0h10.5m0 0H146m0 0h10.5m0 0H167m0 0h10.5m0 0H188m0 0h10.5m0 0H209m0 0h10.5"/><path fill="none" stroke="#141413" stroke-width="1.5" d="M219.5 158.8H230v9.2"/><path stroke="#141413" stroke-width="1.5" d="M455.2 149.5V168m-430.4 0v18.5M77.2 168v18.5"/><text x="94.5" y="181.5" fill="#141413" font-family="monospace" font-size="12">S</text><text x="105" y="181.5" fill="#141413" font-family="monospace" font-size="12">h</text><text x="115.5" y="181.5" fill="#141413" font-family="monospace" font-size="12">a</text><text x="126" y="181.5" fill="#141413" font-family="monospace" font-size="12">r</text><text x="136.5" y="181.5" fill="#141413" font-family="monospace" font-size="12">e</text><text x="147" y="181.5" fill="#141413" font-family="monospace" font-size="12">d</text><path stroke="#141413" stroke-width="1.5" d="M224.2 168v18.5m231-18.5v18.5m-430.4 0V205m52.4-18.5V205"/><text x="94.5" y="200" fill="#141413" font-family="monospace" font-size="12">K</text><text x="105" y="200" fill="#141413" font-family="monospace" font-size="12">n</text><text x="115.5" y="200" fill="#141413" font-family="monospace" font-size="12">o</text><text x="126" y="200" fill="#141413" font-family="monospace" font-size="12">w</text><text x="136.5" y="200" fill="#141413" font-family="monospace" font-size="12">l</text><text x="147" y="200" fill="#141413" font-family="monospace" font-size="12">e</text><text x="157.5" y="200" fill="#141413" font-family="monospace" font-size="12">d</text><text x="168" y="200" fill="#141413" font-family="monospace" font-size="12">g</text><text x="178.5" y="200" fill="#141413" font-family="monospace" font-size="12">e</text><path stroke="#141413" stroke-width="1.5" d="M224.2 186.5V205m231-18.5V205m-430.4 0v18.5M77.2 205v18.5"/><text x="94.5" y="218.5" fill="#141413" font-family="monospace" font-size="12">B</text><text x="105" y="218.5" fill="#141413" font-family="monospace" font-size="12">a</text><text x="115.5" y="218.5" fill="#141413" font-family="monospace" font-size="12">s</text><text x="126" y="218.5" fill="#141413" font-family="monospace" font-size="12">e</text><path stroke="#141413" stroke-width="1.5" d="M224.2 205v18.5m231-18.5v18.5m-430.4 0V242"/><path fill="none" stroke="#141413" stroke-width="1.5" d="M83 223.5H72.5v9.3"/><path stroke="#141413" stroke-width="1.5" d="M83 232.8h10.5m0 0H104m0 0h10.5m0 0H125m0 0h10.5m0 0H146m0 0h10.5m0 0H167m0 0h10.5m0 0H188m0 0h10.5m0 0H209m0 0h10.5"/><path fill="none" stroke="#141413" stroke-width="1.5" d="M219.5 223.5H230v9.3"/><path stroke="#141413" stroke-width="1.5" d="M455.2 223.5V242"/><path fill="none" stroke="#141413" stroke-width="1.5" d="M30.5 242H20v9.2"/><path stroke="#141413" stroke-width="1.5" d="M30.5 251.2H41m0 0h10.5m0 0H62m0 0h10.5m0 0H83m0 0h10.5m0 0H104m0 0h10.5m0 0H125m0 0h10.5m0 0H146m0 0h10.5m0 0H167m0 0h10.5m0 0H188m0 0h10.5m0 0H209m0 0h10.5m0 0H230m0 0h10.5m0 0H251m0 0h10.5m0 0H272m0 0h10.5m0 0H293m0 0h10.5m0 0H314m0 0h10.5m0 0H335m0 0h10.5m0 0H356m0 0h10.5m0 0H377m0 0h10.5m0 0H398m0 0h10.5m0 0H419m0 0h10.5m0 0H440m0 0h10.5m0 0H461"/><path fill="none" stroke="#141413" stroke-width="1.5" d="M461 242h10.5v9.2"/></svg>