<svg xmlns="http://www.w3.org/2000/svg" viewBox="0 0 640 640">
  <defs>
    <style>
      .border,.sep{stroke:#d1cfc5}.border{stroke-width:1.5;fill:none}.sep{stroke-width:1}.title-bg{fill:#141413}.bullet-text{fill:#87867f;font-family:&quot;SF Mono&quot;,&quot;Fira Code&quot;,&quot;Menlo&quot;,monospace;font-size:11px}.bullet-dot{fill:#d97757}.accent-text,.layer-count{fill:#d97757;font-family:&quot;SF Mono&quot;,&quot;Fira Code&quot;,&quot;Menlo&quot;,monospace;font-size:12px;font-weight:600}.layer-count{fill:#788c5d;font-size:10px}
    </style>
  </defs>
  <path d="M0 0h640v640H0z" style="fill:#faf9f5"/>
  <rect width="580" height="580" x="30" y="30" stroke-width="2" class="border" rx="6"/>
  <rect width="580" height="46" x="30" y="30" class="title-bg" rx="6"/>
  <path d="M30 56h580v20H30z" class="title-bg"/>
  <text x="320" y="59" style="fill:#faf9f5;font-family:&quot;SF Mono&quot;,&quot;Fira Code&quot;,&quot;Menlo&quot;,monospace;font-size:13px;font-weight:600" text-anchor="middle">Wayfair AI Data Pipeline</text>
  <path d="M30 76h580" class="sep"/>
  <path fill="#faf9f5" d="M30 76h580v98H30z"/>
  <path d="M30 76h580v98H30z" class="border"/>
  <text x="48" y="98" class="accent-text">Ingestion Layer</text>
  <text x="558" y="98" class="layer-count" text-anchor="end">01</text>
  <circle cx="56" cy="114" r="2.5" class="bullet-dot"/>
  <text x="68" y="118" class="bullet-text">供应商数据接入</text>
  <circle cx="56" cy="134" r="2.5" class="bullet-dot"/>
  <text x="68" y="138" class="bullet-text">变更检测</text>
  <circle cx="56" cy="154" r="2.5" class="bullet-dot"/>
  <text x="68" y="158" class="bullet-text">优先级队列</text>
  <path d="M30 174h580" class="sep"/>
  <path fill="#faf9f5" d="M30 174h580v98H30z"/>
  <path d="M30 174h580v98H30z" class="border"/>
  <text x="48" y="196" class="accent-text">Preprocessing Layer</text>
  <text x="558" y="196" class="layer-count" text-anchor="end">02</text>
  <circle cx="56" cy="212" r="2.5" class="bullet-dot"/>
  <text x="68" y="216" class="bullet-text">数据清洗</text>
  <circle cx="56" cy="232" r="2.5" class="bullet-dot"/>
  <text x="68" y="236" class="bullet-text">格式标准化</text>
  <circle cx="56" cy="252" r="2.5" class="bullet-dot"/>
  <text x="68" y="256" class="bullet-text">去重与合并</text>
  <path d="M30 272h580" class="sep"/>
  <path fill="#faf9f5" d="M30 272h580v98H30z"/>
  <path d="M30 272h580v98H30z" class="border"/>
  <text x="48" y="294" class="accent-text">AI Enhancement Layer</text>
  <text x="558" y="294" class="layer-count" text-anchor="end">03</text>
  <circle cx="56" cy="310" r="2.5" class="bullet-dot"/>
  <text x="68" y="314" class="bullet-text">批量 LLM 调用</text>
  <circle cx="56" cy="330" r="2.5" class="bullet-dot"/>
  <text x="68" y="334" class="bullet-text">结果解析</text>
  <circle cx="56" cy="350" r="2.5" class="bullet-dot"/>
  <text x="68" y="354" class="bullet-text">后处理</text>
  <path d="M30 370h580" class="sep"/>
  <path fill="#faf9f5" d="M30 370h580v98H30z"/>
  <path d="M30 370h580v98H30z" class="border"/>
  <text x="48" y="392" class="accent-text">Quality Control Layer</text>
  <text x="558" y="392" class="layer-count" text-anchor="end">04</text>
  <circle cx="56" cy="408" r="2.5" class="bullet-dot"/>
  <text x="68" y="412" class="bullet-text">自动化验证</text>
  <circle cx="56" cy="428" r="2.5" class="bullet-dot"/>
  <text x="68" y="432" class="bullet-text">一致性检查</text>
  <circle cx="56" cy="448" r="2.5" class="bullet-dot"/>
  <text x="68" y="452" class="bullet-text">人工审核队列</text>
  <path d="M30 468h580" class="sep"/>
  <path fill="#faf9f5" d="M30 468h580v98H30z"/>
  <rect width="580" height="98" x="30" y="468" class="border" rx="6"/>
  <text x="48" y="490" class="accent-text">Deployment Layer</text>
  <text x="558" y="490" class="layer-count" text-anchor="end">05</text>
  <circle cx="56" cy="506" r="2.5" class="bullet-dot"/>
  <text x="68" y="510" class="bullet-text">数据发布</text>
  <circle cx="56" cy="526" r="2.5" class="bullet-dot"/>
  <text x="68" y="530" class="bullet-text">缓存更新</text>
  <circle cx="56" cy="546" r="2.5" class="bullet-dot"/>
  <text x="68" y="550" class="bullet-text">监控告警</text>
  <rect width="580" height="50" x="30" y="560" fill="#faf9f5" rx="0"/>
  <path d="M30 566h580" class="sep"/>
</svg>
