<svg xmlns="http://www.w3.org/2000/svg" font-family="ui-serif, Georgia, serif" viewBox="0 0 640 220">
  <path fill="#faf9f5" d="M0 0h640v220H0z"/>
  <text x="320" y="18" fill="#141413" font-size="13" font-weight="500" letter-spacing="-.02em" text-anchor="middle">Carlini 发现的三个 Harness 限制</text>
  <text x="320" y="34" fill="#87867f" font-family="ui-monospace, monospace" font-size="9.5" text-anchor="middle">Nicholas Carlini · 2026/03/15 · postcodeengineering.com</text>
  <rect width="186" height="150" x="20" y="50" fill="#fff" stroke="#d97757" stroke-width="1.8" rx="8"/>
  <rect width="186" height="28" x="20" y="50" fill="#fef3c7" stroke="#d97757" stroke-width="1.5" rx="8"/>
  <text x="113" y="68" fill="#d97757" font-family="ui-monospace, monospace" font-size="10" font-weight="600" text-anchor="middle">限制 1</text>
  <text x="113" y="96" fill="#141413" font-size="12" font-weight="600" text-anchor="middle">上下文窗口污染</text>
  <text x="113" y="114" fill="#87867f" font-size="9.5" text-anchor="middle">测试输出挤占</text>
  <text x="113" y="128" fill="#87867f" font-size="9.5" text-anchor="middle">Agent 思考空间</text>
  <rect width="166" height="52" x="30" y="138" fill="#f0eee6" stroke="#d1cfc5" rx="4"/>
  <text x="38" y="152" fill="#87867f" font-family="ui-monospace, monospace" font-size="8">Agent: 5000行测试输出...</text>
  <text x="38" y="163" fill="#d97757" font-family="ui-monospace, monospace" font-size="8">Agent: context window full</text>
  <text x="38" y="174" fill="#d97757" font-family="ui-monospace, monospace" font-size="8">Agent: 任务是什么来着？</text>
  <text x="113" y="190" fill="#d97757" font-family="ui-monospace, monospace" font-size="8.5" text-anchor="middle">→ SUMMARY: N/M passed</text>
  <rect width="186" height="150" x="226" y="50" fill="#fff" stroke="#ea580c" stroke-width="1.5" rx="8"/>
  <rect width="186" height="28" x="226" y="50" fill="#fed7aa" stroke="#ea580c" stroke-width="1.5" rx="8"/>
  <text x="319" y="68" fill="#ea580c" font-family="ui-monospace, monospace" font-size="10" font-weight="600" text-anchor="middle">限制 2</text>
  <text x="319" y="96" fill="#141413" font-size="12" font-weight="600" text-anchor="middle">时间盲症</text>
  <text x="319" y="114" fill="#87867f" font-size="9.5" text-anchor="middle">无法理解时间流逝</text>
  <text x="319" y="128" fill="#87867f" font-size="9.5" text-anchor="middle">无法推理因果顺序</text>
  <path stroke="#d1cfc5" stroke-width="1.5" d="M240 155h160"/>
  <rect width="20" height="16" x="248" y="147" fill="#ea580c" opacity=".4" rx="3"/>
  <rect width="20" height="16" x="280" y="147" fill="#ea580c" opacity=".4" rx="3"/>
  <rect width="20" height="16" x="312" y="147" fill="#ea580c" opacity=".4" rx="3"/>
  <rect width="20" height="16" x="344" y="147" fill="#ea580c" opacity=".4" rx="3"/>
  <rect width="20" height="16" x="376" y="147" fill="#ea580c" opacity=".4" rx="3"/>
  <text x="248" y="176" fill="#87867f" font-family="ui-monospace, monospace" font-size="8">t=0</text>
  <text x="376" y="176" fill="#87867f" font-family="ui-monospace, monospace" font-size="8">t=n</text>
  <text x="319" y="188" fill="#ea580c" font-family="ui-monospace, monospace" font-size="8.5" text-anchor="middle">因果链推理失效</text>
  <rect width="188" height="150" x="432" y="50" fill="#fff" stroke="#2563eb" stroke-width="1.5" rx="8"/>
  <rect width="188" height="28" x="432" y="50" fill="#dbeafe" stroke="#2563eb" stroke-width="1.5" rx="8"/>
  <text x="526" y="68" fill="#2563eb" font-family="ui-monospace, monospace" font-size="10" font-weight="600" text-anchor="middle">限制 3</text>
  <text x="526" y="96" fill="#141413" font-size="12" font-weight="600" text-anchor="middle">自我毁灭</text>
  <text x="526" y="114" fill="#87867f" font-size="9.5" text-anchor="middle">修复过程本身</text>
  <text x="526" y="128" fill="#87867f" font-size="9.5" text-anchor="middle">破坏待修复的问题</text>
  <path fill="none" stroke="#2563eb" stroke-width="1.5" d="M460 162q30-21 60 0t60 0"/>
  <path fill="#2563eb" d="m580 162-6-6v12z"/>
  <text x="526" y="186" fill="#2563eb" font-family="ui-monospace, monospace" font-size="8.5" text-anchor="middle">修复 → 新 bug → 再修</text>
  <text x="320" y="210" fill="#87867f" font-size="9" font-style="italic" text-anchor="middle">这三个限制不是 Harness 设计的失败，而是 LLM 作为测试执行者的根本性约束</text>
</svg>
