<svg xmlns="http://www.w3.org/2000/svg" font-family="ui-serif, Georgia, serif" viewBox="0 0 680 420">
  <path fill="#faf9f5" d="M0 0h680v420H0z"/>
  <text x="340" y="26" fill="#141413" font-size="14" font-weight="500" letter-spacing="-.02em" text-anchor="middle">分层防御架构：四层安全防线</text>
  <text x="340" y="42" fill="#87867f" font-family="ui-monospace, monospace" font-size="10" text-anchor="middle">OpenAI Agent 安全设计 · 2026/03/17</text>
  <rect width="600" height="68" x="40" y="58" fill="#fff" stroke="#d97757" stroke-width="1.8" rx="8"/>
  <text x="60" y="82" fill="#d97757" font-family="ui-monospace, monospace" font-size="12" font-weight="600">Layer 4</text>
  <text x="60" y="102" fill="#141413" font-size="14">输出层（Output Layer）</text>
  <text x="230" y="102" fill="#87867f" font-size="12">审计审查</text>
  <text x="60" y="118" fill="#87867f" font-size="10.5">日志记录 · 异常检测 · 响应过滤</text>
  <rect width="52" height="22" x="570" y="72" fill="#d97757" rx="11"/>
  <text x="596" y="87" fill="#fff" font-family="ui-monospace, monospace" font-size="9" text-anchor="middle">最后防线</text>
  <path stroke="#d1cfc5" stroke-width="2" d="M340 126v14"/>
  <path fill="#d1cfc5" d="m340 144-4-8h8z"/>
  <rect width="600" height="68" x="40" y="152" fill="#fff" stroke="#d1cfc5" stroke-width="1.8" rx="8"/>
  <text x="60" y="176" fill="#d97757" font-family="ui-monospace, monospace" font-size="12" font-weight="600">Layer 3</text>
  <text x="60" y="196" fill="#141413" font-size="14">数据层（Data Layer）</text>
  <text x="230" y="196" fill="#87867f" font-size="12">数据分类</text>
  <text x="60" y="212" fill="#87867f" font-size="10.5">敏感信息识别 · 访问控制 · 数据脱敏</text>
  <rect width="52" height="22" x="570" y="166" fill="#788c5d" rx="11"/>
  <text x="596" y="181" fill="#fff" font-family="ui-monospace, monospace" font-size="9" text-anchor="middle">数据保护</text>
  <path stroke="#d1cfc5" stroke-width="2" d="M340 220v14"/>
  <path fill="#d1cfc5" d="m340 238-4-8h8z"/>
  <rect width="600" height="68" x="40" y="246" fill="#fff" stroke="#d1cfc5" stroke-width="1.8" rx="8"/>
  <text x="60" y="270" fill="#d97757" font-family="ui-monospace, monospace" font-size="12" font-weight="600">Layer 2</text>
  <text x="60" y="290" fill="#141413" font-size="14">行为层（Behavioral Layer）</text>
  <text x="240" y="290" fill="#87867f" font-size="12">操作约束</text>
  <text x="60" y="306" fill="#87867f" font-size="10.5">白名单机制 · 参数验证 · 敏感操作确认</text>
  <rect width="52" height="22" x="570" y="260" fill="#788c5d" rx="11"/>
  <text x="596" y="275" fill="#fff" font-family="ui-monospace, monospace" font-size="9" text-anchor="middle">操作约束</text>
  <path stroke="#d1cfc5" stroke-width="2" d="M340 314v14"/>
  <path fill="#d1cfc5" d="m340 332-4-8h8z"/>
  <rect width="600" height="68" x="40" y="340" fill="#fff" stroke="#d1cfc5" stroke-width="1.8" rx="8"/>
  <text x="60" y="364" fill="#d97757" font-family="ui-monospace, monospace" font-size="12" font-weight="600">Layer 1</text>
  <text x="60" y="384" fill="#141413" font-size="14">输入层（Input Layer）</text>
  <text x="220" y="384" fill="#87867f" font-size="12">指令隔离</text>
  <text x="60" y="400" fill="#87867f" font-size="10.5">语义分析 · 输入过滤 · 指令优先级</text>
  <rect width="52" height="22" x="570" y="354" fill="#f0eee6" stroke="#d1cfc5" rx="11"/>
  <text x="596" y="369" fill="#141413" font-family="ui-monospace, monospace" font-size="9" text-anchor="middle">第一道关</text>
  <path fill="none" stroke="#d97757" stroke-dasharray="5,3" stroke-width="2" d="M638 88c20 0 20 286 0 284" opacity=".5"/>
  <path fill="#d97757" d="m638 372-6-8h12z" opacity=".5"/>
  <text x="660" y="230" fill="#d97757" font-family="ui-monospace, monospace" font-size="9">反馈改进</text>
</svg>
