<svg xmlns="http://www.w3.org/2000/svg" font-family="ui-serif, Georgia, serif" viewBox="0 0 560 240">
  <path fill="#faf9f5" d="M0 0h560v240H0z"/>
  <text x="280" y="20" fill="#141413" font-size="13" font-weight="500" letter-spacing="-.02em" text-anchor="middle">知识管理：百科全书模式 vs 地图思维</text>
  <text x="280" y="36" fill="#87867f" font-family="ui-monospace, monospace" font-size="9.5" text-anchor="middle">postcodeengineering.com · 2026/03/15</text>
  <path stroke="#d97757" stroke-width="2" d="M195 120h150"/>
  <path fill="#d97757" d="m345 116-6 4 6 4z"/>
  <text x="270" y="114" fill="#d97757" font-family="ui-monospace, monospace" font-size="9" text-anchor="middle">范式转移</text>
  <text x="270" y="132" fill="#d97757" font-family="ui-monospace, monospace" font-size="9" text-anchor="middle">↓</text>
  <rect width="170" height="170" x="20" y="52" fill="#fff" stroke="#d97757" stroke-width="1.8" rx="8"/>
  <rect width="170" height="28" x="20" y="52" fill="#fef3c7" stroke="#d97757" stroke-width="1.5" rx="8"/>
  <text x="105" y="71" fill="#d97757" font-size="11" font-weight="600" text-anchor="middle">百科全书模式</text>
  <text x="105" y="88" fill="#87867f" font-size="9" text-anchor="middle">把所有知识堆在一起</text>
  <path stroke="#d1cfc5" stroke-dasharray="2,2" stroke-width=".5" d="M30 96h150"/>
  <text x="30" y="114" fill="#d97757" font-size="9" font-weight="600">罪1</text>
  <text x="50" y="114" fill="#141413" font-size="9.5">上下文拥挤</text>
  <text x="30" y="126" fill="#87867f" font-size="9">Agent 空间被挤压</text>
  <text x="30" y="144" fill="#d97757" font-size="9" font-weight="600">罪2</text>
  <text x="50" y="144" fill="#141413" font-size="9.5">无优先级</text>
  <text x="30" y="156" fill="#87867f" font-size="9">什么都重要=都不重要</text>
  <text x="30" y="174" fill="#d97757" font-size="9" font-weight="600">罪3</text>
  <text x="50" y="174" fill="#141413" font-size="9.5">文档腐烂</text>
  <text x="30" y="186" fill="#87867f" font-size="9">规则墓地·无维护</text>
  <text x="30" y="204" fill="#d97757" font-size="9" font-weight="600">罪4</text>
  <text x="50" y="204" fill="#141413" font-size="9.5">无法机械化验证</text>
  <text x="30" y="216" fill="#87867f" font-size="9">漂移不可避免</text>
  <rect width="170" height="170" x="370" y="52" fill="#fff" stroke="#059669" stroke-width="1.8" rx="8"/>
  <rect width="170" height="28" x="370" y="52" fill="#d1fae5" stroke="#059669" stroke-width="1.5" rx="8"/>
  <text x="455" y="71" fill="#059669" font-size="11" font-weight="600" text-anchor="middle">地图思维</text>
  <text x="455" y="88" fill="#87867f" font-size="9" text-anchor="middle">小入口 · 渐进披露</text>
  <path stroke="#d1cfc5" stroke-dasharray="2,2" stroke-width=".5" d="M380 96h150"/>
  <text x="380" y="114" fill="#059669" font-size="9" font-weight="600">✓</text>
  <text x="394" y="114" fill="#141413" font-size="9.5">小且稳定的入口</text>
  <text x="380" y="126" fill="#87867f" font-size="9">不一次性加载所有</text>
  <text x="380" y="144" fill="#059669" font-size="9" font-weight="600">✓</text>
  <text x="394" y="144" fill="#141413" font-size="9.5">渐进式披露</text>
  <text x="380" y="156" fill="#87867f" font-size="9">下一步去哪里看</text>
  <text x="380" y="174" fill="#059669" font-size="9" font-weight="600">✓</text>
  <text x="394" y="174" fill="#141413" font-size="9.5">机械化验证</text>
  <text x="380" y="186" fill="#87867f" font-size="9">覆盖率·新鲜度·归属</text>
  <text x="380" y="204" fill="#059669" font-size="9" font-weight="600">✓</text>
  <text x="394" y="204" fill="#141413" font-size="9.5">文档园丁 Agent</text>
  <text x="380" y="216" fill="#87867f" font-size="9">知识自我维护</text>
  <text x="280" y="234" fill="#87867f" font-size="9" font-style="italic" text-anchor="middle">&quot;把 AGENTS.md 当作地图，而不是百科全书&quot;</text>
</svg>
