<svg xmlns="http://www.w3.org/2000/svg" font-family="ui-serif, Georgia, serif" viewBox="0 0 680 320">
  <path fill="#faf9f5" d="M0 0h680v320H0z"/>
  <text x="340" y="26" fill="#141413" font-size="14" font-weight="500" letter-spacing="-.02em" text-anchor="middle">从文档驱动到上下文驱动的流程演变</text>
  <text x="340" y="42" fill="#87867f" font-family="ui-monospace, monospace" font-size="10" text-anchor="middle">AI-Native SDLC · 2026/03/11</text>
  <rect width="280" height="230" x="30" y="60" fill="#fff" stroke="#d1cfc5" stroke-width="1.5" rx="8"/>
  <text x="170" y="86" fill="#87867f" font-size="13" font-weight="600" text-anchor="middle">传统流程</text>
  <rect width="220" height="38" x="60" y="104" fill="#f5f3ee" stroke="#d1cfc5" stroke-width="1.2" rx="6"/>
  <text x="170" y="127" fill="#141413" font-size="12" text-anchor="middle">Design Doc</text>
  <text x="170" y="139" fill="#87867f" font-size="9.5" text-anchor="middle">自然语言描述</text>
  <path stroke="#d1cfc5" stroke-dasharray="5,3" stroke-width="1.5" d="M170 142v16"/>
  <path fill="#d1cfc5" d="m170 162-4-8h8z"/>
  <text x="170" y="175" fill="#87867f" font-family="ui-monospace, monospace" font-size="8.5" text-anchor="middle">人读/理解</text>
  <rect width="220" height="38" x="60" y="180" fill="#f5f3ee" stroke="#d1cfc5" stroke-width="1.2" rx="6"/>
  <text x="170" y="203" fill="#141413" font-size="12" text-anchor="middle">Developer</text>
  <text x="170" y="215" fill="#87867f" font-size="9.5" text-anchor="middle">重新理解文档</text>
  <path stroke="#d1cfc5" stroke-dasharray="5,3" stroke-width="1.5" d="M170 218v16"/>
  <path fill="#d1cfc5" d="m170 238-4-8h8z"/>
  <text x="170" y="251" fill="#87867f" font-family="ui-monospace, monospace" font-size="8.5" text-anchor="middle">信息损耗</text>
  <rect width="220" height="28" x="60" y="256" fill="#e3dacc" stroke="#d1cfc5" stroke-width="1.2" rx="6"/>
  <text x="170" y="275" fill="#141413" font-size="11" text-anchor="middle">Code（失真的）</text>
  <text x="285" y="275" fill="#d97757" font-family="ui-monospace, monospace" font-size="9" text-anchor="end">❌</text>
  <path stroke="#d1cfc5" stroke-dasharray="4,4" d="M340 80v200"/>
  <text x="340" y="75" fill="#87867f" font-family="ui-monospace, monospace" font-size="9" text-anchor="middle">→ 范式转移 →</text>
  <rect width="280" height="230" x="370" y="60" fill="#fff" stroke="#d97757" stroke-width="1.5" rx="8"/>
  <text x="510" y="86" fill="#d97757" font-size="13" font-weight="600" text-anchor="middle">AI-Native 流程</text>
  <rect width="240" height="24" x="390" y="104" fill="#fff" stroke="#d97757" stroke-width="1.2" rx="4"/>
  <text x="510" y="121" fill="#141413" font-size="10.5" text-anchor="middle">Intent（业务目标）</text>
  <rect width="240" height="24" x="390" y="131" fill="#fff" stroke="#788c5d" stroke-width="1.2" rx="4"/>
  <text x="510" y="148" fill="#141413" font-size="10.5" text-anchor="middle">Domain Model（领域模型）</text>
  <rect width="240" height="24" x="390" y="158" fill="#fff" stroke="#788c5d" stroke-width="1.2" rx="4"/>
  <text x="510" y="175" fill="#141413" font-size="10.5" text-anchor="middle">API Contract（契约）</text>
  <rect width="240" height="24" x="390" y="185" fill="#fff" stroke="#788c5d" stroke-width="1.2" rx="4"/>
  <text x="510" y="202" fill="#141413" font-size="10.5" text-anchor="middle">Behavior Spec（行为规格）</text>
  <rect width="240" height="24" x="390" y="212" fill="#fff" stroke="#788c5d" stroke-width="1.2" rx="4"/>
  <text x="510" y="229" fill="#141413" font-size="10.5" text-anchor="middle">Constraints + Eval Spec</text>
  <path stroke="#d97757" stroke-width="2" d="M510 236v16"/>
  <path fill="#d97757" d="m510 256-4-8h8z"/>
  <text x="510" y="269" fill="#d97757" font-family="ui-monospace, monospace" font-size="8.5" text-anchor="middle">AI 执行</text>
  <rect width="80" height="22" x="420" y="262" fill="#d97757" rx="4"/>
  <text x="460" y="277" fill="#fff" font-size="10" text-anchor="middle">Code</text>
  <rect width="80" height="22" x="520" y="262" fill="#788c5d" rx="4"/>
  <text x="560" y="277" fill="#fff" font-size="10" text-anchor="middle">Eval</text>
  <text x="645" y="275" fill="#788c5d" font-family="ui-monospace, monospace" font-size="9" text-anchor="end">✓</text>
</svg>
