<svg xmlns="http://www.w3.org/2000/svg" font-family="'JetBrains Mono', 'Fira Code', 'SF Mono', monospace" viewBox="0 0 800 380"><defs><style>.text-sm,.text-xs{fill:#87867f;font-size:11px}.text-xs{font-size:10px}.text-label{fill:#141413;font-size:12px;font-weight:600}.border{stroke:#d1cfc5;stroke-width:1.5}.fill-white{fill:#fff}</style></defs><path d="M0 0h800v380H0z" style="fill:#faf9f5"/><text x="400" y="30" font-weight="700" style="fill:#141413;font-size:13px" text-anchor="middle">AI-Native 部署三层智能化架构</text><rect width="680" height="90" x="60" y="60" rx="10" style="fill:#fef3c7;stroke:#d97757;stroke-width:2"/><text x="100" y="84" fill="#d97757" class="text-label">Layer 3</text><rect width="4" height="90" x="60" y="60" fill="#d97757" rx="2"/><text x="400" y="82" class="text-label" font-size="14" text-anchor="middle">智能回滚策略</text><text x="400" y="100" class="text-sm" text-anchor="middle">Intelligent Rollback — 何时回滚、如何回滚、影响评估</text><rect width="140" height="26" x="140" y="112" class="fill-white border" rx="5"/><text x="210" y="130" class="text-xs" text-anchor="middle">风险评分 &gt; 0.8 → 自动回滚</text><rect width="140" height="26" x="300" y="112" class="fill-white border" rx="5"/><text x="370" y="130" class="text-xs" text-anchor="middle">影响评估引擎</text><rect width="140" height="26" x="460" y="112" class="fill-white border" rx="5"/><text x="530" y="130" class="text-xs" text-anchor="middle">渐进/区域/全量回滚</text><rect width="100" height="26" x="620" y="112" class="fill-white border" rx="5"/><text x="670" y="130" class="text-xs" text-anchor="middle">MTTR 分钟级</text><path stroke-width="2" d="M400 150v18" class="border"/><path fill="#141413" d="m400 168-5-8h10z"/><rect width="680" height="90" x="60" y="168" rx="10" style="fill:#dbeafe;stroke:#2563eb;stroke-width:2"/><text x="100" y="192" fill="#2563eb" class="text-label">Layer 2</text><rect width="4" height="90" x="60" y="168" fill="#2563eb" rx="2"/><text x="400" y="190" class="text-label" font-size="14" text-anchor="middle">智能风险控制</text><text x="400" y="208" class="text-sm" text-anchor="middle">Intelligent Risk Control — 实时异常检测、动态流量调节、熔断机制</text><rect width="120" height="26" x="140" y="220" class="fill-white border" rx="5"/><text x="200" y="238" class="text-xs" text-anchor="middle">技术指标监控</text><rect width="120" height="26" x="280" y="220" class="fill-white border" rx="5"/><text x="340" y="238" class="text-xs" text-anchor="middle">业务指标监控</text><rect width="120" height="26" x="420" y="220" class="fill-white border" rx="5"/><text x="480" y="238" class="text-xs" text-anchor="middle">模型漂移检测</text><rect width="120" height="26" x="560" y="220" class="fill-white border" rx="5"/><text x="620" y="238" class="text-xs" text-anchor="middle">熔断 &amp; 限流</text><path stroke-width="2" d="M400 258v18" class="border"/><path fill="#141413" d="m400 276-5-8h10z"/><rect width="680" height="90" x="60" y="276" rx="10" style="fill:#d1fae5;stroke:#059669;stroke-width:2"/><text x="100" y="300" fill="#059669" class="text-label">Layer 1</text><rect width="4" height="90" x="60" y="276" fill="#059669" rx="2"/><text x="400" y="298" class="text-label" font-size="14" text-anchor="middle">智能部署决策</text><text x="400" y="316" class="text-sm" text-anchor="middle">Intelligent Deployment Decision — 部署时机、部署范围、资源分配</text><rect width="120" height="26" x="140" y="328" class="fill-white border" rx="5"/><text x="200" y="346" class="text-xs" text-anchor="middle">时机预测</text><rect width="120" height="26" x="280" y="328" class="fill-white border" rx="5"/><text x="340" y="346" class="text-xs" text-anchor="middle">范围优化</text><rect width="120" height="26" x="420" y="328" class="fill-white border" rx="5"/><text x="480" y="346" class="text-xs" text-anchor="middle">金丝雀策略</text><rect width="120" height="26" x="560" y="328" class="fill-white border" rx="5"/><text x="620" y="346" class="text-xs" text-anchor="middle">资源预热</text><rect width="680" height="26" x="60" y="54" fill="none" stroke="#d97757" stroke-dasharray="4 3" rx="4"/><rect width="680" height="26" x="60" y="162" fill="none" stroke="#2563eb" stroke-dasharray="4 3" rx="4"/><rect width="680" height="26" x="60" y="270" fill="none" stroke="#059669" stroke-dasharray="4 3" rx="4"/></svg>