<svg xmlns="http://www.w3.org/2000/svg" style="font-family:&quot;Courier New&quot;,Courier,monospace;background:#faf9f5" viewBox="0 0 635 274"><path fill="#faf9f5" d="M0 0h635v274H0z"/><text x="317.5" y="18" fill="#141413" font-size="12" font-weight="bold" text-anchor="middle">代码审查 Agent 架构</text><path stroke="#d1cfc5" stroke-linecap="round" stroke-width="1.5" d="M24.8 58.5h14.4m-14.4 0V84m0-17v34m0-8.5h14.4m-14.4 0V118m0-25.5V67m0 34v34m0-8.5h14.4m-14.4 0V152m0-25.5V101m0 34v34m0-8.5h14.4m-14.4 0V186m0-25.5V135m0 34v34m0-8.5h14.4m-14.4 0V220m0-25.5V169m0 34v34m0-8.5h14.4m-14.4 0V203m4.8-139.7h19.2m-19.2 34h19.2m-19.2 34h19.2m-19.2 34h19.2m-19.2 34h19.2m-19.2 34h19.2m-9.6-170h19.2m-19.2 34h19.2m-19.2 34h19.2m-19.2 34h19.2m-19.2 34h19.2m-19.2 34h19.2m-9.6-170H68m-19.2 34H68m-19.2 34H68m-19.2 34H68m-19.2 34H68m-19.2 34H68m-9.6-170h19.2m-19.2 34h19.2m-19.2 34h19.2m-19.2 34h19.2m-19.2 34h19.2m-19.2 34h19.2M68 63.3h19.2M68 97.3h19.2m-19.2 34h19.2m-19.2 34h19.2m-19.2 34h19.2m-19.2 34h19.2m-9.6-170h19.2m-19.2 34h19.2m-19.2 34h19.2m-19.2 34h19.2m-19.2 34h19.2m-19.2 34h19.2m-9.6-170h19.2m-19.2 34h19.2m-19.2 34h19.2m-19.2 34h19.2m-19.2 34h19.2m-19.2 34h19.2m-9.6-170H116m-19.2 34H116m-19.2 34H116m-19.2 34H116m-19.2 34H116m-19.2 34H116m-9.6-170h19.2m-19.2 34h19.2m-19.2 34h19.2m-19.2 34h19.2m-19.2 34h19.2m-19.2 34h19.2m-9.6-170h19.2m-19.2 34h19.2m-19.2 34h19.2m-19.2 34h19.2m-19.2 34h19.2m-19.2 34h19.2m-9.6-170h19.2m-19.2 34h19.2m-19.2 34h19.2m-19.2 34h19.2m-19.2 34h19.2m-19.2 34h19.2m-9.6-170h19.2m-19.2 34h19.2m-19.2 34h19.2m-19.2 34h19.2m-19.2 34h19.2m-19.2 34h19.2m-9.6-170H164m-19.2 34H164m-19.2 34H164m-19.2 34H164m-19.2 34H164m-19.2 34H164m-9.6-170h19.2m-19.2 34h19.2m-19.2 34h19.2m-19.2 34h19.2m-19.2 34h19.2m-19.2 34h19.2m-9.6-170h19.2m-19.2 34h19.2m-19.2 34h19.2m-19.2 34h19.2m-19.2 34h19.2m-19.2 34h19.2m-9.6-170h19.2m-19.2 34h19.2m-19.2 34h19.2m-19.2 34h19.2m-19.2 34h19.2m-19.2 34h19.2m-9.6-170h19.2m-19.2 34h19.2m-19.2 34h19.2m-19.2 34h19.2m-19.2 34h19.2m-19.2 34h19.2m-9.6-170H212m-19.2 34H212m-19.2 34H212m-19.2 34H212m-19.2 34H212m-19.2 34H212m-9.6-170h19.2m-19.2 34h19.2m-19.2 34h19.2m-19.2 34h19.2m-19.2 34h19.2m-19.2 34h19.2m-9.6-170h19.2m-19.2 34h19.2m-19.2 34h19.2m-19.2 34h19.2m-19.2 34h19.2m-19.2 34h19.2m-9.6-170h19.2m-19.2 34h19.2m-19.2 34h19.2m-19.2 34h19.2m-19.2 34h19.2m-19.2 34h19.2m-9.6-170h19.2m-19.2 34h19.2m-19.2 34h19.2m-19.2 34h19.2m-19.2 34h19.2m-19.2 34h19.2m-9.6-170H260m-19.2 34H260m-19.2 34H260m-19.2 34H260m-19.2 34H260m-19.2 34H260m-9.6-170h19.2m-19.2 34h19.2m-19.2 34h19.2m-19.2 34h19.2m-19.2 34h19.2m-19.2 34h19.2m-9.6-170h19.2m-19.2 34h19.2m-19.2 34h19.2m-19.2 34h19.2m-19.2 34h19.2m-19.2 34h19.2m-9.6-170h19.2m-19.2 34h19.2m-19.2 34h19.2m-19.2 34h19.2m-19.2 34h19.2m-19.2 34h19.2m-9.6-170h19.2m-19.2 34h19.2m-19.2 34h19.2m-19.2 34h19.2m-19.2 34h19.2m-19.2 34h19.2m-9.6-170H308m-19.2 34H308m-19.2 34H308m-19.2 34H308m-19.2 34H308m-19.2 34H308m-9.6-170h19.2m-19.2 34h19.2m-19.2 34h19.2m-19.2 34h19.2m-19.2 34h19.2m-19.2 34h19.2m-9.6-170h19.2m-19.2 34h19.2m-19.2 34h19.2m-19.2 34h19.2m-19.2 34h19.2m-19.2 34h19.2m-9.6-170h19.2m-19.2 34h19.2m-19.2 34h19.2m-19.2 34h19.2m-19.2 34h19.2m-19.2 34h19.2m-9.6-170h19.2m-19.2 34h19.2m-19.2 34h19.2m-19.2 34h19.2m-19.2 34h19.2m-19.2 34h19.2m-9.6-170H356m-19.2 34H356m-19.2 34H356m-19.2 34H356m-19.2 34H356m-19.2 34H356m-9.6-170h19.2m-19.2 34h19.2m-19.2 34h19.2m-19.2 34h19.2m-19.2 34h19.2m-19.2 34h19.2m-9.6-170h19.2m-19.2 34h19.2m-19.2 34h19.2m-19.2 34h19.2m-19.2 34h19.2m-19.2 34h19.2m-9.6-170h19.2m-19.2 34h19.2m-19.2 34h19.2m-19.2 34h19.2m-19.2 34h19.2m-19.2 34h19.2m-9.6-170h19.2m-19.2 34h19.2m-19.2 34h19.2m-19.2 34h19.2m-19.2 34h19.2m-19.2 34h19.2m-9.6-170H404m-19.2 34H404m-19.2 34H404m-19.2 34H404m-19.2 34H404m-19.2 34H404m-9.6-170h19.2m-19.2 34h19.2m-19.2 34h19.2m-19.2 34h19.2m-19.2 34h19.2m-19.2 34h19.2m-9.6-170h19.2m-19.2 34h19.2m-19.2 34h19.2m-19.2 34h19.2m-19.2 34h19.2m-19.2 34h19.2m-9.6-170h19.2m-19.2 34h19.2m-19.2 34h19.2m-19.2 34h19.2m-19.2 34h19.2m-19.2 34h19.2m-9.6-170h19.2m-19.2 34h19.2m-19.2 34h19.2m-19.2 34h19.2m-19.2 34h19.2m-19.2 34h19.2m-9.6-170H452m-19.2 34H452m-19.2 34H452m-19.2 34H452m-19.2 34H452m-19.2 34H452m-9.6-170h19.2m-19.2 34h19.2m-19.2 34h19.2m-19.2 34h19.2m-19.2 34h19.2m-19.2 34h19.2m-9.6-170h19.2m-19.2 34h19.2m-19.2 34h19.2m-19.2 34h19.2m-19.2 34h19.2m-19.2 34h19.2m-9.6-170h19.2m-19.2 34h19.2m-19.2 34h19.2m-19.2 34h19.2m-19.2 34h19.2m-19.2 34h19.2m-9.6-170h19.2m-19.2 34h19.2m-19.2 34h19.2m-19.2 34h19.2m-19.2 34h19.2m-19.2 34h19.2m-9.6-170H500m-19.2 34H500m-19.2 34H500m-19.2 34H500m-19.2 34H500m-19.2 34H500m-9.6-170h19.2m-19.2 34h19.2m-19.2 34h19.2m-19.2 34h19.2m-19.2 34h19.2m-19.2 34h19.2m-9.6-170h19.2m-19.2 34h19.2m-19.2 34h19.2m-19.2 34h19.2m-19.2 34h19.2m-19.2 34h19.2m-9.6-170h19.2m-19.2 34h19.2m-19.2 34h19.2m-19.2 34h19.2m-19.2 34h19.2m-19.2 34h19.2m-9.6-170h19.2m-19.2 34h19.2m-19.2 34h19.2m-19.2 34h19.2m-19.2 34h19.2m-19.2 34h19.2m-9.6-170H548m-19.2 34H548m-19.2 34H548m-19.2 34H548m-19.2 34H548m-19.2 34H548m-9.6-170h19.2m-19.2 34h19.2m-19.2 34h19.2m-19.2 34h19.2m-19.2 34h19.2m-19.2 34h19.2m-9.6-170h19.2m-19.2 34h19.2m-19.2 34h19.2m-19.2 34h19.2m-19.2 34h19.2m-19.2 34h19.2m-9.6-170h19.2m-19.2 34h19.2m-19.2 34h19.2m-19.2 34h19.2m-19.2 34h19.2m-19.2 34h19.2m-9.6-170h19.2m-19.2 34h19.2m-19.2 34h19.2m-19.2 34h19.2m-19.2 34h19.2m-19.2 34h19.2m-9.6-170H596m-19.2 34H596m-19.2 34H596m-19.2 34H596m-19.2 34H596m-19.2 34H596m-9.6-170h19.2m-19.2 34h19.2m-19.2 34h19.2m-19.2 34h19.2m-19.2 34h19.2m-19.2 34h19.2m-9.6-170h19.2m-19.2 34h19.2m-19.2 34h19.2m-19.2 34h19.2m-19.2 34h19.2m-19.2 34h19.2m-4.8-174.8H596m14.4 34H596m14.4 34H596m14.4 34H596m14.4 34H596m14.4 34H596"/><text x="149.6" y="114.3" fill="#d97757" font-size="14" font-weight="bold" text-anchor="middle">→</text><text x="216.8" y="114.3" fill="#d97757" font-size="14" font-weight="bold" text-anchor="middle">→</text><text x="284" y="114.3" fill="#d97757" font-size="14" font-weight="bold" text-anchor="middle">→</text><text x="24.8" y="250.3" fill="#141413" font-size="13">`</text><text x="34.4" y="250.3" fill="#141413" font-size="13">`</text><text x="44" y="250.3" fill="#141413" font-size="13">`</text><text x="53.6" y="80.3" fill="#141413" font-size="13">接</text><text x="53.6" y="114.3" fill="#141413" font-size="13">编</text><text x="53.6" y="148.3" fill="#141413" font-size="13">认</text><text x="53.6" y="182.3" fill="#141413" font-size="13">记</text><text x="53.6" y="216.3" fill="#141413" font-size="13">执</text><text x="63.2" y="80.3" fill="#141413" font-size="13">口</text><text x="63.2" y="114.3" fill="#141413" font-size="13">排</text><text x="63.2" y="148.3" fill="#141413" font-size="13">知</text><text x="63.2" y="182.3" fill="#141413" font-size="13">忆</text><text x="63.2" y="216.3" fill="#141413" font-size="13">行</text><text x="72.8" y="80.3" fill="#141413" font-size="13">层</text><text x="72.8" y="114.3" fill="#141413" font-size="13">层</text><text x="72.8" y="148.3" fill="#141413" font-size="13">层</text><text x="72.8" y="182.3" fill="#141413" font-size="13">层</text><text x="72.8" y="216.3" fill="#141413" font-size="13">层</text><text x="82.4" y="80.3" fill="#141413" font-size="13">：</text><text x="82.4" y="114.3" fill="#141413" font-size="13">：</text><text x="82.4" y="148.3" fill="#141413" font-size="13">：</text><text x="82.4" y="182.3" fill="#141413" font-size="13">：</text><text x="82.4" y="216.3" fill="#141413" font-size="13">：</text><text x="92" y="80.3" fill="#141413" font-size="13">支</text><text x="92" y="114.3" fill="#141413" font-size="13">解</text><text x="92" y="148.3" fill="#141413" font-size="13">代</text><text x="92" y="182.3" fill="#141413" font-size="13">历</text><text x="92" y="216.3" fill="#141413" font-size="13">G</text><text x="101.6" y="80.3" fill="#141413" font-size="13">持</text><text x="101.6" y="114.3" fill="#141413" font-size="13">析</text><text x="101.6" y="148.3" fill="#141413" font-size="13">码</text><text x="101.6" y="182.3" fill="#141413" font-size="13">史</text><text x="101.6" y="216.3" fill="#141413" font-size="13">i</text><text x="111.2" y="148.3" fill="#141413" font-size="13">分</text><text x="111.2" y="182.3" fill="#141413" font-size="13">审</text><text x="111.2" y="216.3" fill="#141413" font-size="13">t</text><text x="120.8" y="80.3" fill="#141413" font-size="13">G</text><text x="120.8" y="114.3" fill="#141413" font-size="13">P</text><text x="120.8" y="148.3" fill="#141413" font-size="13">析</text><text x="120.8" y="182.3" fill="#141413" font-size="13">查</text><text x="120.8" y="216.3" fill="#141413" font-size="13">H</text><text x="130.4" y="80.3" fill="#141413" font-size="13">i</text><text x="130.4" y="114.3" fill="#141413" font-size="13">R</text><text x="130.4" y="148.3" fill="#141413" font-size="13">、</text><text x="130.4" y="182.3" fill="#141413" font-size="13">记</text><text x="130.4" y="216.3" fill="#141413" font-size="13">u</text><text x="140" y="80.3" fill="#141413" font-size="13">t</text><text x="140" y="148.3" fill="#141413" font-size="13">问</text><text x="140" y="182.3" fill="#141413" font-size="13">录</text><text x="140" y="216.3" fill="#141413" font-size="13">b</text><text x="149.6" y="80.3" fill="#141413" font-size="13">H</text><text x="149.6" y="148.3" fill="#141413" font-size="13">题</text><text x="149.6" y="182.3" fill="#141413" font-size="13">、</text><text x="159.2" y="80.3" fill="#141413" font-size="13">u</text><text x="159.2" y="148.3" fill="#141413" font-size="13">识</text><text x="159.2" y="182.3" fill="#141413" font-size="13">团</text><text x="159.2" y="216.3" fill="#141413" font-size="13">A</text><text x="168.8" y="80.3" fill="#141413" font-size="13">b</text><text x="168.8" y="114.3" fill="#141413" font-size="13">分</text><text x="168.8" y="148.3" fill="#141413" font-size="13">别</text><text x="168.8" y="182.3" fill="#141413" font-size="13">队</text><text x="168.8" y="216.3" fill="#141413" font-size="13">P</text><text x="178.4" y="114.3" fill="#141413" font-size="13">解</text><text x="178.4" y="148.3" fill="#141413" font-size="13">、</text><text x="178.4" y="182.3" fill="#141413" font-size="13">规</text><text x="178.4" y="216.3" fill="#141413" font-size="13">I</text><text x="188" y="80.3" fill="#141413" font-size="13">W</text><text x="188" y="114.3" fill="#141413" font-size="13">文</text><text x="188" y="148.3" fill="#141413" font-size="13">建</text><text x="188" y="182.3" fill="#141413" font-size="13">范</text><text x="188" y="216.3" fill="#141413" font-size="13">、</text><text x="197.6" y="80.3" fill="#141413" font-size="13">e</text><text x="197.6" y="114.3" fill="#141413" font-size="13">件</text><text x="197.6" y="148.3" fill="#141413" font-size="13">议</text><text x="197.6" y="182.3" fill="#141413" font-size="13">、</text><text x="197.6" y="216.3" fill="#141413" font-size="13">静</text><text x="207.2" y="80.3" fill="#141413" font-size="13">b</text><text x="207.2" y="148.3" fill="#141413" font-size="13">生</text><text x="207.2" y="182.3" fill="#141413" font-size="13">最</text><text x="207.2" y="216.3" fill="#141413" font-size="13">态</text><text x="216.8" y="80.3" fill="#141413" font-size="13">h</text><text x="216.8" y="148.3" fill="#141413" font-size="13">成</text><text x="216.8" y="182.3" fill="#141413" font-size="13">佳</text><text x="216.8" y="216.3" fill="#141413" font-size="13">分</text><text x="226.4" y="80.3" fill="#141413" font-size="13">o</text><text x="226.4" y="182.3" fill="#141413" font-size="13">实</text><text x="226.4" y="216.3" fill="#141413" font-size="13">析</text><text x="236" y="80.3" fill="#141413" font-size="13">o</text><text x="236" y="114.3" fill="#141413" font-size="13">并</text><text x="236" y="182.3" fill="#141413" font-size="13">践</text><text x="236" y="216.3" fill="#141413" font-size="13">工</text><text x="245.6" y="80.3" fill="#141413" font-size="13">k</text><text x="245.6" y="114.3" fill="#141413" font-size="13">发</text><text x="245.6" y="216.3" fill="#141413" font-size="13">具</text><text x="255.2" y="80.3" fill="#141413" font-size="13">、</text><text x="255.2" y="114.3" fill="#141413" font-size="13">分</text><text x="255.2" y="216.3" fill="#141413" font-size="13">、</text><text x="264.8" y="80.3" fill="#141413" font-size="13">C</text><text x="264.8" y="114.3" fill="#141413" font-size="13">析</text><text x="264.8" y="216.3" fill="#141413" font-size="13">L</text><text x="274.4" y="80.3" fill="#141413" font-size="13">L</text><text x="274.4" y="216.3" fill="#141413" font-size="13">L</text><text x="284" y="80.3" fill="#141413" font-size="13">I</text><text x="284" y="216.3" fill="#141413" font-size="13">M</text><text x="293.6" y="80.3" fill="#141413" font-size="13">、</text><text x="303.2" y="80.3" fill="#141413" font-size="13">A</text><text x="303.2" y="114.3" fill="#141413" font-size="13">聚</text><text x="303.2" y="216.3" fill="#141413" font-size="13">A</text><text x="312.8" y="80.3" fill="#141413" font-size="13">P</text><text x="312.8" y="114.3" fill="#141413" font-size="13">合</text><text x="312.8" y="216.3" fill="#141413" font-size="13">P</text><text x="322.4" y="80.3" fill="#141413" font-size="13">I</text><text x="322.4" y="114.3" fill="#141413" font-size="13">报</text><text x="322.4" y="216.3" fill="#141413" font-size="13">I</text><text x="332" y="114.3" fill="#141413" font-size="13">告</text><text x="437.6" y="182.3" fill="#141413" font-size="13">│</text><text x="456.8" y="114.3" fill="#141413" font-size="13">│</text><text x="456.8" y="148.3" fill="#141413" font-size="13">│</text><text x="504.8" y="216.3" fill="#141413" font-size="13">│</text><text x="543.2" y="80.3" fill="#141413" font-size="13">│</text></svg>