<svg xmlns="http://www.w3.org/2000/svg" font-family="ui-serif, Georgia, serif" viewBox="0 0 640 220"><path fill="#faf9f5" d="M0 0h640v220H0z"/><text x="320" y="20" fill="#141413" font-size="13" font-weight="500" letter-spacing="-.02em" text-anchor="middle">反馈周期压缩：从月到分钟</text><text x="320" y="36" fill="#87867f" font-family="ui-monospace, monospace" font-size="9.5" text-anchor="middle">postcodeengineering.com · 2026/03/15</text><path stroke="#d1cfc5" stroke-width="2" d="M60 130h540"/><circle cx="100" cy="130" r="10" fill="#fff" stroke="#d97757" stroke-width="2"/><rect width="96" height="60" x="52" y="148" fill="#fff" stroke="#d97757" stroke-width="1.5" rx="6"/><text x="100" y="164" fill="#d97757" font-family="ui-monospace, monospace" font-size="10" font-weight="600" text-anchor="middle">瀑布时代</text><text x="100" y="178" fill="#141413" font-size="9" text-anchor="middle">1950s–1990s</text><text x="100" y="192" fill="#d97757" font-size="14" font-weight="700" text-anchor="middle">月</text><text x="100" y="204" fill="#87867f" font-size="8.5" text-anchor="middle">反馈周期</text><path stroke="#d1cfc5" stroke-width="1.5" d="M152 130h36"/><path fill="#d1cfc5" d="m188 126-6 4 6 4z"/><circle cx="220" cy="130" r="10" fill="#fff" stroke="#e3dacc" stroke-width="2"/><rect width="96" height="60" x="172" y="148" fill="#fff" stroke="#d1cfc5" stroke-width="1.5" rx="6"/><text x="220" y="164" fill="#87867f" font-family="ui-monospace, monospace" font-size="10" font-weight="600" text-anchor="middle">敏捷时代</text><text x="220" y="178" fill="#141413" font-size="9" text-anchor="middle">2000s–2010s</text><text x="220" y="192" fill="#87867f" font-size="14" font-weight="700" text-anchor="middle">天</text><text x="220" y="204" fill="#87867f" font-size="8.5" text-anchor="middle">反馈周期</text><path stroke="#d1cfc5" stroke-width="1.5" d="M272 130h36"/><path fill="#d1cfc5" d="m308 126-6 4 6 4z"/><circle cx="340" cy="130" r="10" fill="#fff" stroke="#788c5d" stroke-width="2"/><rect width="96" height="60" x="292" y="148" fill="#fff" stroke="#788c5d" stroke-width="1.5" rx="6"/><text x="340" y="164" fill="#788c5d" font-family="ui-monospace, monospace" font-size="10" font-weight="600" text-anchor="middle">DevOps 时代</text><text x="340" y="178" fill="#141413" font-size="9" text-anchor="middle">2010s–2020s</text><text x="340" y="192" fill="#788c5d" font-size="14" font-weight="700" text-anchor="middle">小时</text><text x="340" y="204" fill="#87867f" font-size="8.5" text-anchor="middle">反馈周期</text><path stroke="#d1cfc5" stroke-width="1.5" d="M392 130h36"/><path fill="#d1cfc5" d="m428 126-6 4 6 4z"/><circle cx="460" cy="130" r="14" fill="#d97757" stroke="#d97757" stroke-width="2"/><rect width="96" height="60" x="412" y="148" fill="#fef3c7" stroke="#d97757" stroke-width="1.8" rx="6"/><text x="460" y="164" fill="#d97757" font-family="ui-monospace, monospace" font-size="10" font-weight="600" text-anchor="middle">AI-Native 时代</text><text x="460" y="178" fill="#141413" font-size="9" text-anchor="middle">2020s–</text><text x="460" y="192" fill="#d97757" font-size="14" font-weight="700" text-anchor="middle">分钟</text><text x="460" y="204" fill="#87867f" font-size="8.5" text-anchor="middle">反馈周期</text><path stroke="#d97757" stroke-dasharray="4,3" stroke-width="1.5" d="M512 130h68"/><text x="546" y="124" fill="#d97757" font-family="ui-monospace, monospace" font-size="8" text-anchor="middle">持续压缩</text><rect width="560" height="22" x="40" y="52" fill="#fff" stroke="#d1cfc5" stroke-dasharray="4,3" rx="5"/><text x="320" y="66" fill="#87867f" font-family="ui-monospace, monospace" font-size="9.5" text-anchor="middle">反馈周期压缩：月 → 天 → 小时 → 分钟；每一阶段都是上一阶段的 10-100 倍加速</text><text x="100" y="106" fill="#d97757" font-family="ui-monospace, monospace" font-size="8.5" text-anchor="middle">人工</text><text x="100" y="116" fill="#d97757" font-family="ui-monospace, monospace" font-size="8.5" text-anchor="middle">Review</text><text x="220" y="106" fill="#87867f" font-family="ui-monospace, monospace" font-size="8.5" text-anchor="middle">Sprint</text><text x="220" y="116" fill="#87867f" font-family="ui-monospace, monospace" font-size="8.5" text-anchor="middle">Planning</text><text x="340" y="106" fill="#788c5d" font-family="ui-monospace, monospace" font-size="8.5" text-anchor="middle">CI/CD</text><text x="340" y="116" fill="#788c5d" font-family="ui-monospace, monospace" font-size="8.5" text-anchor="middle">Pipeline</text><text x="460" y="106" fill="#d97757" font-family="ui-monospace, monospace" font-size="8.5" text-anchor="middle">Agent Loop</text><text x="460" y="116" fill="#d97757" font-family="ui-monospace, monospace" font-size="8.5" text-anchor="middle">实时验证</text></svg>