<svg viewBox="0 0 560 180" xmlns="http://www.w3.org/2000/svg" font-family="ui-serif, Georgia, serif">
  <!-- CEO Agent → 部门 Agent → Sub-Agents 分层 -->
  <rect width="560" height="180" fill="#FAF9F5"/>
  <text x="280" y="18" text-anchor="middle" font-size="12" font-weight="500" fill="#141413" letter-spacing="-0.02em">CEO Agent 分层管理模式</text>
  <text x="280" y="32" text-anchor="middle" font-size="9" fill="#87867F" font-family="ui-monospace, monospace">postcodeengineering.com · 2026/03/15</text>

  <!-- CEO Agent (top) -->
  <rect x="180" y="46" width="200" height="42" rx="6" fill="#FFFFFF" stroke="#D97757" stroke-width="2"/>
  <rect x="180" y="46" width="200" height="18" rx="6" fill="#FEF3C7" stroke="#D97757" stroke-width="1"/>
  <text x="280" y="60" text-anchor="middle" font-size="10" fill="#D97757" font-family="ui-monospace, monospace" font-weight="600">CEO Agent</text>
  <text x="280" y="76" text-anchor="middle" font-size="9" fill="#87867F">战略决策 · 资源分配</text>
  <rect x="372" y="54" width="14" height="14" rx="7" fill="#D97757"/>
  <text x="379" y="65" text-anchor="middle" font-size="7" fill="#FFFFFF" font-family="ui-monospace, monospace">C</text>

  <!-- Three department agents -->
  <line x1="280" y1="88" x2="110" y2="112" stroke="#D1CFC5" stroke-width="1.5"/>
  <line x1="280" y1="88" x2="280" y2="112" stroke="#D1CFC5" stroke-width="1.5"/>
  <line x1="280" y1="88" x2="450" y2="112" stroke="#D1CFC5" stroke-width="1.5"/>

  <rect x="40" y="112" width="130" height="50" rx="5" fill="#FFFFFF" stroke="#2563EB" stroke-width="1.5"/>
  <rect x="40" y="112" width="130" height="16" rx="5" fill="#DBEAFE" stroke="#2563EB" stroke-width="1"/>
  <text x="105" y="126" text-anchor="middle" font-size="10" fill="#2563EB" font-family="ui-monospace, monospace" font-weight="600">Eng Agent</text>
  <text x="105" y="142" text-anchor="middle" font-size="8.5" fill="#141413">工程部门</text>
  <text x="105" y="155" text-anchor="middle" font-size="8" fill="#87867F">Sub-Agents ×N</text>
  <rect x="162" y="126" width="14" height="14" rx="7" fill="#2563EB"/>
  <text x="169" y="137" text-anchor="middle" font-size="7" fill="#FFFFFF" font-family="ui-monospace, monospace">E</text>

  <rect x="215" y="112" width="130" height="50" rx="5" fill="#FFFFFF" stroke="#EA580C" stroke-width="1.5"/>
  <rect x="215" y="112" width="130" height="16" rx="5" fill="#FED7AA" stroke="#EA580C" stroke-width="1"/>
  <text x="280" y="126" text-anchor="middle" font-size="10" fill="#EA580C" font-family="ui-monospace, monospace" font-weight="600">Biz Agent</text>
  <text x="280" y="142" text-anchor="middle" font-size="8.5" fill="#141413">商业部门</text>
  <text x="280" y="155" text-anchor="middle" font-size="8" fill="#87867F">Sub-Agents ×N</text>
  <rect x="337" y="126" width="14" height="14" rx="7" fill="#EA580C"/>
  <text x="344" y="137" text-anchor="middle" font-size="7" fill="#FFFFFF" font-family="ui-monospace, monospace">B</text>

  <rect x="390" y="112" width="130" height="50" rx="5" fill="#FFFFFF" stroke="#059669" stroke-width="1.5"/>
  <rect x="390" y="112" width="130" height="16" rx="5" fill="#D1FAE5" stroke="#059669" stroke-width="1"/>
  <text x="455" y="126" text-anchor="middle" font-size="10" fill="#059669" font-family="ui-monospace, monospace" font-weight="600">HR Agent</text>
  <text x="455" y="142" text-anchor="middle" font-size="8.5" fill="#141413">人力部门</text>
  <text x="455" y="155" text-anchor="middle" font-size="8" fill="#87867F">Sub-Agents ×N</text>
  <rect x="512" y="126" width="14" height="14" rx="7" fill="#059669"/>
  <text x="519" y="137" text-anchor="middle" font-size="7" fill="#FFFFFF" font-family="ui-monospace, monospace">H</text>
</svg>