<svg xmlns="http://www.w3.org/2000/svg" font-family="'Georgia', serif" viewBox="0 0 800 700"><defs><linearGradient id="g-top" x1="0" x2="0" y1="0" y2="1"><stop offset="0%" stop-color="#c85a38"/><stop offset="100%" stop-color="#d97757"/></linearGradient><linearGradient id="g-mid" x1="0" x2="0" y1="0" y2="1"><stop offset="0%" stop-color="#788c5d"/><stop offset="100%" stop-color="#5e7849"/></linearGradient><linearGradient id="g-base" x1="0" x2="0" y1="0" y2="1"><stop offset="0%" stop-color="#b8b4a8"/><stop offset="100%" stop-color="#d1cfc5"/></linearGradient><linearGradient id="g-path" x1="0" x2="0" y1="0" y2="1"><stop offset="0%" stop-color="#e3dacc"/><stop offset="100%" stop-color="#d4c9b8"/></linearGradient><style>.label-sm{font-size:11px;fill:#87867f}.label-xl{font-size:18px;fill:#141413;font-weight:700}.label-white{font-size:13px;fill:#faf9f5}</style></defs><path fill="#faf9f5" d="M0 0h800v700H0z"/><text x="400" y="38" style="font-size:13px;fill:#87867f;letter-spacing:3px;text-transform:uppercase" text-anchor="middle">AISE Knowledge System</text><text x="400" y="60" class="label-sm" text-anchor="middle">AI-Native 软件工程知识体系</text><path fill="url(#g-base)" stroke="#c4c0b4" d="M185 430h430l75 160H110z"/><text x="400" y="465" class="label-xl" text-anchor="middle">实践案例层</text><text x="400" y="486" class="label-sm" text-anchor="middle">团队 · 治理 · 架构 · 成本 · 数据与体验</text><text x="175" y="530" class="label-sm" text-anchor="end">AI-Native团队重组</text><text x="625" y="530" class="label-sm">大规模AI治理</text><text x="175" y="548" class="label-sm" text-anchor="end">架构模式失效</text><text x="625" y="548" class="label-sm">AI账单失控</text><text x="175" y="566" class="label-sm" text-anchor="end">API文档之死</text><text x="625" y="566" class="label-sm">开发者体验革命</text><path fill="url(#g-mid)" stroke="#5e7849" d="M240 295h320l55 135H185z"/><text x="400" y="335" fill="#faf9f5" class="label-xl" text-anchor="middle">工具方法论层</text><text x="400" y="358" fill="#d4e0cb" class="label-sm" text-anchor="middle">需求设计 · 开发实践 · 代码知识</text><text x="248" y="393" fill="#d4e0cb" class="label-sm" text-anchor="end">Executable PRD</text><text x="552" y="393" fill="#d4e0cb" class="label-sm">代码评审死亡</text><text x="248" y="410" fill="#d4e0cb" class="label-sm" text-anchor="end">S-curve采用</text><text x="552" y="410" fill="#d4e0cb" class="label-sm">Agent Swarm</text><path fill="url(#g-top)" stroke="#c85a38" d="M310 165h180l70 130H240z"/><text x="400" y="205" fill="#faf9f5" class="label-xl" text-anchor="middle">理论基础层</text><text x="400" y="228" fill="#f5c4b0" class="label-sm" text-anchor="middle">Context Engineering · TDD→IDD · 意图复杂度</text><text x="400" y="245" fill="#f5c4b0" class="label-sm" text-anchor="middle">AI-Native软件工程宣言</text><path fill="#d97757" stroke="#c85a38" d="M310 80h180v85H310z"/><text x="400" y="112" class="label-white" font-weight="bold" text-anchor="middle">AISE Framework</text><text x="400" y="132" fill="#faf9f5" class="label-sm" text-anchor="middle">AI-Native 软件工程框架</text><path stroke="#d1cfc5" stroke-dasharray="5,4" stroke-width="1.5" d="M62 80v530"/><text x="62" y="68" fill="#87867f" class="label-sm" text-anchor="middle">学习</text><text x="62" y="80" fill="#87867f" class="label-sm" text-anchor="middle">路径</text><circle cx="62" cy="120" r="10" fill="#d97757" stroke="#faf9f5" stroke-width="2"/><text x="62" y="124" class="label-white" font-size="9" text-anchor="middle">1</text><text x="58" y="105" class="label-sm" text-anchor="end">理解</text><text x="58" y="117" class="label-sm" text-anchor="end">理论基础</text><circle cx="62" cy="240" r="10" fill="#788c5d" stroke="#faf9f5" stroke-width="2"/><text x="62" y="244" class="label-white" font-size="9" text-anchor="middle">2</text><text x="58" y="225" class="label-sm" text-anchor="end">掌握</text><text x="58" y="237" class="label-sm" text-anchor="end">工具方法论</text><circle cx="62" cy="510" r="10" fill="#d1cfc5" stroke="#faf9f5" stroke-width="2"/><text x="62" y="514" class="label-white" font-size="9" text-anchor="middle">3</text><text x="58" y="495" class="label-sm" text-anchor="end">应用</text><text x="58" y="507" class="label-sm" text-anchor="end">实践案例</text><path fill="#d1cfc5" d="m62 600-7-15h14z"/><rect width="88" height="520" x="700" y="80" fill="url(#g-path)" stroke="#d1cfc5" rx="6"/><text x="744" y="102" fill="#87867f" class="label-sm" text-anchor="middle">系列统计</text><path stroke="#d1cfc5" d="M710 112h68"/><text x="744" y="140" fill="#d97757" class="label-xl" text-anchor="middle">25</text><text x="744" y="156" class="label-sm" text-anchor="middle">篇文章</text><text x="744" y="192" fill="#788c5d" class="label-xl" text-anchor="middle">6</text><text x="744" y="208" class="label-sm" text-anchor="middle">知识层次</text><text x="744" y="244" fill="#87867f" class="label-xl" text-anchor="middle">300</text><text x="744" y="260" class="label-sm" text-anchor="middle">分钟深度阅读</text><path stroke="#d1cfc5" d="M710 278h68"/><text x="744" y="305" fill="#87867f" class="label-sm" text-anchor="middle">三层结构</text><text x="744" y="322" fill="#c85a38" class="label-sm" text-anchor="middle">● 理论基础</text><text x="744" y="340" fill="#5e7849" class="label-sm" text-anchor="middle">● 工具方法论</text><text x="744" y="358" fill="#87867f" class="label-sm" text-anchor="middle">● 实践案例</text><path stroke="#d1cfc5" d="M710 375h68"/><text x="744" y="400" fill="#87867f" class="label-sm" text-anchor="middle">核心理念</text><text x="744" y="420" class="label-sm" text-anchor="middle">不是用AI工具</text><text x="744" y="436" class="label-sm" text-anchor="middle">而是重新定义</text><text x="744" y="452" class="label-sm" font-weight="bold" text-anchor="middle">软件工程本质</text><path stroke="#e3dacc" d="M110 620h580"/><text x="400" y="640" fill="#87867f" class="label-sm" text-anchor="middle">学习路径：从理论根基 → 方法论工具 → 实践应用，层层递进</text><text x="400" y="658" fill="#87867f" class="label-sm" text-anchor="middle">本系列探索：当AI可以写代码时，软件工程还剩下什么？</text></svg>