<svg xmlns="http://www.w3.org/2000/svg" font-family="system-ui,-apple-system,sans-serif" viewBox="0 0 800 520">
  <defs>
    <filter id="sh4" width="110%" height="110%" x="-5%" y="-5%">
      <feDropShadow dx="0" dy="2" flood-color="#141413" flood-opacity=".12" stdDeviation="3"/>
    </filter>
  </defs>
  <path fill="#faf9f5" d="M0 0h800v520H0z"/>
  <text x="400" y="36" fill="#141413" font-size="18" font-weight="700" text-anchor="middle">AI-Native 软件工程知识体系</text>
  <text x="400" y="56" fill="#87867f" font-size="11" text-anchor="middle">AISE Series | 25篇 | 约300分钟深度阅读</text>
  <rect width="720" height="68" x="40" y="76" fill="#141413" filter="url(#sh4)" rx="10"/>
  <rect width="720" height="8" x="40" y="76" fill="#d97757" rx="5"/>
  <text x="60" y="102" fill="#faf9f5" font-size="12" font-weight="700">理论基础层</text>
  <text x="60" y="118" fill="#87867f" font-size="9">Context Engineering · TDD vs Intent-Driven · Intent Complexity · AISE Manifesto</text>
  <circle cx="700" cy="110" r="16" fill="#d97757"/>
  <text x="700" y="106" fill="#faf9f5" font-size="8" font-weight="700" text-anchor="middle">4</text>
  <text x="700" y="117" fill="#faf9f5" font-size="7" text-anchor="middle">篇</text>
  <rect width="720" height="68" x="40" y="152" fill="#e3dacc" filter="url(#sh4)" rx="10"/>
  <rect width="720" height="8" x="40" y="152" fill="#d97757" rx="5"/>
  <text x="60" y="178" fill="#141413" font-size="12" font-weight="700">需求与设计层</text>
  <text x="60" y="194" fill="#87867f" font-size="9">Executable PRD · S-curve Adoption</text>
  <circle cx="700" cy="186" r="16" fill="#d97757"/>
  <text x="700" y="182" fill="#faf9f5" font-size="8" font-weight="700" text-anchor="middle">2</text>
  <text x="700" y="193" fill="#faf9f5" font-size="7" text-anchor="middle">篇</text>
  <rect width="720" height="68" x="40" y="228" fill="#141413" filter="url(#sh4)" rx="10"/>
  <rect width="720" height="8" x="40" y="228" fill="#788c5d" rx="5"/>
  <text x="60" y="254" fill="#faf9f5" font-size="12" font-weight="700">开发实践层</text>
  <text x="60" y="270" fill="#87867f" font-size="9">Code Review 死亡 · Semantic Diff · Agent Swarm · 停止写单元测试</text>
  <circle cx="700" cy="262" r="16" fill="#788c5d"/>
  <text x="700" y="258" fill="#faf9f5" font-size="8" font-weight="700" text-anchor="middle">4</text>
  <text x="700" y="269" fill="#faf9f5" font-size="7" text-anchor="middle">篇</text>
  <rect width="720" height="68" x="40" y="304" fill="#e3dacc" filter="url(#sh4)" rx="10"/>
  <rect width="720" height="8" x="40" y="304" fill="#788c5d" rx="5"/>
  <text x="60" y="330" fill="#141413" font-size="12" font-weight="700">代码与知识层</text>
  <text x="60" y="346" fill="#87867f" font-size="9">知识资产化 · Context 衰减 · Code Archaeology</text>
  <circle cx="700" cy="338" r="16" fill="#788c5d"/>
  <text x="700" y="334" fill="#faf9f5" font-size="8" font-weight="700" text-anchor="middle">3</text>
  <text x="700" y="345" fill="#faf9f5" font-size="7" text-anchor="middle">篇</text>
  <rect width="720" height="68" x="40" y="380" fill="#141413" filter="url(#sh4)" rx="10"/>
  <rect width="720" height="8" x="40" y="380" fill="#d97757" rx="5"/>
  <text x="60" y="406" fill="#faf9f5" font-size="12" font-weight="700">团队与组织层</text>
  <text x="60" y="422" fill="#87867f" font-size="9">AI-Native 团队重组 · Intent 架构师</text>
  <circle cx="700" cy="414" r="16" fill="#d97757"/>
  <text x="700" y="410" fill="#faf9f5" font-size="8" font-weight="700" text-anchor="middle">1</text>
  <text x="700" y="421" fill="#faf9f5" font-size="7" text-anchor="middle">篇</text>
  <path stroke="#d1cfc5" stroke-dasharray="6,3" stroke-width="2" d="M400 152v228"/>
  <path fill="#d1cfc5" d="m400 380-5-12h10z"/>
  <rect width="720" height="46" x="40" y="460" fill="#141413" filter="url(#sh4)" rx="8"/>
  <text x="400" y="480" fill="#faf9f5" font-size="11" font-weight="700" text-anchor="middle">核心问题：当 AI 可以写代码时，软件工程还剩下什么？</text>
  <text x="400" y="497" fill="#87867f" font-size="9" text-anchor="middle">Context Engineering · Intent-Driven · 治理框架 · 成本控制 · 开发者体验</text>
  <text x="775" y="90" fill="#87867f" font-size="8" text-anchor="end">治理与质量层</text>
  <text x="775" y="104" fill="#87867f" font-size="8" text-anchor="end">架构与系统层</text>
  <text x="775" y="118" fill="#87867f" font-size="8" text-anchor="end">成本与运营层</text>
  <text x="775" y="132" fill="#87867f" font-size="8" text-anchor="end">数据与体验层</text>
</svg>
